<?xml version="1.0" standalone="no"?>
<!DOCTYPE svg PUBLIC "-//W3C//DTD SVG 1.1//EN" "http://www.w3.org/Graphics/SVG/1.1/DTD/svg11.dtd" >
<svg xmlns="http://www.w3.org/2000/svg" xmlns:xlink="http://www.w3.org/1999/xlink" version="1.1">
<metadata>
Created by FontForge 20170731 at Wed Jun 19 15:26:00 2019
 By Aleksey,,,
Moh'd M. Khatib.2019
</metadata>
<defs>
<font id="Sahar-Black" horiz-adv-x="556" >
  <font-face 
    font-family="sahar Black"
    font-weight="900"
    font-stretch="normal"
    units-per-em="1000"
    panose-1="0 0 0 0 0 0 0 0 0 0"
    ascent="800"
    descent="-200"
    x-height="520"
    cap-height="710"
    bbox="-230 -260 1261 1001"
    underline-thickness="50"
    underline-position="-250"
    unicode-range="U+0020-FB02"
  />
<missing-glyph horiz-adv-x="686" 
d="M638 710h-585v-710h585v710zM440 535v-360h-189v360h189z" />
    <glyph glyph-name="fi" unicode="fi" horiz-adv-x="619" 
d="M391 0h187v520h-307v4q0 64 68 64h239v152h-252q-241 0 -241 -217v-3h-71v-152h71v-368h186v368h120v-368z" />
    <glyph glyph-name="fl" unicode="fl" horiz-adv-x="618" 
d="M388 0h186v740h-248q-117 0 -179 -53.5t-62 -162.5v-4h-71v-152h71v-368h186v368h78v152h-78v4q0 64 68 64h49v-588z" />
    <glyph glyph-name=".notdef" horiz-adv-x="686" 
d="M638 710h-585v-710h585v710zM440 535v-360h-189v360h189z" />
    <glyph glyph-name=".null" horiz-adv-x="600" 
 />
    <glyph glyph-name="glyph2" horiz-adv-x="333" 
 />
    <glyph glyph-name="space" unicode=" " horiz-adv-x="180" 
 />
    <glyph glyph-name="exclam" unicode="!" horiz-adv-x="284" 
d="M239 739h-193l18 -506h154zM141 183q-19 0 -36.5 -7.5t-30.5 -20.5t-20.5 -30t-7.5 -37t7.5 -37.5t20.5 -30.5t30.5 -20.5t36.5 -7.5q40 0 68 28t28 68q0 20 -7.5 37t-20.5 30t-30.5 20.5t-37.5 7.5z" />
    <glyph glyph-name="quotedbl" unicode="&#x22;" horiz-adv-x="410" 
d="M384 710h-161v-264h133zM202 710h-161v-264h133z" />
    <glyph glyph-name="numbersign" unicode="#" horiz-adv-x="767" 
d="M73 0h166l40 131h88l-40 -131h168l40 131h97l47 156h-98l29 97h98l46 155h-98l40 134h-168l-40 -134h-88l40 134h-168l-40 -134h-97l-46 -155h97l-28 -97h-99l-47 -156h99zM442 384l-29 -97h-88l29 97h88z" />
    <glyph glyph-name="dollar" unicode="$" horiz-adv-x="621" 
d="M222 689q-94 -16 -142 -66t-48 -131q0 -64 23 -103.5t61.5 -62.5t87 -33.5t99.5 -18.5q49 -6 73 -16.5t24 -33.5q0 -48 -95 -48q-75 0 -99 49l-13 27l-174 -61l11 -31q42 -115 192 -138v-72h180v74q94 17 143.5 68.5t49.5 133.5q0 45 -11 80t-33 56q-17 16 -29.5 26.5
t-35.5 19.5q-38 14 -76 22t-79 13q-52 7 -77.5 17.5t-25.5 33.5q0 24 19 34.5t64 10.5q37 0 56.5 -11t33.5 -37l15 -28l172 76l-14 28q-50 101 -172 122v72h-180v-72z" />
    <glyph glyph-name="percent" unicode="%" horiz-adv-x="903" 
d="M614 710l-522 -710h199l521 710h-198zM832 26q46 41 46 114v75q0 74 -46 115.5t-132 41.5t-132 -41.5t-46 -115.5v-75q0 -73 46 -114t132 -41t132 41zM25 493q0 -72 46 -113t132 -41t132 41t46 113v76q0 73 -46 114.5t-132 41.5t-132 -41.5t-46 -114.5v-76zM160 560
q0 36 43 36q42 0 42 -36v-56q0 -37 -42 -37q-43 0 -43 37v56zM658 150v56q0 36 43 36q42 0 42 -36v-56q0 -36 -42 -36q-43 0 -43 36z" />
    <glyph glyph-name="ampersand" unicode="&#x26;" horiz-adv-x="698" 
d="M401 363q105 62 105 175q0 42 -16.5 76.5t-44 59t-64 38t-77.5 13.5q-49 0 -88 -15.5t-66 -42t-41 -62.5t-14 -78q0 -72 45 -129q-119 -68 -119 -191q0 -51 17 -92t47.5 -70t74 -44.5t96.5 -15.5q56 0 102 15.5t96 56.5l54 -57h215l-154 167l79 77l-118 117l-73 -73
l-65 70zM344 177q-40 -36 -77 -36q-31 0 -50 18t-19 47q0 48 50 74zM287 472q-28 32 -28 64q0 20 12 33t33 13q19 0 30.5 -11.5t11.5 -30.5q0 -34 -38 -57z" />
    <glyph glyph-name="quotesingle" unicode="'" horiz-adv-x="228" 
d="M41 446h132l28 264h-160v-264z" />
    <glyph glyph-name="parenleft" unicode="(" horiz-adv-x="318" 
d="M226 -165l82 170l-36 20q-27 15 -38.5 36.5t-11.5 59.5v469q0 69 50 96l37 20l-84 170l-32 -15q-76 -35 -114 -98.5t-38 -167.5v-479q0 -104 38 -167.5t114 -98.5z" />
    <glyph glyph-name="parenright" unicode=")" horiz-adv-x="318" 
d="M276 595q0 104 -38 167.5t-114 98.5l-33 15l-83 -170l37 -20q50 -27 50 -96v-469q0 -38 -11.5 -59.5t-38.5 -36.5l-37 -20l83 -170l33 15q76 35 114 98.5t38 167.5v479z" />
    <glyph glyph-name="asterisk" unicode="*" horiz-adv-x="349" 
d="M295 627l-88 -45l16 98h-98l17 -98l-88 45l-33 -92l100 -16l-71 -70l79 -58l45 87l43 -86l82 56l-71 71l100 16z" />
    <glyph glyph-name="plus" unicode="+" horiz-adv-x="552" 
d="M358 245h168v165h-168v167h-165v-167h-167v-165h167v-168h165v168z" />
    <glyph glyph-name="comma" unicode="," horiz-adv-x="261" 
d="M51 186l-38 -308h128l104 308h-194z" />
    <glyph glyph-name="hyphen" unicode="-" horiz-adv-x="402" 
d="M43 180h316v169h-316v-169z" />
    <glyph glyph-name="period" unicode="." horiz-adv-x="263" 
d="M131 190q-42 0 -70.5 -28.5t-28.5 -70.5t28.5 -70.5t70.5 -28.5t70.5 28.5t28.5 70.5t-28.5 70.5t-70.5 28.5z" />
    <glyph glyph-name="slash" unicode="/" horiz-adv-x="493" 
d="M296 710l-287 -770h189l286 770h-188z" />
    <glyph glyph-name="zero" unicode="0" horiz-adv-x="648" 
d="M534 655q-75 70 -210 70t-210 -70t-75 -190v-219q0 -122 75 -191.5t210 -69.5t210 69.5t75 191.5v219q0 120 -75 190zM411 238q0 -37 -23 -57.5t-64 -20.5t-64 20.5t-23 57.5v235q0 37 23 57t64 20t64 -20t23 -57v-235z" />
    <glyph glyph-name="one" unicode="1" horiz-adv-x="449" 
d="M-9 558l90 -161l109 62v-459h198v710h-132z" />
    <glyph glyph-name="two" unicode="2" horiz-adv-x="613" 
d="M568 169h-330v6q0 9 11 16t28 13t38 11.5t41 11.5q53 19 95 40t71 51t44.5 72t15.5 103q0 57 -21.5 100.5t-57.5 72.5t-84 44t-101 15q-210 0 -279 -175l-12 -29l184 -68l15 33q17 35 36 49.5t50 14.5q32 0 50 -18.5t18 -47.5q-4 -27 -12.5 -45t-22 -30.5t-31 -22
t-40.5 -20.5q-13 -6 -48 -21q-40 -17 -75 -35.5t-61.5 -44t-42 -60.5t-15.5 -83v-122h536v169z" />
    <glyph glyph-name="three" unicode="3" horiz-adv-x="626" 
d="M226 275h96q66 0 66 -59t-78 -59q-77 0 -101 65l-12 33l-179 -63l12 -32q64 -175 295 -175q136 0 203 56.5t67 162.5q0 116 -99 168q78 51 78 146q0 55 -20 94t-53.5 64t-78.5 37t-95 12q-229 0 -295 -175l-11 -28l178 -64l12 31q14 35 34 49.5t60 14.5q68 0 68 -55
t-68 -55h-79v-168z" />
    <glyph glyph-name="four" unicode="4" horiz-adv-x="657" 
d="M366 710l-351 -419v-150h345v-141h187v141h93v154h-93v415h-181zM360 464v-169h-140z" />
    <glyph glyph-name="five" unicode="5" horiz-adv-x="613" 
d="M210 219l-13 31l-184 -69l12 -31q32 -85 101.5 -125t189.5 -40q56 0 105.5 15.5t86 46.5t58 76t21.5 105q0 53 -16.5 96.5t-49 75t-81.5 49t-115 17.5h-67l7 70h291v175h-470l-42 -406h257q80 0 80 -68q0 -74 -74 -74q-73 0 -97 56z" />
    <glyph glyph-name="six" unicode="6" horiz-adv-x="651" 
d="M619 537l-11 29q-61 159 -279 159q-142 0 -216 -69t-74 -200v-202q0 -131 73.5 -200t216.5 -69q138 0 214 60.5t76 174.5q0 118 -67.5 174.5t-211.5 56.5q-32 0 -58 -2t-46 -6v14q0 49 22.5 71t73.5 22q76 0 99 -47l16 -33zM236 270q35 12 93 12q51 0 72 -15t21 -48
q0 -32 -21 -48.5t-72 -16.5q-93 0 -93 78v38z" />
    <glyph glyph-name="seven" unicode="7" horiz-adv-x="568" 
d="M555 710h-538v-175h309l-250 -535h213l266 567v143z" />
    <glyph glyph-name="eight" unicode="8" horiz-adv-x="648" 
d="M54 511q0 -104 75 -156q-99 -61 -99 -166q0 -204 293 -204q151 0 222.5 59.5t71.5 163.5q0 113 -94 169q71 61 71 147q0 97 -69.5 149t-201.5 52q-125 0 -197 -56.5t-72 -157.5zM228 208q0 44 50 77q11 -3 28 -8t25 -7t21 -6.5t18.5 -7t14 -6.5t12 -8.5t7.5 -9.5
t5.5 -11.5t1.5 -14.5q0 -58 -89 -58q-94 0 -94 60zM271 469q-17 13 -17 38q0 53 70 53q74 0 74 -53q0 -43 -43 -71l-30 8q-37 11 -54 25z" />
    <glyph glyph-name="nine" unicode="9" horiz-adv-x="651" 
d="M415 253q0 -49 -22.5 -71t-73.5 -22q-76 0 -99 47l-16 33l-172 -67l11 -29q62 -159 279 -159q142 0 216 69t74 200v202q0 131 -73.5 200t-216.5 69q-138 0 -214 -60.5t-76 -174.5q0 -118 67.5 -174.5t211.5 -56.5q32 0 58 2t46 6v-14zM415 440q-34 -12 -93 -12
q-51 0 -72 15t-21 48q0 32 21 48.5t72 16.5q93 0 93 -78v-38z" />
    <glyph glyph-name="colon" unicode=":" horiz-adv-x="284" 
d="M141 540q-42 0 -70.5 -28.5t-28.5 -70.5t28.5 -70.5t70.5 -28.5q20 0 38 7.5t31.5 21t21.5 31.5t8 39t-8 39t-21.5 31.5t-31.5 21t-38 7.5zM42 91q0 -42 28.5 -70.5t70.5 -28.5q20 0 38 7.5t31.5 21t21.5 31.5t8 39t-8 39t-21.5 31.5t-31.5 21t-38 7.5q-42 0 -70.5 -28.5
t-28.5 -70.5z" />
    <glyph glyph-name="semicolon" unicode=";" horiz-adv-x="285" 
d="M57 186l-38 -308h128l104 308h-194zM149 540q-42 0 -70.5 -28.5t-28.5 -70.5t28.5 -70.5t70.5 -28.5q20 0 38 7.5t31.5 21t21.5 31.5t8 39t-8 39t-21.5 31.5t-31.5 21t-38 7.5z" />
    <glyph glyph-name="less" unicode="&#x3c;" horiz-adv-x="493" 
d="M448 629l-424 -230v-144l424 -232v207l-205 99l205 99v201z" />
    <glyph glyph-name="equal" unicode="=" horiz-adv-x="596" 
d="M48 130h500v170h-500v-170zM548 523h-500v-170h500v170z" />
    <glyph glyph-name="greater" unicode="&#x3e;" horiz-adv-x="493" 
d="M251 329l-204 -99v-207l424 232v144l-424 230v-201z" />
    <glyph glyph-name="question" unicode="?" horiz-adv-x="593" 
d="M327 452q-10 -7 -29.5 -17.5t-29.5 -16.5q-39 -23 -61.5 -59.5t-22.5 -101.5v-40h172v40q0 31 37 55q6 4 17 10.5t24 14l26 15t22 14.5q45 32 66 70t21 95q0 47 -18 85t-52.5 65.5t-83 42.5t-110.5 15q-208 0 -280 -174l-12 -32l173 -65l15 33q21 46 43 65.5t60 19.5
q34 0 51.5 -15.5t17.5 -41.5q0 -30 -14 -47t-32 -30zM367 88q0 20 -7.5 37t-20.5 30t-30 20.5t-37 7.5t-37.5 -7.5t-30.5 -20.5t-20.5 -30t-7.5 -37q0 -40 28 -68t68 -28q20 0 37 7.5t30 20.5t20.5 30.5t7.5 37.5z" />
    <glyph glyph-name="at" unicode="@" horiz-adv-x="905" 
d="M668 4q-129 -21 -218 -21q-143 0 -216.5 69t-73.5 201v79q0 133 74 206t216 73q143 0 217 -73t74 -206v-79q0 -52 -15.5 -75.5t-37.5 -23.5q-34 0 -34 30v307l-33 13q-85 33 -199 33q-190 0 -190 -177v-136q0 -176 190 -176q100 0 175 25q22 -20 41 -28.5t51 -8.5
q39 0 72 15t57.5 43.5t38 69t13.5 91.5v75q0 92 -27.5 165t-81 124t-131.5 78.5t-180 27.5q-101 0 -179 -27.5t-131.5 -79t-81 -124.5t-27.5 -164v-75q0 -90 27.5 -162t80.5 -122t131 -76.5t180 -26.5q123 0 220 23l30 7v111zM438 413q47 0 71 -6l8 -2v-227q-18 -6 -79 -6
q-37 0 -53 13t-16 42v130q0 29 16 42.5t53 13.5z" />
    <glyph glyph-name="A" unicode="A" horiz-adv-x="688" 
d="M700 0l-258 710h-193l-258 -710h207l35 114h218l35 -114h214zM404 271h-123l61 201z" />
    <glyph glyph-name="B" unicode="B" horiz-adv-x="658" 
d="M535 374q72 50 72 147q0 91 -58 140.5t-163 49.5h-336v-711h340q54 0 99.5 13.5t78 39t50.5 62t18 83.5q0 128 -101 172v4zM364 279q64 0 64 -58q0 -59 -64 -59h-116v117h116zM345 550q61 0 61 -56q0 -54 -61 -54h-97v110h97z" />
    <glyph glyph-name="C" unicode="C" horiz-adv-x="651" 
d="M341 550q78 0 104 -65q1 -2 3.5 -8t5.5 -13q3 -9 7 -19l187 66l-15 40q-66 174 -292 174q-148 0 -228 -74t-80 -206v-180q0 -132 80 -206t228 -74q226 0 292 175l15 39l-188 67l-15 -41q-24 -65 -104 -65q-58 0 -84 25t-26 79v182q0 54 26 79t84 25z" />
    <glyph glyph-name="D" unicode="D" horiz-adv-x="677" 
d="M644 430q0 132 -80 206t-227 74h-287v-710h287q73 0 130 19.5t96.5 55.5t60 88t20.5 117v150zM446 283q0 -108 -116 -108h-82v360h82q116 0 116 -108v-144z" />
    <glyph glyph-name="E" unicode="E" horiz-adv-x="588" 
d="M502 271v175h-254v89h307v175h-505v-710h513v175h-315v96h254z" />
    <glyph glyph-name="F" unicode="F" horiz-adv-x="575" 
d="M555 535v175h-505v-710h198v244h254v175h-254v116h307z" />
    <glyph glyph-name="G" unicode="G" horiz-adv-x="677" 
d="M458 452l187 66l-12 32q-66 175 -292 175q-148 0 -228 -74t-80 -206v-180q0 -132 80 -206t228 -74q72 0 129 18.5t96.5 51.5t60.5 78.5t21 99.5v175h-337v-160h138v-20q0 -32 -28.5 -50t-79.5 -18q-58 0 -84 25t-26 79v182q0 54 26 79t84 25q77 0 104 -64z" />
    <glyph glyph-name="H" unicode="H" horiz-adv-x="690" 
d="M442 0h198v711h-198v-264h-194v264h-198v-711h198v272h194v-272z" />
    <glyph glyph-name="I" unicode="I" horiz-adv-x="299" 
d="M50 0h198v710h-198v-710z" />
    <glyph glyph-name="J" unicode="J" horiz-adv-x="587" 
d="M541 247v464h-198v-465q0 -86 -73 -86q-51 0 -78 61l-16 38l-185 -65l15 -40q61 -169 260 -169q135 0 205 68t70 194z" />
    <glyph glyph-name="K" unicode="K" horiz-adv-x="655" 
d="M333 223l108 -223h229q-45 86 -81 155q-15 29 -30 57t-26.5 50t-19 35.5t-8.5 14.5q-11 21 -25 37t-29 27l210 334h-223l-168 -264h-22v264h-198v-710h198v271h18q26 0 40 -11t27 -37z" />
    <glyph glyph-name="L" unicode="L" horiz-adv-x="542" 
d="M50 0h481v175h-283v535h-198v-710z" />
    <glyph glyph-name="M" unicode="M" horiz-adv-x="825" 
d="M581 350v-350h194v711h-183l-181 -355l-181 355h-180v-711h188v340l105 -201h134z" />
    <glyph glyph-name="N" unicode="N" horiz-adv-x="700" 
d="M650 0v710h-186v-349l-224 349h-190v-710h187v355l230 -355h183z" />
    <glyph glyph-name="O" unicode="O" horiz-adv-x="682" 
d="M648 445q0 132 -80 206t-227 74q-148 0 -228 -74t-80 -206v-180q0 -132 80 -206t228 -74q147 0 227 74t80 206v180zM450 256q0 -48 -28.5 -72t-80.5 -24q-54 0 -82 24t-28 72v198q0 48 28 72t82 24q52 0 80.5 -24t28.5 -72v-198z" />
    <glyph glyph-name="P" unicode="P" horiz-adv-x="647" 
d="M50 710v-710h198v213h123q59 0 106.5 16.5t80.5 48.5t51 78t18 104q0 59 -18 105.5t-52 78.5t-81.5 49t-106.5 17h-319zM347 535h8q33 0 49.5 -23t16.5 -50.5t-16 -50.5t-49 -23h-9h-99v147h99z" />
    <glyph glyph-name="Q" unicode="Q" horiz-adv-x="695" 
d="M341 725q-148 0 -228 -74t-80 -206v-180q0 -132 80 -206t228 -74q60 0 113 14l91 -108l141 110l-84 99q46 64 46 165v180q0 132 -80 206t-227 74zM450 256q0 -48 -28.5 -72t-80.5 -24q-54 0 -82 24t-28 72v198q0 48 28 72t82 24q52 0 80.5 -24t28.5 -72v-198z" />
    <glyph glyph-name="R" unicode="R" horiz-adv-x="661" 
d="M50 710v-710h198v236h23q29 0 45 -12t30 -39l86 -185h230l-124 235q-4 8 -9 14.5t-10 13.5q59 32 83.5 87t24.5 119q0 115 -67 178t-182 63h-328zM248 535h108q32 0 49 -17.5t17 -47.5q0 -31 -17.5 -49t-48.5 -18h-108v132z" />
    <glyph glyph-name="S" unicode="S" horiz-adv-x="647" 
d="M309 270q60 -8 88.5 -20t28.5 -39q0 -57 -107 -57q-86 0 -113 53l-14 28l-177 -64l11 -31q57 -155 291 -155q54 0 109 12t100 39t73 70.5t28 106.5q-3 66 -24 108t-56 67.5t-82.5 38t-103.5 19.5q-67 8 -99 20t-32 41q0 52 95 52q76 0 101 -52l14 -28l179 76l-15 30
q-35 72 -101.5 106t-177.5 34q-70 0 -125 -16t-93.5 -45.5t-58.5 -70.5t-20 -92q1 -69 24.5 -110.5t62 -66t89 -35.5t105.5 -19z" />
    <glyph glyph-name="T" unicode="T" horiz-adv-x="603" 
d="M592 710h-580v-175h191v-535h198v535h191v175z" />
    <glyph glyph-name="U" unicode="U" horiz-adv-x="692" 
d="M648 261v449h-198v-458q0 -92 -104 -92q-103 0 -103 92v458h-198v-449q0 -64 20 -115t58 -87t94.5 -55t128.5 -19q147 0 224.5 73.5t77.5 202.5z" />
    <glyph glyph-name="V" unicode="V" horiz-adv-x="682" 
d="M212 709h-221l248 -710h205l248 710h-215l-132 -478z" />
    <glyph glyph-name="W" unicode="W" horiz-adv-x="939" 
d="M672 304l-95 406h-202l-95 -398l-66 398h-210l176 -710h203l85 372l86 -372h204l178 710h-199z" />
    <glyph glyph-name="X" unicode="X" horiz-adv-x="664" 
d="M444 362l225 348h-228l-112 -172l-113 172h-225l223 -349l-234 -361h230l118 183l117 -183h236z" />
    <glyph glyph-name="Y" unicode="Y" horiz-adv-x="675" 
d="M692 710h-223l-130 -241l-126 241h-230l255 -435v-275h198v275z" />
    <glyph glyph-name="Z" unicode="Z" horiz-adv-x="611" 
d="M584 0v175h-295l290 407v128h-548v-175h286l-291 -410v-125h558z" />
    <glyph glyph-name="bracketleft" unicode="[" horiz-adv-x="354" 
d="M337 713v143h-287v-1003h287v145h-108v715h71h6h31z" />
    <glyph glyph-name="backslash" unicode="\" horiz-adv-x="494" 
d="M9 710l286 -770h189l-287 770h-188z" />
    <glyph glyph-name="bracketright" unicode="]" horiz-adv-x="354" 
d="M304 -147v1003h-287v-143h31h6h71v-715h-108v-145h287z" />
    <glyph glyph-name="asciicircum" unicode="^" horiz-adv-x="636" 
d="M249 810l-250 -290h214l103 131l99 -131h220l-252 290h-134z" />
    <glyph glyph-name="underscore" unicode="_" horiz-adv-x="505" 
d="M13 0v-169h479v169h-479z" />
    <glyph glyph-name="grave" unicode="`" horiz-adv-x="257" 
d="M-21 647l247 -82l61 72l-202 122z" />
    <glyph glyph-name="a" unicode="a" horiz-adv-x="529" 
d="M262 535q-168 0 -222 -104l-15 -29l149 -62l14 19q25 34 65 34q56 0 56 -51v-25q-5 0 -20.5 0.5t-24.5 0.5q-66 0 -112 -8t-75.5 -27.5t-42.5 -51.5t-13 -80q0 -44 11.5 -75.5t39.5 -51.5t73.5 -29.5t113.5 -9.5q133 0 198 28l38 16v290q0 103 -53.5 159.5t-179.5 56.5z
M304 115q-15 -3 -50 -3q-29 0 -40 10.5t-11 29.5q0 40 53 40h33t20 -1v-75z" />
    <glyph glyph-name="b" unicode="b" horiz-adv-x="548" 
d="M520 320q0 105 -55.5 160t-169.5 55q-26 0 -68 -6v210h-187v-703l39 -17q78 -34 197 -34q244 0 244 227v108zM227 153v214q29 7 50 7q57 0 57 -50v-122q0 -55 -62 -55q-28 0 -43 5z" />
    <glyph glyph-name="c" unicode="c" horiz-adv-x="522" 
d="M501 396q-22 63 -78.5 101t-146.5 38q-126 0 -187 -57.5t-61 -162.5v-109q0 -106 58 -163.5t179 -57.5q181 0 238 138l14 33l-180 55l-11 -29q-17 -41 -59 -41q-53 0 -53 54v130q0 54 53 54q42 0 59 -41l13 -33l174 58z" />
    <glyph glyph-name="d" unicode="d" horiz-adv-x="548" 
d="M321 531q-42 6 -68 6q-114 0 -169.5 -55t-55.5 -160v-108q0 -227 244 -227q119 0 197 34l39 17v703h-187v-210zM276 149q-62 0 -62 55v122q0 50 57 50q21 0 50 -7v-214l-2 -1q-15 -5 -43 -5z" />
    <glyph glyph-name="e" unicode="e" horiz-adv-x="549" 
d="M358 162q-28 -37 -80 -37q-65 0 -65 65v19h315v107q0 48 -16 88t-47.5 69.5t-78.5 45.5t-109 16q-123 0 -186.5 -59.5t-63.5 -171.5v-88q0 -52 15 -95t45.5 -73t77.5 -46.5t111 -16.5q169 0 226 99l18 31l-148 64zM213 343q0 60 64 60t64 -60v-13h-128v13z" />
    <glyph glyph-name="f" unicode="f" horiz-adv-x="388" 
d="M86 522v-2h-71v-152h71v-368h186v368h107v152h-107v4q0 33 16 48.5t52 15.5h39v152h-57q-54 0 -98 -12.5t-74.5 -39t-47 -68t-16.5 -98.5z" />
    <glyph glyph-name="g" unicode="g" horiz-adv-x="547" 
d="M320 -20q0 -58 -55 -58q-36 0 -65 36l-2 3q-2 2 -2.5 3t-2.5 3l-6 8l-161 -79l17 -27q63 -99 223 -99q124 0 182.5 62.5t58.5 168.5v482l-39 18q-71 34 -197 34q-123 0 -183.5 -57t-60.5 -169v-80q0 -105 55.5 -160t169.5 -55q28 0 68 6v-40zM271 175q-57 0 -57 50v93
q0 55 62 55q27 0 40 -4l4 -1v-188q-5 0 -21 -2.5t-28 -2.5z" />
    <glyph glyph-name="h" unicode="h" horiz-adv-x="558" 
d="M335 0h186v319q0 105 -55.5 160.5t-169.5 55.5q-16 0 -33 -1t-35 -3v209h-186v-740h186v363q15 4 47 4q60 0 60 -55v-312z" />
    <glyph glyph-name="i" unicode="i" horiz-adv-x="269" 
d="M228 520h-187v-520h187v520zM135 742q-42 0 -71 -28.5t-29 -70.5t29 -71t71 -29t70.5 29t28.5 71t-28.5 70.5t-70.5 28.5z" />
    <glyph glyph-name="j" unicode="j" horiz-adv-x="271" 
d="M228 -10v530h-186v-518q0 -68 -68 -68h-40v-164h40q129 0 191.5 53t62.5 167zM234 643q0 20 -7.5 38t-21 31.5t-31.5 21.5t-39 8t-39 -8t-31.5 -21.5t-21 -31.5t-7.5 -38q0 -42 28.5 -70.5t70.5 -28.5t70.5 28.5t28.5 70.5z" />
    <glyph glyph-name="k" unicode="k" horiz-adv-x="553" 
d="M292 158l59 -158h207l-113 232q-15 30 -33 45l142 243h-200l-105 -180h-21v400h-186v-740h186v188h18q33 0 46 -30z" />
    <glyph glyph-name="l" unicode="l" horiz-adv-x="272" 
d="M43 740v-740h186v740h-186z" />
    <glyph glyph-name="m" unicode="m" horiz-adv-x="814" 
d="M498 362q25 5 42 5q51 0 51 -53v-314h186v319q0 216 -216 216q-81 0 -153 -26q-50 26 -123 26q-109 0 -204 -37l-41 -16v-482h186v363q7 1 15 2q6 1 12 1.5t11 0.5q51 0 51 -53v-314h187v316q0 29 -4 46z" />
    <glyph glyph-name="n" unicode="n" 
d="M333 312v-312h186v319q0 105 -55.5 160.5t-169.5 55.5q-118 0 -213 -37l-41 -16v-482h186v362l3 1q15 4 44 4q60 0 60 -55z" />
    <glyph glyph-name="o" unicode="o" horiz-adv-x="552" 
d="M524 316q0 105 -63.5 162t-184.5 57t-184.5 -58t-63.5 -161v-112q0 -103 63.5 -161t184.5 -58t184.5 57t63.5 162v112zM339 199q0 -53 -63 -53q-62 0 -62 53v122q0 54 62 54q63 0 63 -54v-122z" />
    <glyph glyph-name="p" unicode="p" horiz-adv-x="548" 
d="M520 319q0 105 -57 160.5t-172 55.5q-125 0 -209 -34l-42 -17v-703h187v209q23 -2 38 -3.5t22 -1.5q115 0 174 57t59 169v108zM277 373q57 0 57 -49v-123q0 -55 -62 -55q-20 0 -45 5v216l5 1q18 5 45 5z" />
    <glyph glyph-name="q" unicode="q" horiz-adv-x="548" 
d="M508 -219v703l-42 17q-84 34 -209 34q-115 0 -172 -55.5t-57 -160.5v-108q0 -112 59 -169t174 -57q7 0 22 1.5t38 3.5v-209h187zM276 146q-62 0 -62 55v123q0 49 57 49q27 0 45 -5l5 -1v-216q-25 -5 -45 -5z" />
    <glyph glyph-name="r" unicode="r" horiz-adv-x="362" 
d="M354 373v162h-69q-66 -2 -116 -10t-87 -22q-25 -10 -33.5 -22.5t-8.5 -37.5v-443h187v368l5 1q17 4 46 4h76z" />
    <glyph glyph-name="s" unicode="s" horiz-adv-x="518" 
d="M331 354l18 -22l148 65l-17 31q-59 107 -231 107q-109 0 -166 -46t-57 -125q0 -82 52.5 -117t155.5 -42q29 -2 47.5 -4.5t29 -6.5t14.5 -10.5t4 -15.5q0 -17 -16.5 -24t-55.5 -7q-55 0 -75 32l-12 20l-155 -56l11 -29q47 -119 238 -119q114 0 174.5 47.5t60.5 129.5
q0 39 -12 67.5t-38.5 47t-68.5 29.5t-102 16q-49 4 -65.5 10.5t-16.5 22.5q0 15 13.5 21t49.5 6q50 0 72 -28z" />
    <glyph glyph-name="t" unicode="t" horiz-adv-x="402" 
d="M275 640h-187v-120h-81v-152h81v-160q0 -67 17 -110t49.5 -67.5t80 -34t108.5 -9.5h39v164h-39q-38 0 -53 15t-15 55v147h107v152h-107v120z" />
    <glyph glyph-name="u" unicode="u" 
d="M516 520h-186v-362l-7 -1q-10 -2 -20 -3t-20 -1q-60 0 -60 55v312h-186v-319q0 -105 55.5 -160.5t169.5 -55.5q120 0 213 37l41 16v482z" />
    <glyph glyph-name="v" unicode="v" horiz-adv-x="548" 
d="M-4 520l181 -520h190l188 520h-198l-81 -288l-86 288h-194z" />
    <glyph glyph-name="w" unicode="w" horiz-adv-x="775" 
d="M536 262l-60 258h-173l-59 -259l-47 259h-195l140 -520h179l65 263l62 -263h186l139 520h-190z" />
    <glyph glyph-name="x" unicode="x" horiz-adv-x="553" 
d="M363 0h207l-191 266l181 254h-203l-80 -111l-79 111h-208l183 -255l-190 -265h207l86 121z" />
    <glyph glyph-name="y" unicode="y" horiz-adv-x="558" 
d="M330 520v-333q-17 -4 -47 -4q-60 0 -60 55v282h-186v-289q0 -105 55.5 -160.5t169.5 -55.5q20 0 37 1t31 3v-39q0 -58 -56 -58q-39 0 -63 33l-14 19l-161 -79l17 -26q63 -99 223 -99q62 0 107 16.5t74.5 46.5t44 72.5t14.5 95.5v519h-186z" />
    <glyph glyph-name="z" unicode="z" horiz-adv-x="493" 
d="M468 0v158h-215l210 221v141h-432v-158h194l-200 -223v-139h443z" />
    <glyph glyph-name="braceleft" unicode="{" horiz-adv-x="410" 
d="M206 352q77 47 77 136v185q0 10 6.5 16.5t16.5 6.5h87v160h-137q-83 0 -117 -34t-34 -110v-188q0 -84 -63 -84h-38v-177h38q63 0 63 -84v-183q0 -77 34.5 -110t119.5 -33h134v160h-87q-10 0 -16.5 6.5t-6.5 16.5v179q0 105 -77 137z" />
    <glyph glyph-name="bar" unicode="|" horiz-adv-x="279" 
d="M50 -147h180v1003h-180v-1003z" />
    <glyph glyph-name="braceright" unicode="}" horiz-adv-x="410" 
d="M127 215v-179q0 -10 -6.5 -16.5t-16.5 -6.5h-87v-160h134q85 0 119.5 33t34.5 110v183q0 84 63 84h38v177h-38q-63 0 -63 84v188q0 76 -34 110t-117 34h-137v-160h87q10 0 16.5 -6.5t6.5 -16.5v-185q0 -89 77 -136q-77 -32 -77 -137z" />
    <glyph glyph-name="asciitilde" unicode="~" horiz-adv-x="570" 
d="M402 406q-26 -20 -56 -20q-22 0 -71 17q-51 17 -94 17q-76 0 -132 -51l-32 -29l123 -113l28 22q23 19 56 19q22 0 71 -17t93 -17q77 0 132 51l33 30l-122 114q-8 -6 -14 -11q-5 -4 -9.5 -7.5t-5.5 -4.5z" />
    <glyph glyph-name="exclamdown" unicode="&#xa1;" horiz-adv-x="277" 
d="M62 286l-21 -506h193l-18 506h-154zM43 432q0 -40 28 -68t68 -28q20 0 37 7.5t30 20.5t20.5 30.5t7.5 37.5t-7.5 37t-20.5 30t-30 20.5t-37 7.5t-37.5 -7.5t-30.5 -20.5t-20.5 -30t-7.5 -37z" />
    <glyph glyph-name="cent" unicode="&#xa2;" horiz-adv-x="545" 
d="M276 141q-53 0 -53 54v130q0 54 53 54q42 0 59 -41l16 -40l174 57l-15 41q-36 101 -144 129v84h-168v-83q-161 -36 -161 -211v-109q0 -181 161 -214v-75h168v79q106 27 146 127l17 42l-179 54l-15 -37q-17 -41 -59 -41z" />
    <glyph glyph-name="sterling" unicode="&#xa3;" horiz-adv-x="675" 
d="M34 0h604v169h-222q-79 0 -154 -19l-1 6q42 29 43 78v18h216v147h-211v89q0 28 17 45t47 17t48 -13.5t35 -46.5l20 -39l182 66l-16 39q-67 169 -275 169q-52 0 -99.5 -14.5t-83 -43t-56.5 -71.5t-21 -99v-98h-73v-147h69v-21q-3 -52 -43 -65l-26 -8v-158z" />
    <glyph glyph-name="currency" unicode="&#xa4;" horiz-adv-x="646" 
d="M418 558q-46 20 -94 20t-96 -20l-81 81l-126 -126l82 -82q-20 -45 -20 -94t20 -94l-82 -82l126 -126l81 81q48 -20 96 -20t94 20l81 -81l126 126l-80 80q20 51 20 96t-20 96l80 80l-126 126zM241 337q0 18 7 33t19.5 25.5t28 16.5t31.5 6q15 0 29.5 -5.5t25.5 -17.5
q19 -17 22.5 -41t-5 -46t-27 -37.5t-43.5 -15.5q-37 0 -61.5 22t-26.5 60z" />
    <glyph glyph-name="yen" unicode="&#xa5;" horiz-adv-x="704" 
d="M354 469l-126 241h-228l203 -316h-90v-124h140v-35h-140v-124h140v-111h198v111h140v124h-140v35h140v124h-90l204 316h-221z" />
    <glyph glyph-name="brokenbar" unicode="&#xa6;" horiz-adv-x="285" 
d="M232 856h-179v-442h179v442zM53 -147h179v443h-179v-443z" />
    <glyph glyph-name="section" unicode="&#xa7;" horiz-adv-x="623" 
d="M572 586q-33 71 -93.5 105t-159.5 34q-134 0 -201.5 -54t-67.5 -151q0 -98 65 -145q-79 -51 -79 -142q0 -60 26 -96t66 -56.5t89.5 -29.5t95.5 -15q76 -12 76 -45q0 -51 -84 -51q-43 0 -66 12t-35 43l-13 33l-167 -65l11 -30q59 -152 275 -152q135 0 207 55.5t72 149.5
q0 103 -65 148q60 50 60 130q0 57 -22.5 92.5t-58.5 57t-81 33t-90 19.5q-42 9 -63 19.5t-21 31.5q0 48 70 48q67 0 92 -51l15 -30l162 70zM237 252q-1 37 33 67q15 -4 30 -6q42 -9 63.5 -22.5t22.5 -40.5q3 -37 -28 -65l-30 3q-45 6 -67 19.5t-24 44.5z" />
    <glyph glyph-name="dieresis" unicode="&#xa8;" horiz-adv-x="439" 
d="M245 655q0 -32 23 -55t55 -23t55 23t23 55t-23 55t-55 23t-55 -23t-23 -55zM110 733q-33 0 -55.5 -23t-22.5 -55t22.5 -55t55.5 -23q32 0 55 23t23 55t-23 55t-55 23z" />
    <glyph glyph-name="copyright" unicode="&#xa9;" horiz-adv-x="777" 
d="M134 606q-105 -105 -105 -256q0 -149 105 -254t255 -105q151 0 255 104t104 255t-104 255.5t-255 104.5t-255 -104zM142 350q0 106 71 176.5t176 70.5t175.5 -70.5t70.5 -176.5q0 -104 -71 -175.5t-175 -71.5q-105 0 -176 71.5t-71 175.5zM388 544q-75 0 -115.5 -39
t-40.5 -106v-100q0 -67 40.5 -106t115.5 -39q120 0 153 97l11 33l-104 37l-13 -31q-12 -29 -47 -29q-45 0 -45 38v101q0 36 45 36q38 0 48 -28l12 -31l105 38l-12 33q-33 96 -153 96z" />
    <glyph glyph-name="ordfeminine" unicode="&#xaa;" horiz-adv-x="354" 
d="M318 380v166q0 127 -141 127q-91 0 -133 -54l-12 -15l100 -51q3 2 6 5q2 2 4 3.5t4 3.5q15 14 27 14q18 0 18 -20v-16q-3 1 -14 1q-81 0 -113.5 -24.5t-32.5 -72.5t31.5 -71.5t112.5 -23.5q63 0 106 15zM155 453q0 16 18 16h18v-33h-18q-18 0 -18 17z" />
    <glyph glyph-name="guillemotleft" unicode="&#xab;" horiz-adv-x="640" 
d="M5 262l240 -240l105 106l-138 137l139 140l-101 104zM478 265l139 140l-101 105l-245 -248l240 -239l105 105z" />
    <glyph glyph-name="logicalnot" unicode="&#xac;" horiz-adv-x="598" 
d="M36 424v-165h329v-133h185v298h-514z" />
    <glyph glyph-name="registered" unicode="&#xae;" horiz-adv-x="455" 
d="M228 316q42 0 78 15.5t63 42.5t42.5 63.5t15.5 78.5q0 41 -15.5 77.5t-42.5 63.5t-63.5 43t-77.5 16t-77.5 -16t-64 -43t-43.5 -63.5t-16 -77.5q0 -42 16 -78.5t43 -63.5t63.5 -42.5t78.5 -15.5zM229 653q28 0 53 -10.5t43.5 -29.5t29 -43.5t10.5 -53.5q0 -27 -9.5 -51
t-26.5 -43l-42 60q33 17 33 61q0 33 -20.5 52.5t-54.5 19.5h-99v-198h63v56h9l34 -56h72q-23 -22 -47.5 -30.5t-55.5 -8.5q-28 0 -52 12t-41 32t-26.5 45t-10 51t9 51t30.5 44q40 40 98 40zM209 556h31q14 0 14 -13q0 -14 -14 -14h-31v27z" />
    <glyph glyph-name="macron" unicode="&#xaf;" horiz-adv-x="352" 
d="M20 710v-114h316v114h-316z" />
    <glyph glyph-name="degree" unicode="&#xb0;" horiz-adv-x="420" 
d="M211 364q78 0 133.5 56.5t55.5 134.5q0 81 -54.5 135.5t-134.5 54.5q-81 0 -136 -54.5t-55 -135.5q0 -80 55 -135.5t136 -55.5zM251 515q-17 -17 -40 -17q-24 0 -41 16.5t-17 39.5t17 41q17 17 41 17q23 0 40 -17.5t17 -40.5t-17 -39z" />
    <glyph glyph-name="plusminus" unicode="&#xb1;" horiz-adv-x="587" 
d="M211 245h163v99h170v159h-170v101h-163v-101h-168v-159h168v-99zM544 57v164h-501v-164h501z" />
    <glyph glyph-name="twosuperior" unicode="&#xb2;" horiz-adv-x="375" 
d="M212 534l43 12q95 29 95 136q0 58 -41.5 92.5t-114.5 34.5q-124 0 -163 -93l-14 -34l121 -44l14 28q12 23 35 23q22 0 22 -23q0 -17 -7.5 -25t-27.5 -15l-53 -19q-27 -9 -45.5 -20.5t-29.5 -27.5t-15.5 -36.5t-4.5 -49.5v-67h317v116h-152v2q0 6 21 10z" />
    <glyph glyph-name="threesuperior" unicode="&#xb3;" horiz-adv-x="380" 
d="M141 555h50q31 0 31 -23q0 -20 -34 -20q-40 0 -54 27l-13 27l-109 -40l9 -28q32 -95 173 -95q81 0 122.5 30.5t41.5 87.5q0 70 -51 95q39 29 39 81q0 55 -40 86t-112 31q-133 0 -168 -96l-7 -21l102 -44l12 24q15 31 52 31q31 0 31 -21q0 -22 -31 -22h-44v-110z" />
    <glyph glyph-name="acute" unicode="&#xb4;" horiz-adv-x="257" 
d="M188 759l-203 -123l62 -71l246 82z" />
    <glyph glyph-name="mu" unicode="&#xb5;" horiz-adv-x="571" 
d="M335 -15q21 0 53 4.5t63 15.5t53 30t22 47v438h-186v-361l-8 -2q-16 -4 -39 -4q-60 0 -60 55v312h-186v-740h186v223q44 -18 102 -18z" />
    <glyph glyph-name="paragraph" unicode="&#xb6;" horiz-adv-x="699" 
d="M480 -89h164v799h-373q-56 0 -102 -18t-78.5 -50.5t-50.5 -78.5t-18 -102q0 -55 17.5 -100t49.5 -78t77 -51.5t100 -19.5v-301h163v625h51v-625z" />
    <glyph glyph-name="periodcentered" unicode="&#xb7;" horiz-adv-x="281" 
d="M140 408q-20 0 -38 -7.5t-31.5 -21t-21.5 -31.5t-8 -39t8 -39t21.5 -31.5t31.5 -21t38 -7.5q42 0 70.5 28.5t28.5 70.5t-28.5 70.5t-70.5 28.5z" />
    <glyph glyph-name="cedilla" unicode="&#xb8;" horiz-adv-x="251" 
d="M125 -137q0 -23 -34 -23q-26 0 -56 15l-31 15v-95l26 -9q17 -5 35 -8t40 -3q138 0 150 100q5 42 -17.5 70t-64.5 29h-9l17 46h-95l-51 -115h48q24 -1 33 -5.5t9 -16.5z" />
    <glyph glyph-name="onesuperior" unicode="&#xb9;" horiz-adv-x="297" 
d="M-8 713l64 -107l64 36v-231h138v395h-107z" />
    <glyph glyph-name="ordmasculine" unicode="&#xba;" horiz-adv-x="352" 
d="M176 352q71 0 108.5 34t37.5 96v61q0 62 -37.5 96.5t-108.5 34.5q-70 0 -108 -34.5t-38 -96.5v-61q0 -61 37.5 -95.5t108.5 -34.5zM176 564q23 0 23 -19v-64q0 -19 -23 -19t-23 19v64q0 19 23 19z" />
    <glyph glyph-name="guillemotright" unicode="&#xbb;" horiz-adv-x="640" 
d="M21 405l139 -140l-138 -137l106 -105l239 239l-245 248zM288 128l106 -106l239 240l-245 247l-101 -104l139 -140z" />
    <glyph glyph-name="onequarter" unicode="&#xbc;" horiz-adv-x="859" 
d="M257 0l522 710h-174l-523 -710h175zM660 0h128v69h44v107h-44v219h-129l-194 -233v-93h195v-69zM136 312h138v395h-107l-159 -93l64 -107l64 36v-231zM660 242v-66h-55z" />
    <glyph glyph-name="onehalf" unicode="&#xbd;" horiz-adv-x="870" 
d="M590 710l-523 -710h175l522 710h-174zM505 277l121 -44l14 28q12 23 35 23q22 0 22 -23q0 -17 -7.5 -25t-27.5 -15l-53 -19q-27 -9 -45.5 -20.5t-29.5 -27.5t-15.5 -36.5t-4.5 -49.5v-67h317v116h-152v2q0 6 21 10l43 12q95 29 95 136q0 58 -41.5 92.5t-114.5 34.5
q-124 0 -163 -93zM274 710h-107l-159 -93l64 -107l64 36v-231h138v395z" />
    <glyph glyph-name="threequarters" unicode="&#xbe;" horiz-adv-x="878" 
d="M810 710h-173l-523 -710h175zM195 423q-40 0 -54 27l-13 27l-109 -40l9 -28q32 -95 173 -95q81 0 122.5 30.5t41.5 87.5q0 70 -51 95q39 29 39 81q0 55 -40 86t-112 31q-133 0 -168 -96l-7 -21l102 -44l12 24q15 31 52 31q31 0 31 -21q0 -22 -31 -22h-44v-110h50
q31 0 31 -23q0 -20 -34 -20zM681 0h128v69h44v107h-44v219h-129l-194 -233v-93h195v-69zM681 242v-66h-55z" />
    <glyph glyph-name="questiondown" unicode="&#xbf;" horiz-adv-x="589" 
d="M408 301h-172v-40q0 -31 -37 -55q-5 -4 -16 -10t-24 -13.5t-26.5 -15t-22.5 -14.5q-45 -32 -66 -70.5t-21 -95.5q0 -47 18 -85t52.5 -65.5t83.5 -42.5t110 -15q208 0 280 174l12 32l-173 65l-15 -33q-21 -46 -43 -65.5t-60 -19.5q-34 0 -51.5 15.5t-17.5 41.5q0 30 14 47
t32 30q10 7 29.5 17.5t29.5 16.5q39 23 61.5 59.5t22.5 101.5v40zM416 431q0 20 -7.5 37t-20.5 30t-30 20.5t-37 7.5t-37.5 -7.5t-30.5 -20.5t-20.5 -30t-7.5 -37q0 -40 28 -68t68 -28q20 0 37 7.5t30 20.5t20.5 30.5t7.5 37.5z" />
    <glyph glyph-name="Agrave" unicode="&#xc0;" horiz-adv-x="688" 
d="M249 710l-258 -710h207l35 114h218l35 -114h214l-258 710h-193zM502 821l-206 122l-101 -119l247 -76zM281 271l61 201l62 -201h-123z" />
    <glyph glyph-name="Aacute" unicode="&#xc1;" horiz-adv-x="688" 
d="M700 0l-258 710h-193l-258 -710h207l35 114h218l35 -114h214zM497 824l-100 118l-207 -121l60 -73zM404 271h-123l61 201z" />
    <glyph glyph-name="Acircumflex" unicode="&#xc2;" horiz-adv-x="688" 
d="M249 710l-258 -710h207l35 114h218l35 -114h214l-258 710h-193zM120 754h174l50 57l46 -57h182l-166 166h-120zM342 472l62 -201h-123z" />
    <glyph glyph-name="Atilde" unicode="&#xc3;" horiz-adv-x="688" 
d="M486 0h214l-258 710h-193l-258 -710h207l35 114h218zM345 889q-42 20 -85 20q-47 0 -71 -27.5t-24 -95.5v-23h103v20q0 22 15 22q11 0 51 -21q41 -21 82 -21q49 0 73.5 28t24.5 95v23h-103v-19q0 -22 -15 -22q-10 0 -51 21zM342 472l62 -201h-123z" />
    <glyph glyph-name="Adieresis" unicode="&#xc4;" horiz-adv-x="688" 
d="M249 710l-258 -710h207l35 114h218l35 -114h214l-258 710h-193zM450 759q32 0 55 23t23 55q0 16 -6 30t-16.5 24.5t-25 16.5t-30.5 6q-32 0 -54.5 -22.5t-22.5 -54.5t22.5 -55t54.5 -23zM159 837q0 -32 23 -55t55 -23q16 0 30 6t24.5 16.5t16.5 25t6 30.5
q0 32 -22.5 54.5t-54.5 22.5q-16 0 -30.5 -6t-25 -16.5t-16.5 -24.5t-6 -30zM404 271h-123l61 201z" />
    <glyph glyph-name="Aring" unicode="&#xc5;" horiz-adv-x="688" 
d="M484 761q0 60 -39 96t-103 36q-66 0 -106 -34.5t-40 -97.5q0 -56 38 -89l-248 -672h206l37 114h216l36 -114h214l-248 673q37 31 37 88zM395 271h-116l58 181zM342 800q18 0 29 -11t11 -30q0 -18 -11 -29t-29 -11q-20 0 -32.5 11.5t-12.5 28.5q0 19 12.5 30t32.5 11z" />
    <glyph glyph-name="AE" unicode="&#xc6;" horiz-adv-x="905" 
d="M819 446h-185v89h238v175h-436l-464 -710h212l66 105h200v-105h430v175h-246v96h185v175zM450 256h-103l103 163v-163z" />
    <glyph glyph-name="Ccedilla" unicode="&#xc7;" horiz-adv-x="651" 
d="M341 725q-148 0 -228 -74t-80 -206v-180q0 -119 66 -191.5t190 -85.5l-46 -103h48q24 -1 33 -5.5t9 -16.5q0 -23 -34 -23q-26 0 -56 15l-31 15v-95l26 -9q17 -5 35 -8t40 -3q138 0 150 100q5 42 -17.5 70t-64.5 29h-9l12 33q189 15 249 173l15 39l-188 67l-15 -41
q-24 -65 -104 -65q-58 0 -84 25t-26 79v182q0 54 26 79t84 25q78 0 104 -65q1 -2 3.5 -8t5.5 -13q3 -9 7 -19l187 66l-15 40q-66 174 -292 174z" />
    <glyph glyph-name="Egrave" unicode="&#xc8;" horiz-adv-x="588" 
d="M502 446h-254v89h307v175h-505v-710h513v175h-315v96h254v175zM458 820l-205 121l-101 -118l248 -76z" />
    <glyph glyph-name="Eacute" unicode="&#xc9;" horiz-adv-x="588" 
d="M248 175v96h254v175h-254v89h307v175h-505v-710h513v175h-315zM458 823l-100 118l-206 -121l59 -73z" />
    <glyph glyph-name="Ecircumflex" unicode="&#xca;" horiz-adv-x="588" 
d="M502 271v175h-254v89h307v175h-505v-710h513v175h-315v96h254zM253 754l50 57l46 -57h182l-166 166h-120l-166 -166h174z" />
    <glyph glyph-name="Edieresis" unicode="&#xcb;" horiz-adv-x="588" 
d="M502 271v175h-254v89h307v175h-505v-710h513v175h-315v96h254zM196 759q16 0 30 6t24.5 16.5t16.5 25t6 30.5q0 32 -22.5 54.5t-54.5 22.5q-16 0 -30.5 -6t-25 -16.5t-16.5 -24.5t-6 -30q0 -32 23 -55t55 -23zM409 759q32 0 55 23t23 55q0 16 -6 30t-16.5 24.5t-25 16.5
t-30.5 6q-32 0 -54.5 -22.5t-22.5 -54.5t22.5 -55t54.5 -23z" />
    <glyph glyph-name="Igrave" unicode="&#xcc;" horiz-adv-x="299" 
d="M50 0h198v710h-198v-710zM100 941l-101 -118l248 -76l58 73z" />
    <glyph glyph-name="Iacute" unicode="&#xcd;" horiz-adv-x="299" 
d="M50 0h198v710h-198v-710zM-3 819l59 -73l247 76l-100 118z" />
    <glyph glyph-name="Icircumflex" unicode="&#xce;" horiz-adv-x="299" 
d="M248 0v710h-198v-710h198zM378 754l-166 166h-120l-166 -166h174l50 57l46 -57h182z" />
    <glyph glyph-name="Idieresis" unicode="&#xcf;" horiz-adv-x="299" 
d="M50 710v-710h198v710h-198zM44 759q16 0 30 6t24.5 16.5t16.5 25t6 30.5q0 32 -22.5 54.5t-54.5 22.5q-16 0 -30.5 -6t-25 -16.5t-16.5 -24.5t-6 -30q0 -32 23 -55t55 -23zM335 837q0 16 -6 30t-16.5 24.5t-25 16.5t-30.5 6q-32 0 -54.5 -22.5t-22.5 -54.5t22.5 -55
t54.5 -23t55 23t23 55z" />
    <glyph glyph-name="Eth" unicode="&#xd0;" horiz-adv-x="706" 
d="M674 430q0 132 -80 206t-228 74h-286v-286h-71v-128h71v-296h286q74 0 131 19.5t96.5 55.5t60 88t20.5 117v150zM278 175v121h106v128h-106v111h81q117 0 117 -108v-144q0 -108 -117 -108h-81z" />
    <glyph glyph-name="Ntilde" unicode="&#xd1;" horiz-adv-x="700" 
d="M650 710h-186v-349l-224 349h-190v-710h187v355l230 -355h183v710zM354 889q-42 20 -85 20q-47 0 -71 -27.5t-24 -95.5v-23h103v20q0 22 15 22q11 0 51 -21q41 -21 82 -21q49 0 73.5 28t24.5 95v23h-103v-19q0 -22 -15 -22q-10 0 -51 21z" />
    <glyph glyph-name="Ograve" unicode="&#xd2;" horiz-adv-x="682" 
d="M648 445q0 132 -80 206t-227 74q-148 0 -228 -74t-80 -206v-180q0 -132 80 -206t228 -74q147 0 227 74t80 206v180zM341 550q52 0 80.5 -24t28.5 -72v-198q0 -48 -28.5 -72t-80.5 -24q-54 0 -82 24t-28 72v198q0 48 28 72t82 24zM441 757l58 74l-205 121l-101 -119z" />
    <glyph glyph-name="Oacute" unicode="&#xd3;" horiz-adv-x="682" 
d="M648 445q0 132 -80 206t-227 74q-148 0 -228 -74t-80 -206v-180q0 -132 80 -206t228 -74q147 0 227 74t80 206v180zM341 550q52 0 80.5 -24t28.5 -72v-198q0 -48 -28.5 -72t-80.5 -24q-54 0 -82 24t-28 72v198q0 48 28 72t82 24zM494 832l-101 119l-205 -121l59 -74z" />
    <glyph glyph-name="Ocircumflex" unicode="&#xd4;" horiz-adv-x="682" 
d="M341 -15q147 0 227 74t80 206v180q0 132 -80 206t-227 74q-148 0 -228 -74t-80 -206v-180q0 -132 80 -206t228 -74zM450 256q0 -48 -28.5 -72t-80.5 -24q-54 0 -82 24t-28 72v198q0 48 28 72t82 24q52 0 80.5 -24t28.5 -72v-198zM569 764l-166 166h-120l-166 -166h174
l50 57l46 -57h182z" />
    <glyph glyph-name="Otilde" unicode="&#xd5;" horiz-adv-x="682" 
d="M648 445q0 132 -80 206t-227 74q-148 0 -228 -74t-80 -206v-180q0 -132 80 -206t228 -74q147 0 227 74t80 206v180zM231 454q0 48 28 72t82 24q52 0 80.5 -24t28.5 -72v-198q0 -48 -28.5 -72t-80.5 -24q-54 0 -82 24t-28 72v198zM342 899q-42 20 -85 20q-47 0 -71 -27.5
t-24 -95.5v-23h103v20q0 22 15 22q11 0 51 -21q41 -21 82 -21q49 0 73.5 28t24.5 95v23h-103v-19q0 -22 -15 -22q-10 0 -51 21z" />
    <glyph glyph-name="Odieresis" unicode="&#xd6;" horiz-adv-x="682" 
d="M341 -15q147 0 227 74t80 206v180q0 132 -80 206t-227 74q-148 0 -228 -74t-80 -206v-180q0 -132 80 -206t228 -74zM450 256q0 -48 -28.5 -72t-80.5 -24q-54 0 -82 24t-28 72v198q0 48 28 72t82 24q52 0 80.5 -24t28.5 -72v-198zM234 769q16 0 30 6t24.5 16.5t16.5 25
t6 30.5q0 32 -22.5 54.5t-54.5 22.5q-16 0 -30.5 -6t-25 -16.5t-16.5 -24.5t-6 -30q0 -32 23 -55t55 -23zM447 769q32 0 55 23t23 55q0 16 -6 30t-16.5 24.5t-25 16.5t-30.5 6q-32 0 -54.5 -22.5t-22.5 -54.5t22.5 -55t54.5 -23z" />
    <glyph glyph-name="multiply" unicode="&#xd7;" horiz-adv-x="535" 
d="M382 325l134 134l-115 115l-134 -134l-133 133l-116 -115l134 -133l-134 -134l116 -115l133 133l134 -134l115 115z" />
    <glyph glyph-name="Oslash" unicode="&#xd8;" horiz-adv-x="682" 
d="M648 445q0 112 -57 181l84 127h-140l-38 -57q-67 29 -156 29q-148 0 -228 -74t-80 -206v-180q0 -113 60 -185l-79 -122h139l35 54q63 -27 153 -27q148 1 227.5 74.5t79.5 205.5v180zM341 550q35 0 59 -12l-167 -256q-1 9 -1.5 15.5t-0.5 10.5v146q0 48 28 72t82 24z
M449 422q1 -5 1 -24v-142q0 -48 -28.5 -72t-80.5 -24q-30 0 -56 10z" />
    <glyph glyph-name="Ugrave" unicode="&#xd9;" horiz-adv-x="692" 
d="M346 -15q147 0 224.5 73.5t77.5 202.5v449h-198v-458q0 -92 -104 -92q-103 0 -103 92v458h-198v-449q0 -64 20 -115t58 -87t94.5 -55t128.5 -19zM442 748l60 73l-206 122l-101 -119z" />
    <glyph glyph-name="Uacute" unicode="&#xda;" horiz-adv-x="692" 
d="M450 252q0 -92 -104 -92q-103 0 -103 92v458h-198v-449q0 -64 20 -115t58 -87t94.5 -55t128.5 -19q147 0 224.5 73.5t77.5 202.5v449h-198v-458zM499 822l-100 119l-207 -122l60 -73z" />
    <glyph glyph-name="Ucircumflex" unicode="&#xdb;" horiz-adv-x="692" 
d="M346 160q-103 0 -103 92v458h-198v-449q0 -64 20 -115t58 -87t94.5 -55t128.5 -19q147 0 224.5 73.5t77.5 202.5v449h-198v-458q0 -92 -104 -92zM296 754l50 57l46 -57h182l-166 166h-120l-166 -166h174z" />
    <glyph glyph-name="Udieresis" unicode="&#xdc;" horiz-adv-x="692" 
d="M648 261v449h-198v-458q0 -92 -104 -92q-103 0 -103 92v458h-198v-449q0 -64 20 -115t58 -87t94.5 -55t128.5 -19q147 0 224.5 73.5t77.5 202.5zM239 759q32 0 54.5 23t22.5 55t-22.5 54.5t-54.5 22.5q-16 0 -30.5 -6t-25 -16.5t-16.5 -24.5t-6 -30q0 -32 23 -55t55 -23z
M452 914q-32 0 -54.5 -22.5t-22.5 -54.5q0 -16 6 -30.5t16.5 -25t24.5 -16.5t30 -6q32 0 55 23t23 55q0 16 -6 30t-16.5 24.5t-25 16.5t-30.5 6z" />
    <glyph glyph-name="Yacute" unicode="&#xdd;" horiz-adv-x="675" 
d="M436 275l256 435h-223l-130 -241l-126 241h-230l255 -435v-275h198v275zM494 822l-100 119l-207 -122l60 -73z" />
    <glyph glyph-name="Thorn" unicode="&#xde;" horiz-adv-x="636" 
d="M355 100q60 0 109 18t83.5 51.5t53.5 81.5t19 108t-19 108.5t-53.5 82.5t-83.5 52t-109 18h-108v90h-197v-710h197v100h108zM247 275v170h83h8q38 0 57 -26.5t19 -58.5t-19 -58.5t-57 -26.5h-8h-83z" />
    <glyph glyph-name="germandbls" unicode="&#xdf;" horiz-adv-x="589" 
d="M343 521q0 -56 -46 -56h-44v-171h56q56 0 56 -60q0 -57 -56 -59h-56v-175h83q111 0 170.5 52.5t59.5 155.5q0 79 -25.5 119.5t-74.5 62.5v4q72 50 72 150t-63 153t-190 53q-120 0 -181.5 -59t-61.5 -164v-527h186v518q0 57 57 57q58 0 58 -54z" />
    <glyph glyph-name="agrave" unicode="&#xe0;" horiz-adv-x="529" 
d="M309 317q-5 0 -20.5 0.5t-24.5 0.5q-66 0 -112 -8t-75.5 -27.5t-42.5 -51.5t-13 -80q0 -44 11.5 -75.5t39.5 -51.5t73.5 -29.5t113.5 -9.5q133 0 198 28l38 16v290q0 103 -53.5 159.5t-179.5 56.5q-168 0 -222 -104l-15 -29l149 -62l14 19q25 34 65 34q56 0 56 -51v-25z
M420 636l-203 123l-106 -112l246 -82zM203 152q0 40 53 40h33t20 -1v-75l-5 -1q-15 -3 -50 -3q-29 0 -40 10.5t-11 29.5z" />
    <glyph glyph-name="aacute" unicode="&#xe1;" horiz-adv-x="529" 
d="M253 393q56 0 56 -51v-25q-5 0 -20.5 0.5t-24.5 0.5q-66 0 -112 -8t-75.5 -27.5t-42.5 -51.5t-13 -80q0 -44 11.5 -75.5t39.5 -51.5t73.5 -29.5t113.5 -9.5q133 0 198 28l38 16v290q0 103 -53.5 159.5t-179.5 56.5q-168 0 -222 -104l-15 -29l149 -62l14 19q25 34 65 34z
M419 646l-106 112l-203 -123l63 -71zM256 192h33t20 -1v-75l-5 -1q-15 -3 -50 -3q-29 0 -40 10.5t-11 29.5q0 40 53 40z" />
    <glyph glyph-name="acircumflex" unicode="&#xe2;" horiz-adv-x="529" 
d="M25 402l149 -62l14 19q25 34 65 34q56 0 56 -51v-25q-5 0 -20.5 0.5t-24.5 0.5q-66 0 -112 -8t-75.5 -27.5t-42.5 -51.5t-13 -80q0 -44 11.5 -75.5t39.5 -51.5t73.5 -29.5t113.5 -9.5q133 0 198 28l38 16v290q0 103 -53.5 159.5t-179.5 56.5q-168 0 -222 -104zM209 737
l-162 -162h164l51 56l45 -56h179l-163 162h-114zM203 152q0 40 53 40h33t20 -1v-75l-5 -1q-15 -3 -50 -3q-29 0 -40 10.5t-11 29.5z" />
    <glyph glyph-name="atilde" unicode="&#xe3;" horiz-adv-x="529" 
d="M259 -15q133 0 198 28l38 16v290q0 103 -53.5 159.5t-179.5 56.5q-168 0 -222 -104l-15 -29l149 -62l14 19q25 34 65 34q56 0 56 -51v-25q-5 0 -20.5 0.5t-24.5 0.5q-66 0 -112 -8t-75.5 -27.5t-42.5 -51.5t-13 -80q0 -44 11.5 -75.5t39.5 -51.5t73.5 -29.5t113.5 -9.5z
M433 708v23h-103v-19q0 -22 -15 -22q-10 0 -51 21q-42 20 -85 20q-47 0 -71 -27.5t-24 -95.5v-23h103v20q0 22 15 22q11 0 51 -21q41 -21 82 -21q49 0 73.5 28t24.5 95zM254 112q-29 0 -40 10.5t-11 29.5q0 40 53 40h33t20 -1v-75l-5 -1q-15 -3 -50 -3z" />
    <glyph glyph-name="adieresis" unicode="&#xe4;" horiz-adv-x="529" 
d="M188 359q25 34 65 34q56 0 56 -51v-25q-5 0 -20.5 0.5t-24.5 0.5q-66 0 -112 -8t-75.5 -27.5t-42.5 -51.5t-13 -80q0 -44 11.5 -75.5t39.5 -51.5t73.5 -29.5t113.5 -9.5q133 0 198 28l38 16v290q0 103 -53.5 159.5t-179.5 56.5q-168 0 -222 -104l-15 -29l149 -62zM77 656
q0 -32 23 -55t55 -23q16 0 30 6t24.5 16.5t16.5 25t6 30.5q0 32 -22.5 54.5t-54.5 22.5q-16 0 -30.5 -6t-25 -16.5t-16.5 -24.5t-6 -30zM368 578q32 0 55 23t23 55q0 16 -6 30t-16.5 24.5t-25 16.5t-30.5 6q-32 0 -54.5 -22.5t-22.5 -54.5t22.5 -55t54.5 -23zM203 152
q0 40 53 40h33t20 -1v-75l-5 -1q-15 -3 -50 -3q-29 0 -40 10.5t-11 29.5z" />
    <glyph glyph-name="aring" unicode="&#xe5;" horiz-adv-x="529" 
d="M309 342v-25q-5 0 -20.5 0.5t-24.5 0.5q-66 0 -112 -8t-75.5 -27.5t-42.5 -51.5t-13 -80q0 -44 11.5 -75.5t39.5 -51.5t73.5 -29.5t113.5 -9.5q133 0 198 28l38 16v290q0 103 -53.5 159.5t-179.5 56.5q-168 0 -222 -104l-15 -29l149 -62l14 19q25 34 65 34q56 0 56 -51z
M134 680q0 -54 37 -85q36 -31 93 -31t92.5 31.5t35.5 84.5t-35.5 85t-92.5 32q-58 0 -94 -31.5t-36 -85.5zM309 116l-5 -1q-15 -3 -50 -3q-29 0 -40 10.5t-11 29.5q0 40 53 40h33t20 -1v-75zM237 706q10 10 27 10q16 0 25.5 -10t9.5 -26t-9 -25q-10 -9 -26 -9
q-17 0 -27.5 9.5t-10.5 24.5q0 16 11 26z" />
    <glyph glyph-name="ae" unicode="&#xe6;" horiz-adv-x="781" 
d="M518 535q-79 0 -135 -38q-53 38 -132 38q-157 0 -210 -104l-15 -29l151 -60l10 15q24 36 56 36q27 0 37.5 -11t10.5 -34v-31q-4 0 -17.5 0.5t-21.5 0.5q-129 0 -179 -35q-51 -36 -51 -132q0 -44 9 -75t33.5 -50.5t69 -29.5t114.5 -11q89 0 153 27q51 -27 116 -27
q159 0 215 98l16 28l-145 71l-14 -19q-27 -38 -70 -38q-57 0 -57 60v24h297v107q0 48 -14.5 88.5t-44.5 69.5t-75.5 45t-106.5 16zM463 330v13q0 60 55 60q29 0 41.5 -14.5t12.5 -45.5v-13h-109zM204 152q0 20 9 30t34 10h28.5t16.5 -1v-75l-47 -4q-25 0 -33 9.5t-8 30.5z
" />
    <glyph glyph-name="ccedilla" unicode="&#xe7;" horiz-adv-x="522" 
d="M276 535q-126 0 -187 -57.5t-61 -162.5v-109q0 -98 49 -154.5t152 -65.5l-45 -101h48q24 -1 33 -5.5t9 -16.5q0 -23 -34 -23q-26 0 -56 15l-31 15v-95l26 -9q17 -5 35 -8t40 -3q138 0 150 100q5 42 -17.5 70t-64.5 29h-9l13 35q130 21 177 134l14 33l-180 55l-11 -29
q-17 -41 -59 -41q-53 0 -53 54v130q0 54 53 54q42 0 59 -41l13 -33l174 58l-12 33q-22 63 -78.5 101t-146.5 38z" />
    <glyph glyph-name="egrave" unicode="&#xe8;" horiz-adv-x="549" 
d="M520 115l-148 64l-14 -17q-28 -37 -80 -37q-65 0 -65 65v19h315v107q0 48 -16 88t-47.5 69.5t-78.5 45.5t-109 16q-123 0 -186.5 -59.5t-63.5 -171.5v-88q0 -52 15 -95t45.5 -73t77.5 -46.5t111 -16.5q169 0 226 99zM436 636l-202 123l-106 -112l246 -82zM341 330h-128
v13q0 60 64 60t64 -60v-13z" />
    <glyph glyph-name="eacute" unicode="&#xe9;" horiz-adv-x="549" 
d="M213 209h315v107q0 48 -16 88t-47.5 69.5t-78.5 45.5t-109 16q-123 0 -186.5 -59.5t-63.5 -171.5v-88q0 -52 15 -95t45.5 -73t77.5 -46.5t111 -16.5q169 0 226 99l18 31l-148 64l-14 -17q-28 -37 -80 -37q-65 0 -65 65v19zM432 647l-105 112l-203 -123l62 -71zM341 330
h-128v13q0 60 64 60t64 -60v-13z" />
    <glyph glyph-name="ecircumflex" unicode="&#xea;" horiz-adv-x="549" 
d="M528 316q0 48 -16 88t-47.5 69.5t-78.5 45.5t-109 16q-123 0 -186.5 -59.5t-63.5 -171.5v-88q0 -52 15 -95t45.5 -73t77.5 -46.5t111 -16.5q169 0 226 99l18 31l-148 64l-14 -17q-28 -37 -80 -37q-65 0 -65 65v19h315v107zM338 735h-114l-162 -162h164l51 56l45 -56h179z
M213 343q0 60 64 60t64 -60v-13h-128v13z" />
    <glyph glyph-name="edieresis" unicode="&#xeb;" horiz-adv-x="549" 
d="M528 316q0 48 -16 88t-47.5 69.5t-78.5 45.5t-109 16q-123 0 -186.5 -59.5t-63.5 -171.5v-88q0 -52 15 -95t45.5 -73t77.5 -46.5t111 -16.5q169 0 226 99l18 31l-148 64l-14 -17q-28 -37 -80 -37q-65 0 -65 65v19h315v107zM90 656q0 -32 23 -55t55 -23q16 0 30 6
t24.5 16.5t16.5 25t6 30.5q0 32 -22.5 54.5t-54.5 22.5q-16 0 -30.5 -6t-25 -16.5t-16.5 -24.5t-6 -30zM381 578q32 0 55 23t23 55q0 16 -6 30t-16.5 24.5t-25 16.5t-30.5 6q-32 0 -54.5 -22.5t-22.5 -54.5t22.5 -55t54.5 -23zM213 343q0 60 64 60t64 -60v-13h-128v13z" />
    <glyph glyph-name="igrave" unicode="&#xec;" horiz-adv-x="269" 
d="M228 520h-187v-520h187v520zM-13 656l233 -95l67 66l-188 135z" />
    <glyph glyph-name="iacute" unicode="&#xed;" horiz-adv-x="269" 
d="M41 0h187v520h-187v-520zM169 762l-188 -135l67 -66l233 95z" />
    <glyph glyph-name="icircumflex" unicode="&#xee;" horiz-adv-x="269" 
d="M228 0v520h-187v-520h187zM349 573l-152 162h-119l-152 -162h167l40 56l38 -56h178z" />
    <glyph glyph-name="idieresis" unicode="&#xef;" horiz-adv-x="269" 
d="M228 0v520h-187v-520h187zM33 578q16 0 30 6t24.5 16.5t16.5 25t6 30.5q0 32 -22.5 54.5t-54.5 22.5q-16 0 -30.5 -6t-25 -16.5t-16.5 -24.5t-6 -30q0 -32 23 -55t55 -23zM315 656q0 16 -6 30t-16.5 24.5t-25 16.5t-30.5 6q-32 0 -54.5 -22.5t-22.5 -54.5t22.5 -55
t54.5 -23t55 23t23 55z" />
    <glyph glyph-name="eth" unicode="&#xf0;" horiz-adv-x="559" 
d="M94 744l3 -152h41q83 0 113 -6l-36 -42l66 -41l44 48q30 -30 38 -85q-37 27 -114 27q-103 0 -162.5 -52.5t-59.5 -149.5v-94q0 -103 63 -157.5t186 -54.5q121 0 184 58t63 161v181q0 209 -87 288l42 45l-68 53l-46 -54q-78 27 -228 27h-42zM213 291q0 54 63 54
q61 0 61 -54v-92q0 -53 -61 -53q-63 0 -63 53v92z" />
    <glyph glyph-name="ntilde" unicode="&#xf1;" 
d="M226 362l3 1q15 4 44 4q60 0 60 -55v-312h186v319q0 105 -55.5 160.5t-169.5 55.5q-118 0 -213 -37l-41 -16v-482h186v362zM279 711q-42 20 -85 20q-47 0 -71 -27.5t-24 -95.5v-23h103v20q0 22 15 22q11 0 51 -21q41 -21 82 -21q49 0 73.5 28t24.5 95v23h-103v-19
q0 -22 -15 -22q-10 0 -51 21z" />
    <glyph glyph-name="ograve" unicode="&#xf2;" horiz-adv-x="552" 
d="M524 316q0 105 -63.5 162t-184.5 57t-184.5 -58t-63.5 -161v-112q0 -103 63.5 -161t184.5 -58t184.5 57t63.5 162v112zM372 565l62 71l-202 123l-106 -112zM276 375q63 0 63 -54v-122q0 -53 -63 -53q-62 0 -62 53v122q0 54 62 54z" />
    <glyph glyph-name="oacute" unicode="&#xf3;" horiz-adv-x="552" 
d="M276 -15q121 0 184.5 57t63.5 162v112q0 105 -63.5 162t-184.5 57t-184.5 -58t-63.5 -161v-112q0 -103 63.5 -161t184.5 -58zM431 647l-106 112l-203 -123l63 -71zM339 199q0 -53 -63 -53q-62 0 -62 53v122q0 54 62 54q63 0 63 -54v-122z" />
    <glyph glyph-name="ocircumflex" unicode="&#xf4;" horiz-adv-x="552" 
d="M524 316q0 105 -63.5 162t-184.5 57t-184.5 -58t-63.5 -161v-112q0 -103 63.5 -161t184.5 -58t184.5 57t63.5 162v112zM277 629l45 -56h179l-163 162h-114l-162 -162h164zM339 199q0 -53 -63 -53q-62 0 -62 53v122q0 54 62 54q63 0 63 -54v-122z" />
    <glyph glyph-name="otilde" unicode="&#xf5;" horiz-adv-x="552" 
d="M524 316q0 105 -63.5 162t-184.5 57t-184.5 -58t-63.5 -161v-112q0 -103 63.5 -161t184.5 -58t184.5 57t63.5 162v112zM200 585v20q0 22 15 22q11 0 51 -21q41 -21 82 -21q49 0 73.5 28t24.5 95v23h-103v-19q0 -22 -15 -22q-10 0 -51 21q-42 20 -85 20q-47 0 -71 -27.5
t-24 -95.5v-23h103zM214 321q0 54 62 54q63 0 63 -54v-122q0 -53 -63 -53q-62 0 -62 53v122z" />
    <glyph glyph-name="odieresis" unicode="&#xf6;" horiz-adv-x="552" 
d="M276 -15q121 0 184.5 57t63.5 162v112q0 105 -63.5 162t-184.5 57t-184.5 -58t-63.5 -161v-112q0 -103 63.5 -161t184.5 -58zM339 199q0 -53 -63 -53q-62 0 -62 53v122q0 54 62 54q63 0 63 -54v-122zM381 578q32 0 55 23t23 55q0 16 -6 30t-16.5 24.5t-25 16.5t-30.5 6
q-32 0 -54.5 -22.5t-22.5 -54.5t22.5 -55t54.5 -23zM168 578q16 0 30 6t24.5 16.5t16.5 25t6 30.5q0 32 -22.5 54.5t-54.5 22.5q-16 0 -30.5 -6t-25 -16.5t-16.5 -24.5t-6 -30q0 -32 23 -55t55 -23z" />
    <glyph glyph-name="divide" unicode="&#xf7;" horiz-adv-x="555" 
d="M528 241v170h-501v-170h501zM359 127q0 34 -24 57.5t-57 23.5q-34 0 -57.5 -23.5t-23.5 -57.5t23.5 -57.5t57.5 -23.5q33 0 57 23.5t24 57.5zM359 524q0 34 -24 57.5t-57 23.5q-34 0 -57.5 -23.5t-23.5 -57.5t23.5 -57.5t57.5 -23.5q33 0 57 23.5t24 57.5z" />
    <glyph glyph-name="oslash" unicode="&#xf8;" horiz-adv-x="552" 
d="M276 535q-121 0 -184.5 -58t-63.5 -161v-112q0 -104 64 -161l-51 -78h101l24 36q48 -16 110 -16q121 0 184.5 57t63.5 162v112q0 101 -60 158l49 78h-100l-22 -35q-49 18 -115 18zM276 399q26 0 41 -12l-103 -162v120q0 54 62 54zM338 293q0 -3 0.5 -8t0.5 -8v-102
q0 -53 -63 -53q-27 0 -40 10z" />
    <glyph glyph-name="ugrave" unicode="&#xf9;" 
d="M323 157q-10 -2 -20 -3t-20 -1q-60 0 -60 55v312h-186v-319q0 -105 55.5 -160.5t169.5 -55.5q120 0 213 37l41 16v482h-186v-362zM374 565l62 71l-202 123l-106 -112z" />
    <glyph glyph-name="uacute" unicode="&#xfa;" 
d="M323 157q-10 -2 -20 -3t-20 -1q-60 0 -60 55v312h-186v-319q0 -105 55.5 -160.5t169.5 -55.5q120 0 213 37l41 16v482h-186v-362zM430 646l-105 112l-203 -123l62 -71z" />
    <glyph glyph-name="ucircumflex" unicode="&#xfb;" 
d="M516 520h-186v-362l-7 -1q-10 -2 -20 -3t-20 -1q-60 0 -60 55v312h-186v-319q0 -105 55.5 -160.5t169.5 -55.5q120 0 213 37l41 16v482zM323 574h182l-166 166h-120l-166 -166h174l50 57z" />
    <glyph glyph-name="udieresis" unicode="&#xfc;" 
d="M330 158l-7 -1q-10 -2 -20 -3t-20 -1q-60 0 -60 55v312h-186v-319q0 -105 55.5 -160.5t169.5 -55.5q120 0 213 37l41 16v482h-186v-362zM382 733q-32 0 -54.5 -22.5t-22.5 -54.5t22.5 -55t54.5 -23t55 23t23 55q0 16 -6 30t-16.5 24.5t-25 16.5t-30.5 6zM91 656
q0 -32 23 -55t55 -23q16 0 30 6t24.5 16.5t16.5 25t6 30.5q0 32 -22.5 54.5t-54.5 22.5q-16 0 -30.5 -6t-25 -16.5t-16.5 -24.5t-6 -30z" />
    <glyph glyph-name="yacute" unicode="&#xfd;" horiz-adv-x="558" 
d="M283 183q-60 0 -60 55v282h-186v-289q0 -105 55.5 -160.5t169.5 -55.5q20 0 37 1t31 3v-39q0 -58 -56 -58q-39 0 -63 33l-14 19l-161 -79l17 -26q63 -99 223 -99q62 0 107 16.5t74.5 46.5t44 72.5t14.5 95.5v519h-186v-333q-17 -4 -47 -4zM430 646l-105 112l-203 -123
l62 -71z" />
    <glyph glyph-name="thorn" unicode="&#xfe;" horiz-adv-x="550" 
d="M522 319q0 105 -57 160.5t-172 55.5q-35 0 -64 -3v208h-187v-959h187v209q23 -2 38 -3.5t22 -1.5q115 0 174 57t59 169v108zM229 367q26 6 50 6q57 0 57 -49v-123q0 -55 -62 -55q-20 0 -45 5v216z" />
    <glyph glyph-name="ydieresis" unicode="&#xff;" horiz-adv-x="558" 
d="M211 -45l-14 19l-161 -79l17 -26q63 -99 223 -99q62 0 107 16.5t74.5 46.5t44 72.5t14.5 95.5v519h-186v-333q-17 -4 -47 -4q-60 0 -60 55v282h-186v-289q0 -105 55.5 -160.5t169.5 -55.5q20 0 37 1t31 3v-39q0 -58 -56 -58q-39 0 -63 33zM305 656q0 -32 22.5 -55
t54.5 -23t55 23t23 55q0 16 -6 30t-16.5 24.5t-25 16.5t-30.5 6q-32 0 -54.5 -22.5t-22.5 -54.5zM169 578q16 0 30 6t24.5 16.5t16.5 25t6 30.5q0 32 -22.5 54.5t-54.5 22.5q-16 0 -30.5 -6t-25 -16.5t-16.5 -24.5t-6 -30q0 -32 23 -55t55 -23z" />
    <glyph glyph-name="Amacron" unicode="&#x100;" horiz-adv-x="688" 
d="M249 710l-258 -710h207l35 114h218l35 -114h214l-258 710h-193zM502 778v114h-316v-114h316zM342 472l62 -201h-123z" />
    <glyph glyph-name="amacron" unicode="&#x101;" horiz-adv-x="529" 
d="M188 359q25 34 65 34q56 0 56 -51v-25q-5 0 -20.5 0.5t-24.5 0.5q-66 0 -112 -8t-75.5 -27.5t-42.5 -51.5t-13 -80q0 -44 11.5 -75.5t39.5 -51.5t73.5 -29.5t113.5 -9.5q133 0 198 28l38 16v290q0 103 -53.5 159.5t-179.5 56.5q-168 0 -222 -104l-15 -29l149 -62z
M420 596v114h-316v-114h316zM203 152q0 40 53 40h33t20 -1v-75l-5 -1q-15 -3 -50 -3q-29 0 -40 10.5t-11 29.5z" />
    <glyph glyph-name="Abreve" unicode="&#x102;" horiz-adv-x="688" 
d="M249 710l-258 -710h207l35 114h218l35 -114h214l-258 710h-193zM411 930l-13 -22q-19 -33 -54 -33q-37 0 -55 33l-12 22l-119 -45l10 -25q40 -106 176 -106q137 0 177 106l10 25zM404 271h-123l61 201z" />
    <glyph glyph-name="abreve" unicode="&#x103;" horiz-adv-x="529" 
d="M40 431l-15 -29l149 -62l14 19q25 34 65 34q56 0 56 -51v-25q-5 0 -20.5 0.5t-24.5 0.5q-66 0 -112 -8t-75.5 -27.5t-42.5 -51.5t-13 -80q0 -44 11.5 -75.5t39.5 -51.5t73.5 -29.5t113.5 -9.5q133 0 198 28l38 16v290q0 103 -53.5 159.5t-179.5 56.5q-168 0 -222 -104z
M76 705l10 -25q40 -106 176 -106q137 0 177 106l10 25l-120 45l-13 -22q-19 -33 -54 -33q-37 0 -55 33l-12 22zM254 112q-29 0 -40 10.5t-11 29.5q0 40 53 40h33t20 -1v-75l-5 -1q-15 -3 -50 -3z" />
    <glyph glyph-name="Aogonek" unicode="&#x104;" horiz-adv-x="688" 
d="M469 -179q13 -67 107 -67q65 0 111 35l14 11l-36 81l-16 -9q-10 -6 -19 -6q-15 0 -18 18q-3 20 13 51t51 65h24l-259 710h-192l-259 -710h207l36 114h217l35 -114h59q-92 -92 -75 -179zM403 271h-123l62 203z" />
    <glyph glyph-name="aogonek" unicode="&#x105;" horiz-adv-x="530" 
d="M188 359q25 34 65 34q56 0 56 -51v-25q-5 0 -20.5 0.5t-24.5 0.5q-66 0 -112 -8t-75.5 -27.5t-42.5 -51.5t-13 -80q0 -44 11.5 -75.5t39.5 -51.5t73.5 -29.5t113.5 -9.5q17 0 36.5 1t41.5 3q-81 -89 -66 -168q13 -67 106 -67q66 0 112 35l13 10l-35 83l-17 -10
q-10 -6 -18 -6q-16 0 -19 18q-7 53 68 142l14 16v277q0 103 -53.5 159.5t-179.5 56.5q-168 0 -222 -104l-14 -27l149 -62zM256 192h33t20 -1v-75l-5 -1q-15 -3 -50 -3q-29 0 -40 10.5t-11 29.5q0 40 53 40z" />
    <glyph glyph-name="Cacute" unicode="&#x106;" horiz-adv-x="651" 
d="M445 485q1 -2 3.5 -8t5.5 -13q3 -9 7 -19l187 66l-15 40q-66 174 -292 174q-148 0 -228 -74t-80 -206v-180q0 -132 80 -206t228 -74q226 0 292 175l15 39l-188 67l-15 -41q-24 -65 -104 -65q-58 0 -84 25t-26 79v182q0 54 26 79t84 25q78 0 104 -65zM496 822l-101 119
l-205 -121l59 -74z" />
    <glyph glyph-name="cacute" unicode="&#x107;" horiz-adv-x="522" 
d="M326 338l13 -33l174 58l-12 33q-22 63 -78.5 101t-146.5 38q-126 0 -187 -57.5t-61 -162.5v-109q0 -106 58 -163.5t179 -57.5q181 0 238 138l14 33l-180 55l-11 -29q-17 -41 -59 -41q-53 0 -53 54v130q0 54 53 54q42 0 59 -41zM428 647l-105 112l-203 -123l62 -71z" />
    <glyph glyph-name="Ccircumflex" unicode="&#x108;" horiz-adv-x="651" 
d="M341 550q78 0 104 -65q1 -2 3.5 -8t5.5 -13q3 -9 7 -19l187 66l-15 40q-66 174 -292 174q-148 0 -228 -74t-80 -206v-180q0 -132 80 -206t228 -74q226 0 292 175l15 39l-188 67l-15 -41q-24 -65 -104 -65q-58 0 -84 25t-26 79v182q0 54 26 79t84 25zM405 920h-120
l-166 -166h174l50 57l46 -57h182z" />
    <glyph glyph-name="ccircumflex" unicode="&#x109;" horiz-adv-x="522" 
d="M265 -15q181 0 238 138l14 33l-180 55l-11 -29q-17 -41 -59 -41q-53 0 -53 54v130q0 54 53 54q42 0 59 -41l13 -33l174 58l-12 33q-22 63 -78.5 101t-146.5 38q-126 0 -187 -57.5t-61 -162.5v-109q0 -106 58 -163.5t179 -57.5zM333 735h-114l-162 -162h164l51 56l45 -56
h179z" />
    <glyph glyph-name="Cdotaccent" unicode="&#x10a;" horiz-adv-x="651" 
d="M460 266l-15 -41q-24 -65 -104 -65q-58 0 -84 25t-26 79v182q0 54 26 79t84 25q78 0 104 -65q1 -2 3.5 -8t5.5 -13q3 -9 7 -19l187 66l-15 40q-66 174 -292 174q-148 0 -228 -74t-80 -206v-180q0 -132 80 -206t228 -74q226 0 292 175l15 39zM421 836q0 33 -23 56t-56 23
t-56 -23t-23 -56t23 -56t56 -23t56 23t23 56z" />
    <glyph glyph-name="cdotaccent" unicode="&#x10b;" horiz-adv-x="522" 
d="M501 396q-22 63 -78.5 101t-146.5 38q-126 0 -187 -57.5t-61 -162.5v-109q0 -106 58 -163.5t179 -57.5q181 0 238 138l14 33l-180 55l-11 -29q-17 -41 -59 -41q-53 0 -53 54v130q0 54 53 54q42 0 59 -41l13 -33l174 58zM193 657q0 -33 23 -56t56 -23t56 23t23 56t-23 56
t-56 23t-56 -23t-23 -56z" />
    <glyph glyph-name="Ccaron" unicode="&#x10c;" horiz-adv-x="651" 
d="M341 550q78 0 104 -65q1 -2 3.5 -8t5.5 -13q3 -9 7 -19l187 66l-15 40q-66 174 -292 174q-148 0 -228 -74t-80 -206v-180q0 -132 80 -206t228 -74q226 0 292 175l15 39l-188 67l-15 -41q-24 -65 -104 -65q-58 0 -84 25t-26 79v182q0 54 26 79t84 25zM285 754h118l162 166
h-170l-48 -56l-51 56h-176z" />
    <glyph glyph-name="ccaron" unicode="&#x10d;" horiz-adv-x="522" 
d="M501 396q-22 63 -78.5 101t-146.5 38q-126 0 -187 -57.5t-61 -162.5v-109q0 -106 58 -163.5t179 -57.5q181 0 238 138l14 33l-180 55l-11 -29q-17 -41 -59 -41q-53 0 -53 54v130q0 54 53 54q42 0 59 -41l13 -33l174 58zM220 569h107l149 154h-154l-45 -52l-45 52h-162z
" />
    <glyph glyph-name="Dcaron" unicode="&#x10e;" horiz-adv-x="677" 
d="M644 430q0 132 -80 206t-227 74h-287v-710h287q73 0 130 19.5t96.5 55.5t60 88t20.5 117v150zM446 283q0 -108 -116 -108h-82v360h82q116 0 116 -108v-144zM376 754l162 166h-170l-48 -56l-51 56h-176l165 -166h118z" />
    <glyph glyph-name="dcaron" unicode="&#x10f;" horiz-adv-x="644" 
d="M321 531q-42 6 -68 6q-114 0 -169.5 -55t-55.5 -160v-108q0 -227 244 -227q119 0 197 34l39 17v703h-187v-210zM565 740l-24 -231h116l78 231h-170zM214 326q0 50 57 50q21 0 50 -7v-214l-2 -1q-15 -5 -43 -5q-62 0 -62 55v122z" />
    <glyph glyph-name="Dcroat" unicode="&#x110;" horiz-adv-x="706" 
d="M674 430q0 132 -80 206t-228 74h-286v-286h-71v-128h71v-296h286q74 0 131 19.5t96.5 55.5t60 88t20.5 117v150zM278 175v121h106v128h-106v111h81q117 0 117 -108v-144q0 -108 -117 -108h-81z" />
    <glyph glyph-name="dcroat" unicode="&#x111;" horiz-adv-x="548" 
d="M254 535q-112 0 -169 -57.5t-57 -168.5v-108q0 -105 57 -160.5t175 -55.5q115 0 205 35l43 17v545h67v100h-67v58h-187v-58h-110v-100h110v-50q-57 3 -67 3zM272 147q-57 0 -57 49v123q0 55 62 55q19 0 44 -5v-217l-3 -1q-16 -4 -46 -4z" />
    <glyph glyph-name="Emacron" unicode="&#x112;" horiz-adv-x="588" 
d="M502 446h-254v89h307v175h-505v-710h513v175h-315v96h254v175zM461 778v114h-316v-114h316z" />
    <glyph glyph-name="emacron" unicode="&#x113;" horiz-adv-x="549" 
d="M276 -15q169 0 226 99l18 31l-148 64l-14 -17q-28 -37 -80 -37q-65 0 -65 65v19h315v107q0 48 -16 88t-47.5 69.5t-78.5 45.5t-109 16q-123 0 -186.5 -59.5t-63.5 -171.5v-88q0 -52 15 -95t45.5 -73t77.5 -46.5t111 -16.5zM422 593v110h-289v-110h289zM341 330h-128v13
q0 60 64 60t64 -60v-13z" />
    <glyph glyph-name="Ebreve" unicode="&#x114;" horiz-adv-x="588" 
d="M248 271h254v175h-254v89h307v175h-505v-710h513v175h-315v96zM303 875q-37 0 -55 33l-12 22l-119 -45l10 -25q40 -106 176 -106q137 0 177 106l10 25l-120 45l-13 -22q-19 -33 -54 -33z" />
    <glyph glyph-name="ebreve" unicode="&#x115;" horiz-adv-x="549" 
d="M528 209v107q0 48 -16 88t-47.5 69.5t-78.5 45.5t-109 16q-123 0 -186.5 -59.5t-63.5 -171.5v-88q0 -52 15 -95t45.5 -73t77.5 -46.5t111 -16.5q169 0 226 99l18 31l-148 64l-14 -17q-28 -37 -80 -37q-65 0 -65 65v19h315zM101 680q40 -106 176 -106q137 0 177 106l10 25
l-120 45l-13 -22q-19 -33 -54 -33q-37 0 -55 33l-12 22l-119 -45zM213 343q0 60 64 60t64 -60v-13h-128v13z" />
    <glyph glyph-name="Edotaccent" unicode="&#x116;" horiz-adv-x="588" 
d="M248 271h254v175h-254v89h307v175h-505v-710h513v175h-315v96zM302 757q33 0 56 23t23 56t-23 56t-56 23t-56 -23t-23 -56t23 -56t56 -23z" />
    <glyph glyph-name="edotaccent" unicode="&#x117;" horiz-adv-x="549" 
d="M520 115l-148 64l-14 -17q-28 -37 -80 -37q-65 0 -65 65v19h315v107q0 48 -16 88t-47.5 69.5t-78.5 45.5t-109 16q-123 0 -186.5 -59.5t-63.5 -171.5v-88q0 -52 15 -95t45.5 -73t77.5 -46.5t111 -16.5q169 0 226 99zM277 578q33 0 56 23t23 56t-23 56t-56 23t-56 -23
t-23 -56t23 -56t56 -23zM341 330h-128v13q0 60 64 60t64 -60v-13z" />
    <glyph glyph-name="Eogonek" unicode="&#x118;" horiz-adv-x="588" 
d="M248 271h254v175h-254v89h307v175h-505v-710h367q-42 -39 -64 -86.5t-13 -90.5q13 -67 107 -67q68 0 111 34l13 10l-36 85l-16 -12q-8 -5 -17 -5q-15 0 -18 17t7 40q5 11 19.5 31t39.5 49l13 16v154h-315v96z" />
    <glyph glyph-name="eogonek" unicode="&#x119;" horiz-adv-x="550" 
d="M528 316q0 48 -16 88t-47.5 69.5t-78.5 45.5t-109 16q-123 0 -186.5 -59.5t-63.5 -171.5v-88q0 -52 15 -95t45.5 -73t77.5 -46.5t111 -16.5q8 0 19.5 0.5t25.5 1.5q-81 -88 -66 -166q13 -67 107 -67q65 0 111 35l13 10l-35 84l-17 -11q-9 -6 -18 -6q-15 0 -18 18
q-9 66 74 161q18 17 30 39l17 31l-148 64q-2 -2 -3 -4q-4 -4 -10 -13q-28 -37 -80 -37q-65 0 -65 65v19h315v107zM277 403q64 0 64 -60v-13h-128v13q0 60 64 60z" />
    <glyph glyph-name="Ecaron" unicode="&#x11a;" horiz-adv-x="588" 
d="M502 271v175h-254v89h307v175h-505v-710h513v175h-315v96h254zM307 864l-51 56h-176l165 -166h118l162 166h-170z" />
    <glyph glyph-name="ecaron" unicode="&#x11b;" horiz-adv-x="549" 
d="M528 316q0 48 -16 88t-47.5 69.5t-78.5 45.5t-109 16q-123 0 -186.5 -59.5t-63.5 -171.5v-88q0 -52 15 -95t45.5 -73t77.5 -46.5t111 -16.5q169 0 226 99l18 31l-148 64l-14 -17q-28 -37 -80 -37q-65 0 -65 65v19h315v107zM224 569h107l149 154h-154l-45 -52l-45 52h-162
zM213 343q0 60 64 60t64 -60v-13h-128v13z" />
    <glyph glyph-name="Gcircumflex" unicode="&#x11c;" horiz-adv-x="677" 
d="M341 160q-58 0 -84 25t-26 79v182q0 54 26 79t84 25q77 0 104 -64l13 -34l187 66l-12 32q-66 175 -292 175q-148 0 -228 -74t-80 -206v-180q0 -132 80 -206t228 -74q72 0 129 18.5t96.5 51.5t60.5 78.5t21 99.5v175h-337v-160h138v-20q0 -32 -28.5 -50t-79.5 -18z
M403 930h-120l-166 -166h174l50 57l46 -57h182z" />
    <glyph glyph-name="gcircumflex" unicode="&#x11d;" horiz-adv-x="547" 
d="M27 229q0 -105 55.5 -160t169.5 -55q28 0 68 6v-40q0 -58 -55 -58q-36 0 -65 36l-2 3q-2 2 -2.5 3t-2.5 3l-6 8l-161 -79l17 -27q63 -99 223 -99q124 0 182.5 62.5t58.5 168.5v482l-39 18q-71 34 -197 34q-123 0 -183.5 -57t-60.5 -169v-80zM64 573h164l51 56l45 -56h179
l-163 162h-114zM214 318q0 55 62 55q27 0 40 -4l4 -1v-188q-5 0 -21 -2.5t-28 -2.5q-57 0 -57 50v93z" />
    <glyph glyph-name="Gbreve" unicode="&#x11e;" horiz-adv-x="677" 
d="M231 264v182q0 54 26 79t84 25q77 0 104 -64l13 -34l187 66l-12 32q-66 175 -292 175q-148 0 -228 -74t-80 -206v-180q0 -132 80 -206t228 -74q72 0 129 18.5t96.5 51.5t60.5 78.5t21 99.5v175h-337v-160h138v-20q0 -32 -28.5 -50t-79.5 -18q-58 0 -84 25t-26 79z
M165 870q40 -106 176 -106q137 0 177 106l10 25l-120 45l-13 -22q-19 -33 -54 -33q-37 0 -55 33l-12 22l-119 -45z" />
    <glyph glyph-name="gbreve" unicode="&#x11f;" horiz-adv-x="547" 
d="M43 -131q63 -99 223 -99q124 0 182.5 62.5t58.5 168.5v482l-39 18q-71 34 -197 34q-123 0 -183.5 -57t-60.5 -169v-80q0 -105 55.5 -160t169.5 -55q28 0 68 6v-40q0 -58 -55 -58q-36 0 -65 36l-2 3q-2 2 -2.5 3t-2.5 3l-6 8l-161 -79zM93 705l10 -25q40 -106 176 -106
q137 0 177 106l10 25l-120 45l-13 -22q-19 -33 -54 -33q-37 0 -55 33l-12 22zM214 318q0 55 62 55q27 0 40 -4l4 -1v-188q-5 0 -21 -2.5t-28 -2.5q-57 0 -57 50v93z" />
    <glyph glyph-name="Gdotaccent" unicode="&#x120;" horiz-adv-x="677" 
d="M633 550q-66 175 -292 175q-148 0 -228 -74t-80 -206v-180q0 -132 80 -206t228 -74q72 0 129 18.5t96.5 51.5t60.5 78.5t21 99.5v175h-337v-160h138v-20q0 -32 -28.5 -50t-79.5 -18q-58 0 -84 25t-26 79v182q0 54 26 79t84 25q77 0 104 -64l13 -34l187 66zM420 846
q0 33 -23 56t-56 23t-56 -23t-23 -56t23 -56t56 -23t56 23t23 56z" />
    <glyph glyph-name="gdotaccent" unicode="&#x121;" horiz-adv-x="547" 
d="M200 -42l-2 3q-2 2 -2.5 3t-2.5 3l-6 8l-161 -79l17 -27q63 -99 223 -99q124 0 182.5 62.5t58.5 168.5v482l-39 18q-71 34 -197 34q-123 0 -183.5 -57t-60.5 -169v-80q0 -105 55.5 -160t169.5 -55q28 0 68 6v-40q0 -58 -55 -58q-36 0 -65 36zM199 657q0 -33 23 -56
t56 -23t56 23t23 56t-23 56t-56 23t-56 -23t-23 -56zM214 318q0 55 62 55q27 0 40 -4l4 -1v-188q-5 0 -21 -2.5t-28 -2.5q-57 0 -57 50v93z" />
    <glyph glyph-name="uni0122" unicode="&#x122;" horiz-adv-x="677" 
d="M311 408v-160h138v-20q0 -32 -28.5 -50t-79.5 -18q-58 0 -84 25t-26 79v182q0 54 26 79t84 25q77 0 104 -64l13 -34l187 66l-12 32q-66 175 -292 175q-148 0 -228 -74t-80 -206v-180q0 -132 80 -206t228 -74q72 0 129 18.5t96.5 51.5t60.5 78.5t21 99.5v175h-337z
M380 -260l74 212h-178l-24 -212h128z" />
    <glyph glyph-name="uni0123" unicode="&#x123;" horiz-adv-x="548" 
d="M26 -104l17 -27q63 -99 223 -99q124 0 182.5 62.5t58.5 168.5v482l-39 18q-71 34 -197 34q-123 0 -183.5 -57t-60.5 -169v-80q0 -105 55.5 -160t169.5 -55q28 0 68 6v-40q0 -58 -55 -58q-36 0 -65 36l-2 3q-2 2 -2.5 3t-2.5 3l-6 8zM172 567h182l16 174h-124zM276 373
q27 0 40 -4l4 -1v-188q-5 0 -21 -2.5t-28 -2.5q-57 0 -57 50v93q0 55 62 55z" />
    <glyph glyph-name="Hcircumflex" unicode="&#x124;" horiz-adv-x="690" 
d="M442 0h198v711h-198v-264h-194v264h-198v-711h198v272h194v-272zM391 754h182l-166 166h-120l-166 -166h174l50 57z" />
    <glyph glyph-name="hcircumflex" unicode="&#x125;" horiz-adv-x="558" 
d="M41 38q0 -21 8.5 -29.5t30.5 -8.5h109q22 0 30.5 8.5t8.5 29.5v325q16 4 47 4q60 0 60 -55v-274q0 -21 8 -29.5t30 -8.5h110q21 0 29.5 8.5t8.5 29.5v281q0 104 -56 160t-169 56q-36 0 -68 -4v171q0 21 -8.5 29.5t-30.5 8.5h-109q-22 0 -30.5 -8.5t-8.5 -29.5v-664z
M84 941l-160 -160h163l48 55l45 -55h175l-161 160h-110z" />
    <glyph glyph-name="Hbar" unicode="&#x126;" horiz-adv-x="722" 
d="M457 272v-272h198v523h62v106h-62v82h-198v-82h-193v82h-198v-82h-61v-106h61v-523h198v272h193zM457 523v-76h-193v76h193z" />
    <glyph glyph-name="hbar" unicode="&#x127;" horiz-adv-x="559" 
d="M297 535q-18 0 -35 -1t-33 -3v50h116v98h-116v61h-187v-61h-52v-98h52v-581h187v363q15 4 47 4q60 0 60 -55v-312h186v319q0 105 -55.5 160.5t-169.5 55.5z" />
    <glyph glyph-name="Itilde" unicode="&#x128;" horiz-adv-x="299" 
d="M248 0v710h-198v-710h198zM222 763q49 0 73.5 28t24.5 95v23h-103v-19q0 -22 -15 -22q-10 0 -51 21q-42 20 -85 20q-47 0 -71 -27.5t-24 -95.5v-23h103v20q0 22 15 22q11 0 51 -21q41 -21 82 -21z" />
    <glyph glyph-name="itilde" unicode="&#x129;" horiz-adv-x="269" 
d="M228 0v520h-187v-520h187zM189 588q42 0 61.5 28t19.5 98v24h-85v-20q0 -22 -14 -22q-9 0 -41 21q-31 21 -67 21q-80 0 -80 -126v-24h87v20q0 20 13 20q9 0 41 -20t65 -20z" />
    <glyph glyph-name="Imacron" unicode="&#x12a;" horiz-adv-x="299" 
d="M50 0h198v710h-198v-710zM-8 892v-114h316v114h-316z" />
    <glyph glyph-name="imacron" unicode="&#x12b;" horiz-adv-x="269" 
d="M41 0h187v520h-187v-520zM20 594h229v113h-229v-113z" />
    <glyph glyph-name="Ibreve" unicode="&#x12c;" horiz-adv-x="299" 
d="M248 0v710h-198v-710h198zM150 754q137 0 177 106l10 25l-120 45l-13 -22q-19 -33 -54 -33q-37 0 -55 33l-12 22l-119 -45l10 -25q40 -106 176 -106z" />
    <glyph glyph-name="ibreve" unicode="&#x12d;" horiz-adv-x="269" 
d="M228 0v520h-187v-520h187zM185 728q-17 -32 -50 -32q-34 0 -51 32l-11 22l-119 -45l9 -25q37 -106 172 -106q133 0 173 106l10 26l-122 43z" />
    <glyph glyph-name="Iogonek" unicode="&#x12e;" horiz-adv-x="299" 
d="M231 -119l-16 -9q-10 -6 -19 -6q-15 0 -18 18q-7 51 55 118l15 16v692h-198v-710h57q-42 -42 -61.5 -89t-10.5 -90q13 -67 107 -67q65 0 111 35l14 11z" />
    <glyph glyph-name="iogonek" unicode="&#x12f;" horiz-adv-x="269" 
d="M253 -201l-33 82l-18 -10q-10 -5 -17 -5q-16 0 -19 18q-7 52 50 121l12 14v501h-187v-520h48q-82 -95 -65 -179q13 -67 106 -67q64 0 110 35zM135 722q-33 0 -56.5 -23.5t-23.5 -55.5q0 -33 23.5 -56.5t56.5 -23.5q32 0 55.5 23.5t23.5 56.5q0 32 -23.5 55.5t-55.5 23.5z
" />
    <glyph glyph-name="Idotaccent" unicode="&#x130;" horiz-adv-x="299" 
d="M248 710h-198v-710h198v710zM149 915q-33 0 -56 -23t-23 -56t23 -56t56 -23t56 23t23 56t-23 56t-56 23z" />
    <glyph glyph-name="dotlessi" unicode="&#x131;" horiz-adv-x="269" 
d="M41 520v-520h187v520h-187z" />
    <glyph glyph-name="IJ" unicode="&#x132;" horiz-adv-x="884" 
d="M564 -15q135 0 205 68t70 194v464h-198v-465q0 -86 -73 -86q-51 0 -78 61l-16 38l-184 -65l14 -40q61 -169 260 -169zM50 0h198v710h-198v-710z" />
    <glyph glyph-name="ij" unicode="&#x133;" horiz-adv-x="540" 
d="M311 520v-518q0 -68 -68 -68h-40v-164h40q128 0 191 53.5t63 166.5v530h-186zM228 520h-187v-520h187v520zM304 643q0 -42 28.5 -71t70.5 -29t71 29t29 71t-29 70.5t-71 28.5t-70.5 -28.5t-28.5 -70.5zM135 742q-21 0 -39 -8t-31.5 -21.5t-21 -31.5t-7.5 -38
q0 -42 28.5 -70.5t70.5 -28.5t70.5 28.5t28.5 70.5q0 20 -7.5 38t-21 31.5t-31.5 21.5t-39 8z" />
    <glyph glyph-name="Jcircumflex" unicode="&#x134;" horiz-adv-x="587" 
d="M270 160q-51 0 -78 61l-16 38l-185 -65l15 -40q61 -169 260 -169q135 0 205 68t70 194v464h-198v-465q0 -86 -73 -86zM384 920l-166 -166h174l50 57l46 -57h182l-166 166h-120z" />
    <glyph glyph-name="jcircumflex" unicode="&#x135;" horiz-adv-x="270" 
d="M228 -10v530h-186v-518q0 -68 -68 -68h-40v-164h40q129 0 191.5 53t62.5 167zM193 734h-110l-160 -160h163l48 55l45 -55h175z" />
    <glyph glyph-name="uni0136" unicode="&#x136;" horiz-adv-x="655" 
d="M333 223l108 -223h229q-45 86 -81 155q-15 29 -30 57t-26.5 50t-19 35.5t-8.5 14.5q-11 21 -25 37t-29 27l210 334h-223l-168 -264h-22v264h-198v-710h198v271h18q26 0 40 -11t27 -37zM260 -48l-24 -212h128l74 212h-178z" />
    <glyph glyph-name="uni0137" unicode="&#x137;" horiz-adv-x="553" 
d="M292 158l59 -158h207l-113 232q-15 30 -33 45l142 243h-200l-105 -180h-21v400h-186v-740h186v188h18q33 0 46 -30zM201 -230h126l69 187h-178z" />
    <glyph glyph-name="kgreenlandic" unicode="&#x138;" horiz-adv-x="549" 
d="M350 0h205l-161 312l166 208h-218l-114 -148v148h-187v-520h187v117l34 44z" />
    <glyph glyph-name="Lacute" unicode="&#x139;" horiz-adv-x="542" 
d="M531 0v175h-283v535h-198v-710h481zM-2 818l60 -73l247 76l-101 118z" />
    <glyph glyph-name="lacute" unicode="&#x13a;" horiz-adv-x="272" 
d="M229 740h-186v-740h186v740zM189 954l-206 -121l60 -73l247 76z" />
    <glyph glyph-name="uni013B" unicode="&#x13b;" horiz-adv-x="542" 
d="M531 0v175h-283v535h-198v-710h481zM206 -48l-24 -212h128l74 212h-178z" />
    <glyph glyph-name="uni013C" unicode="&#x13c;" horiz-adv-x="272" 
d="M229 740h-186v-740h186v740zM35 -224h125l69 187h-178z" />
    <glyph glyph-name="Lcaron" unicode="&#x13d;" horiz-adv-x="545" 
d="M531 0v175h-283v535h-198v-710h481zM310 479h119l85 231h-178z" />
    <glyph glyph-name="lcaron" unicode="&#x13e;" horiz-adv-x="338" 
d="M229 740h-186v-740h186v740zM262 524h120l83 216h-180z" />
    <glyph glyph-name="Ldot" unicode="&#x13f;" horiz-adv-x="545" 
d="M531 0v175h-283v535h-198v-710h481zM401 500q-19 0 -36 -7.5t-29.5 -20t-20 -29.5t-7.5 -36t7.5 -36t20 -29.5t29.5 -20t36 -7.5q20 0 36.5 7.5t29.5 20t20 29.5t7 36t-7 36t-20 29.5t-29.5 20t-36.5 7.5z" />
    <glyph glyph-name="ldot" unicode="&#x140;" horiz-adv-x="479" 
d="M43 0h186v740h-186v-740zM278 378q0 -42 28.5 -70.5t70.5 -28.5q41 0 69.5 28.5t28.5 70.5q0 41 -28.5 69.5t-69.5 28.5q-42 0 -70.5 -28.5t-28.5 -69.5z" />
    <glyph glyph-name="Lslash" unicode="&#x141;" horiz-adv-x="590" 
d="M578 175h-282v162l190 85l-50 101l-140 -63v250h-198v-338l-118 -53l49 -101l69 30v-248h480v175z" />
    <glyph glyph-name="lslash" unicode="&#x142;" horiz-adv-x="377" 
d="M281 -1v358l110 58l-53 92l-57 -30v263h-187v-362l-107 -58l53 -91l54 28v-258h187z" />
    <glyph glyph-name="Nacute" unicode="&#x143;" horiz-adv-x="700" 
d="M650 710h-186v-349l-224 349h-190v-710h187v355l230 -355h183v710zM506 824l-100 118l-207 -121l60 -73z" />
    <glyph glyph-name="nacute" unicode="&#x144;" 
d="M229 363q15 4 44 4q60 0 60 -55v-312h186v319q0 105 -55.5 160.5t-169.5 55.5q-118 0 -213 -37l-41 -16v-482h186v362zM430 642l-100 118l-206 -121l60 -73z" />
    <glyph glyph-name="uni0145" unicode="&#x145;" horiz-adv-x="700" 
d="M650 710h-186v-349l-224 349h-190v-710h187v355l230 -355h183v710zM382 -260l74 212h-178l-24 -212h128z" />
    <glyph glyph-name="uni0146" unicode="&#x146;" 
d="M229 363q15 4 44 4q60 0 60 -55v-312h186v319q0 105 -55.5 160.5t-169.5 55.5q-118 0 -213 -37l-41 -16v-482h186v362zM314 -220l69 187h-178l-17 -187h126z" />
    <glyph glyph-name="Ncaron" unicode="&#x147;" horiz-adv-x="700" 
d="M237 0v355l230 -355h183v710h-186v-349l-224 349h-190v-710h187zM575 920h-170l-48 -56l-51 56h-176l165 -166h118z" />
    <glyph glyph-name="ncaron" unicode="&#x148;" 
d="M333 0h186v319q0 105 -55.5 160.5t-169.5 55.5q-118 0 -213 -37l-41 -16v-482h186v362l3 1q15 4 44 4q60 0 60 -55v-312zM327 723l-45 -52l-45 52h-162l150 -154h107l149 154h-154z" />
    <glyph glyph-name="napostrophe" unicode="&#x149;" 
d="M226 362l3 1q15 4 44 4q60 0 60 -55v-312h186v319q0 105 -55.5 160.5t-169.5 55.5q-118 0 -213 -37l-41 -16v-482h186v362zM12 539h133l135 201h-194z" />
    <glyph glyph-name="Eng" unicode="&#x14a;" horiz-adv-x="700" 
d="M356 -230h40q129 0 191.5 53t62.5 167v720h-186v-349l-224 349h-190v-710h187v353l224 -342v-9q0 -34 -15 -51t-50 -17h-40v-164z" />
    <glyph glyph-name="eng" unicode="&#x14b;" horiz-adv-x="557" 
d="M230 -230h39q127 0 188.5 52t61.5 164v333q0 105 -55.5 160.5t-169.5 55.5q-118 0 -213 -37l-41 -16v-482h186v362l3 1q15 4 44 4q60 0 60 -55v-314q0 -67 -64 -67h-39v-161z" />
    <glyph glyph-name="Omacron" unicode="&#x14c;" horiz-adv-x="682" 
d="M648 445q0 132 -80 206t-227 74q-148 0 -228 -74t-80 -206v-180q0 -132 80 -206t228 -74q147 0 227 74t80 206v180zM450 256q0 -48 -28.5 -72t-80.5 -24q-54 0 -82 24t-28 72v198q0 48 28 72t82 24q52 0 80.5 -24t28.5 -72v-198zM499 788v114h-316v-114h316z" />
    <glyph glyph-name="omacron" unicode="&#x14d;" horiz-adv-x="552" 
d="M524 316q0 105 -63.5 162t-184.5 57t-184.5 -58t-63.5 -161v-112q0 -103 63.5 -161t184.5 -58t184.5 57t63.5 162v112zM421 593v109h-290v-109h290zM276 375q63 0 63 -54v-122q0 -53 -63 -53q-62 0 -62 53v122q0 54 62 54z" />
    <glyph glyph-name="Obreve" unicode="&#x14e;" horiz-adv-x="682" 
d="M341 -15q147 0 227 74t80 206v180q0 132 -80 206t-227 74q-148 0 -228 -74t-80 -206v-180q0 -132 80 -206t228 -74zM341 550q52 0 80.5 -24t28.5 -72v-198q0 -48 -28.5 -72t-80.5 -24q-54 0 -82 24t-28 72v198q0 48 28 72t82 24zM395 918q-19 -33 -54 -33q-37 0 -55 33
l-12 22l-119 -45l10 -25q40 -106 176 -106q137 0 177 106l10 25l-120 45z" />
    <glyph glyph-name="obreve" unicode="&#x14f;" horiz-adv-x="552" 
d="M276 -15q121 0 184.5 57t63.5 162v112q0 105 -63.5 162t-184.5 57t-184.5 -58t-63.5 -161v-112q0 -103 63.5 -161t184.5 -58zM276 574q137 0 177 106l10 25l-120 45l-13 -22q-19 -33 -54 -33q-37 0 -55 33l-12 22l-119 -45l10 -25q40 -106 176 -106zM339 199
q0 -53 -63 -53q-62 0 -62 53v122q0 54 62 54q63 0 63 -54v-122z" />
    <glyph glyph-name="Ohungarumlaut" unicode="&#x150;" horiz-adv-x="682" 
d="M648 445q0 132 -80 206t-227 74q-148 0 -228 -74t-80 -206v-180q0 -132 80 -206t228 -74q147 0 227 74t80 206v180zM450 256q0 -48 -28.5 -72t-80.5 -24q-54 0 -82 24t-28 72v198q0 48 28 72t82 24q52 0 80.5 -24t28.5 -72v-198zM423 758l187 141l-159 42l-126 -160z
M252 941l-120 -161l102 -18l172 145z" />
    <glyph glyph-name="ohungarumlaut" unicode="&#x151;" horiz-adv-x="552" 
d="M276 -15q121 0 184.5 57t63.5 162v112q0 105 -63.5 162t-184.5 57t-184.5 -58t-63.5 -161v-112q0 -103 63.5 -161t184.5 -58zM339 199q0 -53 -63 -53q-62 0 -62 53v122q0 54 62 54q63 0 63 -54v-122zM354 562l172 129l-146 39l-116 -148zM84 581l96 -16l158 133l-141 32z
" />
    <glyph glyph-name="OE" unicode="&#x152;" horiz-adv-x="884" 
d="M457 710q-51 15 -116 15q-148 0 -228 -74t-80 -206v-180q0 -132 80 -206t228 -74q75 0 124 15h394v175h-260v96h199v175h-199v89h252v175h-394zM231 454q0 48 28 72t82 24q35 0 60 -12v-366q-25 -12 -60 -12q-54 0 -82 24t-28 72v198z" />
    <glyph glyph-name="oe" unicode="&#x153;" horiz-adv-x="803" 
d="M263 535q-117 0 -176 -57t-59 -162v-112q0 -105 59 -162t176 -57q84 0 138 42q59 -42 139 -42q159 0 215 98l15 27l-145 72l-16 -22q-26 -35 -67 -35q-57 0 -57 65v19h296v107q0 48 -15 88.5t-45 69.5t-75 45t-105 16q-81 0 -139 -41q-58 41 -139 41zM263 375
q51 0 51 -51v-128q0 -50 -51 -50q-49 0 -49 50v128q0 51 49 51zM541 403q29 0 41.5 -14.5t12.5 -45.5v-13h-109v13q0 60 55 60z" />
    <glyph glyph-name="Racute" unicode="&#x154;" horiz-adv-x="661" 
d="M271 236q29 0 45 -12t30 -39l86 -185h230l-124 235q-4 8 -9 14.5t-10 13.5q59 32 83.5 87t24.5 119q0 115 -67 178t-182 63h-328v-710h198v236h23zM472 821l-101 118l-205 -120l58 -74zM422 470q0 -31 -17.5 -49t-48.5 -18h-108v132h108q32 0 49 -17.5t17 -47.5z" />
    <glyph glyph-name="racute" unicode="&#x155;" horiz-adv-x="362" 
d="M232 369q17 4 46 4h76v162h-69q-66 -2 -116 -10t-87 -22q-25 -10 -33.5 -22.5t-8.5 -37.5v-443h187v368zM351 647l-106 112l-203 -123l63 -71z" />
    <glyph glyph-name="uni0156" unicode="&#x156;" horiz-adv-x="661" 
d="M662 0l-124 235q-4 8 -9 14.5t-10 13.5q59 32 83.5 87t24.5 119q0 115 -67 178t-182 63h-328v-710h198v236h23q29 0 45 -12t30 -39l86 -185h230zM442 -48h-178l-24 -212h128zM356 535q32 0 49 -17.5t17 -47.5q0 -31 -17.5 -49t-48.5 -18h-108v132h108z" />
    <glyph glyph-name="uni0157" unicode="&#x157;" horiz-adv-x="362" 
d="M227 0v368l5 1q17 4 46 4h76v162h-69q-66 -2 -116 -10t-87 -22q-25 -10 -33.5 -22.5t-8.5 -37.5v-443h187zM33 -226h125l69 187h-178z" />
    <glyph glyph-name="Rcaron" unicode="&#x158;" horiz-adv-x="661" 
d="M248 236h23q29 0 45 -12t30 -39l86 -185h230l-124 235q-4 8 -9 14.5t-10 13.5q59 32 83.5 87t24.5 119q0 115 -67 178t-182 63h-328v-710h198v236zM261 754h118l162 166h-170l-48 -56l-51 56h-176zM248 403v132h108q32 0 49 -17.5t17 -47.5q0 -31 -17.5 -49t-48.5 -18
h-108z" />
    <glyph glyph-name="rcaron" unicode="&#x159;" horiz-adv-x="362" 
d="M232 369q17 4 46 4h76v162h-69q-66 -2 -116 -10t-87 -22q-25 -10 -33.5 -22.5t-8.5 -37.5v-443h187v368zM145 569h107l149 154h-154l-45 -52l-45 52h-162z" />
    <glyph glyph-name="Sacute" unicode="&#x15a;" horiz-adv-x="647" 
d="M206 207l-14 28l-177 -64l11 -31q57 -155 291 -155q54 0 109 12t100 39t73 70.5t28 106.5q-3 66 -24 108t-56 67.5t-82.5 38t-103.5 19.5q-67 8 -99 20t-32 41q0 52 95 52q76 0 101 -52l14 -28l179 76l-15 30q-35 72 -101.5 106t-177.5 34q-70 0 -125 -16t-93.5 -45.5
t-58.5 -70.5t-20 -92q1 -69 24.5 -110.5t62 -66t89 -35.5t105.5 -19q60 -8 88.5 -20t28.5 -39q0 -57 -107 -57q-86 0 -113 53zM377 950l-206 -121l60 -73l246 76z" />
    <glyph glyph-name="sacute" unicode="&#x15b;" horiz-adv-x="518" 
d="M196 355q0 15 13.5 21t49.5 6q50 0 72 -28l18 -22l148 65l-17 31q-59 107 -231 107q-109 0 -166 -46t-57 -125q0 -82 52.5 -117t155.5 -42q29 -2 47.5 -4.5t29 -6.5t14.5 -10.5t4 -15.5q0 -17 -16.5 -24t-55.5 -7q-55 0 -75 32l-12 20l-155 -56l11 -29q47 -119 238 -119
q114 0 174.5 47.5t60.5 129.5q0 39 -12 67.5t-38.5 47t-68.5 29.5t-102 16q-49 4 -65.5 10.5t-16.5 22.5zM405 643l-100 118l-206 -121l60 -73z" />
    <glyph glyph-name="Scircumflex" unicode="&#x15c;" horiz-adv-x="647" 
d="M26 140q57 -155 291 -155q54 0 109 12t100 39t73 70.5t28 106.5q-3 66 -24 108t-56 67.5t-82.5 38t-103.5 19.5q-67 8 -99 20t-32 41q0 52 95 52q76 0 101 -52l14 -28l179 76l-15 30q-35 72 -101.5 106t-177.5 34q-70 0 -125 -16t-93.5 -45.5t-58.5 -70.5t-20 -92
q1 -69 24.5 -110.5t62 -66t89 -35.5t105.5 -19q60 -8 88.5 -20t28.5 -39q0 -57 -107 -57q-86 0 -113 53l-14 28l-177 -64zM266 930l-166 -166h174l50 57l46 -57h182l-166 166h-120z" />
    <glyph glyph-name="scircumflex" unicode="&#x15d;" horiz-adv-x="518" 
d="M257 137q-55 0 -75 32l-12 20l-155 -56l11 -29q47 -119 238 -119q114 0 174.5 47.5t60.5 129.5q0 39 -12 67.5t-38.5 47t-68.5 29.5t-102 16q-49 4 -65.5 10.5t-16.5 22.5q0 15 13.5 21t49.5 6q50 0 72 -28l18 -22l148 65l-17 31q-59 107 -231 107q-109 0 -166 -46
t-57 -125q0 -82 52.5 -117t155.5 -42q29 -2 47.5 -4.5t29 -6.5t14.5 -10.5t4 -15.5q0 -17 -16.5 -24t-55.5 -7zM38 573h164l51 56l45 -56h179l-163 162h-114z" />
    <glyph glyph-name="Scedilla" unicode="&#x15e;" horiz-adv-x="646" 
d="M460 -145q5 42 -17.5 70t-64.5 29h-9l13 35q47 6 91 21.5t78 43t54.5 67t20.5 92.5q-3 66 -24 108t-56 67.5t-82.5 38t-103.5 19.5q-67 8 -99 20t-32 41q0 52 95 52q76 0 101 -52l14 -28l179 76l-15 30q-35 72 -101.5 106t-177.5 34q-70 0 -125 -16t-93.5 -45.5
t-58.5 -70.5t-20 -92q1 -69 24.5 -110.5t62 -66t89 -35.5t105.5 -19q60 -8 88.5 -20t28.5 -39q0 -57 -107 -57q-86 0 -113 53l-14 28l-177 -64l11 -31q53 -145 260 -154l-45 -101h48q24 -1 33 -5.5t9 -16.5q0 -23 -34 -23q-26 0 -56 15l-31 15v-95l26 -9q17 -5 35 -8t40 -3
q138 0 150 100z" />
    <glyph glyph-name="scedilla" unicode="&#x15f;" horiz-adv-x="518" 
d="M15 133l11 -29q41 -106 195 -118l-48 -108h48q24 -2 33 -6t9 -16q0 -23 -34 -23q-26 0 -56 15l-31 15v-95l26 -9q17 -6 35 -8.5t40 -2.5q138 0 150 100q5 42 -17.5 69.5t-64.5 29.5h-9l15 41q88 11 135 56.5t47 117.5q0 39 -12 67t-38.5 47t-68.5 30t-102 16
q-49 4 -65.5 10t-16.5 23q0 15 13.5 21t49.5 6q49 0 72 -28l18 -22l148 65l-17 31q-59 107 -231 107q-109 0 -166 -46t-57 -125q0 -41 13.5 -70t39.5 -47.5t65 -28.5t90 -13q29 -2 47.5 -4.5t29 -6.5t14.5 -10.5t4 -15.5q0 -17 -16.5 -24t-55.5 -7q-56 0 -75 32l-12 19z" />
    <glyph glyph-name="Scaron" unicode="&#x160;" horiz-adv-x="647" 
d="M35 443q6 -27 14.5 -47.5t25.5 -37.5t31 -28t38 -21t39.5 -15t43.5 -10.5t41 -7.5t41 -6q59 -8 88 -20t29 -39q0 -57 -107 -57q-86 0 -113 53q-11 21 -24 25.5t-35 -3.5l-94 -34q-22 -8 -28.5 -20t1.5 -35q57 -155 291 -155q137 0 223.5 60.5t86.5 167.5q0 54 -17.5 95
t-41.5 64t-64.5 39.5t-69.5 22.5t-73 12q-67 8 -99 20t-32 41q0 52 95 52q75 0 101 -52q12 -22 23 -26t31 5l100 43q43 17 24 56q-35 72 -102 106t-177 34q-140 0 -218.5 -61.5t-78.5 -162.5q0 -32 7 -58zM277 930h-176l165 -166h118l162 166h-170l-48 -56z" />
    <glyph glyph-name="scaron" unicode="&#x161;" horiz-adv-x="518" 
d="M257 137q-55 0 -75 32l-12 20l-155 -56l11 -29q47 -119 238 -119q114 0 174.5 47.5t60.5 129.5q0 39 -12 67.5t-38.5 47t-68.5 29.5t-102 16q-49 4 -65.5 10.5t-16.5 22.5q0 15 13.5 21t49.5 6q50 0 72 -28l18 -22l148 65l-17 31q-59 107 -231 107q-109 0 -166 -46
t-57 -125q0 -82 52.5 -117t155.5 -42q29 -2 47.5 -4.5t29 -6.5t14.5 -10.5t4 -15.5q0 -17 -16.5 -24t-55.5 -7zM51 720l150 -154h107l149 154h-154l-45 -52l-45 52h-162z" />
    <glyph glyph-name="Tcaron" unicode="&#x164;" horiz-adv-x="603" 
d="M401 0v535h191v175h-580v-175h191v-535h198zM354 920l-48 -56l-51 56h-176l165 -166h118l162 166h-170z" />
    <glyph glyph-name="tcaron" unicode="&#x165;" horiz-adv-x="401" 
d="M382 520h-107v120h-187v-120h-81v-152h81v-160q0 -67 17 -110t49.5 -67.5t80 -34t108.5 -9.5h39v164h-39q-38 0 -53 15t-15 55v147h107v152zM505 740h-181l-14 -185h120z" />
    <glyph glyph-name="Tbar" unicode="&#x166;" horiz-adv-x="614" 
d="M406 535h191v175h-580v-175h191v-163h-120v-120h120v-252h198v252h121v120h-121v163z" />
    <glyph glyph-name="tbar" unicode="&#x167;" horiz-adv-x="402" 
d="M89 640v-120h-82v-151h82v-53h-68v-99h68v-8q0 -67 16.5 -110t49 -68t80 -34.5t108.5 -9.5h40v165h-44q-35 1 -49.5 12.5t-14.5 47.5v5h93v99h-93v53h108v151h-108v120h-186z" />
    <glyph glyph-name="Utilde" unicode="&#x168;" horiz-adv-x="692" 
d="M450 252q0 -92 -104 -92q-103 0 -103 92v458h-198v-449q0 -64 20 -115t58 -87t94.5 -55t128.5 -19q147 0 224.5 73.5t77.5 202.5v449h-198v-458zM271 763v20q0 22 15 22q11 0 51 -21q41 -21 82 -21q49 0 73.5 28t24.5 95v23h-103v-19q0 -22 -15 -22q-10 0 -51 21
q-42 20 -85 20q-47 0 -71 -27.5t-24 -95.5v-23h103z" />
    <glyph glyph-name="utilde" unicode="&#x169;" 
d="M283 153q-60 0 -60 55v312h-186v-319q0 -105 55.5 -160.5t169.5 -55.5q120 0 213 37l41 16v482h-186v-362l-7 -1q-10 -2 -20 -3t-20 -1zM201 585v20q0 22 15 22q11 0 51 -21q41 -21 82 -21q49 0 73.5 28t24.5 95v23h-103v-19q0 -22 -15 -22q-10 0 -51 21q-42 20 -85 20
q-47 0 -71 -27.5t-24 -95.5v-23h103z" />
    <glyph glyph-name="Umacron" unicode="&#x16a;" horiz-adv-x="692" 
d="M346 -15q147 0 224.5 73.5t77.5 202.5v449h-198v-458q0 -92 -104 -92q-103 0 -103 92v458h-198v-449q0 -64 20 -115t58 -87t94.5 -55t128.5 -19zM504 778v114h-316v-114h316z" />
    <glyph glyph-name="umacron" unicode="&#x16b;" 
d="M323 157q-10 -2 -20 -3t-20 -1q-60 0 -60 55v312h-186v-319q0 -105 55.5 -160.5t169.5 -55.5q120 0 213 37l41 16v482h-186v-362zM435 596v114h-316v-114h316z" />
    <glyph glyph-name="Ubreve" unicode="&#x16c;" horiz-adv-x="692" 
d="M648 710h-198v-458q0 -92 -104 -92q-103 0 -103 92v458h-198v-449q0 -64 20 -115t58 -87t94.5 -55t128.5 -19q147 0 224.5 73.5t77.5 202.5v449zM400 908q-19 -33 -54 -33q-37 0 -55 33l-12 22l-119 -45l10 -25q40 -106 176 -106q137 0 177 106l10 25l-120 45z" />
    <glyph glyph-name="ubreve" unicode="&#x16d;" 
d="M323 157q-10 -2 -20 -3t-20 -1q-60 0 -60 55v312h-186v-319q0 -105 55.5 -160.5t169.5 -55.5q120 0 213 37l41 16v482h-186v-362zM277 574q137 0 177 106l10 25l-120 45l-13 -22q-19 -33 -54 -33q-37 0 -55 33l-12 22l-119 -45l10 -25q40 -106 176 -106z" />
    <glyph glyph-name="Uring" unicode="&#x16e;" horiz-adv-x="692" 
d="M346 160q-103 0 -103 92v458h-198v-449q0 -64 20 -115t58 -87t94.5 -55t128.5 -19q147 0 224.5 73.5t77.5 202.5v449h-198v-458q0 -92 -104 -92zM348 972q-58 0 -94.5 -31.5t-36.5 -85.5t37 -85q36 -31 94 -31q56 0 91.5 31.5t35.5 84.5t-35 85t-92 32zM348 821
q-18 0 -28 9.5t-10 24.5q0 36 38 36q15 0 24.5 -10t9.5 -26t-9 -25q-10 -9 -25 -9z" />
    <glyph glyph-name="uring" unicode="&#x16f;" 
d="M283 153q-60 0 -60 55v312h-186v-319q0 -105 55.5 -160.5t169.5 -55.5q120 0 213 37l41 16v482h-186v-362l-7 -1q-10 -2 -20 -3t-20 -1zM275 768q-58 0 -94 -31.5t-36 -85.5t37 -85q36 -31 93 -31t92.5 31.5t35.5 84.5t-35.5 85t-92.5 32zM248 626q-11 10 -11 25
q0 16 10.5 25.5t27.5 9.5q16 0 25.5 -9.5t9.5 -25.5t-9 -25q-10 -10 -26 -10q-17 0 -27 10z" />
    <glyph glyph-name="Uhungarumlaut" unicode="&#x170;" horiz-adv-x="692" 
d="M648 710h-198v-458q0 -92 -104 -92q-103 0 -103 92v458h-198v-449q0 -64 20 -115t58 -87t94.5 -55t128.5 -19q147 0 224.5 73.5t77.5 202.5v449zM619 889l-158 41l-127 -160l98 -22zM261 931l-120 -161l102 -19l173 145z" />
    <glyph glyph-name="uhungarumlaut" unicode="&#x171;" 
d="M330 158l-7 -1q-10 -2 -20 -3t-20 -1q-60 0 -60 55v312h-186v-319q0 -105 55.5 -160.5t169.5 -55.5q120 0 213 37l41 16v482h-186v-362zM363 566l187 141l-158 41l-127 -160zM192 748l-120 -161l102 -18l173 145z" />
    <glyph glyph-name="Uogonek" unicode="&#x172;" horiz-adv-x="692" 
d="M480 -134q-16 0 -19 18q-1 10 4.5 28t18 40.5t32 48t46.5 51.5q86 74 86 209v449h-198v-458q0 -92 -104 -92q-103 0 -103 92v458h-198v-449q0 -64 20 -115t58 -87t94.5 -55t128.5 -19q14 0 25 0.5t18 1.5q-36 -42 -54 -86.5t-10 -82.5q13 -64 100 -64q65 0 112 35l13 10
l-35 83l-17 -10q-10 -6 -18 -6z" />
    <glyph glyph-name="uogonek" unicode="&#x173;" horiz-adv-x="557" 
d="M516 520h-186v-362l-7 -1q-10 -2 -20 -3t-20 -1q-60 0 -60 55v312h-186v-319q0 -105 55.5 -160.5t169.5 -55.5q24 0 48 1.5t49 5.5q-83 -91 -67 -171q13 -67 107 -67q65 0 111 35l14 11l-36 85l-16 -10q-10 -6 -19 -6q-15 0 -18 18q-3 20 13 61t58 93l10 13v466z" />
    <glyph glyph-name="Wcircumflex" unicode="&#x174;" horiz-adv-x="939" 
d="M554 0h204l178 710h-199l-65 -406l-95 406h-202l-95 -398l-66 398h-210l176 -710h203l85 372zM522 754h182l-166 166h-120l-166 -166h174l50 57z" />
    <glyph glyph-name="wcircumflex" unicode="&#x175;" horiz-adv-x="775" 
d="M448 0h186l139 520h-190l-47 -258l-60 258h-173l-59 -259l-47 259h-195l140 -520h179l65 263zM435 573h179l-163 162h-114l-162 -162h164l51 56z" />
    <glyph glyph-name="Ycircumflex" unicode="&#x176;" horiz-adv-x="675" 
d="M469 710l-130 -241l-126 241h-230l255 -435v-275h198v275l256 435h-223zM341 811l46 -57h182l-166 166h-120l-166 -166h174z" />
    <glyph glyph-name="ycircumflex" unicode="&#x177;" horiz-adv-x="558" 
d="M283 183q-60 0 -60 55v282h-186v-289q0 -105 55.5 -160.5t169.5 -55.5q20 0 37 1t31 3v-39q0 -58 -56 -58q-39 0 -63 33l-14 19l-161 -79l17 -26q63 -99 223 -99q62 0 107 16.5t74.5 46.5t44 72.5t14.5 95.5v519h-186v-333q-17 -4 -47 -4zM223 735l-162 -162h164l51 56
l45 -56h179l-163 162h-114z" />
    <glyph glyph-name="Ydieresis" unicode="&#x178;" horiz-adv-x="675" 
d="M238 275v-275h198v275l256 435h-223l-130 -241l-126 241h-230zM310 837q0 32 -22.5 54.5t-54.5 22.5t-55 -22.5t-23 -54.5t23 -55t55 -23q16 0 30 6t24.5 16.5t16.5 25t6 30.5zM447 914q-32 0 -54.5 -22.5t-22.5 -54.5t22.5 -55t54.5 -23t55 23t23 55q0 16 -6 30
t-16.5 24.5t-25 16.5t-30.5 6z" />
    <glyph glyph-name="Zacute" unicode="&#x179;" horiz-adv-x="611" 
d="M289 175l290 407v128h-548v-175h286l-291 -410v-125h558v175h-295zM464 824l-100 118l-207 -121l60 -73z" />
    <glyph glyph-name="zacute" unicode="&#x17a;" horiz-adv-x="493" 
d="M253 158l210 221v141h-432v-158h194l-200 -223v-139h443v158h-215zM400 646l-106 112l-203 -123l63 -71z" />
    <glyph glyph-name="Zdotaccent" unicode="&#x17b;" horiz-adv-x="611" 
d="M584 175h-295l290 407v128h-548v-175h286l-291 -410v-125h558v175zM390 836q0 33 -23 56t-56 23t-56 -23t-23 -56t23 -56t56 -23t56 23t23 56z" />
    <glyph glyph-name="zdotaccent" unicode="&#x17c;" horiz-adv-x="493" 
d="M468 158h-215l210 221v141h-432v-158h194l-200 -223v-139h443v158zM325 657q0 33 -23 56t-56 23t-56 -23t-23 -56t23 -56t56 -23t56 23t23 56z" />
    <glyph glyph-name="Zcaron" unicode="&#x17d;" horiz-adv-x="611" 
d="M584 175h-295l290 407v128h-548v-175h286l-291 -410v-125h558v175zM264 920h-176l165 -166h118l162 166h-170l-48 -56z" />
    <glyph glyph-name="zcaron" unicode="&#x17e;" horiz-adv-x="493" 
d="M253 158l210 221v141h-432v-158h194l-200 -223v-139h443v158h-215zM205 720h-162l150 -154h107l149 154h-154l-45 -52z" />
    <glyph glyph-name="longs" unicode="&#x17f;" horiz-adv-x="333" 
d="M379 740h-40q-128 0 -191 -52.5t-63 -164.5v-3h-71v-152h71v-368h186v520q0 68 68 68h40v152z" />
    <glyph glyph-name="florin" unicode="&#x192;" horiz-adv-x="482" 
d="M447 424h-114l8 75q5 42 23.5 59.5t63.5 17.5h39v164h-39q-126 0 -193 -61t-79 -175l-9 -80h-120v-164h103l-24 -239q-5 -40 -23.5 -58.5t-63.5 -18.5h-39v-164h39q126 0 193 61t79 175l26 244h130v164z" />
    <glyph glyph-name="Aringacute" unicode="&#x1fa;" horiz-adv-x="687" 
d="M488 721q0 60 -39.5 95.5t-103.5 35.5q-66 0 -106 -35t-40 -96q0 -46 35 -75l-246 -646h208l35 114h218l35 -114h215l-245 646q34 28 34 75zM492 914l-89 87l-197 -88l56 -56zM340 472l63 -201h-125zM302 723q0 19 12 30t32 11q13 0 22.5 -7.5t14 -18t2.5 -23t-11 -21.5
q-10 -12 -28 -12q-20 0 -32 11.5t-12 29.5z" />
    <glyph glyph-name="aringacute" unicode="&#x1fb;" horiz-adv-x="529" 
d="M174 340l14 19q25 34 65 34q56 0 56 -51v-25q-5 0 -20.5 0.5t-24.5 0.5q-66 0 -112 -8t-75.5 -27.5t-42.5 -51.5t-13 -80q0 -44 11.5 -75.5t39.5 -51.5t73.5 -29.5t113.5 -9.5q133 0 198 28l38 16v290q0 103 -53.5 159.5t-179.5 56.5q-168 0 -222 -104l-15 -29zM134 671
q0 -52 35 -82t92 -30q55 0 89 30t34 82t-34 83t-89 31q-57 0 -92 -30.5t-35 -83.5zM180 791l230 61l-100 83l-189 -92zM254 112q-29 0 -40 10.5t-11 29.5q0 40 53 40h33t20 -1v-75l-5 -1q-15 -3 -50 -3zM285 647q-9 -9 -24 -9q-17 0 -27 9t-10 24q0 16 10 25.5t27 9.5
q14 0 23.5 -9.5t9.5 -25.5q0 -15 -9 -24z" />
    <glyph glyph-name="AEacute" unicode="&#x1fc;" horiz-adv-x="905" 
d="M634 271h185v175h-185v89h238v175h-436l-464 -710h212l66 105h200v-105h430v175h-246v96zM695 937l-207 -119l62 -72l246 76zM347 256l103 163v-163h-103z" />
    <glyph glyph-name="aeacute" unicode="&#x1fd;" horiz-adv-x="781" 
d="M401 12q51 -27 116 -27q159 0 215 98l16 28l-145 71l-14 -19q-27 -38 -70 -38q-57 0 -57 60v24h297v107q0 48 -14.5 88.5t-44.5 69.5t-75.5 45t-106.5 16q-79 0 -135 -38q-53 38 -132 38q-157 0 -210 -104l-15 -29l151 -60l10 15q24 36 56 36q27 0 37.5 -11t10.5 -34v-31
q-4 0 -17.5 0.5t-21.5 0.5q-129 0 -179 -35q-51 -36 -51 -132q0 -44 9 -75t33.5 -50.5t69 -29.5t114.5 -11q89 0 153 27zM430 759l-203 -123l63 -71l246 82zM518 403q29 0 41.5 -14.5t12.5 -45.5v-13h-109v13q0 60 55 60zM247 192h28.5t16.5 -1v-75l-47 -4q-25 0 -33 9.5
t-8 30.5q0 20 9 30t34 10z" />
    <glyph glyph-name="Oslashacute" unicode="&#x1fe;" horiz-adv-x="682" 
d="M188 12q63 -27 153 -27q148 1 227.5 74.5t79.5 205.5v180q0 112 -57 181l84 127h-140l-38 -57q-67 29 -156 29q-148 0 -228 -74t-80 -206v-180q0 -113 60 -185l-79 -122h139zM394 951l-207 -121l60 -73l247 76zM231 454q0 48 28 72t82 24q35 0 59 -12l-167 -256
q-1 9 -1.5 15.5t-0.5 10.5v146zM449 422q1 -5 1 -24v-142q0 -48 -28.5 -72t-80.5 -24q-30 0 -56 10z" />
    <glyph glyph-name="oslashacute" unicode="&#x1ff;" horiz-adv-x="552" 
d="M166 1q48 -16 110 -16q121 0 184.5 57t63.5 162v112q0 101 -60 158l49 78h-100l-22 -35q-49 18 -115 18q-121 0 -184.5 -58t-63.5 -161v-112q0 -104 64 -161l-51 -78h101zM183 564l245 85l-101 109l-204 -121zM276 399q26 0 41 -12l-103 -162v120q0 54 62 54zM338 293
q0 -3 0.5 -8t0.5 -8v-102q0 -53 -63 -53q-27 0 -40 10z" />
    <glyph glyph-name="uni0218" unicode="&#x218;" horiz-adv-x="647" 
d="M319 154q-86 0 -113 53l-14 28l-177 -64l11 -31q57 -155 291 -155q54 0 109 12t100 39t73 70.5t28 106.5q-3 66 -24 108t-56 67.5t-82.5 38t-103.5 19.5q-67 8 -99 20t-32 41q0 52 95 52q76 0 101 -52l14 -28l179 76l-15 30q-35 72 -101.5 106t-177.5 34q-70 0 -125 -16
t-93.5 -45.5t-58.5 -70.5t-20 -92q1 -69 24.5 -110.5t62 -66t89 -35.5t105.5 -19q60 -8 88.5 -20t28.5 -39q0 -57 -107 -57zM257 -48l-24 -212h128l74 212h-178z" />
    <glyph glyph-name="uni0219" unicode="&#x219;" horiz-adv-x="518" 
d="M196 355q0 15 13.5 21t49.5 6q50 0 72 -28l18 -22l148 65l-17 31q-59 107 -231 107q-109 0 -166 -46t-57 -125q0 -82 52.5 -117t155.5 -42q29 -2 47.5 -4.5t29 -6.5t14.5 -10.5t4 -15.5q0 -17 -16.5 -24t-55.5 -7q-55 0 -75 32l-12 20l-155 -56l11 -29q47 -119 238 -119
q114 0 174.5 47.5t60.5 129.5q0 39 -12 67.5t-38.5 47t-68.5 29.5t-102 16q-49 4 -65.5 10.5t-16.5 22.5zM294 -221l70 182h-178l-18 -182h126z" />
    <glyph glyph-name="uni021A" unicode="&#x21a;" horiz-adv-x="603" 
d="M401 535h191v175h-580v-175h191v-535h198v535zM216 -48l-27 -212h135l81 212h-189z" />
    <glyph glyph-name="uni021B" unicode="&#x21b;" horiz-adv-x="402" 
d="M275 520v120h-187v-120h-81v-152h81v-160q0 -67 17 -110t49.5 -67.5t80 -34t108.5 -9.5h39v164h-39q-38 0 -53 15t-15 55v147h107v152h-107zM248 -260l77 212h-179l-24 -212h126z" />
    <glyph glyph-name="uni0237" unicode="&#x237;" horiz-adv-x="271" 
d="M-66 -66v-164h40q129 0 191.5 53t62.5 167v530h-186v-518q0 -68 -68 -68h-40z" />
    <glyph glyph-name="circumflex" unicode="&#x2c6;" horiz-adv-x="401" 
d="M140 737l-162 -162h164l51 56l45 -56h179l-163 162h-114z" />
    <glyph glyph-name="caron" unicode="&#x2c7;" horiz-adv-x="419" 
d="M-12 739l163 -162h114l162 162h-164l-51 -56l-45 56h-179z" />
    <glyph glyph-name="breve" unicode="&#x2d8;" horiz-adv-x="287" 
d="M315 680l10 25l-120 45l-13 -22q-19 -33 -54 -33q-37 0 -55 33l-12 22l-119 -45l10 -25q40 -106 176 -106q137 0 177 106z" />
    <glyph glyph-name="dotaccent" unicode="&#x2d9;" horiz-adv-x="220" 
d="M110 736q-33 0 -56 -23t-23 -56t23 -56t56 -23t56 23t23 56t-23 56t-56 23z" />
    <glyph glyph-name="ring" unicode="&#x2da;" horiz-adv-x="240" 
d="M214 744q-36 32 -93 32q-58 0 -94 -31.5t-36 -86.5q0 -54 36 -84.5t94 -30.5q57 0 92.5 31t35.5 84t-35 86zM147 633q-10 -9 -26 -9q-17 0 -27.5 9.5t-10.5 24.5q0 16 10.5 26t27.5 10q16 0 25.5 -10t9.5 -26t-9 -25z" />
    <glyph glyph-name="ogonek" unicode="&#x2db;" horiz-adv-x="252" 
d="M209 -118l-17 -10q-10 -6 -18 -6q-16 0 -19 18q-7 48 59 120l-123 -3q-95 -96 -78 -180q13 -67 106 -67q66 0 112 35l13 10z" />
    <glyph glyph-name="tilde" unicode="&#x2dc;" horiz-adv-x="305" 
d="M224 712q0 -22 -15 -22q-10 0 -51 21q-42 20 -85 20q-47 0 -71 -27.5t-24 -95.5v-23h103v20q0 22 15 22q11 0 51 -21q41 -21 82 -21q49 0 73.5 28t24.5 95v23h-103v-19z" />
    <glyph glyph-name="hungarumlaut" unicode="&#x2dd;" horiz-adv-x="395" 
d="M313 747l-127 -160l98 -22l187 141zM-7 587l102 -19l173 145l-155 35z" />
    <glyph glyph-name="uni0326" unicode="&#x326;" horiz-adv-x="0" 
d="M68 -48l-24 -212h126l77 212h-179z" />
    <glyph glyph-name="pi" unicode="&#x3c0;" horiz-adv-x="679" 
d="M441 19l15 -35l178 73l-19 39q-16 32 -16 81v181h59v162h-485q-85 0 -155 -29l-34 -14l65 -146l36 15q26 11 42 12v-358h186v358h100v-192q0 -84 28 -147z" />
    <glyph glyph-name="uni0401" unicode="&#x401;" horiz-adv-x="588" 
d="M502 271v175h-254v89h307v175h-505v-710h513v175h-315v96h254zM192 906q-33 0 -55.5 -23t-22.5 -55t22.5 -55t55.5 -23q32 0 55 23t23 55t-23 55t-55 23zM405 906q-32 0 -55 -23t-23 -55t23 -55t55 -23t55 23t23 55t-23 55t-55 23z" />
    <glyph glyph-name="uni0410" unicode="&#x410;" horiz-adv-x="688" 
d="M700 0l-258 710h-193l-258 -710h207l35 114h218l35 -114h214zM404 271h-123l61 201z" />
    <glyph glyph-name="uni0411" unicode="&#x411;" horiz-adv-x="641" 
d="M624 229q0 54 -16.5 96.5t-47 72t-73.5 45.5t-96 16h-143v89h328v163h-526v-711h341q53 0 96 16t73.5 46t47 72.5t16.5 94.5zM248 163v133h101q73 0 73 -66q0 -67 -73 -67h-101z" />
    <glyph glyph-name="uni0412" unicode="&#x412;" horiz-adv-x="658" 
d="M535 374q72 50 72 147q0 91 -58 140.5t-163 49.5h-336v-711h340q54 0 99.5 13.5t78 39t50.5 62t18 83.5q0 128 -101 172v4zM364 279q64 0 64 -58q0 -59 -64 -59h-116v117h116zM345 550q61 0 61 -56q0 -54 -61 -54h-97v110h97z" />
    <glyph glyph-name="uni0413" unicode="&#x413;" horiz-adv-x="531" 
d="M50 710v-710h198v535h272v175h-470z" />
    <glyph glyph-name="uni0414" unicode="&#x414;" horiz-adv-x="789" 
d="M161 710v-270q0 -57 -5 -98.5t-14.5 -73t-24.5 -53.5t-36 -40h-64v-328h195v153h366v-153h195v328h-90v535h-522zM355 535h130v-360h-177q47 100 47 266v94z" />
    <glyph glyph-name="uni0415" unicode="&#x415;" horiz-adv-x="588" 
d="M502 271v175h-254v89h307v175h-505v-710h513v175h-315v96h254z" />
    <glyph glyph-name="uni0416" unicode="&#x416;" horiz-adv-x="978" 
d="M216 0l101 226q12 26 25 36t40 10h8v-272h198v272h8q28 0 40.5 -10t24.5 -36l101 -226h229l-151 299q-22 43 -45 67l184 344h-224l-137 -265q-4 1 -9.5 1h-12.5h-8v264h-198v-264h-8h-12t-10 -1l-137 265h-224l184 -344q-23 -24 -45 -67l-151 -299h229z" />
    <glyph glyph-name="uni0417" unicode="&#x417;" horiz-adv-x="649" 
d="M232 275h122q62 0 62 -59q0 -31 -20 -45t-71 -14q-99 0 -125 65l-16 41l-178 -64l15 -39q66 -175 320 -175q283 0 283 217q0 60 -22 101.5t-80 68.5q78 44 78 145q0 208 -260 208q-251 0 -316 -174l-10 -28l178 -63l11 28q26 65 118 65q78 0 78 -55q0 -29 -15 -42
t-46 -13h-106v-168z" />
    <glyph glyph-name="uni0418" unicode="&#x418;" horiz-adv-x="705" 
d="M656 0v710h-190l-224 -349v349h-186v-710h183l230 355v-355h187z" />
    <glyph glyph-name="uni0419" unicode="&#x419;" horiz-adv-x="705" 
d="M656 710h-190l-224 -349v349h-186v-710h183l230 355v-355h187v710zM434 932l-15 -23q-22 -34 -62 -34q-41 0 -62 34l-14 23l-135 -47l11 -26q46 -112 200 -112q156 0 202 112l11 27z" />
    <glyph glyph-name="uni041A" unicode="&#x41a;" horiz-adv-x="655" 
d="M333 223l108 -223h229q-45 86 -81 155q-15 29 -30 57t-26.5 50t-19 35.5t-8.5 14.5q-11 21 -25 37t-29 27l210 334h-223l-168 -264h-22v264h-198v-710h198v271h18q26 0 40 -11t27 -37z" />
    <glyph glyph-name="uni041B" unicode="&#x41b;" horiz-adv-x="698" 
d="M330 441v94h120v-535h198v710h-513v-270q0 -40 -2.5 -78t-13 -72.5t-32 -64t-58.5 -51.5l-42 -24l98 -175l39 19q67 34 107.5 82t62.5 106t29 124t7 135z" />
    <glyph glyph-name="uni041C" unicode="&#x41c;" horiz-adv-x="825" 
d="M581 350v-350h194v711h-183l-181 -355l-181 355h-180v-711h188v340l105 -201h134z" />
    <glyph glyph-name="uni041D" unicode="&#x41d;" horiz-adv-x="690" 
d="M442 0h198v711h-198v-264h-194v264h-198v-711h198v272h194v-272z" />
    <glyph glyph-name="uni041E" unicode="&#x41e;" horiz-adv-x="682" 
d="M648 445q0 132 -80 206t-227 74q-148 0 -228 -74t-80 -206v-180q0 -132 80 -206t228 -74q147 0 227 74t80 206v180zM450 256q0 -48 -28.5 -72t-80.5 -24q-54 0 -82 24t-28 72v198q0 48 28 72t82 24q52 0 80.5 -24t28.5 -72v-198z" />
    <glyph glyph-name="uni041F" unicode="&#x41f;" horiz-adv-x="685" 
d="M50 710v-710h198v535h189v-535h198v710h-585z" />
    <glyph glyph-name="uni0420" unicode="&#x420;" horiz-adv-x="647" 
d="M50 710v-710h198v213h123q59 0 106.5 16.5t80.5 48.5t51 78t18 104q0 59 -18 105.5t-52 78.5t-81.5 49t-106.5 17h-319zM347 535h8q33 0 49.5 -23t16.5 -50.5t-16 -50.5t-49 -23h-9h-99v147h99z" />
    <glyph glyph-name="uni0421" unicode="&#x421;" horiz-adv-x="651" 
d="M341 550q78 0 104 -65q1 -2 3.5 -8t5.5 -13q3 -9 7 -19l187 66l-15 40q-66 174 -292 174q-148 0 -228 -74t-80 -206v-180q0 -132 80 -206t228 -74q226 0 292 175l15 39l-188 67l-15 -41q-24 -65 -104 -65q-58 0 -84 25t-26 79v182q0 54 26 79t84 25z" />
    <glyph glyph-name="uni0422" unicode="&#x422;" horiz-adv-x="603" 
d="M592 710h-580v-175h191v-535h198v535h191v175z" />
    <glyph glyph-name="uni0423" unicode="&#x423;" horiz-adv-x="628" 
d="M206 708h-222l230 -497l-92 -213h220l297 710h-212l-109 -255z" />
    <glyph glyph-name="uni0424" unicode="&#x424;" horiz-adv-x="862" 
d="M302 650q-140 0 -213 -69t-73 -197v-54q0 -127 73 -196t213 -69h30v-86h198v86h30q139 0 212.5 69t73.5 196v54q0 128 -73 197t-213 69h-30v85h-198v-85h-30zM332 480v-245h-21q-93 0 -93 88v69q0 88 93 88h21zM530 480h21q93 0 93 -88v-69q0 -88 -93 -88h-21v245z" />
    <glyph glyph-name="uni0425" unicode="&#x425;" horiz-adv-x="664" 
d="M444 362l225 348h-228l-112 -172l-113 172h-225l223 -349l-234 -361h230l118 183l117 -183h236z" />
    <glyph glyph-name="uni0426" unicode="&#x426;" horiz-adv-x="732" 
d="M632 175v535h-198v-535h-186v535h-198v-710h478v-154h188v329h-84z" />
    <glyph glyph-name="uni0427" unicode="&#x427;" horiz-adv-x="658" 
d="M409 237v-237h198v710h-198v-287q-28 -7 -72 -7q-111 0 -111 92v202h-198v-202q0 -139 67 -208.5t212 -69.5q28 0 53.5 1.5t48.5 5.5z" />
    <glyph glyph-name="uni0428" unicode="&#x428;" horiz-adv-x="950" 
d="M702 710v-535h-128v535h-198v-535h-128v535h-198v-710h850v710h-198z" />
    <glyph glyph-name="uni0429" unicode="&#x429;" horiz-adv-x="1000" 
d="M900 710h-198v-535h-128v535h-198v-535h-128v535h-198v-710h745v-154h188v329h-83v535z" />
    <glyph glyph-name="uni042A" unicode="&#x42a;" horiz-adv-x="781" 
d="M12 710v-175h173v-535h319q59 0 106.5 17t81 49t51.5 78.5t18 105.5t-18 104.5t-51 77.5t-80.5 48.5t-106.5 16.5h-122v213h-371zM383 175v147h98q35 0 55 -20t20 -53q0 -34 -20 -54t-55 -20h-98z" />
    <glyph glyph-name="uni042B" unicode="&#x42b;" horiz-adv-x="939" 
d="M369 0q59 0 106.5 17t81.5 49t52 78.5t18 105.5t-18 104.5t-51 77.5t-80.5 48.5t-106.5 16.5h-123v213h-198v-710h319zM690 710v-710h198v710h-198zM248 175v147h99h9q33 0 49 -23t16 -50.5t-16.5 -50.5t-49.5 -23h-8h-99z" />
    <glyph glyph-name="uni042C" unicode="&#x42c;" horiz-adv-x="647" 
d="M369 0q59 0 106.5 17t81.5 49t52 78.5t18 105.5t-18 104.5t-51 77.5t-80.5 48.5t-106.5 16.5h-123v213h-198v-710h319zM248 322h99h9q33 0 49 -23t16 -50.5t-16.5 -50.5t-49.5 -23h-8h-99v147z" />
    <glyph glyph-name="uni042D" unicode="&#x42d;" horiz-adv-x="655" 
d="M424 253q0 -96 -110 -96q-87 0 -113 65q-1 2 -3 7t-4 11q-3 7 -6 15l-178 -63l12 -33q68 -174 292 -174q148 0 228 74t80 206v180q0 132 -80 206t-228 74q-226 0 -292 -175l-10 -27l178 -63l11 28q27 65 113 65q110 0 110 -92v-17h-199v-170h199v-21z" />
    <glyph glyph-name="uni042E" unicode="&#x42e;" horiz-adv-x="969" 
d="M935 445q0 132 -77.5 206t-222.5 74q-69 0 -124.5 -17.5t-93.5 -51t-58.5 -81.5t-20.5 -108v-20h-90v263h-198v-710h198v272h89v-22q0 -61 20.5 -110.5t59 -83.5t94 -52.5t124.5 -18.5q145 0 222.5 74t77.5 206v180zM535 455q0 46 26 70.5t74 24.5q102 0 102 -95v-200
q0 -95 -102 -95q-48 0 -74 24.5t-26 70.5v200z" />
    <glyph glyph-name="uni042F" unicode="&#x42f;" horiz-adv-x="660" 
d="M412 0h198v710h-328q-115 0 -182 -63t-67 -178q0 -144 105 -204q1 -1 1.5 -1t1.5 -1q-10 -12 -19 -28l-124 -235h230l86 185q14 27 30 39t45 12h23v-236zM304 403q-31 0 -48.5 18t-17.5 49q0 30 17 47.5t49 17.5h108v-132h-108z" />
    <glyph glyph-name="uni0430" unicode="&#x430;" horiz-adv-x="529" 
d="M262 535q-168 0 -222 -104l-15 -29l149 -62l14 19q25 34 65 34q56 0 56 -51v-25q-5 0 -20.5 0.5t-24.5 0.5q-66 0 -112 -8t-75.5 -27.5t-42.5 -51.5t-13 -80q0 -44 11.5 -75.5t39.5 -51.5t73.5 -29.5t113.5 -9.5q133 0 198 28l38 16v290q0 103 -53.5 159.5t-179.5 56.5z
M304 115q-15 -3 -50 -3q-29 0 -40 10.5t-11 29.5q0 40 53 40h33t20 -1v-75z" />
    <glyph glyph-name="uni0431" unicode="&#x431;" horiz-adv-x="560" 
d="M311 505q-56 0 -93 -28v9q0 45 27 65t87 20h41q83 0 115 16l38 18l-54 153l-39 -17q-28 -12 -72 -12h-32q-86 0 -142.5 -21.5t-90 -63.5t-47 -104t-13.5 -143v-193q0 -103 63.5 -161t184.5 -58t185 57t64 162v82q0 51 -15.5 91.5t-44.5 69t-70 43.5t-92 15zM222 291
q0 54 62 54q63 0 63 -54v-92q0 -53 -63 -53q-62 0 -62 53v92z" />
    <glyph glyph-name="uni0432" unicode="&#x432;" horiz-adv-x="541" 
d="M41 520v-520h306q81 0 127 40t46 110q0 81 -62 122q41 36 41 100q0 69 -44 108.5t-123 39.5h-291zM289 204q43 0 43 -39q0 -19 -11 -30.5t-32 -11.5h-66v81h66zM281 396q38 0 38 -36t-38 -36h-58v72h58z" />
    <glyph glyph-name="uni0433" unicode="&#x433;" horiz-adv-x="438" 
d="M41 520v-520h186v356h200v164h-386z" />
    <glyph glyph-name="uni0434" unicode="&#x434;" horiz-adv-x="648" 
d="M119 520v-206q0 -119 -46 -162h-53v-291h182v128h249v-128h182v291h-72v368h-442zM294 356h80v-204h-104q24 65 24 162v42z" />
    <glyph glyph-name="uni0435" unicode="&#x435;" horiz-adv-x="549" 
d="M358 162q-28 -37 -80 -37q-65 0 -65 65v19h315v107q0 48 -16 88t-47.5 69.5t-78.5 45.5t-109 16q-123 0 -186.5 -59.5t-63.5 -171.5v-88q0 -52 15 -95t45.5 -73t77.5 -46.5t111 -16.5q169 0 226 99l18 31l-148 64zM213 343q0 60 64 60t64 -60v-13h-128v13z" />
    <glyph glyph-name="uni0436" unicode="&#x436;" horiz-adv-x="792" 
d="M128 269q-11 -12 -24 -37l-105 -232h207l51 158q10 28 38 29q1 1 8 1v-188h186v188q34 0 46 -30l51 -158h207l-105 232q-11 24 -24 37l122 251h-199l-83 -180h-15v180h-186v-180h-15l-82 180h-201z" />
    <glyph glyph-name="uni0437" unicode="&#x437;" horiz-adv-x="524" 
d="M279 326h-88v-129h91q40 0 40 -31q0 -19 -13 -28t-49 -9q-70 0 -93 50l-11 26l-154 -47l14 -35q57 -138 258 -138q62 0 105 11t70 31.5t39 50.5t12 67q0 89 -66 120v6q54 24 54 103q0 161 -221 161q-100 0 -160 -37.5t-82 -100.5l-12 -33l149 -47l11 25q21 49 95 49
q29 0 39.5 -8.5t10.5 -26.5q0 -30 -39 -30z" />
    <glyph glyph-name="uni0438" unicode="&#x438;" horiz-adv-x="564" 
d="M523 0v520h-174l-121 -223v223h-187v-520h175l121 220v-220h186z" />
    <glyph glyph-name="uni0439" unicode="&#x439;" horiz-adv-x="564" 
d="M337 220v-220h186v520h-174l-121 -223v223h-187v-520h175zM356 750l-13 -22q-19 -33 -54 -33q-37 0 -55 33l-12 22l-119 -45l10 -25q40 -106 176 -106q137 0 177 106l10 25z" />
    <glyph glyph-name="uni043A" unicode="&#x43a;" horiz-adv-x="552" 
d="M291 158l61 -158h206l-114 232q-17 33 -32 45l142 243h-201l-104 -180h-22v180h-186v-520h186v188h21q31 0 43 -30z" />
    <glyph glyph-name="uni043B" unicode="&#x43b;" horiz-adv-x="563" 
d="M263 320v36h72v-356h187v520h-431v-167q0 -75 -12 -120.5t-24 -59.5q-11 -13 -35 -27l-32 -18l86 -153l34 16q51 24 81.5 59t47 77.5t21.5 91.5t5 101z" />
    <glyph glyph-name="uni043C" unicode="&#x43c;" horiz-adv-x="663" 
d="M622 520h-169l-122 -230l-122 230h-168v-520h167v226l67 -127h111l68 128v-227h168v520z" />
    <glyph glyph-name="uni043D" unicode="&#x43d;" horiz-adv-x="558" 
d="M331 0h186v520h-186v-174h-104v174h-186v-520h186v182h104v-182z" />
    <glyph glyph-name="uni043E" unicode="&#x43e;" horiz-adv-x="552" 
d="M524 316q0 105 -63.5 162t-184.5 57t-184.5 -58t-63.5 -161v-112q0 -103 63.5 -161t184.5 -58t184.5 57t63.5 162v112zM339 199q0 -53 -63 -53q-62 0 -62 53v122q0 54 62 54q63 0 63 -54v-122z" />
    <glyph glyph-name="uni043F" unicode="&#x43f;" horiz-adv-x="554" 
d="M41 520v-520h186v356h100v-356h186v520h-472z" />
    <glyph glyph-name="uni0440" unicode="&#x440;" horiz-adv-x="548" 
d="M520 319q0 105 -57 160.5t-172 55.5q-125 0 -209 -34l-42 -17v-703h187v209q23 -2 38 -3.5t22 -1.5q115 0 174 57t59 169v108zM277 373q57 0 57 -49v-123q0 -55 -62 -55q-20 0 -45 5v216l5 1q18 5 45 5z" />
    <glyph glyph-name="uni0441" unicode="&#x441;" horiz-adv-x="522" 
d="M501 396q-22 63 -78.5 101t-146.5 38q-126 0 -187 -57.5t-61 -162.5v-109q0 -106 58 -163.5t179 -57.5q181 0 238 138l14 33l-180 55l-11 -29q-17 -41 -59 -41q-53 0 -53 54v130q0 54 53 54q42 0 59 -41l13 -33l174 58z" />
    <glyph glyph-name="uni0442" unicode="&#x442;" horiz-adv-x="496" 
d="M12 520v-164h143v-356h186v356h143v164h-472z" />
    <glyph glyph-name="uni0443" unicode="&#x443;" horiz-adv-x="558" 
d="M330 520v-333q-17 -4 -47 -4q-60 0 -60 55v282h-186v-289q0 -105 55.5 -160.5t169.5 -55.5q20 0 37 1t31 3v-39q0 -58 -56 -58q-39 0 -63 33l-14 19l-161 -79l17 -26q63 -99 223 -99q62 0 107 16.5t74.5 46.5t44 72.5t14.5 95.5v519h-186z" />
    <glyph glyph-name="uni0444" unicode="&#x444;" horiz-adv-x="761" 
d="M262 535q-235 0 -235 -239v-73q0 -238 235 -238h14.5t10.5 1v-206h187v206q4 -1 10.5 -1h14.5q235 0 235 238v73q0 239 -235 239h-14.5t-10.5 -1v206h-187v-206q-4 1 -10.5 1h-14.5zM491 373q58 0 58 -66v-94q0 -67 -58 -67q-4 0 -11.5 0.5t-10.5 0.5v225q5 1 22 1z
M213 307q0 66 57 66q17 0 22 -1v-225q-3 0 -10.5 -0.5t-11.5 -0.5q-57 0 -57 67v94z" />
    <glyph glyph-name="uni0445" unicode="&#x445;" horiz-adv-x="553" 
d="M363 0h207l-191 266l181 254h-203l-80 -111l-79 111h-208l183 -255l-190 -265h207l86 121z" />
    <glyph glyph-name="uni0446" unicode="&#x446;" horiz-adv-x="596" 
d="M509 164v356h-186v-356h-95v356h-187v-520h357v-139h182v303h-71z" />
    <glyph glyph-name="uni0447" unicode="&#x447;" horiz-adv-x="531" 
d="M490 520h-187v-204l-5 -2q-4 -2 -14.5 -3.5t-23.5 -1.5q-50 0 -50 48v163h-187v-179q0 -196 199 -196q24 0 44 1.5t37 3.5v-150h187v520z" />
    <glyph glyph-name="uni0448" unicode="&#x448;" horiz-adv-x="788" 
d="M561 520v-356h-74v356h-186v-356h-74v356h-186v-520h706v520h-186z" />
    <glyph glyph-name="uni0449" unicode="&#x449;" horiz-adv-x="834" 
d="M747 520h-186v-356h-74v356h-186v-356h-74v356h-186v-520h595v-139h182v303h-71v356z" />
    <glyph glyph-name="uni044A" unicode="&#x44a;" horiz-adv-x="627" 
d="M12 520v-158h127v-362h270q96 0 148.5 49t52.5 143q0 93 -52.5 143t-148.5 50h-84v135h-313zM424 192q0 -45 -47 -45h-52v89h52q47 0 47 -44z" />
    <glyph glyph-name="uni044B" unicode="&#x44b;" horiz-adv-x="763" 
d="M311 0q97 0 149.5 49t52.5 143q0 93 -53 143t-149 50h-84v135h-186v-520h270zM535 0h186v520h-186v-520zM326 192q0 -45 -47 -45h-52v89h52q47 0 47 -44z" />
    <glyph glyph-name="uni044C" unicode="&#x44c;" horiz-adv-x="529" 
d="M311 0q97 0 149.5 49t52.5 143q0 93 -53 143t-149 50h-84v135h-186v-520h270zM326 192q0 -45 -47 -45h-52v89h52q47 0 47 -44z" />
    <glyph glyph-name="uni044D" unicode="&#x44d;" horiz-adv-x="523" 
d="M313 328h-122v-132h25l97 -1v-8q0 -57 -65 -57q-18 2 -30 6t-20 10t-14 14t-11 18l-15 28l-155 -47l16 -36q59 -138 239 -138q121 0 179 57.5t58 163.5v109q0 105 -61 162.5t-186 57.5q-91 0 -149.5 -37.5t-79.5 -100.5l-11 -32l153 -48l12 24q12 24 27.5 37t46.5 13
q66 0 66 -56v-7z" />
    <glyph glyph-name="uni044E" unicode="&#x44e;" horiz-adv-x="789" 
d="M761 316q0 105 -62.5 162t-183.5 57q-109 0 -170 -47t-72 -137v-5h-46v174h-186v-520h186v182h45l1 -8q8 -93 69 -141t173 -48q121 0 183.5 57t62.5 162v112zM515 375q60 0 60 -54v-122q0 -53 -60 -53t-60 53v122q0 54 60 54z" />
    <glyph glyph-name="uni044F" unicode="&#x44f;" horiz-adv-x="548" 
d="M319 0h187v520h-285q-88 0 -139 -47.5t-51 -135.5q0 -105 73 -151l-108 -186h213l68 154h42v-154zM257 299q-18 0 -28 10.5t-10 27.5q0 18 10 28.5t28 10.5h62v-77h-62z" />
    <glyph glyph-name="uni0451" unicode="&#x451;" horiz-adv-x="549" 
d="M528 316q0 48 -16 88t-47.5 69.5t-78.5 45.5t-109 16q-123 0 -186.5 -59.5t-63.5 -171.5v-88q0 -52 15 -95t45.5 -73t77.5 -46.5t111 -16.5q169 0 226 99l18 31l-148 64l-14 -17q-28 -37 -80 -37q-65 0 -65 65v19h315v107zM384 577q32 0 55 23t23 55t-23 55t-55 23
t-55 -23t-23 -55t23 -55t55 -23zM92 655q0 -32 23 -55t55 -23t55 23t23 55t-23 55t-55 23t-55 -23t-23 -55zM213 343q0 60 64 60t64 -60v-13h-128v13z" />
    <glyph glyph-name="Wgrave" unicode="&#x1e80;" horiz-adv-x="939" 
d="M554 0h204l178 710h-199l-65 -406l-95 406h-202l-95 -398l-66 398h-210l176 -710h203l85 372zM328 823l248 -76l58 74l-205 121z" />
    <glyph glyph-name="wgrave" unicode="&#x1e81;" horiz-adv-x="775" 
d="M303 520l-59 -259l-47 259h-195l140 -520h179l65 263l62 -263h186l139 520h-190l-47 -258l-60 258h-173zM487 564l63 71l-203 123l-106 -112z" />
    <glyph glyph-name="Wacute" unicode="&#x1e82;" horiz-adv-x="939" 
d="M672 304l-95 406h-202l-95 -398l-66 398h-210l176 -710h203l85 372l86 -372h204l178 710h-199zM529 942l-205 -121l59 -74l247 76z" />
    <glyph glyph-name="wacute" unicode="&#x1e83;" horiz-adv-x="775" 
d="M303 520l-59 -259l-47 259h-195l140 -520h179l65 263l62 -263h186l139 520h-190l-47 -258l-60 258h-173zM543 646l-106 112l-203 -123l63 -71z" />
    <glyph glyph-name="Wdieresis" unicode="&#x1e84;" horiz-adv-x="939" 
d="M383 0l85 372l86 -372h204l178 710h-199l-65 -406l-95 406h-202l-95 -398l-66 398h-210l176 -710h203zM582 759q32 0 55 23t23 55t-23 55t-55 23t-55 -23t-23 -55t23 -55t55 -23zM290 837q0 -32 23 -55t55 -23t55 23t23 55t-23 55t-55 23t-55 -23t-23 -55z" />
    <glyph glyph-name="wdieresis" unicode="&#x1e85;" horiz-adv-x="775" 
d="M321 0l65 263l62 -263h186l139 520h-190l-47 -258l-60 258h-173l-59 -259l-47 259h-195l140 -520h179zM497 577q32 0 55 23t23 55t-23 55t-55 23t-55 -23t-23 -55t23 -55t55 -23zM205 655q0 -32 23 -55t55 -23t55 23t23 55t-23 55t-55 23t-55 -23t-23 -55z" />
    <glyph glyph-name="Ygrave" unicode="&#x1ef2;" horiz-adv-x="675" 
d="M436 275l256 435h-223l-130 -241l-126 241h-230l255 -435v-275h198v275zM437 747l59 74l-206 121l-100 -119z" />
    <glyph glyph-name="ygrave" unicode="&#x1ef3;" horiz-adv-x="558" 
d="M223 238v282h-186v-289q0 -105 55.5 -160.5t169.5 -55.5q20 0 37 1t31 3v-39q0 -58 -56 -58q-39 0 -63 33l-14 19l-161 -79l17 -26q63 -99 223 -99q62 0 107 16.5t74.5 46.5t44 72.5t14.5 95.5v519h-186v-333q-17 -4 -47 -4q-60 0 -60 55zM436 635l-203 123l-106 -112
l246 -82z" />
    <glyph glyph-name="endash" unicode="&#x2013;" horiz-adv-x="568" 
d="M524 348h-480v-169h480v169z" />
    <glyph glyph-name="emdash" unicode="&#x2014;" horiz-adv-x="779" 
d="M44 352v-171h691v171h-691z" />
    <glyph glyph-name="quoteleft" unicode="&#x2018;" horiz-adv-x="262" 
d="M110 710l-104 -308h194l38 308h-128z" />
    <glyph glyph-name="quoteright" unicode="&#x2019;" horiz-adv-x="258" 
d="M29 403h127l104 308h-193z" />
    <glyph glyph-name="quotesinglbase" unicode="&#x201a;" horiz-adv-x="230" 
d="M35 110v-264h138l29 264h-167z" />
    <glyph glyph-name="quotedblleft" unicode="&#x201c;" horiz-adv-x="470" 
d="M318 710l-104 -308h194l38 308h-128zM110 710l-104 -308h194l38 308h-128z" />
    <glyph glyph-name="quotedblright" unicode="&#x201d;" horiz-adv-x="466" 
d="M67 710l-38 -308h128l104 308h-194zM275 710l-38 -308h128l104 308h-194z" />
    <glyph glyph-name="quotedblbase" unicode="&#x201e;" horiz-adv-x="469" 
d="M52 186l-38 -308h128l104 308h-194zM260 186l-38 -308h127l104 308h-193z" />
    <glyph glyph-name="dagger" unicode="&#x2020;" horiz-adv-x="541" 
d="M364 356h155v175h-155v180h-187v-180h-155v-175h155v-456h187v456z" />
    <glyph glyph-name="daggerdbl" unicode="&#x2021;" horiz-adv-x="570" 
d="M533 531h-155v180h-187v-180h-154v-175h154v-102h-154v-175h154v-179h187v179h155v175h-155v102h155v175z" />
    <glyph glyph-name="bullet" unicode="&#x2022;" horiz-adv-x="396" 
d="M50 264q0 -63 42.5 -106.5t105.5 -43.5t106 44q42 43 42 106q0 64 -42 106.5t-106 42.5t-106 -42.5t-42 -106.5z" />
    <glyph glyph-name="ellipsis" unicode="&#x2026;" horiz-adv-x="799" 
d="M300 91q0 -42 28.5 -70.5t70.5 -28.5q20 0 38 7.5t31.5 21t21.5 31.5t8 39t-8 39t-21.5 31.5t-31.5 21t-38 7.5q-42 0 -70.5 -28.5t-28.5 -70.5zM32 91q0 -42 28.5 -70.5t70.5 -28.5q20 0 38 7.5t31.5 21t21.5 31.5t8 39t-8 39t-21.5 31.5t-31.5 21t-38 7.5
q-42 0 -70.5 -28.5t-28.5 -70.5zM667 190q-42 0 -70.5 -28.5t-28.5 -70.5t28.5 -70.5t70.5 -28.5q20 0 38 7.5t31.5 21t21.5 31.5t8 39t-8 39t-21.5 31.5t-31.5 21t-38 7.5z" />
    <glyph glyph-name="perthousand" unicode="&#x2030;" horiz-adv-x="1284" 
d="M616 710l-523 -710h199l522 710h-198zM1083 -15q86 0 132 41t46 114v75q0 74 -46 115.5t-132 41.5t-132 -41.5t-46 -115.5v-75q0 -73 46 -114t132 -41zM878 215q0 74 -46 115.5t-132 41.5t-132 -41.5t-46 -115.5v-75q0 -73 46 -114t132 -41t132 41t46 114v75zM381 569
q0 73 -46 114.5t-132 41.5t-132 -41.5t-46 -114.5v-76q0 -72 46 -113t132 -41t132 41t46 113v76zM160 504v56q0 36 43 36q42 0 42 -36v-56q0 -37 -42 -37q-43 0 -43 37zM743 206v-56q0 -36 -42 -36q-43 0 -43 36v56q0 36 43 36q42 0 42 -36zM1084 242q42 0 42 -36v-56
q0 -36 -42 -36q-43 0 -43 36v56q0 36 43 36z" />
    <glyph glyph-name="guilsinglleft" unicode="&#x2039;" horiz-adv-x="376" 
d="M7 262l240 -239l105 105l-138 137l139 140l-101 105z" />
    <glyph glyph-name="guilsinglright" unicode="&#x203a;" horiz-adv-x="376" 
d="M23 405l139 -140l-138 -137l106 -105l239 239l-245 248z" />
    <glyph glyph-name="fraction" unicode="&#x2044;" horiz-adv-x="264" 
d="M293 710l-523 -710h199l522 710h-198z" />
    <glyph glyph-name="uni2070" unicode="&#x2070;" horiz-adv-x="387" 
d="M360 665q0 69 -43 109t-123 40q-79 0 -123 -40t-44 -109v-113q0 -69 44 -109t123 -40q80 0 123 40t43 109v113zM222 550q0 -27 -28 -27q-29 0 -29 27v117q0 26 29 26q28 0 28 -26v-117z" />
    <glyph glyph-name="uni2074" unicode="&#x2074;" horiz-adv-x="397" 
d="M205 806l-194 -233v-93h195v-69h128v69h44v107h-44v219h-129zM206 587h-55l55 66v-66z" />
    <glyph glyph-name="uni2075" unicode="&#x2075;" horiz-adv-x="376" 
d="M198 678h-31l3 25h169v103h-285l-24 -223h158q38 0 38 -34q0 -35 -37 -35q-33 0 -48 31q0 2 -2 5.5t-4 7.5q-3 5 -6 11l-116 -46l12 -27q21 -48 60.5 -70.5t108.5 -22.5q38 0 67.5 11t50 30.5t31.5 46t11 57.5q0 60 -39 95t-117 35z" />
    <glyph glyph-name="uni2076" unicode="&#x2076;" horiz-adv-x="388" 
d="M366 726l-12 20q-41 68 -153 68q-174 0 -174 -148v-115q0 -148 169 -148q79 0 124 33.5t45 99.5q0 127 -151 127q-27 0 -50 -6v13q0 20 9.5 27t29.5 7q23 0 42 -22l10 -11zM164 552q23 6 32 6q31 0 31 -23t-31 -23q-32 0 -32 31v9z" />
    <glyph glyph-name="uni2077" unicode="&#x2077;" horiz-adv-x="343" 
d="M332 806h-318v-117h160l-131 -278h146l143 311v84z" />
    <glyph glyph-name="uni2078" unicode="&#x2078;" horiz-adv-x="395" 
d="M318 623q42 29 42 84q0 51 -42 79.5t-121 28.5q-75 0 -119 -31.5t-44 -87.5q0 -54 46 -91q-58 -36 -58 -94q0 -108 175 -108t175 124q0 61 -54 96zM161 524q0 17 29 33q43 -16 43 -34q0 -23 -34 -23q-38 0 -38 24zM206 665q-40 14 -40 30q0 21 30 21q32 0 32 -22
q0 -16 -22 -29z" />
    <glyph glyph-name="uni2079" unicode="&#x2079;" horiz-adv-x="388" 
d="M224 547q0 -20 -9.5 -27t-29.5 -7q-23 0 -42 22l-10 11l-110 -55l11 -20q41 -68 153 -68q174 0 174 148v115q0 148 -169 148q-79 0 -124 -33.5t-45 -99.5q0 -127 151 -127q28 0 50 6v-13zM224 665q-22 -6 -32 -6q-31 0 -31 23t31 23q32 0 32 -31v-9z" />
    <glyph glyph-name="uni2080" unicode="&#x2080;" horiz-adv-x="387" 
d="M360 134q0 69 -43.5 109t-122.5 40t-123 -40t-44 -109v-113q0 -69 44 -109t123 -40t122.5 40t43.5 109v113zM222 20q0 -28 -28 -28q-29 0 -29 28v116q0 26 29 26q28 0 28 -26v-116z" />
    <glyph glyph-name="uni2081" unicode="&#x2081;" horiz-adv-x="297" 
d="M-8 182l64 -107l64 36v-231h138v395h-107z" />
    <glyph glyph-name="uni2082" unicode="&#x2082;" horiz-adv-x="375" 
d="M212 8l43 12q95 29 95 136q0 58 -41.5 92.5t-114.5 34.5q-124 0 -163 -93l-14 -34l121 -44l14 28q12 23 35 23q22 0 22 -23q0 -17 -7.5 -25t-27.5 -15l-53 -19q-27 -9 -45.5 -20.5t-29.5 -27.5t-15.5 -37t-4.5 -49v-67h317v116h-152v2q0 6 21 10z" />
    <glyph glyph-name="uni2083" unicode="&#x2083;" horiz-adv-x="381" 
d="M141 24h50q31 0 31 -23q0 -20 -34 -20q-40 0 -54 27l-13 27l-109 -40l9 -28q32 -95 173 -95q81 0 122.5 30.5t41.5 87.5q0 70 -51 95q39 29 39 81q0 55 -40 86t-112 31q-133 0 -168 -96l-7 -21l102 -44l12 24q15 31 52 31q31 0 31 -21q0 -22 -31 -22h-44v-110z" />
    <glyph glyph-name="uni2084" unicode="&#x2084;" horiz-adv-x="399" 
d="M205 275l-194 -233v-93h195v-69h128v69h44v107h-44v219h-129zM206 56h-55l55 66v-66z" />
    <glyph glyph-name="uni2085" unicode="&#x2085;" horiz-adv-x="377" 
d="M198 147h-31l3 25h169v103h-285l-24 -223h158q38 0 38 -34q0 -35 -37 -35q-33 0 -48 31q0 2 -2 5.5t-4 7.5q-3 5 -6 11l-116 -46l12 -27q21 -48 60.5 -70.5t108.5 -22.5q38 0 67.5 11t50 30.5t31.5 46t11 57.5q0 60 -39 95t-117 35z" />
    <glyph glyph-name="uni2086" unicode="&#x2086;" horiz-adv-x="388" 
d="M366 195l-12 20q-41 68 -153 68q-174 0 -174 -148v-115q0 -148 169 -148q79 0 124 33.5t45 99.5q0 127 -151 127q-27 0 -50 -6v13q0 20 9.5 27t29.5 7q23 0 42 -22l10 -11zM164 21q23 6 32 6q31 0 31 -23t-31 -23q-32 0 -32 31v9z" />
    <glyph glyph-name="uni2087" unicode="&#x2087;" horiz-adv-x="343" 
d="M332 275h-318v-117h160l-131 -278h146l143 311v84z" />
    <glyph glyph-name="uni2088" unicode="&#x2088;" horiz-adv-x="395" 
d="M360 177q0 50 -42.5 79t-120.5 29q-75 0 -119 -31.5t-44 -87.5q0 -54 46 -91q-58 -36 -58 -94q0 -109 175 -109t175 125q0 59 -54 96q42 29 42 84zM161 -6q0 15 29 33q43 -16 43 -34q0 -23 -34 -23q-38 0 -38 24zM206 135q-40 14 -40 30q0 21 30 21q32 0 32 -22
q0 -16 -22 -29z" />
    <glyph glyph-name="uni2089" unicode="&#x2089;" horiz-adv-x="388" 
d="M224 16q0 -20 -9.5 -27t-29.5 -7q-23 0 -42 22l-10 11l-110 -55l11 -20q41 -68 153 -68q174 0 174 148v115q0 148 -169 148q-79 0 -124 -33.5t-45 -99.5q0 -127 151 -127q28 0 50 6v-13zM224 134q-22 -6 -32 -6q-31 0 -31 23t31 23q32 0 32 -31v-9z" />
    <glyph glyph-name="Euro" unicode="&#x20ac;" horiz-adv-x="764" 
d="M13 219h133l1 -9q15 -112 92.5 -168.5t211.5 -56.5q204 0 270 128l23 44l-180 69l-23 -26q-37 -43 -97 -43q-89 0 -96 55v7h119l34 113h-161v37h172l32 113h-198v5q0 30 28 46.5t73 16.5q22 0 37.5 -3.5t27 -9t19 -11t12.5 -9.5l21 -25l177 69l-20 35q-72 129 -270 129
q-68 0 -123.5 -16.5t-95.5 -47.5t-62.5 -75t-24.5 -98v-6h-55l-33 -113h87v-37h-98z" />
    <glyph glyph-name="uni20BD" unicode="&#x20bd;" horiz-adv-x="702" 
d="M433 241q115 0 179.5 61.5t64.5 173.5t-64.5 173t-179.5 61h-333v-504h-74v-130h74v-76h198v76h292v130h-292v35h135zM398 541q74 0 74 -65q0 -66 -72 -66h-102v131h100z" />
    <glyph glyph-name="uni2113" unicode="&#x2113;" horiz-adv-x="493" 
d="M299 732q-39 0 -73 -12t-58.5 -38t-38.5 -66.5t-14 -97.5v-212l-27 -18t-36 -23q-22 -13 -46 -28l76 -134l42 23l1 -5q13 -71 60.5 -99t122.5 -28q90 0 149 53l21 19l-99 116l-21 -18q-20 -17 -41 -17q-20 0 -32.5 12.5t-12.5 37.5v25q56 43 93.5 84.5t60.5 82t33 82
t10 84.5q0 84 -42.5 130.5t-127.5 46.5zM315 556q0 -70 -43 -122v83q0 69 26 69q17 0 17 -30z" />
    <glyph glyph-name="uni2116" unicode="&#x2116;" horiz-adv-x="1075" 
d="M650 710h-186v-349l-224 349h-190v-710h187v355l230 -355h183v710zM860 725q-87 0 -133 -41t-46 -116v-75q0 -73 46 -114t133 -41t132.5 41t45.5 114v75q0 75 -45.5 116t-132.5 41zM1039 311h-359v-148h359v148zM817 559q0 36 43 36q42 0 42 -36v-56q0 -36 -42 -36
q-43 0 -43 36v56z" />
    <glyph glyph-name="uni2117" unicode="&#x2117;" horiz-adv-x="777" 
d="M389 -9q151 0 255 104t104 255t-104 255.5t-255 104.5t-255.5 -104.5t-104.5 -255.5q0 -149 105 -254t255 -105zM142 350q0 106 71 176.5t176 70.5t175.5 -70.5t70.5 -176.5q0 -104 -71 -175.5t-175 -71.5q-105 0 -176 71.5t-71 175.5zM366 163v106h56q64 0 102 37
t38 100t-37 98t-103 35h-162v-376h106zM411 438q37 0 37 -33q0 -35 -37 -35h-45v68h45z" />
    <glyph glyph-name="trademark" unicode="&#x2122;" horiz-adv-x="629" 
d="M293 443h86v95l28 -42h61l27 45v-98h86v252h-82l-61 -105l-63 105h-82v-252zM280 695h-252v-87h77v-165h99v165h76v87z" />
    <glyph glyph-name="Omega" unicode="&#x2126;" horiz-adv-x="814" 
d="M428 141v-141h350v178h-119q110 68 110 218q0 78 -29 139t-79 103t-115.5 64t-139.5 22t-139.5 -22.5t-115 -65t-78 -103.5t-28.5 -139q0 -136 107 -216h-116v-178h349v141l-23 12q-60 31 -92.5 88t-32.5 123q0 42 12 77t33.5 60.5t53 39.5t70.5 14q41 0 72.5 -14
t53.5 -39.5t33.5 -60.5t11.5 -77q0 -66 -34.5 -121.5t-91.5 -88.5z" />
    <glyph glyph-name="estimated" unicode="&#x212e;" horiz-adv-x="794" 
d="M641 208q-87 -133 -240 -133q-100 0 -177 62v169h547v49q0 77 -29 144.5t-79 117.5t-117.5 79t-144.5 29t-144.5 -29t-117.5 -79t-79 -117.5t-29 -144.5t29 -144.5t79 -117.5t117.5 -79t144.5 -29q56 0 107 15.5t95 44t78.5 69t56.5 89.5l11 24h-96zM578 396h-354v175
q76 64 177 64t177 -64v-175z" />
    <glyph glyph-name="onethird" unicode="&#x2153;" horiz-adv-x="876" 
d="M67 0h175l522 710h-174zM503 115l9 -28q32 -95 173 -95q81 0 122.5 30.5t41.5 87.5q0 70 -51 95q39 29 39 81q0 55 -40 86t-112 31q-133 0 -168 -96l-7 -21l102 -44l12 24q15 31 52 31q31 0 31 -21q0 -22 -31 -22h-44v-110h50q31 0 31 -23q0 -20 -34 -20q-40 0 -54 27
l-13 27zM167 706l-159 -93l64 -107l64 36v-231h138v395h-107z" />
    <glyph glyph-name="twothirds" unicode="&#x2154;" horiz-adv-x="933" 
d="M129 0h175l522 710h-174zM216 449l43 12q95 29 95 136q0 58 -41.5 92.5t-114.5 34.5q-124 0 -163 -93l-14 -34l121 -44l14 28q12 23 35 23q22 0 22 -23q0 -17 -7.5 -25t-27.5 -15l-53 -19q-27 -9 -45.5 -20.5t-29.5 -27.5t-15.5 -36.5t-4.5 -49.5v-67h317v116h-152v2
q0 6 21 10zM737 297q31 0 31 -21q0 -22 -31 -22h-44v-110h50q31 0 31 -23q0 -20 -34 -20q-40 0 -54 27l-13 27l-109 -40l9 -28q32 -95 173 -95q81 0 122.5 30.5t41.5 87.5q0 70 -51 95q39 29 39 81q0 55 -40 86t-112 31q-133 0 -168 -96l-7 -21l102 -44l12 24q15 31 52 31z
" />
    <glyph glyph-name="oneeighth" unicode="&#x215b;" horiz-adv-x="893" 
d="M514 100q0 -109 175 -109q176 0 176 125q0 59 -55 96q43 30 43 84q0 50 -43 79t-121 29q-75 0 -119 -31.5t-44 -87.5q0 -54 46 -91q-58 -37 -58 -94zM595 710l-523 -710h175l522 710h-174zM72 510l64 36v-231h138v395h-107l-159 -93zM654 113q0 15 28 33q43 -16 43 -34
q0 -23 -34 -23q-37 0 -37 24zM698 254q-39 14 -39 30q0 21 30 21q31 0 31 -22q0 -16 -22 -29z" />
    <glyph glyph-name="threeeighths" unicode="&#x215c;" horiz-adv-x="927" 
d="M727 -9q175 0 175 125q0 59 -54 96q42 29 42 84q0 50 -42.5 79t-120.5 29q-75 0 -119 -31.5t-44 -87.5q0 -54 46 -91q-58 -36 -58 -94q0 -109 175 -109zM118 0h175l522 710h-174zM229 443q0 -20 -34 -20q-40 0 -54 27l-13 27l-109 -40l9 -28q32 -95 173 -95
q81 0 122.5 30.5t41.5 87.5q0 70 -51 95q39 29 39 81q0 55 -40 86t-112 31q-133 0 -168 -96l-7 -21l102 -44l12 24q15 31 52 31q31 0 31 -21q0 -22 -31 -22h-44v-110h50q31 0 31 -23zM720 146q43 -16 43 -34q0 -23 -34 -23q-38 0 -38 24q0 15 29 33zM726 305q32 0 32 -22
q0 -16 -22 -29q-40 14 -40 30q0 21 30 21z" />
    <glyph glyph-name="fiveeighths" unicode="&#x215d;" horiz-adv-x="925" 
d="M900 116q0 60 -55 96q43 29 43 84q0 50 -42.5 79t-121.5 29q-75 0 -118.5 -31.5t-43.5 -87.5q0 -55 46 -91q-58 -36 -58 -94q0 -109 174 -109q176 0 176 125zM284 0l522 710h-174l-523 -710h175zM33 493h158q38 0 38 -34q0 -35 -37 -35q-33 0 -48 31q0 2 -2 5.5t-4 7.5
q-3 5 -6 11l-116 -46l12 -27q21 -48 60.5 -70.5t108.5 -22.5q38 0 67.5 11t50 30.5t31.5 46t11 57.5q0 60 -39 95t-117 35h-31l3 25h169v103h-285zM751 131q10 -8 10 -19q0 -10 -9.5 -16.5t-25.5 -6.5q-37 0 -37 24q0 14 28 33q23 -8 34 -15zM724 305q32 0 32 -22
q0 -15 -22 -29q-40 14 -40 30q0 21 30 21z" />
    <glyph glyph-name="seveneighths" unicode="&#x215e;" horiz-adv-x="865" 
d="M549 194q-58 -36 -58 -94q0 -109 175 -109t175 125q0 59 -54 96q42 29 42 84q0 50 -42.5 79t-120.5 29q-75 0 -119 -31.5t-44 -87.5q0 -55 46 -91zM560 710l-523 -710h175l522 710h-174zM343 713h-318v-117h160l-131 -278h146l143 311v84zM668 89q-38 0 -38 24
q0 15 29 33q43 -16 43 -34q0 -23 -34 -23zM675 254q-40 14 -40 30q0 21 30 21q32 0 32 -22q0 -16 -22 -29z" />
    <glyph glyph-name="arrowleft" unicode="&#x2190;" horiz-adv-x="745" 
d="M704 263v140h-416l112 112l-101 99l-281 -279l281 -280l100 98l-109 110h414z" />
    <glyph glyph-name="arrowup" unicode="&#x2191;" horiz-adv-x="745" 
d="M554 297l99 101l-279 281l-280 -281l98 -100l110 109v-414h140v416z" />
    <glyph glyph-name="arrowright" unicode="&#x2192;" horiz-adv-x="745" 
d="M443 52l281 280l-281 279l-100 -98l109 -110h-414v-140h416l-112 -112z" />
    <glyph glyph-name="arrowdown" unicode="&#x2193;" horiz-adv-x="745" 
d="M650 258l-98 100l-110 -109v414h-140v-416l-112 112l-99 -101l280 -281z" />
    <glyph glyph-name="uni2196" unicode="&#x2196;" horiz-adv-x="745" 
d="M622 204l1 396l-396 -1l-1 -139l155 -1l-293 -293l99 -99l294 294v-159z" />
    <glyph glyph-name="uni2197" unicode="&#x2197;" horiz-adv-x="745" 
d="M558 68l99 99l-294 294h158l-1 142l-396 1v-397l140 -1l1 155z" />
    <glyph glyph-name="uni2198" unicode="&#x2198;" horiz-adv-x="745" 
d="M620 74l-1 396l-139 2l-1 -156l-293 293l-99 -99l294 -294h-159l2 -141z" />
    <glyph glyph-name="uni2199" unicode="&#x2199;" horiz-adv-x="745" 
d="M657 509l-99 99l-294 -294v158l-142 -1l-1 -396h397l1 140l-155 1z" />
    <glyph glyph-name="partialdiff" unicode="&#x2202;" horiz-adv-x="559" 
d="M523 385q0 102 -23.5 171t-71.5 111t-120.5 59.5t-171.5 17.5h-40v-164h42q114 0 158 -23q45 -25 55 -87q-38 23 -102 23q-51 0 -92 -14.5t-70 -41t-44.5 -65t-15.5 -86.5v-82q0 -105 64 -162t185 -57t184 58t63 161v181zM276 146q-63 0 -63 53v92q0 54 63 54
q61 0 61 -54v-92q0 -53 -61 -53z" />
    <glyph glyph-name="Delta" unicode="&#x2206;" horiz-adv-x="677" 
d="M414 710h-150l-242 -590v-120h633v120zM452 157h-230l114 323z" />
    <glyph glyph-name="product" unicode="&#x220f;" horiz-adv-x="731" 
d="M618 -100v635h90v175h-685v-175h90v-635h197v635h111v-635h197z" />
    <glyph glyph-name="summation" unicode="&#x2211;" horiz-adv-x="618" 
d="M300 535h281v175h-548v-126l193 -276l-198 -283v-125h558v175h-291l156 234z" />
    <glyph glyph-name="minus" unicode="&#x2212;" horiz-adv-x="591" 
d="M45 411v-170h501v170h-501z" />
    <glyph glyph-name="uni2215" unicode="&#x2215;" horiz-adv-x="666" 
d="M-28 0h199l521 710h-198z" />
    <glyph glyph-name="uni2219" unicode="&#x2219;" horiz-adv-x="275" 
d="M137 383q-42 0 -70.5 -28.5t-28.5 -70.5t28.5 -70.5t70.5 -28.5t70.5 28.5t28.5 70.5t-28.5 70.5t-70.5 28.5z" />
    <glyph glyph-name="radical" unicode="&#x221a;" horiz-adv-x="763" 
d="M774 750h-201l-168 -592l-97 289h-296v-170h153l140 -383h197z" />
    <glyph glyph-name="infinity" unicode="&#x221e;" horiz-adv-x="763" 
d="M30 283q0 -81 54.5 -135.5t132.5 -54.5q56 0 98.5 26.5t67.5 64.5q54 -91 159 -91q77 0 134 54.5t57 138.5q0 85 -51 138.5t-133 53.5q-99 0 -165 -98q-64 98 -162 98q-84 0 -138 -55t-54 -140zM517 251q-14 10 -33 36q34 44 65 44q23 0 35 -13t12 -31t-12 -32
q-13 -15 -34 -15q-19 0 -33 11zM170 287q0 19 12 31.5t35 12.5q7 0 13.5 -2t11 -4t11 -8t9.5 -8.5t10.5 -11t9.5 -10.5q-37 -47 -66 -47q-21 0 -33.5 13.5t-12.5 33.5z" />
    <glyph glyph-name="integral" unicode="&#x222b;" horiz-adv-x="412" 
d="M403 740h-47q-244 -3 -244 -226v-501q0 -38 -13.5 -53.5t-51.5 -15.5h-39v-164h39q252 0 252 226v497q0 40 13 56.5t51 16.5h40v164z" />
    <glyph glyph-name="approxequal" unicode="&#x2248;" horiz-adv-x="578" 
d="M118 325l37 30q26 20 57 20q21 0 79 -18q26 -9 49 -13t43 -4q42 0 76 12.5t65 41.5l25 24l-90 138l-38 -29q-12 -9 -26.5 -15t-29.5 -6q-25 0 -81 18q-60 17 -96 17q-78 0 -136 -53l-25 -23zM52 270l-25 -23l91 -140l37 30q26 20 57 20q21 0 79 -18q26 -9 49 -13t43 -4
q42 0 76 12.5t65 41.5l25 24l-90 138l-38 -29q-12 -9 -26.5 -15t-29.5 -6q-25 0 -81 18q-60 17 -96 17q-78 0 -136 -53z" />
    <glyph glyph-name="notequal" unicode="&#x2260;" horiz-adv-x="589" 
d="M376 595l-37 -72h-295v-170h208l-27 -53h-181v-170h94l-37 -73h107l37 73h300v170h-213l27 53h186v170h-99l37 72h-107z" />
    <glyph glyph-name="lessequal" unicode="&#x2264;" horiz-adv-x="518" 
d="M470 514v166l-431 -174v-130l431 -176v172l-213 70zM470 43v150h-431v-150h431z" />
    <glyph glyph-name="greaterequal" unicode="&#x2265;" horiz-adv-x="518" 
d="M480 366v130l-431 174v-166l213 -72l-213 -70v-172zM480 33v150h-431v-150h431z" />
    <glyph glyph-name="lozenge" unicode="&#x25ca;" horiz-adv-x="604" 
d="M365 710h-125l-230 -355l230 -355h125l229 355zM306 214h-4l-84 141l84 142h4l85 -142z" />
    <glyph glyph-name="zero.denom" horiz-adv-x="387" 
d="M194 -8q79 0 122.5 39.5t43.5 109.5v113q0 69 -43.5 109t-122.5 40t-123 -40t-44 -109v-113q0 -70 43.5 -109.5t123.5 -39.5zM194 282q28 0 28 -26v-117q0 -27 -28 -27q-29 0 -29 27v117q0 26 29 26z" />
    <glyph glyph-name="one.denom" horiz-adv-x="297" 
d="M-8 302l64 -107l64 36v-231h138v395h-107z" />
    <glyph glyph-name="two.denom" horiz-adv-x="375" 
d="M212 128l43 12q95 29 95 136q0 58 -41.5 92.5t-114.5 34.5q-124 0 -163 -93l-14 -34l121 -44l14 28q12 23 35 23q22 0 22 -23q0 -17 -7.5 -25t-27.5 -15l-53 -19q-27 -9 -45.5 -20.5t-29.5 -27.5t-15.5 -36.5t-4.5 -49.5v-67h317v116h-152v2q0 6 21 10z" />
    <glyph glyph-name="three.denom" horiz-adv-x="381" 
d="M141 144h50q31 0 31 -23q0 -20 -34 -20q-40 0 -54 27l-13 27l-109 -40l9 -28q32 -95 173 -95q81 0 122.5 30.5t41.5 87.5q0 70 -51 95q39 29 39 81q0 55 -40 86t-112 31q-133 0 -168 -96l-7 -21l102 -44l12 24q15 31 52 31q31 0 31 -21q0 -22 -31 -22h-44v-110z" />
    <glyph glyph-name="four.denom" horiz-adv-x="399" 
d="M205 395l-194 -233v-93h195v-69h128v69h44v107h-44v219h-129zM206 176h-55l55 66v-66z" />
    <glyph glyph-name="five.denom" horiz-adv-x="377" 
d="M198 267h-31l3 25h169v103h-285l-24 -223h158q38 0 38 -34q0 -35 -37 -35q-33 0 -48 31q0 2 -2 5.5t-4 7.5q-3 5 -6 11l-116 -46l12 -27q21 -48 60.5 -70.5t108.5 -22.5q38 0 67.5 11t50 30.5t31.5 46t11 57.5q0 60 -39 95t-117 35z" />
    <glyph glyph-name="six.denom" horiz-adv-x="388" 
d="M366 315l-12 20q-41 68 -153 68q-174 0 -174 -148v-115q0 -148 169 -148q79 0 124 33.5t45 99.5q0 127 -151 127q-27 0 -50 -6v13q0 20 9.5 27t29.5 7q23 0 42 -22l10 -11zM164 141q23 6 32 6q31 0 31 -23t-31 -23q-32 0 -32 31v9z" />
    <glyph glyph-name="seven.denom" horiz-adv-x="343" 
d="M332 395h-318v-117h160l-131 -278h146l143 311v84z" />
    <glyph glyph-name="eight.denom" horiz-adv-x="395" 
d="M360 296q0 50 -42.5 79t-120.5 29q-75 0 -119 -31.5t-44 -87.5q0 -54 46 -91q-58 -36 -58 -94q0 -109 175 -109t175 125q0 59 -54 96q42 29 42 84zM161 113q0 15 29 33q43 -16 43 -34q0 -23 -34 -23q-38 0 -38 24zM206 254q-40 14 -40 30q0 21 30 21q32 0 32 -22
q0 -16 -22 -29z" />
    <glyph glyph-name="nine.denom" horiz-adv-x="388" 
d="M187 -8q174 0 174 148v116q0 147 -169 147q-80 0 -124.5 -34t-44.5 -98q0 -128 151 -128q28 0 50 6v-13q0 -34 -39 -34q-19 0 -43 22q-14 18 -36 7l-58 -30q-30 -15 -14 -41q38 -68 153 -68zM192 294q32 0 32 -31v-9q-22 -6 -32 -6q-31 0 -31 23t31 23z" />
    <glyph glyph-name="zero.num" horiz-adv-x="387" 
d="M194 312q79 0 122.5 39.5t43.5 109.5v113q0 69 -43.5 109t-122.5 40t-123 -40t-44 -109v-113q0 -70 43.5 -109.5t123.5 -39.5zM194 602q28 0 28 -26v-117q0 -27 -28 -27q-29 0 -29 27v117q0 26 29 26z" />
    <glyph glyph-name="one.num" horiz-adv-x="297" 
d="M-8 622l64 -107l64 36v-231h138v395h-107z" />
    <glyph glyph-name="two.num" horiz-adv-x="375" 
d="M212 448l43 12q95 29 95 136q0 58 -41.5 92.5t-114.5 34.5q-124 0 -163 -93l-14 -34l121 -44l14 28q12 23 35 23q22 0 22 -23q0 -17 -7.5 -25t-27.5 -15l-53 -19q-27 -9 -45.5 -20.5t-29.5 -27.5t-15.5 -36.5t-4.5 -49.5v-67h317v116h-152v2q0 6 21 10z" />
    <glyph glyph-name="three.num" horiz-adv-x="381" 
d="M141 464h50q31 0 31 -23q0 -20 -34 -20q-40 0 -54 27l-13 27l-109 -40l9 -28q32 -95 173 -95q81 0 122.5 30.5t41.5 87.5q0 70 -51 95q39 29 39 81q0 55 -40 86t-112 31q-133 0 -168 -96l-7 -21l102 -44l12 24q15 31 52 31q31 0 31 -21q0 -22 -31 -22h-44v-110z" />
    <glyph glyph-name="four.num" horiz-adv-x="399" 
d="M205 715l-194 -233v-93h195v-69h128v69h44v107h-44v219h-129zM206 496h-55l55 66v-66z" />
    <glyph glyph-name="five.num" horiz-adv-x="377" 
d="M198 587h-31l3 25h169v103h-285l-24 -223h158q38 0 38 -34q0 -35 -37 -35q-33 0 -48 31q0 2 -2 5.5t-4 7.5q-3 5 -6 11l-116 -46l12 -27q21 -48 60.5 -70.5t108.5 -22.5q38 0 67.5 11t50 30.5t31.5 46t11 57.5q0 60 -39 95t-117 35z" />
    <glyph glyph-name="six.num" horiz-adv-x="388" 
d="M366 635l-12 20q-41 68 -153 68q-174 0 -174 -148v-115q0 -148 169 -148q79 0 124 33.5t45 99.5q0 127 -151 127q-27 0 -50 -6v13q0 20 9.5 27t29.5 7q23 0 42 -22l10 -11zM164 461q23 6 32 6q31 0 31 -23t-31 -23q-32 0 -32 31v9z" />
    <glyph glyph-name="seven.num" horiz-adv-x="343" 
d="M332 715h-318v-117h160l-131 -278h146l143 311v84z" />
    <glyph glyph-name="eight.num" horiz-adv-x="395" 
d="M360 616q0 50 -42.5 79t-120.5 29q-75 0 -119 -31.5t-44 -87.5q0 -54 46 -91q-58 -36 -58 -94q0 -109 175 -109t175 125q0 59 -54 96q42 29 42 84zM161 433q0 15 29 33q43 -16 43 -34q0 -23 -34 -23q-38 0 -38 24zM206 574q-40 14 -40 30q0 21 30 21q32 0 32 -22
q0 -16 -22 -29z" />
    <glyph glyph-name="nine.num" horiz-adv-x="388" 
d="M187 312q174 0 174 148v116q0 147 -169 147q-80 0 -124.5 -34t-44.5 -98q0 -128 151 -128q28 0 50 6v-13q0 -34 -39 -34q-19 0 -43 22q-14 18 -36 7l-58 -30q-30 -15 -14 -41q38 -68 153 -68zM192 614q32 0 32 -31v-9q-22 -6 -32 -6q-31 0 -31 23t31 23z" />
    <glyph glyph-name="nonmarkingreturn" horiz-adv-x="322" 
 />
    <glyph glyph-name="acute.case" horiz-adv-x="257" 
d="M-16 821l60 -74l248 76l-102 116z" />
    <glyph glyph-name="breve.case" horiz-adv-x="287" 
d="M315 860l10 25l-120 45l-13 -22q-19 -33 -54 -33q-37 0 -55 33l-12 22l-119 -45l10 -25q40 -106 176 -106q137 0 177 106z" />
    <glyph glyph-name="caron.case" horiz-adv-x="419" 
d="M161 920h-176l165 -166h118l162 166h-170l-48 -56z" />
    <glyph glyph-name="cedilla.case" horiz-adv-x="251" 
d="M125 -137q0 -23 -34 -23q-26 0 -56 15l-31 15v-95l26 -9q17 -5 35 -8t40 -3q138 0 150 100q5 42 -17.5 70t-64.5 29h-9l17 46h-95l-51 -115h48q24 -1 33 -5.5t9 -16.5z" />
    <glyph glyph-name="circumflex.case" horiz-adv-x="401" 
d="M135 920l-166 -166h174l50 57l46 -57h182l-166 166h-120z" />
    <glyph glyph-name="dieresis.case" horiz-adv-x="439" 
d="M109 914q-32 0 -54.5 -22.5t-22.5 -54.5t22.5 -55t54.5 -23t55 23t23 55q0 16 -6 30t-16.5 24.5t-25 16.5t-30.5 6zM247 837q0 -32 22.5 -55t54.5 -23t55 23t23 55q0 16 -6 30t-16.5 24.5t-25 16.5t-30.5 6q-32 0 -54.5 -22.5t-22.5 -54.5z" />
    <glyph glyph-name="dotaccent.case" horiz-adv-x="220" 
d="M110 915q-33 0 -56 -23t-23 -56t23 -56t56 -23t56 23t23 56t-23 56t-56 23z" />
    <glyph glyph-name="grave.case" horiz-adv-x="257" 
d="M83 940l-102 -116l248 -76l60 74z" />
    <glyph glyph-name="hungarumlaut.case" horiz-adv-x="395" 
d="M313 931l-126 -160l98 -22l187 141zM114 932l-121 -162l103 -18l172 145z" />
    <glyph glyph-name="macron.case" horiz-adv-x="352" 
d="M20 892v-114h316v114h-316z" />
    <glyph glyph-name="ogonek.case" horiz-adv-x="252" 
d="M228 -211l14 11l-36 82l-16 -10q-10 -6 -19 -6q-15 0 -18 18q-6 35 49 116h-109q-42 -42 -63.5 -91t-13.5 -91q13 -64 101 -64q65 0 111 35z" />
    <glyph glyph-name="ring.case" horiz-adv-x="240" 
d="M214 947q-36 32 -93 32q-58 0 -94 -31.5t-36 -85.5t37 -85q36 -31 93 -31t92.5 31.5t35.5 84.5t-35 85zM147 837q-10 -10 -26 -10q-17 0 -27.5 10t-10.5 25q0 16 10.5 26t27.5 10q16 0 25.5 -10t9.5 -26t-9 -25z" />
    <glyph glyph-name="tilde.case" horiz-adv-x="305" 
d="M224 890q0 -22 -15 -22q-10 0 -51 21q-42 20 -85 20q-47 0 -71 -27.5t-24 -95.5v-23h103v20q0 22 15 22q11 0 51 -21q41 -21 82 -21q49 0 73.5 28t24.5 95v23h-103v-19z" />
    <glyph glyph-name="uni0326.alt" horiz-adv-x="0" 
d="M39 574h177l26 212h-128z" />
    <glyph glyph-name="_375" horiz-adv-x="672" 
d="M410 710h-150l-242 -590v-120h633v120zM448 157h-230l114 323z" />
    <glyph glyph-name="_376" horiz-adv-x="774" 
d="M409 138v-141h350v178h-119q110 68 110 218q0 78 -29 139t-79 103t-115.5 64t-139.5 22t-139.5 -22.5t-115 -65t-78 -103.5t-28.5 -139q0 -136 107 -216h-116v-178h349v141l-23 12q-60 31 -92.5 88t-32.5 123q0 42 12 77t33.5 60.5t53 39.5t70.5 14q41 0 72.5 -14
t53.5 -39.5t33.5 -60.5t11.5 -77q0 -66 -34.5 -121.5t-91.5 -88.5z" />
    </font>
</defs>
</svg>
