<?xml version="1.0" standalone="no"?>
<!DOCTYPE svg PUBLIC "-//W3C//DTD SVG 1.1//EN" "http://www.w3.org/Graphics/SVG/1.1/DTD/svg11.dtd" >
<svg xmlns="http://www.w3.org/2000/svg" xmlns:xlink="http://www.w3.org/1999/xlink" version="1.1">
<metadata>
Created by FontForge 20170731 at Mon Sep 16 10:26:42 2019
 By Aleksey,,,
Moh'd M. Khatib.2019
</metadata>
<defs>
<font id="Sahar-Light" horiz-adv-x="547" >
  <font-face 
    font-family="Sahar Light"
    font-weight="300"
    font-stretch="normal"
    units-per-em="1000"
    panose-1="0 0 0 0 0 0 0 0 0 0"
    ascent="800"
    descent="-200"
    x-height="512"
    cap-height="710"
    bbox="-216 -253 1142 961"
    underline-thickness="50"
    underline-position="-250"
    unicode-range="U+0020-FB02"
  />
<missing-glyph horiz-adv-x="686" 
d="M91 710v-710h509v710h-509zM553 667v-624h-415v624h415z" />
    <glyph glyph-name="fi" unicode="fi" horiz-adv-x="556" 
d="M485 700v40h-163q-55 0 -93.5 -10t-62.5 -33t-34.5 -60.5t-10.5 -91.5v-33h-115v-39h115v-473h43v473h278v-473h43v512h-321v34q0 45 7.5 74.5t25.5 47.5t48.5 25t76.5 7h163z" />
    <glyph glyph-name="fl" unicode="fl" horiz-adv-x="521" 
d="M447 0v740h-125q-55 0 -93.5 -10t-62.5 -33t-34.5 -60t-10.5 -91v-34h-115v-39h115v-473h43v473h146v39h-146v34q0 45 7.5 74.5t25.5 47.5t48.5 25t76.5 7h82v-700h43z" />
    <glyph glyph-name=".notdef" horiz-adv-x="686" 
d="M91 710v-710h509v710h-509zM553 667v-624h-415v624h415z" />
    <glyph glyph-name=".null" horiz-adv-x="142" 
 />
    <glyph glyph-name="nonmarkingreturn" horiz-adv-x="333" 
 />
    <glyph glyph-name="space" unicode=" " horiz-adv-x="244" 
 />
    <glyph glyph-name="exclam" unicode="!" horiz-adv-x="189" 
d="M112 151l6 589h-46l6 -589h34zM95 55q-13 0 -21.5 -9t-8.5 -21q0 -13 8.5 -21.5t21.5 -8.5t21.5 8.5t8.5 21.5q0 12 -8.5 21t-21.5 9z" />
    <glyph glyph-name="quotedbl" unicode="&#x22;" horiz-adv-x="268" 
d="M198 484l8 226h-42v-226h34zM68 484h33l8 226h-41v-226z" />
    <glyph glyph-name="numbersign" unicode="#" horiz-adv-x="665" 
d="M283 469l53 178h-43l-53 -178h-127l-12 -40h127l-56 -187h-126l-12 -40h126l-60 -202h43l60 202h176l-60 -202h44l60 202h128l12 40h-128l55 187h130l12 40h-130l52 178h-42l-53 -178h-176zM271 429h176l-56 -187h-176z" />
    <glyph glyph-name="dollar" unicode="$" horiz-adv-x="589" 
d="M377 323q54 -11 85 -38.5t31 -87.5q0 -150 -199 -150q-42 0 -73.5 9t-56 27.5t-43 46.5t-34.5 65l-6 12l-43 -15l6 -14q32 -81 84 -124.5t141 -48.5v-83h43v83q227 9 227 193q0 57 -20.5 90t-54 51.5t-76 26.5t-86.5 13q-14 2 -36.5 4.5t-46 7t-44.5 11.5t-32 17
q-16 13 -27.5 36.5t-11.5 55.5q0 152 178 152q41 0 72 -7.5t55 -24t43 -42t37 -61.5l6 -12l44 17l-8 15q-19 39 -40 67t-46.5 47.5t-58 30t-74.5 13.5v82h-43v-82q-107 -4 -159.5 -54t-52.5 -141q0 -55 21 -88t54.5 -51t76 -25.5t85.5 -12.5q16 -1 26 -2t18 -2t17 -2.5
t22 -4.5z" />
    <glyph glyph-name="percent" unicode="%" horiz-adv-x="808" 
d="M38 579v-75q0 -69 40 -107t115 -38t114.5 38t39.5 107v75q0 69 -39.5 107.5t-114.5 38.5t-115 -38.5t-40 -107.5zM770 130v74q0 69 -40 108t-115 39t-114.5 -39t-39.5 -108v-74q0 -69 39.5 -107t114.5 -38t115 38t40 107zM732 132q0 -54 -30 -82.5t-87 -28.5t-87 28.5
t-30 82.5v71q0 54 30 83t87 29t87 -29t30 -83v-71zM193 395q-57 0 -87 28.5t-30 82.5v71q0 54 30 83t87 29t87 -29t30 -83v-71q0 -54 -30 -82.5t-87 -28.5zM118 0h50l523 710h-50z" />
    <glyph glyph-name="ampersand" unicode="&#x26;" horiz-adv-x="653" 
d="M273 366l10 4q46 19 78.5 38t53.5 41.5t30.5 49.5t9.5 61q0 36 -14 66t-38 52t-55.5 34t-66.5 12q-36 0 -67.5 -12t-55 -34t-37.5 -52.5t-14 -67.5q0 -51 27 -93.5t73 -87.5q-39 -17 -69 -36t-51 -43.5t-32 -55t-11 -69.5t14.5 -73.5t40 -59.5t60 -39.5t73.5 -14.5
q40 0 73.5 9.5t63 26t57 39.5t55.5 49l113 -110h56l-140 137l81 77l-30 30l-81 -77zM88 172q0 67 36.5 106t110.5 70l216 -209q-23 -21 -47.5 -41.5t-51.5 -36t-56.5 -25t-62.5 -9.5q-30 0 -56.5 11.5t-46 31t-31 46t-11.5 56.5zM149 558q0 26 9.5 49t27 40.5t41.5 28
t54 10.5q29 0 53 -10.5t41.5 -27.5t27.5 -40t10 -48q0 -33 -10 -57t-34 -42q-12 -9 -22 -15.5t-21.5 -12.5t-26 -12.5t-35.5 -15.5l-19 -10l-20.5 20.5t-15.5 16.5l-14 16t-15 19q-17 22 -24 44t-7 47z" />
    <glyph glyph-name="quotesingle" unicode="'" horiz-adv-x="172" 
d="M68 484h33l8 226h-41v-226z" />
    <glyph glyph-name="parenleft" unicode="(" horiz-adv-x="241" 
d="M105 97v516q0 73 27.5 114.5t85.5 68.5l12 5l-19 37l-10 -4q-71 -32 -104.5 -83.5t-33.5 -139.5v-512q0 -88 33.5 -139.5t105.5 -83.5l9 -4l19 37l-11 5q-59 27 -86.5 68.5t-27.5 114.5z" />
    <glyph glyph-name="parenright" unicode=")" horiz-adv-x="241" 
d="M22 -86l-11 -5l19 -37l9 4q72 32 105.5 83.5t33.5 139.5v512q0 88 -33.5 139.5t-104.5 83.5l-10 4l-19 -37l12 -5q58 -27 85.5 -68.5t27.5 -114.5v-516q0 -73 -27.5 -114.5t-86.5 -68.5z" />
    <glyph glyph-name="asterisk" unicode="*" horiz-adv-x="387" 
d="M330 563l-11 31l-116 -43l6 122h-32l7 -122l-116 43l-10 -30l120 -32l-79 -96l25 -20l70 104l67 -105l26 20l-78 97z" />
    <glyph glyph-name="plus" unicode="+" horiz-adv-x="578" 
d="M269 563v-216h-216v-40h216v-216h40v216h216v40h-216v216h-40z" />
    <glyph glyph-name="comma" unicode="," horiz-adv-x="162" 
d="M63 60l-44 -181h29l64 181h-49z" />
    <glyph glyph-name="hyphen" unicode="-" horiz-adv-x="426" 
d="M64 245h298v41h-298v-41z" />
    <glyph glyph-name="period" unicode="." horiz-adv-x="165" 
d="M82 55q-13 0 -21.5 -8.5t-8.5 -21.5q0 -12 8.5 -21t21.5 -9q12 0 21 9t9 21q0 13 -9 21.5t-21 8.5z" />
    <glyph glyph-name="slash" unicode="/" horiz-adv-x="392" 
d="M318 710l-287 -770h45l287 770h-45z" />
    <glyph glyph-name="zero" unicode="0" horiz-adv-x="622" 
d="M311 -14q118 0 184 60.5t66 166.5v284q0 53 -17 95t-49 71t-78.5 45t-105.5 16t-105.5 -16t-78.5 -45t-49 -71t-17 -95v-284q0 -106 66 -166.5t184 -60.5zM107 497q0 87 53.5 135.5t150.5 48.5t150.5 -48.5t53.5 -135.5v-284q0 -88 -52.5 -136t-151.5 -48t-151.5 48
t-52.5 136v284z" />
    <glyph glyph-name="one" unicode="1" horiz-adv-x="445" 
d="M352 0v710h-38l-289 -161l23 -38l258 143v-654h46z" />
    <glyph glyph-name="two" unicode="2" horiz-adv-x="585" 
d="M311 724q-99 0 -160 -40t-96 -121l-5 -12l44 -16l5 11q31 69 80.5 102t130.5 33q38 0 70 -13t55 -35.5t36 -53t13 -66.5q0 -94 -77 -146q-17 -12 -52.5 -28t-88.5 -36q-41 -16 -79.5 -33t-68 -41.5t-47.5 -59t-18 -84.5v-85h476v43h-428v50q0 35 13.5 62t43.5 47
q15 10 27.5 17t26 13.5t29.5 12.5t38 15q48 18 93.5 38.5t81 49t57 68.5t21.5 99q0 48 -17 86.5t-47 65.5t-70.5 42t-86.5 15z" />
    <glyph glyph-name="three" unicode="3" horiz-adv-x="592" 
d="M475 524q0 -30 -8.5 -55t-25.5 -44t-42 -29.5t-58 -10.5h-174v-42h179q72 0 110 -40t38 -110q0 -164 -189 -164q-47 0 -81.5 8.5t-59 26.5t-41 46t-28.5 67l-5 15l-42 -16l3 -13q13 -45 33.5 -78t51 -55t72 -33t97.5 -11q120 0 178 54t58 153q0 138 -117 174
q49 19 72.5 62t23.5 98q0 94 -54 145.5t-160 51.5q-54 0 -95 -10.5t-71 -32t-50 -54t-33 -76.5l-4 -13l44 -14l4 13q12 39 28.5 66t40.5 44.5t57 25.5t78 8q85 0 127.5 -40.5t42.5 -116.5z" />
    <glyph glyph-name="four" unicode="4" horiz-adv-x="600" 
d="M409 0h44v207h117v42h-117v472h-45l-382 -477v-37h383v-207zM409 249h-327l327 407v-407z" />
    <glyph glyph-name="five" unicode="5" horiz-adv-x="580" 
d="M536 208q0 46 -14.5 84.5t-43 67t-71 44.5t-97.5 16h-187l24 247h363v43h-404l-34 -333h236q44 0 77.5 -12.5t56 -35t34.5 -53.5t12 -68q0 -39 -13.5 -72t-38 -57t-59.5 -37.5t-78 -13.5q-166 0 -211 128l-4 11l-44 -14l4 -12q56 -156 255 -156q50 0 93.5 15.5t75.5 44
t50 70t18 93.5z" />
    <glyph glyph-name="six" unicode="6" horiz-adv-x="615" 
d="M555 573q-57 151 -242 151q-125 0 -189 -63.5t-64 -184.5v-242q0 -118 64.5 -183t188.5 -65q120 0 186 55.5t66 155.5q0 109 -59 160.5t-184 51.5q-123 0 -216 -38v105q0 102 53 153.5t154 51.5q151 0 199 -122l5 -12l42 15zM106 326q96 40 214 40q104 0 151.5 -41
t47.5 -128q0 -81 -53 -124.5t-153 -43.5q-101 0 -154 53t-53 152v92z" />
    <glyph glyph-name="seven" unicode="7" horiz-adv-x="510" 
d="M498 676v34h-470v-43h417l-295 -667h51z" />
    <glyph glyph-name="eight" unicode="8" horiz-adv-x="610" 
d="M380 362q35 11 64 26.5t50 38t33 52.5t12 69q0 87 -59 131.5t-176 44.5q-109 0 -171 -46t-62 -133q0 -36 11 -64t31.5 -49.5t50.5 -38t68 -29.5q-37 -10 -69.5 -27t-57.5 -42t-39.5 -57.5t-14.5 -73.5q0 -178 253 -178q255 0 255 187q0 40 -12 69.5t-34.5 51.5t-56 38.5
t-76.5 29.5zM450 288q32 -19 46.5 -47t14.5 -68q0 -147 -206 -147q-208 0 -208 142q2 43 18 73t41 50.5t58 33t69 21.5q43 -11 85.5 -23.5t81.5 -34.5zM312 382q-16 5 -38 11t-44 14.5t-41.5 19t-31.5 22.5q-15 14 -27 39t-12 56q0 69 48.5 104.5t138.5 35.5q93 0 141 -35.5
t48 -104.5q0 -127 -167 -166z" />
    <glyph glyph-name="nine" unicode="9" horiz-adv-x="615" 
d="M555 476q0 118 -64.5 183t-188.5 65q-120 0 -186 -55.5t-66 -155.5q0 -109 59 -160.5t184 -51.5q123 0 216 38v-105q0 -102 -53 -153.5t-154 -51.5q-151 0 -199 122l-5 12l-42 -15l4 -11q57 -151 242 -151q125 0 189 63.5t64 184.5v242zM96 513q0 81 53 124.5t153 43.5
q101 0 154 -53t53 -152v-92q-96 -40 -214 -40q-104 0 -151.5 41t-47.5 128z" />
    <glyph glyph-name="colon" unicode=":" horiz-adv-x="188" 
d="M94 482q-13 0 -21.5 -9t-8.5 -21q0 -13 8.5 -21.5t21.5 -8.5q12 0 21 8.5t9 21.5q0 12 -9 21t-21 9zM124 25q0 12 -9 21t-21 9q-13 0 -21.5 -9t-8.5 -21q0 -13 8.5 -21.5t21.5 -8.5q12 0 21 8.5t9 21.5z" />
    <glyph glyph-name="semicolon" unicode=";" horiz-adv-x="225" 
d="M54 -121h30l64 181h-50zM123 422q12 0 21 8.5t9 21.5q0 12 -9 21t-21 9q-13 0 -21.5 -9t-8.5 -21q0 -13 8.5 -21.5t21.5 -8.5z" />
    <glyph glyph-name="less" unicode="&#x3c;" horiz-adv-x="504" 
d="M439 93v50l-345 184l345 183v49l-400 -216v-34z" />
    <glyph glyph-name="equal" unicode="=" horiz-adv-x="602" 
d="M537 447h-472v-42h472v42zM537 207v42h-472v-42h472z" />
    <glyph glyph-name="greater" unicode="&#x3e;" horiz-adv-x="504" 
d="M465 309v34l-400 216v-49l345 -183l-345 -184v-50z" />
    <glyph glyph-name="question" unicode="?" horiz-adv-x="553" 
d="M374 307q31 20 62.5 44t50.5 57q11 20 21 53.5t10 72.5q0 44 -16.5 81.5t-47 65.5t-74 43.5t-97.5 15.5q-187 0 -250 -165l-5 -13l42 -13l5 12q54 138 207 138q44 0 79.5 -12.5t60 -34.5t37.5 -52.5t13 -66.5q0 -38 -8.5 -65.5t-24.5 -50t-39 -41t-52 -38.5
q-27 -19 -48.5 -37t-36.5 -39t-23 -47t-8 -62v-13h40v13q0 29 8 51t22 40t32.5 33.5t39.5 29.5zM222 25q0 -13 8.5 -21.5t21.5 -8.5q12 0 21 8.5t9 21.5q0 12 -9 21t-21 9q-13 0 -21.5 -9t-8.5 -21z" />
    <glyph glyph-name="at" unicode="@" horiz-adv-x="900" 
d="M87 327q0 85 24.5 152.5t71 114.5t113.5 72t151 25q87 0 154.5 -25.5t114 -72.5t70.5 -114.5t24 -151.5v-70q0 -44 -11 -77t-29.5 -55t-43.5 -33t-54 -11q-41 0 -41 39v370l-34 14q-75 30 -175 30q-87 0 -129 -43t-42 -121v-158q0 -162 171 -162q108 0 187 40
q10 -43 62 -43q36 0 68 14t56 40.5t37.5 65.5t13.5 90v69q0 93 -27.5 167t-79 125.5t-125.5 78.5t-167 27t-166.5 -27.5t-125 -78.5t-78.5 -125t-27 -167v-69q0 -93 26.5 -165.5t77.5 -122t125 -75.5t168 -26q118 0 214 27l8 2v33l-22 -4q-27 -8 -80.5 -16.5t-119.5 -8.5
q-172 0 -266 92t-94 264v70zM426 85q-136 0 -136 128v156q0 129 136 129q89 0 146 -23l21 -9v-342q-61 -39 -167 -39z" />
    <glyph glyph-name="A" unicode="A" horiz-adv-x="632" 
d="M482 232l92 -232h50l-286 715h-45l-286 -715h49l92 232h334zM163 271l152 381l151 -381h-303z" />
    <glyph glyph-name="B" unicode="B" horiz-adv-x="640" 
d="M567 531q0 88 -48.5 133.5t-139.5 45.5h-297v-710h310q94 0 146.5 49t52.5 140q0 147 -128 176v2q104 38 104 164zM390 341q74 0 113.5 -38t39.5 -110q0 -73 -39.5 -111.5t-113.5 -38.5h-262v298h262zM374 667q71 0 108.5 -36t37.5 -105q0 -72 -38 -107.5t-108 -35.5
h-246v284h246z" />
    <glyph glyph-name="C" unicode="C" horiz-adv-x="634" 
d="M595 165l4 12l-44 16l-4 -13q-12 -39 -30 -67.5t-44 -47t-62.5 -27.5t-84.5 -9q-108 0 -165.5 53.5t-57.5 149.5v247q0 97 57 149.5t166 52.5q95 0 145 -34.5t73 -109.5l5 -14l44 14l-4 13q-26 88 -88 131t-175 43q-132 0 -200.5 -64.5t-68.5 -181.5v-245
q0 -117 69.5 -182t199.5 -65q115 0 176.5 44t88.5 135z" />
    <glyph glyph-name="D" unicode="D" horiz-adv-x="646" 
d="M589 446q0 124 -75.5 194t-214.5 70h-217v-710h217q139 0 214.5 70t75.5 194v182zM300 667q118 0 180.5 -57.5t62.5 -163.5v-182q0 -106 -63.5 -163.5t-179.5 -57.5h-172v624h172z" />
    <glyph glyph-name="E" unicode="E" horiz-adv-x="570" 
d="M472 381h-344v286h388v43h-434v-710h448v43h-402v295h344v43z" />
    <glyph glyph-name="F" unicode="F" horiz-adv-x="551" 
d="M467 371h-339v296h388v43h-434v-710h46v328h339v43z" />
    <glyph glyph-name="G" unicode="G" horiz-adv-x="651" 
d="M599 227v131h-272v-44h227v-87q0 -93 -57.5 -145.5t-165.5 -52.5q-109 0 -166.5 54t-57.5 151v245q0 97 56 149.5t167 52.5q47 0 82.5 -8.5t62 -26t44 -44.5t29.5 -65l5 -14l44 14l-4 14q-26 88 -88 130.5t-175 42.5q-132 0 -200.5 -64.5t-68.5 -181.5v-244
q0 -117 69.5 -182.5t200.5 -65.5q64 0 114 17t84 48t52 76t18 100z" />
    <glyph glyph-name="H" unicode="H" horiz-adv-x="679" 
d="M128 0v338h423v-338h46v710h-46v-329h-423v329h-46v-710h46z" />
    <glyph glyph-name="I" unicode="I" horiz-adv-x="210" 
d="M82 0h46v710h-46v-710z" />
    <glyph glyph-name="J" unicode="J" horiz-adv-x="567" 
d="M254 -15q114 0 175 61.5t61 170.5v493h-46v-493q0 -90 -48.5 -139t-141.5 -49q-84 0 -128 42t-60 127l-2 12l-45 -15l4 -17q39 -193 231 -193z" />
    <glyph glyph-name="K" unicode="K" horiz-adv-x="600" 
d="M533 0h53l-133 262q-24 48 -53.5 74t-74.5 36l253 338h-57l-244 -330q-5 1 -25 1h-124v329h-46v-710h46v339h127q30 0 53.5 -5.5t41.5 -16.5t32.5 -29t27.5 -44z" />
    <glyph glyph-name="L" unicode="L" horiz-adv-x="518" 
d="M82 0h422v43h-376v667h-46v-710z" />
    <glyph glyph-name="M" unicode="M" horiz-adv-x="795" 
d="M82 710v-710h44v620l254 -450h35l254 450v-620h44v710h-43l-272 -484l-275 484h-41z" />
    <glyph glyph-name="N" unicode="N" horiz-adv-x="688" 
d="M127 624l438 -624h41v710h-45v-624l-437 624h-42v-710h45v624z" />
    <glyph glyph-name="O" unicode="O" horiz-adv-x="660" 
d="M331 -14q130 0 199 65t69 182v244q0 117 -69 182t-199 65q-131 0 -200.5 -65t-69.5 -182v-244q0 -117 69.5 -182t200.5 -65zM107 477q0 97 57.5 150.5t166.5 53.5q108 0 165 -53.5t57 -150.5v-244q0 -97 -57 -150.5t-165 -53.5q-109 0 -166.5 53.5t-57.5 150.5v244z" />
    <glyph glyph-name="P" unicode="P" horiz-adv-x="618" 
d="M364 276q103 0 162 57t59 159q0 103 -59 160.5t-162 57.5h-282v-710h46v276h236zM360 667q82 0 129.5 -46.5t47.5 -128.5q0 -81 -47.5 -127t-129.5 -46h-232v348h232z" />
    <glyph glyph-name="Q" unicode="Q" horiz-adv-x="670" 
d="M599 477q0 117 -69 182t-199 65q-131 0 -200.5 -65t-69.5 -182v-244q0 -117 69.5 -182t200.5 -65q106 0 171 47l83 -98l34 27l-82 97q62 65 62 174v244zM107 477q0 97 57.5 150.5t166.5 53.5q108 0 165 -53.5t57 -150.5v-244q0 -97 -57 -150.5t-165 -53.5
q-109 0 -166.5 53.5t-57.5 150.5v244z" />
    <glyph glyph-name="R" unicode="R" horiz-adv-x="640" 
d="M491 235q-33 61 -82 82q83 7 129.5 57.5t46.5 135.5q0 96 -53.5 148t-149.5 52h-300v-710h46v312h165q31 0 54 -5.5t41.5 -16.5t32.5 -29t27 -44l110 -217h52zM377 667q77 0 118.5 -41t41.5 -116t-41.5 -115t-118.5 -40h-249v312h249z" />
    <glyph glyph-name="S" unicode="S" horiz-adv-x="622" 
d="M575 557l-7 15q-40 80 -101.5 116t-159.5 36q-118 0 -184.5 -53t-66.5 -146q0 -58 24 -93t61.5 -55t84 -29t91.5 -14q21 -3 36.5 -5t29 -4.5t26.5 -5.5t29 -8q32 -11 50 -24q17 -15 29.5 -40t12.5 -59q0 -158 -218 -158q-163 0 -226 148l-5 12l-43 -16l5 -13
q36 -91 100 -133t169 -42q130 0 197 52.5t67 151.5q0 58 -22 92.5t-57 54.5t-80 28.5t-90 13.5q-36 3 -75.5 9.5t-72.5 22.5t-54.5 43.5t-21.5 73.5q0 72 53.5 112t150.5 40q83 0 134 -31t86 -99l5 -12z" />
    <glyph glyph-name="T" unicode="T" horiz-adv-x="532" 
d="M519 667v43h-506v-43h230v-667h46v667h230z" />
    <glyph glyph-name="U" unicode="U" horiz-adv-x="679" 
d="M340 -15q130 0 196.5 67.5t66.5 187.5v470h-46v-470q0 -100 -55 -156t-162 -56q-109 0 -163.5 56t-54.5 156v470h-46v-470q0 -120 66.5 -187.5t197.5 -67.5z" />
    <glyph glyph-name="V" unicode="V" horiz-adv-x="613" 
d="M604 710h-49l-248 -646l-250 646h-49l276 -710h44z" />
    <glyph glyph-name="W" unicode="W" horiz-adv-x="870" 
d="M21 710l192 -710h47l176 619l175 -619h47l192 710h-48l-167 -628l-174 613h-47l-175 -614l-167 629h-51z" />
    <glyph glyph-name="X" unicode="X" horiz-adv-x="607" 
d="M15 710l259 -350l-268 -360h58l238 325l240 -325h58l-267 361l258 349h-56l-231 -313l-232 313h-57z" />
    <glyph glyph-name="Y" unicode="Y" horiz-adv-x="619" 
d="M286 0h46v292l279 418h-57l-244 -370l-245 370h-58l279 -417v-293z" />
    <glyph glyph-name="Z" unicode="Z" horiz-adv-x="555" 
d="M515 710h-479v-43h421l-425 -627v-40h495v44h-438l426 628v38z" />
    <glyph glyph-name="bracketleft" unicode="[" horiz-adv-x="257" 
d="M244 -146v40h-132v923h132v39h-174v-1002h174z" />
    <glyph glyph-name="backslash" unicode="\" horiz-adv-x="392" 
d="M30 710l287 -770h45l-287 770h-45z" />
    <glyph glyph-name="bracketright" unicode="]" horiz-adv-x="257" 
d="M13 856v-39h132v-923h-132v-40h174v1002h-174z" />
    <glyph glyph-name="asciicircum" unicode="^" horiz-adv-x="594" 
d="M496 520h53l-241 290h-27l-237 -290h53l197 246z" />
    <glyph glyph-name="underscore" unicode="_" horiz-adv-x="510" 
d="M29 -42h452v42h-452v-42z" />
    <glyph glyph-name="grave" unicode="`" horiz-adv-x="257" 
d="M46 732l-27 -30l197 -114l21 23z" />
    <glyph glyph-name="a" unicode="a" horiz-adv-x="509" 
d="M448 332q0 44 -10 80t-32.5 61.5t-60 39.5t-91.5 14q-141 0 -197 -106l-6 -13l39 -15l5 10q46 85 157 85q44 0 73.5 -10.5t47 -30.5t25 -49t7.5 -65v-55q-53 5 -89.5 8t-58.5 3q-58 0 -99.5 -8t-67.5 -26t-38 -47t-12 -70q0 -40 10 -68.5t35 -47t66 -27.5t102 -9
q101 0 159 26l36 15v305zM382 41q-50 -19 -132 -19q-48 0 -80 7t-51 21.5t-27 36.5t-8 52q0 31 9 52.5t29 35t52.5 20t78.5 6.5q21 0 59 -3t93 -8v-191z" />
    <glyph glyph-name="b" unicode="b" horiz-adv-x="534" 
d="M481 334q0 193 -193 193q-77 0 -177 -38v251h-43v-709l39 -16q70 -29 163 -29q211 0 211 202v146zM111 448q84 39 173 39q154 0 154 -154v-145q0 -163 -170 -163q-76 0 -133 24l-24 10v389z" />
    <glyph glyph-name="c" unicode="c" horiz-adv-x="513" 
d="M475 130l3 12l-41 14l-3 -12q-17 -62 -58 -90.5t-112 -28.5q-81 0 -125 41t-44 113v156q0 72 42.5 112.5t126.5 40.5q73 0 111.5 -27t56.5 -86l3 -13l40 14l-4 14q-39 137 -205 137q-106 0 -159.5 -51t-53.5 -143v-153q0 -93 53.5 -143.5t157.5 -50.5q166 0 211 144z" />
    <glyph glyph-name="d" unicode="d" horiz-adv-x="534" 
d="M423 740v-251q-100 38 -177 38q-193 0 -193 -193v-146q0 -202 211 -202q93 0 163 29l39 16v709h-43zM96 333q0 154 154 154q89 0 173 -39v-389l-24 -10q-57 -24 -133 -24q-170 0 -170 163v145z" />
    <glyph glyph-name="e" unicode="e" horiz-adv-x="527" 
d="M483 320q0 95 -55 151t-161 56t-161 -55.5t-55 -153.5v-135q0 -93 52.5 -145t157.5 -52q152 0 213 113l6 13l-36 20l-6 -12q-54 -97 -177 -97q-82 0 -124.5 41t-42.5 115v68h389v73zM94 322q0 78 44 122.5t129 44.5t129 -44.5t44 -122.5v-40h-346v40z" />
    <glyph glyph-name="f" unicode="f" horiz-adv-x="344" 
d="M334 700v40h-19q-54 0 -91 -10.5t-60 -33.5t-33 -60t-10 -91v-33h-115v-39h115v-473h43v473h172v39h-172v33q0 45 7.5 75t26 48t49 25t75.5 7h12z" />
    <glyph glyph-name="g" unicode="g" horiz-adv-x="534" 
d="M423 -39q0 -175 -165 -175q-62 0 -97.5 24.5t-58.5 70.5l-6 11l-38 -19l7 -13q57 -113 194 -113q207 0 207 216v519l-39 16q-72 29 -164 29q-210 0 -210 -202v-140q0 -192 192 -192q93 0 178 36v-68zM423 69q-89 -37 -173 -37q-154 0 -154 154v138q0 163 170 163
q69 0 132 -23l25 -9v-386z" />
    <glyph glyph-name="h" unicode="h" horiz-adv-x="549" 
d="M114 492v248h-43v-740h43v451q74 36 171 36q155 0 155 -155v-332h43v334q0 193 -193 193q-98 0 -176 -35z" />
    <glyph glyph-name="i" unicode="i" horiz-adv-x="184" 
d="M114 0v512h-43v-512h43zM92 690q-11 0 -19.5 -8.5t-8.5 -19.5t8.5 -19.5t19.5 -8.5t19.5 8.5t8.5 19.5t-8.5 19.5t-19.5 8.5z" />
    <glyph glyph-name="j" unicode="j" horiz-adv-x="185" 
d="M71 -9q0 -92 -34 -136.5t-120 -44.5h-12v-40h12q107 0 152 55t45 166v521h-43v-521zM64 662q0 -12 8.5 -20t20.5 -8q11 0 19.5 8t8.5 20t-8.5 20.5t-19.5 8.5q-12 0 -20.5 -8.5t-8.5 -20.5z" />
    <glyph glyph-name="k" unicode="k" horiz-adv-x="499" 
d="M434 0h48l-102 201q-31 63 -91 75l188 236h-51l-181 -229h-131v457h-43v-740h43v244h126q39 0 63.5 -15t41.5 -48z" />
    <glyph glyph-name="l" unicode="l" horiz-adv-x="192" 
d="M75 0h42v740h-42v-740z" />
    <glyph glyph-name="m" unicode="m" horiz-adv-x="813" 
d="M703 339v-339h43v342q0 185 -176 185q-99 0 -183 -48q-45 48 -133 48q-77 0 -147 -31l-39 -18v-478h43v453l21 10q51 24 117 24q142 0 142 -148v-339h43v341q0 65 -24 105q74 41 155 41q72 0 105 -36t33 -112z" />
    <glyph glyph-name="n" unicode="n" 
d="M287 527q-97 0 -181 -33l-38 -15v-479h43v453l21 8q70 26 150 26q156 0 156 -155v-332h43v334q0 193 -194 193z" />
    <glyph glyph-name="o" unicode="o" horiz-adv-x="537" 
d="M268 -14q99 0 157 47t58 128v190q0 82 -58 129t-157 47q-49 0 -88.5 -12.5t-67.5 -35t-43 -55t-15 -73.5v-190q0 -40 15 -72.5t43 -55.5t67.5 -35t88.5 -12zM97 352q0 63 46.5 99.5t124.5 36.5t125 -36.5t47 -99.5v-191q0 -63 -47 -99.5t-125 -36.5t-124.5 36.5
t-46.5 99.5v191z" />
    <glyph glyph-name="p" unicode="p" horiz-adv-x="534" 
d="M480 325q0 202 -210 202q-91 0 -163 -29l-39 -17v-701h43v249q92 -43 177 -43q192 0 192 192v147zM136 464q63 23 132 23q170 0 170 -163v-145q0 -154 -154 -154q-86 0 -173 44v385z" />
    <glyph glyph-name="q" unicode="q" horiz-adv-x="534" 
d="M427 498q-72 29 -163 29q-210 0 -210 -202v-147q0 -192 192 -192q85 0 177 43v-249h43v701zM96 324q0 163 170 163q69 0 132 -23l25 -10v-385q-87 -44 -173 -44q-154 0 -154 154v145z" />
    <glyph glyph-name="r" unicode="r" horiz-adv-x="337" 
d="M111 428q0 23 21 33q67 26 151 26h43v40h-42q-100 -1 -178 -32q-23 -11 -30.5 -21.5t-7.5 -33.5v-440h43v428z" />
    <glyph glyph-name="s" unicode="s" horiz-adv-x="492" 
d="M252 236q41 -4 70.5 -10.5t48.5 -18t28.5 -30t9.5 -47.5q0 -106 -158 -106q-136 0 -173 101l-4 11l-40 -12l5 -12q50 -126 213 -126q100 0 149.5 38.5t49.5 107.5q0 44 -16.5 70t-43 41t-60.5 21.5t-70 9.5q-19 2 -32 3t-23 2.5t-20 3.5t-23 6q-36 8 -53 32.5t-17 62.5
q0 104 150 104q69 0 106 -22.5t55 -66.5l4 -11l39 16l-5 13q-47 110 -200 110q-94 0 -142.5 -37.5t-48.5 -106.5q0 -48 17.5 -76t45.5 -42.5t64.5 -20t73.5 -8.5z" />
    <glyph glyph-name="t" unicode="t" horiz-adv-x="344" 
d="M335 -14v41h-12q-47 0 -77.5 7t-48 24.5t-24.5 47.5t-7 77v290h171v39h-171v120h-43v-120h-119v-39h119v-291q0 -54 9 -91.5t31 -61t58.5 -33.5t91.5 -10q2 -1 5 -1t5 1h12z" />
    <glyph glyph-name="u" unicode="u" 
d="M109 181v331h-43v-333q0 -193 194 -193q99 0 181 32l37 15v479h-43v-453l-21 -8q-67 -26 -150 -26q-155 0 -155 156z" />
    <glyph glyph-name="v" unicode="v" horiz-adv-x="498" 
d="M487 512h-46l-191 -454l-193 454h-45l219 -516h36z" />
    <glyph glyph-name="w" unicode="w" horiz-adv-x="729" 
d="M21 512l162 -517h39l141 440l144 -440h40l162 517h-44l-138 -447l-142 432h-40l-141 -431l-138 446h-45z" />
    <glyph glyph-name="x" unicode="x" horiz-adv-x="477" 
d="M70 512h-51l193 -248l-202 -264h49l179 233l180 -233h50l-202 263l190 249h-49l-168 -218z" />
    <glyph glyph-name="y" unicode="y" horiz-adv-x="549" 
d="M478 -37v549h-43v-446q-84 -34 -171 -34q-155 0 -155 156v324h-43v-326q0 -193 194 -193q87 0 175 33v-65q0 -175 -166 -175q-109 0 -157 95l-6 11l-37 -20l6 -12q57 -113 195 -113q208 0 208 216z" />
    <glyph glyph-name="z" unicode="z" horiz-adv-x="447" 
d="M412 512h-377v-39h323l-327 -439v-34h386v39h-332l327 438v35z" />
    <glyph glyph-name="braceleft" unicode="{" horiz-adv-x="306" 
d="M295 -107h-55q-44 0 -63 21.5t-19 66.5v254q0 97 -66 119q66 26 66 119v255q0 45 19 66.5t63 21.5h55v40h-56q-66 0 -94.5 -30t-28.5 -96v-252q0 -51 -20.5 -76.5t-70.5 -25.5h-21v-44h21q50 0 70.5 -25t20.5 -77v-251q0 -66 28 -96t95 -30h56v40z" />
    <glyph glyph-name="bar" unicode="|" horiz-adv-x="181" 
d="M70 -147h41v1003h-41v-1003z" />
    <glyph glyph-name="braceright" unicode="}" horiz-adv-x="306" 
d="M190 -21v251q0 52 20.5 77t70.5 25h21v44h-21q-50 0 -70.5 25.5t-20.5 76.5v252q0 66 -28.5 96t-94.5 30h-56v-40h55q44 0 63 -21.5t19 -66.5v-255q0 -93 66 -119q-66 -22 -66 -119v-254q0 -45 -19 -66.5t-63 -21.5h-55v-40h56q67 0 95 30t28 96z" />
    <glyph glyph-name="asciitilde" unicode="~" horiz-adv-x="562" 
d="M61 305l29 -29l9 8q46 40 92 40q33 0 89 -22q28 -11 52 -16.5t45 -5.5q61 0 117 49l10 8l-32 29l-8 -8q-42 -39 -91 -39q-35 0 -89 22q-58 23 -97 23q-63 0 -116 -50z" />
    <glyph glyph-name="exclamdown" unicode="&#xa1;" horiz-adv-x="178" 
d="M112 -231l-6 589h-34l-6 -589h46zM59 484q0 -12 8.5 -21t21.5 -9t21.5 9t8.5 21q0 13 -8.5 21.5t-21.5 8.5t-21.5 -8.5t-8.5 -21.5z" />
    <glyph glyph-name="cent" unicode="&#xa2;" horiz-adv-x="533" 
d="M442 156l-3 -12q-17 -61 -57.5 -90t-112.5 -29q-81 0 -125 41t-44 113v156q0 72 42.5 112.5t126.5 40.5q73 0 111 -26.5t56 -86.5l4 -13l41 15l-4 13q-19 64 -62 97.5t-124 37.5v85h-44v-85q-94 -5 -142 -55t-48 -137v-153q0 -88 48.5 -138.5t141.5 -54.5v-71h44v71
q78 4 123 39t66 104l4 12z" />
    <glyph glyph-name="sterling" unicode="&#xa3;" horiz-adv-x="629" 
d="M573 0v43h-313q-20 0 -116 -3v2q50 36 50 108v168h289v41h-289v182q0 63 39.5 101.5t120.5 38.5q68 0 109 -27.5t67 -98.5l4 -13l43 15l-4 12q-28 84 -81.5 119.5t-138.5 35.5q-105 0 -156 -50.5t-51 -131.5v-183h-97v-41h97v-169q0 -41 -19 -73t-59 -34h-30v-42h535z
" />
    <glyph glyph-name="currency" unicode="&#xa4;" horiz-adv-x="594" 
d="M524 336q0 82 -54 145l65 64l-32 30l-64 -64q-61 52 -142 52q-80 0 -144 -53l-64 64l-31 -30l65 -65q-53 -62 -53 -143q0 -84 54 -144l-64 -66l30 -29l64 64q62 -52 143 -52q83 0 144 54l65 -64l31 30l-65 65q52 61 52 142zM483 337q0 -39 -14.5 -73.5t-39.5 -59.5
t-59 -39.5t-73 -14.5t-73 14.5t-59 39.5t-39.5 59.5t-14.5 73.5t14.5 73t39.5 58.5t59 39t73 14.5t73 -14t59 -38.5t39.5 -58.5t14.5 -74z" />
    <glyph glyph-name="yen" unicode="&#xa5;" horiz-adv-x="629" 
d="M514 196h-176v108h176v35h-158l251 371h-55l-236 -356l-237 356h-56l251 -371h-160v-35h178v-108h-178v-35h178v-161h46v161h176v35z" />
    <glyph glyph-name="brokenbar" unicode="&#xa6;" horiz-adv-x="190" 
d="M115 856h-40v-425h40v425zM115 -146v425h-40v-425h40z" />
    <glyph glyph-name="section" unicode="&#xa7;" horiz-adv-x="590" 
d="M492 -48q0 -63 -48 -97.5t-145 -34.5q-155 0 -203 141l-5 14l-43 -16l4 -11q59 -171 247 -171q118 0 178.5 47t60.5 128q0 113 -109 149q101 54 101 154q0 51 -20.5 82t-53 48.5t-72.5 25.5t-80 12q-33 3 -67.5 8.5t-63 19t-47 38t-18.5 66.5q0 62 44 97t138 35
q148 0 199 -142l5 -14l42 19l-4 12q-61 168 -242 168q-115 0 -171.5 -47t-56.5 -128q0 -116 108 -149q-114 -49 -114 -157q0 -52 21.5 -83.5t55.5 -48.5t76 -24t83 -11q32 -3 67.5 -8t65 -18t48.5 -37.5t19 -66.5zM382 115q-7 1 -28 3t-56 7q-32 3 -66.5 8t-63 18t-47 37.5
t-18.5 65.5q0 36 14.5 61t34 41t38.5 23.5t28 10.5q13 -2 32 -4.5t45 -5.5q31 -3 64.5 -8.5t61 -19t45 -37t17.5 -63.5q0 -52 -28.5 -84.5t-72.5 -52.5z" />
    <glyph glyph-name="dieresis" unicode="&#xa8;" horiz-adv-x="439" 
d="M122 676q-11 0 -19 -7.5t-8 -18.5t8 -19t19 -8t18.5 8t7.5 19t-7.5 18.5t-18.5 7.5zM338 650q0 11 -7.5 18.5t-18.5 7.5t-19 -7.5t-8 -18.5t8 -19t19 -8t18.5 8t7.5 19z" />
    <glyph glyph-name="copyright" unicode="&#xa9;" horiz-adv-x="811" 
d="M765 351q0 76 -27 141.5t-75 114t-113.5 76t-141.5 27.5t-142 -27.5t-114.5 -75.5t-76 -113.5t-27.5 -142.5q0 -76 27.5 -141.5t76 -114t114.5 -76t142 -27.5t141 28t113 76.5t75.5 114t27.5 140.5zM732 351q0 -69 -24.5 -128.5t-68 -104t-103 -69.5t-128.5 -25t-129 25
t-104 69t-69 104t-25 129q0 70 25 130t68.5 103.5t103.5 68t130 24.5q69 0 128.5 -25t103 -69t68 -103.5t24.5 -128.5zM561 261l-31 11l-3 -10q-14 -46 -42.5 -67t-81.5 -21q-60 0 -91.5 29.5t-31.5 83.5v120q0 112 123 112q56 0 82.5 -18.5t39.5 -63.5l3 -9l31 10l-4 10
q-15 51 -50 76.5t-101 25.5q-77 0 -117 -37.5t-40 -106.5v-119q0 -67 41 -105.5t116 -38.5q121 0 154 109z" />
    <glyph glyph-name="ordfeminine" unicode="&#xaa;" horiz-adv-x="373" 
d="M276 526q-39 6 -92 6q-69 0 -98.5 -23t-29.5 -68q0 -44 28.5 -65t97.5 -21q61 0 95 14l34 16v161q0 60 -28 92t-95 32q-82 0 -121 -59l-8 -11l32 -15l5 7q32 47 91 47q49 0 69 -22.5t20 -68.5v-22zM91 442q0 31 19.5 46.5t72.5 15.5q51 0 93 -6v-95l-22 -9
q-26 -10 -73 -10q-90 0 -90 58z" />
    <glyph glyph-name="guillemotleft" unicode="&#xab;" horiz-adv-x="552" 
d="M258 262l219 -219l28 30l-190 190l192 193l-29 29zM90 263l192 193l-29 29l-220 -223l219 -219l28 30z" />
    <glyph glyph-name="logicalnot" unicode="&#xac;" horiz-adv-x="576" 
d="M69 378v-41h397v-197h44v238h-441z" />
    <glyph glyph-name="registered" unicode="&#xae;" horiz-adv-x="488" 
d="M245 710q-40 0 -75.5 -15.5t-62 -41.5t-42 -61.5t-15.5 -75.5t15.5 -75.5t42 -61.5t62 -41.5t75.5 -15.5q41 0 76 15t61 41.5t41 62t15 75.5t-15 75.5t-41.5 61.5t-61.5 41.5t-75 15.5zM416 516q0 -35 -13.5 -66.5t-36.5 -55t-54 -37t-66 -13.5t-66.5 13.5t-55 37t-37 55
t-13.5 66.5q0 36 13.5 67t37 54t55 36.5t66.5 13.5q36 0 67 -13.5t54 -36.5t36 -54.5t13 -66.5zM289 492q48 11 48 61q0 31 -19 48.5t-51 17.5h-102v-206h23v76h76l43 -76h27zM266 597q22 0 34.5 -11.5t12.5 -32.5q0 -43 -47 -43h-78v87h78z" />
    <glyph glyph-name="macron" unicode="&#xaf;" horiz-adv-x="352" 
d="M44 633h260v33h-260v-33z" />
    <glyph glyph-name="degree" unicode="&#xb0;" horiz-adv-x="383" 
d="M192 409q30 0 56 11.5t46 31.5t31.5 46.5t11.5 56.5t-11.5 56.5t-31 46t-46 31t-56.5 11.5t-57 -11.5t-46.5 -31t-31 -46t-11.5 -56.5t11.5 -57t31 -46.5t46.5 -31t57 -11.5zM192 664q23 0 42.5 -8.5t34 -23.5t23 -34.5t8.5 -42.5q0 -22 -8.5 -42t-23.5 -35t-34.5 -23.5
t-41.5 -8.5q-23 0 -43 8.5t-35 23t-23.5 34.5t-8.5 43t8.5 42.5t23.5 34.5t35 23.5t43 8.5z" />
    <glyph glyph-name="plusminus" unicode="&#xb1;" horiz-adv-x="659" 
d="M565 377v38h-215v146h-40v-146h-217v-38h217v-143h40v143h215zM93 171v-38h472v38h-472z" />
    <glyph glyph-name="twosuperior" unicode="&#xb2;" horiz-adv-x="351" 
d="M244 641q-5 -4 -16 -9t-16 -7t-18.5 -7t-17.5 -7l-61 -23q-77 -28 -77 -118v-56h271v34h-235v33q0 57 57 79l61 22q24 8 45.5 16.5t38.5 22t27 33t10 47.5q0 52 -34.5 84.5t-98.5 32.5q-38 0 -63 -12t-40.5 -29t-23 -34t-11.5 -28l-6 -20l36 -12l6 19q2 8 7.5 21.5t17 27
t30 23t46.5 9.5q46 0 70.5 -23t24.5 -60q0 -23 -9 -35.5t-21 -23.5z" />
    <glyph glyph-name="threesuperior" unicode="&#xb3;" horiz-adv-x="360" 
d="M276 703q0 -30 -16 -50.5t-47 -20.5h-80v-34h82q32 0 51.5 -22t19.5 -55q0 -37 -25.5 -59t-73.5 -22q-51 0 -77 19.5t-40 65.5l-4 14l-34 -13l4 -12q17 -54 52.5 -81t98.5 -27q66 0 101 30t35 81q0 72 -62 101q51 26 51 89q0 51 -33 81t-91 30q-63 0 -98.5 -26.5
t-52.5 -83.5l-4 -13l36 -12l4 14q13 45 40 66t75 21q42 0 65 -22t23 -59z" />
    <glyph glyph-name="acute" unicode="&#xb4;" horiz-adv-x="257" 
d="M215 732l-191 -122l20 -23l196 114z" />
    <glyph glyph-name="mu" unicode="&#xb5;" horiz-adv-x="542" 
d="M478 33v479h-43v-452l-23 -9q-66 -27 -148 -27q-156 0 -156 156l-1 332h-42v-732h42v289q41 -84 160 -84q91 0 173 33z" />
    <glyph glyph-name="paragraph" unicode="&#xb6;" horiz-adv-x="359" 
d="M190 -89v755h52v-755h41v799h-130q-46 0 -74 -27.5t-28 -73.5q0 -45 26.5 -72t71.5 -28v-598h41z" />
    <glyph glyph-name="periodcentered" unicode="&#xb7;" horiz-adv-x="192" 
d="M96 297q-12 0 -21 -9t-9 -21q0 -13 9 -21.5t21 -8.5q13 0 21.5 8.5t8.5 21.5q0 12 -8.5 21t-21.5 9z" />
    <glyph glyph-name="cedilla" unicode="&#xb8;" horiz-adv-x="251" 
d="M235 -153q1 34 -22.5 54.5t-63.5 20.5q-21 0 -32 -4l29 82h-28l-44 -114l17 6q17 6 38 6q68 0 68 -49q0 -31 -20.5 -48.5t-57.5 -17.5q-47 0 -82 26l-7 5v-33l9 -5q37 -22 84 -22q51 0 81 24t31 69z" />
    <glyph glyph-name="onesuperior" unicode="&#xb9;" horiz-adv-x="279" 
d="M218 414v396h-29l-174 -98l16 -32l150 83v-349h37z" />
    <glyph glyph-name="ordmasculine" unicode="&#xba;" horiz-adv-x="377" 
d="M188 356q66 0 99 30.5t33 87.5v78q0 57 -33 87.5t-99 30.5q-64 0 -98 -31.5t-34 -86.5v-78q0 -57 34 -87.5t98 -30.5zM92 553q0 39 25 61.5t71 22.5q48 0 72 -22t24 -62v-80q0 -40 -24 -62t-72 -22q-46 0 -71 22t-25 62v80z" />
    <glyph glyph-name="guillemotright" unicode="&#xbb;" horiz-adv-x="552" 
d="M298 485l-29 -29l192 -193l-190 -190l28 -30l219 219zM46 73l28 -30l219 219l-220 223l-29 -29l192 -193z" />
    <glyph glyph-name="onequarter" unicode="&#xbc;" horiz-adv-x="777" 
d="M682 144v252h-40l-208 -255v-30h212v-111h36v111h63v33h-63zM683 710h-48l-524 -710h49zM27 618l16 -32l150 83v-349h37v396h-29zM478 144l168 205v-205h-168z" />
    <glyph glyph-name="onehalf" unicode="&#xbd;" horiz-adv-x="843" 
d="M665 369q46 0 70.5 -23t24.5 -61q0 -23 -9 -35t-21 -23q-5 -4 -16 -9t-16 -7t-18.5 -7t-17.5 -7l-61 -23q-77 -28 -77 -118v-56h271v34h-235v33q0 57 57 79l61 22q24 8 45.5 16.5t38.5 22t27 33t10 47.5q0 52 -34.5 84.5t-98.5 32.5q-37 0 -62.5 -12.5t-41.5 -29.5
t-23.5 -34.5t-10.5 -27.5l-6 -19l38 -13l4 23q2 9 8 22t17.5 25.5t30 21.5t45.5 9zM110 0h49l523 710h-48zM27 620l16 -32l150 83v-349h37v396h-29z" />
    <glyph glyph-name="threequarters" unicode="&#xbe;" horiz-adv-x="818" 
d="M687 111v-111h36v111h63v33h-63v252h-40l-208 -255v-30h212zM45 616l-4 -12l35 -15l5 16q13 45 40 66t75 21q42 0 65 -22t23 -59q0 -30 -16 -50.5t-47 -20.5h-80v-34h82q32 0 51.5 -22t19.5 -55q0 -37 -25.5 -59t-73.5 -22q-51 0 -77 20t-40 66l-4 12l-34 -11l4 -13
q16 -54 52 -81t99 -27q66 0 101 30t35 81q0 72 -62 101q51 26 51 88q0 51 -33 81.5t-91 30.5q-63 0 -98.5 -26.5t-52.5 -83.5zM153 0h49l523 710h-48zM687 349v-205h-168z" />
    <glyph glyph-name="questiondown" unicode="&#xbf;" 
d="M318 356v13h-40v-13q0 -28 -8 -50.5t-22 -40.5t-32.5 -33.5t-39.5 -29.5q-31 -20 -62.5 -44t-50.5 -57q-11 -20 -21 -53.5t-10 -72.5q0 -44 16.5 -81.5t47 -65.5t74 -43.5t97.5 -15.5q187 0 250 165l5 13l-42 13l-5 -12q-54 -138 -207 -138q-44 0 -79.5 12.5t-60 34.5
t-37.5 52.5t-13 66.5q0 38 8.5 65.5t24.5 50t39 41t52 38.5q27 19 48.5 37t36.5 39t23 47t8 62zM298 454q13 0 21.5 9t8.5 21q0 13 -8.5 21.5t-21.5 8.5q-12 0 -21 -8.5t-9 -21.5q0 -12 9 -21t21 -9z" />
    <glyph glyph-name="Agrave" unicode="&#xc0;" horiz-adv-x="632" 
d="M338 715h-45l-286 -715h49l92 232h334l92 -232h50zM466 271h-303l152 381zM232 896l-27 -29l201 -109l20 23z" />
    <glyph glyph-name="Aacute" unicode="&#xc1;" horiz-adv-x="632" 
d="M338 715h-45l-286 -715h49l92 232h334l92 -232h50zM315 652l151 -381h-303zM399 903l-191 -121l20 -23l198 113z" />
    <glyph glyph-name="Acircumflex" unicode="&#xc2;" horiz-adv-x="632" 
d="M338 715h-45l-286 -715h49l92 232h334l92 -232h50zM466 271h-303l152 381zM144 764h47l125 102l123 -102h49l-158 133h-27z" />
    <glyph glyph-name="Atilde" unicode="&#xc3;" horiz-adv-x="632" 
d="M338 715h-45l-286 -715h49l92 232h334l92 -232h50zM315 652l151 -381h-303zM394 773q75 0 75 94v8h-30v-8q0 -64 -47 -64q-29 0 -74 36t-83 36q-75 0 -75 -94v-8h30v8q0 29 12.5 46.5t35.5 17.5q29 0 74 -36t82 -36z" />
    <glyph glyph-name="Adieresis" unicode="&#xc4;" horiz-adv-x="632" 
d="M624 0l-286 715h-45l-286 -715h49l92 232h334l92 -232h50zM466 271h-303l152 381zM385 827q0 -11 7.5 -18.5t18.5 -7.5t18.5 7.5t7.5 18.5t-7.5 18.5t-18.5 7.5t-18.5 -7.5t-7.5 -18.5zM194 827q0 -11 7.5 -18.5t18.5 -7.5t18.5 7.5t7.5 18.5t-7.5 18.5t-18.5 7.5
t-18.5 -7.5t-7.5 -18.5z" />
    <glyph glyph-name="Aring" unicode="&#xc5;" horiz-adv-x="632" 
d="M625 0l-279 694q71 14 71 92q0 45 -27 72t-73 27t-74 -27t-28 -72q0 -38 18.5 -61t52.5 -30l-279 -695h50l92 232h332l93 -232h51zM467 271h-303l152 381zM317 857q33 0 52.5 -19.5t19.5 -51.5q0 -33 -19.5 -52t-52.5 -19q-34 0 -54 19.5t-20 51.5t20 51.5t54 19.5z" />
    <glyph glyph-name="AE" unicode="&#xc6;" horiz-adv-x="817" 
d="M422 710l-432 -710h51l113 187h270v-187h353v43h-308v295h251v43h-251v286h294v43h-341zM424 635v-409h-246z" />
    <glyph glyph-name="Ccedilla" unicode="&#xc7;" horiz-adv-x="634" 
d="M548 537l5 -14l44 14l-4 13q-26 88 -88 131t-175 43q-132 0 -200.5 -64.5t-68.5 -181.5v-245q0 -112 64 -176.5t182 -70.5l-39 -100l17 6q17 6 37 6q69 0 69 -49q0 -31 -21 -48.5t-58 -17.5q-46 0 -81 26l-9 7l3 -35l8 -5q34 -22 83 -22q51 0 81 24t31 69
q1 34 -21.5 54.5t-64.5 20.5q-21 0 -32 -4l25 68q114 1 174 45.5t86 132.5l3 13l-43 16l-4 -13q-12 -39 -30 -67.5t-44 -47t-62.5 -27.5t-84.5 -9q-108 0 -165.5 53.5t-57.5 149.5v247q0 97 57 149.5t166 52.5q47 0 82.5 -8.5t62 -26t44 -44.5t29.5 -65z" />
    <glyph glyph-name="Egrave" unicode="&#xc8;" horiz-adv-x="570" 
d="M530 0v43h-402v295h344v43h-344v286h388v43h-434v-710h448zM216 896l-27 -29l201 -109l20 23z" />
    <glyph glyph-name="Eacute" unicode="&#xc9;" horiz-adv-x="570" 
d="M530 0v43h-402v295h344v43h-344v286h388v43h-434v-710h448zM382 903l-191 -121l20 -23l198 113z" />
    <glyph glyph-name="Ecircumflex" unicode="&#xca;" horiz-adv-x="570" 
d="M516 667v43h-434v-710h448v43h-402v295h344v43h-344v286h388zM127 764h47l125 102l123 -102h49l-158 133h-27z" />
    <glyph glyph-name="Edieresis" unicode="&#xcb;" horiz-adv-x="570" 
d="M472 338v43h-344v286h388v43h-434v-710h448v43h-402v295h344zM368 827q0 -11 7.5 -19t18.5 -8t19 8t8 19t-8 18.5t-19 7.5t-18.5 -7.5t-7.5 -18.5zM204 853q-11 0 -18.5 -7.5t-7.5 -18.5t7.5 -19t18.5 -8t19 8t8 19t-8 18.5t-19 7.5z" />
    <glyph glyph-name="Igrave" unicode="&#xcc;" horiz-adv-x="210" 
d="M83 710v-710h46v710h-46zM196 758l20 23l-194 115l-27 -29z" />
    <glyph glyph-name="Iacute" unicode="&#xcd;" horiz-adv-x="210" 
d="M82 710v-710h46v710h-46zM215 872l-27 31l-191 -121l20 -23z" />
    <glyph glyph-name="Icircumflex" unicode="&#xce;" horiz-adv-x="210" 
d="M82 710v-710h46v710h-46zM-20 764l125 102l123 -102h49l-158 133h-27l-159 -133h47z" />
    <glyph glyph-name="Idieresis" unicode="&#xcf;" horiz-adv-x="210" 
d="M82 710v-710h46v710h-46zM174 827q0 -11 7.5 -18.5t18.5 -7.5t18.5 7.5t7.5 18.5t-7.5 18.5t-18.5 7.5t-18.5 -7.5t-7.5 -18.5zM9 801q11 0 18.5 7.5t7.5 18.5t-7.5 18.5t-18.5 7.5t-18.5 -7.5t-7.5 -18.5t7.5 -18.5t18.5 -7.5z" />
    <glyph glyph-name="Eth" unicode="&#xd0;" horiz-adv-x="655" 
d="M599 446q0 124 -75.5 194t-214.5 70h-218v-336h-90v-33h90v-341h218q139 0 214.5 70t75.5 194v182zM138 374v293h171q118 0 181 -57.5t63 -163.5v-182q0 -106 -63 -163.5t-181 -57.5h-171v298h201v33h-201z" />
    <glyph glyph-name="Ntilde" unicode="&#xd1;" horiz-adv-x="688" 
d="M606 710h-45v-624l-437 624h-42v-710h45v624l438 -624h41v710zM468 875v-8q0 -64 -47 -64q-29 0 -74 36t-83 36q-75 0 -75 -94v-8h30v8q0 29 12.5 46.5t35.5 17.5q29 0 74 -36t82 -36q75 0 75 94v8h-30z" />
    <glyph glyph-name="Ograve" unicode="&#xd2;" horiz-adv-x="660" 
d="M599 233v244q0 117 -69 182t-199 65q-131 0 -200.5 -65t-69.5 -182v-244q0 -117 69.5 -182t200.5 -65q130 0 199 65t69 182zM107 477q0 97 57.5 150.5t166.5 53.5q108 0 165 -53.5t57 -150.5v-244q0 -97 -57 -150.5t-165 -53.5q-109 0 -166.5 53.5t-57.5 150.5v244z
M247 905l-27 -29l201 -109l20 23z" />
    <glyph glyph-name="Oacute" unicode="&#xd3;" horiz-adv-x="660" 
d="M599 233v244q0 117 -69 182t-199 65q-131 0 -200.5 -65t-69.5 -182v-244q0 -117 69.5 -182t200.5 -65q130 0 199 65t69 182zM107 477q0 97 57.5 150.5t166.5 53.5q108 0 165 -53.5t57 -150.5v-244q0 -97 -57 -150.5t-165 -53.5q-109 0 -166.5 53.5t-57.5 150.5v244z
M222 793l20 -23l198 113l-27 31z" />
    <glyph glyph-name="Ocircumflex" unicode="&#xd4;" horiz-adv-x="660" 
d="M599 233v244q0 117 -69 182t-199 65q-131 0 -200.5 -65t-69.5 -182v-244q0 -117 69.5 -182t200.5 -65q130 0 199 65t69 182zM553 233q0 -97 -57 -150.5t-165 -53.5q-109 0 -166.5 53.5t-57.5 150.5v244q0 97 57.5 150.5t166.5 53.5q108 0 165 -53.5t57 -150.5v-244z
M318 907l-159 -133h47l125 102l123 -102h49l-158 133h-27z" />
    <glyph glyph-name="Otilde" unicode="&#xd5;" horiz-adv-x="660" 
d="M599 233v244q0 117 -69 182t-199 65q-131 0 -200.5 -65t-69.5 -182v-244q0 -117 69.5 -182t200.5 -65q130 0 199 65t69 182zM553 233q0 -97 -57 -150.5t-165 -53.5q-109 0 -166.5 53.5t-57.5 150.5v244q0 97 57.5 150.5t166.5 53.5q108 0 165 -53.5t57 -150.5v-244z
M407 813q-29 0 -74 36t-83 36q-75 0 -75 -94v-8h30v8q0 29 12.5 46.5t35.5 17.5q29 0 74 -36t82 -36q75 0 75 94v8h-30v-8q0 -64 -47 -64z" />
    <glyph glyph-name="Odieresis" unicode="&#xd6;" horiz-adv-x="660" 
d="M599 233v244q0 117 -69 182t-199 65q-131 0 -200.5 -65t-69.5 -182v-244q0 -117 69.5 -182t200.5 -65q130 0 199 65t69 182zM553 233q0 -97 -57 -150.5t-165 -53.5q-109 0 -166.5 53.5t-57.5 150.5v244q0 97 57.5 150.5t166.5 53.5q108 0 165 -53.5t57 -150.5v-244z
M235 863q-11 0 -18.5 -7.5t-7.5 -18.5t7.5 -18.5t18.5 -7.5t18.5 7.5t7.5 18.5t-7.5 18.5t-18.5 7.5zM452 837q0 11 -7.5 18.5t-18.5 7.5t-18.5 -7.5t-7.5 -18.5t7.5 -18.5t18.5 -7.5t18.5 7.5t7.5 18.5z" />
    <glyph glyph-name="multiply" unicode="&#xd7;" horiz-adv-x="504" 
d="M58 490l166 -166l-166 -166l28 -28l166 166l166 -167l28 28l-166 167l166 166l-28 28l-166 -166l-166 166z" />
    <glyph glyph-name="Oslash" unicode="&#xd8;" horiz-adv-x="660" 
d="M599 477q0 106 -57 169l66 103h-40l-52 -81q-68 56 -185 56q-131 0 -200.5 -65t-69.5 -182v-244q0 -113 64 -177l-63 -99h40l50 78q65 -49 179 -49q130 0 199 65t69 182v244zM107 477q0 97 57.5 150.5t166.5 53.5q104 0 161 -51l-339 -529q-46 49 -46 132v244zM331 29
q-98 0 -155 45l338 527q39 -46 39 -124v-244q0 -97 -57 -150.5t-165 -53.5z" />
    <glyph glyph-name="Ugrave" unicode="&#xd9;" horiz-adv-x="679" 
d="M76 240q0 -120 66.5 -187.5t197.5 -67.5q130 0 196.5 67.5t66.5 187.5v470h-46v-470q0 -100 -55 -156t-162 -56q-109 0 -163.5 56t-54.5 156v470h-46v-470zM229 867l201 -109l20 23l-194 115z" />
    <glyph glyph-name="Uacute" unicode="&#xda;" horiz-adv-x="679" 
d="M122 710h-46v-470q0 -120 66.5 -187.5t197.5 -67.5q130 0 196.5 67.5t66.5 187.5v470h-46v-470q0 -100 -55 -156t-162 -56q-109 0 -163.5 56t-54.5 156v470zM422 903l-191 -121l20 -23l198 113z" />
    <glyph glyph-name="Ucircumflex" unicode="&#xdb;" horiz-adv-x="679" 
d="M603 710h-46v-470q0 -100 -55 -156t-162 -56q-109 0 -163.5 56t-54.5 156v470h-46v-470q0 -120 66.5 -187.5t197.5 -67.5q130 0 196.5 67.5t66.5 187.5v470zM168 764h47l125 102l123 -102h49l-158 133h-27z" />
    <glyph glyph-name="Udieresis" unicode="&#xdc;" horiz-adv-x="679" 
d="M603 240v470h-46v-470q0 -100 -55 -156t-162 -56q-109 0 -163.5 56t-54.5 156v470h-46v-470q0 -120 66.5 -187.5t197.5 -67.5q130 0 196.5 67.5t66.5 187.5zM409 827q0 -11 7.5 -18.5t18.5 -7.5t18.5 7.5t7.5 18.5t-7.5 18.5t-18.5 7.5t-18.5 -7.5t-7.5 -18.5zM244 853
q-11 0 -18.5 -7.5t-7.5 -18.5t7.5 -18.5t18.5 -7.5t18.5 7.5t7.5 18.5t-7.5 18.5t-18.5 7.5z" />
    <glyph glyph-name="Yacute" unicode="&#xdd;" horiz-adv-x="619" 
d="M7 710l279 -417v-293h46v292l279 418h-57l-244 -370l-245 370h-58zM222 760l198 113l-27 31l-191 -121z" />
    <glyph glyph-name="Thorn" unicode="&#xde;" horiz-adv-x="616" 
d="M82 0h46v133h226q53 0 95.5 15.5t72.5 45t46.5 71.5t16.5 94q0 53 -16.5 95t-46.5 71.5t-72.5 45.5t-95.5 16h-226v123h-46v-710zM350 544q86 0 136.5 -50t50.5 -135t-50.5 -134t-136.5 -49h-222v368h222z" />
    <glyph glyph-name="germandbls" unicode="&#xdf;" 
d="M503 204q0 73 -32 119.5t-92 63.5v1q50 19 74 65t24 98q0 199 -205 199q-97 0 -149 -59.5t-52 -162.5v-528h43v528q0 85 40 132.5t118 47.5q161 0 161 -161q0 -27 -8 -52.5t-24.5 -45.5t-40.5 -32t-57 -12h-106v-42h109q72 0 111.5 -41.5t39.5 -113.5q0 -82 -41 -124
t-119 -42h-104v-42h108q99 0 150.5 51t51.5 153z" />
    <glyph glyph-name="agrave" unicode="&#xe0;" horiz-adv-x="509" 
d="M257 289q-58 0 -99.5 -8t-67.5 -26t-38 -47t-12 -70q0 -40 10 -68.5t35 -47t66 -27.5t102 -9q101 0 159 26l36 15v305q0 44 -10 80t-32.5 61.5t-60 39.5t-91.5 14q-141 0 -197 -106l-6 -13l39 -15l5 10q46 85 157 85q44 0 73.5 -10.5t47 -30.5t25 -49t7.5 -65v-55
q-53 5 -89.5 8t-58.5 3zM382 41q-50 -19 -132 -19q-48 0 -80 7t-51 21.5t-27 36.5t-8 52q0 31 9 52.5t29 35t52.5 20t78.5 6.5q21 0 59 -3t93 -8v-191zM339 580l21 23l-192 121l-25 -30z" />
    <glyph glyph-name="aacute" unicode="&#xe1;" horiz-adv-x="509" 
d="M257 289q-58 0 -99.5 -8t-67.5 -26t-38 -47t-12 -70q0 -40 10 -68.5t35 -47t66 -27.5t102 -9q101 0 159 26l36 15v305q0 44 -10 80t-32.5 61.5t-60 39.5t-91.5 14q-141 0 -197 -106l-6 -13l39 -15l5 10q46 85 157 85q44 0 73.5 -10.5t47 -30.5t25 -49t7.5 -65v-55
q-53 5 -89.5 8t-58.5 3zM382 41q-50 -19 -132 -19q-48 0 -80 7t-51 21.5t-27 36.5t-8 52q0 31 9 52.5t29 35t52.5 20t78.5 6.5q21 0 59 -3t93 -8v-191zM360 695l-25 30l-192 -121l21 -23z" />
    <glyph glyph-name="acircumflex" unicode="&#xe2;" horiz-adv-x="509" 
d="M448 332q0 44 -10 80t-32.5 61.5t-60 39.5t-91.5 14q-141 0 -197 -106l-6 -13l39 -15l5 10q46 85 157 85q44 0 73.5 -10.5t47 -30.5t25 -49t7.5 -65v-55q-53 5 -89.5 8t-58.5 3q-58 0 -99.5 -8t-67.5 -26t-38 -47t-12 -70q0 -40 10 -68.5t35 -47t66 -27.5t102 -9
q101 0 159 26l36 15v305zM405 51l-23 -10q-50 -19 -132 -19q-48 0 -80 7t-51 21.5t-27 36.5t-8 52q0 31 9 52.5t29 35t52.5 20t78.5 6.5q21 0 59 -3t93 -8v-191zM374 579h49l-158 133h-27l-159 -133h47l125 102z" />
    <glyph glyph-name="atilde" unicode="&#xe3;" horiz-adv-x="509" 
d="M95 403q46 85 157 85q44 0 73.5 -10.5t47 -30.5t25 -49t7.5 -65v-55q-53 5 -89.5 8t-58.5 3q-58 0 -99.5 -8t-67.5 -26t-38 -47t-12 -70q0 -40 10 -68.5t35 -47t66 -27.5t102 -9q101 0 159 26l36 15v305q0 44 -10 80t-32.5 61.5t-60 39.5t-91.5 14q-141 0 -197 -106
l-6 -13l39 -15zM382 41q-50 -19 -132 -19q-48 0 -80 7t-51 21.5t-27 36.5t-8 52q0 31 9 52.5t29 35t52.5 20t78.5 6.5q21 0 59 -3t93 -8v-191zM374 689q0 -64 -47 -64q-29 0 -74 36t-83 36q-75 0 -75 -94v-8h30v8q0 29 12.5 46.5t35.5 17.5q29 0 74 -36t82 -36q75 0 75 94v8
h-30v-8z" />
    <glyph glyph-name="adieresis" unicode="&#xe4;" horiz-adv-x="509" 
d="M448 332q0 44 -10 80t-32.5 61.5t-60 39.5t-91.5 14q-141 0 -197 -106l-6 -13l39 -15l5 10q46 85 157 85q44 0 73.5 -10.5t47 -30.5t25 -49t7.5 -65v-55q-53 5 -89.5 8t-58.5 3q-58 0 -99.5 -8t-67.5 -26t-38 -47t-12 -70q0 -40 10 -68.5t35 -47t66 -27.5t102 -9
q101 0 159 26l36 15v305zM382 41q-50 -19 -132 -19q-48 0 -80 7t-51 21.5t-27 36.5t-8 52q0 31 9 52.5t29 35t52.5 20t78.5 6.5q21 0 59 -3t93 -8v-191zM129 650q0 -11 7.5 -18.5t18.5 -7.5t18.5 7.5t7.5 18.5t-7.5 18.5t-18.5 7.5t-18.5 -7.5t-7.5 -18.5zM320 650
q0 -11 7.5 -18.5t18.5 -7.5t18.5 7.5t7.5 18.5t-7.5 18.5t-18.5 7.5t-18.5 -7.5t-7.5 -18.5z" />
    <glyph glyph-name="aring" unicode="&#xe5;" horiz-adv-x="509" 
d="M405 278q-53 5 -89.5 8t-58.5 3q-58 0 -99.5 -8t-67.5 -26t-38 -47t-12 -70q0 -40 10 -68.5t35 -47t66 -27.5t102 -9q101 0 159 26l36 15v305q0 44 -10 80t-32.5 61.5t-60 39.5t-91.5 14q-141 0 -197 -106l-6 -13l39 -15l5 10q46 85 157 85q44 0 73.5 -10.5t47 -30.5
t25 -49t7.5 -65v-55zM382 41q-50 -19 -132 -19q-48 0 -80 7t-51 21.5t-27 36.5t-8 52q0 31 9 52.5t29 35t52.5 20t78.5 6.5q21 0 59 -3t93 -8v-191zM254 776q-45 0 -72 -26t-27 -69q0 -45 28 -69.5t71 -24.5t69 25.5t26 68.5t-25 69t-70 26zM262 752q22 0 37 -13.5t21 -33
t2.5 -40t-17.5 -34.5q-21 -19 -51 -19q-34 0 -54 18.5t-20 50.5q0 38 24 54.5t58 16.5z" />
    <glyph glyph-name="ae" unicode="&#xe6;" horiz-adv-x="783" 
d="M51 410l39 -16l6 10q45 84 136 84q38 0 63 -10t39.5 -29t20.5 -47t6 -64v-62q-60 12 -124 12q-54 0 -91.5 -8t-60.5 -26t-33.5 -47t-10.5 -71q0 -39 9.5 -67.5t31.5 -46.5t59 -27t92 -9q120 0 164 71q40 -71 149 -71q37 0 64.5 7t49 21t38 35.5t31.5 49.5l6 11l-37 20
l-8 -15q-13 -24 -26.5 -41.5t-30 -28.5t-37.5 -16.5t-50 -5.5q-142 0 -142 155v69h334v75q0 205 -189 205q-127 0 -163 -102q-30 102 -153 102q-119 0 -175 -105zM232 252q66 0 129 -12v-71q0 -42 9 -75q-24 -72 -141 -72q-42 0 -69.5 6.5t-44 20.5t-23.5 35.5t-7 51.5
q0 63 32.5 89.5t114.5 26.5zM549 489q146 0 146 -165v-42h-291v42q0 165 145 165z" />
    <glyph glyph-name="ccedilla" unicode="&#xe7;" horiz-adv-x="513" 
d="M437 156l-4 -13q-17 -61 -57.5 -89.5t-111.5 -28.5q-81 0 -125 41t-44 113v156q0 72 42.5 112.5t126.5 40.5q73 0 111.5 -27t56.5 -86l3 -13l40 14l-4 14q-39 137 -205 137q-106 0 -159.5 -51t-53.5 -143v-153q0 -90 50 -140t147 -54l-38 -101l17 7q15 6 37 6
q68 0 68 -49q0 -32 -20.5 -49t-57.5 -17q-50 0 -82 26l-7 5v-33l9 -5q35 -22 84 -22q50 0 80 24t32 69q1 34 -22.5 54.5t-63.5 20.5q-11 0 -18.5 -1t-13.5 -3l25 68q154 6 196 144l3 12z" />
    <glyph glyph-name="egrave" unicode="&#xe8;" horiz-adv-x="527" 
d="M438 120q-54 -97 -177 -97q-82 0 -124.5 41t-42.5 115v68h389v73q0 95 -55 151t-161 56t-161 -55.5t-55 -153.5v-135q0 -93 52.5 -145t157.5 -52q152 0 213 113l6 13l-36 20zM94 282v40q0 78 44 122.5t129 44.5t129 -44.5t44 -122.5v-40h-346zM159 695l196 -114l21 23
l-192 121z" />
    <glyph glyph-name="eacute" unicode="&#xe9;" horiz-adv-x="527" 
d="M438 120q-54 -97 -177 -97q-82 0 -124.5 41t-42.5 115v68h389v73q0 95 -55 151t-161 56t-161 -55.5t-55 -153.5v-135q0 -93 52.5 -145t157.5 -52q152 0 213 113l6 13l-36 20zM94 282v40q0 78 44 122.5t129 44.5t129 -44.5t44 -122.5v-40h-346zM351 725l-192 -121l21 -23
l196 114z" />
    <glyph glyph-name="ecircumflex" unicode="&#xea;" horiz-adv-x="527" 
d="M483 320q0 95 -55 151t-161 56t-161 -55.5t-55 -153.5v-135q0 -93 52.5 -145t157.5 -52q152 0 213 113l6 13l-36 20l-6 -12q-54 -97 -177 -97q-82 0 -124.5 41t-42.5 115v68h389v73zM440 282h-346v40q0 78 44 122.5t129 44.5t129 -44.5t44 -122.5v-40zM387 578h48
l-155 130h-26l-155 -130h45l123 100z" />
    <glyph glyph-name="edieresis" unicode="&#xeb;" horiz-adv-x="527" 
d="M483 320q0 95 -55 151t-161 56t-161 -55.5t-55 -153.5v-135q0 -93 52.5 -145t157.5 -52q152 0 213 113l6 13l-36 20l-6 -12q-54 -97 -177 -97q-82 0 -124.5 41t-42.5 115v68h389v73zM440 282h-346v40q0 78 44 122.5t129 44.5t129 -44.5t44 -122.5v-40zM171 677
q-11 0 -18.5 -7.5t-7.5 -18.5t7.5 -18.5t18.5 -7.5t18.5 7.5t7.5 18.5t-7.5 18.5t-18.5 7.5zM336 651q0 -11 7.5 -18.5t18.5 -7.5t18.5 7.5t7.5 18.5t-7.5 18.5t-18.5 7.5t-18.5 -7.5t-7.5 -18.5z" />
    <glyph glyph-name="igrave" unicode="&#xec;" horiz-adv-x="183" 
d="M113 512h-43v-512h43v512zM165 579l19 23l-154 119l-25 -31z" />
    <glyph glyph-name="iacute" unicode="&#xed;" horiz-adv-x="183" 
d="M113 512h-43v-512h43v512zM181 691l-26 29l-154 -118l18 -22z" />
    <glyph glyph-name="icircumflex" unicode="&#xee;" horiz-adv-x="183" 
d="M70 0h43v512h-43v-512zM4 585l87 95l87 -95h45l-116 125h-31l-117 -125h45z" />
    <glyph glyph-name="idieresis" unicode="&#xef;" horiz-adv-x="183" 
d="M70 512v-512h43v512h-43zM135 665q0 -11 7.5 -18.5t18.5 -7.5t18.5 7.5t7.5 18.5t-7.5 18.5t-18.5 7.5t-18.5 -7.5t-7.5 -18.5zM21 639q11 0 18.5 7.5t7.5 18.5t-7.5 18.5t-18.5 7.5t-18.5 -7.5t-7.5 -18.5t7.5 -18.5t18.5 -7.5z" />
    <glyph glyph-name="eth" unicode="&#xf0;" horiz-adv-x="550" 
d="M485 401q0 186 -90 267l60 65l-23 19l-62 -65q-82 54 -227 54h-12v-40h13q126 0 197 -47l-82 -86l24 -17l84 87q73 -67 76 -224q-42 91 -181 91q-102 0 -156 -50.5t-54 -139.5v-140q0 -91 55 -140t162 -49q106 0 161 49.5t55 139.5v226zM442 175q0 -72 -44 -111t-129 -39
q-86 0 -130 39t-44 111v140q0 72 44 111.5t130 39.5q85 0 129 -39.5t44 -110.5v-141z" />
    <glyph glyph-name="ntilde" unicode="&#xf1;" 
d="M481 0v334q0 193 -194 193q-97 0 -181 -33l-38 -15v-479h43v453l21 8q70 26 150 26q156 0 156 -155v-332h43zM395 689q0 -64 -47 -64q-29 0 -74 36t-83 36q-75 0 -75 -94v-8h30v8q0 29 12.5 46.5t35.5 17.5q29 0 74 -36t82 -36q75 0 75 94v8h-30v-8z" />
    <glyph glyph-name="ograve" unicode="&#xf2;" horiz-adv-x="537" 
d="M483 161v190q0 82 -58 129t-157 47q-49 0 -88.5 -12.5t-67.5 -35t-43 -55t-15 -73.5v-190q0 -40 15 -72.5t43 -55.5t67.5 -35t88.5 -12q99 0 157 47t58 128zM97 352q0 63 46.5 99.5t124.5 36.5t125 -36.5t47 -99.5v-191q0 -63 -47 -99.5t-125 -36.5t-124.5 36.5
t-46.5 99.5v191zM184 724l-25 -30l197 -114l20 24z" />
    <glyph glyph-name="oacute" unicode="&#xf3;" horiz-adv-x="537" 
d="M483 161v190q0 82 -58 129t-157 47q-49 0 -88.5 -12.5t-67.5 -35t-43 -55t-15 -73.5v-190q0 -40 15 -72.5t43 -55.5t67.5 -35t88.5 -12q99 0 157 47t58 128zM97 352q0 63 46.5 99.5t124.5 36.5t125 -36.5t47 -99.5v-191q0 -63 -47 -99.5t-125 -36.5t-124.5 36.5
t-46.5 99.5v191zM160 604l20 -24l197 114l-25 30z" />
    <glyph glyph-name="ocircumflex" unicode="&#xf4;" horiz-adv-x="537" 
d="M483 161v190q0 82 -58 129t-157 47q-49 0 -88.5 -12.5t-67.5 -35t-43 -55t-15 -73.5v-190q0 -40 15 -72.5t43 -55.5t67.5 -35t88.5 -12q99 0 157 47t58 128zM440 161q0 -63 -47 -99.5t-125 -36.5t-124.5 36.5t-46.5 99.5v191q0 63 46.5 99.5t124.5 36.5t125 -36.5
t47 -99.5v-191zM255 707l-155 -130h46l122 100l120 -100h48l-154 130h-27z" />
    <glyph glyph-name="otilde" unicode="&#xf5;" horiz-adv-x="537" 
d="M483 161v190q0 82 -58 129t-157 47q-49 0 -88.5 -12.5t-67.5 -35t-43 -55t-15 -73.5v-190q0 -40 15 -72.5t43 -55.5t67.5 -35t88.5 -12q99 0 157 47t58 128zM440 161q0 -63 -47 -99.5t-125 -36.5t-124.5 36.5t-46.5 99.5v191q0 63 46.5 99.5t124.5 36.5t125 -36.5
t47 -99.5v-191zM344 625q-29 0 -74 36t-83 36q-75 0 -75 -94v-8h30v8q0 29 12.5 46.5t35.5 17.5q29 0 74 -36t82 -36q75 0 75 94v8h-30v-8q0 -64 -47 -64z" />
    <glyph glyph-name="odieresis" unicode="&#xf6;" horiz-adv-x="537" 
d="M483 161v190q0 82 -58 129t-157 47q-49 0 -88.5 -12.5t-67.5 -35t-43 -55t-15 -73.5v-190q0 -40 15 -72.5t43 -55.5t67.5 -35t88.5 -12q99 0 157 47t58 128zM440 161q0 -63 -47 -99.5t-125 -36.5t-124.5 36.5t-46.5 99.5v191q0 63 46.5 99.5t124.5 36.5t125 -36.5
t47 -99.5v-191zM147 649q0 -11 7.5 -18.5t18.5 -7.5t19 7.5t8 18.5t-8 19t-19 8t-18.5 -8t-7.5 -19zM390 649q0 11 -8 19t-19 8t-18.5 -8t-7.5 -19t7.5 -18.5t18.5 -7.5t19 7.5t8 18.5z" />
    <glyph glyph-name="divide" unicode="&#xf7;" horiz-adv-x="591" 
d="M531 304v41h-471v-41h471zM266 526q0 -12 8.5 -20.5t20.5 -8.5t21 8.5t9 20.5t-9 21t-21 9t-20.5 -9t-8.5 -21zM266 124q0 -12 8.5 -20.5t20.5 -8.5t21 8.5t9 20.5t-9 21t-21 9t-20.5 -9t-8.5 -21z" />
    <glyph glyph-name="oslash" unicode="&#xf8;" horiz-adv-x="537" 
d="M483 351q0 80 -56 128l46 73h-33l-37 -58q-54 33 -135 33q-49 0 -88.5 -12.5t-67.5 -35t-43 -55t-15 -73.5v-190q0 -80 57 -128l-43 -68h32l35 53q51 -32 133 -32q99 0 157 47t58 128v190zM137 73q-40 33 -40 88v191q0 62 46.5 99t124.5 37q64 0 113 -29zM440 161
q0 -63 -47 -99.5t-125 -36.5q-65 0 -112 27l245 386q39 -33 39 -86v-191z" />
    <glyph glyph-name="ugrave" unicode="&#xf9;" 
d="M478 33v479h-43v-453l-21 -8q-67 -26 -150 -26q-155 0 -155 156v331h-43v-333q0 -193 194 -193q99 0 181 32zM164 694l196 -114l21 23l-192 121z" />
    <glyph glyph-name="uacute" unicode="&#xfa;" 
d="M478 33v479h-43v-453l-21 -8q-67 -26 -150 -26q-155 0 -155 156v331h-43v-333q0 -193 194 -193q99 0 181 32zM356 724l-192 -121l21 -23l196 114z" />
    <glyph glyph-name="ucircumflex" unicode="&#xfb;" 
d="M441 18l37 15v479h-43v-453l-21 -8q-67 -26 -150 -26q-155 0 -155 156v331h-43v-333q0 -193 194 -193q99 0 181 32zM259 712l-159 -133h47l125 102l123 -102h49l-158 133h-27z" />
    <glyph glyph-name="udieresis" unicode="&#xfc;" 
d="M435 512v-453l-21 -8q-67 -26 -150 -26q-155 0 -155 156v331h-43v-333q0 -193 194 -193q99 0 181 32l37 15v479h-43zM367 676q-11 0 -18.5 -8t-7.5 -19t7.5 -18.5t18.5 -7.5t19 7.5t8 18.5t-8 19t-19 8zM151 649q0 -11 7.5 -18.5t18.5 -7.5t19 7.5t8 18.5t-8 19t-19 8
t-18.5 -8t-7.5 -19z" />
    <glyph glyph-name="yacute" unicode="&#xfd;" horiz-adv-x="549" 
d="M478 512h-43v-446q-84 -34 -171 -34q-155 0 -155 156v324h-43v-326q0 -193 194 -193q87 0 175 33v-65q0 -175 -166 -175q-109 0 -157 95l-6 11l-37 -20l6 -12q57 -113 195 -113q208 0 208 216v549zM381 694l-25 30l-192 -121l21 -23z" />
    <glyph glyph-name="thorn" unicode="&#xfe;" horiz-adv-x="537" 
d="M483 321q0 199 -206 199q-83 0 -163 -36v256h-43v-960h43v248q89 -43 173 -43q196 0 196 195v141zM114 442q74 38 159 38q167 0 167 -160v-139q0 -157 -155 -157q-88 0 -171 45v373z" />
    <glyph glyph-name="ydieresis" unicode="&#xff;" horiz-adv-x="549" 
d="M478 -37v549h-43v-446q-84 -34 -171 -34q-155 0 -155 156v324h-43v-326q0 -193 194 -193q87 0 175 33v-65q0 -175 -166 -175q-109 0 -157 95l-6 11l-37 -20l6 -12q57 -113 195 -113q208 0 208 216zM177 676q-11 0 -18.5 -8t-7.5 -19t7.5 -18.5t18.5 -7.5t19 7.5t8 18.5
t-8 19t-19 8zM367 676q-11 0 -18.5 -8t-7.5 -19t7.5 -18.5t18.5 -7.5t19 7.5t8 18.5t-8 19t-19 8z" />
    <glyph glyph-name="Amacron" unicode="&#x100;" horiz-adv-x="632" 
d="M338 715h-45l-286 -715h49l92 232h334l92 -232h50zM315 652l151 -381h-303zM446 839h-260v-33h260v33z" />
    <glyph glyph-name="amacron" unicode="&#x101;" horiz-adv-x="509" 
d="M257 289q-58 0 -99.5 -8t-67.5 -26t-38 -47t-12 -70q0 -40 10 -68.5t35 -47t66 -27.5t102 -9q101 0 159 26l36 15v305q0 44 -10 80t-32.5 61.5t-60 39.5t-91.5 14q-141 0 -197 -106l-6 -13l39 -15l5 10q46 85 157 85q44 0 73.5 -10.5t47 -30.5t25 -49t7.5 -65v-55
q-53 5 -89.5 8t-58.5 3zM382 41q-50 -19 -132 -19q-48 0 -80 7t-51 21.5t-27 36.5t-8 52q0 31 9 52.5t29 35t52.5 20t78.5 6.5q21 0 59 -3t93 -8v-191zM381 626v32h-260v-32h260z" />
    <glyph glyph-name="Abreve" unicode="&#x102;" horiz-adv-x="632" 
d="M624 0l-286 715h-45l-286 -715h49l92 232h334l92 -232h50zM315 652l151 -381h-303zM468 884l-34 12l-2 -8q-25 -90 -116 -90q-90 0 -116 90l-2 9l-34 -13l2 -8q31 -112 150 -112t150 112z" />
    <glyph glyph-name="abreve" unicode="&#x103;" horiz-adv-x="509" 
d="M405 278q-53 5 -89.5 8t-58.5 3q-58 0 -99.5 -8t-67.5 -26t-38 -47t-12 -70q0 -40 10 -68.5t35 -47t66 -27.5t102 -9q101 0 159 26l36 15v305q0 44 -10 80t-32.5 61.5t-60 39.5t-91.5 14q-141 0 -197 -106l-6 -13l39 -15l5 10q46 85 157 85q44 0 73.5 -10.5t47 -30.5
t25 -49t7.5 -65v-55zM382 41q-50 -19 -132 -19q-48 0 -80 7t-51 21.5t-27 36.5t-8 52q0 31 9 52.5t29 35t52.5 20t78.5 6.5q21 0 59 -3t93 -8v-191zM401 695l2 8l-34 12l-2 -8q-25 -90 -116 -90q-90 0 -116 90l-2 9l-34 -13l2 -8q31 -112 150 -112t150 112z" />
    <glyph glyph-name="Aogonek" unicode="&#x104;" horiz-adv-x="631" 
d="M338 715h-44l-286 -715h48l95 240h329l92 -235h12q-66 -52 -94.5 -107.5t-14.5 -97.5q15 -47 71 -47q50 0 87 35l4 4l-10 29l-6 -6q-27 -28 -64 -28q-33 0 -44 32q-6 15 -1.5 37t18.5 46t36 49.5t50 48.5l7 5zM464 279h-298l150 378z" />
    <glyph glyph-name="aogonek" unicode="&#x105;" horiz-adv-x="511" 
d="M448 332q0 45 -10 81t-32.5 61.5t-60 39t-91.5 13.5q-142 0 -197 -106l-6 -12l39 -15l5 9q45 85 157 85q44 0 73.5 -10.5t47 -30.5t25 -49t7.5 -65v-55q-53 5 -89.5 8t-58.5 3q-58 0 -99.5 -8t-67.5 -26t-38 -46.5t-12 -70.5q0 -39 10 -68t35 -47.5t66 -27.5t102 -9
q71 0 123 15q-25 -24 -44 -51t-30.5 -54t-14.5 -52t3 -44q14 -47 71 -47q51 0 87 36l4 4l-10 28l-6 -6q-25 -27 -62 -27q-36 0 -46 31q-12 33 18 94q15 30 37 58t51 53l14 12v296zM84 139q0 62 38 88t131 26q21 0 59 -3t93 -8v-191l-23 -9q-52 -20 -132 -20q-48 0 -80 7
t-51 21.5t-27 36.5t-8 52z" />
    <glyph glyph-name="Cacute" unicode="&#x106;" horiz-adv-x="634" 
d="M599 177l-44 16l-4 -13q-12 -39 -30 -67.5t-44 -47t-62.5 -27.5t-84.5 -9q-108 0 -165.5 53.5t-57.5 149.5v247q0 97 57 149.5t166 52.5q95 0 145 -34.5t73 -109.5l5 -14l44 14l-4 13q-26 88 -88 131t-175 43q-132 0 -200.5 -64.5t-68.5 -181.5v-245q0 -117 69.5 -182
t199.5 -65q115 0 176.5 44t88.5 135zM223 783l20 -24l197 114l-25 30z" />
    <glyph glyph-name="cacute" unicode="&#x107;" horiz-adv-x="513" 
d="M478 142l-41 14l-3 -12q-17 -62 -58 -90.5t-112 -28.5q-81 0 -125 41t-44 113v156q0 72 42.5 112.5t126.5 40.5q73 0 111.5 -27t56.5 -86l3 -13l40 14l-4 14q-39 137 -205 137q-106 0 -159.5 -51t-53.5 -143v-153q0 -93 53.5 -143.5t157.5 -50.5q166 0 211 144zM350 724
l-192 -120l20 -24l197 114z" />
    <glyph glyph-name="Ccircumflex" unicode="&#x108;" horiz-adv-x="634" 
d="M548 537l5 -14l44 14l-4 13q-26 88 -88 131t-175 43q-132 0 -200.5 -64.5t-68.5 -181.5v-245q0 -117 69.5 -182t199.5 -65q115 0 176.5 44t88.5 135l4 12l-44 16l-4 -13q-12 -39 -30 -67.5t-44 -47t-62.5 -27.5t-84.5 -9q-108 0 -165.5 53.5t-57.5 149.5v247
q0 97 57 149.5t166 52.5q95 0 145 -34.5t73 -109.5zM318 897l-158 -133h46l125 102l123 -102h48l-158 133h-26z" />
    <glyph glyph-name="ccircumflex" unicode="&#x109;" horiz-adv-x="513" 
d="M432 375l3 -13l40 14l-4 14q-39 137 -205 137q-106 0 -159.5 -51t-53.5 -143v-153q0 -93 53.5 -143.5t157.5 -50.5q166 0 211 144l3 12l-41 14l-3 -12q-17 -62 -58 -90.5t-112 -28.5q-81 0 -125 41t-44 113v156q0 72 42.5 112.5t126.5 40.5q73 0 111.5 -27t56.5 -86z
M252 707l-154 -130h45l123 100l120 -100h48l-154 130h-28z" />
    <glyph glyph-name="Cdotaccent" unicode="&#x10a;" horiz-adv-x="634" 
d="M599 177l-44 16l-4 -13q-12 -39 -30 -67.5t-44 -47t-62.5 -27.5t-84.5 -9q-108 0 -165.5 53.5t-57.5 149.5v247q0 97 57 149.5t166 52.5q95 0 145 -34.5t73 -109.5l5 -14l44 14l-4 13q-26 88 -88 131t-175 43q-132 0 -200.5 -64.5t-68.5 -181.5v-245q0 -117 69.5 -182
t199.5 -65q115 0 176.5 44t88.5 135zM305 823q0 -11 7.5 -18.5t18.5 -7.5t18.5 7.5t7.5 18.5t-7.5 18.5t-18.5 7.5t-18.5 -7.5t-7.5 -18.5z" />
    <glyph glyph-name="cdotaccent" unicode="&#x10b;" horiz-adv-x="513" 
d="M478 142l-41 14l-3 -12q-17 -62 -58 -90.5t-112 -28.5q-81 0 -125 41t-44 113v156q0 72 42.5 112.5t126.5 40.5q73 0 111.5 -27t56.5 -86l3 -13l40 14l-4 14q-39 137 -205 137q-106 0 -159.5 -51t-53.5 -143v-153q0 -93 53.5 -143.5t157.5 -50.5q166 0 211 144zM266 669
q-11 0 -18.5 -7.5t-7.5 -18.5t7.5 -18.5t18.5 -7.5t18.5 7.5t7.5 18.5t-7.5 18.5t-18.5 7.5z" />
    <glyph glyph-name="Ccaron" unicode="&#x10c;" horiz-adv-x="634" 
d="M548 537l5 -14l44 14l-4 13q-26 88 -88 131t-175 43q-132 0 -200.5 -64.5t-68.5 -181.5v-245q0 -117 69.5 -182t199.5 -65q115 0 176.5 44t88.5 135l4 12l-44 16l-4 -13q-12 -39 -30 -67.5t-44 -47t-62.5 -27.5t-84.5 -9q-108 0 -165.5 53.5t-57.5 149.5v247
q0 97 57 149.5t166 52.5q95 0 145 -34.5t73 -109.5zM205 898h-48l161 -134h24l160 134h-49l-123 -102z" />
    <glyph glyph-name="ccaron" unicode="&#x10d;" horiz-adv-x="513" 
d="M432 375l3 -13l40 14l-4 14q-39 137 -205 137q-106 0 -159.5 -51t-53.5 -143v-153q0 -93 53.5 -143.5t157.5 -50.5q166 0 211 144l3 12l-41 14l-3 -12q-17 -62 -58 -90.5t-112 -28.5q-81 0 -125 41t-44 113v156q0 72 42.5 112.5t126.5 40.5q73 0 111.5 -27t56.5 -86z
M107 697l147 -124h23l146 124h-45l-113 -95l-114 95h-44z" />
    <glyph glyph-name="Dcaron" unicode="&#x10e;" horiz-adv-x="646" 
d="M589 446q0 124 -75.5 194t-214.5 70h-217v-710h217q139 0 214.5 70t75.5 194v182zM543 264q0 -106 -63.5 -163.5t-179.5 -57.5h-172v624h172q118 0 180.5 -57.5t62.5 -163.5v-182zM136 898l159 -134h25l159 134h-49l-123 -102l-125 102h-46z" />
    <glyph glyph-name="dcaron" unicode="&#x10f;" horiz-adv-x="559" 
d="M264 -14q93 0 163 29l39 16v709h-43v-251q-100 38 -177 38q-193 0 -193 -193v-146q0 -202 211 -202zM96 333q0 154 154 154q89 0 173 -39v-389l-24 -10q-57 -24 -133 -24q-170 0 -170 163v145zM546 509h32l59 231h-42z" />
    <glyph glyph-name="Dcroat" unicode="&#x110;" horiz-adv-x="655" 
d="M599 446q0 124 -75.5 194t-214.5 70h-218v-336h-90v-33h90v-341h218q139 0 214.5 70t75.5 194v182zM138 374v293h171q118 0 181 -57.5t63 -163.5v-182q0 -106 -63 -163.5t-181 -57.5h-171v298h201v33h-201z" />
    <glyph glyph-name="dcroat" unicode="&#x111;" horiz-adv-x="536" 
d="M424 491q-85 35 -177 35q-192 0 -192 -195v-146q0 -199 208 -199q91 0 161 27l43 17v588h84v29h-84v93h-43v-93h-177v-29h177v-127zM98 330q0 157 156 157q89 0 170 -38v-392l-24 -9q-63 -23 -134 -23q-168 0 -168 161v144z" />
    <glyph glyph-name="Emacron" unicode="&#x112;" horiz-adv-x="570" 
d="M530 0v43h-402v295h344v43h-344v286h388v43h-434v-710h448zM169 839v-33h260v33h-260z" />
    <glyph glyph-name="emacron" unicode="&#x113;" horiz-adv-x="527" 
d="M438 120q-54 -97 -177 -97q-82 0 -124.5 41t-42.5 115v68h389v73q0 95 -55 151t-161 56t-161 -55.5t-55 -153.5v-135q0 -93 52.5 -145t157.5 -52q152 0 213 113l6 13l-36 20zM94 282v40q0 78 44 122.5t129 44.5t129 -44.5t44 -122.5v-40h-346zM148 622h238v31h-238v-31z
" />
    <glyph glyph-name="Ebreve" unicode="&#x114;" horiz-adv-x="570" 
d="M472 338v43h-344v286h388v43h-434v-710h448v43h-402v295h344zM452 884l-34 12l-2 -8q-25 -90 -116 -90q-90 0 -116 90l-2 9l-34 -13l2 -8q31 -112 150 -112t150 112z" />
    <glyph glyph-name="ebreve" unicode="&#x115;" horiz-adv-x="527" 
d="M438 120q-54 -97 -177 -97q-82 0 -124.5 41t-42.5 115v68h389v73q0 95 -55 151t-161 56t-161 -55.5t-55 -153.5v-135q0 -93 52.5 -145t157.5 -52q152 0 213 113l6 13l-36 20zM440 282h-346v40q0 78 44 122.5t129 44.5t129 -44.5t44 -122.5v-40zM383 708q-25 -90 -116 -90
q-90 0 -116 90l-2 9l-34 -13l2 -8q31 -112 150 -112t150 112l2 8l-34 12z" />
    <glyph glyph-name="Edotaccent" unicode="&#x116;" horiz-adv-x="570" 
d="M530 0v43h-402v295h344v43h-344v286h388v43h-434v-710h448zM273 823q0 -11 7.5 -18.5t18.5 -7.5t18.5 7.5t7.5 18.5t-7.5 18.5t-18.5 7.5t-18.5 -7.5t-7.5 -18.5z" />
    <glyph glyph-name="edotaccent" unicode="&#x117;" horiz-adv-x="527" 
d="M438 120q-54 -97 -177 -97q-82 0 -124.5 41t-42.5 115v68h389v73q0 95 -55 151t-161 56t-161 -55.5t-55 -153.5v-135q0 -93 52.5 -145t157.5 -52q152 0 213 113l6 13l-36 20zM94 282v40q0 78 44 122.5t129 44.5t129 -44.5t44 -122.5v-40h-346zM267 670q-11 0 -18.5 -7.5
t-7.5 -18.5t7.5 -18.5t18.5 -7.5t18.5 7.5t7.5 18.5t-7.5 18.5t-18.5 7.5z" />
    <glyph glyph-name="Eogonek" unicode="&#x118;" horiz-adv-x="570" 
d="M525 -178l-6 -7q-25 -26 -61 -26q-35 0 -46 30q-12 32 17.5 81t95.5 101l5 4v38h-402v295h344v43h-344v286h388v43h-434v-710h404q-67 -51 -96.5 -105t-15.5 -94q15 -48 70 -48q51 0 87 35l4 5z" />
    <glyph glyph-name="eogonek" unicode="&#x119;" horiz-adv-x="527" 
d="M438 121q-54 -98 -177 -98q-82 0 -124.5 41.5t-42.5 114.5v68h389v73q0 96 -55 151.5t-161 55.5t-161 -55t-55 -154v-135q0 -93 52.5 -145t157.5 -52q61 0 107 20q-24 -28 -42.5 -57t-29.5 -56t-13.5 -51t3.5 -42q14 -47 71 -47q51 0 87 36l4 4l-11 27l-5 -5
q-28 -28 -63 -28q-17 0 -29 8t-16.5 24t-0.5 40.5t19 57.5q30 65 87 124q25 22 44 57l7 14l-36 21zM94 322q0 78 44 122.5t129 44.5t129 -44.5t44 -122.5v-40h-346v40z" />
    <glyph glyph-name="Ecaron" unicode="&#x11a;" horiz-adv-x="570" 
d="M516 667v43h-434v-710h448v43h-402v295h344v43h-344v286h388zM125 898l161 -134h24l160 134h-49l-123 -102l-125 102h-48z" />
    <glyph glyph-name="ecaron" unicode="&#x11b;" horiz-adv-x="527" 
d="M483 320q0 95 -55 151t-161 56t-161 -55.5t-55 -153.5v-135q0 -93 52.5 -145t157.5 -52q152 0 213 113l6 13l-36 20l-6 -12q-54 -97 -177 -97q-82 0 -124.5 41t-42.5 115v68h389v73zM440 282h-346v40q0 78 44 122.5t129 44.5t129 -44.5t44 -122.5v-40zM424 697h-45
l-113 -95l-114 95h-44l147 -124h23z" />
    <glyph glyph-name="Gcircumflex" unicode="&#x11c;" horiz-adv-x="651" 
d="M599 227v131h-272v-44h227v-87q0 -93 -57.5 -145.5t-165.5 -52.5q-109 0 -166.5 54t-57.5 151v245q0 97 56 149.5t167 52.5q47 0 82.5 -8.5t62 -26t44 -44.5t29.5 -65l5 -14l44 14l-4 14q-26 88 -88 130.5t-175 42.5q-132 0 -200.5 -64.5t-68.5 -181.5v-244
q0 -117 69.5 -182.5t200.5 -65.5q64 0 114 17t84 48t52 76t18 100zM453 774h48l-158 133h-26l-158 -133h46l125 102z" />
    <glyph glyph-name="gcircumflex" unicode="&#x11d;" horiz-adv-x="534" 
d="M423 -39q0 -175 -165 -175q-62 0 -97.5 24.5t-58.5 70.5l-6 11l-38 -19l7 -13q57 -113 194 -113q207 0 207 216v519l-39 16q-72 29 -164 29q-210 0 -210 -202v-140q0 -192 192 -192q93 0 178 36v-68zM423 69q-89 -37 -173 -37q-154 0 -154 154v138q0 163 170 163
q69 0 132 -23l25 -9v-386zM260 708l-158 -133h46l125 102l123 -102h48l-158 133h-26z" />
    <glyph glyph-name="Gbreve" unicode="&#x11e;" horiz-adv-x="651" 
d="M554 314v-87q0 -93 -57.5 -145.5t-165.5 -52.5q-109 0 -166.5 54t-57.5 151v245q0 97 56 149.5t167 52.5q47 0 82.5 -8.5t62 -26t44 -44.5t29.5 -65l5 -14l44 14l-4 14q-26 88 -88 130.5t-175 42.5q-132 0 -200.5 -64.5t-68.5 -181.5v-244q0 -117 69.5 -182.5
t200.5 -65.5q64 0 114 17t84 48t52 76t18 100v131h-272v-44h227zM446 898q-25 -90 -116 -90q-90 0 -116 90l-2 9l-34 -13l2 -8q31 -112 150 -112t150 112l2 8l-34 12z" />
    <glyph glyph-name="gbreve" unicode="&#x11f;" horiz-adv-x="534" 
d="M423 -39q0 -175 -165 -175q-62 0 -97.5 24.5t-58.5 70.5l-6 11l-38 -19l7 -13q57 -113 194 -113q207 0 207 216v519l-39 16q-72 29 -164 29q-210 0 -210 -202v-140q0 -192 192 -192q93 0 178 36v-68zM423 69q-89 -37 -173 -37q-154 0 -154 154v138q0 163 170 163
q69 0 132 -23l25 -9v-386zM425 703l-34 12l-2 -8q-25 -90 -116 -90q-90 0 -116 90l-2 9l-34 -13l2 -8q31 -112 150 -112t150 112z" />
    <glyph glyph-name="Gdotaccent" unicode="&#x120;" horiz-adv-x="651" 
d="M548 537l5 -14l44 14l-4 14q-26 88 -88 130.5t-175 42.5q-132 0 -200.5 -64.5t-68.5 -181.5v-244q0 -117 69.5 -182.5t200.5 -65.5q64 0 114 17t84 48t52 76t18 100v131h-272v-44h227v-87q0 -93 -57.5 -145.5t-165.5 -52.5q-109 0 -166.5 54t-57.5 151v245q0 97 56 149.5
t167 52.5q47 0 82.5 -8.5t62 -26t44 -44.5t29.5 -65zM330 859q-11 0 -18.5 -7.5t-7.5 -18.5t7.5 -18.5t18.5 -7.5t18.5 7.5t7.5 18.5t-7.5 18.5t-18.5 7.5z" />
    <glyph glyph-name="gdotaccent" unicode="&#x121;" horiz-adv-x="534" 
d="M427 498q-72 29 -164 29q-210 0 -210 -202v-140q0 -192 192 -192q93 0 178 36v-68q0 -175 -165 -175q-62 0 -97.5 24.5t-58.5 70.5l-6 11l-38 -19l7 -13q57 -113 194 -113q207 0 207 216v519zM423 455v-386q-89 -37 -173 -37q-154 0 -154 154v138q0 163 170 163
q69 0 132 -23zM273 617q11 0 18.5 7.5t7.5 18.5t-7.5 18.5t-18.5 7.5t-18.5 -7.5t-7.5 -18.5t7.5 -18.5t18.5 -7.5z" />
    <glyph glyph-name="uni0122" unicode="&#x122;" horiz-adv-x="651" 
d="M548 537l5 -14l44 14l-4 14q-26 88 -88 130.5t-175 42.5q-132 0 -200.5 -64.5t-68.5 -181.5v-244q0 -117 69.5 -182.5t200.5 -65.5q64 0 114 17t84 48t52 76t18 100v131h-272v-44h227v-87q0 -93 -57.5 -145.5t-165.5 -52.5q-109 0 -166.5 54t-57.5 151v245q0 97 56 149.5
t167 52.5q47 0 82.5 -8.5t62 -26t44 -44.5t29.5 -65zM331 -78l-45 -167h35l56 167h-46z" />
    <glyph glyph-name="uni0123" unicode="&#x123;" horiz-adv-x="534" 
d="M427 498q-72 29 -164 29q-210 0 -210 -202v-140q0 -192 192 -192q93 0 178 36v-68q0 -175 -165 -175q-62 0 -97.5 24.5t-58.5 70.5l-6 11l-38 -19l7 -13q57 -113 194 -113q207 0 207 216v519zM423 455v-386q-89 -37 -173 -37q-154 0 -154 154v138q0 163 170 163
q69 0 132 -23zM275 576l54 157h-34l-63 -157h43z" />
    <glyph glyph-name="Hcircumflex" unicode="&#x124;" horiz-adv-x="679" 
d="M551 710v-329h-423v329h-46v-710h46v338h423v-338h46v710h-46zM327 897l-158 -133h46l124 102l124 -102h48l-158 133h-26z" />
    <glyph glyph-name="hcircumflex" unicode="&#x125;" horiz-adv-x="549" 
d="M440 0h43v334q0 193 -193 193q-98 0 -176 -35v248h-43v-740h43v451q74 36 171 36q155 0 155 -155v-332zM80 917l-152 -128h46l118 98l117 -98h47l-151 128h-25z" />
    <glyph glyph-name="Hbar" unicode="&#x126;" horiz-adv-x="685" 
d="M131 584v126h-46v-126h-76v-31h76v-553h46v338h423v-338h46v553h77v31h-77v126h-46v-126h-423zM131 381v172h423v-172h-423z" />
    <glyph glyph-name="hbar" unicode="&#x127;" horiz-adv-x="549" 
d="M440 332v-332h43v334q0 193 -194 193q-98 0 -176 -35v131h177v29h-177v88h-43v-88h-71v-29h71v-623h43v451q75 36 171 36q156 0 156 -155z" />
    <glyph glyph-name="Itilde" unicode="&#x128;" horiz-adv-x="210" 
d="M82 710v-710h46v710h-46zM258 867v8h-30v-8q0 -64 -47 -64q-29 0 -74 36t-83 36q-75 0 -75 -94v-8h30v8q0 29 12.5 46.5t35.5 17.5q29 0 74 -36t82 -36q75 0 75 94z" />
    <glyph glyph-name="itilde" unicode="&#x129;" horiz-adv-x="183" 
d="M113 512h-43v-512h43v512zM203 695v8h-25v-8q0 -62 -34 -62q-18 0 -28.5 11t-21 24t-23.5 24t-35 11q-59 0 -59 -92v-8h25v8q0 60 38 60q18 0 29 -10.5t21 -23.5t23 -23.5t34 -10.5q56 0 56 92z" />
    <glyph glyph-name="Imacron" unicode="&#x12a;" horiz-adv-x="210" 
d="M82 710v-710h46v710h-46zM235 806v33h-260v-33h260z" />
    <glyph glyph-name="imacron" unicode="&#x12b;" horiz-adv-x="183" 
d="M70 0h43v512h-43v-512zM172 628v32h-161v-32h161z" />
    <glyph glyph-name="Ibreve" unicode="&#x12c;" horiz-adv-x="210" 
d="M82 0h46v710h-46v-710zM-47 884l2 -8q31 -112 150 -112t150 112l2 8l-34 12l-2 -8q-25 -90 -116 -90q-90 0 -116 90l-2 9z" />
    <glyph glyph-name="ibreve" unicode="&#x12d;" horiz-adv-x="183" 
d="M70 0h43v512h-43v-512zM-33 703l2 -10q10 -52 41.5 -79.5t80.5 -27.5q101 0 124 107l2 10l-35 10l-1 -8q-13 -85 -90 -85q-76 0 -89 85l-1 9z" />
    <glyph glyph-name="Iogonek" unicode="&#x12e;" horiz-adv-x="210" 
d="M28 -200q12 -47 71 -47q51 0 87 36l4 4l-11 27l-5 -5q-27 -27 -63 -27t-45 31q-25 63 56 180l6 7v704h-46v-709h11q-92 -127 -65 -201z" />
    <glyph glyph-name="iogonek" unicode="&#x12f;" horiz-adv-x="184" 
d="M161 -203l-12 23l-5 -6q-18 -27 -45 -27q-15 0 -27 10.5t-13 27.5q-2 21 2.5 45.5t12.5 48.5t18 45.5t19 37.5l3 6v504h-43v-510h8q-10 -15 -20 -36t-21 -50q-21 -58 -17 -104q3 -27 21.5 -42.5t46.5 -15.5q45 0 69 37zM64 663q0 -12 8.5 -20t19.5 -8t19.5 8t8.5 20
q0 11 -8.5 19.5t-19.5 8.5t-19.5 -8.5t-8.5 -19.5z" />
    <glyph glyph-name="Idotaccent" unicode="&#x130;" horiz-adv-x="210" 
d="M128 0v710h-46v-710h46zM105 849q-11 0 -18.5 -7.5t-7.5 -18.5t7.5 -18.5t18.5 -7.5t18.5 7.5t7.5 18.5t-7.5 18.5t-18.5 7.5z" />
    <glyph glyph-name="dotlessi" unicode="&#x131;" horiz-adv-x="184" 
d="M71 0h43v512h-43v-512z" />
    <glyph glyph-name="IJ" unicode="&#x132;" horiz-adv-x="780" 
d="M232 195l4 -17q39 -193 231 -193q114 0 175 61.5t61 170.5v493h-46v-493q0 -90 -48.5 -139t-141.5 -49q-84 0 -128 42t-60 127l-2 12zM82 710v-710h46v710h-46z" />
    <glyph glyph-name="ij" unicode="&#x133;" horiz-adv-x="429" 
d="M358 -9v521h-43v-521q0 -92 -34 -136.5t-120 -44.5h-12v-40h12q107 0 152 55t45 166zM71 512v-512h43v512h-43zM365 662q0 12 -8.5 20.5t-19.5 8.5q-12 0 -20.5 -8.5t-8.5 -20.5t8.5 -20t20.5 -8q11 0 19.5 8t8.5 20zM92 690q-11 0 -19.5 -8.5t-8.5 -19.5t8.5 -19.5
t19.5 -8.5t19.5 8.5t8.5 19.5t-8.5 19.5t-19.5 8.5z" />
    <glyph glyph-name="Jcircumflex" unicode="&#x134;" horiz-adv-x="567" 
d="M490 217v493h-46v-493q0 -90 -48.5 -139t-141.5 -49q-84 0 -128 42t-60 127l-2 12l-45 -15l4 -17q39 -193 231 -193q114 0 175 61.5t61 170.5zM295 764h47l125 102l122 -102h48l-156 133h-28z" />
    <glyph glyph-name="jcircumflex" unicode="&#x135;" horiz-adv-x="184" 
d="M-83 -230q107 0 152 55t45 166v521h-43v-521q0 -92 -34 -136.5t-120 -44.5h-12v-40h12zM187 577h46l-126 131h-31l-127 -131h45l98 101z" />
    <glyph glyph-name="uni0136" unicode="&#x136;" horiz-adv-x="600" 
d="M586 0l-133 262q-24 48 -53.5 74t-74.5 36l253 338h-57l-244 -330q-5 1 -25 1h-124v329h-46v-710h46v339h127q30 0 53.5 -5.5t41.5 -16.5t32.5 -29t27.5 -44l123 -244h53zM311 -78l-45 -167h35l56 167h-46z" />
    <glyph glyph-name="uni0137" unicode="&#x137;" horiz-adv-x="499" 
d="M477 512h-51l-181 -229h-131v457h-43v-740h43v244h126q39 0 63.5 -15t41.5 -48l89 -181h48l-102 201q-31 63 -91 75zM216 -228h35l49 174h-43z" />
    <glyph glyph-name="kgreenlandic" unicode="&#x138;" horiz-adv-x="459" 
d="M114 0v158l96 104l186 -262h54l-210 294l202 218h-53l-275 -294v294h-43v-512h43z" />
    <glyph glyph-name="Lacute" unicode="&#x139;" horiz-adv-x="518" 
d="M82 0h422v43h-376v667h-46v-710zM214 873l-25 30l-192 -120l20 -24z" />
    <glyph glyph-name="lacute" unicode="&#x13a;" horiz-adv-x="192" 
d="M74 0h43v740h-43v-740zM187 857l-26 32l-159 -95l18 -24z" />
    <glyph glyph-name="uni013B" unicode="&#x13b;" horiz-adv-x="518" 
d="M504 0v43h-376v667h-46v-710h422zM233 -245h35l56 167h-46z" />
    <glyph glyph-name="uni013C" unicode="&#x13c;" horiz-adv-x="192" 
d="M117 0v740h-42v-740h42zM82 -39l-40 -181h34l48 181h-42z" />
    <glyph glyph-name="Lcaron" unicode="&#x13d;" horiz-adv-x="518" 
d="M504 0v43h-376v667h-46v-710h422zM325 488h31l57 222h-44z" />
    <glyph glyph-name="lcaron" unicode="&#x13e;" horiz-adv-x="198" 
d="M117 740h-42v-740h42v740zM289 740h-44l-37 -202h32z" />
    <glyph glyph-name="Ldot" unicode="&#x13f;" horiz-adv-x="518" 
d="M504 0v43h-376v667h-46v-710h422zM338 383q-12 0 -21 -8.5t-9 -21.5q0 -12 9 -21t21 -9q13 0 21.5 9t8.5 21q0 13 -8.5 21.5t-21.5 8.5z" />
    <glyph glyph-name="ldot" unicode="&#x140;" horiz-adv-x="298" 
d="M117 740h-42v-740h42v740zM276 374q0 13 -9 21.5t-21 8.5q-13 0 -21.5 -8.5t-8.5 -21.5t8.5 -21.5t21.5 -8.5q12 0 21 8.5t9 21.5z" />
    <glyph glyph-name="Lslash" unicode="&#x141;" horiz-adv-x="544" 
d="M108 338l-115 -56l17 -32l98 48v-298h422v43h-376v277l261 126l-16 32l-245 -118v350h-46v-372z" />
    <glyph glyph-name="lslash" unicode="&#x142;" horiz-adv-x="261" 
d="M149 740h-43v-361l-101 -58l17 -29l84 49v-341h43v367l106 63l-18 26l-88 -52v336z" />
    <glyph glyph-name="Nacute" unicode="&#x143;" horiz-adv-x="688" 
d="M82 0h45v624l438 -624h41v710h-45v-624l-437 624h-42v-710zM427 904l-191 -121l20 -23l198 113z" />
    <glyph glyph-name="nacute" unicode="&#x144;" 
d="M481 0v334q0 193 -194 193q-97 0 -181 -33l-38 -15v-479h43v453l21 8q70 26 150 26q156 0 156 -155v-332h43zM164 604l20 -23l198 113l-27 31z" />
    <glyph glyph-name="uni0145" unicode="&#x145;" horiz-adv-x="688" 
d="M82 0h45v624l438 -624h41v710h-45v-624l-437 624h-42v-710zM331 -78l-45 -167h35l56 167h-46z" />
    <glyph glyph-name="uni0146" unicode="&#x146;" 
d="M481 0v334q0 193 -194 193q-97 0 -181 -33l-38 -15v-479h43v453l21 8q70 26 150 26q156 0 156 -155v-332h43zM225 -213h35l49 174h-43z" />
    <glyph glyph-name="Ncaron" unicode="&#x147;" horiz-adv-x="688" 
d="M565 0h41v710h-45v-624l-437 624h-42v-710h45v624zM171 898l161 -134h24l160 134h-49l-123 -102l-125 102h-48z" />
    <glyph glyph-name="ncaron" unicode="&#x148;" 
d="M438 332v-332h43v334q0 193 -194 193q-97 0 -181 -33l-38 -15v-479h43v453l21 8q70 26 150 26q156 0 156 -155zM113 698l147 -124h23l146 124h-45l-113 -95l-114 95h-44z" />
    <glyph glyph-name="napostrophe" unicode="&#x149;" 
d="M481 0v334q0 193 -194 193q-97 0 -181 -33l-38 -15v-479h43v453l21 8q70 26 150 26q156 0 156 -155v-332h43zM42 539h32l101 201h-44z" />
    <glyph glyph-name="Eng" unicode="&#x14a;" horiz-adv-x="688" 
d="M606 -13v723h-45v-636q-1 2 -21 30.5t-50.5 74t-69.5 102.5t-80 116q-96 138 -216 313h-42v-710h45v624l434 -619v-16q0 -85 -46 -132t-131 -47h-11v-40h11q108 0 165 57t57 160z" />
    <glyph glyph-name="eng" unicode="&#x14b;" 
d="M481 -15v349q0 193 -194 193q-94 0 -176 -32q-1 0 -7.5 -2.5t-14.5 -5.5q-9 -4 -21 -8v-479h43v453l21 8q70 26 150 26q156 0 156 -155v-346q0 -84 -45.5 -130.5t-130.5 -46.5h-11v-39h11q106 0 162.5 56.5t56.5 158.5z" />
    <glyph glyph-name="Omacron" unicode="&#x14c;" horiz-adv-x="660" 
d="M599 233v244q0 117 -69 182t-199 65q-131 0 -200.5 -65t-69.5 -182v-244q0 -117 69.5 -182t200.5 -65q130 0 199 65t69 182zM107 477q0 97 57.5 150.5t166.5 53.5q108 0 165 -53.5t57 -150.5v-244q0 -97 -57 -150.5t-165 -53.5q-109 0 -166.5 53.5t-57.5 150.5v244z
M201 849v-33h260v33h-260z" />
    <glyph glyph-name="omacron" unicode="&#x14d;" horiz-adv-x="537" 
d="M483 161v190q0 82 -58 129t-157 47q-49 0 -88.5 -12.5t-67.5 -35t-43 -55t-15 -73.5v-190q0 -40 15 -72.5t43 -55.5t67.5 -35t88.5 -12q99 0 157 47t58 128zM97 352q0 63 46.5 99.5t124.5 36.5t125 -36.5t47 -99.5v-191q0 -63 -47 -99.5t-125 -36.5t-124.5 36.5
t-46.5 99.5v191zM149 652v-31h238v31h-238z" />
    <glyph glyph-name="Obreve" unicode="&#x14e;" horiz-adv-x="660" 
d="M599 233v244q0 117 -69 182t-199 65q-131 0 -200.5 -65t-69.5 -182v-244q0 -117 69.5 -182t200.5 -65q130 0 199 65t69 182zM553 233q0 -97 -57 -150.5t-165 -53.5q-109 0 -166.5 53.5t-57.5 150.5v244q0 97 57.5 150.5t166.5 53.5q108 0 165 -53.5t57 -150.5v-244z
M449 906l-2 -8q-25 -90 -116 -90q-90 0 -116 90l-2 9l-34 -13l2 -8q31 -112 150 -112t150 112l2 8z" />
    <glyph glyph-name="obreve" unicode="&#x14f;" horiz-adv-x="537" 
d="M483 161v190q0 82 -58 129t-157 47q-49 0 -88.5 -12.5t-67.5 -35t-43 -55t-15 -73.5v-190q0 -40 15 -72.5t43 -55.5t67.5 -35t88.5 -12q99 0 157 47t58 128zM440 161q0 -63 -47 -99.5t-125 -36.5t-124.5 36.5t-46.5 99.5v191q0 63 46.5 99.5t124.5 36.5t125 -36.5
t47 -99.5v-191zM386 715l-2 -8q-25 -90 -116 -90q-90 0 -116 90l-2 9l-34 -13l2 -8q31 -112 150 -112t150 112l2 8z" />
    <glyph glyph-name="Ohungarumlaut" unicode="&#x150;" horiz-adv-x="660" 
d="M599 233v244q0 117 -69 182t-199 65q-131 0 -200.5 -65t-69.5 -182v-244q0 -117 69.5 -182t200.5 -65q130 0 199 65t69 182zM553 233q0 -97 -57 -150.5t-165 -53.5q-109 0 -166.5 53.5t-57.5 150.5v244q0 97 57.5 150.5t166.5 53.5q108 0 165 -53.5t57 -150.5v-244z
M189 780l28 -9l130 131l-40 10zM522 902l-40 10l-120 -133l27 -9z" />
    <glyph glyph-name="ohungarumlaut" unicode="&#x151;" horiz-adv-x="537" 
d="M483 161v190q0 82 -58 129t-157 47q-49 0 -88.5 -12.5t-67.5 -35t-43 -55t-15 -73.5v-190q0 -40 15 -72.5t43 -55.5t67.5 -35t88.5 -12q99 0 157 47t58 128zM440 161q0 -63 -47 -99.5t-125 -36.5t-124.5 36.5t-46.5 99.5v191q0 63 46.5 99.5t124.5 36.5t125 -36.5
t47 -99.5v-191zM245 699l-110 -121l29 -7l119 120zM446 689l-37 9l-114 -119l25 -8z" />
    <glyph glyph-name="OE" unicode="&#x152;" horiz-adv-x="838" 
d="M474 338h266v43h-266v286h310v43h-343q-52 15 -110 15q-131 0 -200.5 -65.5t-69.5 -182.5v-244q0 -117 69.5 -182.5t200.5 -65.5q58 0 110 15h356v43h-323v295zM107 477q0 97 57.5 151t166.5 54q46 0 96 -14v-626q-40 -14 -96 -14q-109 0 -166.5 54t-57.5 151v244z" />
    <glyph glyph-name="oe" unicode="&#x153;" horiz-adv-x="811" 
d="M719 115q-13 -24 -26.5 -41.5t-30 -28.5t-37.5 -16.5t-50 -5.5q-142 0 -142 155v69h333v75q0 205 -188 205q-127 0 -165 -104q-16 49 -61 76.5t-108 27.5q-42 0 -77 -12t-59.5 -35t-38 -55t-13.5 -73v-192q0 -40 13.5 -72.5t38 -55t59.5 -34.5t77 -12q61 0 105.5 25.5
t62.5 73.5q36 -99 162 -99q38 0 65.5 7t49 21.5t37.5 35.5t31 49l7 12l-37 19zM244 488q66 0 106 -37t40 -99v-192q0 -63 -40 -99t-106 -36t-105.5 36t-39.5 99v192q0 62 39.5 99t105.5 37zM578 489q146 0 146 -165v-42h-291v42q0 165 145 165z" />
    <glyph glyph-name="Racute" unicode="&#x154;" horiz-adv-x="640" 
d="M585 510q0 96 -53.5 148t-149.5 52h-300v-710h46v312h165q31 0 54 -5.5t41.5 -16.5t32.5 -29t27 -44l110 -217h52l-119 235q-33 61 -82 82q83 7 129.5 57.5t46.5 135.5zM377 667q77 0 118.5 -41t41.5 -116t-41.5 -115t-118.5 -40h-249v312h249zM204 782l20 -23l198 113
l-27 31z" />
    <glyph glyph-name="racute" unicode="&#x155;" horiz-adv-x="337" 
d="M68 440v-440h43v428q0 23 21 33q67 26 151 26h43v40h-42q-100 -1 -178 -32q-23 -11 -30.5 -21.5t-7.5 -33.5zM285 724l-191 -121l20 -23l198 113z" />
    <glyph glyph-name="uni0156" unicode="&#x156;" horiz-adv-x="640" 
d="M585 510q0 96 -53.5 148t-149.5 52h-300v-710h46v312h165q31 0 54 -5.5t41.5 -16.5t32.5 -29t27 -44l110 -217h52l-119 235q-33 61 -82 82q83 7 129.5 57.5t46.5 135.5zM377 667q77 0 118.5 -41t41.5 -116t-41.5 -115t-118.5 -40h-249v312h249zM279 -245h35l56 167h-46z
" />
    <glyph glyph-name="uni0157" unicode="&#x157;" horiz-adv-x="337" 
d="M68 440v-440h43v428q0 23 21 33q67 26 151 26h43v40h-42q-100 -1 -178 -32q-23 -11 -30.5 -21.5t-7.5 -33.5zM75 -43l-39 -178h37l46 178h-44z" />
    <glyph glyph-name="Rcaron" unicode="&#x158;" horiz-adv-x="640" 
d="M82 710v-710h46v312h165q31 0 54 -5.5t41.5 -16.5t32.5 -29t27 -44l110 -217h52l-119 235q-33 61 -82 82q83 7 129.5 57.5t46.5 135.5q0 96 -53.5 148t-149.5 52h-300zM377 667q77 0 118.5 -41t41.5 -116t-41.5 -115t-118.5 -40h-249v312h249zM483 898h-49l-123 -102
l-125 102h-48l161 -134h24z" />
    <glyph glyph-name="rcaron" unicode="&#x159;" horiz-adv-x="337" 
d="M68 0h43v428q0 23 21 33q67 26 151 26h43v40h-42q-100 -1 -178 -32q-23 -11 -30.5 -21.5t-7.5 -33.5v-440zM358 697h-45l-113 -95l-114 95h-44l147 -124h23z" />
    <glyph glyph-name="Sacute" unicode="&#x15a;" horiz-adv-x="622" 
d="M488 287q17 -15 29.5 -40t12.5 -59q0 -158 -218 -158q-163 0 -226 148l-5 12l-43 -16l5 -13q36 -91 100 -133t169 -42q130 0 197 52.5t67 151.5q0 58 -22 92.5t-57 54.5t-80 28.5t-90 13.5q-36 3 -75.5 9.5t-72.5 22.5t-54.5 43.5t-21.5 73.5q0 72 53.5 112t150.5 40
q83 0 134 -31t86 -99l5 -12l43 19l-7 15q-40 80 -101.5 116t-159.5 36q-118 0 -184.5 -53t-66.5 -146q0 -58 24 -93t61.5 -55t84 -29t91.5 -14q21 -3 36.5 -5t29 -4.5t26.5 -5.5t29 -8q32 -11 50 -24zM397 913l-191 -121l20 -23l198 113z" />
    <glyph glyph-name="sacute" unicode="&#x15b;" horiz-adv-x="492" 
d="M408 388l39 16l-5 13q-47 110 -200 110q-94 0 -142.5 -37.5t-48.5 -106.5q0 -48 17.5 -76t45.5 -42.5t64.5 -20t73.5 -8.5q41 -4 70.5 -10.5t48.5 -18t28.5 -30t9.5 -47.5q0 -106 -158 -106q-136 0 -173 101l-4 11l-40 -12l5 -12q50 -126 213 -126q100 0 149.5 38.5
t49.5 107.5q0 44 -16.5 70t-43 41t-60.5 21.5t-70 9.5q-19 2 -32 3t-23 2.5t-20 3.5t-23 6q-36 8 -53 32.5t-17 62.5q0 104 150 104q69 0 106 -22.5t55 -66.5zM139 604l20 -23l198 113l-27 31z" />
    <glyph glyph-name="Scircumflex" unicode="&#x15c;" horiz-adv-x="622" 
d="M312 30q-163 0 -226 148l-5 12l-43 -16l5 -13q36 -91 100 -133t169 -42q130 0 197 52.5t67 151.5q0 58 -22 92.5t-57 54.5t-80 28.5t-90 13.5q-36 3 -75.5 9.5t-72.5 22.5t-54.5 43.5t-21.5 73.5q0 72 53.5 112t150.5 40q83 0 134 -31t86 -99l5 -12l43 19l-7 15
q-40 80 -101.5 116t-159.5 36q-118 0 -184.5 -53t-66.5 -146q0 -58 24 -93t61.5 -55t84 -29t91.5 -14q21 -3 36.5 -5t29 -4.5t26.5 -5.5t29 -8q32 -11 50 -24q17 -15 29.5 -40t12.5 -59q0 -158 -218 -158zM487 773l-158 133h-26l-158 -133h46l124 102l124 -102h48z" />
    <glyph glyph-name="scircumflex" unicode="&#x15d;" horiz-adv-x="492" 
d="M451 132q0 44 -16.5 70t-43 41t-60.5 21.5t-70 9.5q-19 2 -32 3t-23 2.5t-20 3.5t-23 6q-36 8 -53 32.5t-17 62.5q0 104 150 104q69 0 106 -22.5t55 -66.5l4 -11l39 16l-5 13q-47 110 -200 110q-94 0 -142.5 -37.5t-48.5 -106.5q0 -48 17.5 -76t45.5 -42.5t64.5 -20
t73.5 -8.5q41 -4 70.5 -10.5t48.5 -18t28.5 -30t9.5 -47.5q0 -106 -158 -106q-136 0 -173 101l-4 11l-40 -12l5 -12q50 -126 213 -126q100 0 149.5 38.5t49.5 107.5zM367 578h48l-155 130h-26l-155 -130h46l122 100z" />
    <glyph glyph-name="Scedilla" unicode="&#x15e;" horiz-adv-x="622" 
d="M529 188q0 -158 -218 -158q-163 0 -226 148l-6 12l-43 -16l6 -14q36 -89 98 -131t163 -43l-38 -102l16 6q15 5 38 5q68 0 68 -49q0 -31 -20.5 -48.5t-57.5 -17.5q-47 0 -82 27l-7 5v-32l9 -6q36 -22 83 -22q46 0 78 22t35 71q1 34 -22.5 54.5t-63.5 20.5q-19 0 -32 -4
l25 70q121 4 182.5 56t61.5 148q0 58 -22 92.5t-57.5 54t-80 28t-89.5 14.5q-36 3 -75.5 9.5t-72.5 22t-54.5 43.5t-21.5 74q0 72 53 112t151 40q41 0 74 -7.5t59.5 -23.5t47.5 -41t38 -59l5 -11l43 20l-5 11q-40 81 -101.5 118t-160.5 37q-119 0 -185 -53t-66 -146
q0 -58 24 -93t61.5 -55t84 -29t91.5 -14q20 -3 35.5 -5t29 -4.5t26.5 -5.5t29 -8q31 -10 50 -24q17 -15 29.5 -40t12.5 -59z" />
    <glyph glyph-name="scedilla" unicode="&#x15f;" horiz-adv-x="492" 
d="M248 -104q66 0 66 -47q0 -30 -20 -47t-56 -17q-47 0 -80 26l-7 5v-32l9 -6q33 -20 82 -20t78.5 22t30.5 67q1 33 -22 52.5t-62 19.5q-19 0 -31 -3l26 70q189 6 189 146q0 44 -16.5 70t-43 41t-60.5 21.5t-70 9.5q-19 2 -32 3t-23 2.5t-20 3.5t-23 6q-36 8 -53 32.5
t-17 62.5q0 104 150 104q69 0 106 -22.5t55 -66.5l4 -11l39 16l-5 13q-47 110 -200 110q-94 0 -142.5 -37.5t-48.5 -106.5q0 -48 17.5 -76t45.5 -42.5t64.5 -20t73.5 -8.5q41 -4 70.5 -10.5t48.5 -18t28.5 -30t9.5 -47.5q0 -106 -158 -106q-136 0 -173 101l-4 11l-40 -12
l5 -13q45 -121 195 -125l-40 -102l17 7q15 5 37 5z" />
    <glyph glyph-name="Scaron" unicode="&#x160;" horiz-adv-x="622" 
d="M312 30q-163 0 -226 148l-5 12l-43 -16l5 -13q36 -91 100 -133t169 -42q130 0 197 52.5t67 151.5q0 58 -22 92.5t-57 54.5t-80 28.5t-90 13.5q-36 3 -75.5 9.5t-72.5 22.5t-54.5 43.5t-21.5 73.5q0 72 53.5 112t150.5 40q83 0 134 -31t86 -99l5 -12l43 19l-7 15
q-40 80 -101.5 116t-159.5 36q-118 0 -184.5 -53t-66.5 -146q0 -58 24 -93t61.5 -55t84 -29t91.5 -14q21 -3 36.5 -5t29 -4.5t26.5 -5.5t29 -8q32 -11 50 -24q17 -15 29.5 -40t12.5 -59q0 -158 -218 -158zM141 907l161 -134h24l160 134h-49l-123 -102l-125 102h-48z" />
    <glyph glyph-name="scaron" unicode="&#x161;" horiz-adv-x="492" 
d="M451 132q0 44 -16.5 70t-43 41t-60.5 21.5t-70 9.5q-19 2 -32 3t-23 2.5t-20 3.5t-23 6q-36 8 -53 32.5t-17 62.5q0 104 150 104q69 0 106 -22.5t55 -66.5l4 -11l39 16l-5 13q-47 110 -200 110q-94 0 -142.5 -37.5t-48.5 -106.5q0 -48 17.5 -76t45.5 -42.5t64.5 -20
t73.5 -8.5q41 -4 70.5 -10.5t48.5 -18t28.5 -30t9.5 -47.5q0 -106 -158 -106q-136 0 -173 101l-4 11l-40 -12l5 -12q50 -126 213 -126q100 0 149.5 38.5t49.5 107.5zM401 694h-43l-112 -93l-114 93h-41l143 -121h25z" />
    <glyph glyph-name="Tcaron" unicode="&#x164;" horiz-adv-x="532" 
d="M519 667v43h-506v-43h230v-667h46v667h230zM93 898l161 -134h24l160 134h-49l-123 -102l-125 102h-48z" />
    <glyph glyph-name="tcaron" unicode="&#x165;" horiz-adv-x="344" 
d="M313 -14q2 -1 5 -1t5 1h12v41h-12q-47 0 -77.5 7t-48 24.5t-24.5 47.5t-7 77v290h171v39h-171v120h-43v-120h-119v-39h119v-291q0 -54 9 -91.5t31 -61t58.5 -33.5t91.5 -10zM351 740h-42l-40 -185h32z" />
    <glyph glyph-name="Tbar" unicode="&#x166;" horiz-adv-x="555" 
d="M531 667v43h-506v-43h230v-319h-161v-35h161v-313h46v313h161v35h-161v319h230z" />
    <glyph glyph-name="tbar" unicode="&#x167;" horiz-adv-x="353" 
d="M345 473v40h-170v120h-43v-120h-119v-40h119v-194h-107v-32h107v-64q0 -54 9.5 -91.5t31.5 -60.5t58.5 -33.5t90.5 -11.5h22v41h-12q-46 0 -76.5 7t-48.5 24.5t-25 48t-7 76.5v64h139v32h-139v194h170z" />
    <glyph glyph-name="Utilde" unicode="&#x168;" horiz-adv-x="679" 
d="M557 710v-470q0 -100 -55 -156t-162 -56q-109 0 -163.5 56t-54.5 156v470h-46v-470q0 -120 66.5 -187.5t197.5 -67.5q130 0 196.5 67.5t66.5 187.5v470h-46zM418 773q75 0 75 94v8h-30v-8q0 -64 -47 -64q-29 0 -74 36t-83 36q-75 0 -75 -94v-8h30v8q0 29 12.5 46.5
t35.5 17.5q29 0 74 -36t82 -36z" />
    <glyph glyph-name="utilde" unicode="&#x169;" 
d="M478 33v479h-43v-453l-21 -8q-67 -26 -150 -26q-155 0 -155 156v331h-43v-333q0 -193 194 -193q99 0 181 32zM395 689q0 -64 -47 -64q-29 0 -74 36t-83 36q-75 0 -75 -94v-8h30v8q0 29 12.5 46.5t35.5 17.5q29 0 74 -36t82 -36q75 0 75 94v8h-30v-8z" />
    <glyph glyph-name="Umacron" unicode="&#x16a;" horiz-adv-x="679" 
d="M76 240q0 -120 66.5 -187.5t197.5 -67.5q130 0 196.5 67.5t66.5 187.5v470h-46v-470q0 -100 -55 -156t-162 -56q-109 0 -163.5 56t-54.5 156v470h-46v-470zM210 806h260v33h-260v-33z" />
    <glyph glyph-name="umacron" unicode="&#x16b;" 
d="M478 33v479h-43v-453l-21 -8q-67 -26 -150 -26q-155 0 -155 156v331h-43v-333q0 -193 194 -193q99 0 181 32zM142 626h260v32h-260v-32z" />
    <glyph glyph-name="Ubreve" unicode="&#x16c;" horiz-adv-x="679" 
d="M603 710h-46v-470q0 -100 -55 -156t-162 -56q-109 0 -163.5 56t-54.5 156v470h-46v-470q0 -120 66.5 -187.5t197.5 -67.5q130 0 196.5 67.5t66.5 187.5v470zM188 884l2 -8q31 -112 150 -112t150 112l2 8l-34 12l-2 -8q-25 -90 -116 -90q-90 0 -116 90l-2 9z" />
    <glyph glyph-name="ubreve" unicode="&#x16d;" 
d="M478 512h-43v-453l-21 -8q-67 -26 -150 -26q-155 0 -155 156v331h-43v-333q0 -193 194 -193q99 0 181 32l37 15v479zM422 695l2 8l-34 12l-2 -8q-25 -90 -116 -90q-90 0 -116 90l-2 9l-34 -13l2 -8q31 -112 150 -112t150 112z" />
    <glyph glyph-name="Uring" unicode="&#x16e;" horiz-adv-x="679" 
d="M603 240v470h-46v-470q0 -100 -55 -156t-162 -56q-109 0 -163.5 56t-54.5 156v470h-46v-470q0 -120 66.5 -187.5t197.5 -67.5q130 0 196.5 67.5t66.5 187.5zM341 932q-45 0 -71.5 -25t-26.5 -70q0 -43 26.5 -68.5t71.5 -25.5t70.5 25.5t25.5 68.5q0 45 -25.5 70t-70.5 25
zM268 837q0 38 23 54.5t58 16.5q23 0 38 -13.5t21 -33t2.5 -40t-17.5 -34.5q-21 -19 -52 -19q-34 0 -53.5 18.5t-19.5 50.5z" />
    <glyph glyph-name="uring" unicode="&#x16f;" 
d="M441 18l37 15v479h-43v-453l-21 -8q-67 -26 -150 -26q-155 0 -155 156v331h-43v-333q0 -193 194 -193q99 0 181 32zM278 741q-45 0 -71.5 -25t-26.5 -70q0 -43 26.5 -68.5t71.5 -25.5t70.5 25.5t25.5 68.5q0 45 -25.5 70t-70.5 25zM269 576q-31 0 -47 22t-16 48t16 48
t47 22h9h8q23 0 38 -13.5t21 -32.5t2.5 -39.5t-17.5 -35.5q-14 -14 -28.5 -16.5t-32.5 -2.5z" />
    <glyph glyph-name="Uhungarumlaut" unicode="&#x170;" horiz-adv-x="679" 
d="M603 240v470h-46v-470q0 -100 -55 -156t-162 -56q-109 0 -163.5 56t-54.5 156v470h-46v-470q0 -120 66.5 -187.5t197.5 -67.5q130 0 196.5 67.5t66.5 187.5zM198 770l28 -9l130 131l-40 10zM371 769l27 -9l133 132l-40 10z" />
    <glyph glyph-name="uhungarumlaut" unicode="&#x171;" 
d="M435 512v-453l-21 -8q-67 -26 -150 -26q-155 0 -155 156v331h-43v-333q0 -193 194 -193q99 0 181 32l37 15v479h-43zM248 716l-118 -132l28 -9l130 131zM425 714l-124 -129l28 -9l136 129z" />
    <glyph glyph-name="Uogonek" unicode="&#x172;" horiz-adv-x="679" 
d="M511 33q92 63 92 207v470h-46v-470q0 -100 -55 -156t-162 -56q-109 0 -163.5 56t-54.5 156v470h-46v-470q0 -120 66.5 -187.5t197.5 -67.5q58 0 100 15q-27 -26 -48 -54t-34.5 -54t-18 -50t1.5 -42q12 -47 71 -47q51 0 87 36l4 4l-11 27l-5 -5q-27 -27 -63 -27t-45 31
q-12 30 27 95q40 65 105 119z" />
    <glyph glyph-name="uogonek" unicode="&#x173;" 
d="M460 29l18 15v468h-43v-453l-21 -8q-64 -26 -150 -26q-155 0 -155 156v331h-43v-333q0 -193 194 -193q79 0 146 21q-26 -25 -45.5 -53.5t-31 -56t-15 -53t2.5 -44.5q12 -47 71 -47q51 0 87 36l4 4l-10 27l-5 -5q-27 -27 -63 -27t-46 31q-12 33 18 97q14 32 36 60.5
t51 52.5z" />
    <glyph glyph-name="Wcircumflex" unicode="&#x174;" horiz-adv-x="870" 
d="M802 710l-167 -628l-174 613h-47l-175 -614l-167 629h-51l192 -710h47l176 619l175 -619h47l192 710h-48zM426 897l-158 -133h46l124 102l124 -102h48l-158 133h-26z" />
    <glyph glyph-name="wcircumflex" unicode="&#x175;" horiz-adv-x="729" 
d="M665 512l-138 -447l-142 432h-40l-141 -431l-138 446h-45l162 -517h39l141 440l144 -440h40l162 517h-44zM354 708l-158 -133h46l124 102l124 -102h48l-158 133h-26z" />
    <glyph glyph-name="Ycircumflex" unicode="&#x176;" horiz-adv-x="619" 
d="M611 710h-57l-244 -370l-245 370h-58l279 -417v-293h46v292zM298 897l-158 -133h46l124 102l124 -102h48l-158 133h-26z" />
    <glyph glyph-name="ycircumflex" unicode="&#x177;" horiz-adv-x="549" 
d="M478 -37v549h-43v-446q-84 -34 -171 -34q-155 0 -155 156v324h-43v-326q0 -193 194 -193q87 0 175 33v-65q0 -175 -166 -175q-109 0 -157 95l-6 11l-37 -20l6 -12q57 -113 195 -113q208 0 208 216zM440 577l-154 130h-27l-155 -130h46l122 100l120 -100h48z" />
    <glyph glyph-name="Ydieresis" unicode="&#x178;" horiz-adv-x="619" 
d="M65 710h-58l279 -417v-293h46v292l279 418h-57l-244 -370zM189 827q0 -11 7.5 -18.5t18.5 -7.5t18.5 7.5t7.5 18.5t-7.5 18.5t-18.5 7.5t-18.5 -7.5t-7.5 -18.5zM432 827q0 11 -7.5 18.5t-18.5 7.5t-18.5 -7.5t-7.5 -18.5t7.5 -18.5t18.5 -7.5t18.5 7.5t7.5 18.5z" />
    <glyph glyph-name="Zacute" unicode="&#x179;" horiz-adv-x="555" 
d="M32 40v-40h495v44h-438l426 628v38h-479v-43h421zM365 903l-192 -120l20 -24l197 114z" />
    <glyph glyph-name="zacute" unicode="&#x17a;" horiz-adv-x="447" 
d="M31 34v-34h386v39h-332l327 438v35h-377v-39h323zM308 724l-192 -120l20 -24l197 114z" />
    <glyph glyph-name="Zdotaccent" unicode="&#x17b;" horiz-adv-x="555" 
d="M32 40v-40h495v44h-438l426 628v38h-479v-43h421zM281 849q-11 0 -18.5 -7.5t-7.5 -18.5t7.5 -18.5t18.5 -7.5t18.5 7.5t7.5 18.5t-7.5 18.5t-18.5 7.5z" />
    <glyph glyph-name="zdotaccent" unicode="&#x17c;" horiz-adv-x="447" 
d="M31 34v-34h386v39h-332l327 438v35h-377v-39h323zM224 669q-11 0 -18.5 -7.5t-7.5 -18.5t7.5 -18.5t18.5 -7.5t18.5 7.5t7.5 18.5t-7.5 18.5t-18.5 7.5z" />
    <glyph glyph-name="Zcaron" unicode="&#x17d;" horiz-adv-x="555" 
d="M515 672v38h-479v-43h421l-425 -627v-40h495v44h-438zM107 898l161 -134h24l160 134h-49l-123 -102l-125 102h-48z" />
    <glyph glyph-name="zcaron" unicode="&#x17e;" horiz-adv-x="447" 
d="M412 477v35h-377v-39h323l-327 -439v-34h386v39h-332zM111 693h-43l144 -121h23l143 121h-44l-111 -93z" />
    <glyph glyph-name="longs" unicode="&#x17f;" horiz-adv-x="243" 
d="M109 512h-101v-39h101v-473h43v543q0 46 7.5 76t25.5 48t48.5 25.5t76.5 7.5h11v40h-11q-55 0 -93.5 -10t-62.5 -33t-34.5 -60t-10.5 -91v-34z" />
    <glyph glyph-name="florin" unicode="&#x192;" horiz-adv-x="437" 
d="M429 740h-12q-101 0 -149.5 -51.5t-58.5 -146.5l-18 -164h-161v-40h157l-39 -356q-8 -78 -46.5 -120t-118.5 -42h-12v-40h12q187 0 209 199l38 359h170v40h-165l17 162q9 78 46.5 119t118.5 41h12v40z" />
    <glyph glyph-name="Aringacute" unicode="&#x1fa;" horiz-adv-x="632" 
d="M623 0l-276 686q29 5 46.5 25.5t17.5 49.5q0 40 -26.5 65.5t-68.5 25.5q-44 0 -70.5 -25.5t-26.5 -65.5q0 -28 18 -48.5t48 -26.5l-278 -686h48l97 240h326l95 -240h50zM463 279h-296l149 373zM316 703q-32 0 -50.5 16.5t-18.5 42.5q0 29 18.5 47t50.5 18q30 0 49 -18
t19 -47q0 -26 -19 -42.5t-49 -16.5zM421 935l-21 26l-182 -85l16 -19z" />
    <glyph glyph-name="aringacute" unicode="&#x1fb;" horiz-adv-x="509" 
d="M405 278q-53 5 -89.5 8t-58.5 3q-58 0 -99.5 -8t-67.5 -26t-38 -47t-12 -70q0 -40 10 -68.5t35 -47t66 -27.5t102 -9q101 0 159 26l36 15v305q0 44 -10 80t-32.5 61.5t-60 39.5t-91.5 14q-141 0 -197 -106l-6 -13l39 -15l5 10q46 85 157 85q44 0 73.5 -10.5t47 -30.5
t25 -49t7.5 -65v-55zM382 41q-50 -19 -132 -19q-48 0 -80 7t-51 21.5t-27 36.5t-8 52q0 31 9 52.5t29 35t52.5 20t78.5 6.5q21 0 59 -3t93 -8v-191zM158 671q0 -43 26.5 -68.5t71.5 -25.5t70.5 25.5t25.5 68.5q0 45 -25.5 70t-70.5 25t-71.5 -25t-26.5 -70zM247 601
q-31 0 -47 22t-16 48t16 48t47 22h9h8q23 0 38 -13.5t21 -32.5t2.5 -39.5t-17.5 -35.5q-14 -14 -28.5 -16.5t-32.5 -2.5zM355 870l-28 21l-176 -89l17 -17z" />
    <glyph glyph-name="AEacute" unicode="&#x1fc;" horiz-adv-x="817" 
d="M469 381v286h294v43h-341l-433 -710h52l113 187h270v-187h353v43h-308v295h251v43h-251zM424 635v-409h-246zM674 903l-192 -120l20 -24l197 114z" />
    <glyph glyph-name="aeacute" unicode="&#x1fd;" horiz-adv-x="783" 
d="M404 247h334v75q0 205 -189 205q-127 0 -163 -102q-30 102 -153 102q-119 0 -175 -105l-7 -12l39 -16l6 10q45 84 136 84q38 0 63 -10t39.5 -29t20.5 -47t6 -64v-62q-60 12 -124 12q-54 0 -91.5 -8t-60.5 -26t-33.5 -47t-10.5 -71q0 -39 9.5 -67.5t31.5 -46.5t59 -27
t92 -9q120 0 164 71q40 -71 149 -71q37 0 64.5 7t49 21t38 35.5t31.5 49.5l6 11l-37 20l-8 -15q-13 -24 -26.5 -41.5t-30 -28.5t-37.5 -16.5t-50 -5.5q-142 0 -142 155v69zM232 252q66 0 129 -12v-71q0 -42 9 -75q-24 -72 -141 -72q-42 0 -69.5 6.5t-44 20.5t-23.5 35.5
t-7 51.5q0 63 32.5 89.5t114.5 26.5zM404 324q0 165 145 165q146 0 146 -165v-42h-291v42zM500 701l-25 31l-191 -121l18 -24z" />
    <glyph glyph-name="Oslashacute" unicode="&#x1fe;" horiz-adv-x="660" 
d="M608 749h-40l-52 -81q-68 56 -185 56q-131 0 -200.5 -65t-69.5 -182v-244q0 -113 64 -177l-63 -99h40l50 78q65 -49 179 -49q130 0 199 65t69 182v244q0 106 -57 169zM153 101q-46 49 -46 132v244q0 97 57.5 150.5t166.5 53.5q104 0 161 -51zM553 233q0 -97 -57 -150.5
t-165 -53.5q-98 0 -155 45l338 527q39 -46 39 -124v-244zM229 793l20 -23l197 113l-25 31z" />
    <glyph glyph-name="oslashacute" unicode="&#x1ff;" horiz-adv-x="537" 
d="M403 494q-54 33 -135 33q-49 0 -88.5 -12.5t-67.5 -35t-43 -55t-15 -73.5v-190q0 -80 57 -128l-43 -68h32l35 53q51 -32 133 -32q99 0 157 47t58 128v190q0 80 -56 128l46 73h-33zM137 73q-40 33 -40 88v191q0 62 46.5 99t124.5 37q64 0 113 -29zM440 161
q0 -63 -47 -99.5t-125 -36.5q-65 0 -112 27l245 386q39 -33 39 -86v-191zM160 603l20 -23l197 113l-25 31z" />
    <glyph glyph-name="uni0218" unicode="&#x218;" horiz-adv-x="622" 
d="M488 287q17 -15 29.5 -40t12.5 -59q0 -158 -218 -158q-163 0 -226 148l-5 12l-43 -16l5 -13q36 -91 100 -133t169 -42q130 0 197 52.5t67 151.5q0 58 -22 92.5t-57 54.5t-80 28.5t-90 13.5q-36 3 -75.5 9.5t-72.5 22.5t-54.5 43.5t-21.5 73.5q0 72 53.5 112t150.5 40
q83 0 134 -31t86 -99l5 -12l43 19l-7 15q-40 80 -101.5 116t-159.5 36q-118 0 -184.5 -53t-66.5 -146q0 -58 24 -93t61.5 -55t84 -29t91.5 -14q21 -3 36.5 -5t29 -4.5t26.5 -5.5t29 -8q32 -11 50 -24zM314 -85l-45 -167h35l56 167h-46z" />
    <glyph glyph-name="uni0219" unicode="&#x219;" horiz-adv-x="492" 
d="M408 388l39 16l-5 13q-47 110 -200 110q-94 0 -142.5 -37.5t-48.5 -106.5q0 -48 17.5 -76t45.5 -42.5t64.5 -20t73.5 -8.5q41 -4 70.5 -10.5t48.5 -18t28.5 -30t9.5 -47.5q0 -106 -158 -106q-136 0 -173 101l-4 11l-40 -12l5 -12q50 -126 213 -126q100 0 149.5 38.5
t49.5 107.5q0 44 -16.5 70t-43 41t-60.5 21.5t-70 9.5q-19 2 -32 3t-23 2.5t-20 3.5t-23 6q-36 8 -53 32.5t-17 62.5q0 104 150 104q69 0 106 -22.5t55 -66.5zM291 -53h-43l-40 -168h33z" />
    <glyph glyph-name="uni021A" unicode="&#x21a;" horiz-adv-x="532" 
d="M243 0h46v667h230v43h-506v-43h230v-667zM256 -78l-45 -167h35l56 167h-46z" />
    <glyph glyph-name="uni021B" unicode="&#x21b;" horiz-adv-x="344" 
d="M313 -14q2 -1 5 -1t5 1h12v41h-12q-47 0 -77.5 7t-48 24.5t-24.5 47.5t-7 77v290h171v39h-171v120h-43v-120h-119v-39h119v-291q0 -54 9 -91.5t31 -61t58.5 -33.5t91.5 -10zM249 -78h-46l-45 -167h35z" />
    <glyph glyph-name="uni0237" unicode="&#x237;" horiz-adv-x="185" 
d="M114 -9v521h-43v-521q0 -92 -34 -136.5t-120 -44.5h-12v-40h12q107 0 152 55t45 166z" />
    <glyph glyph-name="circumflex" unicode="&#x2c6;" horiz-adv-x="370" 
d="M306 586h48l-156 134h-27l-159 -134h47l125 102z" />
    <glyph glyph-name="caron" unicode="&#x2c7;" horiz-adv-x="332" 
d="M166 617l-125 102h-47l159 -134h27l156 134h-48z" />
    <glyph glyph-name="breve" unicode="&#x2d8;" horiz-adv-x="287" 
d="M138 591q119 0 150 111l2 9l-34 12l-3 -8q-24 -91 -115 -91q-92 0 -116 91l-3 9l-34 -13l3 -9q33 -111 150 -111z" />
    <glyph glyph-name="dotaccent" unicode="&#x2d9;" horiz-adv-x="216" 
d="M108 677q-11 0 -18.5 -7.5t-7.5 -18.5t7.5 -18.5t18.5 -7.5t18.5 7.5t7.5 18.5t-7.5 18.5t-18.5 7.5z" />
    <glyph glyph-name="ring" unicode="&#x2da;" horiz-adv-x="240" 
d="M217 639q0 45 -25 70t-70 25t-71.5 -25t-26.5 -70q0 -43 26.5 -68.5t71.5 -25.5t70 24.5t25 69.5zM113 569q-31 0 -47 22t-16 48t16 48t47 22h9h8q22 0 37 -13.5t21 -32.5t2.5 -39.5t-17.5 -35.5q-13 -13 -28 -16t-32 -3z" />
    <glyph glyph-name="ogonek" unicode="&#x2db;" horiz-adv-x="252" 
d="M196 -185q-27 -27 -63 -27q-33 0 -45 31q-6 16 -1.5 37t17 45t34 49.5t49.5 49.5h-34q-31 -24 -53.5 -50.5t-36 -53t-17 -51.5t3.5 -45q13 -47 71 -47q51 0 87 36l4 4l-11 27z" />
    <glyph glyph-name="tilde" unicode="&#x2dc;" horiz-adv-x="305" 
d="M-2 610v-8h30v8q0 29 12.5 46.5t35.5 17.5q29 0 74 -36t82 -36q75 0 75 94v8h-30v-8q0 -64 -47 -64q-29 0 -74 36t-83 36q-75 0 -75 -94z" />
    <glyph glyph-name="hungarumlaut" unicode="&#x2dd;" horiz-adv-x="395" 
d="M169 723l-119 -131l29 -10l130 131zM387 712l-41 10l-124 -130l28 -9z" />
    <glyph glyph-name="uni0326" unicode="&#x326;" horiz-adv-x="0" 
d="M111 -78l-44 -167h34l55 167h-45z" />
    <glyph glyph-name="pi" unicode="&#x3c0;" horiz-adv-x="604" 
d="M541 13l-7 12q-28 44 -28 119v329h81v39h-422q-87 0 -149 -36l-10 -6l16 -36l12 7q51 30 111 32v-473h43v473h275v-327q0 -85 33 -141l7 -11z" />
    <glyph glyph-name="uni0401" unicode="&#x401;" horiz-adv-x="570" 
d="M472 338v43h-344v286h388v43h-434v-710h448v43h-402v295h344zM396 843q-11 0 -18.5 -7.5t-7.5 -18.5t7.5 -18.5t18.5 -7.5t18.5 7.5t7.5 18.5t-7.5 18.5t-18.5 7.5zM179 817q0 -11 7.5 -18.5t18.5 -7.5t18.5 7.5t7.5 18.5t-7.5 18.5t-18.5 7.5t-18.5 -7.5t-7.5 -18.5z
" />
    <glyph glyph-name="uni0410" unicode="&#x410;" horiz-adv-x="632" 
d="M482 232l92 -232h50l-286 715h-45l-286 -715h49l92 232h334zM163 271l152 381l151 -381h-303z" />
    <glyph glyph-name="uni0411" unicode="&#x411;" horiz-adv-x="625" 
d="M82 0h305q95 0 148.5 52.5t53.5 146.5q0 96 -53.5 147.5t-148.5 51.5h-259v269h410v43h-456v-710zM383 355q75 0 117 -40.5t42 -115.5t-42 -115.5t-117 -40.5h-255v312h255z" />
    <glyph glyph-name="uni0412" unicode="&#x412;" horiz-adv-x="640" 
d="M567 531q0 88 -48.5 133.5t-139.5 45.5h-297v-710h310q94 0 146.5 49t52.5 140q0 147 -128 176v2q104 38 104 164zM390 341q74 0 113.5 -38t39.5 -110q0 -73 -39.5 -111.5t-113.5 -38.5h-262v298h262zM374 667q71 0 108.5 -36t37.5 -105q0 -72 -38 -107.5t-108 -35.5
h-246v284h246z" />
    <glyph glyph-name="uni0413" unicode="&#x413;" horiz-adv-x="508" 
d="M82 710v-710h46v667h363v43h-409z" />
    <glyph glyph-name="uni0414" unicode="&#x414;" horiz-adv-x="699" 
d="M677 -153v196h-81v667h-419v-214q0 -257 -37 -351q-9 -23 -17.5 -39t-17 -27.5t-17.5 -19.5t-21 -16h-54v-196h46v153h573v-153h45zM195 180q26 98 26 316v171h329v-624h-425q43 40 70 137z" />
    <glyph glyph-name="uni0415" unicode="&#x415;" horiz-adv-x="570" 
d="M472 381h-344v286h388v43h-434v-710h448v43h-402v295h344v43z" />
    <glyph glyph-name="uni0416" unicode="&#x416;" horiz-adv-x="905" 
d="M889 0h-53l-122 244q-13 26 -27 44t-32 29t-41.5 16.5t-53.5 5.5h-84v-339h-47v339h-84q-31 0 -54 -5.5t-41.5 -16.5t-32.5 -29t-27 -44l-122 -244h-53l133 262q42 82 108 103l-233 345h56l222 -331q14 1 25 1.5t19 0.5h84v329h47v-329h84q9 0 19.5 -0.5t24.5 -1.5
l221 331h56l-232 -345v0q66 -21 108 -103z" />
    <glyph glyph-name="uni0417" unicode="&#x417;" horiz-adv-x="613" 
d="M497 524q0 -60 -32.5 -99.5t-98.5 -39.5h-196v-42h200q71 0 109 -40.5t38 -109.5q0 -79 -49.5 -121.5t-152.5 -42.5q-52 0 -90 9t-65 27t-45 46t-30 67l-4 14l-44 -16l4 -12q27 -89 91 -133.5t183 -44.5q125 0 187 53.5t62 152.5q0 139 -117 175q49 18 72.5 60.5
t23.5 99.5q0 94 -58 145.5t-170 51.5q-117 0 -179.5 -42.5t-88.5 -130.5l-4 -13l44 -14l4 13q23 76 74 110t148 34q91 0 137.5 -40.5t46.5 -116.5z" />
    <glyph glyph-name="uni0418" unicode="&#x418;" horiz-adv-x="691" 
d="M565 710l-437 -628v628h-46v-710h42l438 627v-627h47v710h-44z" />
    <glyph glyph-name="uni0419" unicode="&#x419;" horiz-adv-x="691" 
d="M562 627v-627h47v710h-44l-437 -628v628h-46v-710h42zM188 887l3 -8q31 -109 158 -109q124 0 158 109l2 8l-36 12l-3 -9q-25 -87 -121 -87q-98 0 -122 88l-3 8z" />
    <glyph glyph-name="uni041A" unicode="&#x41a;" horiz-adv-x="600" 
d="M533 0h53l-133 262q-24 48 -53.5 74t-74.5 36l253 338h-57l-244 -330q-5 1 -25 1h-124v329h-46v-710h46v339h127q30 0 53.5 -5.5t41.5 -16.5t32.5 -29t27.5 -44z" />
    <glyph glyph-name="uni041B" unicode="&#x41b;" horiz-adv-x="646" 
d="M564 0v710h-417v-245q0 -31 -1 -82.5t-6.5 -106.5t-16.5 -105t-31 -77q-9 -13 -16.5 -21.5t-15 -14.5t-16 -11t-19.5 -11l-26 -13l21 -41l23 12q26 13 43 24.5t29.5 26t22 33.5t19.5 46q19 49 27.5 130.5t8.5 210.5v202h325v-667h46z" />
    <glyph glyph-name="uni041C" unicode="&#x41c;" horiz-adv-x="795" 
d="M82 710v-710h44v620l254 -450h35l254 450v-620h44v710h-43l-272 -484l-275 484h-41z" />
    <glyph glyph-name="uni041D" unicode="&#x41d;" horiz-adv-x="679" 
d="M128 0v338h423v-338h46v710h-46v-329h-423v329h-46v-710h46z" />
    <glyph glyph-name="uni041E" unicode="&#x41e;" horiz-adv-x="660" 
d="M530 52q69 65 69 181v244q0 116 -69.5 181.5t-198.5 65.5q-130 0 -200 -65.5t-70 -181.5v-244q0 -116 70 -181.5t200 -65.5q129 0 199 66zM553 477v-244q0 -97 -57.5 -150.5t-164.5 -53.5q-109 0 -166.5 53.5t-57.5 150.5v244q0 97 57.5 150.5t166.5 53.5
q107 0 164.5 -53.5t57.5 -150.5z" />
    <glyph glyph-name="uni041F" unicode="&#x41f;" horiz-adv-x="672" 
d="M590 0v710h-508v-710h46v667h416v-667h46z" />
    <glyph glyph-name="uni0420" unicode="&#x420;" horiz-adv-x="618" 
d="M364 276q103 0 162 57t59 159q0 103 -59 160.5t-162 57.5h-282v-710h46v276h236zM360 667q82 0 129.5 -46.5t47.5 -128.5q0 -81 -47.5 -127t-129.5 -46h-232v348h232z" />
    <glyph glyph-name="uni0421" unicode="&#x421;" horiz-adv-x="634" 
d="M595 165l4 12l-44 16l-4 -13q-12 -39 -30 -67.5t-44 -47t-62.5 -27.5t-84.5 -9q-108 0 -165.5 53.5t-57.5 149.5v247q0 97 57 149.5t166 52.5q95 0 145 -34.5t73 -109.5l5 -14l44 14l-4 13q-26 88 -88 131t-175 43q-132 0 -200.5 -64.5t-68.5 -181.5v-245
q0 -117 69.5 -182t199.5 -65q115 0 176.5 44t88.5 135z" />
    <glyph glyph-name="uni0422" unicode="&#x422;" horiz-adv-x="532" 
d="M519 667v43h-506v-43h230v-667h46v667h230z" />
    <glyph glyph-name="uni0423" unicode="&#x423;" horiz-adv-x="582" 
d="M578 710h-52l-232 -458l-240 458h-54l270 -507l-103 -203h53z" />
    <glyph glyph-name="uni0424" unicode="&#x424;" horiz-adv-x="824" 
d="M774 396q0 121 -69 187.5t-201 66.5h-69v85h-46v-85h-69q-132 0 -201 -66.5t-69 -187.5v-77q0 -121 69 -187.5t201 -66.5h69v-85h46v85h69q132 0 201 66.5t69 187.5v77zM389 608v-501h-69q-109 0 -166 55t-57 156v79q0 100 57 155.5t166 55.5h69zM727 318
q0 -101 -57 -156t-166 -55h-69v501h69q109 0 166 -55.5t57 -155.5v-79z" />
    <glyph glyph-name="uni0425" unicode="&#x425;" horiz-adv-x="607" 
d="M15 710l259 -350l-268 -360h58l238 325l240 -325h58l-267 361l258 349h-56l-231 -313l-232 313h-57z" />
    <glyph glyph-name="uni0426" unicode="&#x426;" horiz-adv-x="689" 
d="M541 43h-413v667h-46v-710h540v-153h45v196h-80v667h-46v-667z" />
    <glyph glyph-name="uni0427" unicode="&#x427;" horiz-adv-x="623" 
d="M293 315q-56 0 -95 12.5t-63.5 37.5t-35.5 63t-11 89v193h-46v-193q0 -122 58 -183.5t191 -61.5q116 0 203 22v-294h47v710h-47v-372q-89 -23 -201 -23z" />
    <glyph glyph-name="uni0428" unicode="&#x428;" horiz-adv-x="904" 
d="M429 43h-301v667h-46v-710h740v710h-46v-667h-301v667h-46v-667z" />
    <glyph glyph-name="uni0429" unicode="&#x429;" horiz-adv-x="925" 
d="M904 -153v196h-82v667h-46v-667h-301v667h-46v-667h-301v667h-46v-710h777v-153h45z" />
    <glyph glyph-name="uni042A" unicode="&#x42a;" horiz-adv-x="722" 
d="M186 667v-667h283q103 0 161.5 57.5t58.5 160.5q0 102 -59 159t-162 57h-236v276h-219v-43h173zM232 391h232q82 0 129.5 -46t47.5 -127q0 -82 -47.5 -128.5t-129.5 -46.5h-232v348z" />
    <glyph glyph-name="uni042B" unicode="&#x42b;" horiz-adv-x="841" 
d="M364 0q103 0 162 57.5t59 160.5q0 102 -59 159t-162 57h-236v276h-46v-710h282zM360 391q82 0 129.5 -46t47.5 -127q0 -82 -47.5 -128.5t-129.5 -46.5h-232v348h232zM759 0v710h-46v-710h46z" />
    <glyph glyph-name="uni042C" unicode="&#x42c;" horiz-adv-x="618" 
d="M128 710h-46v-710h282q103 0 162 57.5t59 160.5q0 102 -59 159t-162 57h-236v276zM360 391q82 0 129.5 -46t47.5 -127q0 -82 -47.5 -128.5t-129.5 -46.5h-232v348h232z" />
    <glyph glyph-name="uni042D" unicode="&#x42d;" horiz-adv-x="638" 
d="M531 338v-107q0 -96 -57 -149t-166 -53q-48 0 -84.5 9t-63 27t-44 46t-29.5 66l-4 15l-44 -17l4 -11q27 -89 88.5 -133.5t176.5 -44.5q130 0 200 64.5t70 181.5v247q0 117 -69.5 181t-200.5 64q-114 0 -175.5 -42.5t-86.5 -129.5l-4 -14l43 -14l4 13q23 75 74 109.5
t145 34.5q109 0 166 -52.5t57 -148.5v-99h-340v-43h340z" />
    <glyph glyph-name="uni042E" unicode="&#x42e;" horiz-adv-x="912" 
d="M852 479q0 115 -68 180t-197 65q-131 0 -199 -64t-68 -181v-98h-192v329h-46v-710h46v338h192v-107q0 -117 68 -181t199 -64q129 0 197 65t68 180v248zM587 29q-109 0 -165 53t-56 150v246q0 97 56 150t165 53q106 0 162.5 -53t56.5 -150v-246q0 -97 -56.5 -150
t-162.5 -53z" />
    <glyph glyph-name="uni042F" unicode="&#x42f;" horiz-adv-x="639" 
d="M557 710h-300q-96 0 -149.5 -52t-53.5 -148q0 -85 46.5 -135.5t129.5 -57.5q-49 -21 -82 -82l-119 -235h52l110 217q13 26 27 44t32.5 29t41.5 16.5t54 5.5h165v-312h46v710zM102 510q0 75 41.5 116t118.5 41h249v-312h-249q-77 0 -118.5 40t-41.5 115z" />
    <glyph glyph-name="uni0430" unicode="&#x430;" horiz-adv-x="509" 
d="M448 332q0 44 -10 80t-32.5 61.5t-60 39.5t-91.5 14q-141 0 -197 -106l-6 -13l39 -15l5 10q46 85 157 85q44 0 73.5 -10.5t47 -30.5t25 -49t7.5 -65v-55q-53 5 -89.5 8t-58.5 3q-58 0 -99.5 -8t-67.5 -26t-38 -47t-12 -70q0 -40 10 -68.5t35 -47t66 -27.5t102 -9
q101 0 159 26l36 15v305zM382 41q-50 -19 -132 -19q-48 0 -80 7t-51 21.5t-27 36.5t-8 52q0 31 9 52.5t29 35t52.5 20t78.5 6.5q21 0 59 -3t93 -8v-191z" />
    <glyph glyph-name="uni0431" unicode="&#x431;" horiz-adv-x="551" 
d="M500 313q0 91 -54 141t-156 50q-124 0 -183 -89v25q0 66 10 113.5t35.5 78.5t70 45.5t113.5 14.5h38q67 0 95 16l11 6l-15 39l-11 -6q-26 -14 -81 -14h-37q-81 0 -133.5 -18.5t-83 -56t-42 -94t-11.5 -133.5v-254q0 -91 55 -141t161 -50q108 0 163 50t55 141v136z
M457 177q0 -72 -44 -112t-131 -40q-85 0 -129 40t-44 112v184q10 32 55 69q44 35 118 35q87 0 131 -40t44 -112v-136z" />
    <glyph glyph-name="uni0432" unicode="&#x432;" horiz-adv-x="531" 
d="M468 382q0 63 -36 96.5t-102 33.5h-259v-512h273q67 0 104.5 36.5t37.5 102.5q0 99 -84 129q66 32 66 114zM335 247q51 0 79 -27t28 -78t-27.5 -78t-77.5 -27h-223v210h221zM324 475q101 0 101 -95q0 -46 -26 -71.5t-70 -25.5h-215v192h210z" />
    <glyph glyph-name="uni0433" unicode="&#x433;" horiz-adv-x="424" 
d="M71 512v-512h43v473h293v39h-336z" />
    <glyph glyph-name="uni0434" unicode="&#x434;" horiz-adv-x="582" 
d="M561 40h-72v472h-355v-172q0 -152 -19 -210q-19 -60 -55 -90h-47v-179h42v139h464v-139h42v179zM176 473h271v-433h-335q15 17 27 41t20.5 59t12.5 83.5t4 114.5v135z" />
    <glyph glyph-name="uni0435" unicode="&#x435;" horiz-adv-x="527" 
d="M483 320q0 95 -55 151t-161 56t-161 -55.5t-55 -153.5v-135q0 -93 52.5 -145t157.5 -52q152 0 213 113l6 13l-36 20l-6 -12q-54 -97 -177 -97q-82 0 -124.5 41t-42.5 115v68h389v73zM94 322q0 78 44 122.5t129 44.5t129 -44.5t44 -122.5v-40h-346v40z" />
    <glyph glyph-name="uni0436" unicode="&#x436;" horiz-adv-x="742" 
d="M675 0h46l-97 196q-31 61 -80 76l173 240h-52l-162 -229h-111v229h-43v-229h-110l-163 229h-51l172 -240q-48 -15 -79 -76l-99 -196h48l89 180q17 34 41.5 49t63.5 15h88v-244h43v244h89q39 0 63.5 -15t41.5 -49z" />
    <glyph glyph-name="uni0437" unicode="&#x437;" horiz-adv-x="512" 
d="M378 264v2q77 29 77 116q0 64 -49.5 104.5t-147.5 40.5q-37 0 -66 -7t-51.5 -18t-39 -25.5t-27.5 -28.5q-17 -22 -22.5 -32.5t-8.5 -20.5l-4 -14l40 -12l2 6q2 6 5 13q1 3 10.5 19t30 34t52.5 32.5t79 14.5q76 0 114.5 -30.5t38.5 -78.5q0 -47 -28.5 -72.5t-83.5 -25.5
h-124v-37h126q62 0 91 -26t29 -79t-39.5 -83.5t-119.5 -30.5q-31 0 -61.5 7.5t-56 23t-44 39t-27.5 55.5l-42 -12l2 -7q3 -5 5 -13q9 -23 30.5 -49t41.5 -40q23 -17 63 -30t88 -13q104 0 154.5 40.5t50.5 109.5q0 102 -88 128z" />
    <glyph glyph-name="uni0438" unicode="&#x438;" horiz-adv-x="562" 
d="M453 512l-339 -438v438h-43v-512h38l339 438v-438h43v512h-38z" />
    <glyph glyph-name="uni0439" unicode="&#x439;" horiz-adv-x="562" 
d="M448 438v-438h43v512h-38l-339 -438v438h-43v-512h38zM130 711l3 -9q32 -111 150 -111q117 0 150 111l3 8l-35 13l-2 -9q-25 -90 -116 -90q-94 0 -116 91l-2 8z" />
    <glyph glyph-name="uni043A" unicode="&#x43a;" horiz-adv-x="514" 
d="M448 0h48l-101 201q-33 63 -91 75l188 236h-51l-182 -229h-145v229h-43v-512h43v244h141q39 0 63 -15t41 -49z" />
    <glyph glyph-name="uni043B" unicode="&#x43b;" horiz-adv-x="534" 
d="M-2 20l19 -38l11 5q29 13 49 30t40 53q40 71 40 257v145h264v-472h43v512h-348v-183q0 -112 -13.5 -172t-35.5 -87q-17 -20 -27.5 -28t-28.5 -16z" />
    <glyph glyph-name="uni043C" unicode="&#x43c;" horiz-adv-x="636" 
d="M71 512v-512h40v432l192 -337h32l190 336v-431h41v512h-39l-207 -369l-210 369h-39z" />
    <glyph glyph-name="uni043D" unicode="&#x43d;" horiz-adv-x="557" 
d="M114 0v244h329v-244h43v512h-43v-229h-329v229h-43v-512h43z" />
    <glyph glyph-name="uni043E" unicode="&#x43e;" horiz-adv-x="537" 
d="M425 33q58 47 58 128v190q0 82 -58 129t-157 47q-98 0 -156 -47.5t-58 -128.5v-190q0 -81 58 -128t156 -47q99 0 157 47zM440 352v-191q0 -63 -47 -99.5t-125 -36.5q-77 0 -124 37t-47 99v191q0 62 47 99t124 37q78 0 125 -36.5t47 -99.5z" />
    <glyph glyph-name="uni043F" unicode="&#x43f;" horiz-adv-x="552" 
d="M481 0v512h-410v-512h43v473h325v-473h42z" />
    <glyph glyph-name="uni0440" unicode="&#x440;" horiz-adv-x="534" 
d="M480 325q0 202 -210 202q-91 0 -163 -29l-39 -17v-701h43v249q92 -43 177 -43q192 0 192 192v147zM136 464q63 23 132 23q170 0 170 -163v-145q0 -154 -154 -154q-86 0 -173 44v385z" />
    <glyph glyph-name="uni0441" unicode="&#x441;" horiz-adv-x="513" 
d="M474 129l4 13l-41 14l-3 -12q-17 -62 -58 -90.5t-112 -28.5q-81 0 -125 41t-44 113v156q0 72 42.5 112.5t126.5 40.5q73 0 111 -27t56 -86l4 -13l40 14l-4 14q-39 137 -205 137q-106 0 -159.5 -51t-53.5 -143v-153q0 -93 53.5 -143.5t157.5 -50.5q167 0 210 143z" />
    <glyph glyph-name="uni0442" unicode="&#x442;" horiz-adv-x="441" 
d="M427 473v39h-412v-39h185v-473h43v473h184z" />
    <glyph glyph-name="uni0443" unicode="&#x443;" horiz-adv-x="549" 
d="M478 -37v549h-43v-446q-84 -34 -171 -34q-155 0 -155 156v324h-43v-326q0 -193 194 -193q87 0 175 33v-65q0 -175 -166 -175q-109 0 -157 95l-6 11l-37 -20l6 -12q57 -113 195 -113q208 0 208 216z" />
    <glyph glyph-name="uni0444" unicode="&#x444;" horiz-adv-x="738" 
d="M474 527q-40 -2 -83 -6v219h-43v-219q-43 5 -84 6q-39 0 -77 -9.5t-68 -33.5t-48.5 -64t-18.5 -102v-131q0 -201 212 -201q54 1 84 6v-212h43v212q30 -5 83 -6q212 0 212 201v138q0 202 -212 202zM95 317q0 53 16.5 86.5t42 52t55.5 25t56 6.5q17 0 38 -1.5t45 -3.5v-451
q-24 -2 -45 -3.5t-38 -1.5q-170 0 -170 162v129zM642 188q0 -162 -170 -162q-18 0 -38 1.5t-43 3.5v451q23 2 43 3.5t38 1.5q170 0 170 -163v-136z" />
    <glyph glyph-name="uni0445" unicode="&#x445;" horiz-adv-x="477" 
d="M70 512h-51l193 -248l-202 -264h49l179 233l180 -233h50l-202 263l190 249h-49l-168 -218z" />
    <glyph glyph-name="uni0446" unicode="&#x446;" horiz-adv-x="567" 
d="M432 40h-318v472h-43v-512h433v-139h42v179h-72v472h-42v-472z" />
    <glyph glyph-name="uni0447" unicode="&#x447;" horiz-adv-x="505" 
d="M241 232q-85 0 -123 33t-38 106v141h-43v-142q0 -91 47.5 -134t151.5 -43q74 0 155 24v-217h43v512h-43v-254q-89 -26 -150 -26z" />
    <glyph glyph-name="uni0448" unicode="&#x448;" horiz-adv-x="759" 
d="M358 40h-244v472h-43v-512h617v512h-43v-472h-244v472h-43v-472z" />
    <glyph glyph-name="uni0449" unicode="&#x449;" horiz-adv-x="779" 
d="M758 -139v179h-70v472h-43v-472h-244v472h-43v-472h-244v472h-43v-512h645v-139h42z" />
    <glyph glyph-name="uni044A" unicode="&#x44a;" horiz-adv-x="610" 
d="M14 473h152v-473h237q84 0 129.5 44t45.5 128q0 82 -45.5 126t-129.5 44h-194v170h-195v-39zM398 303q66 0 101 -33.5t35 -97.5t-35 -98.5t-101 -34.5h-189v264h189z" />
    <glyph glyph-name="uni044B" unicode="&#x44b;" horiz-adv-x="693" 
d="M71 512v-512h237q82 0 128 44t46 128q0 82 -46 126t-128 44h-194v170h-43zM114 39v264h189q65 0 100 -33.5t35 -97.5t-35 -98.5t-100 -34.5h-189zM622 0v512h-42v-512h42z" />
    <glyph glyph-name="uni044C" unicode="&#x44c;" horiz-adv-x="514" 
d="M114 342v170h-43v-512h237q82 0 128 44t46 128q0 82 -46 126t-128 44h-194zM114 39v264h189q65 0 100 -33.5t35 -97.5t-35 -98.5t-100 -34.5h-189z" />
    <glyph glyph-name="uni044D" unicode="&#x44d;" horiz-adv-x="511" 
d="M416 335v-53h-242v-40h242v-63q0 -72 -43.5 -113t-124.5 -41q-71 0 -111.5 28.5t-57.5 90.5l-4 12l-42 -13l4 -13q44 -144 211 -144q103 0 157 51t54 143v153q0 92 -53.5 143t-159.5 51q-167 0 -206 -137l-4 -13l41 -15l4 13q18 59 55.5 86t111.5 27q82 0 125 -40.5
t43 -112.5z" />
    <glyph glyph-name="uni044E" unicode="&#x44e;" horiz-adv-x="741" 
d="M685 353q0 81 -55.5 127.5t-154.5 46.5q-97 0 -153.5 -46.5t-56.5 -127.5v-73h-151v232h-43v-512h43v240h151v-81q0 -81 56.5 -127t153.5 -46q99 0 154.5 46t55.5 127v194zM642 158q0 -63 -45.5 -98t-121.5 -35t-121.5 35t-45.5 98v196q0 62 45.5 98t121.5 36t121.5 -36
t45.5 -98v-196z" />
    <glyph glyph-name="uni044F" unicode="&#x44f;" horiz-adv-x="524" 
d="M208 512q-75 0 -118.5 -42.5t-43.5 -117.5q0 -64 34 -104.5t94 -48.5l-139 -199h51l133 194h192v-194h43v512h-246zM411 474v-241h-199q-57 0 -89.5 32t-32.5 87q0 57 32.5 89.5t89.5 32.5h199z" />
    <glyph glyph-name="uni0451" unicode="&#x451;" horiz-adv-x="527" 
d="M483 320q0 95 -55 151t-161 56t-161 -55.5t-55 -153.5v-135q0 -93 52.5 -145t157.5 -52q152 0 213 113l6 13l-36 20l-6 -12q-54 -97 -177 -97q-82 0 -124.5 41t-42.5 115v68h389v73zM440 282h-346v40q0 78 44 122.5t129 44.5t129 -44.5t44 -122.5v-40zM171 677
q-11 0 -18.5 -7.5t-7.5 -18.5t7.5 -18.5t18.5 -7.5t18.5 7.5t7.5 18.5t-7.5 18.5t-18.5 7.5zM336 651q0 -11 7.5 -18.5t18.5 -7.5t18.5 7.5t7.5 18.5t-7.5 18.5t-18.5 7.5t-18.5 -7.5t-7.5 -18.5z" />
    <glyph glyph-name="Wgrave" unicode="&#x1e80;" horiz-adv-x="870" 
d="M658 0l192 710h-48l-167 -628l-174 613h-47l-175 -614l-167 629h-51l192 -710h47l176 619l175 -619h47zM354 895l-27 -29l201 -109l20 23z" />
    <glyph glyph-name="wgrave" unicode="&#x1e81;" horiz-adv-x="729" 
d="M547 -5l162 517h-44l-138 -447l-142 432h-40l-141 -431l-138 446h-45l162 -517h39l141 440l144 -440h40zM283 724l-27 -30l198 -113l21 23z" />
    <glyph glyph-name="Wacute" unicode="&#x1e82;" horiz-adv-x="870" 
d="M658 0l192 710h-48l-167 -628l-174 613h-47l-175 -614l-167 629h-51l192 -710h47l176 619l175 -619h47zM329 782l20 -23l198 113l-27 31z" />
    <glyph glyph-name="wacute" unicode="&#x1e83;" horiz-adv-x="729" 
d="M547 -5l162 517h-44l-138 -447l-142 432h-40l-141 -431l-138 446h-45l162 -517h39l141 440l144 -440h40zM258 603l20 -23l198 113l-27 31z" />
    <glyph glyph-name="Wdieresis" unicode="&#x1e84;" horiz-adv-x="870" 
d="M611 0h47l192 710h-48l-167 -628l-174 613h-47l-175 -614l-167 629h-51l192 -710h47l176 619zM507 827q0 -11 7.5 -18.5t18.5 -7.5t18.5 7.5t7.5 18.5t-7.5 18.5t-18.5 7.5t-18.5 -7.5t-7.5 -18.5zM342 853q-11 0 -18.5 -7.5t-7.5 -18.5t7.5 -18.5t18.5 -7.5t18.5 7.5
t7.5 18.5t-7.5 18.5t-18.5 7.5z" />
    <glyph glyph-name="wdieresis" unicode="&#x1e85;" horiz-adv-x="729" 
d="M507 -5h40l162 517h-44l-138 -447l-142 432h-40l-141 -431l-138 446h-45l162 -517h39l141 440zM435 650q0 -11 7.5 -18.5t18.5 -7.5t18.5 7.5t7.5 18.5t-7.5 18.5t-18.5 7.5t-18.5 -7.5t-7.5 -18.5zM270 676q-11 0 -18.5 -7.5t-7.5 -18.5t7.5 -18.5t18.5 -7.5t18.5 7.5
t7.5 18.5t-7.5 18.5t-18.5 7.5z" />
    <glyph glyph-name="Ygrave" unicode="&#x1ef2;" horiz-adv-x="619" 
d="M65 710h-58l279 -417v-293h46v292l279 418h-57l-244 -370zM421 781l-194 115l-27 -29l201 -109z" />
    <glyph glyph-name="ygrave" unicode="&#x1ef3;" horiz-adv-x="549" 
d="M478 512h-43v-446q-84 -34 -171 -34q-155 0 -155 156v324h-43v-326q0 -193 194 -193q87 0 175 33v-65q0 -175 -166 -175q-109 0 -157 95l-6 11l-37 -20l6 -12q57 -113 195 -113q208 0 208 216v549zM360 581l21 23l-192 120l-27 -30z" />
    <glyph glyph-name="endash" unicode="&#x2013;" horiz-adv-x="579" 
d="M64 247h452v41h-452v-41z" />
    <glyph glyph-name="emdash" unicode="&#x2014;" horiz-adv-x="779" 
d="M63 247h652v41h-652v-41z" />
    <glyph glyph-name="quoteleft" unicode="&#x2018;" horiz-adv-x="185" 
d="M51 529h49l44 181h-30z" />
    <glyph glyph-name="quoteright" unicode="&#x2019;" horiz-adv-x="181" 
d="M99 710l-44 -181h30l63 181h-49z" />
    <glyph glyph-name="quotesinglbase" unicode="&#x201a;" horiz-adv-x="153" 
d="M56 -116h32l11 226h-43v-226z" />
    <glyph glyph-name="quotedblleft" unicode="&#x201c;" horiz-adv-x="290" 
d="M249 710h-30l-64 -181h50zM114 710l-63 -181h49l44 181h-30z" />
    <glyph glyph-name="quotedblright" unicode="&#x201d;" horiz-adv-x="286" 
d="M54 529h30l64 181h-50zM253 710h-49l-44 -181h30z" />
    <glyph glyph-name="quotedblbase" unicode="&#x201e;" horiz-adv-x="267" 
d="M19 -121h30l64 181h-50zM217 60h-49l-44 -181h30z" />
    <glyph glyph-name="dagger" unicode="&#x2020;" horiz-adv-x="536" 
d="M247 710v-244h-213v-43h213v-523h44v523h212v43h-212v244h-44z" />
    <glyph glyph-name="daggerdbl" unicode="&#x2021;" horiz-adv-x="587" 
d="M528 186h-212v237h212v43h-212v244h-44v-244h-213v-43h213v-237h-213v-43h213v-243h44v243h212v43z" />
    <glyph glyph-name="bullet" unicode="&#x2022;" horiz-adv-x="273" 
d="M137 313q-20 0 -35 -15t-15 -35t15 -34.5t35 -14.5t34.5 14.5t14.5 34.5t-14.5 35t-34.5 15z" />
    <glyph glyph-name="ellipsis" unicode="&#x2026;" horiz-adv-x="558" 
d="M445 25q0 -12 9 -21t21 -9q13 0 21.5 9t8.5 21q0 13 -8.5 21.5t-21.5 8.5q-12 0 -21 -8.5t-9 -21.5zM249 25q0 -12 9 -21t21 -9q13 0 21.5 9t8.5 21q0 13 -8.5 21.5t-21.5 8.5q-12 0 -21 -8.5t-9 -21.5zM112 25q0 13 -8.5 21.5t-21.5 8.5q-12 0 -21 -8.5t-9 -21.5
q0 -12 9 -21t21 -9q13 0 21.5 9t8.5 21z" />
    <glyph glyph-name="perthousand" unicode="&#x2030;" horiz-adv-x="1177" 
d="M193 725q-75 0 -115 -38.5t-40 -107.5v-75q0 -69 40 -107t115 -38t114.5 38t39.5 107v75q0 69 -39.5 107.5t-114.5 38.5zM987 351q-75 0 -114.5 -39t-39.5 -108v-74q0 -69 39.5 -107t114.5 -38t115 38t40 107v74q0 69 -40 108t-115 39zM461 204v-74q0 -69 39.5 -107
t114.5 -38t115 38t40 107v74q0 69 -40 108t-115 39t-114.5 -39t-39.5 -108zM732 132q0 -54 -30 -82.5t-87 -28.5t-87 28.5t-30 82.5v71q0 54 30 83t87 29t87 -29t30 -83v-71zM193 395q-57 0 -87 28.5t-30 82.5v71q0 54 30 83t87 29t87 -29t30 -83v-71q0 -54 -30 -82.5
t-87 -28.5zM1104 132q0 -54 -30 -82.5t-87 -28.5t-87 28.5t-30 82.5v71q0 54 30 83t87 29t87 -29t30 -83v-71zM168 0l522 710h-50l-522 -710h50z" />
    <glyph glyph-name="guilsinglleft" unicode="&#x2039;" horiz-adv-x="327" 
d="M33 262l220 -220l28 30l-191 191l192 193l-28 28z" />
    <glyph glyph-name="guilsinglright" unicode="&#x203a;" horiz-adv-x="327" 
d="M72 484l-28 -28l192 -193l-191 -191l28 -30l220 220z" />
    <glyph glyph-name="fraction" unicode="&#x2044;" horiz-adv-x="141" 
d="M306 710l-522 -710h50l522 710h-50z" />
    <glyph glyph-name="uni2070" unicode="&#x2070;" horiz-adv-x="373" 
d="M187 406q67 0 105 35t38 98v146q0 61 -38 97t-105 36q-69 0 -106.5 -36t-37.5 -97v-146q0 -63 37.5 -98t106.5 -35zM80 685q0 46 28 72t79 26t78.5 -26.5t27.5 -71.5v-146q0 -45 -27.5 -71.5t-78.5 -26.5t-79 26t-28 72v146z" />
    <glyph glyph-name="uni2074" unicode="&#x2074;" horiz-adv-x="353" 
d="M232 414h36v111h63v33h-63v252h-40l-208 -255v-30h212v-111zM232 558h-168l168 205v-205z" />
    <glyph glyph-name="uni2075" unicode="&#x2075;" horiz-adv-x="347" 
d="M300 777v33h-235l-19 -190h126q106 0 106 -88q0 -42 -25.5 -67t-75.5 -25q-90 0 -112 85l-3 11l-35 -8l4 -15q29 -107 147 -107q67 0 101.5 35.5t34.5 90.5q0 57 -35 88.5t-106 31.5h-88l13 125h202z" />
    <glyph glyph-name="uni2076" unicode="&#x2076;" horiz-adv-x="372" 
d="M325 744q-36 74 -134 74q-73 0 -111 -39.5t-38 -112.5v-108q0 -152 145 -152q150 0 150 122q0 118 -133 118q-60 0 -124 -26v47q0 117 111 117q74 0 101 -57l4 -7l34 15l-1 1zM80 584q50 28 119 28q101 0 101 -84q0 -88 -113 -88q-107 0 -107 117v27z" />
    <glyph glyph-name="uni2077" unicode="&#x2077;" horiz-adv-x="308" 
d="M294 785v25h-271v-35h228l-157 -361h41z" />
    <glyph glyph-name="uni2078" unicode="&#x2078;" horiz-adv-x="373" 
d="M249 615q75 29 75 101q0 48 -35.5 75t-101.5 27t-103 -28.5t-37 -80.5q0 -70 74 -94q-85 -31 -85 -105q0 -51 39.5 -77.5t111.5 -26.5q150 0 150 114q0 39 -21.5 61t-66.5 34zM75 514q0 20 8 34t21.5 24.5t30 17t32.5 10.5q37 -5 62 -11.5t40.5 -15.5t22 -22.5t6.5 -31.5
q0 -82 -111 -82q-54 0 -83 20t-29 57zM85 709q0 37 26.5 57.5t74.5 20.5t74 -20t26 -54q0 -64 -82 -86q-67 10 -93 28t-26 54z" />
    <glyph glyph-name="uni2079" unicode="&#x2079;" horiz-adv-x="372" 
d="M330 666q0 152 -145 152q-150 0 -150 -122q0 -118 133 -118q60 0 124 26v-47q0 -117 -111 -117q-74 0 -101 57l-4 7l-34 -15l1 -1t4 -8q36 -74 134 -74q73 0 111 39.5t38 112.5v108zM185 784q107 0 107 -117v-27q-50 -28 -119 -28q-101 0 -101 84q0 88 113 88z" />
    <glyph glyph-name="uni2080" unicode="&#x2080;" horiz-adv-x="373" 
d="M187 -127q67 0 105 35t38 98v146q0 61 -38 97t-105 36q-69 0 -106.5 -36t-37.5 -97v-146q0 -63 37.5 -98t106.5 -35zM80 152q0 46 28 72t79 26t78.5 -26.5t27.5 -71.5v-146q0 -45 -27.5 -71.5t-78.5 -26.5t-79 26t-28 72v146z" />
    <glyph glyph-name="uni2081" unicode="&#x2081;" horiz-adv-x="279" 
d="M218 -118v396h-29l-174 -98l16 -32l150 83v-349h37z" />
    <glyph glyph-name="uni2082" unicode="&#x2082;" horiz-adv-x="351" 
d="M244 108q-5 -4 -16 -9t-16 -7t-18.5 -7t-17.5 -7l-61 -23q-77 -28 -77 -118v-56h271v34h-235v33q0 57 57 79l61 22q24 8 45.5 16.5t38.5 22t27 33t10 47.5q0 52 -34.5 84.5t-98.5 32.5q-37 0 -62.5 -12.5t-41.5 -29.5t-23.5 -34.5t-10.5 -27.5l-6 -19l38 -13l4 23
q2 9 8 22t17.5 25.5t30 21.5t45.5 9q46 0 70.5 -23t24.5 -61q0 -23 -9 -35t-21 -23z" />
    <glyph glyph-name="uni2083" unicode="&#x2083;" horiz-adv-x="360" 
d="M276 170q0 -30 -16 -50.5t-47 -20.5h-80v-34h82q32 0 51.5 -22t19.5 -55q0 -37 -25.5 -59t-73.5 -22q-51 0 -77 20t-40 66l-4 12l-34 -11l4 -13q16 -54 52 -81t99 -27q66 0 101 30t35 81q0 72 -62 101q51 26 51 88q0 51 -33 81.5t-91 30.5q-63 0 -98.5 -26.5t-52.5 -83.5
l-4 -12l35 -15l5 16q13 45 40 66t75 21q42 0 65 -22t23 -59z" />
    <glyph glyph-name="uni2084" unicode="&#x2084;" horiz-adv-x="352" 
d="M232 -119h36v111h63v33h-63v252h-40l-208 -255v-30h212v-111zM232 25h-168l168 205v-205z" />
    <glyph glyph-name="uni2085" unicode="&#x2085;" horiz-adv-x="348" 
d="M301 244v33h-235l-19 -190h126q106 0 106 -88q0 -42 -25.5 -67t-75.5 -25q-90 0 -112 85l-3 11l-35 -8l4 -15q29 -107 147 -107q67 0 101.5 35.5t34.5 90.5q0 57 -35 88.5t-106 31.5h-88l13 125h202z" />
    <glyph glyph-name="uni2086" unicode="&#x2086;" horiz-adv-x="372" 
d="M325 211q-36 74 -134 74q-73 0 -111 -39.5t-38 -112.5v-108q0 -152 145 -152q150 0 150 122q0 118 -133 118q-60 0 -124 -26v47q0 117 111 117q74 0 101 -57l4 -7l34 15l-1 1zM80 51q50 28 119 28q101 0 101 -84q0 -88 -113 -88q-107 0 -107 117v27z" />
    <glyph glyph-name="uni2087" unicode="&#x2087;" horiz-adv-x="308" 
d="M294 252v25h-271v-35h228l-157 -361h41z" />
    <glyph glyph-name="uni2088" unicode="&#x2088;" horiz-adv-x="373" 
d="M249 82q75 29 75 101q0 48 -35.5 75t-101.5 27t-103 -28.5t-37 -80.5q0 -70 74 -94q-85 -31 -85 -105q0 -51 39.5 -77.5t111.5 -26.5q150 0 150 114q0 39 -21.5 61t-66.5 34zM75 -19q0 20 8 34t21.5 24.5t30 17t32.5 10.5q37 -5 62 -11.5t40.5 -15.5t22 -22.5t6.5 -31.5
q0 -82 -111 -82q-54 0 -83 20t-29 57zM85 176q0 37 26.5 57.5t74.5 20.5t74 -20t26 -54q0 -64 -82 -86q-67 10 -93 28t-26 54z" />
    <glyph glyph-name="uni2089" unicode="&#x2089;" horiz-adv-x="372" 
d="M330 133q0 152 -145 152q-150 0 -150 -122q0 -118 133 -118q60 0 124 26v-47q0 -117 -111 -117q-74 0 -101 57l-4 7l-34 -15l1 -1l4 -8q36 -74 134 -74q73 0 111 39.5t38 112.5v108zM185 251q107 0 107 -117v-27q-50 -28 -119 -28q-101 0 -101 84q0 88 113 88z" />
    <glyph glyph-name="Euro" unicode="&#x20ac;" horiz-adv-x="723" 
d="M537 407l10 36h-350v43q0 93 57 144.5t165 51.5q152 0 201 -100l6 -13l44 20l-8 15q-61 121 -243 121q-131 0 -200.5 -63.5t-69.5 -177.5v-41h-73l-9 -36h83v-114h-111l-9 -36h120v-33q2 -115 71 -177t198 -62q100 0 158.5 32t88.5 98l7 16l-43 18l-5 -12
q-48 -109 -206 -109q-106 0 -163.5 51.5t-58.5 144.5v33h295l10 36h-307v114h342z" />
    <glyph glyph-name="uni20BD" unicode="&#x20bd;" horiz-adv-x="640" 
d="M101 710v-525h-64v-36h64v-149h46v149h380v36h-380v111h238q102 0 160 54.5t58 151.5q0 99 -58 153.5t-160 54.5h-284zM381 667q81 0 127.5 -43.5t46.5 -121.5t-46.5 -120.5t-127.5 -42.5h-234v328h234z" />
    <glyph glyph-name="uni2113" unicode="&#x2113;" horiz-adv-x="420" 
d="M380 36l6 6l-23 30q-1 -2 -3 -3l-3.5 -3.5l-3.5 -3.5q-2 -1 -9 -6t-18 -10t-25.5 -9t-30.5 -4q-57 0 -80 31t-23 98v90q105 82 163 162t58 168q0 75 -35 112.5t-93 37.5t-95.5 -39.5t-37.5 -125.5v-296l-105 -76l22 -34q19 14 36 26l28 20t20 15v-70q0 -81 32.5 -119.5
t107.5 -38.5q12 0 27.5 3t31.5 8.5t30 13.5t23 17zM167 567q0 128 92 128q40 0 64.5 -27.5t24.5 -85.5q0 -129 -181 -277v262z" />
    <glyph glyph-name="uni2116" unicode="&#x2116;" horiz-adv-x="1036" 
d="M826 359q75 0 114.5 38t39.5 107v74q0 69 -39.5 108t-114.5 39t-115 -39t-40 -108v-74q0 -69 40 -107t115 -38zM71 710v-710h45v624l438 -624h41v710h-45v-624l-437 624h-42zM709 577q0 54 30 83t87 29t87 -29t30 -83v-71q0 -54 -30 -82.5t-87 -28.5t-87 28.5t-30 82.5
v71zM982 249v40h-312v-40h312z" />
    <glyph glyph-name="uni2117" unicode="&#x2117;" horiz-adv-x="813" 
d="M765 351q0 75 -27.5 140.5t-75.5 114t-113.5 76.5t-141.5 28t-141.5 -27.5t-114 -76t-76.5 -114t-28 -141.5q0 -75 28 -140.5t77 -114t114.5 -76.5t140.5 -28q76 0 141.5 27.5t113.5 76t75.5 114t27.5 141.5zM407 24q-69 0 -129 25t-103.5 69.5t-68.5 104t-25 128.5
q0 70 25 129.5t68.5 103t103 68.5t129.5 25t129.5 -25t103 -68.5t68 -103.5t24.5 -129t-25 -128.5t-68.5 -104t-103 -69.5t-128.5 -25zM283 149h32v120h120q64 0 102 36.5t38 99.5q0 64 -38 101.5t-102 37.5h-152v-395zM315 513h118q51 0 80.5 -28.5t29.5 -79.5
q0 -49 -29.5 -77.5t-80.5 -28.5h-118v214z" />
    <glyph glyph-name="trademark" unicode="&#x2122;" horiz-adv-x="627" 
d="M525 638v-195h28v252h-22l-106 -160l-105 160h-23v-252h28v195l90 -136h20zM270 695h-225v-27h99v-225h28v225h98v27z" />
    <glyph glyph-name="Omega" unicode="&#x2126;" horiz-adv-x="742" 
d="M502 44q85 52 134.5 138t49.5 198q0 71 -21 133.5t-61.5 109.5t-99 74t-133.5 27t-133 -27.5t-98.5 -74.5t-61.5 -109.5t-21 -133.5q0 -109 47.5 -194.5t135.5 -140.5h-194v-44h268v34l-10 5q-202 111 -202 335q0 62 17.5 117.5t51 97.5t84 67t116.5 25t116.5 -25
t84.5 -67t51.5 -98t17.5 -118q0 -112 -54 -197.5t-148 -134.5l-11 -6v-35h268v44h-194z" />
    <glyph glyph-name="estimated" unicode="&#x212e;" horiz-adv-x="824" 
d="M700 220q-21 -42 -51 -75t-67 -56.5t-79 -35.5t-86 -12q-106 0 -196 69v214h566v31q0 78 -28.5 145.5t-78.5 117.5t-117.5 78.5t-145.5 28.5q-77 0 -144.5 -29t-117.5 -79t-79 -117.5t-29 -144.5q0 -76 29 -143.5t79.5 -118t118 -79.5t143.5 -29q57 0 110 16.5t98 47
t80 73.5t56 96l6 14h-61zM221 605q89 68 196 68q111 0 196 -69v-225h-392v226z" />
    <glyph glyph-name="onethird" unicode="&#x2153;" horiz-adv-x="861" 
d="M685 -8q66 0 101 30t35 81q0 72 -62 101q51 26 51 88q0 51 -33 81.5t-91 30.5q-63 0 -98.5 -26.5t-52.5 -83.5l-4 -12l35 -15l5 16q13 45 40 66t75 21q42 0 65 -22t23 -59q0 -30 -16 -50.5t-47 -20.5h-80v-34h82q32 0 51.5 -22t19.5 -55q0 -37 -25.5 -59t-73.5 -22
q-51 0 -77 20t-40 66l-4 12l-34 -11l4 -13q16 -54 52 -81t99 -27zM120 0h49l523 710h-48zM27 619l16 -32l150 83v-349h37v396h-29z" />
    <glyph glyph-name="twothirds" unicode="&#x2154;" horiz-adv-x="869" 
d="M640 184h82q32 0 51.5 -22t19.5 -55q0 -37 -25.5 -59t-73.5 -22q-51 0 -77 20t-40 66l-4 12l-34 -11l4 -13q16 -54 52 -81t99 -27q66 0 101 30t35 81q0 72 -62 101q51 26 51 88q0 51 -33 81.5t-91 30.5q-63 0 -98.5 -26.5t-52.5 -83.5l-4 -12l35 -15l5 16q13 45 40 66
t75 21q42 0 65 -22t23 -59q0 -30 -16 -50.5t-47 -20.5h-80v-34zM88 613q2 9 8 22t17.5 25.5t30 21.5t45.5 9q46 0 70.5 -23t24.5 -61q0 -23 -9 -35t-21 -23q-5 -4 -16 -9t-16 -7t-18.5 -7t-17.5 -7l-61 -23q-77 -28 -77 -118v-56h271v34h-235v33q0 57 57 79l61 22
q24 8 45.5 16.5t38.5 22t27 33t10 47.5q0 52 -34.5 84.5t-98.5 32.5q-37 0 -62.5 -12.5t-41.5 -29.5t-23.5 -34.5t-10.5 -27.5l-6 -19l38 -13zM681 710l-524 -710h49l523 710h-48z" />
    <glyph glyph-name="oneeighth" unicode="&#x215b;" horiz-adv-x="850" 
d="M724 202q75 29 75 101q0 48 -35.5 75t-101.5 27t-103 -28.5t-37 -80.5q0 -70 74 -94q-85 -31 -85 -105q0 -51 39.5 -77.5t111.5 -26.5q150 0 150 114q0 39 -21.5 61t-66.5 34zM681 710h-48l-524 -710h49zM642 187q37 -5 62 -11.5t40.5 -15.5t22 -22.5t6.5 -31.5
q0 -82 -111 -82q-54 0 -83 20t-29 57q0 20 8 34t21.5 24.5t30 17t32.5 10.5zM761 300q0 -64 -82 -86q-67 10 -93 28t-26 54q0 37 26.5 57.5t74.5 20.5t74 -20t26 -54zM27 620l16 -32l150 83v-349h37v396h-29z" />
    <glyph glyph-name="threeeighths" unicode="&#x215c;" horiz-adv-x="882" 
d="M832 302q0 48 -35.5 75t-101.5 27t-103 -28.5t-37 -80.5q0 -70 74 -94q-85 -31 -85 -105q0 -51 39.5 -77.5t111.5 -26.5q150 0 150 114q0 39 -21.5 61t-66.5 34q75 29 75 101zM73 446l-34 -11l4 -13q16 -54 52 -81t99 -27q66 0 101 30t35 81q0 72 -62 101q51 26 51 88
q0 51 -33 81.5t-91 30.5q-63 0 -98.5 -26.5t-52.5 -83.5l-4 -12l35 -15l5 16q13 45 40 66t75 21q42 0 65 -22t23 -59q0 -30 -16 -50.5t-47 -20.5h-80v-34h82q32 0 51.5 -22t19.5 -55q0 -37 -25.5 -59t-73.5 -22q-51 0 -77 20t-40 66zM148 0h49l523 710h-48zM806 105
q0 -82 -111 -82q-54 0 -83 20t-29 57q0 20 8 34t21.5 24.5t30 17t32.5 10.5q37 -5 62 -11.5t40.5 -15.5t22 -22.5t6.5 -31.5zM794 299q0 -64 -82 -86q-67 10 -93 28t-26 54q0 37 26.5 57.5t74.5 20.5t74 -20t26 -54z" />
    <glyph glyph-name="fiveeighths" unicode="&#x215d;" horiz-adv-x="863" 
d="M814 303q0 48 -35.5 75t-101.5 27t-103 -28.5t-37 -80.5q0 -70 74 -94q-85 -31 -85 -105q0 -51 39.5 -77.5t111.5 -26.5q150 0 150 114q0 39 -21.5 61t-66.5 34q75 29 75 101zM178 528q106 0 106 -88q0 -42 -25.5 -67t-75.5 -25q-90 0 -112 85l-3 11l-35 -8l4 -15
q29 -107 147 -107q67 0 101.5 35.5t34.5 90.5q0 57 -35 88.5t-106 31.5h-88l13 125h202v33h-235l-19 -190h126zM128 0h49l523 710h-48zM677 24q-54 0 -83 20t-29 57q0 20 8 34t21.5 24.5t30 17t32.5 10.5q37 -5 62 -11.5t40.5 -15.5t22 -22.5t6.5 -31.5q0 -82 -111 -82z
M776 300q0 -64 -82 -86q-67 10 -93 28t-26 54q0 37 26.5 57.5t74.5 20.5t74 -20t26 -54z" />
    <glyph glyph-name="seveneighths" unicode="&#x215e;" horiz-adv-x="836" 
d="M711 201q75 29 75 101q0 48 -35.5 75t-101.5 27t-103 -28.5t-37 -80.5q0 -70 74 -94q-85 -31 -85 -105q0 -51 39.5 -77.5t111.5 -26.5q150 0 150 114q0 39 -21.5 61t-66.5 34zM646 710h-48l-524 -710h49zM629 186q37 -5 62 -11.5t40.5 -15.5t22 -22.5t6.5 -31.5
q0 -82 -111 -82q-54 0 -83 20t-29 57q0 20 8 34t21.5 24.5t30 17t32.5 10.5zM748 299q0 -64 -82 -86q-67 10 -93 28t-26 54q0 37 26.5 57.5t74.5 20.5t74 -20t26 -54zM32 683h228l-157 -361h41l159 371v25h-271v-35z" />
    <glyph glyph-name="arrowleft" unicode="&#x2190;" horiz-adv-x="745" 
d="M700 353h-607l219 220l-26 28l-265 -266l265 -266l26 28l-219 219h607v37z" />
    <glyph glyph-name="arrowup" unicode="&#x2191;" horiz-adv-x="745" 
d="M391 603l219 -220l28 26l-266 266l-266 -266l28 -26l220 220v-607h37v607z" />
    <glyph glyph-name="arrowright" unicode="&#x2192;" horiz-adv-x="745" 
d="M724 334l-266 266l-26 -28l220 -220h-607v-37h607l-220 -219l26 -28z" />
    <glyph glyph-name="arrowdown" unicode="&#x2193;" horiz-adv-x="745" 
d="M391 669h-37v-607l-220 219l-28 -26l266 -265l266 265l-28 26l-219 -219v607z" />
    <glyph glyph-name="uni2196" unicode="&#x2196;" horiz-adv-x="745" 
d="M602 575h-374v-37h311l-430 -430l27 -25l429 429v-311h37v374z" />
    <glyph glyph-name="uni2197" unicode="&#x2197;" horiz-adv-x="745" 
d="M636 108l-430 430h311v37h-374v-374h37v311l429 -429z" />
    <glyph glyph-name="uni2198" unicode="&#x2198;" horiz-adv-x="745" 
d="M604 458h-37v-311l-429 429l-27 -26l430 -429h-311v-37h374v374z" />
    <glyph glyph-name="uni2199" unicode="&#x2199;" horiz-adv-x="745" 
d="M607 576l-429 -429v311h-37v-374h374v37h-311l430 429z" />
    <glyph glyph-name="partialdiff" unicode="&#x2202;" horiz-adv-x="550" 
d="M269 -15q106 0 161 49.5t55 140.5v226q0 87 -19 151t-60 106t-106 62.5t-157 20.5h-12v-40h13q80 0 136 -17.5t92 -52.5t53 -89t18 -128q-42 91 -181 91q-102 0 -156 -50t-54 -140v-140q0 -91 55 -140.5t162 -49.5zM442 175q0 -72 -44 -111.5t-129 -39.5q-86 0 -130 39.5
t-44 111.5v140q0 72 44 111.5t130 39.5q85 0 129 -39t44 -111v-141z" />
    <glyph glyph-name="Delta" unicode="&#x2206;" horiz-adv-x="608" 
d="M580 37l-252 673h-48l-251 -673v-37h551v37zM303 655l228 -615h-453z" />
    <glyph glyph-name="product" unicode="&#x220f;" horiz-adv-x="657" 
d="M114 667v-767h46v767h339v-767h46v767h79v43h-591v-43h81z" />
    <glyph glyph-name="summation" unicode="&#x2211;" horiz-adv-x="565" 
d="M37 710v-37l221 -363l-223 -374v-36h482v43h-425l217 367l-216 357h420v43h-476z" />
    <glyph glyph-name="minus" unicode="&#x2212;" horiz-adv-x="602" 
d="M65 304h472v42h-472v-42z" />
    <glyph glyph-name="uni2215" unicode="&#x2215;" horiz-adv-x="564" 
d="M518 710l-522 -710h50l522 710h-50z" />
    <glyph glyph-name="uni2219" unicode="&#x2219;" horiz-adv-x="187" 
d="M94 248q-13 0 -21.5 -8.5t-8.5 -20.5q0 -13 8.5 -21.5t21.5 -8.5q12 0 20.5 8.5t8.5 21.5q0 12 -8.5 20.5t-20.5 8.5z" />
    <glyph glyph-name="radical" unicode="&#x221a;" horiz-adv-x="672" 
d="M385 -43l-165 483h-190v-42h157l175 -504h44l261 856h-48z" />
    <glyph glyph-name="infinity" unicode="&#x221e;" horiz-adv-x="720" 
d="M205 435q-33 0 -60.5 -11t-47.5 -31.5t-31 -48.5t-11 -61q0 -31 11.5 -58t31 -47t46 -31t56.5 -11t55 9.5t45 25.5t35 35.5t25 40.5q11 -21 25.5 -41t34.5 -35.5t44.5 -25t54.5 -9.5t57 11t46.5 31t31 47t11.5 59q0 33 -11 60.5t-30.5 48t-46.5 31.5t-60 11
q-29 0 -53 -10t-43.5 -26t-34.5 -37t-25 -42q-57 115 -156 115zM627 284q0 -23 -8.5 -43t-22.5 -35t-33.5 -23.5t-42.5 -8.5q-34 0 -59 15t-41.5 34.5t-25.5 37.5l-12 24l6 12q6 12 16 29t25.5 32.5t37 27t50.5 11.5q48 0 79 -32t31 -81zM201 174q-46 0 -76.5 31t-30.5 79
q0 49 31 81t79 32q35 0 58.5 -16t39 -36t24 -38t12.5 -22l-4 -10q-6 -11 -16 -28.5t-26 -33.5t-38.5 -27.5t-52.5 -11.5z" />
    <glyph glyph-name="integral" unicode="&#x222b;" horiz-adv-x="359" 
d="M157 -40q0 -72 -30.5 -106t-107.5 -34h-12v-40h12q98 0 140 44t42 135v601q0 72 31 106t108 34h12v40h-12q-99 0 -141 -44t-42 -135v-601z" />
    <glyph glyph-name="approxequal" unicode="&#x2248;" horiz-adv-x="564" 
d="M504 438l-31 31l-8 -8q-43 -40 -91 -40q-35 0 -91 22q-58 23 -97 23q-63 -2 -115 -50l-10 -9l30 -30l9 8q46 40 92 40q32 0 90 -23q54 -21 93 -21q36 0 65 12.5t55 36.5zM495 246l10 9l-32 30l-7 -7q-43 -40 -92 -40q-35 0 -91 22t-97 22q-58 0 -115 -49l-11 -9l33 -30
l8 8q43 40 91 40q33 0 91 -23q54 -21 93 -21q35 0 64 12.5t55 35.5z" />
    <glyph glyph-name="notequal" unicode="&#x2260;" horiz-adv-x="620" 
d="M453 583h-31l-69 -136h-280v-42h258l-80 -156h-178v-42h157l-71 -138h31l70 138h285v42h-263l80 156h183v42h-162z" />
    <glyph glyph-name="lessequal" unicode="&#x2264;" horiz-adv-x="578" 
d="M135 422l353 155v47l-407 -186v-34l407 -187v49zM81 90h407v41h-407v-41z" />
    <glyph glyph-name="greaterequal" unicode="&#x2265;" horiz-adv-x="578" 
d="M442 422l-352 -156v-49l407 187v34l-407 186v-47zM90 131v-41h407v41h-407z" />
    <glyph glyph-name="lozenge" unicode="&#x25ca;" horiz-adv-x="515" 
d="M484 355l-209 355h-35l-210 -355l210 -355h34zM80 355l178 306l178 -306l-179 -306z" />
    <glyph glyph-name="zero.denom" horiz-adv-x="373" 
d="M187 -8q67 0 105 35t38 98v146q0 61 -38 97.5t-105 36.5q-69 0 -106.5 -35.5t-37.5 -98.5v-146q0 -63 37.5 -98t106.5 -35zM80 271q0 45 28 71.5t79 26.5t78.5 -26.5t27.5 -71.5v-146q0 -45 -27.5 -71.5t-78.5 -26.5t-79 26t-28 72v146z" />
    <glyph glyph-name="one.denom" horiz-adv-x="279" 
d="M218 0v396h-29l-174 -98l16 -32l150 83v-349h37z" />
    <glyph glyph-name="two.denom" horiz-adv-x="351" 
d="M245 227q-5 -4 -16 -9t-16 -7t-18.5 -7t-17.5 -7l-61 -23q-77 -28 -77 -118v-56h271v34h-235v33q0 57 57 79l61 22q24 8 45.5 16.5t38.5 22t27 33t10 47.5q0 52 -34.5 84.5t-98.5 32.5q-37 0 -62.5 -12.5t-41.5 -29.5t-23.5 -34.5t-10.5 -27.5l-6 -19l38 -13l4 23
q2 9 8 22t17.5 25.5t30 21.5t45.5 9q46 0 70.5 -23t24.5 -61q0 -23 -9 -35t-21 -23z" />
    <glyph glyph-name="three.denom" horiz-adv-x="360" 
d="M276 289q0 -30 -16 -50.5t-47 -20.5h-80v-34h82q32 0 51.5 -22t19.5 -55q0 -37 -25.5 -59t-73.5 -22q-51 0 -77 20t-40 66l-4 12l-34 -11l4 -13q16 -54 52 -81t99 -27q66 0 101 30t35 81q0 72 -62 101q51 26 51 88q0 51 -33 81.5t-91 30.5q-63 0 -98.5 -26.5t-52.5 -83.5
l-4 -12l35 -15l5 16q13 45 40 66t75 21q42 0 65 -22t23 -59z" />
    <glyph glyph-name="four.denom" horiz-adv-x="353" 
d="M231 0h36v111h63v33h-63v252h-40l-208 -255v-30h212v-111zM231 144h-168l168 205v-205z" />
    <glyph glyph-name="five.denom" horiz-adv-x="348" 
d="M300 364v33h-235l-19 -190h126q106 0 106 -88q0 -42 -25.5 -67t-75.5 -25q-90 0 -112 85l-3 11l-35 -8l4 -15q29 -107 147 -107q67 0 101.5 35.5t34.5 90.5q0 57 -35 88.5t-106 31.5h-88l13 125h202z" />
    <glyph glyph-name="six.denom" horiz-adv-x="371" 
d="M325 330q-36 74 -134 74q-73 0 -111 -39.5t-38 -112.5v-108q0 -152 145 -152q150 0 150 122q0 118 -133 118q-60 0 -124 -26v47q0 117 111 117q74 0 101 -57l4 -7l34 15l-1 1zM80 170q50 28 119 28q101 0 101 -84q0 -88 -113 -88q-107 0 -107 117v27z" />
    <glyph glyph-name="seven.denom" horiz-adv-x="307" 
d="M292 371v25h-271v-35h228l-157 -361h41z" />
    <glyph glyph-name="eight.denom" horiz-adv-x="373" 
d="M249 202q75 29 75 101q0 48 -35.5 75t-101.5 27t-103 -28.5t-37 -80.5q0 -70 74 -94q-85 -31 -85 -105q0 -51 39.5 -77.5t111.5 -26.5q150 0 150 114q0 39 -21.5 61t-66.5 34zM75 101q0 20 8 34t21.5 24.5t30 17t32.5 10.5q37 -5 62 -11.5t40.5 -15.5t22 -22.5t6.5 -31.5
q0 -82 -111 -82q-54 0 -83 20t-29 57zM85 296q0 37 26.5 57.5t74.5 20.5t74 -20t26 -54q0 -64 -82 -86q-67 10 -93 28t-26 54z" />
    <glyph glyph-name="nine.denom" horiz-adv-x="372" 
d="M330 252q0 152 -145 152q-150 0 -150 -122q0 -118 133 -118q60 0 124 26v-47q0 -117 -111 -117q-74 0 -101 57l-4 7l-34 -15l1 -1t4 -8q36 -74 134 -74q73 0 111 39.5t38 112.5v108zM185 370q107 0 107 -117v-27q-50 -28 -119 -28q-101 0 -101 84q0 88 113 88z" />
    <glyph glyph-name="zero.num" horiz-adv-x="373" 
d="M187 313q67 0 105 35t38 98v146q0 61 -38 97.5t-105 36.5q-69 0 -106.5 -35.5t-37.5 -98.5v-146q0 -63 37.5 -98t106.5 -35zM80 592q0 45 28 71.5t79 26.5t78.5 -26.5t27.5 -71.5v-146q0 -45 -27.5 -71.5t-78.5 -26.5t-79 26t-28 72v146z" />
    <glyph glyph-name="one.num" horiz-adv-x="279" 
d="M218 322v396h-29l-174 -98l16 -32l150 83v-349h37z" />
    <glyph glyph-name="two.num" horiz-adv-x="351" 
d="M244 549q-5 -4 -16 -9t-16 -7t-18.5 -7t-17.5 -7l-61 -23q-77 -28 -77 -118v-56h271v34h-235v33q0 57 57 79l61 22q24 8 45.5 16.5t38.5 22t27 33t10 47.5q0 52 -34.5 84.5t-98.5 32.5q-37 0 -62.5 -12.5t-41.5 -29.5t-23.5 -34.5t-10.5 -27.5l-6 -19l38 -13l4 23
q2 9 8 22t17.5 25.5t30 21.5t45.5 9q46 0 70.5 -23t24.5 -61q0 -23 -9 -35t-21 -23z" />
    <glyph glyph-name="three.num" horiz-adv-x="361" 
d="M277 611q0 -30 -16 -50.5t-47 -20.5h-80v-34h82q32 0 51.5 -22t19.5 -55q0 -37 -25.5 -59t-73.5 -22q-51 0 -77 20t-40 66l-4 12l-34 -11l4 -13q16 -54 52 -81t99 -27q66 0 101 30t35 81q0 72 -62 101q51 26 51 88q0 51 -33 81.5t-91 30.5q-63 0 -98.5 -26.5t-52.5 -83.5
l-4 -12l35 -15l5 16q13 45 40 66t75 21q42 0 65 -22t23 -59z" />
    <glyph glyph-name="four.num" horiz-adv-x="355" 
d="M232 322h36v111h63v33h-63v252h-40l-208 -255v-30h212v-111zM232 466h-168l168 205v-205z" />
    <glyph glyph-name="five.num" horiz-adv-x="348" 
d="M300 685v33h-235l-19 -190h126q106 0 106 -88q0 -42 -25.5 -67t-75.5 -25q-90 0 -112 85l-3 11l-35 -8l4 -15q29 -107 147 -107q67 0 101.5 35.5t34.5 90.5q0 57 -35 88.5t-106 31.5h-88l13 125h202z" />
    <glyph glyph-name="six.num" horiz-adv-x="372" 
d="M325 652q-36 74 -134 74q-73 0 -111 -39.5t-38 -112.5v-108q0 -152 145 -152q150 0 150 122q0 118 -133 118q-60 0 -124 -26v47q0 117 111 117q74 0 101 -57l4 -7l34 15l-1 1zM80 492q50 28 119 28q101 0 101 -84q0 -88 -113 -88q-107 0 -107 117v27z" />
    <glyph glyph-name="seven.num" horiz-adv-x="307" 
d="M293 693v25h-271v-35h228l-157 -361h41z" />
    <glyph glyph-name="eight.num" horiz-adv-x="373" 
d="M249 523q75 29 75 101q0 48 -35.5 75t-101.5 27t-103 -28.5t-37 -80.5q0 -70 74 -94q-85 -31 -85 -105q0 -51 39.5 -77.5t111.5 -26.5q150 0 150 114q0 39 -21.5 61t-66.5 34zM75 422q0 20 8 34t21.5 24.5t30 17t32.5 10.5q37 -5 62 -11.5t40.5 -15.5t22 -22.5t6.5 -31.5
q0 -82 -111 -82q-54 0 -83 20t-29 57zM85 617q0 37 26.5 57.5t74.5 20.5t74 -20t26 -54q0 -64 -82 -86q-67 10 -93 28t-26 54z" />
    <glyph glyph-name="nine.num" horiz-adv-x="372" 
d="M330 574q0 152 -145 152q-150 0 -150 -122q0 -118 133 -118q60 0 124 26v-47q0 -117 -111 -117q-74 0 -101 57l-4 7l-34 -15l1 -1t4 -8q36 -74 134 -74q73 0 111 39.5t38 112.5v108zM185 692q107 0 107 -117v-27q-50 -28 -119 -28q-101 0 -101 84q0 88 113 88z" />
    <glyph glyph-name="CR.1" horiz-adv-x="322" 
 />
    <glyph glyph-name="acute.case" horiz-adv-x="257" 
d="M216 904l-192 -121l20 -23l197 113z" />
    <glyph glyph-name="breve.case" horiz-adv-x="287" 
d="M138 764q119 0 150 112l2 9l-34 11l-2 -8q-25 -90 -116 -90q-90 0 -116 90l-2 9l-34 -13l2 -8q31 -112 150 -112z" />
    <glyph glyph-name="caron.case" horiz-adv-x="332" 
d="M338 898h-50l-122 -102l-125 102h-48l161 -134h24z" />
    <glyph glyph-name="cedilla.case" horiz-adv-x="251" 
d="M235 -153q1 34 -22.5 54.5t-63.5 20.5q-21 0 -32 -4l29 82h-28l-44 -114l17 6q17 6 38 6q68 0 68 -49q0 -31 -20.5 -48.5t-57.5 -17.5q-47 0 -82 26l-7 5v-33l9 -5q37 -22 84 -22q51 0 81 24t31 69z" />
    <glyph glyph-name="circumflex.case" horiz-adv-x="370" 
d="M306 764h48l-156 133h-27l-159 -133h47l125 102z" />
    <glyph glyph-name="dieresis.case" horiz-adv-x="439" 
d="M122 853q-11 0 -19 -7.5t-8 -18.5t8 -19t19 -8t18.5 8t7.5 19t-7.5 18.5t-18.5 7.5zM312 800q11 0 18.5 8t7.5 19t-7.5 18.5t-18.5 7.5t-19 -7.5t-8 -18.5t8 -19t19 -8z" />
    <glyph glyph-name="dotaccent.case" horiz-adv-x="216" 
d="M108 849q-11 0 -18.5 -7.5t-7.5 -18.5t7.5 -18.5t18.5 -7.5t18.5 7.5t7.5 18.5t-7.5 18.5t-18.5 7.5z" />
    <glyph glyph-name="grave.case" horiz-adv-x="257" 
d="M43 896l-24 -30l199 -109l21 23z" />
    <glyph glyph-name="hungarumlaut.case" horiz-adv-x="395" 
d="M169 902l-118 -132l28 -9l130 131zM384 892l-40 10l-120 -133l27 -9z" />
    <glyph glyph-name="macron.case" horiz-adv-x="352" 
d="M44 806h260v33h-260v-33z" />
    <glyph glyph-name="ogonek.case" horiz-adv-x="252" 
d="M196 -185q-27 -27 -63 -27q-33 0 -45 31q-6 16 -1.5 37t17 45t34 49.5t49.5 49.5h-34q-31 -24 -53.5 -50.5t-36 -53t-17 -51.5t3.5 -45q13 -47 71 -47q51 0 87 36l4 4l-11 27z" />
    <glyph glyph-name="ring.case" horiz-adv-x="240" 
d="M217 848q0 43 -25 68.5t-70 25.5t-71.5 -25.5t-26.5 -68.5q0 -45 26.5 -70t71.5 -25t70 25t25 70zM113 778q-31 0 -47 22t-16 48t16 48t47 22h9h8q22 0 37 -13.5t21 -32.5t2.5 -39.5t-17.5 -35.5q-13 -13 -28 -16t-32 -3z" />
    <glyph glyph-name="tilde.case" horiz-adv-x="305" 
d="M-2 781v-8h30v8q0 29 12.5 46.5t35.5 17.5q29 0 74 -36t82 -36q75 0 75 94v8h-30v-8q0 -64 -47 -64q-29 0 -74 36t-83 36q-75 0 -75 -94z" />
    <glyph glyph-name="uni0326.alt" horiz-adv-x="0" 
d="M135 751l-65 -168h45l54 168h-34z" />
    <glyph glyph-name="_375" horiz-adv-x="664" 
d="M604 37l-252 673h-48l-251 -673v-37h551v37zM327 655l228 -615h-453z" />
    <glyph glyph-name="_376" horiz-adv-x="744" 
d="M501 43q85 51 134.5 137.5t49.5 198.5q0 70 -22 130.5t-62.5 105t-98.5 70t-130 25.5t-130 -25.5t-98.5 -70t-62.5 -105t-22 -130.5q0 -109 47.5 -195.5t137.5 -140.5h-198v-43h269v34l-8 4q-203 111 -203 337q0 60 18 113.5t52.5 93.5t84.5 63.5t113 23.5t113 -23.5
t84.5 -63.5t52.5 -93.5t18 -113.5q0 -116 -53.5 -201.5t-149.5 -135.5l-8 -4v-34h269v43h-197z" />
    </font>
</defs>
</svg>
