<?xml version="1.0" encoding="UTF-8"?>
<svg width="191px" height="131px" viewBox="0 0 191 131" version="1.1" xmlns="http://www.w3.org/2000/svg" xmlns:xlink="http://www.w3.org/1999/xlink">
    <!-- Generator: Sketch 54.1 (76490) - https://sketchapp.com -->
    <title>decathlon-icon</title>
    <desc>Created with Sketch.</desc>
    <g id="DECATHLON" stroke="none" stroke-width="1" fill="none" fill-rule="evenodd">
        <path d="M151.285546,98.6122737 L151.285546,80.3917635 L187.2021,80.3917635 L187.138503,48.6092188 L151.285546,48.6092188 L151.285546,32.0263328 L190.874607,32.0263328 L190.806771,-1.42108547e-14 L114.580392,0.211987638 L114.580392,44.9206007 C106.678689,20.4993952 83.8948932,2.51737515 57.8680786,0.211987638 L0,-1.42108547e-14 L0,130.177526 L58.1063541,130.177526 C83.8948932,127.882741 106.678689,109.91132 114.580392,85.7127046 L114.580392,130.177526 L190.875455,130.177526 L190.80762,98.6122737 L151.28724,98.6122737 L151.285546,98.6122737 Z M77.6246617,85.0131376 C75.5416527,93.7789087 67.1680629,99.9849052 58.1055052,100.218094 L36.7263526,100.218094 L36.7263526,30.394013 L58.1055052,30.394013 C67.1680629,30.394013 75.5416527,36.8755947 77.6246617,45.8480556 C79.7233594,51.8420611 80.8837919,58.7529225 80.8837919,65.192108 C80.8837919,71.8909818 79.7233594,78.7912441 77.6246617,85.0131376 L77.6246617,85.0131376 Z" id="decathlon-icon" fill="#FFFFFF" fill-rule="nonzero"></path>
    </g>
</svg>