<?xml version="1.0" encoding="UTF-8"?>
<svg width="596px" height="200px" viewBox="0 0 596 200" version="1.1" xmlns="http://www.w3.org/2000/svg" xmlns:xlink="http://www.w3.org/1999/xlink">
    <title>nyc-logo</title>
    <g id="NYC" stroke="none" stroke-width="1" fill="none" fill-rule="evenodd">
        <g id="nyc-logo" fill="#FFFFFF" fill-rule="nonzero">
            <polygon id="Path" points="558 0.9 434 0.9 396.8 38.1 396.8 162.1 434 199.3 558 199.3 595.2 162.1 595.2 124.9 582.8 112.5 520.8 112.5 520.8 124.9 471.2 124.9 471.2 75.3 520.8 75.3 520.8 87.5 582.8 87.5 595.2 75.3 595.2 38.1"></polygon>
            <polygon id="Path" points="186 0.9 136.4 0.9 124 13.3 124 62.9 62 0.9 12.4 0.9 0 13.3 0 186.9 12.4 199.3 62 199.3 74.4 186.9 74.4 137.3 136.4 199.3 136.4 199.3 186 199.3 198.4 186.9 198.4 13.3"></polygon>
            <polygon id="Path" points="272.8 199.3 322.4 199.3 334.8 186.9 334.8 149.7 396.8 87.7 396.8 13.3 384.4 0.9 334.8 0.9 322.4 13.3 322.4 38.1 297.6 62.9 272.8 38.1 272.8 38.1 272.8 13.3 260.4 0.9 210.8 0.9 198.4 13.3 198.4 87.7 260.4 149.7 260.4 186.9"></polygon>
        </g>
    </g>
</svg>