<?xml version="1.0" encoding="utf-8"?>
<!-- Generator: Adobe Illustrator 19.2.1, SVG Export Plug-In . SVG Version: 6.00 Build 0)  -->
<svg version="1.1" id="Layer_1" xmlns="http://www.w3.org/2000/svg" xmlns:xlink="http://www.w3.org/1999/xlink" x="0px" y="0px"
	 viewBox="0 0 956.9 204" style="enable-background:new 0 0 956.9 204;" xml:space="preserve">
<style type="text/css">
	.st0{opacity:0.4;}
	.st1{fill:#FFFFFF;}
</style>
<g class="st0">
	<g id="Layer_1_copy">
		<g>
			<polygon class="st1" points="558,1.9 434,1.9 396.8,39.1 396.8,163.1 434,200.3 558,200.3 595.2,163.1 595.2,125.9 582.8,113.5 
				520.8,113.5 520.8,125.9 471.2,125.9 471.2,76.3 520.8,76.3 520.8,88.5 582.8,88.5 595.2,76.3 595.2,39.1 			"/>
			<polygon class="st1" points="186,1.9 136.4,1.9 124,14.3 124,63.9 62,1.9 12.4,1.9 0,14.3 0,187.9 12.4,200.3 62,200.3 
				74.4,187.9 74.4,138.3 136.4,200.3 136.4,200.3 186,200.3 198.4,187.9 198.4,14.3 			"/>
			<polygon class="st1" points="272.8,200.3 322.4,200.3 334.8,187.9 334.8,150.7 396.8,88.7 396.8,14.3 384.4,1.9 334.8,1.9 
				322.4,14.3 322.4,39.1 297.6,63.9 272.8,39.1 272.8,39.1 272.8,14.3 260.4,1.9 210.8,1.9 198.4,14.3 198.4,88.7 260.4,150.7 
				260.4,187.9 			"/>
			<g>
				<path class="st1" d="M593.7,8c0,4.3-3.5,7.8-7.9,7.8s-8-3.4-8-7.8c0-4.3,3.5-7.7,8-7.7C590.2,0.3,593.7,3.7,593.7,8z M579.8,8
					c0,3.4,2.6,6.2,6,6.2c3.3,0,5.9-2.7,5.9-6.1c0-3.4-2.5-6.2-6-6.2C582.4,1.9,579.8,4.6,579.8,8z M584.5,12h-1.8V4.3
					c0.7-0.1,1.7-0.2,3-0.2c1.5,0,2.1,0.2,2.6,0.6c0.5,0.3,0.8,0.9,0.8,1.7c0,0.9-0.7,1.6-1.6,1.8v0.1c0.8,0.2,1.1,0.8,1.4,1.9
					c0.2,1.2,0.4,1.6,0.6,1.9h-1.9c-0.2-0.3-0.4-0.9-0.6-1.9c-0.1-0.8-0.6-1.2-1.6-1.2h-0.8v3H584.5z M584.6,7.7h0.8
					c1,0,1.8-0.3,1.8-1.1c0-0.7-0.5-1.2-1.7-1.2c-0.5,0-0.8,0-1,0.1v2.2H584.6z"/>
			</g>
		</g>
	</g>
</g>
<g>
	<path class="st1" d="M627.2,143.7L729.2,0h7.5v144.9h36.9v6h-36.9V204h-6v-53.1H627.2V143.7z M730.1,8.4l-96.9,136.5h97.5V8.4
		H730.1z"/>
	<path class="st1" d="M870.4,0.5c10.1,0,20.3,1.6,30.6,4.7c10.4,3.1,19.7,8.6,27.9,16.2c8.3,7.7,15,18.1,20.2,31.2
		s7.8,29.6,7.8,49.6c0,18.2-2.7,33.8-8,46.7s-12.4,23.4-21.4,31.5c-8.9,8.1-19.1,14-30.5,17.8s-23.3,5.7-35.6,5.7h-62.2V0.5H870.4z
		 M863,198.3c12,0,23.3-1.9,34.1-5.8c10.7-3.9,20.1-9.8,28.2-17.7c8.1-7.9,14.4-17.9,19.1-29.9c4.7-12.1,7-26.3,7-42.6
		c0-19-2.4-34.7-7.1-47c-4.8-12.4-11-22.2-18.8-29.5s-16.6-12.4-26.4-15.3c-9.8-2.9-19.8-4.3-30.1-4.3h-64.1v192.1H863z"/>
</g>
</svg>
