<?xml version="1.0" standalone="no"?>
<!DOCTYPE svg PUBLIC "-//W3C//DTD SVG 1.1//EN" "http://www.w3.org/Graphics/SVG/1.1/DTD/svg11.dtd" >
<svg xmlns="http://www.w3.org/2000/svg" xmlns:xlink="http://www.w3.org/1999/xlink" version="1.1">
<metadata>
Created by FontForge 20170731 at Wed Jun 13 20:12:07 2007
 By ,,,
(c) 1987, 1991, 1993, 2002 Adobe Systems Incorporated. All rights reserved.
</metadata>
<defs>
<font id="FuturaStd-BookOblique" horiz-adv-x="616" >
  <font-face 
    font-family="Futura Std Book"
    font-weight="400"
    font-style="oblique"
    font-stretch="normal"
    units-per-em="1000"
    panose-1="2 11 5 2 2 2 4 2 3 3"
    ascent="825"
    descent="-175"
    x-height="470"
    cap-height="754"
    bbox="-159 -296 1242 1006"
    underline-thickness="50"
    underline-position="-200"
    slope="-9"
    unicode-range="U+0020-FB02"
  />
<missing-glyph horiz-adv-x="611" 
d="M111 0v700h500v-700h-500zM361 395l170 255h-340zM391 350l170 -255v510zM191 50h340l-170 255zM161 605v-510l170 255z" />
    <glyph glyph-name="f_i" unicode="fi" horiz-adv-x="519" 
d="M214 396l-63 -396h-80l63 396h-44l11 74h44l30 187q13 87 40 122q46 59 131 59q25 0 55 -10l-13 -81q-31 11 -52 11q-19 0 -32.5 -6.5t-21.5 -14.5t-14.5 -28t-9 -34t-7.5 -46l-26 -159h119l-11 -74h-119zM502 470l-74 -470h-80l74 470h80zM500 704q23 0 37 -17t10 -40
q-4 -24 -23.5 -40.5t-42.5 -16.5t-37.5 16.5t-10.5 40.5q4 23 24 40t43 17z" />
    <glyph glyph-name="f_l" unicode="fl" horiz-adv-x="501" 
d="M559 825l-131 -825h-80l131 825h80zM214 396l-63 -396h-80l63 396h-44l11 74h44l30 187q13 87 40 122q46 59 131 59q25 0 55 -10l-13 -81q-31 11 -52 11q-19 0 -32.5 -6.5t-21.5 -14.5t-14.5 -28t-9 -34t-7.5 -46l-26 -159h119l-11 -74h-119z" />
    <glyph glyph-name=".notdef" horiz-adv-x="611" 
d="M111 0v700h500v-700h-500zM361 395l170 255h-340zM391 350l170 -255v510zM191 50h340l-170 255zM161 605v-510l170 255z" />
    <glyph glyph-name=".null" horiz-adv-x="0" 
 />
    <glyph glyph-name="nonmarkingreturn" horiz-adv-x="333" 
 />
    <glyph glyph-name="space" unicode=" " horiz-adv-x="308" 
 />
    <glyph glyph-name="exclam" unicode="!" horiz-adv-x="338" 
d="M185 99q23 0 37 -16t10 -39t-23 -40t-42 -17t-37 17t-10 40t23 39t42 16zM152 153l95 601h82l-95 -601h-82z" />
    <glyph glyph-name="quotedbl" unicode="&#x22;" horiz-adv-x="457" 
d="M221 754h94l-70 -328h-58zM380 754h94l-70 -328h-58z" />
    <glyph glyph-name="numbersign" unicode="#" 
d="M355 754h77l-68 -204h124l67 204h79l-67 -204h92l-12 -78h-105l-56 -171h101l-13 -78h-115l-75 -223h-76l74 223h-123l-77 -223h-75l74 223h-102l13 78h115l56 171h-107l12 78h119zM341 472l-56 -171h123l56 171h-123z" />
    <glyph glyph-name="dollar" unicode="$" 
d="M410 344l-42 -268q49 16 83 54.5t42 88.5q12 77 -83 125zM363 463l35 219q-41 -7 -72.5 -39.5t-38.5 -73.5q-10 -63 76 -106zM301 69l48 305q-78 35 -117.5 79t-27.5 119q12 76 70 127t137 62l16 103h66l-16 -103q49 -7 86.5 -38t52.5 -76l-72 -43q-29 67 -80 77
l-39 -247q83 -38 124 -84.5t28 -128.5q-13 -83 -75.5 -146t-146.5 -80l-17 -110h-66l16 104q-80 4 -131.5 59t-53.5 135l85 23q-2 -53 30 -93t83 -44z" />
    <glyph glyph-name="percent" unicode="%" horiz-adv-x="797" 
d="M311 703q-42 0 -77.5 -29.5t-42.5 -71.5q-6 -41 20.5 -70.5t68.5 -29.5t77.5 29.5t41.5 70.5q7 42 -19.5 71.5t-68.5 29.5zM718 767l37 -24l-556 -756l-39 26zM638 252q-42 0 -77.5 -29.5t-42.5 -71.5q-7 -41 19.5 -70.5t68.5 -29.5t77.5 29.5t42.5 70.5q7 42 -19.5 71.5
t-68.5 29.5zM321 767q70 0 111.5 -48t30.5 -117q-10 -68 -67.5 -116t-126.5 -48t-110.5 47.5t-31.5 116.5q11 69 68 117t126 48zM648 316q70 0 111.5 -48t30.5 -117t-68 -116.5t-126 -47.5t-111 47.5t-31 116.5t68 117t126 48z" />
    <glyph glyph-name="ampersand" unicode="&#x26;" horiz-adv-x="695" 
d="M380 492l8 5q5 3 24 15.5t25.5 17.5t21 17.5t20.5 21t13 22.5t9 28q5 34 -15.5 55.5t-54.5 21.5q-35 0 -62.5 -24t-33.5 -59q1 -17 -0.5 -22t4.5 -19.5t7.5 -18.5t9.5 -18t10 -18zM581 0l-64 106q-153 -119 -260 -119q-89 0 -145 59t-42 147q5 31 15.5 57.5t29 49.5
t35 40.5t45.5 37.5t47 31.5t52 31.5l10 6q-1 1 -8 14t-8.5 15t-8 14t-8 16t-6.5 15t-6 16.5t-3.5 16t-3 18t0 17t1.5 18.5q11 71 65 115.5t125 44.5q66 0 106.5 -42t30.5 -106q-4 -26 -16.5 -50t-25 -40t-38 -37t-38.5 -30.5t-45 -30.5l127 -203l101 99l53 -50l-114 -112
l102 -165h-106zM343 385l-40 -24q-33 -20 -50 -32t-42.5 -33.5t-39.5 -45.5t-18 -51q-9 -53 24.5 -94.5t86.5 -41.5q35 0 78 19.5t66 35.5t69 51z" />
    <glyph glyph-name="quotesingle" unicode="'" horiz-adv-x="289" 
d="M217 754h94l-70 -328h-58z" />
    <glyph glyph-name="parenleft" unicode="(" horiz-adv-x="287" 
d="M309 788l65 -34q-114 -215 -156 -480q-42 -268 4 -480l-76 -34q-60 193 -10 514q52 322 173 514z" />
    <glyph glyph-name="parenright" unicode=")" horiz-adv-x="287" 
d="M151 754l77 34q60 -195 9 -514q-49 -320 -172 -514l-66 34q113 211 156 480q43 271 -4 480z" />
    <glyph glyph-name="asterisk" unicode="*" horiz-adv-x="592" 
d="M362 614l16 140h75l-28 -140l140 49l13 -72l-142 -38l69 -110l-68 -45l-59 118l-97 -118l-54 45l106 110l-130 38l35 72z" />
    <glyph glyph-name="plus" unicode="+" 
d="M348 498h78l-32 -203h203l-13 -78h-203l-32 -203h-78l32 203h-203l13 78h203z" />
    <glyph glyph-name="comma" unicode="," horiz-adv-x="308" 
d="M168 110l70 -26l-153 -256l-51 22z" />
    <glyph glyph-name="hyphen" unicode="-" horiz-adv-x="208" 
d="M46 278h205l-12 -74h-205z" />
    <glyph glyph-name="period" unicode="." horiz-adv-x="308" 
d="M170 99q23 0 37 -16t10 -39t-23 -40t-42 -17t-37 17t-10 40t23 39t42 16z" />
    <glyph glyph-name="slash" unicode="/" horiz-adv-x="570" 
d="M617 825l61 -30l-620 -952l-60 30z" />
    <glyph glyph-name="zero" unicode="0" 
d="M429 767q55 0 97.5 -26t65.5 -67t38 -93t14 -104.5t-6 -100.5q-15 -96 -60 -183.5t-117.5 -146.5t-154.5 -59t-136 59t-70.5 146.5t-1.5 183.5q8 48 25.5 100t47 104.5t66 93.5t87 67t105.5 26zM417 689q-50 0 -94 -34t-72 -85.5t-46 -102.5t-24 -95q-3 -33 -5 -72.5
t6.5 -81t23 -75.5t43.5 -56t69 -22q49 0 92 32.5t71 82.5t46 98.5t26 93.5q10 40 6.5 94.5t-14 104t-44.5 84t-84 34.5z" />
    <glyph glyph-name="one" unicode="1" 
d="M390 676h-125l56 78h165l-119 -754h-84z" />
    <glyph glyph-name="two" unicode="2" 
d="M223 78h318l-12 -78h-488l419 417q60 60 71 126q10 62 -27.5 104t-99.5 42q-67 0 -115.5 -44t-60.5 -111h-84q17 100 93.5 166.5t175.5 66.5q97 0 157 -63.5t45 -159.5q-14 -92 -82 -159z" />
    <glyph glyph-name="three" unicode="3" 
d="M328 357l12 78q150 6 168 122q10 60 -21 96t-90 36q-55 0 -92 -33t-51 -88h-83q24 92 86.5 145.5t153.5 53.5q92 0 144 -57t38 -149q-8 -51 -41.5 -96.5t-81.5 -68.5q49 -24 68.5 -74.5t9.5 -110.5q-15 -97 -93 -160.5t-176 -63.5q-93 0 -148.5 58t-42.5 151h82
q-6 -57 30 -94t94 -37q62 0 111.5 44t59.5 107q11 70 -27.5 106.5t-109.5 34.5z" />
    <glyph glyph-name="four" unicode="4" 
d="M508 200h93l-13 -78h-93l-19 -122h-84l19 122h-386l575 674h2zM424 200l54 341h-2l-291 -341h239z" />
    <glyph glyph-name="five" unicode="5" 
d="M630 676h-241l-74 -161l45 4q110 0 169 -76t41 -187q-19 -116 -111 -192.5t-209 -76.5q-74 0 -128 35.5t-82 99.5l75 48q19 -47 58.5 -76t91.5 -29q83 0 145 55t76 138q13 79 -33 131t-126 52q-69 0 -151 -48l166 361h300z" />
    <glyph glyph-name="six" unicode="6" 
d="M484 767l56 -47l-211 -234l2 -2q9 4 33 8q16 3 34 3q102 0 162 -73t43 -176q-17 -108 -105.5 -183.5t-195.5 -75.5t-171.5 76t-47.5 182q14 85 97 181zM314 65q73 0 133 52t71 126q12 73 -31.5 123.5t-116.5 50.5q-74 0 -133 -50.5t-71 -123.5q-11 -74 32 -126t116 -52z
" />
    <glyph glyph-name="seven" unicode="7" 
d="M570 676h-412l12 78h556l-627 -767l-60 39z" />
    <glyph glyph-name="eight" unicode="8" 
d="M364 355q-61 0 -110 -42.5t-59 -102.5q-9 -60 26.5 -102.5t96.5 -42.5t110.5 42.5t58.5 102.5q10 60 -26 102.5t-97 42.5zM429 767q89 0 140.5 -60t37.5 -150q-8 -50 -39.5 -95.5t-78.5 -69.5q49 -24 70.5 -73t11.5 -108q-15 -97 -91 -160.5t-174 -63.5t-154 63.5
t-41 160.5q10 59 47 108.5t93 72.5q-39 24 -56.5 69t-9.5 96q14 90 84.5 150t159.5 60zM417 689q-54 0 -98.5 -38t-52.5 -92q-9 -55 23.5 -93.5t86.5 -38.5t98.5 38.5t53.5 93.5q8 54 -24.5 92t-86.5 38z" />
    <glyph glyph-name="nine" unicode="9" 
d="M243 -13l-56 43l212 239l-2 2q-35 -10 -67 -10q-103 0 -162 73t-42 176q16 107 104.5 182t195.5 75t171.5 -75t48.5 -182q-14 -85 -99 -181zM414 689q-73 0 -132.5 -51.5t-71.5 -124.5q-11 -73 32 -123.5t117 -50.5q73 0 132.5 50.5t70.5 123.5q12 73 -31.5 124.5
t-116.5 51.5z" />
    <glyph glyph-name="colon" unicode=":" horiz-adv-x="308" 
d="M170 99q23 0 37 -16t10 -39t-23 -40t-42 -17t-37 17t-10 40t23 39t42 16zM231 483q23 0 37 -16t10 -39t-23 -40t-42 -17t-37 17t-10 40t23 39t42 16z" />
    <glyph glyph-name="semicolon" unicode=";" horiz-adv-x="308" 
d="M170 110l70 -26l-153 -256l-51 22zM256 483q23 0 37 -16t10 -39t-23 -40t-42 -17t-37 17t-10 40t23 39t42 16z" />
    <glyph glyph-name="less" unicode="&#x3c;" 
d="M629 498l-14 -85l-392 -157l343 -157l-14 -85l-451 207l11 70z" />
    <glyph glyph-name="equal" unicode="=" 
d="M125 373h484l-12 -78h-484zM100 217h484l-12 -78h-484z" />
    <glyph glyph-name="greater" unicode="&#x3e;" 
d="M131 413l14 85l451 -207l-11 -70l-517 -207l14 85l393 157z" />
    <glyph glyph-name="question" unicode="?" horiz-adv-x="488" 
d="M377 328h81q-9 -73 -63.5 -123t-126.5 -50q-70 0 -109.5 47t-28.5 116q10 62 51.5 97t110.5 56q2 1 19.5 6t20.5 6l18 6t18.5 7.5t15.5 8.5t16 11t12 13t11.5 16t7.5 18.5t6 22.5q7 46 -17.5 75t-69.5 29q-42 0 -74.5 -28.5t-38.5 -70.5q-4 -20 -2 -48h-83l4 53
q12 76 73.5 123.5t137.5 47.5q77 0 120.5 -52t31.5 -128q-14 -85 -75 -134q-36 -28 -142 -58q-81 -22 -91 -83q-5 -34 15.5 -57t54.5 -23q40 0 64.5 27.5t31.5 68.5zM258 99q23 0 37 -16t10 -39t-23 -40t-42 -17t-37 17t-10 40t23 39t42 16z" />
    <glyph glyph-name="at" unicode="@" horiz-adv-x="800" 
d="M316 346q-9 -53 14.5 -86.5t74.5 -33.5q61 0 100.5 42t56.5 104q17 60 -6 97.5t-75 37.5q-58 0 -107 -50t-58 -111zM608 505l24 61h71l-91 -255q-23 -64 -14 -78q4 -7 15 -7q36 0 83.5 61t62.5 130q28 128 -40 203t-194 75q-133 0 -234 -90.5t-123 -227.5
q-23 -141 56 -229.5t217 -88.5q127 0 199 46l62 -51q-141 -67 -280 -67q-163 0 -258 111.5t-68 278.5q26 166 154.5 278t288.5 112q139 0 222 -86q96 -96 76 -229q-21 -130 -96 -210q-41 -45 -85 -66.5t-82 -19.5q-45 2 -45 61q-70 -61 -145 -61q-67 0 -109 54t-30 129
q15 94 83 165t158 71q79 0 122 -70z" />
    <glyph glyph-name="A" unicode="A" horiz-adv-x="699" 
d="M545 214h-322l-125 -214h-92l473 790l214 -790h-93zM524 292l-78 302l-177 -302h255z" />
    <glyph glyph-name="B" unicode="B" horiz-adv-x="568" 
d="M215 350l-43 -272h84q193 0 215 138q5 34 -3.5 59t-25.5 39t-44.5 22.5t-53 11t-56.5 2.5h-73zM76 0l119 754h124q54 0 96 -10.5t74.5 -33.5t45.5 -63.5t4 -96.5q-16 -98 -97 -147q63 -16 93 -70t19 -123q-11 -72 -56 -120.5t-107 -69t-140 -20.5h-175zM267 676l-40 -254
h32q33 0 55.5 2t48.5 9.5t43 21t30.5 37.5t18.5 58q12 78 -26.5 102t-128.5 24h-33z" />
    <glyph glyph-name="C" unicode="C" horiz-adv-x="717" 
d="M761 693l-17 -104q-81 100 -214 100q-125 0 -229 -93t-124 -219t55 -219t201 -93q129 0 244 100l-16 -104q-115 -74 -237 -74q-161 0 -259 113.5t-73 273.5q17 106 84 196.5t166 143.5t205 53q127 0 214 -74z" />
    <glyph glyph-name="D" unicode="D" horiz-adv-x="678" 
d="M76 0l119 754h142q94 0 160 -19t120 -72q107 -107 80 -287q-28 -172 -168 -281q-72 -56 -143.5 -75.5t-169.5 -19.5h-140zM172 78h61q77 0 136 16.5t115 61.5q107 87 129 221q21 140 -62 226q-42 43 -95 58t-128 15h-61z" />
    <glyph glyph-name="E" unicode="E" horiz-adv-x="534" 
d="M76 0l119 754h391l-12 -78h-307l-35 -224h298l-13 -78h-298l-47 -296h307l-12 -78h-391z" />
    <glyph glyph-name="F" unicode="F" horiz-adv-x="478" 
d="M526 676h-259l-35 -224h251l-13 -78h-251l-59 -374h-84l119 754h343z" />
    <glyph glyph-name="G" unicode="G" horiz-adv-x="820" 
d="M523 379h314q-12 -86 -37.5 -148t-82.5 -118q-61 -60 -140.5 -93t-158.5 -33q-159 0 -255.5 114.5t-71.5 273.5q26 162 159 277t296 115q194 0 294 -163l-70 -57q-78 142 -237 142q-128 0 -233 -93t-125 -222q-19 -124 55 -213q36 -43 88.5 -69.5t109.5 -26.5
q103 0 197 67.5t110 168.5h-224z" />
    <glyph glyph-name="H" unicode="H" horiz-adv-x="714" 
d="M235 448h386l48 306h84l-119 -754h-84l59 370h-386l-59 -370h-84l119 754h84z" />
    <glyph glyph-name="I" unicode="I" horiz-adv-x="239" 
d="M281 754l-119 -754h-84l119 754h84z" />
    <glyph glyph-name="J" unicode="J" horiz-adv-x="314" 
d="M355 754l-94 -597q-7 -41 -11.5 -62.5t-19 -54.5t-35.5 -56q-56 -62 -139 -62q-69 0 -125 56l57 65q20 -22 37.5 -32.5t44.5 -10.5q23 0 41.5 11.5t29 26t18.5 39.5t11 40.5t7 39.5l94 597h84z" />
    <glyph glyph-name="K" unicode="K" horiz-adv-x="611" 
d="M228 431l372 323h113l-409 -351l302 -403h-116l-254 346l-25 -21l-51 -325h-84l119 754h84z" />
    <glyph glyph-name="L" unicode="L" horiz-adv-x="375" 
d="M279 754l-107 -676h208l-12 -78h-292l119 754h84z" />
    <glyph glyph-name="M" unicode="M" horiz-adv-x="896" 
d="M21 0l279 797l174 -633l375 633l27 -797h-86l-16 510h-2l-329 -541l-156 541h-2l-178 -510h-86z" />
    <glyph glyph-name="N" unicode="N" horiz-adv-x="834" 
d="M81 0l124 786l491 -616l92 584h84l-124 -788l-491 615l-92 -581h-84z" />
    <glyph glyph-name="O" unicode="O" horiz-adv-x="862" 
d="M552 767q162 0 259.5 -114.5t72.5 -276.5q-26 -162 -159.5 -275.5t-295.5 -113.5t-259.5 113.5t-71.5 275.5q17 106 84 196t165.5 142.5t204.5 52.5zM540 689q-129 0 -233.5 -91.5t-124.5 -220.5q-20 -128 55.5 -220t203.5 -92t233.5 92t125.5 220q20 129 -55.5 220.5
t-204.5 91.5z" />
    <glyph glyph-name="P" unicode="P" horiz-adv-x="503" 
d="M212 330l-52 -330h-84l119 754h124q41 0 66.5 -2t58.5 -11t56 -27q36 -28 51 -74t7 -98q-17 -102 -98 -162q-68 -50 -187 -50h-61zM267 676l-42 -268h56q172 0 193 136q6 36 -2 61t-22.5 38.5t-42 21t-51 9.5t-58.5 2h-31z" />
    <glyph glyph-name="Q" unicode="Q" horiz-adv-x="862" 
d="M575 304l109 -136q97 88 116 209q20 129 -55.5 220.5t-204.5 91.5t-233.5 -91.5t-124.5 -220.5q-20 -128 55.5 -220t203.5 -92q95 0 177 56l-153 183h110zM720 -7l-52 68q-52 -35 -116.5 -54.5t-122.5 -19.5q-162 0 -259.5 113.5t-71.5 275.5q17 106 84 196t165.5 142.5
t204.5 52.5q163 0 260 -115.5t71 -277.5q-23 -148 -151 -266l95 -115h-107z" />
    <glyph glyph-name="R" unicode="R" horiz-adv-x="542" 
d="M267 676l-43 -271h26q40 0 71.5 5t63 18.5t51.5 41.5t27 70q7 45 -3.5 73.5t-38 41.5t-56.5 17t-73 4h-25zM212 331l-52 -331h-84l119 754h109q58 0 102.5 -9t82 -31t53 -64.5t5.5 -103.5q-14 -87 -73.5 -144t-147.5 -64l186 -338h-103l-176 331h-21z" />
    <glyph glyph-name="S" unicode="S" horiz-adv-x="559" 
d="M588 650l-74 -43q-18 41 -44.5 61.5t-72.5 20.5q-51 0 -93 -33t-50 -84q-4 -23 3 -42t26 -34t32 -22.5t38 -19.5l46 -22q40 -19 65.5 -35.5t49 -41t32 -58.5t1.5 -77q-16 -98 -95.5 -165.5t-178.5 -67.5q-90 0 -145 53.5t-59 141.5l85 23q-1 -60 34.5 -100t94.5 -40
q62 0 115.5 42.5t63.5 104.5q4 25 -1.5 46.5t-13.5 34.5t-29 28t-32.5 21t-39.5 20l-42 20q-36 17 -59 32.5t-44.5 38t-29 53t-1.5 69.5q14 85 84 138.5t157 53.5q63 0 109.5 -30.5t67.5 -86.5z" />
    <glyph glyph-name="T" unicode="T" horiz-adv-x="470" 
d="M383 676l-107 -676h-84l107 676h-182l12 78h450l-12 -78h-184z" />
    <glyph glyph-name="U" unicode="U" horiz-adv-x="685" 
d="M277 754l-71 -449q-7 -42 -9 -61t0.5 -52t15.5 -55q18 -33 57.5 -52.5t82.5 -19.5q41 0 84.5 18t74.5 49q21 21 34.5 52t17.5 50t10 59q1 8 2 12l71 449h84l-74 -472q-11 -71 -31 -118.5t-68 -90.5q-94 -86 -217 -86q-117 0 -183 77q-39 43 -46 100t7 118l74 472h84z" />
    <glyph glyph-name="V" unicode="V" horiz-adv-x="624" 
d="M216 754l124 -575l306 575h91l-432 -799l-180 799h91z" />
    <glyph glyph-name="W" unicode="W" horiz-adv-x="1091" 
d="M223 754l109 -565l340 604l148 -604l287 565h91l-414 -793l-148 607l-340 -607l-164 793h91z" />
    <glyph glyph-name="X" unicode="X" horiz-adv-x="564" 
d="M298 390l-147 364h96l109 -284l199 284h96l-261 -364l161 -390h-96l-124 310l-222 -310h-96z" />
    <glyph glyph-name="Y" unicode="Y" horiz-adv-x="593" 
d="M306 324l-179 430h97l139 -336l245 336h97l-315 -430l-51 -324h-84z" />
    <glyph glyph-name="Z" unicode="Z" horiz-adv-x="586" 
d="M165 78h401l-12 -78h-540l518 676h-359l12 78h499z" />
    <glyph glyph-name="bracketleft" unicode="[" horiz-adv-x="315" 
d="M299 714l-139 -880h108l-12 -74h-190l163 1028h190l-12 -74h-108z" />
    <glyph glyph-name="backslash" unicode="\" horiz-adv-x="570" 
d="M144 795l71 30l337 -825l-70 -30z" />
    <glyph glyph-name="bracketright" unicode="]" horiz-adv-x="315" 
d="M103 -166l139 880h-108l12 74h190l-163 -1028h-190l12 74h108z" />
    <glyph glyph-name="asciicircum" unicode="^" 
d="M117 322l274 432h72l138 -432h-89l-101 328l-207 -328h-87z" />
    <glyph glyph-name="underscore" unicode="_" horiz-adv-x="500" 
d="M488 -75l-8 -50h-500l8 50h500z" />
    <glyph glyph-name="grave" unicode="`" horiz-adv-x="358" 
d="M190 706l90 38l93 -164l-55 -28z" />
    <glyph glyph-name="a" unicode="a" horiz-adv-x="577" 
d="M336 409q-68 0 -118.5 -50t-61.5 -119q-12 -73 21 -126t105 -53q74 0 123.5 51.5t61.5 126.5q12 73 -23.5 121.5t-107.5 48.5zM579 470l-74 -470h-80l10 65h-2q-73 -78 -174 -78q-100 0 -151 73t-35 174q16 104 89.5 176.5t176.5 72.5q98 0 148 -80h2l10 67h80z" />
    <glyph glyph-name="b" unicode="b" horiz-adv-x="577" 
d="M366 409q-68 0 -118.5 -50t-61.5 -119q-12 -73 21 -126t105 -53q74 0 123.5 51.5t61.5 126.5q12 73 -23.5 121.5t-107.5 48.5zM72 0l131 825h80l-67 -422h2q74 80 174 80q102 0 152 -72t34 -176q-16 -102 -90 -175t-174 -73q-104 0 -150 78h-2l-10 -65h-80z" />
    <glyph glyph-name="c" unicode="c" horiz-adv-x="476" 
d="M494 436l-17 -106h-2q-49 79 -133 79q-72 0 -127.5 -51t-66.5 -123q-12 -72 25.5 -123t109.5 -51q90 0 165 81h2l-16 -107q-79 -48 -157 -48q-107 0 -167 71t-44 177q16 104 101.5 176t189.5 72q79 0 137 -47z" />
    <glyph glyph-name="d" unicode="d" horiz-adv-x="577" 
d="M336 409q-68 0 -118.5 -50t-61.5 -119q-12 -73 21 -126t105 -53q74 0 123.5 51.5t61.5 126.5q12 73 -23.5 121.5t-107.5 48.5zM425 0l10 65h-2q-72 -78 -174 -78q-100 0 -151 73t-35 174q16 104 89.5 176.5t176.5 72.5q47 0 86 -21t62 -59h2l67 422h80l-131 -825h-80z
" />
    <glyph glyph-name="e" unicode="e" horiz-adv-x="519" 
d="M520 218h-369q-10 -66 26 -111.5t103 -45.5q89 0 158 97l62 -39q-91 -132 -238 -132q-103 0 -155.5 69t-36.5 173q17 109 89.5 181.5t179.5 72.5q109 0 157 -77.5t24 -187.5zM165 286h281q0 52 -33 87.5t-85 35.5t-99.5 -36t-63.5 -87z" />
    <glyph glyph-name="f" unicode="f" horiz-adv-x="274" 
d="M226 396l-63 -396h-80l63 396h-44l11 74h44l30 187q13 87 40 122q46 59 131 59q25 0 55 -10l-13 -81q-31 11 -52 11q-19 0 -32.5 -6.5t-21.5 -14.5t-14.5 -28t-9 -34t-7.5 -46l-26 -159h119l-11 -74h-119z" />
    <glyph glyph-name="g" unicode="g" horiz-adv-x="580" 
d="M331 409q-68 0 -118.5 -50t-61.5 -119q-12 -73 21 -126t105 -53q74 0 123.5 51.5t61.5 126.5q12 73 -23.5 121.5t-107.5 48.5zM574 470l-70 -447q-8 -48 -14 -74t-22.5 -62.5t-43.5 -65.5q-79 -83 -195 -83q-100 0 -155 59t-42 157h80q-10 -64 26 -103t101 -39
q86 0 127 53t55 144l9 56h-2q-34 -36 -80.5 -57t-94.5 -21q-100 0 -150.5 72t-34.5 174q16 103 91 176.5t176 73.5q100 0 147 -80h2l10 67h80z" />
    <glyph glyph-name="h" unicode="h" horiz-adv-x="528" 
d="M207 825h80l-65 -410l1 -2q64 70 146 70q90 0 116 -55t11 -149l-44 -279h-80l42 265q5 39 6.5 71t-18.5 52.5t-64 20.5q-32 0 -56.5 -12t-39 -28.5t-25.5 -44t-16 -49t-10 -52.5l-35 -223h-80z" />
    <glyph glyph-name="i" unicode="i" horiz-adv-x="262" 
d="M245 470l-74 -470h-80l74 470h80zM243 704q23 0 37 -17t10 -40q-4 -24 -23.5 -40.5t-42.5 -16.5t-37.5 16.5t-10.5 40.5q4 23 24 40t43 17z" />
    <glyph glyph-name="j" unicode="j" horiz-adv-x="262" 
d="M245 470l-116 -734h-80l116 734h80zM243 704q23 0 37 -17t10 -40q-4 -24 -23.5 -40.5t-42.5 -16.5t-37.5 16.5t-10.5 40.5q4 23 24 40t43 17z" />
    <glyph glyph-name="k" unicode="k" horiz-adv-x="470" 
d="M283 825l-84 -529l198 174h107l-232 -200l196 -270h-106l-155 214l-24 -21l-31 -193h-80l131 825h80z" />
    <glyph glyph-name="l" unicode="l" horiz-adv-x="227" 
d="M285 825l-131 -825h-80l131 825h80z" />
    <glyph glyph-name="m" unicode="m" horiz-adv-x="768" 
d="M230 470l-8 -51h2q53 64 124 64q42 0 73 -20.5t44 -57.5q26 38 67.5 58t86.5 20q150 0 118 -197l-45 -286h-80l43 273q4 32 6 62.5t-15 52t-55 21.5q-26 0 -47 -10t-34 -25t-23 -38t-15 -42.5t-9 -44.5l-39 -249h-80l42 267q3 31 5 62.5t-14 55.5t-52 24q-33 0 -58 -15
t-39 -42.5t-21.5 -52t-12.5 -56.5l-38 -243h-80l74 470h80z" />
    <glyph glyph-name="n" unicode="n" horiz-adv-x="528" 
d="M230 470l-9 -57h2q64 70 146 70q90 0 116 -55t11 -149l-44 -279h-80l42 265q5 39 6.5 71t-18.5 52.5t-64 20.5q-32 0 -56.5 -12t-39 -28.5t-25.5 -44t-16 -49t-10 -52.5l-35 -223h-80l74 470h80z" />
    <glyph glyph-name="o" unicode="o" horiz-adv-x="562" 
d="M279 -13q-103 0 -163.5 72t-44.5 175q17 104 100.5 176.5t186.5 72.5t163.5 -72.5t43.5 -176.5q-16 -103 -99.5 -175t-186.5 -72zM346 409q-73 0 -128.5 -50.5t-66.5 -123.5t28 -123.5t112 -50.5t128 50.5t66 123.5t-27.5 123.5t-111.5 50.5z" />
    <glyph glyph-name="p" unicode="p" horiz-adv-x="577" 
d="M366 409q-68 0 -118.5 -50t-61.5 -119q-12 -73 21 -126t105 -53q74 0 123.5 51.5t61.5 126.5q12 73 -23.5 121.5t-107.5 48.5zM226 470l-10 -67h2q72 80 175 80q100 0 150.5 -73.5t34.5 -175.5q-16 -104 -89 -175.5t-176 -71.5t-149 79h-2l-52 -330h-80l116 734h80z" />
    <glyph glyph-name="q" unicode="q" horiz-adv-x="577" 
d="M336 409q-68 0 -118.5 -50t-61.5 -119q-12 -73 21 -126t105 -53q74 0 123.5 51.5t61.5 126.5q12 73 -23.5 121.5t-107.5 48.5zM579 470l-116 -734h-80l52 330h-2q-71 -79 -173 -79q-103 0 -153 71.5t-34 174.5t90 176.5t175 73.5t149 -80h2l10 67h80z" />
    <glyph glyph-name="r" unicode="r" horiz-adv-x="335" 
d="M226 470l-8 -51h2q30 33 54.5 48.5t60.5 15.5q32 0 68 -22l-50 -73q-2 1 -5.5 4.5t-5.5 4.5t-5.5 3.5t-6 3.5t-6 2.5t-7.5 2t-8 0.5q-25 0 -45.5 -13t-32 -30t-21 -44t-13.5 -45t-8 -42l-37 -235h-80l74 470h80z" />
    <glyph glyph-name="s" unicode="s" horiz-adv-x="399" 
d="M396 396l-73 -35q-6 20 -20.5 34t-35.5 14q-22 0 -42.5 -15t-23.5 -37q-3 -6 -0.5 -12.5t2.5 -10.5t5.5 -9.5t8 -8.5t10 -7.5t12 -7t13.5 -6.5t14.5 -6.5t15 -6.5t15.5 -7q47 -21 71.5 -51t15.5 -84q-10 -66 -63.5 -109.5t-119.5 -43.5q-59 0 -98 31.5t-49 87.5l76 30
q11 -37 29 -56t55 -19q33 0 57.5 20t29.5 52q5 29 -14 48t-48 31.5t-58 27t-46.5 42t-11.5 68.5q10 58 57 95.5t105 37.5q40 0 70 -24.5t41 -62.5z" />
    <glyph glyph-name="t" unicode="t" horiz-adv-x="240" 
d="M223 396l-63 -396h-80l63 396h-49l11 74h49l27 169h80l-27 -169h84l-11 -74h-84z" />
    <glyph glyph-name="u" unicode="u" horiz-adv-x="512" 
d="M224 470l-41 -262q-5 -41 -5.5 -73.5t21 -53t67.5 -20.5q35 0 59 11t37.5 34t20 45t12.5 57l41 262h80l-42 -271q-34 -212 -220 -212t-152 212l42 271h80z" />
    <glyph glyph-name="v" unicode="v" horiz-adv-x="463" 
d="M166 470l90 -316l190 316h90l-309 -501l-152 501h91z" />
    <glyph glyph-name="w" unicode="w" horiz-adv-x="760" 
d="M168 470l89 -318l202 354l91 -354l190 318h91l-312 -503l-90 350l-200 -350l-152 503h91z" />
    <glyph glyph-name="x" unicode="x" horiz-adv-x="498" 
d="M241 250l-137 220h98l98 -160l148 160h100l-206 -220l155 -250h-97l-119 191l-180 -191h-100z" />
    <glyph glyph-name="y" unicode="y" horiz-adv-x="498" 
d="M221 44l-149 426h93l113 -337l205 337h91l-463 -734h-91z" />
    <glyph glyph-name="z" unicode="z" horiz-adv-x="519" 
d="M184 74h324l-12 -74h-486l402 396h-276l11 74h437z" />
    <glyph glyph-name="braceleft" unicode="{" horiz-adv-x="334" 
d="M89 242l10 64q50 15 69.5 50.5t31.5 109.5l29 187q9 56 45 95.5t62 39.5h73l-12 -74h-40q-25 0 -33.5 -17t-14.5 -59l-30 -189q-8 -53 -32 -95t-41.5 -57.5t-30.5 -22.5q11 -7 23 -22.5t23 -58t3 -95.5l-30 -188q-8 -34 -4.5 -55t28.5 -21h40l-12 -74h-73q-26 0 -49 39.5
t-15 95.5l30 186q14 65 4.5 105.5t-54.5 55.5z" />
    <glyph glyph-name="bar" unicode="|" horiz-adv-x="411" 
d="M233 888h67v-1184h-67v1184z" />
    <glyph glyph-name="braceright" unicode="}" horiz-adv-x="334" 
d="M331 306l-10 -64q-49 -15 -68.5 -50.5t-31.5 -110.5l-30 -186q-8 -56 -44 -95.5t-62 -39.5h-73l12 74h40q17 0 27 11t13 23t8 42l30 188q6 41 21 75.5t32.5 55t29 30.5t20.5 15q-7 5 -14.5 14.5t-20 32.5t-15 52.5t1.5 75.5l30 189q8 34 4 55t-28 21h-40l12 74h73
q26 0 49 -39.5t14 -95.5l-29 -187q-14 -64 -5 -104.5t54 -55.5z" />
    <glyph glyph-name="asciitilde" unicode="~" 
d="M162 172l-64 28q75 147 162 147q39 0 102 -45q7 -5 22 -17t24 -18.5t21 -12.5t21 -6q20 0 43.5 27.5t43.5 69.5l63 -28q-72 -147 -162 -147q-36 0 -95 44q-6 4 -19 13.5t-18 13.5t-15 10.5t-16 9t-13.5 5t-14.5 2.5q-39 0 -85 -96z" />
    <glyph glyph-name="uni00A0" unicode="&#xa0;" horiz-adv-x="308" 
 />
    <glyph glyph-name="exclamdown" unicode="&#xa1;" horiz-adv-x="338" 
d="M246 483q23 0 37 -16t10 -39t-23 -40t-42 -17t-37 17t-10 40t23 39t42 16zM260 317l-95 -601h-82l95 601h82z" />
    <glyph glyph-name="cent" unicode="&#xa2;" 
d="M584 587l-17 -106h-2q-41 66 -106 76l-54 -344q71 10 132 80h2l-17 -107q-70 -43 -129 -47l-18 -112h-66l18 113q-86 10 -136 80.5t-36 159.5q15 94 85.5 166t164.5 83l16 106h66l-16 -104q65 -6 113 -44zM339 214l54 341q-58 -11 -102 -60.5t-53 -108.5
q-9 -62 17.5 -111t83.5 -61z" />
    <glyph glyph-name="sterling" unicode="&#xa3;" 
d="M250 268h-127l11 64h100l-14 37q-3 8 -10.5 29t-10.5 30.5t-8 28t-6.5 31.5t-1.5 30.5t3 34.5q14 91 89 152.5t167 61.5q97 0 147.5 -64.5t36.5 -161.5l-86 -22q11 72 -14 120t-94 48q-58 0 -104.5 -39t-56.5 -97q-5 -35 3.5 -72t27 -81t24.5 -66h142l-11 -64h-120
q4 -27 0 -45q-7 -50 -50 -108l5 -2q2 -1 39 -15t60.5 -21t38.5 -7q30 0 53.5 20t49.5 55l61 -41q-30 -50 -75.5 -83t-96.5 -33q-42 0 -117 29q-79 29 -106 29q-54 0 -99 -61l-58 44q74 96 161 97q39 45 47 93q4 29 0 49z" />
    <glyph glyph-name="currency" unicode="&#xa4;" 
d="M145 498l42 36l35 -42q89 58 173 58t155 -58l49 42l30 -36l-46 -40q40 -82 28 -158q-14 -79 -79 -158l34 -40l-42 -36l-35 42q-89 -58 -173 -58t-155 58l-49 -42l-30 36l46 40q-40 84 -27 158q12 76 78 158zM385 486q-82 -2 -146 -54.5t-74 -131.5q-11 -76 36 -131
t125 -55t142.5 55t78.5 131q13 79 -33.5 131.5t-128.5 54.5z" />
    <glyph glyph-name="yen" unicode="&#xa5;" 
d="M266 0l41 256h-237l10 64h237l-39 100h-182l10 64h145l-113 270h97l140 -334l244 334h97l-197 -270h145l-10 -64h-182l-71 -100h237l-10 -64h-237l-41 -256h-84z" />
    <glyph glyph-name="brokenbar" unicode="&#xa6;" horiz-adv-x="410" 
d="M233 799h66v-414h-66v414zM233 207h66v-413h-66v413z" />
    <glyph glyph-name="section" unicode="&#xa7;" horiz-adv-x="592" 
d="M360 402q-46 0 -83 -32t-45 -78q-7 -46 20 -78.5t73 -32.5t83.5 32.5t44.5 78.5t-20 78t-73 32zM106 4h81q-9 -53 11 -84.5t72 -31.5q49 0 80.5 26t38.5 74q4 26 -1.5 45.5t-23.5 33t-31 20t-42 17.5q-6 3 -25.5 11t-29.5 13t-24.5 13.5t-23.5 17.5q-53 47 -40 132
q9 56 43 99t88 64q-81 44 -66 141q12 76 75 124t141 48q41 0 78.5 -18t54.5 -49q26 -48 15 -129h-80q13 119 -81 119q-46 0 -80.5 -27.5t-41.5 -73.5q-4 -25 2 -43.5t25.5 -32t34.5 -20.5t45 -18q13 -5 19 -7q30 -12 50 -23.5t39.5 -31.5t26 -51t0.5 -73q-17 -106 -131 -160
q81 -45 65 -146q-12 -79 -72 -125.5t-141 -46.5q-174 0 -151 193z" />
    <glyph glyph-name="dieresis" unicode="&#xa8;" horiz-adv-x="467" 
d="M247 705q23 0 36 -15.5t9 -38.5t-22 -38.5t-40 -15.5q-23 0 -36.5 16t-9.5 38q4 23 22 38.5t41 15.5zM444 705q22 0 35.5 -15.5t9.5 -38.5t-22 -38.5t-40 -15.5q-23 0 -36.5 16t-9.5 38q4 23 22.5 38.5t40.5 15.5z" />
    <glyph glyph-name="copyright" unicode="&#xa9;" horiz-adv-x="800" 
d="M398 -13q-164 0 -260 113.5t-70 276.5t157.5 276.5t295.5 113.5t260.5 -113.5t70.5 -276.5t-158 -276.5t-296 -113.5zM407 47q135 0 249 96.5t136 233.5t-61.5 233.5t-218.5 96.5t-248.5 -96.5t-135.5 -233.5t61 -233.5t218 -96.5zM671 457h-61q-2 41 -31.5 64.5
t-78.5 23.5q-76 0 -123.5 -49t-57.5 -114q-12 -71 23 -118.5t108 -47.5q100 0 137 91h61q-20 -69 -78.5 -110t-128.5 -41q-97 0 -147.5 64.5t-35.5 159.5q16 99 85 162t168 63q70 0 114 -39.5t46 -108.5z" />
    <glyph glyph-name="ordfeminine" unicode="&#xaa;" horiz-adv-x="346" 
d="M289 723q-44 0 -77.5 -30.5t-40.5 -71.5q-6 -44 16 -76t68 -32q48 0 80 31t39 76q7 44 -15.5 73.5t-69.5 29.5zM446 759l-44 -282h-52l6 39h-2q-47 -47 -113 -47q-65 0 -98.5 43.5t-23.5 104.5q10 63 56.5 106.5t113.5 43.5q65 0 97 -48h2l6 40h52z" />
    <glyph glyph-name="guillemotleft" unicode="&#xab;" horiz-adv-x="500" 
d="M335 240l109 -166l-60 -41l-135 207l202 213l46 -42zM165 240l109 -166l-60 -41l-135 207l202 213l46 -42z" />
    <glyph glyph-name="logicalnot" unicode="&#xac;" 
d="M488 103l31 192h-406l12 78h484l-43 -270h-78z" />
    <glyph glyph-name="uni00AD" unicode="&#xad;" horiz-adv-x="208" 
d="M46 278h205l-12 -74h-205z" />
    <glyph glyph-name="registered" unicode="&#xae;" horiz-adv-x="800" 
d="M398 -13q-164 0 -260 113.5t-70 276.5t157.5 276.5t295.5 113.5t260.5 -113.5t70.5 -276.5t-158 -276.5t-296 -113.5zM407 47q135 0 249 96.5t136 233.5t-61.5 233.5t-218.5 96.5t-248.5 -96.5t-135.5 -233.5t61 -233.5t218 -96.5zM514 363l98 -197h-72l-97 197h-72
l-31 -197h-60l68 427h186q68 0 106 -25t28 -88q-18 -113 -154 -117zM381 423h72q4 0 24 -0.5t28.5 0t26.5 2t27.5 5.5t21.5 10t18.5 16.5t8.5 24.5q3 21 -12.5 33t-36 15.5t-47.5 3.5h-114z" />
    <glyph glyph-name="macron" unicode="&#xaf;" horiz-adv-x="499" 
d="M187 682h342l-11 -68h-342z" />
    <glyph glyph-name="degree" unicode="&#xb0;" horiz-adv-x="400" 
d="M448 617q-10 -62 -61 -106t-113 -44t-99 44t-27 106q9 62 60 106t113 44t99.5 -44.5t27.5 -105.5zM400 617q7 42 -18.5 72t-68.5 30q-42 0 -76.5 -30t-40.5 -72q-7 -43 18 -72.5t68 -29.5q42 0 76.5 29.5t41.5 72.5z" />
    <glyph glyph-name="plusminus" unicode="&#xb1;" 
d="M348 498h78l-24 -153h203l-13 -78h-203l-24 -153h-78l24 153h-203l13 78h203zM66 0l12 78h484l-12 -78h-484z" />
    <glyph glyph-name="twosuperior" unicode="&#xb2;" horiz-adv-x="369" 
d="M203 359h197l-8 -52h-317l268 250q34 31 40 76q6 37 -16.5 59.5t-62.5 22.5q-44 0 -72 -24t-35 -64h-60q11 60 60 100t113 40q66 0 104.5 -37.5t28.5 -96.5q-9 -60 -47 -95z" />
    <glyph glyph-name="threesuperior" unicode="&#xb3;" horiz-adv-x="369" 
d="M257 519l8 52q40 0 68.5 18.5t34.5 51.5q5 34 -16.5 54t-52.5 20q-67 0 -85 -67h-60q15 55 54.5 87t99.5 32t94.5 -34.5t25.5 -89.5q-5 -31 -26 -58t-53 -41q65 -28 53 -111q-10 -63 -58 -98.5t-116 -35.5q-60 0 -96.5 35t-28.5 90h60q-5 -34 16.5 -53.5t59.5 -19.5
q39 0 68 24t35 61q6 39 -17 61.5t-68 21.5z" />
    <glyph glyph-name="acute" unicode="&#xb4;" horiz-adv-x="358" 
d="M315 744l78 -38l-178 -154l-45 28z" />
    <glyph glyph-name="mu" unicode="&#xb5;" horiz-adv-x="512" 
d="M224 470l-41 -262q-5 -41 -5.5 -73.5t21 -53t67.5 -20.5q35 0 59 11t37.5 34t20 45t12.5 57l41 262h80l-42 -271q-34 -212 -220 -212q-57 0 -99 47l-47 -298h-80l116 734h80z" />
    <glyph glyph-name="paragraph" unicode="&#xb6;" horiz-adv-x="592" 
d="M653 754l-10 -65h-58l-133 -842h-65l133 842h-81l-133 -842h-65l69 436q-86 0 -133.5 57t-38.5 157q8 95 84 176t171 81h260z" />
    <glyph glyph-name="periodcentered" unicode="&#xb7;" horiz-adv-x="308" 
d="M203 311q23 0 37 -16t11 -39q-4 -23 -23 -40t-42 -17t-37 17t-10 40q3 23 22 39t42 16z" />
    <glyph glyph-name="cedilla" unicode="&#xb8;" horiz-adv-x="325" 
d="M240 -53l-138 -146l-51 28l119 148z" />
    <glyph glyph-name="onesuperior" unicode="&#xb9;" horiz-adv-x="369" 
d="M307 707h-81l37 52h112l-71 -452h-60z" />
    <glyph glyph-name="ordmasculine" unicode="&#xba;" horiz-adv-x="337" 
d="M243 469q-67 0 -107 43t-30 105t63.5 106t120.5 44t107.5 -44t30.5 -106t-64 -105t-121 -43zM284 723q-47 0 -83 -30.5t-43 -74.5t19 -74.5t73 -30.5t83 30.5t43 74.5t-19 74.5t-73 30.5z" />
    <glyph glyph-name="guillemotright" unicode="&#xbb;" horiz-adv-x="500" 
d="M80 74l161 166l-108 171l60 42l134 -213l-201 -207zM250 74l161 166l-108 171l60 42l134 -213l-201 -207z" />
    <glyph glyph-name="onequarter" unicode="&#xbc;" horiz-adv-x="924" 
d="M784 125h60l-8 -52h-60l-12 -73h-60l12 73h-245l368 405h1zM724 125l30 190h-2l-172 -190h144zM293 707h-81l37 52h112l-71 -452h-60zM769 767l41 -24l-559 -756l-40 24z" />
    <glyph glyph-name="onehalf" unicode="&#xbd;" horiz-adv-x="924" 
d="M293 707h-81l37 52h112l-71 -452h-60zM635 52h197l-8 -52h-317l269 250q33 31 40 76q6 37 -16.5 59.5t-62.5 22.5q-44 0 -72.5 -24t-34.5 -64h-60q11 60 60 100t113 40q66 0 104 -37.5t29 -96.5q-9 -60 -47 -95zM724 767l41 -24l-559 -756l-40 24z" />
    <glyph glyph-name="threequarters" unicode="&#xbe;" horiz-adv-x="924" 
d="M804 125h60l-8 -52h-60l-12 -73h-60l12 73h-245l368 405h1zM744 125l30 190h-2l-172 -190h144zM827 767l41 -24l-559 -756l-40 24zM301 519l8 52q40 0 68.5 18.5t34.5 51.5q5 34 -16.5 54t-52.5 20q-67 0 -85 -67h-60q15 55 54.5 87t99.5 32t94.5 -34.5t25.5 -89.5
q-5 -31 -26 -58t-53 -41q65 -28 53 -111q-10 -63 -58 -98.5t-116 -35.5q-60 0 -96.5 35t-28.5 90h60q-5 -34 16.5 -53.5t59.5 -19.5q39 0 68 24t35 61q6 39 -17 61.5t-68 21.5z" />
    <glyph glyph-name="questiondown" unicode="&#xbf;" horiz-adv-x="488" 
d="M186 146h-81q9 73 64 123t127 50q69 0 108.5 -47t28.5 -116q-10 -62 -51.5 -97t-110.5 -56q-2 -1 -19.5 -6t-20.5 -6l-18 -6t-18.5 -7.5t-15.5 -8.5t-16 -11t-12 -13t-11.5 -16t-7.5 -18.5t-6 -22.5q-7 -46 17.5 -75t69.5 -29q42 0 74.5 28.5t38.5 70.5q5 26 2 48h83
l-4 -53q-12 -76 -73.5 -123.5t-137.5 -47.5q-77 0 -120.5 52t-31.5 128q14 85 75 134q37 29 143 58q80 22 90 83q5 34 -15.5 57t-54.5 23q-40 0 -64.5 -27.5t-31.5 -68.5zM323 483q23 0 37 -16.5t10 -39.5t-23 -39.5t-42 -16.5t-37 16.5t-10 39.5t23 39.5t42 16.5z" />
    <glyph glyph-name="Agrave" unicode="&#xc0;" horiz-adv-x="699" 
d="M545 214h-322l-125 -214h-92l473 790l214 -790h-93zM524 292l-78 302l-177 -302h255zM362 965l90 38l93 -164l-55 -28z" />
    <glyph glyph-name="Aacute" unicode="&#xc1;" horiz-adv-x="699" 
d="M545 214h-322l-125 -214h-92l473 790l214 -790h-93zM524 292l-78 302l-177 -302h255zM567 1003l78 -38l-178 -154l-45 28z" />
    <glyph glyph-name="Acircumflex" unicode="&#xc2;" horiz-adv-x="699" 
d="M545 214h-322l-125 -214h-92l473 790l214 -790h-93zM524 292l-78 302l-177 -302h255zM330 863l177 133l137 -133l-65 -45l-87 85l-112 -85z" />
    <glyph glyph-name="Atilde" unicode="&#xc3;" horiz-adv-x="699" 
d="M545 214h-322l-125 -214h-92l473 790l214 -790h-93zM524 292l-78 302l-177 -302h255zM358 847l-43 39q59 79 115 79q35 0 77 -23q48 -23 61 -23q30 0 63 48l41 -38q-20 -35 -52 -58t-67 -23q-27 0 -71 23q-46 22 -67 22q-19 0 -31 -11.5t-26 -34.5z" />
    <glyph glyph-name="Adieresis" unicode="&#xc4;" horiz-adv-x="699" 
d="M545 214h-322l-125 -214h-92l473 790l214 -790h-93zM524 292l-78 302l-177 -302h255zM404 964q22 0 35.5 -16t9.5 -38q-4 -23 -22 -38.5t-40 -15.5q-23 0 -36.5 16t-9.5 38q4 23 22.5 38.5t40.5 15.5zM601 964q23 0 36 -16t9 -38q-4 -23 -22 -38.5t-40 -15.5
q-23 0 -36.5 16t-9.5 38q4 23 22 38.5t41 15.5z" />
    <glyph glyph-name="Aring" unicode="&#xc5;" horiz-adv-x="699" 
d="M545 214h-322l-125 -214h-92l473 790l214 -790h-93zM524 292l-78 302l-177 -302h255zM510 1006q40 0 64 -28.5t18 -68.5q-7 -41 -40 -69.5t-73 -28.5q-41 0 -65 29t-17 69q6 40 39.5 68.5t73.5 28.5zM502 956q-20 0 -36 -14t-19 -33q-3 -20 9 -34t31 -14t35.5 14t19.5 34
q3 19 -8.5 33t-31.5 14z" />
    <glyph glyph-name="AE" unicode="&#xc6;" horiz-adv-x="1000" 
d="M544 212h-322l-123 -212h-93l455 754h331l22 -78h-305l58 -225h297l23 -78h-298l76 -295h306l21 -78h-393zM522 290l-77 297l-175 -297h252z" />
    <glyph glyph-name="Ccedilla" unicode="&#xc7;" horiz-adv-x="717" 
d="M761 693l-17 -104q-81 100 -214 100q-125 0 -229 -93t-124 -219t55 -219t201 -93q129 0 244 100l-16 -104q-115 -74 -237 -74q-161 0 -259 113.5t-73 273.5q17 106 84 196.5t166 143.5t205 53q127 0 214 -74zM436 -53l-138 -146l-51 28l119 148z" />
    <glyph glyph-name="Egrave" unicode="&#xc8;" horiz-adv-x="534" 
d="M76 0l119 754h391l-12 -78h-307l-35 -224h298l-13 -78h-298l-47 -296h307l-12 -78h-391zM294 965l90 38l93 -164l-55 -28z" />
    <glyph glyph-name="Eacute" unicode="&#xc9;" horiz-adv-x="534" 
d="M76 0l119 754h391l-12 -78h-307l-35 -224h298l-13 -78h-298l-47 -296h307l-12 -78h-391zM484 1003l78 -38l-178 -154l-45 28z" />
    <glyph glyph-name="Ecircumflex" unicode="&#xca;" horiz-adv-x="534" 
d="M76 0l119 754h391l-12 -78h-307l-35 -224h298l-13 -78h-298l-47 -296h307l-12 -78h-391zM247 863l177 133l137 -133l-65 -45l-87 85l-112 -85z" />
    <glyph glyph-name="Edieresis" unicode="&#xcb;" horiz-adv-x="534" 
d="M76 0l119 754h391l-12 -78h-307l-35 -224h298l-13 -78h-298l-47 -296h307l-12 -78h-391zM322 964q22 0 35.5 -16t9.5 -38q-4 -23 -22 -38.5t-40 -15.5q-23 0 -36.5 16t-9.5 38q4 23 22 38.5t41 15.5zM519 964q23 0 36 -16t9 -38q-4 -23 -22 -38.5t-40 -15.5
q-23 0 -36.5 16t-9.5 38q4 23 22 38.5t41 15.5z" />
    <glyph glyph-name="Igrave" unicode="&#xcc;" horiz-adv-x="239" 
d="M281 754l-119 -754h-84l119 754h84zM146 965l90 38l93 -164l-55 -28z" />
    <glyph glyph-name="Iacute" unicode="&#xcd;" horiz-adv-x="239" 
d="M281 754l-119 -754h-84l119 754h84zM321 1003l78 -38l-178 -154l-45 28z" />
    <glyph glyph-name="Icircumflex" unicode="&#xce;" horiz-adv-x="239" 
d="M281 754l-119 -754h-84l119 754h84zM100 863l177 133l137 -133l-65 -45l-87 85l-112 -85z" />
    <glyph glyph-name="Idieresis" unicode="&#xcf;" horiz-adv-x="239" 
d="M281 754l-119 -754h-84l119 754h84zM174 964q22 0 35.5 -16t9.5 -38q-4 -23 -22 -38.5t-40 -15.5q-23 0 -36.5 16t-9.5 38q4 23 22 38.5t41 15.5zM371 964q23 0 36 -16t9 -38q-4 -23 -22 -38.5t-40 -15.5q-23 0 -36.5 16t-9.5 38q4 23 22.5 38.5t40.5 15.5z" />
    <glyph glyph-name="Eth" unicode="&#xd0;" horiz-adv-x="678" 
d="M76 0l59 370h-76l11 72h76l49 312h142q94 0 160 -19t120 -72q107 -107 80 -287q-28 -172 -168 -281q-72 -56 -143.5 -75.5t-169.5 -19.5h-140zM172 78h61q77 0 136 16.5t115 61.5q107 87 129 221q21 140 -62 226q-42 43 -95 58t-128 15h-61l-37 -234h134l-11 -72h-134z
" />
    <glyph glyph-name="Ntilde" unicode="&#xd1;" horiz-adv-x="834" 
d="M81 0l124 786l491 -616l92 584h84l-124 -788l-491 615l-92 -581h-84zM425 847l-43 39q59 79 115 79q35 0 77 -23q48 -23 61 -23q30 0 63 48l41 -38q-20 -35 -52 -58t-67 -23q-27 0 -71 23q-46 22 -67 22q-19 0 -31 -11.5t-26 -34.5z" />
    <glyph glyph-name="Ograve" unicode="&#xd2;" horiz-adv-x="862" 
d="M552 767q162 0 259.5 -114.5t72.5 -276.5q-26 -162 -159.5 -275.5t-295.5 -113.5t-259.5 113.5t-71.5 275.5q17 106 84 196t165.5 142.5t204.5 52.5zM540 689q-129 0 -233.5 -91.5t-124.5 -220.5q-20 -128 55.5 -220t203.5 -92t233.5 92t125.5 220q20 129 -55.5 220.5
t-204.5 91.5zM443 965l90 38l93 -164l-55 -28z" />
    <glyph glyph-name="Oacute" unicode="&#xd3;" horiz-adv-x="862" 
d="M552 767q162 0 259.5 -114.5t72.5 -276.5q-26 -162 -159.5 -275.5t-295.5 -113.5t-259.5 113.5t-71.5 275.5q17 106 84 196t165.5 142.5t204.5 52.5zM540 689q-129 0 -233.5 -91.5t-124.5 -220.5q-20 -128 55.5 -220t203.5 -92t233.5 92t125.5 220q20 129 -55.5 220.5
t-204.5 91.5zM648 1003l78 -38l-178 -154l-45 28z" />
    <glyph glyph-name="Ocircumflex" unicode="&#xd4;" horiz-adv-x="862" 
d="M552 767q162 0 259.5 -114.5t72.5 -276.5q-26 -162 -159.5 -275.5t-295.5 -113.5t-259.5 113.5t-71.5 275.5q17 106 84 196t165.5 142.5t204.5 52.5zM540 689q-129 0 -233.5 -91.5t-124.5 -220.5q-20 -128 55.5 -220t203.5 -92t233.5 92t125.5 220q20 129 -55.5 220.5
t-204.5 91.5zM411 863l177 133l137 -133l-65 -45l-87 85l-112 -85z" />
    <glyph glyph-name="Otilde" unicode="&#xd5;" horiz-adv-x="862" 
d="M552 767q162 0 259.5 -114.5t72.5 -276.5q-26 -162 -159.5 -275.5t-295.5 -113.5t-259.5 113.5t-71.5 275.5q17 106 84 196t165.5 142.5t204.5 52.5zM540 689q-129 0 -233.5 -91.5t-124.5 -220.5q-20 -128 55.5 -220t203.5 -92t233.5 92t125.5 220q20 129 -55.5 220.5
t-204.5 91.5zM439 847l-43 39q59 79 115 79q35 0 77 -23q48 -23 61 -23q30 0 63 48l41 -38q-20 -35 -52 -58t-67 -23q-27 0 -71 23q-46 22 -67 22q-19 0 -31 -11.5t-26 -34.5z" />
    <glyph glyph-name="Odieresis" unicode="&#xd6;" horiz-adv-x="862" 
d="M552 767q162 0 259.5 -114.5t72.5 -276.5q-26 -162 -159.5 -275.5t-295.5 -113.5t-259.5 113.5t-71.5 275.5q17 106 84 196t165.5 142.5t204.5 52.5zM540 689q-129 0 -233.5 -91.5t-124.5 -220.5q-20 -128 55.5 -220t203.5 -92t233.5 92t125.5 220q20 129 -55.5 220.5
t-204.5 91.5zM486 964q22 0 35.5 -16t9.5 -38q-4 -23 -22 -38.5t-40 -15.5q-23 0 -36.5 16t-9.5 38q4 23 22.5 38.5t40.5 15.5zM683 964q23 0 36 -16t9 -38q-4 -23 -22 -38.5t-40 -15.5q-23 0 -36.5 16t-9.5 38q4 23 22 38.5t41 15.5z" />
    <glyph glyph-name="multiply" unicode="&#xd7;" 
d="M136 443l64 55l157 -187l216 187l47 -55l-216 -187l157 -187l-65 -55l-156 187l-217 -187l-46 55l217 187z" />
    <glyph glyph-name="Oslash" unicode="&#xd8;" horiz-adv-x="862" 
d="M218 184l506 436q-72 69 -184 69q-129 0 -233.5 -91.5t-124.5 -220.5q-18 -107 36 -193zM762 574l-506 -436q75 -73 185 -73q128 0 233.5 92t125.5 220q17 111 -38 197zM48 37l103 89q-76 109 -53 250q17 106 84 196t165.5 142.5t204.5 52.5q143 0 237 -91l106 91l39 -45
l-106 -91q78 -109 56 -255q-26 -162 -159.5 -275.5t-295.5 -113.5q-145 0 -240 93l-105 -90z" />
    <glyph glyph-name="Ugrave" unicode="&#xd9;" horiz-adv-x="685" 
d="M277 754l-71 -449q-7 -42 -9 -61t0.5 -52t15.5 -55q18 -33 57.5 -52.5t82.5 -19.5q41 0 84.5 18t74.5 49q21 21 34.5 52t17.5 50t10 59q1 8 2 12l71 449h84l-74 -472q-11 -71 -31 -118.5t-68 -90.5q-94 -86 -217 -86q-117 0 -183 77q-39 43 -46 100t7 118l74 472h84z
M355 965l90 38l93 -164l-55 -28z" />
    <glyph glyph-name="Uacute" unicode="&#xda;" horiz-adv-x="685" 
d="M277 754l-71 -449q-7 -42 -9 -61t0.5 -52t15.5 -55q18 -33 57.5 -52.5t82.5 -19.5q41 0 84.5 18t74.5 49q21 21 34.5 52t17.5 50t10 59q1 8 2 12l71 449h84l-74 -472q-11 -71 -31 -118.5t-68 -90.5q-94 -86 -217 -86q-117 0 -183 77q-39 43 -46 100t7 118l74 472h84z
M560 1003l78 -38l-178 -154l-45 28z" />
    <glyph glyph-name="Ucircumflex" unicode="&#xdb;" horiz-adv-x="685" 
d="M277 754l-71 -449q-7 -42 -9 -61t0.5 -52t15.5 -55q18 -33 57.5 -52.5t82.5 -19.5q41 0 84.5 18t74.5 49q21 21 34.5 52t17.5 50t10 59q1 8 2 12l71 449h84l-74 -472q-11 -71 -31 -118.5t-68 -90.5q-94 -86 -217 -86q-117 0 -183 77q-39 43 -46 100t7 118l74 472h84z
M323 863l177 133l137 -133l-65 -45l-87 85l-112 -85z" />
    <glyph glyph-name="Udieresis" unicode="&#xdc;" horiz-adv-x="685" 
d="M277 754l-71 -449q-7 -42 -9 -61t0.5 -52t15.5 -55q18 -33 57.5 -52.5t82.5 -19.5q41 0 84.5 18t74.5 49q21 21 34.5 52t17.5 50t10 59q1 8 2 12l71 449h84l-74 -472q-11 -71 -31 -118.5t-68 -90.5q-94 -86 -217 -86q-117 0 -183 77q-39 43 -46 100t7 118l74 472h84z
M397 964q23 0 36 -16t9 -38q-4 -23 -22 -38.5t-40 -15.5q-23 0 -36.5 16t-9.5 38q4 23 22 38.5t41 15.5zM594 964q22 0 35.5 -16t9.5 -38q-4 -23 -22 -38.5t-40 -15.5q-23 0 -36.5 16t-9.5 38q4 23 22.5 38.5t40.5 15.5z" />
    <glyph glyph-name="Yacute" unicode="&#xdd;" horiz-adv-x="593" 
d="M306 324l-179 430h97l139 -336l245 336h97l-315 -430l-51 -324h-84zM534 1003l78 -38l-178 -154l-45 28z" />
    <glyph glyph-name="Thorn" unicode="&#xde;" horiz-adv-x="503" 
d="M190 190l-30 -190h-84l119 754h84l-22 -140h40q41 0 66.5 -2t58.5 -11t56 -27q36 -28 51 -74t7 -98q-17 -102 -98 -162q-69 -50 -187 -50h-61zM245 536l-43 -268h56q173 0 194 136q7 44 -4.5 72t-41 40.5t-58 16t-72.5 3.5h-31z" />
    <glyph glyph-name="germandbls" unicode="&#xdf;" horiz-adv-x="577" 
d="M72 0l63 396h-44l11 74h44l23 144q18 106 64 154q31 34 77.5 52t92.5 18q82 0 129.5 -53t34.5 -135q-8 -46 -36.5 -86t-70.5 -60q68 -25 101.5 -93.5t21.5 -147.5q-18 -115 -116.5 -194.5t-214.5 -81.5l12 74q87 5 155.5 62.5t81.5 142.5q7 42 -5.5 82t-41.5 66
q-43 37 -127 44l11 74q57 -1 99 32.5t51 89.5q7 49 -21 79.5t-77 30.5q-35 0 -66 -15t-47 -45q-19 -31 -34 -127l-91 -577h-80z" />
    <glyph glyph-name="agrave" unicode="&#xe0;" horiz-adv-x="577" 
d="M336 409q-68 0 -118.5 -50t-61.5 -119q-12 -73 21 -126t105 -53q74 0 123.5 51.5t61.5 126.5q12 73 -23.5 121.5t-107.5 48.5zM579 470l-74 -470h-80l10 65h-2q-73 -78 -174 -78q-100 0 -151 73t-35 174q16 104 89.5 176.5t176.5 72.5q98 0 148 -80h2l10 67h80zM260 706
l90 38l93 -164l-55 -28z" />
    <glyph glyph-name="aacute" unicode="&#xe1;" horiz-adv-x="577" 
d="M336 409q-68 0 -118.5 -50t-61.5 -119q-12 -73 21 -126t105 -53q74 0 123.5 51.5t61.5 126.5q12 73 -23.5 121.5t-107.5 48.5zM579 470l-74 -470h-80l10 65h-2q-73 -78 -174 -78q-100 0 -151 73t-35 174q16 104 89.5 176.5t176.5 72.5q98 0 148 -80h2l10 67h80zM465 744
l78 -38l-178 -154l-45 28z" />
    <glyph glyph-name="acircumflex" unicode="&#xe2;" horiz-adv-x="577" 
d="M336 409q-68 0 -118.5 -50t-61.5 -119q-12 -73 21 -126t105 -53q74 0 123.5 51.5t61.5 126.5q12 73 -23.5 121.5t-107.5 48.5zM579 470l-74 -470h-80l10 65h-2q-73 -78 -174 -78q-100 0 -151 73t-35 174q16 104 89.5 176.5t176.5 72.5q98 0 148 -80h2l10 67h80zM228 604
l177 133l137 -133l-65 -45l-87 85l-112 -85z" />
    <glyph glyph-name="atilde" unicode="&#xe3;" horiz-adv-x="577" 
d="M336 409q-68 0 -118.5 -50t-61.5 -119q-12 -73 21 -126t105 -53q74 0 123.5 51.5t61.5 126.5q12 73 -23.5 121.5t-107.5 48.5zM579 470l-74 -470h-80l10 65h-2q-73 -78 -174 -78q-100 0 -151 73t-35 174q16 104 89.5 176.5t176.5 72.5q98 0 148 -80h2l10 67h80zM256 588
l-43 39q59 79 115 79q35 0 77 -23q48 -23 61 -23q30 0 63 48l41 -38q-20 -35 -52 -58t-67 -23q-27 0 -71 23q-46 22 -67 22q-19 0 -31 -11.5t-26 -34.5z" />
    <glyph glyph-name="adieresis" unicode="&#xe4;" horiz-adv-x="577" 
d="M336 409q-68 0 -118.5 -50t-61.5 -119q-12 -73 21 -126t105 -53q74 0 123.5 51.5t61.5 126.5q12 73 -23.5 121.5t-107.5 48.5zM579 470l-74 -470h-80l10 65h-2q-73 -78 -174 -78q-100 0 -151 73t-35 174q16 104 89.5 176.5t176.5 72.5q98 0 148 -80h2l10 67h80zM302 705
q22 0 35.5 -15.5t9.5 -38.5t-22 -38.5t-40 -15.5q-23 0 -36.5 16t-9.5 38q4 23 22.5 38.5t40.5 15.5zM499 705q23 0 36 -15.5t9 -38.5t-22 -38.5t-40 -15.5q-23 0 -36.5 16t-9.5 38q4 23 22 38.5t41 15.5z" />
    <glyph glyph-name="aring" unicode="&#xe5;" horiz-adv-x="577" 
d="M336 409q-68 0 -118.5 -50t-61.5 -119q-12 -73 21 -126t105 -53q74 0 123.5 51.5t61.5 126.5q12 73 -23.5 121.5t-107.5 48.5zM579 470l-74 -470h-80l10 65h-2q-73 -78 -174 -78q-100 0 -151 73t-35 174q16 104 89.5 176.5t176.5 72.5q98 0 148 -80h2l10 67h80zM408 747
q40 0 64 -28.5t18 -68.5q-7 -41 -40 -69.5t-73 -28.5q-41 0 -65 29t-17 69q6 40 39.5 68.5t73.5 28.5zM400 697q-20 0 -36 -14t-19 -33q-3 -20 9 -34t31 -14t35.5 14t19.5 34q3 19 -8.5 33t-31.5 14z" />
    <glyph glyph-name="ae" unicode="&#xe6;" horiz-adv-x="843" 
d="M492 286h281q0 52 -33 87.5t-85 35.5t-99.5 -36t-63.5 -87zM263 223q-44 0 -84.5 -21t-47.5 -62q-6 -41 27 -60t79 -19q49 0 91 19.5t49 63.5q6 41 -31.5 60t-82.5 19zM844 218h-370q-10 -66 26 -111.5t103 -45.5q89 0 158 97l62 -39q-91 -132 -238 -132q-54 0 -98 24
t-67 69q-68 -93 -191 -93q-81 0 -135.5 38t-42.5 113q12 76 77 116t144 40q75 0 127 -40q11 75 -13 115t-97 40q-55 0 -149 -30l12 76q97 28 154 28q56 0 100 -24.5t58 -72.5q34 45 89 71t109 26q109 0 156.5 -77t25.5 -188z" />
    <glyph glyph-name="ccedilla" unicode="&#xe7;" horiz-adv-x="476" 
d="M494 436l-17 -106h-2q-49 79 -133 79q-72 0 -127.5 -51t-66.5 -123q-12 -72 25.5 -123t109.5 -51q90 0 165 81h2l-16 -107q-79 -48 -157 -48q-107 0 -167 71t-44 177q16 104 101.5 176t189.5 72q79 0 137 -47zM316 -53l-138 -146l-51 28l119 148z" />
    <glyph glyph-name="egrave" unicode="&#xe8;" horiz-adv-x="519" 
d="M520 218h-369q-10 -66 26 -111.5t103 -45.5q89 0 158 97l62 -39q-91 -132 -238 -132q-103 0 -155.5 69t-36.5 173q17 109 89.5 181.5t179.5 72.5q109 0 157 -77.5t24 -187.5zM165 286h281q0 52 -33 87.5t-85 35.5t-99.5 -36t-63.5 -87zM231 706l90 38l93 -164l-55 -28z
" />
    <glyph glyph-name="eacute" unicode="&#xe9;" horiz-adv-x="519" 
d="M520 218h-369q-10 -66 26 -111.5t103 -45.5q89 0 158 97l62 -39q-91 -132 -238 -132q-103 0 -155.5 69t-36.5 173q17 109 89.5 181.5t179.5 72.5q109 0 157 -77.5t24 -187.5zM165 286h281q0 52 -33 87.5t-85 35.5t-99.5 -36t-63.5 -87zM436 744l78 -38l-178 -154l-45 28z
" />
    <glyph glyph-name="ecircumflex" unicode="&#xea;" horiz-adv-x="519" 
d="M520 218h-369q-10 -66 26 -111.5t103 -45.5q89 0 158 97l62 -39q-91 -132 -238 -132q-103 0 -155.5 69t-36.5 173q17 109 89.5 181.5t179.5 72.5q109 0 157 -77.5t24 -187.5zM165 286h281q0 52 -33 87.5t-85 35.5t-99.5 -36t-63.5 -87zM199 604l177 133l137 -133l-65 -45
l-87 85l-112 -85z" />
    <glyph glyph-name="edieresis" unicode="&#xeb;" horiz-adv-x="519" 
d="M520 218h-369q-10 -66 26 -111.5t103 -45.5q89 0 158 97l62 -39q-91 -132 -238 -132q-103 0 -155.5 69t-36.5 173q17 109 89.5 181.5t179.5 72.5q109 0 157 -77.5t24 -187.5zM165 286h281q0 52 -33 87.5t-85 35.5t-99.5 -36t-63.5 -87zM273 705q23 0 36 -15.5t9 -38.5
t-22 -38.5t-40 -15.5q-23 0 -36.5 16t-9.5 38q4 23 22 38.5t41 15.5zM470 705q22 0 35.5 -15.5t9.5 -38.5t-22 -38.5t-40 -15.5q-23 0 -36.5 16t-9.5 38q4 23 22.5 38.5t40.5 15.5z" />
    <glyph glyph-name="igrave" unicode="&#xec;" horiz-adv-x="262" 
d="M245 470l-74 -470h-80l74 470h80zM117 706l90 38l93 -164l-55 -28z" />
    <glyph glyph-name="iacute" unicode="&#xed;" horiz-adv-x="262" 
d="M245 470l-74 -470h-80l74 470h80zM292 744l78 -38l-178 -154l-45 28z" />
    <glyph glyph-name="icircumflex" unicode="&#xee;" horiz-adv-x="262" 
d="M245 470l-74 -470h-80l74 470h80zM70 604l177 133l137 -133l-65 -45l-87 85l-112 -85z" />
    <glyph glyph-name="idieresis" unicode="&#xef;" horiz-adv-x="262" 
d="M245 470l-74 -470h-80l74 470h80zM145 705q23 0 36 -15.5t9 -38.5t-22 -38.5t-40 -15.5q-23 0 -36.5 16t-9.5 38q4 23 22 38.5t41 15.5zM342 705q22 0 35.5 -15.5t9.5 -38.5t-22 -38.5t-40 -15.5q-23 0 -36.5 16t-9.5 38q4 23 22.5 38.5t40.5 15.5z" />
    <glyph glyph-name="eth" unicode="&#xf0;" horiz-adv-x="561" 
d="M217 785l52 46q77 -55 121 -98l153 92l33 -41l-148 -90q12 -14 17 -20t21 -27t25 -35.5t24 -41.5t23.5 -50t18.5 -55.5t13.5 -63.5t3.5 -69t-6 -76q-14 -89 -64 -152t-108 -89.5t-117 -26.5q-103 0 -163.5 72.5t-44.5 174.5q16 98 95 172t183 74q89 0 146 -64
q-23 121 -131 239l-147 -89l-33 41l144 87q-45 45 -111 90zM152 236q-12 -76 29 -125t111 -49q73 0 127 51t66 123q12 71 -26.5 122.5t-110.5 51.5q-73 0 -128.5 -50t-67.5 -124z" />
    <glyph glyph-name="ntilde" unicode="&#xf1;" horiz-adv-x="528" 
d="M230 470l-9 -57h2q64 70 146 70q90 0 116 -55t11 -149l-44 -279h-80l42 265q5 39 6.5 71t-18.5 52.5t-64 20.5q-32 0 -56.5 -12t-39 -28.5t-25.5 -44t-16 -49t-10 -52.5l-35 -223h-80l74 470h80zM231 588l-43 39q59 79 115 79q35 0 77 -23q48 -23 61 -23q30 0 63 48
l41 -38q-20 -35 -52 -58t-67 -23q-27 0 -71 23q-46 22 -67 22q-19 0 -31 -11.5t-26 -34.5z" />
    <glyph glyph-name="ograve" unicode="&#xf2;" horiz-adv-x="562" 
d="M279 -13q-103 0 -163.5 72t-44.5 175q17 104 100.5 176.5t186.5 72.5t163.5 -72.5t43.5 -176.5q-16 -103 -99.5 -175t-186.5 -72zM346 409q-73 0 -128.5 -50.5t-66.5 -123.5t28 -123.5t112 -50.5t128 50.5t66 123.5t-27.5 123.5t-111.5 50.5zM252 706l90 38l93 -164
l-55 -28z" />
    <glyph glyph-name="oacute" unicode="&#xf3;" horiz-adv-x="562" 
d="M279 -13q-103 0 -163.5 72t-44.5 175q17 104 100.5 176.5t186.5 72.5t163.5 -72.5t43.5 -176.5q-16 -103 -99.5 -175t-186.5 -72zM346 409q-73 0 -128.5 -50.5t-66.5 -123.5t28 -123.5t112 -50.5t128 50.5t66 123.5t-27.5 123.5t-111.5 50.5zM457 744l78 -38l-178 -154
l-45 28z" />
    <glyph glyph-name="ocircumflex" unicode="&#xf4;" horiz-adv-x="562" 
d="M279 -13q-103 0 -163.5 72t-44.5 175q17 104 100.5 176.5t186.5 72.5t163.5 -72.5t43.5 -176.5q-16 -103 -99.5 -175t-186.5 -72zM346 409q-73 0 -128.5 -50.5t-66.5 -123.5t28 -123.5t112 -50.5t128 50.5t66 123.5t-27.5 123.5t-111.5 50.5zM220 604l177 133l137 -133
l-65 -45l-87 85l-112 -85z" />
    <glyph glyph-name="otilde" unicode="&#xf5;" horiz-adv-x="562" 
d="M279 -13q-103 0 -163.5 72t-44.5 175q17 104 100.5 176.5t186.5 72.5t163.5 -72.5t43.5 -176.5q-16 -103 -99.5 -175t-186.5 -72zM346 409q-73 0 -128.5 -50.5t-66.5 -123.5t28 -123.5t112 -50.5t128 50.5t66 123.5t-27.5 123.5t-111.5 50.5zM248 588l-43 39
q59 79 115 79q35 0 77 -23q48 -23 61 -23q30 0 63 48l41 -38q-20 -35 -52 -58t-67 -23q-27 0 -71 23q-46 22 -67 22q-19 0 -31 -11.5t-26 -34.5z" />
    <glyph glyph-name="odieresis" unicode="&#xf6;" horiz-adv-x="562" 
d="M279 -13q-103 0 -163.5 72t-44.5 175q17 104 100.5 176.5t186.5 72.5t163.5 -72.5t43.5 -176.5q-16 -103 -99.5 -175t-186.5 -72zM346 409q-73 0 -128.5 -50.5t-66.5 -123.5t28 -123.5t112 -50.5t128 50.5t66 123.5t-27.5 123.5t-111.5 50.5zM295 705q23 0 36 -15.5
t9 -38.5t-22 -38.5t-40 -15.5q-23 0 -36.5 16t-9.5 38q4 23 22 38.5t41 15.5zM492 705q22 0 35.5 -15.5t9.5 -38.5t-22 -38.5t-40 -15.5q-23 0 -36.5 16t-9.5 38q4 23 22.5 38.5t40.5 15.5z" />
    <glyph glyph-name="divide" unicode="&#xf7;" 
d="M100 217l13 78h484l-13 -78h-484zM328 124q23 0 37.5 -17t10.5 -40q-4 -24 -23.5 -40.5t-42.5 -16.5t-37.5 16.5t-10.5 40.5q4 23 23.5 40t42.5 17zM388 502q23 0 37 -17t10 -40q-4 -24 -23.5 -40.5t-42.5 -16.5t-37.5 16.5t-10.5 40.5q4 23 24 40t43 17z" />
    <glyph glyph-name="oslash" unicode="&#xf8;" horiz-adv-x="562" 
d="M164 134l278 240q-37 35 -96 35q-73 0 -128.5 -50.5t-66.5 -123.5q-9 -54 13 -101zM472 333l-276 -239q36 -33 95 -33q73 0 128 50.5t66 123.5q9 56 -13 98zM22 11l79 68q-44 65 -30 155q17 104 100.5 176.5t186.5 72.5q89 0 147 -55l76 66l33 -38l-77 -67
q42 -66 28 -155q-16 -103 -99.5 -175t-186.5 -72q-87 0 -146 53l-78 -68z" />
    <glyph glyph-name="ugrave" unicode="&#xf9;" horiz-adv-x="512" 
d="M224 470l-41 -262q-5 -41 -5.5 -73.5t21 -53t67.5 -20.5q35 0 59 11t37.5 34t20 45t12.5 57l41 262h80l-42 -271q-34 -212 -220 -212t-152 212l42 271h80zM227 706l90 38l93 -164l-55 -28z" />
    <glyph glyph-name="uacute" unicode="&#xfa;" horiz-adv-x="512" 
d="M224 470l-41 -262q-5 -41 -5.5 -73.5t21 -53t67.5 -20.5q35 0 59 11t37.5 34t20 45t12.5 57l41 262h80l-42 -271q-34 -212 -220 -212t-152 212l42 271h80zM432 744l78 -38l-178 -154l-45 28z" />
    <glyph glyph-name="ucircumflex" unicode="&#xfb;" horiz-adv-x="512" 
d="M224 470l-41 -262q-5 -41 -5.5 -73.5t21 -53t67.5 -20.5q35 0 59 11t37.5 34t20 45t12.5 57l41 262h80l-42 -271q-34 -212 -220 -212t-152 212l42 271h80zM195 604l177 133l137 -133l-65 -45l-87 85l-112 -85z" />
    <glyph glyph-name="udieresis" unicode="&#xfc;" horiz-adv-x="512" 
d="M224 470l-41 -262q-5 -41 -5.5 -73.5t21 -53t67.5 -20.5q35 0 59 11t37.5 34t20 45t12.5 57l41 262h80l-42 -271q-34 -212 -220 -212t-152 212l42 271h80zM270 705q22 0 35.5 -15.5t9.5 -38.5t-22 -38.5t-40 -15.5q-23 0 -36.5 16t-9.5 38q4 23 22.5 38.5t40.5 15.5z
M467 705q23 0 36 -15.5t9 -38.5t-22 -38.5t-40 -15.5q-23 0 -36.5 16t-9.5 38q4 23 22 38.5t41 15.5z" />
    <glyph glyph-name="yacute" unicode="&#xfd;" horiz-adv-x="498" 
d="M221 44l-149 426h93l113 -337l205 337h91l-463 -734h-91zM445 744l78 -38l-178 -154l-45 28z" />
    <glyph glyph-name="thorn" unicode="&#xfe;" horiz-adv-x="577" 
d="M283 825l-67 -422h2q72 80 175 80q100 0 150.5 -73.5t34.5 -175.5q-16 -104 -89 -175.5t-176 -71.5t-149 79h-2l-52 -330h-80l173 1089h80zM366 409q-68 0 -118.5 -50t-61.5 -119q-12 -73 21 -126t105 -53q74 0 123.5 51.5t61.5 126.5q12 73 -23.5 121.5t-107.5 48.5z
" />
    <glyph glyph-name="ydieresis" unicode="&#xff;" horiz-adv-x="498" 
d="M221 44l-149 426h93l113 -337l205 337h91l-463 -734h-91zM268 705q22 0 35.5 -15.5t9.5 -38.5t-22 -38.5t-40 -15.5q-23 0 -36.5 16t-9.5 38q4 23 22.5 38.5t40.5 15.5zM465 705q23 0 36 -15.5t9 -38.5t-22 -38.5t-40 -15.5q-23 0 -36.5 16t-9.5 38q4 23 22 38.5t41 15.5
z" />
    <glyph glyph-name="dotlessi" unicode="&#x131;" horiz-adv-x="262" 
d="M245 470l-74 -470h-80l74 470h80z" />
    <glyph glyph-name="Lslash" unicode="&#x141;" horiz-adv-x="375" 
d="M76 0l51 319l-84 -49l12 80l84 49l56 355h84l-47 -300l143 84l-12 -80l-144 -84l-47 -296h208l-12 -78h-292z" />
    <glyph glyph-name="lslash" unicode="&#x142;" horiz-adv-x="258" 
d="M89 0l59 370l-82 -49l11 71l82 49l61 384h80l-53 -330l82 49l-11 -71l-82 -49l-67 -424h-80z" />
    <glyph glyph-name="OE" unicode="&#x152;" horiz-adv-x="1190" 
d="M729 0l23 145h-2q-61 -75 -146.5 -117t-174.5 -41q-162 0 -259.5 113.5t-71.5 275.5q17 106 84 196t165.5 142.5t204.5 52.5q89 0 161 -42.5t110 -118.5h2l23 148h394l-12 -78h-310l-35 -224h301l-13 -78h-301l-47 -296h310l-12 -78h-394zM540 689q-129 0 -233.5 -91.5
t-124.5 -220.5q-20 -128 55.5 -220t203.5 -92t233.5 92t125.5 220q20 129 -55.5 220.5t-204.5 91.5z" />
    <glyph glyph-name="oe" unicode="&#x153;" horiz-adv-x="940" 
d="M941 218h-371q-10 -66 26 -111.5t103 -45.5q89 0 158 97l62 -39q-91 -132 -238 -132q-59 0 -108.5 30.5t-67.5 81.5q-39 -53 -101 -82.5t-125 -29.5q-103 0 -163.5 72t-44.5 175q17 104 100.5 176.5t186.5 72.5q66 -2 118 -32t71 -82q36 54 92 83t119 31q109 0 158 -77.5
t25 -187.5zM587 286h281q0 52 -33 87.5t-85 35.5t-99.5 -36t-63.5 -87zM348 409q-73 0 -128.5 -50.5t-66.5 -123.5t28 -123.5t112 -50.5t128 50.5t66 123.5t-27.5 123.5t-111.5 50.5z" />
    <glyph glyph-name="Scaron" unicode="&#x160;" horiz-adv-x="559" 
d="M588 650l-74 -43q-18 41 -44.5 61.5t-72.5 20.5q-51 0 -93 -33t-50 -84q-4 -23 3 -42t26 -34t32 -22.5t38 -19.5l46 -22q40 -19 65.5 -35.5t49 -41t32 -58.5t1.5 -77q-16 -98 -95.5 -165.5t-178.5 -67.5q-90 0 -145 53.5t-59 141.5l85 23q-1 -60 34.5 -100t94.5 -40
q62 0 115.5 42.5t63.5 104.5q4 25 -1.5 46.5t-13.5 34.5t-29 28t-32.5 21t-39.5 20l-42 20q-36 17 -59 32.5t-44.5 38t-29 53t-1.5 69.5q14 85 84 138.5t157 53.5q63 0 109.5 -30.5t67.5 -86.5zM598 951l-177 -133l-137 133l65 45l86 -85l113 85z" />
    <glyph glyph-name="scaron" unicode="&#x161;" horiz-adv-x="399" 
d="M396 396l-73 -35q-6 20 -20.5 34t-35.5 14q-22 0 -42.5 -15t-23.5 -37q-3 -6 -0.5 -12.5t2.5 -10.5t5.5 -9.5t8 -8.5t10 -7.5t12 -7t13.5 -6.5t14.5 -6.5t15 -6.5t15.5 -7q47 -21 71.5 -51t15.5 -84q-10 -66 -63.5 -109.5t-119.5 -43.5q-59 0 -98 31.5t-49 87.5l76 30
q11 -37 29 -56t55 -19q33 0 57.5 20t29.5 52q5 29 -14 48t-48 31.5t-58 27t-46.5 42t-11.5 68.5q10 58 57 95.5t105 37.5q40 0 70 -24.5t41 -62.5zM467 692l-177 -133l-137 133l65 45l86 -85l113 85z" />
    <glyph glyph-name="Ydieresis" unicode="&#x178;" horiz-adv-x="593" 
d="M306 324l-179 430h97l139 -336l245 336h97l-315 -430l-51 -324h-84zM363 964q23 0 36 -16t9 -38q-4 -23 -22 -38.5t-40 -15.5q-23 0 -36.5 16t-9.5 38q4 23 22 38.5t41 15.5zM560 964q22 0 35.5 -16t9.5 -38q-4 -23 -22 -38.5t-40 -15.5q-23 0 -36.5 16t-9.5 38
q4 23 22.5 38.5t40.5 15.5z" />
    <glyph glyph-name="Zcaron" unicode="&#x17d;" horiz-adv-x="586" 
d="M165 78h401l-12 -78h-540l518 676h-359l12 78h499zM613 951l-177 -133l-137 133l65 45l86 -85l113 85z" />
    <glyph glyph-name="zcaron" unicode="&#x17e;" horiz-adv-x="519" 
d="M184 74h324l-12 -74h-486l402 396h-276l11 74h437zM542 692l-177 -133l-137 133l65 45l86 -85l113 85z" />
    <glyph glyph-name="florin" unicode="&#x192;" 
d="M669 825l-27 -75q-24 11 -48 11q-47 0 -70 -32q-17 -25 -40 -91l-46 -136h120l-22 -68h-121l-108 -314q-46 -136 -83 -180q-68 -80 -191 -80l-50 4l28 75l34 -1q29 0 52 6t41 21.5t29.5 28.5t23.5 40t18 42t17 48l106 310h-82l22 68h84l53 158q28 85 71.5 131.5
t122.5 46.5q36 0 66 -13z" />
    <glyph glyph-name="circumflex" unicode="&#x2c6;" horiz-adv-x="470" 
d="M174 604l177 133l137 -133l-65 -45l-87 85l-112 -85z" />
    <glyph glyph-name="caron" unicode="&#x2c7;" horiz-adv-x="470" 
d="M502 692l-177 -133l-137 133l65 45l86 -85l113 85z" />
    <glyph glyph-name="uni02C9" unicode="&#x2c9;" horiz-adv-x="499" 
d="M187 682h342l-11 -68h-342z" />
    <glyph glyph-name="breve" unicode="&#x2d8;" horiz-adv-x="485" 
d="M192 716h69q15 -68 85 -68q69 0 105 68h69q-18 -61 -70 -98.5t-115 -37.5q-62 0 -103 37.5t-40 98.5z" />
    <glyph glyph-name="dotaccent" unicode="&#x2d9;" horiz-adv-x="358" 
d="M292 716q23 0 36.5 -16t9.5 -38t-22 -38t-41 -16t-36 16t-9 38q4 23 22 38.5t40 15.5z" />
    <glyph glyph-name="ring" unicode="&#x2da;" horiz-adv-x="350" 
d="M294 747q40 0 64 -28.5t18 -68.5q-7 -41 -40 -69.5t-73 -28.5q-41 0 -65 29t-17 69q6 40 39.5 68.5t73.5 28.5zM286 697q-20 0 -36 -14t-19 -33q-3 -20 9 -34t31 -14t35.5 14t19.5 34q3 19 -8.5 33t-31.5 14z" />
    <glyph glyph-name="ogonek" unicode="&#x2db;" horiz-adv-x="337" 
d="M161 0h64v-2q-89 -54 -96 -100q-4 -22 10.5 -33.5t37.5 -11.5q30 0 63 18l-21 -66q-31 -15 -65 -15q-44 0 -72.5 25.5t-22.5 67.5q12 67 102 117z" />
    <glyph glyph-name="tilde" unicode="&#x2dc;" horiz-adv-x="506" 
d="M220 588l-43 39q59 79 115 79q35 0 77 -23q48 -23 61 -23q30 0 63 48l41 -38q-20 -35 -52 -58t-67 -23q-27 0 -71 23q-46 22 -67 22q-19 0 -31 -11.5t-26 -34.5z" />
    <glyph glyph-name="hungarumlaut" unicode="&#x2dd;" horiz-adv-x="467" 
d="M341 742l-121 -159l-38 11l85 162zM498 742l-121 -159l-38 11l85 162z" />
    <glyph glyph-name="uni03A9" unicode="&#x3a9;" horiz-adv-x="800" 
d="M232 64l1 3q-57 55 -86 142t-12 194q25 157 136 258.5t253 101.5q96 0 163.5 -50t93.5 -131t11 -175q-17 -110 -75.5 -199.5t-130.5 -140.5l-1 -3h168l-10 -64h-264l7 47q79 45 142.5 135t82.5 211q12 74 -4 142.5t-66.5 116t-127.5 47.5q-113 0 -196.5 -88.5
t-104.5 -219.5q-18 -115 17 -208t98 -136l-7 -47h-265l10 64h167z" />
    <glyph glyph-name="uni03BC" unicode="&#x3bc;" horiz-adv-x="512" 
d="M224 470l-41 -262q-5 -41 -5.5 -73.5t21 -53t67.5 -20.5q35 0 59 11t37.5 34t20 45t12.5 57l41 262h80l-42 -271q-34 -212 -220 -212q-57 0 -99 47l-47 -298h-80l116 734h80z" />
    <glyph glyph-name="pi" unicode="&#x3c0;" horiz-adv-x="628" 
d="M677 492h-91l-53 -332q-16 -103 -8 -160h-76q-14 30 5 153l54 339h-204q-24 -117 -72 -269.5t-88 -222.5h-77q43 82 89.5 229t69.5 263q-90 0 -127 -14l-5 52q53 29 162 29h440z" />
    <glyph glyph-name="uni2010" unicode="&#x2010;" horiz-adv-x="208" 
d="M46 278h205l-12 -74h-205z" />
    <glyph glyph-name="endash" unicode="&#x2013;" horiz-adv-x="500" 
d="M44 278h500l-12 -74h-500z" />
    <glyph glyph-name="emdash" unicode="&#x2014;" horiz-adv-x="1000" 
d="M174 278h740l-12 -74h-740z" />
    <glyph glyph-name="quoteleft" unicode="&#x2018;" horiz-adv-x="289" 
d="M212 485l-70 27l154 255l51 -21z" />
    <glyph glyph-name="quoteright" unicode="&#x2019;" horiz-adv-x="289" 
d="M275 767l70 -27l-154 -255l-51 21z" />
    <glyph glyph-name="quotesinglbase" unicode="&#x201a;" horiz-adv-x="289" 
d="M172 110l70 -26l-154 -256l-51 22z" />
    <glyph glyph-name="quotedblleft" unicode="&#x201c;" horiz-adv-x="457" 
d="M380 485l-70 27l154 255l51 -21zM212 485l-70 27l154 255l51 -21z" />
    <glyph glyph-name="quotedblright" unicode="&#x201d;" horiz-adv-x="457" 
d="M276 767l70 -27l-154 -255l-51 21zM444 767l70 -27l-154 -255l-51 21z" />
    <glyph glyph-name="quotedblbase" unicode="&#x201e;" horiz-adv-x="464" 
d="M172 110l70 -26l-154 -256l-51 22zM347 110l70 -26l-154 -256l-51 22z" />
    <glyph glyph-name="dagger" unicode="&#x2020;" horiz-adv-x="592" 
d="M374 754h82l-29 -185h167l-12 -78h-167l-104 -654h-82l104 654h-167l12 78h167z" />
    <glyph glyph-name="daggerdbl" unicode="&#x2021;" horiz-adv-x="592" 
d="M374 754h82l-29 -185h167l-12 -78h-167l-58 -363h167l-12 -78h-167l-34 -213h-82l34 213h-167l12 78h167l58 363h-167l12 78h167z" />
    <glyph glyph-name="bullet" unicode="&#x2022;" horiz-adv-x="592" 
d="M326 189q-78 0 -124.5 55t-33.5 133q11 79 75 134t143 55t125 -55t34 -134q-13 -78 -77 -133t-142 -55z" />
    <glyph glyph-name="ellipsis" unicode="&#x2026;" horiz-adv-x="1000" 
d="M184 99q23 0 37 -16t10 -39t-23 -40t-42 -17t-37 17t-10 40t23 39t42 16zM516 99q23 0 37 -16t10 -39t-23 -40t-42 -17t-37 17t-10 40t23 39t42 16zM848 99q23 0 37 -16t10 -39t-23 -40t-42 -17t-37 17t-10 40t23 39t42 16z" />
    <glyph glyph-name="perthousand" unicode="&#x2030;" horiz-adv-x="1212" 
d="M313 703q-42 0 -77.5 -29.5t-42.5 -71.5q-6 -41 20.5 -70.5t68.5 -29.5t77.5 29.5t41.5 70.5q7 42 -19.5 71.5t-68.5 29.5zM720 767l37 -24l-556 -756l-39 26zM640 252q-42 0 -77.5 -29.5t-42.5 -71.5q-7 -41 19.5 -70.5t68.5 -29.5t77.5 29.5t42.5 70.5q7 42 -19.5 71.5
t-68.5 29.5zM323 767q70 0 111.5 -48t30.5 -117q-10 -68 -67.5 -116t-126.5 -48t-110.5 47.5t-31.5 116.5q11 69 68 117t126 48zM650 316q70 0 111.5 -48t30.5 -117t-68 -116.5t-126 -47.5t-111 47.5t-31 116.5t68 117t126 48zM1060 316q70 0 111.5 -48t30.5 -117
t-68 -116.5t-126 -47.5t-111 47.5t-31 116.5t68 117t126 48zM1050 252q-42 0 -77.5 -29.5t-42.5 -71.5q-7 -41 19.5 -70.5t68.5 -29.5t77.5 29.5t42.5 70.5q7 42 -19.5 71.5t-68.5 29.5z" />
    <glyph glyph-name="guilsinglleft" unicode="&#x2039;" horiz-adv-x="330" 
d="M165 240l109 -166l-60 -41l-135 207l202 213l46 -42z" />
    <glyph glyph-name="guilsinglright" unicode="&#x203a;" horiz-adv-x="330" 
d="M80 74l161 166l-108 171l60 42l134 -213l-201 -207z" />
    <glyph glyph-name="fraction" unicode="&#x2044;" horiz-adv-x="161" 
d="M399 767l41 -24l-559 -756l-40 24z" />
    <glyph glyph-name="Euro" unicode="&#x20ac;" 
d="M680 715l-13 -83q-52 59 -160 59q-91 0 -151.5 -57t-86.5 -151h327l-34 -64h-313q-1 -6 -3.5 -20.5t-3.5 -19.5q-2 -9 -3.5 -23t-2.5 -19h283l-33 -64h-251q-2 -102 42 -157t132 -55q101 0 177 60l-13 -84q-63 -49 -187 -49q-241 0 -234 285h-80l33 64h51q2 23 5 42
q1 6 3.5 20t3.5 20h-73l34 64h56q39 130 119.5 206.5t205.5 76.5q58 0 103 -15t67 -36z" />
    <glyph glyph-name="afii61289" unicode="&#x2113;" horiz-adv-x="533" 
d="M495 161l32 -33q-94 -136 -226 -136q-88 0 -123.5 56.5t-26.5 143.5l2 13q-10 -7 -34.5 -24.5t-37.5 -26.5l-16 46q85 63 98 74l47 296q11 71 34 123t52 80.5t59.5 42t62.5 13.5q67 0 94 -49.5t15 -125.5q-29 -179 -292 -397l-6 -34q-13 -84 16 -126.5t81 -42.5
q49 0 93.5 32t75.5 75zM286 578l-39 -245q203 185 224 319q19 118 -62 118q-37 0 -72 -46.5t-51 -145.5z" />
    <glyph glyph-name="trademark" unicode="&#x2122;" horiz-adv-x="940" 
d="M1024 754l-66 -421h-60l57 361h-2l-201 -361h-39l-83 361h-2l-57 -361h-60l66 421h101l73 -303l173 303h100zM496 754l-9 -60h-140l-57 -361h-60l57 361h-141l9 60h341z" />
    <glyph glyph-name="Omega" unicode="&#x2126;" horiz-adv-x="800" 
d="M232 64l1 3q-57 55 -86 142t-12 194q25 157 136 258.5t253 101.5q96 0 163.5 -50t93.5 -131t11 -175q-17 -110 -75.5 -199.5t-130.5 -140.5l-1 -3h168l-10 -64h-264l7 47q79 45 142.5 135t82.5 211q12 74 -4 142.5t-66.5 116t-127.5 47.5q-113 0 -196.5 -88.5
t-104.5 -219.5q-18 -115 17 -208t98 -136l-7 -47h-265l10 64h167z" />
    <glyph glyph-name="estimated" unicode="&#x212e;" horiz-adv-x="1062" 
d="M1025 366h-702q-5 0 -5 -5v-212q0 -13 9 -24q112 -115 265 -115q82 0 154.5 34t124.5 95h63q-60 -70 -150 -110.5t-193 -40.5q-179 0 -306 113.5t-127 274.5q0 162 127 276.5t306 114.5q180 0 307 -114.5t127 -276.5v-10zM866 394v213q0 15 -11 26q-112 110 -263 110
q-152 0 -264 -114q-10 -10 -10 -26v-209q0 -7 5 -7h538q5 0 5 7z" />
    <glyph glyph-name="partialdiff" unicode="&#x2202;" horiz-adv-x="601" 
d="M227 726l-19 56q86 60 192 60q55 0 100 -25t77 -75.5t42 -127t-5 -179.5q-31 -194 -125.5 -319t-231.5 -125q-52 0 -90.5 22t-57 57t-26 80t1.5 90q19 122 100 198t177 76q69 0 112.5 -36.5t55.5 -71.5h1q5 16 10 49q23 142 -24 232.5t-134 90.5q-85 0 -156 -52zM274 56
h1q76 0 140 80t94 193q-7 43 -46 82.5t-99 39.5q-69 0 -128.5 -61.5t-73.5 -148.5q-13 -80 18 -132.5t94 -52.5z" />
    <glyph glyph-name="uni2206" unicode="&#x2206;" horiz-adv-x="715" 
d="M34 0l9 54l393 718h91l163 -717l-9 -55h-647zM124 63h483l-97 420q-4 22 -22 98t-22 103h-4q-9 -22 -47 -92.5t-49 -91.5z" />
    <glyph glyph-name="product" unicode="&#x220f;" horiz-adv-x="889" 
d="M861 680h-122v-784h-78v784h-313v-784h-78v784h-122v71h713v-71z" />
    <glyph glyph-name="summation" unicode="&#x2211;" horiz-adv-x="729" 
d="M705 -104h-561v53l299 373l-285 374v55h530v-68h-420v-4l266 -346l-287 -359v-3h458v-75z" />
    <glyph glyph-name="minus" unicode="&#x2212;" 
d="M100 217l13 78h484l-13 -78h-484z" />
    <glyph glyph-name="uni2215" unicode="&#x2215;" horiz-adv-x="161" 
d="M399 767l41 -24l-559 -756l-40 24z" />
    <glyph glyph-name="uni2219" unicode="&#x2219;" horiz-adv-x="308" 
d="M203 311q23 0 37 -16t11 -39q-4 -23 -23 -40t-42 -17t-37 17t-10 40q3 23 22 39t42 16z" />
    <glyph glyph-name="radical" unicode="&#x221a;" horiz-adv-x="749" 
d="M751 892l-245 -1053h-71l-177 500l-82 -31l-17 48l148 58l143 -407q6 -22 19 -76h1q10 50 15 76l206 885h60z" />
    <glyph glyph-name="infinity" unicode="&#x221e;" horiz-adv-x="926" 
d="M871 312v-1q0 -76 -50 -124.5t-117 -48.5q-49 0 -94.5 31t-106.5 100q-27 -31 -45.5 -49.5t-45.5 -40t-56 -31.5t-61 -10q-67 0 -115 49.5t-48 120.5q0 74 48.5 123t122.5 49q56 0 103.5 -34.5t100.5 -96.5q63 70 93 92q53 39 112 39q71 0 115 -47t44 -121zM303 189h1
q17 0 34.5 6.5t29.5 12.5t31 22.5t25.5 23t27.5 28.5t23 24q-59 71 -88 93q-44 33 -91 33q-51 0 -80.5 -36.5t-29.5 -89.5q0 -49 33 -83t84 -34zM706 432h-1q-26 0 -54.5 -15.5t-43.5 -28.5t-43 -43.5t-31 -33.5q62 -68 98 -95t77 -27q50 0 80 36t30 83q0 57 -31.5 90.5
t-80.5 33.5z" />
    <glyph glyph-name="integral" unicode="&#x222b;" horiz-adv-x="510" 
d="M494 902l-14 -54q-16 11 -40 11q-35 0 -56 -25q-38 -45 -38 -193q0 -83 7.5 -268.5t7.5 -273.5q0 -147 -47 -217q-36 -55 -107 -55q-45 0 -72 19l14 56q32 -13 51 -13q31 0 51 25q38 48 38 186q0 89 -7.5 277t-7.5 272q0 89 13.5 142t45.5 85q39 42 101 42q33 0 60 -16z
" />
    <glyph glyph-name="approxequal" unicode="&#x2248;" horiz-adv-x="696" 
d="M611 465l33 -29q-54 -103 -141 -103q-22 0 -44 6.5t-37.5 14t-48.5 25.5q-63 37 -104 37q-35 0 -60 -21t-50 -60l-34 28q26 49 65.5 76.5t86.5 27.5q15 0 29 -2.5t29.5 -9t22.5 -10.5t23.5 -13.5t18.5 -10.5q5 -3 21 -11.5t22 -11l18 -7.5t22 -6.5t22 -1.5q33 0 57.5 20
t48.5 62zM611 279l33 -29q-55 -102 -142 -102q-21 0 -43 6.5t-37.5 14t-48.5 25.5q-68 37 -103 37q-36 0 -60.5 -21t-50.5 -61l-34 29q56 103 151 103q19 0 39.5 -5.5t30.5 -10t30.5 -16t23.5 -12.5q5 -3 17.5 -10t17.5 -9.5t15.5 -7.5t18 -7t17.5 -3.5t20 -1.5
q32 0 55.5 19.5t49.5 61.5z" />
    <glyph glyph-name="notequal" unicode="&#x2260;" horiz-adv-x="712" 
d="M530 546l-50 -108h175v-52h-196l-75 -161h271v-51h-292l-60 -131l-42 20l52 111h-167v51h189l74 161h-263v52h284l59 127z" />
    <glyph glyph-name="lessequal" unicode="&#x2264;" horiz-adv-x="723" 
d="M665 101l-499 246v55l499 245v-61l-443 -210v-2l443 -211v-62zM668 4h-509v53h509v-53z" />
    <glyph glyph-name="greaterequal" unicode="&#x2265;" horiz-adv-x="724" 
d="M166 647l500 -246v-54l-499 -246v62l442 210v2l-443 211v61zM667 4h-507v53h507v-53z" />
    <glyph glyph-name="lozenge" unicode="&#x25ca;" horiz-adv-x="750" 
d="M690 375l-223 -425h-64l-221 425l223 426h64zM617 373l-160 306q-16 42 -20 55h-3q-9 -27 -21 -55l-159 -302l161 -308q17 -39 19 -54h4q9 30 20 53z" />
    <glyph glyph-name="fi" unicode="&#xfb01;" horiz-adv-x="519" 
d="M214 396l-63 -396h-80l63 396h-44l11 74h44l30 187q13 87 40 122q46 59 131 59q25 0 55 -10l-13 -81q-31 11 -52 11q-19 0 -32.5 -6.5t-21.5 -14.5t-14.5 -28t-9 -34t-7.5 -46l-26 -159h119l-11 -74h-119zM502 470l-74 -470h-80l74 470h80zM500 704q23 0 37 -17t10 -40
q-4 -24 -23.5 -40.5t-42.5 -16.5t-37.5 16.5t-10.5 40.5q4 23 24 40t43 17z" />
    <glyph glyph-name="fl" unicode="&#xfb02;" horiz-adv-x="501" 
d="M559 825l-131 -825h-80l131 825h80zM214 396l-63 -396h-80l63 396h-44l11 74h44l30 187q13 87 40 122q46 59 131 59q25 0 55 -10l-13 -81q-31 11 -52 11q-19 0 -32.5 -6.5t-21.5 -14.5t-14.5 -28t-9 -34t-7.5 -46l-26 -159h119l-11 -74h-119z" />
    <glyph glyph-name="a.superior" horiz-adv-x="346" 
d="M289 723q-44 0 -77.5 -30.5t-40.5 -71.5q-6 -44 16 -76t68 -32q48 0 80 31t39 76q7 44 -15.5 73.5t-69.5 29.5zM446 759l-44 -282h-52l6 39h-2q-47 -47 -113 -47q-65 0 -98.5 43.5t-23.5 104.5q10 63 56.5 106.5t113.5 43.5q65 0 97 -48h2l6 40h52z" />
    <glyph glyph-name="o.superior" horiz-adv-x="337" 
d="M243 469q-67 0 -107 43t-30 105t63.5 106t120.5 44t107.5 -44t30.5 -106t-64 -105t-121 -43zM284 723q-47 0 -83 -30.5t-43 -74.5t19 -74.5t73 -30.5t83 30.5t43 74.5t-19 74.5t-73 30.5z" />
    <glyph glyph-name="one.superior" horiz-adv-x="369" 
d="M307 707h-81l37 52h112l-71 -452h-60z" />
    <glyph glyph-name="two.superior" horiz-adv-x="369" 
d="M203 359h197l-8 -52h-317l268 250q34 31 40 76q6 37 -16.5 59.5t-62.5 22.5q-44 0 -72 -24t-35 -64h-60q11 60 60 100t113 40q66 0 104.5 -37.5t28.5 -96.5q-9 -60 -47 -95z" />
    <glyph glyph-name="three.superior" horiz-adv-x="369" 
d="M257 519l8 52q40 0 68.5 18.5t34.5 51.5q5 34 -16.5 54t-52.5 20q-67 0 -85 -67h-60q15 55 54.5 87t99.5 32t94.5 -34.5t25.5 -89.5q-5 -31 -26 -58t-53 -41q65 -28 53 -111q-10 -63 -58 -98.5t-116 -35.5q-60 0 -96.5 35t-28.5 90h60q-5 -34 16.5 -53.5t59.5 -19.5
q39 0 68 24t35 61q6 39 -17 61.5t-68 21.5z" />
    </font>
</defs>
</svg>
