<?xml version="1.0" standalone="no"?>
<!DOCTYPE svg PUBLIC "-//W3C//DTD SVG 1.1//EN" "http://www.w3.org/Graphics/SVG/1.1/DTD/svg11.dtd" >
<svg xmlns="http://www.w3.org/2000/svg" xmlns:xlink="http://www.w3.org/1999/xlink" version="1.1">
<metadata>
Created by FontForge 20170731 at Wed Jun 13 20:12:25 2007
 By ,,,
(c) 1987, 1991, 1993, 2002 Adobe Systems Incorporated. All rights reserved.
</metadata>
<defs>
<font id="FuturaStd-ExtraBold" horiz-adv-x="832" >
  <font-face 
    font-family="Futura Std ExtraBold"
    font-weight="750"
    font-stretch="normal"
    units-per-em="1000"
    panose-1="2 11 9 3 2 2 4 2 2 4"
    ascent="825"
    descent="-175"
    x-height="531"
    cap-height="754"
    bbox="-249 -260 1662 1009"
    underline-thickness="50"
    underline-position="-200"
    unicode-range="U+0020-FB02"
  />
<missing-glyph horiz-adv-x="500" 
d="M0 0v700h500v-700h-500zM250 395l170 255h-340zM280 350l170 -255v510zM80 50h340l-170 255zM50 605v-510l170 255z" />
    <glyph glyph-name="f_i" unicode="fi" horiz-adv-x="822" 
d="M497 0v531h258v-531h-258zM626 819q62 0 102 -33.5t40 -90.5q0 -62 -41 -93.5t-101 -31.5t-101 31.5t-41 93.5q0 57 40 90.5t102 33.5zM75 522v56q0 241 230 241q37 0 113 -12v-205q-23 9 -35 9q-54 0 -54 -71v-20l87 11v-207l-83 7v-331h-258v331l-70 -7v207z" />
    <glyph glyph-name="f_l" unicode="fl" horiz-adv-x="803" 
d="M487 0v811h258v-811h-258zM75 522v56q0 241 230 241q37 0 113 -12v-205q-23 9 -35 9q-54 0 -54 -71v-20l87 11v-207l-83 7v-331h-258v331l-70 -7v207z" />
    <glyph glyph-name=".notdef" horiz-adv-x="500" 
d="M0 0v700h500v-700h-500zM250 395l170 255h-340zM280 350l170 -255v510zM80 50h340l-170 255zM50 605v-510l170 255z" />
    <glyph glyph-name=".null" horiz-adv-x="0" 
 />
    <glyph glyph-name="nonmarkingreturn" horiz-adv-x="333" 
 />
    <glyph glyph-name="space" unicode=" " horiz-adv-x="416" 
 />
    <glyph glyph-name="exclam" unicode="!" horiz-adv-x="462" 
d="M361 288h-264v515h264v-515zM229 239q59 0 104 -35t45 -92q0 -56 -45 -90t-104 -34t-104 34t-45 90q0 57 45 92t104 35z" />
    <glyph glyph-name="quotedbl" unicode="&#x22;" horiz-adv-x="788" 
d="M636 381h-179l-40 373h259zM331 381h-179l-40 373h259z" />
    <glyph glyph-name="numbersign" unicode="#" 
d="M311 801h142l-52 -224h136l52 224h142l-53 -224h108v-124h-132l-32 -138h126v-124h-159l-44 -191h-143l45 191h-136l-44 -191h-143l44 191h-122v124h152l32 138h-129v124h157zM373 453l-32 -138h137l35 138h-140z" />
    <glyph glyph-name="dollar" unicode="$" 
d="M341 752l-5 122h171l-10 -116q96 -7 190 -58l-76 -190q-75 64 -175 64q-28 0 -48 -11.5t-20 -36.5q0 -8 3 -14.5t9.5 -10.5t12.5 -7t16 -4.5t15.5 -2.5t15.5 -2t13 -1q48 -6 84.5 -14t73.5 -24.5t60.5 -40.5t38.5 -62t15 -87q0 -99 -65.5 -167t-165.5 -80l7 -124h-162
l7 123q-117 4 -239 84l77 198q114 -96 217 -96q85 0 85 48q0 37 -68 47l-43 7q-53 9 -93.5 23t-75.5 38.5t-53.5 65t-18.5 94.5q0 96 54.5 150t152.5 85z" />
    <glyph glyph-name="percent" unicode="%" horiz-adv-x="1145" 
d="M882 404q106 0 173 -52t67 -154t-69.5 -156t-170.5 -54t-170.5 54t-69.5 156t67 154t173 52zM882 254q-23 0 -35.5 -16.5t-12.5 -39.5t12 -38t36 -15t36 15t12 38t-12.5 39.5t-35.5 16.5zM263 766q106 0 173 -52t67 -154t-69.5 -156t-170.5 -54t-170.5 54t-69.5 156
t67 154t173 52zM263 616q-23 0 -35.5 -16.5t-12.5 -39.5t12 -38t36 -15t36 15t12 38t-12.5 39.5t-35.5 16.5zM249 0l517 776h137l-513 -776h-141z" />
    <glyph glyph-name="ampersand" unicode="&#x26;" horiz-adv-x="962" 
d="M450 602q-21 0 -34.5 -14t-13.5 -35q0 -15 11.5 -33t25.5 -26q52 29 52 64q0 17 -12.5 30.5t-28.5 13.5zM630 0l-50 57q-105 -69 -238 -69q-58 0 -110.5 13.5t-96 41t-69.5 74.5t-26 109q0 78 53.5 125t135.5 63q-36 34 -55 66.5t-19 74.5q0 70 44 120t105 70.5t129 20.5
q64 0 125.5 -22t106 -71.5t44.5 -115.5q0 -65 -41.5 -117t-105.5 -71l68 -69q42 27 116 114l143 -162l-118 -89l174 -163h-315zM436 196l-95 95q-14 -10 -21.5 -15.5t-15.5 -17.5t-8 -25q0 -28 19.5 -42.5t48.5 -14.5q24 0 72 20z" />
    <glyph glyph-name="quotesingle" unicode="'" horiz-adv-x="493" 
d="M336 381h-179l-40 373h259z" />
    <glyph glyph-name="parenleft" unicode="(" horiz-adv-x="450" 
d="M202 839l193 -112q-50 -76 -75 -192.5t-25 -224.5q0 -264 100 -418l-193 -111l-46 96q-101 210 -101 433t101 433z" />
    <glyph glyph-name="parenright" unicode=")" horiz-adv-x="450" 
d="M55 727l193 112l46 -96q101 -210 101 -433t-101 -433l-46 -96l-193 111q100 154 100 418q0 108 -25 224.5t-75 192.5z" />
    <glyph glyph-name="asterisk" unicode="*" horiz-adv-x="492" 
d="M297 380h-106v89l-77 -44l-53 86l84 51l-84 48l53 90l77 -45v99h106v-104l81 50l53 -90l-77 -48l77 -42l-53 -95l-81 47v-92z" />
    <glyph glyph-name="plus" unicode="+" horiz-adv-x="800" 
d="M300 400v200h200v-200h200v-200h-200v-200h-200v200h-200v200h200z" />
    <glyph glyph-name="comma" unicode="," horiz-adv-x="416" 
d="M201 -166h-201l121 373h259z" />
    <glyph glyph-name="hyphen" unicode="-" horiz-adv-x="485" 
d="M64 165v220h357v-220h-357z" />
    <glyph glyph-name="period" unicode="." horiz-adv-x="416" 
d="M208 239q59 0 104 -35t45 -92q0 -56 -45 -90t-104 -34t-104 34t-45 90q0 57 45 92t104 35z" />
    <glyph glyph-name="slash" unicode="/" horiz-adv-x="728" 
d="M167 -150h-149l544 961h148z" />
    <glyph glyph-name="zero" unicode="0" 
d="M416 766q166 0 263 -108t97 -274q0 -175 -95 -285.5t-265 -110.5t-265 110.5t-95 285.5q0 166 97 274t263 108zM416 532q-38 0 -61.5 -27.5t-30 -59t-6.5 -68.5q0 -35 7.5 -69.5t31 -65.5t59.5 -31t59.5 31t31 65.5t7.5 69.5q0 27 -4 51t-14 49t-30.5 40t-49.5 15z" />
    <glyph glyph-name="one" unicode="1" 
d="M186 504v238l388 12v-754h-272v512z" />
    <glyph glyph-name="two" unicode="2" 
d="M775 0h-749l301 267q166 148 166 215q0 25 -18 42.5t-44 17.5q-39 0 -52 -25.5t-15 -69.5h-268q15 167 95.5 243t249.5 76q81 0 153 -29t121 -91.5t49 -145.5q0 -106 -76.5 -179t-188.5 -108v-8l129 18l147 9v-232z" />
    <glyph glyph-name="three" unicode="3" 
d="M62 264h276q-2 -34 21 -59.5t57 -25.5q28 0 51 20.5t23 48.5t-20.5 49t-48.5 21q-13 0 -37 -4v157l22 -2q22 -2 39.5 14.5t17.5 39.5t-15 36.5t-38 13.5t-36.5 -17.5t-11.5 -40.5h-270q23 251 326 251q51 0 103 -12t100 -36.5t78 -68t30 -99.5q0 -47 -25 -87.5t-68 -58.5
v-6q58 -15 91.5 -62t33.5 -108q0 -65 -31.5 -114t-84 -75t-109 -38.5t-116.5 -12.5q-57 0 -107 8.5t-95.5 29.5t-78.5 52t-53.5 78.5t-23.5 107.5z" />
    <glyph glyph-name="four" unicode="4" 
d="M399 464l-97 -119v-4l133 7v113q0 28 12 62l-6 4q-15 -30 -42 -63zM52 143v198l309 413h324v-406l95 7v-212l-102 8l7 -151h-260l10 151z" />
    <glyph glyph-name="five" unicode="5" 
d="M203 754h513v-211h-323q-10 -58 -24 -87h7q30 40 128 40q107 0 182.5 -65.5t75.5 -170.5q0 -66 -33.5 -120t-87.5 -86t-116 -49t-124 -17q-63 0 -156.5 18t-144.5 43l30 204q43 -23 111.5 -42.5t113.5 -19.5q47 0 90 18t43 57q0 21 -17 37t-43 23.5t-49 11t-42 3.5
q-105 0 -200 -33z" />
    <glyph glyph-name="six" unicode="6" 
d="M355 754h359l-241 -212l1 -6q69 11 75 11q97 0 161 -76.5t64 -175.5q0 -96 -50.5 -167t-130 -105.5t-173.5 -34.5q-96 0 -177 36.5t-133 110.5t-52 172q0 143 128 274zM322 296q0 -40 26.5 -66.5t66.5 -26.5q39 0 66.5 25t27.5 64q0 41 -28 69.5t-68 28.5
q-38 0 -64.5 -28.5t-26.5 -65.5z" />
    <glyph glyph-name="seven" unicode="7" 
d="M297 519l-206 -7v242h732l-429 -754h-303l284 477q20 36 32 45v6z" />
    <glyph glyph-name="eight" unicode="8" 
d="M416 766q54 0 107.5 -13t102.5 -38.5t79.5 -71.5t30.5 -105q0 -52 -30.5 -91.5t-81.5 -54.5v-7q60 -15 98 -61t38 -108q0 -63 -34 -110t-88 -71t-110 -35.5t-112 -11.5t-112 11.5t-110 35.5t-88 71t-34 110q0 62 38 108t98 61v7q-51 15 -81.5 54.5t-30.5 91.5
q0 59 30.5 105t79.5 71.5t102.5 38.5t107.5 13zM416 576q-24 0 -40 -17t-16 -42q0 -23 17 -39t39 -16t39 16t17 39q0 25 -16 42t-40 17zM416 317q-29 0 -51.5 -20.5t-22.5 -50.5q0 -32 21.5 -54.5t52.5 -22.5t52.5 22.5t21.5 54.5q0 30 -22.5 50.5t-51.5 20.5z" />
    <glyph glyph-name="nine" unicode="9" 
d="M116 0l189 167q31 28 45 34v5l-41 -2q-114 -6 -183 71t-69 194q0 94 50.5 163t127.5 101.5t169 32.5q101 0 183 -32.5t135 -105t53 -175.5q0 -80 -30 -142.5t-90 -126.5l-175 -184h-364zM328 457q0 -40 26.5 -67t66.5 -27q36 0 62 27t26 63q0 37 -25.5 64.5t-62.5 27.5
t-65 -25.5t-28 -62.5z" />
    <glyph glyph-name="colon" unicode=":" horiz-adv-x="416" 
d="M208 239q59 0 104 -35t45 -92q0 -56 -45 -90t-104 -34t-104 34t-45 90q0 57 45 92t104 35zM208 543q59 0 104 -35t45 -92q0 -56 -45 -90t-104 -34t-104 34t-45 90q0 57 45 92t104 35z" />
    <glyph glyph-name="semicolon" unicode=";" horiz-adv-x="416" 
d="M201 -166h-201l121 373h259zM258 543q59 0 104 -35t45 -92q0 -56 -45 -90t-104 -34t-104 34t-45 90q0 57 45 92t104 35z" />
    <glyph glyph-name="less" unicode="&#x3c;" horiz-adv-x="800" 
d="M100 177v244l600 182v-212l-332 -91v-2l332 -91v-212z" />
    <glyph glyph-name="equal" unicode="=" horiz-adv-x="800" 
d="M100 0v200h600v-200h-600zM100 312v200h600v-200h-600z" />
    <glyph glyph-name="greater" unicode="&#x3e;" horiz-adv-x="800" 
d="M700 421v-244l-600 -182v212l332 91v2l-332 91v212z" />
    <glyph glyph-name="question" unicode="?" horiz-adv-x="697" 
d="M266 294v194q34 -10 51 -10q38 0 63.5 21t25.5 58q0 22 -13 36t-35 14q-23 0 -37 -19.5t-15 -44.5h-257q4 120 92 195.5t210 75.5q131 0 217.5 -72.5t86.5 -200.5q0 -86 -44 -145t-111.5 -85t-151.5 -26q-41 0 -82 9zM358 239q59 0 104 -35t45 -92q0 -56 -45 -90
t-104 -34t-104 34t-45 90q0 57 45 92t104 35z" />
    <glyph glyph-name="at" unicode="@" horiz-adv-x="800" 
d="M311 353q0 -38 20.5 -64.5t55.5 -26.5q42 0 65.5 32t28.5 76q5 43 -15 69.5t-57 26.5q-41 0 -69.5 -35t-28.5 -78zM623 565l-50 -256q-10 -50 -2 -59q4 -6 14 -5q28 3 58 56t34 115q6 120 -68 185t-194 65q-125 0 -202 -80.5t-77 -210.5q0 -134 82.5 -212t213.5 -78
q128 0 179 32l82 -65q-130 -67 -269 -67q-163 0 -275.5 111.5t-112.5 278.5q0 166 110.5 278.5t271.5 112.5q139 0 235 -86q112 -97 112 -230q0 -128 -62 -209q-34 -45 -75 -67t-79 -20q-21 1 -38.5 17t-23.5 40q-51 -57 -128 -57q-67 0 -117.5 54t-50.5 129q0 95 57 166
t147 71q79 0 123 -61l10 52h95z" />
    <glyph glyph-name="A" unicode="A" horiz-adv-x="823" 
d="M306 94l-22 -94h-290l262 754h303l269 -754h-290l-25 94h-207zM355 273h110l-32 133q-8 30 -18 97h-10z" />
    <glyph glyph-name="B" unicode="B" horiz-adv-x="736" 
d="M60 0v754h319q295 0 295 -209q0 -52 -26 -94.5t-73 -57.5v-6q63 -22 98.5 -67.5t35.5 -111.5q0 -56 -24 -97.5t-65 -65t-88 -34.5t-99 -11h-373zM314 464h25q25 0 41 2.5t30 16t14 37.5q0 15 -5.5 25.5t-12 15.5t-20.5 8t-21.5 3h-23.5h-8h-19v-108zM314 305v-125h31
q23 0 37 1.5t33.5 6.5t29.5 19t10 36t-10.5 36t-31.5 19t-34 6t-38 1h-27z" />
    <glyph glyph-name="C" unicode="C" horiz-adv-x="656" 
d="M613 735l8 -287q-82 76 -161 76q-62 0 -105.5 -43t-43.5 -104q0 -62 45.5 -104.5t107.5 -42.5q85 0 157 70l-8 -282q-30 -14 -90 -22t-105 -8q-161 0 -272 110.5t-111 271.5q0 165 114.5 280.5t279.5 115.5q94 0 184 -31z" />
    <glyph glyph-name="D" unicode="D" horiz-adv-x="827" 
d="M64 0v754h279q97 0 177 -22t141 -67.5t95 -121.5t34 -177q0 -166 -105.5 -266t-273.5 -100h-347zM338 518v-292h17q72 0 116.5 35t44.5 106q0 151 -161 151h-17z" />
    <glyph glyph-name="E" unicode="E" horiz-adv-x="624" 
d="M58 0v754h507v-206h-231v-72h211v-196h-211v-74h239v-206h-515z" />
    <glyph glyph-name="F" unicode="F" horiz-adv-x="602" 
d="M62 0v754h505v-216h-229v-78h201v-196h-201v-264h-276z" />
    <glyph glyph-name="G" unicode="G" horiz-adv-x="891" 
d="M436 444h423q-1 -63 -3 -92t-10 -76t-27 -83.5t-51 -70.5q-59 -64 -144.5 -99t-175.5 -35q-178 0 -297 104t-119 280q0 181 118 287.5t300 106.5q109 0 219 -52t151 -142l-256 -94q-32 58 -104 58q-70 0 -111 -51.5t-41 -123.5q0 -66 38.5 -113.5t102.5 -47.5q36 0 69 17
t42 49h-124v178z" />
    <glyph glyph-name="H" unicode="H" horiz-adv-x="819" 
d="M62 0v754h264v-254h168v254h264v-754h-264v262h-168v-262h-264z" />
    <glyph glyph-name="I" unicode="I" horiz-adv-x="403" 
d="M64 0v754h274v-754h-274z" />
    <glyph glyph-name="J" unicode="J" horiz-adv-x="529" 
d="M200 754h268v-508q0 -113 -72 -185.5t-185 -72.5q-57 0 -117.5 22.5t-107.5 59.5l93 233q10 -25 16 -38t21.5 -27t35.5 -14q48 0 48 82v448z" />
    <glyph glyph-name="K" unicode="K" horiz-adv-x="821" 
d="M64 0v754h267l-6 -327h6q5 25 38 85l132 242h299l-236 -367l261 -387h-318l-130 228q-5 9 -17 27t-19 32.5t-10 28.5h-6l6 -316h-267z" />
    <glyph glyph-name="L" unicode="L" horiz-adv-x="579" 
d="M62 0v754h274v-512h230v-242h-504z" />
    <glyph glyph-name="M" unicode="M" horiz-adv-x="1083" 
d="M31 0l122 754h282l104 -396h7q11 70 19 100l85 296h279l124 -754h-265l-37 413h-5q-10 -53 -18 -75l-109 -338h-160l-98 319q-15 59 -17 94h-9q-4 -63 -7 -91l-32 -322h-265z" />
    <glyph glyph-name="N" unicode="N" horiz-adv-x="872" 
d="M58 0v754h263l246 -418h8q-23 132 -23 192v226h262v-754h-262l-241 396h-8q17 -98 17 -151v-245h-262z" />
    <glyph glyph-name="O" unicode="O" horiz-adv-x="904" 
d="M452 766q176 0 296.5 -108.5t120.5 -282.5q0 -177 -119.5 -282t-297.5 -105t-297.5 105t-119.5 282q0 174 120.5 282.5t296.5 108.5zM452 518q-63 0 -102 -42.5t-39 -104.5q0 -64 39.5 -104.5t101.5 -40.5t101.5 40.5t39.5 104.5q0 62 -39 104.5t-102 42.5z" />
    <glyph glyph-name="P" unicode="P" horiz-adv-x="728" 
d="M62 0v754h347q138 0 222 -71t84 -206q0 -115 -67 -182.5t-182 -67.5h-140v-227h-264zM326 548v-131h27q45 0 72.5 14t27.5 55q0 21 -8.5 34.5t-25.5 19t-31.5 7t-35.5 1.5h-26z" />
    <glyph glyph-name="Q" unicode="Q" horiz-adv-x="924" 
d="M809 147l111 -123l-215 -90l-53 92q-87 -38 -205 -38q-173 0 -287 108t-114 279q0 176 120 283.5t296 107.5q183 0 299.5 -105t116.5 -286q0 -131 -69 -228zM487 233l-63 70l170 32q8 23 8 42q0 63 -39.5 105t-100.5 42q-65 0 -102.5 -40.5t-37.5 -103.5
q0 -61 37.5 -105.5t96.5 -44.5q21 0 31 3z" />
    <glyph glyph-name="R" unicode="R" horiz-adv-x="757" 
d="M62 0v754h331q139 0 226.5 -64t87.5 -198q0 -83 -33.5 -126.5t-112.5 -69.5v-6q33 -26 46 -45l164 -245h-316l-120 242h-5v-242h-268zM330 548v-128h19q42 0 66 12.5t24 50.5q0 40 -23 52.5t-65 12.5h-21z" />
    <glyph glyph-name="S" unicode="S" horiz-adv-x="663" 
d="M23 57l84 213l14 -11q89 -69 171 -69q25 0 47.5 11t22.5 34q0 7 -1.5 12.5t-6.5 10t-7.5 7t-11 5t-11 3l-12.5 2.5l-11 2l-55 10q-87 15 -142 65.5t-55 134.5q0 86 48 151t121.5 96.5t157.5 31.5q130 0 239 -66l-74 -193q-84 57 -159 57q-22 0 -40.5 -9.5t-18.5 -30.5
q0 -6 1.5 -10.5t6 -8t7.5 -6t10 -4.5t10 -3t10.5 -3t9.5 -2l62 -14q200 -45 200 -216q0 -65 -28 -117.5t-74.5 -85t-104.5 -49.5t-120 -17q-154 0 -290 69z" />
    <glyph glyph-name="T" unicode="T" horiz-adv-x="596" 
d="M10 509v245h576v-245l-151 7v-516h-274v516z" />
    <glyph glyph-name="U" unicode="U" horiz-adv-x="815" 
d="M482 754h274v-446q0 -160 -92.5 -240t-256.5 -80t-256.5 80t-92.5 240v446h274v-420q0 -28 1.5 -43.5t8.5 -33.5t23 -26t42 -8t42 8t23 26t8.5 33.5t1.5 43.5v420z" />
    <glyph glyph-name="V" unicode="V" horiz-adv-x="814" 
d="M529 754h286l-292 -754h-232l-292 754h286l100 -343q19 -64 19 -112h6q0 48 19 112z" />
    <glyph glyph-name="W" unicode="W" horiz-adv-x="1183" 
d="M-2 754h284l95 -450h6q10 89 23 139l80 311h210l103 -450h6q8 84 19 133l76 317h285l-266 -754h-239l-86 410h-9q-6 -83 -14 -114l-76 -296h-233z" />
    <glyph glyph-name="X" unicode="X" horiz-adv-x="831" 
d="M493 754h309l-236 -353l269 -401h-312l-86 160q-11 21 -16 46h-8q-7 -26 -21 -52l-84 -154h-312l264 401l-237 353h309l56 -107q11 -20 23 -62h6q6 26 24 62z" />
    <glyph glyph-name="Y" unicode="Y" horiz-adv-x="773" 
d="M-8 754h310l84 -197h8q19 58 25 71l54 126h308l-258 -429v-325h-268v325z" />
    <glyph glyph-name="Z" unicode="Z" horiz-adv-x="771" 
d="M67 754h702l-328 -521l3 -4q42 4 64 4h228v-233h-734l272 441q18 30 67 91l-4 3q-38 -9 -65 -9h-205v228z" />
    <glyph glyph-name="bracketleft" unicode="[" horiz-adv-x="470" 
d="M279 -53h131v-102h-350v966h350v-102h-131v-762z" />
    <glyph glyph-name="backslash" unicode="\" horiz-adv-x="728" 
d="M710 0h-149l-543 811h148z" />
    <glyph glyph-name="bracketright" unicode="]" horiz-adv-x="470" 
d="M60 -53h131v762h-131v102h350v-966h-350v102z" />
    <glyph glyph-name="asciicircum" unicode="^" horiz-adv-x="800" 
d="M278 754h244l178 -542h-208l-91 274h-2l-91 -274h-208z" />
    <glyph glyph-name="underscore" unicode="_" horiz-adv-x="500" 
d="M500 -125h-500v50h500v-50z" />
    <glyph glyph-name="grave" unicode="`" horiz-adv-x="420" 
d="M82 703l125 83l131 -165l-91 -62z" />
    <glyph glyph-name="a" unicode="a" horiz-adv-x="720" 
d="M288 268q0 -34 17 -56t50 -22q34 0 51.5 23t17.5 57q0 31 -19 51t-50 20q-30 0 -48.5 -21.5t-18.5 -51.5zM416 0l8 70h-6q-39 -42 -75 -62t-87 -20q-69 0 -121.5 42.5t-77.5 104t-25 128.5q0 109 62.5 194.5t168.5 85.5q100 0 155 -75h6l-8 63h253v-531h-253z" />
    <glyph glyph-name="b" unicode="b" horiz-adv-x="720" 
d="M365 341q-31 0 -48.5 -22t-17.5 -53q0 -32 17.5 -54t48.5 -22q29 0 48 24.5t19 53.5t-19.5 51t-47.5 22zM50 0v811h258v-224l-12 -127h9q27 37 71 60t89 23q71 0 123 -44t75 -106.5t23 -131.5q0 -105 -59.5 -189t-160.5 -84t-173 91h-6l5 -79h-242z" />
    <glyph glyph-name="c" unicode="c" horiz-adv-x="514" 
d="M466 516v-215q-52 44 -95 44q-36 0 -58.5 -21.5t-22.5 -57.5q0 -32 22 -54t54 -22q41 0 100 41l-11 -218q-77 -25 -130 -25q-133 0 -214 72.5t-81 202.5q0 119 78 199.5t196 80.5q79 0 162 -27z" />
    <glyph glyph-name="d" unicode="d" horiz-adv-x="720" 
d="M354 341q-31 0 -48.5 -22t-17.5 -53q0 -32 17.5 -54t48.5 -22q29 0 48 24.5t19 53.5t-19.5 51t-47.5 22zM428 0l5 79h-6q-72 -91 -173 -91t-160.5 84t-59.5 189q0 69 23 131.5t75 106.5t123 44q45 0 89 -23t71 -60h9l-12 127v224h258v-811h-242z" />
    <glyph glyph-name="e" unicode="e" horiz-adv-x="698" 
d="M664 222h-375q0 -91 61 -91q20 0 34 12.5t18 31.5h251q-24 -90 -111 -138.5t-188 -48.5q-135 0 -227.5 69.5t-92.5 199.5q0 129 87.5 207.5t217.5 78.5q146 0 240 -88t85 -233zM289 332h121q0 28 -18 48.5t-45 20.5q-28 0 -43 -19.5t-15 -49.5z" />
    <glyph glyph-name="f" unicode="f" horiz-adv-x="430" 
d="M75 522v56q0 241 230 241q37 0 113 -12v-205q-23 9 -35 9q-54 0 -54 -71v-20l87 11v-207l-83 7v-331h-258v331l-70 -7v207z" />
    <glyph glyph-name="g" unicode="g" horiz-adv-x="722" 
d="M288 265q0 -33 20 -54t53 -21q31 0 48 21t17 53t-18 54.5t-49 22.5t-51 -22t-20 -54zM667 531v-500q0 -75 -29 -132.5t-79.5 -91t-112.5 -50.5t-134 -17q-114 0 -228 42l-26 9l57 179q36 -31 86.5 -48t99.5 -17q51 0 82 33t36 84l5 54h-7q-19 -41 -63 -64.5t-93 -23.5
q-69 0 -122.5 42.5t-79.5 105t-26 130.5q0 107 62.5 192t166.5 85q100 0 155 -88h7l-7 76h250z" />
    <glyph glyph-name="h" unicode="h" horiz-adv-x="699" 
d="M50 0v811h258v-224l-12 -147h4q42 50 81 76.5t90 26.5q93 0 136 -60.5t43 -156.5v-326h-252v274q0 63 -41 63q-49 0 -49 -63v-274h-258z" />
    <glyph glyph-name="i" unicode="i" horiz-adv-x="392" 
d="M67 0v531h258v-531h-258zM196 819q62 0 102 -33.5t40 -90.5q0 -62 -41 -93.5t-101 -31.5t-101 31.5t-41 93.5q0 57 40 90.5t102 33.5z" />
    <glyph glyph-name="j" unicode="j" horiz-adv-x="392" 
d="M67 -219v750h258v-750h-258zM196 819q62 0 102 -33.5t40 -90.5q0 -62 -41 -93.5t-101 -31.5t-101 31.5t-41 93.5q0 57 40 90.5t102 33.5z" />
    <glyph glyph-name="k" unicode="k" horiz-adv-x="742" 
d="M52 0v811h258v-477h6l21 45l80 152h301l-195 -260l205 -271h-304l-108 195h-6v-195h-258z" />
    <glyph glyph-name="l" unicode="l" horiz-adv-x="373" 
d="M57 0v811h258v-811h-258z" />
    <glyph glyph-name="m" unicode="m" horiz-adv-x="1011" 
d="M300 531l-8 -94h8q15 48 58.5 77t95.5 29q116 0 152 -113h6q46 113 161 113q90 0 136.5 -60t46.5 -153v-330h-250v263q0 22 -1 33.5t-10 24.5t-27 13q-13 0 -21 -6t-11.5 -18.5t-4 -21.5t-0.5 -25v-263h-250v263q0 22 -1 33.5t-10 24.5t-27 13q-13 0 -21 -6t-11.5 -18.5
t-4 -21.5t-0.5 -25v-263h-250v531h244z" />
    <glyph glyph-name="n" unicode="n" horiz-adv-x="703" 
d="M302 531l-10 -85h6q45 52 79.5 74.5t91.5 22.5q93 0 138.5 -60.5t45.5 -155.5v-327h-258v259q0 16 -1 25.5t-4.5 23t-13 20t-25.5 6.5q-15 0 -24.5 -6.5t-13 -20t-4.5 -23t-1 -25.5v-259h-258v531h252z" />
    <glyph glyph-name="o" unicode="o" horiz-adv-x="714" 
d="M357 543q138 0 230 -75t92 -209q0 -126 -95 -198.5t-227 -72.5t-227 72.5t-95 198.5q0 134 92 209t230 75zM357 341q-32 0 -52 -22.5t-20 -55.5q0 -31 21 -52t51 -21t51 21t21 52q0 33 -20 55.5t-52 22.5z" />
    <glyph glyph-name="p" unicode="p" horiz-adv-x="716" 
d="M363 341q-31 0 -48.5 -22t-17.5 -53q0 -32 17.5 -54t48.5 -22q29 0 48 24.5t19 53.5t-19.5 51t-47.5 22zM297 531l-8 -84h8q21 44 67.5 70t98.5 26q105 0 163 -82t58 -191q0 -65 -24.5 -128.5t-77 -108.5t-121.5 -45q-45 0 -90.5 23.5t-66.5 61.5h-7l12 -85v-207h-258
v750h246z" />
    <glyph glyph-name="q" unicode="q" horiz-adv-x="716" 
d="M352 340q-31 0 -48.5 -22t-17.5 -53q0 -32 17.5 -54t48.5 -22q29 0 48 24.5t19 53.5t-19.5 51t-47.5 22zM665 531v-750h-258v207l12 85h-7q-21 -38 -66.5 -61.5t-90.5 -23.5q-69 0 -121.5 45t-77 108.5t-24.5 128.5q0 109 58 191t163 82q52 0 98.5 -26t67.5 -70h8l-8 84
h246z" />
    <glyph glyph-name="r" unicode="r" horiz-adv-x="495" 
d="M487 543v-262q-2 1 -8 4.5t-7.5 4.5t-7 4t-7.5 4l-7 3.5t-8 3t-7.5 2t-8.5 2t-8.5 1t-9.5 0.5q-50 0 -75.5 -28t-25.5 -78v-204h-258v531h258l-6 -71h6q33 51 72.5 68t107.5 15z" />
    <glyph glyph-name="s" unicode="s" horiz-adv-x="533" 
d="M9 47l66 160l16 -10q80 -49 132 -49q15 0 26.5 7.5t11.5 21.5q0 5 -1.5 9.5t-3.5 7.5t-6 5.5t-6.5 4t-9 2.5t-8.5 1.5t-9 1.5t-8 1q-166 23 -166 147q0 48 22.5 85t59 58.5t79 32t87.5 10.5q124 0 206 -45l-63 -147q-60 44 -119 44q-37 0 -37 -24q0 -11 7 -17.5
t19.5 -9.5t28.5 -6q6 0 9 -1q80 -13 123.5 -46.5t43.5 -107.5q0 -50 -23 -88.5t-61 -61t-82 -34t-91 -11.5q-105 0 -243 59z" />
    <glyph glyph-name="t" unicode="t" horiz-adv-x="433" 
d="M344 702v-178l86 4v-203l-86 5v-330h-260v330l-63 -5v203l63 -4v178h260z" />
    <glyph glyph-name="u" unicode="u" horiz-adv-x="697" 
d="M49 531h256v-274q0 -20 2 -31.5t12 -22t30 -10.5t30 10.5t12 22t2 31.5v274h256v-300q0 -61 -25 -108.5t-67.5 -76.5t-95.5 -43.5t-112 -14.5t-112 14.5t-95.5 43.5t-67.5 76.5t-25 108.5v300z" />
    <glyph glyph-name="v" unicode="v" horiz-adv-x="686" 
d="M-6 531h277l69 -251h7l13 65l55 186h277l-231 -531h-234z" />
    <glyph glyph-name="w" unicode="w" horiz-adv-x="949" 
d="M-15 531h272l61 -295h8l13 88l51 207h169l69 -295h6l13 88l46 207h271l-218 -531h-208l-58 236h-7l-13 -56l-49 -180h-211z" />
    <glyph glyph-name="x" unicode="x" horiz-adv-x="737" 
d="M22 531h296l33 -66l17 -45h5l20 45l32 66h296l-201 -255l216 -276h-303l-42 75l-18 42h-5l-16 -42l-41 -75h-311l223 276z" />
    <glyph glyph-name="y" unicode="y" horiz-adv-x="658" 
d="M-22 531h278l59 -208l15 -81h7l13 81l59 208h271l-340 -750h-272l137 272z" />
    <glyph glyph-name="z" unicode="z" horiz-adv-x="605" 
d="M589 501l-158 -234l-55 -67v-6l53 6h147v-200h-560v36l157 238l53 60v4l-59 -7h-125v200h547v-30z" />
    <glyph glyph-name="braceleft" unicode="{" horiz-adv-x="470" 
d="M55 236v122q17 9 25.5 14t21 16.5t18 26.5t5.5 36v207q0 78 51 115.5t142 37.5h97v-140h-25q-16 0 -26.5 -5t-14 -15.5t-4.5 -18t-1 -21.5v-166q0 -30 -8 -54t-24.5 -42t-29 -27.5t-34.5 -23.5v-2q22 -14 34.5 -23.5t29 -27.5t24.5 -42t8 -55v-166q0 -19 1.5 -29.5
t12.5 -21t32 -10.5h25v-140h-97q-91 0 -142 38t-51 117v206q0 27 -12 47t-24 27.5t-34 19.5z" />
    <glyph glyph-name="bar" unicode="|" horiz-adv-x="728" 
d="M264 -214v1000h200v-1000h-200z" />
    <glyph glyph-name="braceright" unicode="}" horiz-adv-x="470" 
d="M415 358v-122q-22 -12 -34 -19.5t-24 -27.5t-12 -47v-206q0 -79 -51 -117t-142 -38h-97v140h25q21 0 32 10.5t12.5 21t1.5 29.5v166q0 31 8 55t24.5 42t29 27.5t34.5 23.5v2q-22 14 -34.5 23.5t-29 27.5t-24.5 42t-8 54v166q0 14 -1 21.5t-4.5 18t-14 15.5t-26.5 5h-25
v140h97q91 0 142 -37.5t51 -115.5v-207q0 -21 5.5 -36t18 -26.5t21 -16.5t25.5 -14z" />
    <glyph glyph-name="asciitilde" unicode="~" horiz-adv-x="800" 
d="M590 440l110 -128q-25 -47 -80 -105t-104 -58q-64 0 -138 57q-57 44 -100 44q-17 0 -39 -21t-33 -45l-106 124q16 47 69.5 95.5t109.5 48.5q41 0 129 -54q5 -3 18 -11.5t20 -13t18.5 -10.5t23 -8.5t22.5 -2.5q20 0 42.5 27.5t37.5 60.5z" />
    <glyph glyph-name="uni00A0" unicode="&#xa0;" horiz-adv-x="416" 
 />
    <glyph glyph-name="exclamdown" unicode="&#xa1;" horiz-adv-x="462" 
d="M361 296v-515h-264v515h264zM229 608q59 0 104 -35t45 -92q0 -56 -45 -90t-104 -34t-104 34t-45 90q0 57 45 92t104 35z" />
    <glyph glyph-name="cent" unicode="&#xa2;" 
d="M511 657l114 -21l6 -211q-56 40 -97 40q-33 0 -54.5 -20t-21.5 -52q0 -34 21 -55t55 -21q50 0 97 41l-3 -211q-76 -22 -117 -24l5 -109h-85l6 109q-107 8 -171.5 83.5t-64.5 184.5q0 104 66.5 178t169.5 88l-5 97h84z" />
    <glyph glyph-name="sterling" unicode="&#xa3;" 
d="M282 413l-8 57q-9 49 -9 82q0 102 71 158t176 56q101 0 162.5 -49t62.5 -147l-170 -34q0 31 -8.5 47.5t-35.5 16.5q-23 0 -35.5 -19.5t-12.5 -43.5q0 -7 5 -47q0 -4 3.5 -25.5t3.5 -32.5v-19l149 8v-141l-154 9l-3 -15q-6 -45 -32 -91l32 -9q44 -16 77 -16q51 0 99 38
l74 -137q-123 -74 -220 -74q-50 0 -114 18l-59 16q-27 7 -49 7q-34 0 -109 -29l-24 -9l-58 154q108 49 157 54l30 92l-96 -8v141z" />
    <glyph glyph-name="currency" unicode="&#xa4;" 
d="M107 154l69 70q-52 68 -52 168q0 111 52 173l-69 71l65 66l71 -70q72 54 176 54q103 0 168 -54l71 70l64 -65l-64 -67q56 -76 56 -176q0 -103 -58 -169l68 -70l-62 -67l-71 68q-65 -56 -172 -56q-109 0 -177 57l-70 -68zM419 516q-55 0 -90 -36t-35 -91t35 -87t90 -32
t90 32t35 87t-35 91t-90 36z" />
    <glyph glyph-name="yen" unicode="&#xa5;" 
d="M553 148v-148h-268v148h-203v140h203v37l-23 37h-180v140h94l-154 252h310l84 -197h8q19 58 25 71l54 126h308l-152 -252h92v-140h-176l-22 -37v-37h198v-140h-198z" />
    <glyph glyph-name="brokenbar" unicode="&#xa6;" horiz-adv-x="728" 
d="M264 -89v250h200v-250h-200zM264 411v250h200v-250h-200z" />
    <glyph glyph-name="section" unicode="&#xa7;" 
d="M320 300l211 -95q19 38 19 50q0 11 -6.5 19t-11 10.5t-18.5 9.5l-216 102q-21 -42 -21 -55q0 -5 1 -9t4.5 -8t5.5 -6.5t7.5 -5.5t7.5 -4t9 -4t8 -4zM156 31h180q-1 -33 21 -51t56 -18q27 0 46.5 12t19.5 38q0 6 -1.5 11t-4.5 10t-6 8.5t-9 7.5t-9 6.5t-10.5 6t-10 4.5
t-10.5 4.5t-9 3.5l-115 48q-98 41 -133 69q-62 49 -62 124q0 54 31 96t82 65q-37 45 -37 99q0 63 39 108t93.5 64t116.5 19q108 0 178 -55t76 -160h-180q1 31 -18 50t-50 19q-24 0 -40.5 -12t-16.5 -35q0 -9 4.5 -17t9.5 -13.5t15.5 -11t16 -8t18 -7t15.5 -5.5l120 -49
q78 -31 119 -69.5t42 -109.5q0 -57 -24 -90t-78 -67q26 -32 36 -56.5t11 -63.5q0 -103 -75 -155.5t-182 -52.5q-120 0 -194 58.5t-71 174.5z" />
    <glyph glyph-name="dieresis" unicode="&#xa8;" horiz-adv-x="620" 
d="M189 746q35 0 59 -24t24 -59t-24 -59t-59 -24t-59 24t-24 59t24 59t59 24zM432 746q34 0 58.5 -24t24.5 -59t-24.5 -59t-58.5 -24t-58.5 24t-24.5 59t24.5 59t58.5 24z" />
    <glyph glyph-name="copyright" unicode="&#xa9;" horiz-adv-x="800" 
d="M400 -15q-163 0 -277 114t-114 277q0 162 114 276t277 114t277 -114t114 -276q0 -163 -114 -277t-277 -114zM400 87q127 0 208 80t81 209t-81 208.5t-208 79.5q-128 0 -208.5 -79t-80.5 -209t80.5 -209.5t208.5 -79.5zM599 457h-93q-12 70 -93 70q-55 0 -83 -41.5
t-28 -104.5q0 -60 30.5 -104.5t83.5 -44.5q37 0 62.5 19.5t27.5 54.5h93q-8 -69 -60.5 -110.5t-122.5 -41.5q-96 0 -156 64.5t-60 160.5q0 99 58 162.5t156 63.5q71 0 121.5 -40t63.5 -108z" />
    <glyph glyph-name="ordfeminine" unicode="&#xaa;" horiz-adv-x="420" 
d="M170 599q0 -18 11.5 -31t30.5 -13q20 0 33 13.5t13 31.5q0 19 -12.5 30.5t-32.5 11.5q-19 0 -31 -12.5t-12 -30.5zM417 757v-317h-164l5 40h-4q-49 -49 -105 -49q-66 0 -106 51t-40 114q0 66 41 118t110 52q64 0 100 -47h4l-5 38h164z" />
    <glyph glyph-name="guillemotleft" unicode="&#xab;" horiz-adv-x="572" 
d="M305 104l-96 -65l-161 236l161 228l96 -70l-109 -158zM524 104l-96 -65l-161 236l161 228l96 -70l-109 -158z" />
    <glyph glyph-name="logicalnot" unicode="&#xac;" horiz-adv-x="800" 
d="M100 312v200h600v-371h-200v171h-400z" />
    <glyph glyph-name="uni00AD" unicode="&#xad;" horiz-adv-x="485" 
d="M64 165v220h357v-220h-357z" />
    <glyph glyph-name="registered" unicode="&#xae;" horiz-adv-x="800" 
d="M400 -15q-163 0 -277 114t-114 277q0 162 114 276t277 114t277 -114t114 -276q0 -163 -114 -277t-277 -114zM400 87q127 0 208 80t81 209t-81 208.5t-208 79.5q-128 0 -208.5 -79t-80.5 -209t80.5 -209.5t208.5 -79.5zM483 345l99 -173h-101l-91 173h-66v-173h-86v409
h198q69 0 104 -28t35 -97q0 -50 -25.5 -78.5t-66.5 -32.5zM324 423h93q28 0 41.5 1.5t26 11.5t12.5 31q0 17 -12.5 25.5t-26 9.5t-41.5 1h-93v-80z" />
    <glyph glyph-name="macron" unicode="&#xaf;" horiz-adv-x="600" 
d="M123 608v98h355v-98h-355z" />
    <glyph glyph-name="degree" unicode="&#xb0;" horiz-adv-x="500" 
d="M249 754q71 0 122.5 -51t51.5 -123q0 -70 -51.5 -120.5t-122.5 -50.5q-72 0 -121.5 50t-49.5 121q-2 72 48.5 123t122.5 51zM249 656q-31 0 -52.5 -22t-20.5 -52q0 -31 21.5 -53t52.5 -22t53 22t22 53q0 30 -22 52t-54 22z" />
    <glyph glyph-name="plusminus" unicode="&#xb1;" horiz-adv-x="800" 
d="M300 556v101h200v-101h200v-200h-200v-101h-200v101h-200v200h200zM100 0v200h600v-200h-600z" />
    <glyph glyph-name="twosuperior" unicode="&#xb2;" horiz-adv-x="500" 
d="M7 306l196 161q108 90 108 129q0 15 -11.5 25.5t-28.5 10.5q-42 0 -44 -57h-174q10 100 62 145.5t162 45.5q83 0 146.5 -43t63.5 -117q0 -63 -49.5 -107t-122.5 -65v-5l84 11l95 6v-140h-487z" />
    <glyph glyph-name="threesuperior" unicode="&#xb3;" horiz-adv-x="500" 
d="M23 465h179q-1 -21 14 -36t37 -15q19 0 33.5 12t14.5 29t-13.5 29.5t-31.5 12.5q-8 0 -24 -2v94l14 -1q15 -1 26 8.5t11 23.5t-9.5 22t-24.5 8t-24 -10.5t-7 -24.5h-176q15 151 212 151q33 0 67 -7.5t65 -22t50.5 -40.5t19.5 -60q0 -28 -16.5 -52t-43.5 -35v-4
q38 -9 59.5 -37t21.5 -65q0 -51 -36.5 -85.5t-84 -46.5t-101.5 -12q-99 0 -163.5 39.5t-68.5 126.5z" />
    <glyph glyph-name="acute" unicode="&#xb4;" horiz-adv-x="420" 
d="M213 786l125 -83l-165 -144l-91 62z" />
    <glyph glyph-name="mu" unicode="&#xb5;" horiz-adv-x="697" 
d="M49 528h256v-274q0 -20 2 -31.5t12 -22t30 -10.5t30 10.5t12 22t2 31.5v274h256v-300q0 -60 -24.5 -108t-64.5 -76.5t-86.5 -43.5t-94.5 -15q-47 0 -104 19l30 -223h-256v747z" />
    <glyph glyph-name="paragraph" unicode="&#xb6;" 
d="M311 754h466v-190h-66v-783h-190v783h-54v-783h-190v450q-85 9 -149 70t-72 159q-10 125 63.5 209.5t191.5 84.5z" />
    <glyph glyph-name="periodcentered" unicode="&#xb7;" horiz-adv-x="416" 
d="M208 430q53 0 91.5 -38.5t38.5 -91.5t-38.5 -91.5t-91.5 -38.5t-91.5 38.5t-38.5 91.5t38.5 91.5t91.5 38.5z" />
    <glyph glyph-name="cedilla" unicode="&#xb8;" horiz-adv-x="420" 
d="M184 -249l-101 88l159 146l96 -82z" />
    <glyph glyph-name="onesuperior" unicode="&#xb9;" horiz-adv-x="500" 
d="M124 608v143l252 7v-452h-177v307z" />
    <glyph glyph-name="ordmasculine" unicode="&#xba;" horiz-adv-x="420" 
d="M210 766q90 0 149.5 -45t59.5 -126q0 -76 -61.5 -120t-147.5 -44t-147.5 44t-61.5 120q0 81 59.5 126t149.5 45zM210 642q-21 0 -34 -13t-13 -33q0 -18 13.5 -29.5t33.5 -11.5t33.5 11.5t13.5 29.5q0 20 -13 33t-34 13z" />
    <glyph glyph-name="guillemotright" unicode="&#xbb;" horiz-adv-x="572" 
d="M363 39l-96 65l109 171l-109 158l96 70l161 -228zM144 39l-96 65l109 171l-109 158l96 70l161 -228z" />
    <glyph glyph-name="onequarter" unicode="&#xbc;" horiz-adv-x="1248" 
d="M901 279l-63 -72v-2l86 4v68q0 18 8 37l-4 2q-10 -18 -27 -37zM1081 91l5 -91h-169l7 91l-249 -5v119l200 247h211v-243l62 4v-127zM285 0l517 754h109l-514 -754h-112zM100 608v143l252 7v-452h-177v307z" />
    <glyph glyph-name="onehalf" unicode="&#xbd;" horiz-adv-x="1248" 
d="M100 608v143l252 7v-452h-177v307zM661 0l196 161q108 90 108 129q0 15 -11.5 25.5t-28.5 10.5q-42 0 -44 -57h-174q10 100 62 145.5t162 45.5q83 0 146.5 -43t63.5 -117q0 -63 -49.5 -107t-122.5 -65v-5l84 11l95 6v-140h-487zM258 0l517 754h108l-514 -754h-111z" />
    <glyph glyph-name="threequarters" unicode="&#xbe;" horiz-adv-x="1248" 
d="M901 279l-63 -72v-2l86 4v68q0 18 8 37l-4 2q-10 -18 -27 -37zM1081 91l5 -91h-169l7 91l-249 -5v119l200 247h211v-243l62 4v-127zM343 0l517 754h109l-514 -754h-112zM100 465h179q-1 -21 14 -36t37 -15q19 0 33.5 12t14.5 29t-13.5 29.5t-31.5 12.5q-8 0 -24 -2v94
l14 -1q15 -1 26 8.5t11 23.5t-9.5 22t-24.5 8t-24 -10.5t-7 -24.5h-176q15 151 212 151q33 0 67 -7.5t65 -22t50.5 -40.5t19.5 -60q0 -28 -16.5 -52t-43.5 -35v-4q38 -9 59.5 -37t21.5 -65q0 -51 -36.5 -85.5t-84 -46.5t-101.5 -12q-99 0 -163.5 39.5t-68.5 126.5z" />
    <glyph glyph-name="questiondown" unicode="&#xbf;" horiz-adv-x="697" 
d="M431 299v-194q-34 10 -51 10q-38 0 -63.5 -21t-25.5 -58q0 -22 13 -36t35 -14q23 0 37 19.5t15 44.5h257q-4 -120 -92 -195.5t-210 -75.5q-131 0 -217.5 72.5t-86.5 200.5q0 86 44 145t111.5 85t151.5 26q41 0 82 -9zM343 608q59 0 104 -35t45 -92q0 -56 -45 -90
t-104 -34t-104 34t-45 90q0 57 45 92t104 35z" />
    <glyph glyph-name="Agrave" unicode="&#xc0;" horiz-adv-x="823" 
d="M306 94l-22 -94h-290l262 754h303l269 -754h-290l-25 94h-207zM355 273h110l-32 133q-8 30 -18 97h-10zM284 926l125 83l131 -165l-91 -62z" />
    <glyph glyph-name="Aacute" unicode="&#xc1;" horiz-adv-x="823" 
d="M306 94l-22 -94h-290l262 754h303l269 -754h-290l-25 94h-207zM355 273h110l-32 133q-8 30 -18 97h-10zM415 1009l125 -83l-165 -144l-91 62z" />
    <glyph glyph-name="Acircumflex" unicode="&#xc2;" horiz-adv-x="823" 
d="M306 94l-22 -94h-290l262 754h303l269 -754h-290l-25 94h-207zM355 273h110l-32 133q-8 30 -18 97h-10zM262 792l-48 102l200 115l197 -115l-47 -102l-150 73z" />
    <glyph glyph-name="Atilde" unicode="&#xc3;" horiz-adv-x="823" 
d="M306 94l-22 -94h-290l262 754h303l269 -754h-290l-25 94h-207zM355 273h110l-32 133q-8 30 -18 97h-10zM295 803l-85 58q62 103 141 103q28 0 67 -22q41 -23 56 -23q27 0 49 46l91 -50q-57 -111 -134 -111q-25 0 -56 13l-45 20q-27 12 -36 12q-26 0 -48 -46z" />
    <glyph glyph-name="Adieresis" unicode="&#xc4;" horiz-adv-x="823" 
d="M306 94l-22 -94h-290l262 754h303l269 -754h-290l-25 94h-207zM355 273h110l-32 133q-8 30 -18 97h-10zM291 969q35 0 59 -24.5t24 -58.5t-24 -58.5t-59 -24.5t-59 24.5t-24 58.5t24 58.5t59 24.5zM534 969q34 0 58.5 -24.5t24.5 -58.5t-24.5 -58.5t-58.5 -24.5
t-58.5 24.5t-24.5 58.5t24.5 58.5t58.5 24.5z" />
    <glyph glyph-name="Aring" unicode="&#xc5;" horiz-adv-x="823" 
d="M306 94l-22 -94h-290l262 754h303l269 -754h-290l-25 94h-207zM355 273h110l-32 133q-8 30 -18 97h-10zM412 999q64 0 109 -28t45 -88t-45 -87t-109 -27t-109 27t-45 87t45 88t109 28zM412 927q-24 0 -41.5 -10.5t-17.5 -32.5t17.5 -32.5t41.5 -10.5t41.5 10.5t17.5 32.5
t-17.5 32.5t-41.5 10.5z" />
    <glyph glyph-name="AE" unicode="&#xc6;" horiz-adv-x="1060" 
d="M355 273h112l-42 154q-7 25 -11 75h-8q-6 -57 -14 -87zM539 0l-26 96h-205l-24 -96h-288l263 754h530l70 -206h-225l24 -72h226l69 -196h-223l25 -74h226l72 -206h-514z" />
    <glyph glyph-name="Ccedilla" unicode="&#xc7;" horiz-adv-x="656" 
d="M613 735l8 -287q-82 76 -161 76q-62 0 -105.5 -43t-43.5 -104q0 -62 45.5 -104.5t107.5 -42.5q85 0 157 70l-8 -282q-30 -14 -90 -22t-105 -8q-161 0 -272 110.5t-111 271.5q0 165 114.5 280.5t279.5 115.5q94 0 184 -31zM302 -249l-101 88l159 146l96 -82z" />
    <glyph glyph-name="Egrave" unicode="&#xc8;" horiz-adv-x="624" 
d="M58 0v754h507v-206h-231v-72h211v-196h-211v-74h239v-206h-515zM184 926l125 83l131 -165l-91 -62z" />
    <glyph glyph-name="Eacute" unicode="&#xc9;" horiz-adv-x="624" 
d="M58 0v754h507v-206h-231v-72h211v-196h-211v-74h239v-206h-515zM315 1009l125 -83l-165 -144l-91 62z" />
    <glyph glyph-name="Ecircumflex" unicode="&#xca;" horiz-adv-x="624" 
d="M58 0v754h507v-206h-231v-72h211v-196h-211v-74h239v-206h-515zM162 792l-48 102l200 115l197 -115l-47 -102l-150 73z" />
    <glyph glyph-name="Edieresis" unicode="&#xcb;" horiz-adv-x="624" 
d="M58 0v754h507v-206h-231v-72h211v-196h-211v-74h239v-206h-515zM191 969q35 0 59 -24.5t24 -58.5t-24 -58.5t-59 -24.5t-59 24.5t-24 58.5t24 58.5t59 24.5zM434 969q34 0 58.5 -24.5t24.5 -58.5t-24.5 -58.5t-58.5 -24.5t-58.5 24.5t-24.5 58.5t24.5 58.5t58.5 24.5z
" />
    <glyph glyph-name="Igrave" unicode="&#xcc;" horiz-adv-x="403" 
d="M64 0v754h274v-754h-274zM58 926l125 83l131 -165l-91 -62z" />
    <glyph glyph-name="Iacute" unicode="&#xcd;" horiz-adv-x="403" 
d="M64 0v754h274v-754h-274zM220 1009l125 -83l-165 -144l-91 62z" />
    <glyph glyph-name="Icircumflex" unicode="&#xce;" horiz-adv-x="403" 
d="M64 0v754h274v-754h-274zM52 792l-48 102l200 115l197 -115l-47 -102l-150 73z" />
    <glyph glyph-name="Idieresis" unicode="&#xcf;" horiz-adv-x="403" 
d="M64 0v754h274v-754h-274zM81 969q35 0 59 -24.5t24 -58.5t-24 -58.5t-59 -24.5t-59 24.5t-24 58.5t24 58.5t59 24.5zM324 969q34 0 58.5 -24.5t24.5 -58.5t-24.5 -58.5t-58.5 -24.5t-58.5 24.5t-24.5 58.5t24.5 58.5t58.5 24.5z" />
    <glyph glyph-name="Eth" unicode="&#xd0;" horiz-adv-x="827" 
d="M64 0v320h-60v107h60v327h279q97 0 177 -22t141 -67.5t95 -121.5t34 -177q0 -166 -105.5 -266t-273.5 -100h-347zM338 518v-91h70v-107h-70v-94h17q72 0 116.5 35t44.5 106q0 151 -161 151h-17z" />
    <glyph glyph-name="Ntilde" unicode="&#xd1;" horiz-adv-x="872" 
d="M58 0v754h263l246 -418h8q-23 132 -23 192v226h262v-754h-262l-241 396h-8q17 -98 17 -151v-245h-262zM319 803l-85 58q62 103 141 103q28 0 67 -22q41 -23 56 -23q27 0 49 46l91 -50q-57 -111 -134 -111q-25 0 -56 13l-45 20q-27 12 -36 12q-26 0 -48 -46z" />
    <glyph glyph-name="Ograve" unicode="&#xd2;" horiz-adv-x="904" 
d="M452 766q176 0 296.5 -108.5t120.5 -282.5q0 -177 -119.5 -282t-297.5 -105t-297.5 105t-119.5 282q0 174 120.5 282.5t296.5 108.5zM452 518q-63 0 -102 -42.5t-39 -104.5q0 -64 39.5 -104.5t101.5 -40.5t101.5 40.5t39.5 104.5q0 62 -39 104.5t-102 42.5zM324 926
l125 83l131 -165l-91 -62z" />
    <glyph glyph-name="Oacute" unicode="&#xd3;" horiz-adv-x="904" 
d="M452 766q176 0 296.5 -108.5t120.5 -282.5q0 -177 -119.5 -282t-297.5 -105t-297.5 105t-119.5 282q0 174 120.5 282.5t296.5 108.5zM452 518q-63 0 -102 -42.5t-39 -104.5q0 -64 39.5 -104.5t101.5 -40.5t101.5 40.5t39.5 104.5q0 62 -39 104.5t-102 42.5zM455 1009
l125 -83l-165 -144l-91 62z" />
    <glyph glyph-name="Ocircumflex" unicode="&#xd4;" horiz-adv-x="904" 
d="M452 766q176 0 296.5 -108.5t120.5 -282.5q0 -177 -119.5 -282t-297.5 -105t-297.5 105t-119.5 282q0 174 120.5 282.5t296.5 108.5zM452 518q-63 0 -102 -42.5t-39 -104.5q0 -64 39.5 -104.5t101.5 -40.5t101.5 40.5t39.5 104.5q0 62 -39 104.5t-102 42.5zM302 792
l-48 102l200 115l197 -115l-47 -102l-150 73z" />
    <glyph glyph-name="Otilde" unicode="&#xd5;" horiz-adv-x="904" 
d="M452 766q176 0 296.5 -108.5t120.5 -282.5q0 -177 -119.5 -282t-297.5 -105t-297.5 105t-119.5 282q0 174 120.5 282.5t296.5 108.5zM452 518q-63 0 -102 -42.5t-39 -104.5q0 -64 39.5 -104.5t101.5 -40.5t101.5 40.5t39.5 104.5q0 62 -39 104.5t-102 42.5zM335 803
l-85 58q62 103 141 103q28 0 67 -22q41 -23 56 -23q27 0 49 46l91 -50q-57 -111 -134 -111q-25 0 -56 13l-45 20q-27 12 -36 12q-26 0 -48 -46z" />
    <glyph glyph-name="Odieresis" unicode="&#xd6;" horiz-adv-x="904" 
d="M452 766q176 0 296.5 -108.5t120.5 -282.5q0 -177 -119.5 -282t-297.5 -105t-297.5 105t-119.5 282q0 174 120.5 282.5t296.5 108.5zM452 518q-63 0 -102 -42.5t-39 -104.5q0 -64 39.5 -104.5t101.5 -40.5t101.5 40.5t39.5 104.5q0 62 -39 104.5t-102 42.5zM331 969
q35 0 59 -24.5t24 -58.5t-24 -58.5t-59 -24.5t-59 24.5t-24 58.5t24 58.5t59 24.5zM574 969q34 0 58.5 -24.5t24.5 -58.5t-24.5 -58.5t-58.5 -24.5t-58.5 24.5t-24.5 58.5t24.5 58.5t58.5 24.5z" />
    <glyph glyph-name="multiply" unicode="&#xd7;" horiz-adv-x="800" 
d="M259 300l-159 159l142 141l158 -159l159 159l141 -141l-158 -159l158 -159l-141 -141l-159 159l-158 -159l-142 141z" />
    <glyph glyph-name="Oslash" unicode="&#xd8;" horiz-adv-x="904" 
d="M325 305l189 199q-26 14 -62 14q-63 0 -102 -42.5t-39 -104.5q0 -35 14 -66zM574 446l-192 -203q31 -17 70 -17q62 0 101.5 40.5t39.5 104.5q0 41 -19 75zM26 -8l112 117q-103 105 -103 266q0 174 120.5 282.5t296.5 108.5q139 0 246 -69l118 123l62 -54l-116 -122
q107 -109 107 -269q0 -177 -119.5 -282t-297.5 -105q-142 0 -248 68l-116 -122z" />
    <glyph glyph-name="Ugrave" unicode="&#xd9;" horiz-adv-x="815" 
d="M482 754h274v-446q0 -160 -92.5 -240t-256.5 -80t-256.5 80t-92.5 240v446h274v-420q0 -28 1.5 -43.5t8.5 -33.5t23 -26t42 -8t42 8t23 26t8.5 33.5t1.5 43.5v420zM260 926l125 83l131 -165l-91 -62z" />
    <glyph glyph-name="Uacute" unicode="&#xda;" horiz-adv-x="815" 
d="M482 754h274v-446q0 -160 -92.5 -240t-256.5 -80t-256.5 80t-92.5 240v446h274v-420q0 -28 1.5 -43.5t8.5 -33.5t23 -26t42 -8t42 8t23 26t8.5 33.5t1.5 43.5v420zM431 1009l125 -83l-165 -144l-91 62z" />
    <glyph glyph-name="Ucircumflex" unicode="&#xdb;" horiz-adv-x="815" 
d="M482 754h274v-446q0 -160 -92.5 -240t-256.5 -80t-256.5 80t-92.5 240v446h274v-420q0 -28 1.5 -43.5t8.5 -33.5t23 -26t42 -8t42 8t23 26t8.5 33.5t1.5 43.5v420zM258 792l-48 102l200 115l197 -115l-47 -102l-150 73z" />
    <glyph glyph-name="Udieresis" unicode="&#xdc;" horiz-adv-x="815" 
d="M482 754h274v-446q0 -160 -92.5 -240t-256.5 -80t-256.5 80t-92.5 240v446h274v-420q0 -28 1.5 -43.5t8.5 -33.5t23 -26t42 -8t42 8t23 26t8.5 33.5t1.5 43.5v420zM287 969q35 0 59 -24.5t24 -58.5t-24 -58.5t-59 -24.5t-59 24.5t-24 58.5t24 58.5t59 24.5zM530 969
q34 0 58.5 -24.5t24.5 -58.5t-24.5 -58.5t-58.5 -24.5t-58.5 24.5t-24.5 58.5t24.5 58.5t58.5 24.5z" />
    <glyph glyph-name="Yacute" unicode="&#xdd;" horiz-adv-x="773" 
d="M-8 754h310l84 -197h8q19 58 25 71l54 126h308l-258 -429v-325h-268v325zM410 1009l125 -83l-165 -144l-91 62z" />
    <glyph glyph-name="Thorn" unicode="&#xde;" horiz-adv-x="728" 
d="M326 448v-131h27q45 0 72.5 14t27.5 55q0 21 -8.5 34.5t-25.5 19t-31.5 7t-35.5 1.5h-26zM326 754v-100h83q138 0 222 -71t84 -206q0 -115 -67 -182.5t-182 -67.5h-140v-127h-264v754h264z" />
    <glyph glyph-name="germandbls" unicode="&#xdf;" horiz-adv-x="769" 
d="M312 486v-486h-258v517q0 157 70 229.5t239 72.5q72 0 133 -20t104.5 -68t43.5 -118q0 -58 -15 -92.5t-60 -62.5q71 -23 103.5 -82.5t32.5 -137.5q0 -119 -78.5 -178.5t-207.5 -59.5h-43v144q13 1 24 5t19 11.5t13.5 13t9 17.5t5.5 18t3 21t1 19v20v18q0 33 -19.5 53
t-55.5 20v142q28 0 48 14t20 39q0 50 -64 50q-20 0 -33.5 -8t-20 -17.5t-10 -27.5t-4 -28.5t-0.5 -30.5v-7z" />
    <glyph glyph-name="agrave" unicode="&#xe0;" horiz-adv-x="720" 
d="M288 268q0 -34 17 -56t50 -22q34 0 51.5 23t17.5 57q0 31 -19 51t-50 20q-30 0 -48.5 -21.5t-18.5 -51.5zM416 0l8 70h-6q-39 -42 -75 -62t-87 -20q-69 0 -121.5 42.5t-77.5 104t-25 128.5q0 109 62.5 194.5t168.5 85.5q100 0 155 -75h6l-8 63h253v-531h-253zM232 703
l125 83l131 -165l-91 -62z" />
    <glyph glyph-name="aacute" unicode="&#xe1;" horiz-adv-x="720" 
d="M288 268q0 -34 17 -56t50 -22q34 0 51.5 23t17.5 57q0 31 -19 51t-50 20q-30 0 -48.5 -21.5t-18.5 -51.5zM416 0l8 70h-6q-39 -42 -75 -62t-87 -20q-69 0 -121.5 42.5t-77.5 104t-25 128.5q0 109 62.5 194.5t168.5 85.5q100 0 155 -75h6l-8 63h253v-531h-253zM383 786
l125 -83l-165 -144l-91 62z" />
    <glyph glyph-name="acircumflex" unicode="&#xe2;" horiz-adv-x="720" 
d="M288 268q0 -34 17 -56t50 -22q34 0 51.5 23t17.5 57q0 31 -19 51t-50 20q-30 0 -48.5 -21.5t-18.5 -51.5zM416 0l8 70h-6q-39 -42 -75 -62t-87 -20q-69 0 -121.5 42.5t-77.5 104t-25 128.5q0 109 62.5 194.5t168.5 85.5q100 0 155 -75h6l-8 63h253v-531h-253zM220 569
l-48 102l200 115l197 -115l-47 -102l-150 73z" />
    <glyph glyph-name="atilde" unicode="&#xe3;" horiz-adv-x="720" 
d="M288 268q0 -34 17 -56t50 -22q34 0 51.5 23t17.5 57q0 31 -19 51t-50 20q-30 0 -48.5 -21.5t-18.5 -51.5zM416 0l8 70h-6q-39 -42 -75 -62t-87 -20q-69 0 -121.5 42.5t-77.5 104t-25 128.5q0 109 62.5 194.5t168.5 85.5q100 0 155 -75h6l-8 63h253v-531h-253zM255 580
l-85 58q62 103 141 103q28 0 67 -22q41 -23 56 -23q27 0 49 46l91 -50q-57 -111 -134 -111q-25 0 -56 13l-45 20q-27 12 -36 12q-26 0 -48 -46z" />
    <glyph glyph-name="adieresis" unicode="&#xe4;" horiz-adv-x="720" 
d="M416 0l8 70h-6q-39 -42 -75 -62t-87 -20q-69 0 -121.5 42.5t-77.5 104t-25 128.5q0 109 62.5 194.5t168.5 85.5q100 0 155 -75h6l-8 63h253v-531h-253zM288 268q0 -34 17 -56t50 -22q34 0 51.5 23t17.5 57q0 31 -19 51t-50 20q-30 0 -48.5 -21.5t-18.5 -51.5zM494 746
q34 0 58.5 -24t24.5 -59t-24.5 -59t-58.5 -24t-58.5 24t-24.5 59t24.5 59t58.5 24zM251 746q35 0 59 -24t24 -59t-24 -59t-59 -24t-59 24t-24 59t24 59t59 24z" />
    <glyph glyph-name="aring" unicode="&#xe5;" horiz-adv-x="720" 
d="M288 268q0 -34 17 -56t50 -22q34 0 51.5 23t17.5 57q0 31 -19 51t-50 20q-30 0 -48.5 -21.5t-18.5 -51.5zM416 0l8 70h-6q-39 -42 -75 -62t-87 -20q-69 0 -121.5 42.5t-77.5 104t-25 128.5q0 109 62.5 194.5t168.5 85.5q100 0 155 -75h6l-8 63h253v-531h-253zM372 799
q64 0 109 -28t45 -88t-45 -87t-109 -27t-109 27t-45 87t45 88t109 28zM372 727q-24 0 -41.5 -10.5t-17.5 -32.5t17.5 -32.5t41.5 -10.5t41.5 10.5t17.5 32.5t-17.5 32.5t-41.5 10.5z" />
    <glyph glyph-name="ae" unicode="&#xe6;" horiz-adv-x="1140" 
d="M731 334h121q0 27 -18 47.5t-45 20.5q-28 0 -43 -19.5t-15 -48.5zM360 122q23 0 49 4.5t50.5 19t24.5 36.5q0 26 -41 36.5t-75 10.5q-99 0 -99 -54q0 -53 91 -53zM1106 224h-375q0 -91 61 -91q20 0 34 12.5t18 31.5h251q-16 -61 -65.5 -105t-109.5 -64t-124 -20
q-72 0 -141 23t-111 67q-113 -90 -258 -90q-61 0 -116.5 17t-96.5 60t-41 106q0 50 20 86.5t55 57t75.5 30t88.5 9.5q75 0 156 -26q4 53 -33 76t-93 23q-96 0 -247 -51v127q149 40 250 40q82 0 138.5 -19t101.5 -74q102 93 237 93q146 0 240 -87.5t85 -231.5z" />
    <glyph glyph-name="ccedilla" unicode="&#xe7;" horiz-adv-x="514" 
d="M466 516v-215q-52 44 -95 44q-36 0 -58.5 -21.5t-22.5 -57.5q0 -32 22 -54t54 -22q41 0 100 41l-11 -218q-77 -25 -130 -25q-133 0 -214 72.5t-81 202.5q0 119 78 199.5t196 80.5q79 0 162 -27zM231 -249l-101 88l159 146l96 -82z" />
    <glyph glyph-name="egrave" unicode="&#xe8;" horiz-adv-x="698" 
d="M664 222h-375q0 -91 61 -91q20 0 34 12.5t18 31.5h251q-24 -90 -111 -138.5t-188 -48.5q-135 0 -227.5 69.5t-92.5 199.5q0 129 87.5 207.5t217.5 78.5q146 0 240 -88t85 -233zM289 332h121q0 28 -18 48.5t-45 20.5q-28 0 -43 -19.5t-15 -49.5zM221 703l125 83l131 -165
l-91 -62z" />
    <glyph glyph-name="eacute" unicode="&#xe9;" horiz-adv-x="698" 
d="M664 222h-375q0 -91 61 -91q20 0 34 12.5t18 31.5h251q-24 -90 -111 -138.5t-188 -48.5q-135 0 -227.5 69.5t-92.5 199.5q0 129 87.5 207.5t217.5 78.5q146 0 240 -88t85 -233zM289 332h121q0 28 -18 48.5t-45 20.5q-28 0 -43 -19.5t-15 -49.5zM352 786l125 -83
l-165 -144l-91 62z" />
    <glyph glyph-name="ecircumflex" unicode="&#xea;" horiz-adv-x="698" 
d="M664 222h-375q0 -91 61 -91q20 0 34 12.5t18 31.5h251q-24 -90 -111 -138.5t-188 -48.5q-135 0 -227.5 69.5t-92.5 199.5q0 129 87.5 207.5t217.5 78.5q146 0 240 -88t85 -233zM289 332h121q0 28 -18 48.5t-45 20.5q-28 0 -43 -19.5t-15 -49.5zM199 569l-48 102l200 115
l197 -115l-47 -102l-150 73z" />
    <glyph glyph-name="edieresis" unicode="&#xeb;" horiz-adv-x="698" 
d="M664 222h-375q0 -91 61 -91q20 0 34 12.5t18 31.5h251q-24 -90 -111 -138.5t-188 -48.5q-135 0 -227.5 69.5t-92.5 199.5q0 129 87.5 207.5t217.5 78.5q146 0 240 -88t85 -233zM289 332h121q0 28 -18 48.5t-45 20.5q-28 0 -43 -19.5t-15 -49.5zM228 746q34 0 58.5 -24
t24.5 -59t-24.5 -59t-58.5 -24t-58.5 24t-24.5 59t24.5 59t58.5 24zM471 746q35 0 59 -24t24 -59t-24 -59t-59 -24t-59 24t-24 59t24 59t59 24z" />
    <glyph glyph-name="igrave" unicode="&#xec;" horiz-adv-x="392" 
d="M67 0v531h258v-531h-258zM53 703l125 83l131 -165l-91 -62z" />
    <glyph glyph-name="iacute" unicode="&#xed;" horiz-adv-x="392" 
d="M67 0v531h258v-531h-258zM214 786l125 -83l-165 -144l-91 62z" />
    <glyph glyph-name="icircumflex" unicode="&#xee;" horiz-adv-x="392" 
d="M67 0v531h258v-531h-258zM46 569l-48 102l200 115l197 -115l-47 -102l-150 73z" />
    <glyph glyph-name="idieresis" unicode="&#xef;" horiz-adv-x="392" 
d="M67 0v531h258v-531h-258zM75 746q35 0 59 -24t24 -59t-24 -59t-59 -24t-59 24t-24 59t24 59t59 24zM318 746q34 0 58.5 -24t24.5 -59t-24.5 -59t-58.5 -24t-58.5 24t-24.5 59t24.5 59t58.5 24z" />
    <glyph glyph-name="eth" unicode="&#xf0;" horiz-adv-x="714" 
d="M132 726l161 96q57 -31 103 -64l124 63l61 -64l-111 -57q209 -177 209 -389q0 -80 -28 -143.5t-75 -101.5t-103.5 -58t-118.5 -20q-55 0 -109 16t-102 47.5t-78 87t-30 125.5q0 124 82 194.5t192 70.5q37 0 85 -12q-39 48 -97 96l-131 -67l-61 64l117 59q-39 29 -90 57z
M357 341q-32 0 -52 -22.5t-20 -55.5q0 -31 21 -52t51 -21t51 21t21 52q0 33 -20 55.5t-52 22.5z" />
    <glyph glyph-name="ntilde" unicode="&#xf1;" horiz-adv-x="703" 
d="M302 531l-10 -85h6q45 52 79.5 74.5t91.5 22.5q93 0 138.5 -60.5t45.5 -155.5v-327h-258v259q0 16 -1 25.5t-4.5 23t-13 20t-25.5 6.5q-15 0 -24.5 -6.5t-13 -20t-4.5 -23t-1 -25.5v-259h-258v531h252zM235 580l-85 58q62 103 141 103q28 0 67 -22q41 -23 56 -23
q27 0 49 46l91 -50q-57 -111 -134 -111q-25 0 -56 13l-45 20q-27 12 -36 12q-26 0 -48 -46z" />
    <glyph glyph-name="ograve" unicode="&#xf2;" horiz-adv-x="714" 
d="M357 543q138 0 230 -75t92 -209q0 -126 -95 -198.5t-227 -72.5t-227 72.5t-95 198.5q0 134 92 209t230 75zM357 341q-32 0 -52 -22.5t-20 -55.5q0 -31 21 -52t51 -21t51 21t21 52q0 33 -20 55.5t-52 22.5zM214 703l125 83l131 -165l-91 -62z" />
    <glyph glyph-name="oacute" unicode="&#xf3;" horiz-adv-x="714" 
d="M357 543q138 0 230 -75t92 -209q0 -126 -95 -198.5t-227 -72.5t-227 72.5t-95 198.5q0 134 92 209t230 75zM357 341q-32 0 -52 -22.5t-20 -55.5q0 -31 21 -52t51 -21t51 21t21 52q0 33 -20 55.5t-52 22.5zM375 786l125 -83l-165 -144l-91 62z" />
    <glyph glyph-name="ocircumflex" unicode="&#xf4;" horiz-adv-x="714" 
d="M357 543q138 0 230 -75t92 -209q0 -126 -95 -198.5t-227 -72.5t-227 72.5t-95 198.5q0 134 92 209t230 75zM357 341q-32 0 -52 -22.5t-20 -55.5q0 -31 21 -52t51 -21t51 21t21 52q0 33 -20 55.5t-52 22.5zM207 569l-48 102l200 115l197 -115l-47 -102l-150 73z" />
    <glyph glyph-name="otilde" unicode="&#xf5;" horiz-adv-x="714" 
d="M357 543q138 0 230 -75t92 -209q0 -126 -95 -198.5t-227 -72.5t-227 72.5t-95 198.5q0 134 92 209t230 75zM357 341q-32 0 -52 -22.5t-20 -55.5q0 -31 21 -52t51 -21t51 21t21 52q0 33 -20 55.5t-52 22.5zM240 580l-85 58q62 103 141 103q28 0 67 -22q41 -23 56 -23
q27 0 49 46l91 -50q-57 -111 -134 -111q-25 0 -56 13l-45 20q-27 12 -36 12q-26 0 -48 -46z" />
    <glyph glyph-name="odieresis" unicode="&#xf6;" horiz-adv-x="714" 
d="M357 543q138 0 230 -75t92 -209q0 -126 -95 -198.5t-227 -72.5t-227 72.5t-95 198.5q0 134 92 209t230 75zM357 341q-32 0 -52 -22.5t-20 -55.5q0 -31 21 -52t51 -21t51 21t21 52q0 33 -20 55.5t-52 22.5zM236 746q34 0 58.5 -24t24.5 -59t-24.5 -59t-58.5 -24t-58.5 24
t-24.5 59t24.5 59t58.5 24zM479 746q35 0 59 -24t24 -59t-24 -59t-59 -24t-59 24t-24 59t24 59t59 24z" />
    <glyph glyph-name="divide" unicode="&#xf7;" horiz-adv-x="800" 
d="M100 200v200h600v-200h-600zM416 693q53 0 91.5 -38.5t38.5 -91.5t-38.5 -91.5t-91.5 -38.5t-91.5 38.5t-38.5 91.5t38.5 91.5t91.5 38.5zM416 167q53 0 91.5 -38.5t38.5 -91.5t-38.5 -91.5t-91.5 -38.5t-91.5 38.5t-38.5 91.5t38.5 91.5t91.5 38.5z" />
    <glyph glyph-name="oslash" unicode="&#xf8;" horiz-adv-x="714" 
d="M41 -10l77 81q-83 73 -83 188q0 134 92 209t230 75q100 0 177 -40l84 87l50 -48l-76 -79q87 -76 87 -204q0 -126 -95 -198.5t-227 -72.5q-102 0 -180 42l-85 -89zM357 341q-32 0 -52 -22.5t-20 -55.5q0 -31 21 -52t51 -21t51 21t21 52q0 33 -20 55.5t-52 22.5z" />
    <glyph glyph-name="ugrave" unicode="&#xf9;" horiz-adv-x="697" 
d="M49 531h256v-274q0 -20 2 -31.5t12 -22t30 -10.5t30 10.5t12 22t2 31.5v274h256v-300q0 -61 -25 -108.5t-67.5 -76.5t-95.5 -43.5t-112 -14.5t-112 14.5t-95.5 43.5t-67.5 76.5t-25 108.5v300zM201 703l125 83l131 -165l-91 -62z" />
    <glyph glyph-name="uacute" unicode="&#xfa;" horiz-adv-x="697" 
d="M49 531h256v-274q0 -20 2 -31.5t12 -22t30 -10.5t30 10.5t12 22t2 31.5v274h256v-300q0 -61 -25 -108.5t-67.5 -76.5t-95.5 -43.5t-112 -14.5t-112 14.5t-95.5 43.5t-67.5 76.5t-25 108.5v300zM372 786l125 -83l-165 -144l-91 62z" />
    <glyph glyph-name="ucircumflex" unicode="&#xfb;" horiz-adv-x="697" 
d="M49 531h256v-274q0 -20 2 -31.5t12 -22t30 -10.5t30 10.5t12 22t2 31.5v274h256v-300q0 -61 -25 -108.5t-67.5 -76.5t-95.5 -43.5t-112 -14.5t-112 14.5t-95.5 43.5t-67.5 76.5t-25 108.5v300zM199 569l-48 102l200 115l197 -115l-47 -102l-150 73z" />
    <glyph glyph-name="udieresis" unicode="&#xfc;" horiz-adv-x="697" 
d="M49 531h256v-274q0 -20 2 -31.5t12 -22t30 -10.5t30 10.5t12 22t2 31.5v274h256v-300q0 -61 -25 -108.5t-67.5 -76.5t-95.5 -43.5t-112 -14.5t-112 14.5t-95.5 43.5t-67.5 76.5t-25 108.5v300zM228 746q34 0 58.5 -24t24.5 -59t-24.5 -59t-58.5 -24t-58.5 24t-24.5 59
t24.5 59t58.5 24zM471 746q35 0 59 -24t24 -59t-24 -59t-59 -24t-59 24t-24 59t24 59t59 24z" />
    <glyph glyph-name="yacute" unicode="&#xfd;" horiz-adv-x="658" 
d="M-22 531h278l59 -208l15 -81h7l13 81l59 208h271l-340 -750h-272l137 272zM352 786l125 -83l-165 -144l-91 62z" />
    <glyph glyph-name="thorn" unicode="&#xfe;" horiz-adv-x="716" 
d="M363 341q-31 0 -48.5 -22t-17.5 -53q0 -32 17.5 -54t48.5 -22q29 0 48 24.5t19 53.5t-19.5 51t-47.5 22zM51 -219v1030h258v-237l-14 -127h9q16 44 61.5 70t97.5 26q105 0 163 -82t58 -191q0 -65 -24.5 -128.5t-77 -108.5t-121.5 -45q-45 0 -90.5 23.5t-66.5 61.5h-7
l12 -85v-207h-258z" />
    <glyph glyph-name="ydieresis" unicode="&#xff;" horiz-adv-x="658" 
d="M-22 531h278l59 -208l15 -81h7l13 81l59 208h271l-340 -750h-272l137 272zM223 746q35 0 59 -24t24 -59t-24 -59t-59 -24t-59 24t-24 59t24 59t59 24zM466 746q34 0 58.5 -24t24.5 -59t-24.5 -59t-58.5 -24t-58.5 24t-24.5 59t24.5 59t58.5 24z" />
    <glyph glyph-name="dotlessi" unicode="&#x131;" horiz-adv-x="392" 
d="M67 0v531h258v-531h-258z" />
    <glyph glyph-name="Lslash" unicode="&#x141;" horiz-adv-x="649" 
d="M128 0v264l-91 -70v163l91 68v329h274v-149l120 91v-163l-120 -91v-200h228v-242h-502z" />
    <glyph glyph-name="lslash" unicode="&#x142;" horiz-adv-x="489" 
d="M113 0v299l-82 -61v134l82 60v379h258v-223l87 63v-134l-87 -64v-453h-258z" />
    <glyph glyph-name="OE" unicode="&#x152;" horiz-adv-x="1186" 
d="M321 373q0 -56 40.5 -96.5t97.5 -40.5q65 0 101 40.5t36 105.5t-36.5 103t-101.5 38q-61 0 -99 -44t-38 -106zM615 0v95h-2q-36 -52 -100 -79.5t-132 -27.5q-76 0 -141.5 33t-109 87.5t-68.5 124.5t-25 143q0 99 42 187.5t122.5 145.5t181.5 57q71 0 134 -30t96 -87h2
v105h506v-206h-233v-72h213v-196h-213v-74h242v-206h-515z" />
    <glyph glyph-name="oe" unicode="&#x153;" horiz-adv-x="1056" 
d="M647 334h121q0 27 -18 47.5t-45 20.5q-28 0 -43 -19.5t-15 -48.5zM1022 224h-375q0 -91 61 -91q20 0 34 12.5t18 31.5h251q-16 -61 -65.5 -105t-109.5 -64t-124 -20q-128 7 -190 73q-41 -34 -98.5 -53.5t-112.5 -19.5q-115 0 -198.5 78t-83.5 193q0 126 86.5 205
t214.5 79q51 0 109.5 -20t87.5 -54q38 36 86.5 55t91.5 19q141 0 233.5 -87.5t83.5 -231.5zM351 340q-32 0 -52 -22t-20 -55q0 -31 21 -51.5t51 -20.5t51 20.5t21 51.5q0 33 -20 55t-52 22z" />
    <glyph glyph-name="Scaron" unicode="&#x160;" horiz-adv-x="663" 
d="M23 57l84 213l14 -11q89 -69 171 -69q25 0 47.5 11t22.5 34q0 7 -1.5 12.5t-6.5 10t-7.5 7t-11 5t-11 3l-12.5 2.5l-11 2l-55 10q-87 15 -142 65.5t-55 134.5q0 86 48 151t121.5 96.5t157.5 31.5q130 0 239 -66l-74 -193q-84 57 -159 57q-22 0 -40.5 -9.5t-18.5 -30.5
q0 -6 1.5 -10.5t6 -8t7.5 -6t10 -4.5t10 -3t10.5 -3t9.5 -2l62 -14q200 -45 200 -216q0 -65 -28 -117.5t-74.5 -85t-104.5 -49.5t-120 -17q-154 0 -290 69zM181 1007l151 -71l151 71l48 -100l-199 -115l-199 115z" />
    <glyph glyph-name="scaron" unicode="&#x161;" horiz-adv-x="533" 
d="M9 47l66 160l16 -10q80 -49 132 -49q15 0 26.5 7.5t11.5 21.5q0 5 -1.5 9.5t-3.5 7.5t-6 5.5t-6.5 4t-9 2.5t-8.5 1.5t-9 1.5t-8 1q-166 23 -166 147q0 48 22.5 85t59 58.5t79 32t87.5 10.5q124 0 206 -45l-63 -147q-60 44 -119 44q-37 0 -37 -24q0 -11 7 -17.5
t19.5 -9.5t28.5 -6q6 0 9 -1q80 -13 123.5 -46.5t43.5 -107.5q0 -50 -23 -88.5t-61 -61t-82 -34t-91 -11.5q-105 0 -243 59zM116 784l151 -71l151 71l48 -100l-199 -115l-199 115z" />
    <glyph glyph-name="Ydieresis" unicode="&#x178;" horiz-adv-x="773" 
d="M-8 754h310l84 -197h8q19 58 25 71l54 126h308l-258 -429v-325h-268v325zM276 969q34 0 58.5 -24.5t24.5 -58.5t-24.5 -58.5t-58.5 -24.5t-58.5 24.5t-24.5 58.5t24.5 58.5t58.5 24.5zM519 969q35 0 59 -24.5t24 -58.5t-24 -58.5t-59 -24.5t-59 24.5t-24 58.5t24 58.5
t59 24.5z" />
    <glyph glyph-name="Zcaron" unicode="&#x17d;" horiz-adv-x="771" 
d="M67 754h702l-328 -521l3 -4q42 4 64 4h228v-233h-734l272 441q18 30 67 91l-4 3q-38 -9 -65 -9h-205v228zM250 1007l151 -71l151 71l48 -100l-199 -115l-199 115z" />
    <glyph glyph-name="zcaron" unicode="&#x17e;" horiz-adv-x="605" 
d="M589 501l-158 -234l-55 -67v-6l53 6h147v-200h-560v36l157 238l53 60v4l-59 -7h-125v200h547v-30zM152 784l151 -71l151 71l48 -100l-199 -115l-199 115z" />
    <glyph glyph-name="florin" unicode="&#x192;" 
d="M353 535l16 99q13 83 64.5 139.5t132.5 56.5q63 0 134 -30l8 -3l-32 -187q-16 21 -38 21q-13 0 -22 -5.5t-13.5 -9.5t-8.5 -18.5t-4.5 -17.5l-3.5 -21l-4 -25l80 8l-33 -187l-76 8l-40 -256q-22 -141 -91.5 -199.5t-212.5 -58.5q-41 0 -75 7l33 207l13 -1q37 0 66 15
q11 6 18.5 13.5t12 20.5t6 19t4.5 25l35 208l-69 -8l32 187z" />
    <glyph glyph-name="circumflex" unicode="&#x2c6;" horiz-adv-x="600" 
d="M150 569l-48 102l200 115l197 -115l-47 -102l-150 73z" />
    <glyph glyph-name="caron" unicode="&#x2c7;" horiz-adv-x="600" 
d="M149 784l151 -71l151 71l48 -100l-199 -115l-199 115z" />
    <glyph glyph-name="uni02C9" unicode="&#x2c9;" horiz-adv-x="600" 
d="M123 608v98h355v-98h-355z" />
    <glyph glyph-name="breve" unicode="&#x2d8;" horiz-adv-x="560" 
d="M92 756h78q21 -60 110 -60t110 60h79q-4 -73 -59.5 -123.5t-129.5 -50.5q-75 0 -128 48.5t-60 125.5z" />
    <glyph glyph-name="dotaccent" unicode="&#x2d9;" horiz-adv-x="420" 
d="M210 746q34 0 58.5 -24t24.5 -59t-24.5 -59t-58.5 -24t-58.5 24t-24.5 59t24.5 59t58.5 24z" />
    <glyph glyph-name="ring" unicode="&#x2da;" horiz-adv-x="480" 
d="M240 799q64 0 109 -28t45 -88t-45 -87t-109 -27t-109 27t-45 87t45 88t109 28zM240 727q-24 0 -41.5 -10.5t-17.5 -32.5t17.5 -32.5t41.5 -10.5t41.5 10.5t17.5 32.5t-17.5 32.5t-41.5 10.5z" />
    <glyph glyph-name="ogonek" unicode="&#x2db;" horiz-adv-x="420" 
d="M199 -15h75v-2q-68 -34 -68 -69q0 -20 15.5 -30.5t37.5 -10.5q30 0 54 26l2 -2l-26 -96q-34 -24 -77 -24t-75 25.5t-32 67.5q0 68 94 115z" />
    <glyph glyph-name="tilde" unicode="&#x2dc;" horiz-adv-x="560" 
d="M163 580l-85 58q62 103 141 103q28 0 67 -22q41 -23 56 -23q27 0 49 46l91 -50q-57 -111 -134 -111q-25 0 -56 13l-45 20q-27 12 -36 12q-26 0 -48 -46z" />
    <glyph glyph-name="hungarumlaut" unicode="&#x2dd;" horiz-adv-x="620" 
d="M156 778h135l-56 -211h-102zM352 778h135l-56 -211h-102z" />
    <glyph glyph-name="uni03A9" unicode="&#x3a9;" horiz-adv-x="1002" 
d="M224 165v4q-67 37 -115.5 104t-48.5 159q0 141 120.5 235t321.5 94q202 0 321 -93t119 -239q0 -90 -44 -149.5t-125 -110.5v-4h183v-165h-421v129q85 55 127 112.5t42 146.5q0 90 -55.5 150.5t-144.5 60.5q-86 0 -145 -57t-59 -157q0 -81 45.5 -149.5t124.5 -106.5v-129
h-424v165h178z" />
    <glyph glyph-name="uni03BC" unicode="&#x3bc;" horiz-adv-x="697" 
d="M49 528h256v-274q0 -20 2 -31.5t12 -22t30 -10.5t30 10.5t12 22t2 31.5v274h256v-300q0 -60 -24.5 -108t-64.5 -76.5t-86.5 -43.5t-94.5 -15q-47 0 -104 19l30 -223h-256v747z" />
    <glyph glyph-name="pi" unicode="&#x3c0;" horiz-adv-x="847" 
d="M813 399h-79v-203q0 -133 15 -196h-232q-22 24 -22 177v222h-124q0 -105 -19 -227.5t-45 -171.5h-233q26 82 46 200t17 199q-77 0 -118 -9l-20 131q39 44 243 44h591z" />
    <glyph glyph-name="uni2010" unicode="&#x2010;" horiz-adv-x="485" 
d="M64 165v220h357v-220h-357z" />
    <glyph glyph-name="endash" unicode="&#x2013;" horiz-adv-x="500" 
d="M0 165v220h500v-220h-500z" />
    <glyph glyph-name="emdash" unicode="&#x2014;" horiz-adv-x="1000" 
d="M130 165v220h740v-220h-740z" />
    <glyph glyph-name="quoteleft" unicode="&#x2018;" horiz-adv-x="493" 
d="M235 754h202l-121 -373h-259z" />
    <glyph glyph-name="quoteright" unicode="&#x2019;" horiz-adv-x="493" 
d="M257 381h-201l121 373h259z" />
    <glyph glyph-name="quotesinglbase" unicode="&#x201a;" horiz-adv-x="493" 
d="M258 -166h-201l121 373h259z" />
    <glyph glyph-name="quotedblleft" unicode="&#x201c;" horiz-adv-x="788" 
d="M532 754h202l-121 -373h-259zM232 754h202l-121 -373h-259z" />
    <glyph glyph-name="quotedblright" unicode="&#x201d;" horiz-adv-x="788" 
d="M255 381h-201l121 373h259zM555 381h-201l121 373h259z" />
    <glyph glyph-name="quotedblbase" unicode="&#x201e;" horiz-adv-x="788" 
d="M255 -166h-201l121 373h259zM555 -166h-201l121 373h259z" />
    <glyph glyph-name="dagger" unicode="&#x2020;" 
d="M302 -151v458h-212v197h212v250h228v-250h212v-197h-212v-458h-228z" />
    <glyph glyph-name="daggerdbl" unicode="&#x2021;" 
d="M302 -151v280h-194v166h194v113h-194v166h194v180h228v-180h194v-166h-194v-113h194v-166h-194v-280h-228z" />
    <glyph glyph-name="bullet" unicode="&#x2022;" 
d="M417 566q80 0 134 -55t54 -134q0 -78 -54 -133t-134 -55t-134.5 55t-54.5 133q0 79 54.5 134t134.5 55z" />
    <glyph glyph-name="ellipsis" unicode="&#x2026;" horiz-adv-x="1000" 
d="M833 239q59 0 104 -35t45 -92q0 -56 -45 -90t-104 -34t-104 34t-45 90q0 57 45 92t104 35zM500 239q59 0 104 -35t45 -92q0 -56 -45 -90t-104 -34t-104 34t-45 90q0 57 45 92t104 35zM167 239q59 0 104 -35t45 -92q0 -56 -45 -90t-104 -34t-104 34t-45 90q0 57 45 92
t104 35z" />
    <glyph glyph-name="perthousand" unicode="&#x2030;" horiz-adv-x="1685" 
d="M882 404q106 0 173 -52t67 -154t-69.5 -156t-170.5 -54t-170.5 54t-69.5 156t67 154t173 52zM882 254q-23 0 -35.5 -16.5t-12.5 -39.5t12 -38t36 -15t36 15t12 38t-12.5 39.5t-35.5 16.5zM263 766q106 0 173 -52t67 -154t-69.5 -156t-170.5 -54t-170.5 54t-69.5 156
t67 154t173 52zM263 616q-23 0 -35.5 -16.5t-12.5 -39.5t12 -38t36 -15t36 15t12 38t-12.5 39.5t-35.5 16.5zM1422 404q106 0 173 -52t67 -154t-69.5 -156t-170.5 -54t-170.5 54t-69.5 156t67 154t173 52zM1422 254q-23 0 -35.5 -16.5t-12.5 -39.5t12 -38t36 -15t36 15
t12 38t-12.5 39.5t-35.5 16.5zM249 0l517 776h137l-513 -776h-141z" />
    <glyph glyph-name="guilsinglleft" unicode="&#x2039;" horiz-adv-x="352" 
d="M304 104l-96 -65l-161 236l161 228l96 -70l-109 -158z" />
    <glyph glyph-name="guilsinglright" unicode="&#x203a;" horiz-adv-x="352" 
d="M144 39l-96 65l109 171l-109 158l96 70l161 -228z" />
    <glyph glyph-name="fraction" unicode="&#x2044;" horiz-adv-x="127" 
d="M-249 0l517 754h108l-514 -754h-111z" />
    <glyph glyph-name="Euro" unicode="&#x20ac;" 
d="M751 717v-176q-55 47 -189 47q-158 0 -193 -107h325l-44 -92h-291q-1 -6 -1 -23q0 -16 2 -30h265l-43 -92h-203q31 -80 183 -80q55 0 109.5 14.5t79.5 33.5v-180q-70 -43 -212 -43q-189 0 -286 64.5t-127 190.5h-111l44 92h56q-1 9 -1 27q0 16 1 26h-100l44 92h64
q16 64 43.5 112t75 88.5t122.5 62t175 21.5q75 0 131 -15t81 -33z" />
    <glyph glyph-name="afii61289" unicode="&#x2113;" horiz-adv-x="766" 
d="M636 260l98 -97q-59 -90 -147 -131t-185 -41q-99 0 -158.5 34t-90.5 116q-1 1 -1 3.5t-1 3.5q-33 -20 -53 -30l-64 108q35 21 112 67v197q0 331 267 331q112 0 171.5 -59t59.5 -147q0 -98 -65.5 -180.5t-208.5 -186.5l2 -11q6 -29 29 -48t61 -19q47 0 93 25.5t81 64.5z
M370 563v-135q48 44 75.5 94.5t27.5 92.5q0 67 -46 67q-57 0 -57 -119z" />
    <glyph glyph-name="trademark" unicode="&#x2122;" horiz-adv-x="950" 
d="M384 754v-98h-112v-316h-120v316h-111v98h343zM909 754v-414h-98v316h-2l-113 -316h-60l-113 316h-2v-316h-98v414h158l84 -239h2l84 239h158z" />
    <glyph glyph-name="Omega" unicode="&#x2126;" horiz-adv-x="1002" 
d="M224 165v4q-67 37 -115.5 104t-48.5 159q0 141 120.5 235t321.5 94q202 0 321 -93t119 -239q0 -90 -44 -149.5t-125 -110.5v-4h183v-165h-421v129q85 55 127 112.5t42 146.5q0 90 -55.5 150.5t-144.5 60.5q-86 0 -145 -57t-59 -157q0 -81 45.5 -149.5t124.5 -106.5v-129
h-424v165h178z" />
    <glyph glyph-name="estimated" unicode="&#x212e;" horiz-adv-x="938" 
d="M901 366h-700q-6 0 -6 -4v-212q0 -11 9 -24q110 -115 265 -115q167 0 279 128h62q-59 -69 -149 -109.5t-193 -40.5q-179 0 -305.5 113.5t-126.5 274.5t126.5 275t305.5 114t306 -114t127 -275v-11zM742 394v213q0 14 -11 25q-110 110 -262 110q-153 0 -263 -113
q-11 -11 -11 -27v-208q0 -7 6 -7h536q5 0 5 7z" />
    <glyph glyph-name="partialdiff" unicode="&#x2202;" horiz-adv-x="795" 
d="M123 634l-67 141q122 72 281 72q183 0 299.5 -118t116.5 -305q0 -201 -118.5 -317t-297.5 -116q-76 0 -137.5 26t-97 66.5t-54 85.5t-18.5 87q0 118 80 201t216 83q72 0 122 -29t75 -64h1q1 3 1 13q0 91 -56 155t-161 64q-92 0 -185 -45zM363 155h1q52 0 90.5 42.5
t46.5 96.5q-6 30 -38 58.5t-79 28.5q-54 0 -88 -35.5t-34 -89.5q0 -46 29 -73.5t72 -27.5z" />
    <glyph glyph-name="uni2206" unicode="&#x2206;" horiz-adv-x="898" 
d="M23 0v103l285 661h285l280 -661v-103h-850zM280 167h318l-111 294q-35 94 -49 141h-6q-2 -7 -18.5 -57t-25.5 -76z" />
    <glyph glyph-name="product" unicode="&#x220f;" horiz-adv-x="960" 
d="M941 568h-132v-671h-224v671h-212v-671h-224v671h-131v180h923v-180z" />
    <glyph glyph-name="summation" unicode="&#x2211;" horiz-adv-x="764" 
d="M750 -103h-727v115l286 303l-269 295v138h677v-180h-357v-5l211 -228l-234 -253v-6h413v-179z" />
    <glyph glyph-name="minus" unicode="&#x2212;" horiz-adv-x="800" 
d="M100 200v200h600v-200h-600z" />
    <glyph glyph-name="uni2215" unicode="&#x2215;" horiz-adv-x="127" 
d="M-249 0l517 754h108l-514 -754h-111z" />
    <glyph glyph-name="uni2219" unicode="&#x2219;" horiz-adv-x="416" 
d="M208 430q53 0 91.5 -38.5t38.5 -91.5t-38.5 -91.5t-91.5 -38.5t-91.5 38.5t-38.5 91.5t38.5 91.5t91.5 38.5z" />
    <glyph glyph-name="radical" unicode="&#x221a;" horiz-adv-x="811" 
d="M852 893l-317 -1058h-174l-206 456l-91 -38l-37 100l259 108l130 -332q15 -37 34 -94h2q3 10 11 44t14 55l213 759h162z" />
    <glyph glyph-name="infinity" unicode="&#x221e;" horiz-adv-x="901" 
d="M852 312v-1q0 -97 -59 -155t-139 -58q-123 0 -206 122q-47 -60 -95 -91t-111 -31q-79 0 -136.5 57t-57.5 148q0 93 58.5 151.5t146.5 58.5q64 0 113 -28.5t93 -87.5q2 2 13 15t15 17.5t16 16.5t19.5 17.5t20.5 15.5t25 14.5t26.5 10t31 7.5t33.5 2q80 -1 136.5 -56
t56.5 -145zM253 206h2q64 0 134 93q-22 32 -30.5 44t-27 31.5t-37 26t-42.5 6.5q-39 0 -66 -27t-27 -76q0 -40 27.5 -69t66.5 -29zM648 407h-1q-27 0 -54.5 -18.5t-41.5 -34.5t-38 -47q44 -61 74 -81t67 -20q39 0 62.5 30.5t23.5 65.5q0 46 -25 75.5t-67 29.5z" />
    <glyph glyph-name="integral" unicode="&#x222b;" horiz-adv-x="491" 
d="M490 923l-20 -129q-21 6 -48 6q-48 0 -68 -34q-24 -38 -24 -165q0 -97 11 -235q10 -150 10 -253q0 -139 -41 -208q-29 -52 -80 -77.5t-110 -25.5q-75 0 -115 17l24 136q25 -10 56 -10q39 0 61 26q31 37 31 146q0 91 -11 260q-12 156 -12 248q0 94 20.5 153.5t64.5 102.5
q56 55 169 55q50 0 82 -13z" />
    <glyph glyph-name="approxequal" unicode="&#x2248;" horiz-adv-x="696" 
d="M583 525l78 -81q-86 -118 -189 -118q-61 0 -139 43q-64 34 -101 34q-61 0 -129 -77l-76 81q31 47 89.5 82t116.5 35q71 0 127 -35q40 -26 59 -34t45 -8q59 0 119 78zM583 295l78 -81q-86 -118 -191 -118q-60 0 -137 43q-3 1 -11.5 5.5t-11 6t-10 5t-11 5t-10.5 4
t-11.5 3.5t-10.5 2.5t-12 2t-12 0.5q-38 0 -67 -19.5t-63 -57.5l-76 81q31 47 90 82t117 35q64 0 125 -34q6 -3 18.5 -11.5t19.5 -12.5t18.5 -9.5t22.5 -7.5t24 -2q33 0 60 18.5t61 59.5z" />
    <glyph glyph-name="notequal" unicode="&#x2260;" horiz-adv-x="696" 
d="M527 568l-38 -82h150v-117h-203l-59 -130h262v-117h-316l-59 -129l-96 45l39 84h-150v117h203l59 130h-262v117h315l58 127z" />
    <glyph glyph-name="lessequal" unicode="&#x2264;" horiz-adv-x="696" 
d="M639 156l-582 242v125l581 240v-127l-451 -175v-2l452 -175v-128zM639 -1h-582v121h582v-121z" />
    <glyph glyph-name="greaterequal" unicode="&#x2265;" horiz-adv-x="696" 
d="M57 763l582 -241v-125l-581 -241v128l451 175v2l-452 175v127zM631 -1h-573v121h573v-121z" />
    <glyph glyph-name="lozenge" unicode="&#x25ca;" horiz-adv-x="811" 
d="M759 372l-269 -421h-171l-268 421l268 422h171zM565 368l-141 238q-17 30 -21 38h-2l-9 -16q-8 -15 -12 -22l-135 -230l141 -238q15 -25 19 -38h4q7 16 20 38z" />
    <glyph glyph-name="fi" unicode="&#xfb01;" horiz-adv-x="822" 
d="M497 0v531h258v-531h-258zM626 819q62 0 102 -33.5t40 -90.5q0 -62 -41 -93.5t-101 -31.5t-101 31.5t-41 93.5q0 57 40 90.5t102 33.5zM75 522v56q0 241 230 241q37 0 113 -12v-205q-23 9 -35 9q-54 0 -54 -71v-20l87 11v-207l-83 7v-331h-258v331l-70 -7v207z" />
    <glyph glyph-name="fl" unicode="&#xfb02;" horiz-adv-x="803" 
d="M487 0v811h258v-811h-258zM75 522v56q0 241 230 241q37 0 113 -12v-205q-23 9 -35 9q-54 0 -54 -71v-20l87 11v-207l-83 7v-331h-258v331l-70 -7v207z" />
    <glyph glyph-name="a.superior" horiz-adv-x="420" 
d="M170 599q0 -18 11.5 -31t30.5 -13q20 0 33 13.5t13 31.5q0 19 -12.5 30.5t-32.5 11.5q-19 0 -31 -12.5t-12 -30.5zM417 757v-317h-164l5 40h-4q-49 -49 -105 -49q-66 0 -106 51t-40 114q0 66 41 118t110 52q64 0 100 -47h4l-5 38h164z" />
    <glyph glyph-name="o.superior" horiz-adv-x="420" 
d="M210 766q90 0 149.5 -45t59.5 -126q0 -76 -61.5 -120t-147.5 -44t-147.5 44t-61.5 120q0 81 59.5 126t149.5 45zM210 642q-21 0 -34 -13t-13 -33q0 -18 13.5 -29.5t33.5 -11.5t33.5 11.5t13.5 29.5q0 20 -13 33t-34 13z" />
    <glyph glyph-name="one.superior" horiz-adv-x="500" 
d="M124 608v143l252 7v-452h-177v307z" />
    <glyph glyph-name="two.superior" horiz-adv-x="500" 
d="M7 306l196 161q108 90 108 129q0 15 -11.5 25.5t-28.5 10.5q-42 0 -44 -57h-174q10 100 62 145.5t162 45.5q83 0 146.5 -43t63.5 -117q0 -63 -49.5 -107t-122.5 -65v-5l84 11l95 6v-140h-487z" />
    <glyph glyph-name="three.superior" horiz-adv-x="500" 
d="M23 465h179q-1 -21 14 -36t37 -15q19 0 33.5 12t14.5 29t-13.5 29.5t-31.5 12.5q-8 0 -24 -2v94l14 -1q15 -1 26 8.5t11 23.5t-9.5 22t-24.5 8t-24 -10.5t-7 -24.5h-176q15 151 212 151q33 0 67 -7.5t65 -22t50.5 -40.5t19.5 -60q0 -28 -16.5 -52t-43.5 -35v-4
q38 -9 59.5 -37t21.5 -65q0 -51 -36.5 -85.5t-84 -46.5t-101.5 -12q-99 0 -163.5 39.5t-68.5 126.5z" />
    </font>
</defs>
</svg>
