<?xml version="1.0" encoding="UTF-8"?>
<svg width="23px" height="16px" viewBox="0 0 23 16" version="1.1" xmlns="http://www.w3.org/2000/svg" xmlns:xlink="http://www.w3.org/1999/xlink">
    <!-- Generator: Sketch 52.3 (67297) - http://www.bohemiancoding.com/sketch -->
    <title>broadcast-tower-16</title>
    <desc>Created with Sketch.</desc>
    <g id="Page-1" stroke="none" stroke-width="1" fill="none" fill-rule="evenodd">
        <rect id="footer" fill="#1A181D" x="-815" y="-25" width="1024" height="67"></rect>
        <g id="broadcast-tower" fill="#828282" fill-rule="nonzero">
            <path d="M5.24097222,5.99999566 L6.41215278,5.99999566 C6.79444444,5.99999566 7.05833333,5.6615584 6.928125,5.33812113 C6.75694444,4.91374644 6.66597222,4.46374677 6.66597222,3.9999971 C6.66597222,3.53624744 6.75694444,3.08624777 6.928125,2.66187307 C7.05868056,2.33843581 6.79444444,1.99999855 6.41215278,1.99999855 L5.24097222,1.99999855 C4.99756944,1.99999855 4.77361111,2.14031095 4.70590278,2.3509358 C4.53611111,2.88156041 4.44444444,3.43374751 4.44444444,3.9999971 C4.44444444,4.56624669 4.53611111,5.11843379 4.70625,5.64874591 C4.77361111,5.85937076 4.99756944,5.99999566 5.24097222,5.99999566 Z M3.12222222,0.729374472 C3.31805556,0.397499712 3.05451389,0 2.6375,0 L1.41076389,0 C1.19305556,0 0.989236111,0.112187419 0.898958333,0.290937289 C0.326388889,1.42312397 0,2.67656056 0,3.9999971 C0,4.77343404 0.108333333,6.13530806 0.926736111,7.71436941 C1.01770833,7.89030679 1.21909722,7.99999421 1.43402778,7.99999421 L2.64375,7.99999421 C3.06111111,7.99999421 3.32465278,7.6018695 3.128125,7.26968224 C1.39965278,4.35343435 2.54791667,1.70249877 3.12222222,0.729374472 Z M21.3215278,0.29031229 C21.23125,0.111874919 21.0277778,0 20.8100694,0 L19.5802083,0 C19.1642361,0 18.8975694,0.395624714 19.0934028,0.726561974 C19.7277778,1.7981237 20.7746528,4.45843427 19.103125,7.26499474 C18.9045139,7.5987445 19.165625,7.99999421 19.5861111,7.99999421 L20.809375,7.99999421 C21.0270833,7.99999421 21.2305556,7.88811929 21.3208333,7.70968192 C21.8947917,6.57749524 22.2222222,5.32374615 22.2222222,3.9999971 C22.2222222,2.67624806 21.8951389,1.42249897 21.3215278,0.29031229 Z M16.98125,1.99999855 L15.8100694,1.99999855 C15.4277778,1.99999855 15.1638889,2.33843581 15.2940972,2.66187307 C15.4652778,3.08624777 15.55625,3.53624744 15.55625,3.9999971 C15.55625,4.46374677 15.4652778,4.91374644 15.2940972,5.33812113 C15.1635417,5.6615584 15.4277778,5.99999566 15.8100694,5.99999566 L16.98125,5.99999566 C17.225,5.99999566 17.4486111,5.85968326 17.5163194,5.64874591 C17.6864583,5.11843379 17.7777778,4.56624669 17.7777778,3.9999971 C17.7777778,3.43374751 17.6861111,2.88156041 17.5159722,2.3512483 C17.4486111,2.14031095 17.2246528,1.99999855 16.98125,1.99999855 Z M12.9430556,5.12874629 C13.1878472,4.80718402 13.3319444,4.4190593 13.3319444,3.9999971 C13.3319444,2.8953104 12.3378472,1.99999855 11.1111111,1.99999855 C9.88472222,1.99999855 8.89027778,2.8953104 8.89027778,3.9999971 C8.89027778,4.4190593 9.034375,4.80718402 9.27916667,5.12874629 L4.74791667,14.9228017 C4.62986111,15.177489 4.76388889,15.4703013 5.046875,15.5765512 L6.07152778,15.9612384 C6.35451389,16.0674884 6.67986111,15.9468635 6.79756944,15.6921761 L8.50555556,11.9999913 L13.7163194,11.9999913 L15.4246528,15.6921761 C15.5427083,15.947176 15.8677083,16.0674884 16.1506944,15.9612384 L17.1753472,15.5765512 C17.4583333,15.4703013 17.5920139,15.177489 17.4743056,14.9228017 L12.9430556,5.12874629 Z M9.43125,9.99999276 L11.1111111,6.36905789 L12.7909722,9.99999276 L9.43125,9.99999276 Z" id="Shape"></path>
        </g>
    </g>
</svg>