<?xml version="1.0" standalone="no"?>
<!DOCTYPE svg PUBLIC "-//W3C//DTD SVG 1.1//EN" "http://www.w3.org/Graphics/SVG/1.1/DTD/svg11.dtd" >
<svg xmlns="http://www.w3.org/2000/svg" xmlns:xlink="http://www.w3.org/1999/xlink" version="1.1">
<metadata>
Created by FontForge 20170731 at Mon Nov 23 21:08:57 2020
 By Aleksey,,,
(c) 2014 Sergiy S. Tkachenko / 4th february
(c) 2014 FirstSiteGuide.com
http://creativecommons.org/licenses/by-nd/4.0/
</metadata>
<defs>
<font id="BloggerSans-LightItalic" horiz-adv-x="512" >
  <font-face 
    font-family="Blogger Sans Light"
    font-weight="300"
    font-style="italic"
    font-stretch="squinchy"
    units-per-em="2048"
    panose-1="2 0 5 6 3 0 0 2 0 4"
    ascent="1638"
    descent="-410"
    x-height="1034"
    cap-height="1444"
    bbox="-141.182 -500 1790 1936"
    underline-thickness="40"
    underline-position="-333"
    unicode-range="U+0020-F0434"
  />
<missing-glyph horiz-adv-x="1556" 
 />
    <glyph glyph-name="ff" unicode="ff" horiz-adv-x="1224" 
d="M678 -360l207 1478q27 186 137 281.5t272 101.5q12 3 39 0.5t54.5 -7.5t49 -21.5t21.5 -42.5q0 -31 -21.5 -50.5t-50.5 -19.5q-25 0 -45 4q-73 10 -81 10q-97 0 -161.5 -68.5t-78.5 -170.5l-21 -146h238q23 0 37 -15t14 -40q0 -27 -21 -47.5t-46 -20.5h-238l-172 -1226
q-5 -29 -24 -46.5t-52 -17.5q-32 0 -47 18t-10 46zM111 -360l206 1478q27 186 136.5 281.5t271.5 101.5q12 3 39.5 0.5t55.5 -7.5t49.5 -21.5t21.5 -42.5q0 -31 -22 -50.5t-50 -19.5q-27 0 -47 4q-67 10 -80 10q-97 0 -161 -68.5t-78 -170.5l-21 -146h238q23 0 36 -15
t13 -40q0 -27 -20.5 -47.5t-45.5 -20.5h-237l-172 -1226q-5 -29 -24 -46.5t-52 -17.5q-32 0 -47 18t-10 46z" />
    <glyph glyph-name="fi" unicode="fi" horiz-adv-x="1058" 
d="M113 -358l206 1476q27 185 125.5 281t241.5 102q12 3 39 0.5t54.5 -7.5t49 -21.5t21.5 -42.5q0 -31 -21.5 -50.5t-50.5 -19.5q-25 0 -45 4q-72 10 -82 10q-76 0 -129 -68.5t-67 -170.5l-21 -146h238q22 0 36.5 -15.5t14.5 -39.5q0 -27 -20.5 -47.5t-47.5 -20.5h-237
l-172 -1224q-5 -29 -25 -46.5t-51 -17.5q-32 0 -47 18t-10 46zM1120 1405q0 -38 -29.5 -66t-66.5 -28q-33 0 -54.5 21.5t-21.5 51.5q0 39 30.5 68t70.5 29q31 0 51 -22t20 -54zM799 184l112 797q3 28 25 48t51 20q26 0 43 -20t14 -48l-112 -797q-9 -69 18 -110q4 -8 4 -25
q0 -27 -19 -45t-48 -18q-116 0 -88 198z" />
    <glyph glyph-name="fl" unicode="fl" horiz-adv-x="1058" 
d="M113 -362l206 1480q27 185 125.5 281t241.5 102q12 3 39 0.5t54.5 -7.5t49 -21.5t21.5 -42.5q0 -31 -21 -50.5t-51 -19.5q-25 0 -45 4q-72 10 -80 10q-77 0 -130.5 -69t-67.5 -170l-21 -146h238q23 0 37 -15t14 -40q0 -27 -20.5 -47.5t-47.5 -20.5h-237l-172 -1228
q-5 -29 -25 -46.5t-51 -17.5q-32 0 -47 18t-10 46zM799 184l174 1233q3 27 25 47.5t49 20.5t43.5 -20t13.5 -48l-174 -1233q-9 -73 20 -110q6 -6 6 -25q0 -26 -20 -44.5t-49 -18.5q-116 0 -88 198z" />
    <glyph glyph-name="ffi" unicode="ffi" horiz-adv-x="1544" 
d="M653 -360l207 1478q27 185 125.5 281t241.5 102q9 3 29 0.5t41 -7t37 -21t16 -41.5q0 -32 -21.5 -52t-50.5 -20q-11 0 -27 4q-50 10 -57 10q-77 0 -131 -69t-68 -170l-20 -146h237q23 0 37.5 -15t14.5 -40q0 -27 -20.5 -47.5t-47.5 -20.5h-238l-172 -1226
q-5 -29 -24.5 -46.5t-50.5 -17.5q-32 0 -47.5 18t-10.5 46zM111 -360l206 1478q27 186 136.5 281.5t271.5 101.5q12 3 39 0.5t54.5 -7.5t49 -21.5t21.5 -42.5q0 -31 -21 -50.5t-51 -19.5q-25 0 -45 4q-72 10 -82 10q-96 0 -159.5 -68.5t-77.5 -170.5l-21 -146h236
q22 0 36.5 -15.5t14.5 -39.5q0 -27 -21.5 -47.5t-46.5 -20.5h-235l-172 -1226q-5 -29 -25 -46.5t-51 -17.5q-33 0 -47.5 17.5t-9.5 46.5zM1620 1405q0 -38 -29.5 -66t-66.5 -28q-33 0 -53.5 21.5t-20.5 51.5q0 40 29 68.5t69 28.5q31 0 51.5 -22t20.5 -54zM1298 184l113 797
q3 28 25 48t51 20q26 0 43 -20t14 -48l-112 -797q-9 -69 18 -110q6 -12 6 -25q0 -26 -20.5 -44.5t-49.5 -18.5q-116 0 -88 198z" />
    <glyph glyph-name="ffl" unicode="ffl" horiz-adv-x="1607" 
d="M674 -360l207 1478q27 185 125.5 281t240.5 102q12 3 39 0.5t55.5 -7.5t50 -21.5t21.5 -42.5q0 -31 -22 -50.5t-50 -19.5q-27 0 -47 4q-68 10 -80 10q-77 0 -130.5 -69t-67.5 -170l-21 -146h238q23 0 37 -15t14 -40q0 -28 -20 -48t-47 -20h-238l-172 -1226
q-5 -29 -25 -46.5t-51 -17.5q-32 0 -47 18t-10 46zM1360 184l176 1250q3 26 25.5 46.5t50.5 20.5q27 0 43.5 -19.5t13.5 -47.5l-176 -1250q-10 -76 20 -110q7 -7 7 -25q0 -26 -20.5 -44.5t-49.5 -18.5q-118 0 -90 198zM109 -360l206 1478q27 186 136.5 281.5t271.5 101.5
q12 3 39.5 0.5t55.5 -7.5t49.5 -21.5t21.5 -42.5q0 -31 -21 -50.5t-51 -19.5q-23 0 -47 4q-67 10 -80 10q-97 0 -161 -68.5t-78 -170.5l-21 -146h238q23 0 36 -15t13 -40q0 -27 -20.5 -47.5t-45.5 -20.5h-237l-172 -1226q-5 -29 -24 -46.5t-52 -17.5q-32 0 -47 18t-10 46z
" />
    <glyph glyph-name="uni0457_uni0457" unicode="&#x457;&#x457;" horiz-adv-x="983" 
d="M326 51q-3 -27 -25 -46t-49 -19q-29 0 -45.5 18.5t-13.5 46.5l131 930q5 28 26.5 48t50.5 20q27 0 43.5 -20.5t12.5 -47.5zM772 1303q0 -44 -33 -76.5t-75 -32.5q-37 0 -61.5 25.5t-24.5 62.5q0 40 34.5 72t77.5 32q35 0 58.5 -24t23.5 -59zM332 1303q0 -44 -33 -76.5
t-76 -32.5q-36 0 -59 25t-23 61q0 41 33 73.5t76 32.5q36 0 59 -23.5t23 -59.5zM807 51q-3 -27 -25 -46t-49 -19q-29 0 -45.5 18.5t-13.5 46.5l131 930q5 28 27 48t51 20q26 0 42.5 -20t12.5 -48zM1210 1303q0 -44 -33 -76.5t-75 -32.5q-37 0 -61.5 25.5t-24.5 62.5
q0 40 34.5 72t77.5 32q35 0 58.5 -24t23.5 -59z" />
    <glyph glyph-name=".notdef" horiz-adv-x="1556" 
 />
    <glyph glyph-name=".null" horiz-adv-x="0" 
 />
    <glyph glyph-name="nonmarkingreturn" horiz-adv-x="682" 
 />
    <glyph glyph-name="space" unicode=" " horiz-adv-x="614" 
 />
    <glyph glyph-name="exclam" unicode="!" horiz-adv-x="464" 
d="M244 408l116 991q3 26 27.5 46.5t52.5 20.5t45 -20t15 -47l-162 -991q-3 -20 -18.5 -35t-34.5 -15q-20 0 -32 15t-9 35zM344 90q0 -44 -32.5 -76t-75.5 -32q-37 0 -61.5 24.5t-24.5 61.5q0 42 34.5 75t77.5 33q36 0 59 -25t23 -61z" />
    <glyph glyph-name="quotedbl" unicode="&#x22;" horiz-adv-x="700" 
d="M266 997l133 510q11 24 36.5 38.5t53.5 10.5q29 -3 43.5 -23.5t4.5 -45.5l-189 -506q-4 -14 -20.5 -24.5t-32.5 -12.5q-15 5 -24 21.5t-5 31.5zM539 997l133 510q11 24 36.5 38.5t53.5 10.5q29 -3 42.5 -23.5t4.5 -45.5l-188 -506q-4 -14 -21 -24.5t-33 -12.5
q-17 4 -25 20.5t-3 32.5z" />
    <glyph glyph-name="numbersign" unicode="#" horiz-adv-x="1107" 
d="M362 981h140l157 432q9 22 28 34.5t42 12.5q21 -5 34 -22t9 -39l-2 -15l-147 -403h256l157 432q19 44 66 47q25 -3 38 -20t9 -41l-2 -15l-148 -403h93q24 0 40.5 -16.5t16.5 -42.5q0 -29 -23 -50.5t-53 -21.5h-121l-90 -246h113q25 0 41 -16t16 -41q0 -31 -22.5 -52.5
t-53.5 -21.5h-141l-158 -438q-19 -47 -69 -47l2 -2q-22 3 -35.5 18.5t-13.5 38.5q0 11 6 23l147 407h-256l-157 -438q-9 -22 -28 -34.5t-42 -12.5l2 -2q-22 3 -35.5 18.5t-13.5 38.5q0 11 6 23l147 407h-88q-26 0 -42.5 16t-16.5 41q0 30 24.5 52t53.5 22h117l90 246h-111
q-25 0 -41 16t-16 41q0 30 24 52t51 22zM575 850l-90 -246h256l88 246h-254z" />
    <glyph glyph-name="dollar" unicode="$" horiz-adv-x="1024" 
d="M469 -74l16 115q-56 2 -113.5 10t-112.5 23.5t-89.5 42t-34.5 59.5q0 27 23.5 50.5t50.5 23.5q7 0 65 -25q99 -42 230 -49l69 502q-58 20 -95 35.5t-83.5 43t-73.5 58.5t-46 78.5t-19 105.5q0 173 113.5 280t306.5 124l16 117q2 15 16 27t31 12q15 0 24 -12t7 -27
l-16 -117q288 -25 288 -121q0 -27 -21 -47.5t-54 -20.5q-34 0 -72 19q-58 25 -160 37l-67 -477q57 -20 95 -36t84.5 -44t74 -59t46.5 -79t19 -106q0 -174 -118.5 -286.5t-305.5 -139.5l-16 -117q-3 -15 -15.5 -26t-27.5 -11q-17 0 -27.5 11t-7.5 26zM838 444q0 121 -101 170
q-72 31 -90 37l-65 -473q256 44 256 266zM508 856q8 -4 40.5 -19t45.5 -22l63 453q-114 -15 -185 -72t-71 -168q0 -115 107 -172z" />
    <glyph glyph-name="percent" unicode="%" horiz-adv-x="1439" 
d="M518 831q-114 0 -176.5 74.5t-62.5 192.5q0 157 89.5 263.5t239.5 106.5q116 0 177 -73.5t61 -192.5q0 -158 -88 -264.5t-240 -106.5zM1051 -18q-116 0 -178 73t-62 193q0 156 90 263t240 107q115 0 176 -73.5t61 -192.5q0 -158 -88.5 -264t-238.5 -106zM1327 1380
l-895 -1353v2q-30 -43 -76 -33h2q-22 9 -30 31t2 47v-2l10 16l895 1352v-2q33 44 76 28q13 -4 20.5 -19.5t7.5 -33.5q0 -8 -1 -14t-2.5 -9.5t-3 -5t-3.5 -2.5zM532 930q104 0 154.5 73.5t50.5 198.5q0 80 -35.5 124t-107.5 44q-101 0 -152 -72.5t-51 -195.5q0 -172 141 -172
zM1065 80q101 0 152 73.5t51 198.5q0 80 -35.5 124t-106.5 44q-100 0 -152 -71.5t-52 -196.5q0 -172 143 -172z" />
    <glyph glyph-name="ampersand" unicode="&#x26;" horiz-adv-x="1314" 
d="M1229 57q0 -30 -22 -52.5t-50 -22.5q-20 0 -31.5 8.5t-25.5 27.5l-121 172q-230 -208 -457 -208q-167 0 -267.5 94.5t-100.5 240.5q0 71 23 135t59 112.5t90 95t103.5 78.5t113.5 67q-135 171 -135 315q0 100 57 180t144.5 121t185.5 41q123 0 205.5 -71t82.5 -164
q0 -38 -22.5 -61t-52.5 -23q-21 0 -35 14t-17 35q-8 61 -55 107.5t-117 46.5q-95 0 -170 -62t-75 -156q0 -55 33 -117.5t98 -152.5l334 -463q82 104 178 264q17 29 29.5 36t33.5 7q23 0 38 -16t15 -39q0 -54 -66 -154t-155 -202l142 -203q10 -13 10 -31zM911 291l-305 418
q-68 -34 -117.5 -65.5t-99 -76.5t-76 -101.5t-26.5 -121.5q0 -104 64.5 -174t174.5 -70q187 0 385 191z" />
    <glyph glyph-name="quotesingle" unicode="'" horiz-adv-x="454" 
d="M268 997l133 510q11 24 37 38.5t54 10.5q29 -3 42.5 -23.5t4.5 -45.5l-189 -506q-4 -14 -20.5 -24.5t-34.5 -12.5q-15 4 -23.5 21t-3.5 32z" />
    <glyph glyph-name="parenleft" unicode="(" horiz-adv-x="565" 
d="M328 248q0 -162 26.5 -332.5t75.5 -296.5q14 -42 14 -45q0 -28 -19.5 -51t-53.5 -23q-17 0 -32.5 9t-21.5 22q-61 139 -92.5 327.5t-31.5 372.5q0 292 99.5 585.5t282.5 547.5q28 35 62 35q27 0 40 -19t13 -45q0 -24 -26 -59q-159 -234 -247.5 -499t-88.5 -529z" />
    <glyph glyph-name="parenright" unicode=")" horiz-adv-x="563" 
d="M449 655q0 163 -26.5 330t-76.5 291q-14 37 -14 47q0 26 21.5 51t54.5 25q30 0 51 -35q62 -138 93.5 -325.5t31.5 -370.5q0 -292 -100 -589.5t-283 -547.5q-22 -31 -60 -31q-28 0 -42.5 17.5t-14.5 44.5q0 14 29 57q161 238 248.5 502.5t87.5 533.5z" />
    <glyph glyph-name="asterisk" unicode="*" horiz-adv-x="1013" 
d="M977 1227v-2q8 -24 -6.5 -43.5t-38.5 -30.5l-266 -74l172 -217q14 -17 13 -42.5t-24 -41.5q-25 -15 -46.5 -9t-35.5 24l-151 235l-154 -233q-14 -18 -37 -23.5t-47 6.5q-21 14 -22 41t14 43l174 217l-268 74q-22 10 -36 31.5t-7 44.5q8 27 31.5 35.5t44.5 -0.5l262 -99
l-14 277q-2 26 13.5 44.5t45.5 18.5q29 0 44 -19t13 -44l-14 -277l260 99q21 9 45.5 0.5t34.5 -35.5z" />
    <glyph glyph-name="plus" unicode="+" horiz-adv-x="1024" 
d="M532 289v373h-350q-28 0 -46.5 18.5t-18.5 46.5q0 27 20 46.5t45 19.5h350v370q0 26 20 47t48 21q26 0 45 -20t19 -48v-370h352q25 0 45 -19.5t20 -46.5t-19 -46t-46 -19h-352v-373q0 -26 -19 -46t-45 -20q-28 0 -48 20t-20 46z" />
    <glyph glyph-name="comma" unicode="," horiz-adv-x="471" 
d="M344 90q0 -56 -36 -138t-81 -141t-71 -59q-25 0 -25 19q0 7 2 14t4.5 13t8 15t9.5 14.5t12.5 17.5t12.5 18q3 5 12 17.5t14.5 21.5t15.5 29t20 46q-40 5 -66 31t-26 62q0 41 34.5 73.5t77.5 32.5q36 0 59 -25t23 -61z" />
    <glyph glyph-name="hyphen" unicode="-" horiz-adv-x="817" 
d="M813 602q0 -25 -16 -41t-41 -16h-523q-26 0 -43.5 16t-17.5 41q0 27 17.5 45.5t43.5 18.5h523q24 0 40.5 -18.5t16.5 -45.5z" />
    <glyph glyph-name="period" unicode="." horiz-adv-x="471" 
d="M344 90q0 -44 -32.5 -76t-75.5 -32q-37 0 -61.5 24.5t-24.5 61.5q0 42 34.5 75t77.5 33q36 0 59 -25t23 -61z" />
    <glyph glyph-name="slash" unicode="/" horiz-adv-x="573" 
d="M825 1475l-753 -1524q-10 -22 -31.5 -33t-44.5 -8q-20 3 -31.5 20t-11.5 39q0 15 8 31l752 1516q22 45 73 38q26 -4 37 -28t2 -51z" />
    <glyph glyph-name="zero" unicode="0" horiz-adv-x="1024" 
d="M709 1366q-140 0 -218.5 -87.5t-99.5 -238.5l-90 -641q-19 -135 41 -215t190 -80q128 0 209.5 80t100.5 215l90 641q21 151 -32 238.5t-191 87.5zM727 1487q102 0 176 -36.5t111.5 -99.5t52 -147.5t-1.5 -179.5l-88 -625q-26 -181 -150 -299t-313 -118q-127 0 -213 56
t-119 149.5t-16 211.5l88 625q13 97 49 179.5t93.5 146.5t142.5 100.5t188 36.5z" />
    <glyph glyph-name="one" unicode="1" horiz-adv-x="1024" 
d="M584 51l174 1241l-305 -178q-57 -39 -91 -39q-20 0 -35.5 14.5t-15.5 34.5q0 40 41 66l449 264q24 12 43 12q32 0 50 -21.5t13 -53.5l-188 -1340q-3 -28 -25 -47.5t-51 -19.5q-28 0 -45 19.5t-14 47.5z" />
    <glyph glyph-name="two" unicode="2" horiz-adv-x="1024" 
d="M938 72q0 -29 -22.5 -49.5t-53.5 -20.5h-688q-27 0 -44 18t-17 46q0 41 24 84q66 115 174.5 226t255.5 236q161 137 215 191q74 74 117 150.5t43 172.5q0 108 -60 174t-175 66q-113 0 -213 -41q-29 -13 -60 -33q-46 -24 -67 -24q-22 0 -39 15t-17 38q0 43 58 76
q161 90 356 90q167 0 260.5 -94t93.5 -240q0 -128 -53 -230t-152 -196q-77 -80 -196 -178q-137 -115 -232 -210.5t-165 -209.5h600q26 0 41.5 -16t15.5 -41z" />
    <glyph glyph-name="three" unicode="3" horiz-adv-x="1024" 
d="M1036 1315l-436 -475q173 -5 278 -95t105 -247q0 -67 -19 -137t-59.5 -138t-97.5 -121t-141 -85.5t-181 -32.5q-39 0 -89 5t-113.5 17.5t-105.5 40t-42 66.5q0 29 21.5 51t50.5 22q14 0 35 -12q47 -25 70.5 -36t75 -23.5t108.5 -12.5q95 0 166 37t109.5 96.5t56.5 122.5
t18 127q0 121 -70.5 179.5t-191.5 58.5q-38 0 -78 -16q-27 -11 -51 -11q-33 0 -44 35t17 66l467 512h-500q-26 0 -41.5 16t-15.5 41q0 31 22.5 54.5t53.5 23.5h585q28 0 45 -18.5t17 -49.5q0 -36 -25 -61z" />
    <glyph glyph-name="four" unicode="4" horiz-adv-x="1024" 
d="M866 313l-37 -264q-3 -27 -24.5 -46t-48.5 -19q-28 0 -45.5 18.5t-14.5 46.5l37 264h-536q-28 0 -45 19.5t-17 46.5q0 18 25 59l542 1006q13 16 31.5 27.5t32.5 11.5q21 0 38 -18.5t17 -43.5q0 -19 -6 -28l-516 -953h453l59 424q5 28 27.5 48t50.5 20q26 0 42.5 -20
t12.5 -48l-59 -424h106q23 0 37 -16.5t14 -40.5q0 -28 -20.5 -49t-48.5 -21h-107z" />
    <glyph glyph-name="five" unicode="5" horiz-adv-x="1024" 
d="M985 524q0 -74 -18 -149t-57 -145.5t-93.5 -125t-134.5 -87.5t-174 -33q-41 0 -94.5 5t-121 17.5t-112.5 40t-45 66.5q0 29 21.5 51t50.5 22q14 0 35 -12v2q50 -35 102.5 -54.5t130.5 -19.5q84 0 150 25.5t107 65.5t68 94.5t37.5 108.5t10.5 112q0 129 -64.5 196.5
t-171.5 67.5q-83 0 -168 -45l-47 -29q-37 -26 -65 -26q-30 0 -48 20.5t-12 52.5l109 625q7 36 34 57t58 21h504q72 0 72 -57q0 -34 -26.5 -51t-61.5 -17h-467l-86 -496q118 62 225 62q161 0 256.5 -97.5t95.5 -267.5z" />
    <glyph glyph-name="six" unicode="6" horiz-adv-x="1024" 
d="M346 788q132 97 313 97q155 0 252 -95.5t97 -271.5q0 -106 -32 -201.5t-91.5 -170.5t-154.5 -119.5t-212 -44.5q-348 0 -348 493q0 213 36 392t106 313.5t181.5 210t254.5 75.5q33 0 74.5 -3.5t94 -12.5t87 -29t34.5 -49q0 -24 -20 -44.5t-47 -20.5q-13 0 -41 8
q-106 33 -172 33q-97 0 -170.5 -42.5t-120.5 -122.5t-75.5 -175t-45.5 -220zM319 631l-8 -58q-11 -79 -12.5 -141.5t9.5 -124t37.5 -102.5t77 -66.5t122.5 -25.5q71 0 128 23.5t93.5 61.5t61 89.5t34.5 104.5t10 110q0 126 -63.5 191t-173.5 65q-89 0 -175.5 -36t-140.5 -91
z" />
    <glyph glyph-name="seven" unicode="7" horiz-adv-x="1024" 
d="M1114 1384q0 -19 -12 -47l-707 -1312q-21 -41 -65 -41q-27 0 -44.5 15.5t-17.5 39.5q0 12 11 37v-2l673 1241h-590q-22 0 -38.5 16.5t-16.5 40.5q0 32 23 54t53 22h670q27 0 44 -18t17 -46z" />
    <glyph glyph-name="eight" unicode="8" horiz-adv-x="1024" 
d="M1020 438q0 -192 -146 -324t-360 -132q-177 0 -287 100t-110 256q0 262 332 426q-177 121 -177 301q0 117 63 209.5t164.5 141t221.5 48.5q153 0 250.5 -87t97.5 -226q0 -223 -270 -375q221 -129 221 -338zM934 1130q0 97 -63.5 157.5t-163.5 60.5q-127 0 -215.5 -78.5
t-88.5 -198.5q0 -94 67.5 -158t170.5 -84q124 26 208.5 107.5t84.5 193.5zM887 428q0 113 -80 184t-199 95q-153 -29 -254.5 -121.5t-101.5 -227.5q0 -111 78 -183.5t202 -72.5q149 0 252 95.5t103 230.5z" />
    <glyph glyph-name="nine" unicode="9" horiz-adv-x="1024" 
d="M895 686q-60 -64 -146 -93.5t-171 -29.5q-155 0 -253 94t-98 273q0 104 30.5 198.5t89 171t153 121.5t213.5 45q350 0 350 -501q0 -171 -19.5 -316.5t-63 -270t-109.5 -211.5t-163 -136t-219 -49q-34 0 -75 3.5t-94 12.5t-88 29t-35 49q0 24 21.5 44.5t47.5 20.5
q11 0 41 -10q113 -31 195 -31q73 0 133 31t101.5 82.5t73.5 129t51.5 159.5t33.5 184zM918 813l8 59q16 98 9.5 183t-32 147t-81 97.5t-136.5 35.5q-69 0 -124.5 -24t-91.5 -62.5t-60.5 -90.5t-34.5 -106t-10 -110q0 -125 63 -188.5t178 -63.5q88 0 172 34.5t140 88.5z" />
    <glyph glyph-name="colon" unicode=":" horiz-adv-x="471" 
d="M344 90q0 -44 -32.5 -76t-75.5 -32q-37 0 -61.5 24.5t-24.5 61.5q0 42 34.5 75t77.5 33q36 0 59 -25t23 -61zM430 704q0 -44 -32.5 -76t-75.5 -32q-37 0 -61.5 24.5t-24.5 61.5q0 42 34.5 75t77.5 33q36 0 59 -25t23 -61z" />
    <glyph glyph-name="semicolon" unicode=";" horiz-adv-x="471" 
d="M344 90q0 -56 -36 -138t-81 -141t-71 -59q-25 0 -25 19q0 7 2 14t4.5 13t8 15t9.5 14.5t12.5 17.5t12.5 18q3 5 12 17.5t14.5 21.5t15.5 29t20 46q-40 5 -66 31t-26 62q0 41 34.5 73.5t77.5 32.5q36 0 59 -25t23 -61zM430 705q0 -44 -32.5 -76.5t-75.5 -32.5
q-37 0 -61.5 24.5t-24.5 61.5q0 42 34.5 75.5t77.5 33.5q36 0 59 -25t23 -61z" />
    <glyph glyph-name="less" unicode="&#x3c;" horiz-adv-x="1280" 
d="M416 723l723 -393q17 -9 29 -25t12 -31q0 -36 -32.5 -61t-62.5 -8l-780 438q-55 29 -55 72q0 35 18 52.5t58 35.5l901 438q34 9 57 -8t23 -49q0 -21 -17 -41t-41 -29z" />
    <glyph glyph-name="equal" unicode="=" horiz-adv-x="1024" 
d="M266 604h666q25 0 45 -19t20 -46q0 -28 -18.5 -47t-46.5 -19h-666q-28 0 -46.5 19t-18.5 47q0 27 20 46t45 19zM266 981h666q25 0 45 -19.5t20 -46.5q0 -28 -18.5 -46.5t-46.5 -18.5h-666q-28 0 -46.5 18.5t-18.5 46.5q0 27 20 46.5t45 19.5z" />
    <glyph glyph-name="greater" unicode="&#x3e;" horiz-adv-x="1280" 
d="M283 330l778 393l-778 391q-52 23 -52 62q0 36 29 59t59 6l844 -438q30 -15 45 -31.5t15 -48.5q0 -31 -16 -48t-46 -32l-842 -438q-30 -17 -59 6t-29 59q0 17 14 33t38 27z" />
    <glyph glyph-name="question" unicode="?" horiz-adv-x="946" 
d="M623 512q-19 -33 -27 -88q-3 -27 -25 -46.5t-51 -19.5q-26 0 -42.5 17.5t-16.5 42.5q0 40 22 82q29 59 73.5 110.5t111.5 114.5q64 65 77 78q74 78 117 152.5t43 168.5q0 109 -60.5 175.5t-176.5 66.5q-111 0 -211 -41q-3 -1 -60 -33q-39 -24 -67 -24q-24 0 -41 15.5
t-17 39.5q0 40 60 74q161 90 354 90q168 0 262 -94t94 -240q0 -128 -53 -229.5t-151 -196.5q-42 -44 -78 -72q-2 -2 -17 -15.5t-18 -16t-16 -14.5t-17.5 -16t-15 -14.5t-15.5 -16.5t-13 -15.5t-14 -17.5t-11 -17zM578 90q0 -44 -33 -76t-76 -32q-37 0 -61.5 24.5t-24.5 61.5
q0 42 35 75t78 33q36 0 59 -25t23 -61z" />
    <glyph glyph-name="at" unicode="@" horiz-adv-x="1523" 
d="M1061 29q-55 -25 -142 -39.5t-174 -14.5q-248 0 -387 153t-139 407q0 163 50 303.5t142.5 243t230.5 160.5t306 58q135 0 241.5 -42.5t173 -117.5t101.5 -174t35 -216q0 -86 -15.5 -158.5t-48.5 -132t-91.5 -93.5t-137.5 -34q-119 0 -176 96q-131 -117 -248 -117
q-107 0 -165 76t-58 197q0 171 94 279t256 108q125 0 175.5 -87.5t50.5 -269.5q0 -161 90 -161q137 0 137 276q0 203 -109.5 327t-318.5 124q-179 0 -312.5 -83t-201.5 -226t-68 -326q0 -207 113 -329t326 -122q127 0 233 45q11 4 20 8t14 6t9 3q22 7 48 -3.5t30 -33.5
q7 -50 -84 -90zM1004 702q0 150 -119 150q-100 0 -147.5 -73t-47.5 -195q0 -158 123 -158q84 0 193 88q-2 18 -2 188z" />
    <glyph glyph-name="A" unicode="A" horiz-adv-x="1124" 
d="M338 334l-135 -303q-12 -19 -33.5 -34t-38.5 -15q-28 0 -45.5 16t-17.5 43q0 11 8 35l590 1290q21 48 46 74t62 26q64 0 82 -100l225 -1290q0 -19 -2 -27q-4 -30 -26.5 -48.5t-53.5 -18.5q-20 0 -38 14t-21 35l-51 303h-551zM741 1243l-346 -776h473z" />
    <glyph glyph-name="B" unicode="B" horiz-adv-x="1110" 
d="M414 819h258q59 0 117.5 18t109 52.5t82 93t31.5 131.5q0 87 -57 144t-179 57h-293zM657 686h-264l-78 -553h273q177 0 272.5 84.5t95.5 220.5q0 118 -82 183t-217 65zM592 2h-346q-35 0 -56 24.5t-16 59.5l180 1274q4 36 33.5 61t63.5 25h354q167 0 254.5 -93t87.5 -229
q0 -73 -22.5 -132.5t-67 -105t-96.5 -78.5t-123 -65q43 -17 72.5 -30.5t67.5 -39t60.5 -54t39 -72.5t16.5 -98q0 -187 -141 -317t-361 -130z" />
    <glyph glyph-name="C" unicode="C" horiz-adv-x="987" 
d="M172 500l64 448q35 242 169 380t361 138q86 0 162.5 -21t123 -57t46.5 -77q0 -28 -19.5 -47t-48.5 -19q-16 0 -43 19l-18 12q-95 70 -211 70q-178 0 -267.5 -102t-117.5 -296l-64 -448q-14 -91 -5.5 -164t38 -124.5t90.5 -79.5t152 -28q122 0 225 66l25 14q34 21 49 21
q24 0 37.5 -14.5t13.5 -36.5q0 -45 -55 -84.5t-142 -62.5t-180 -23q-227 0 -322.5 137.5t-62.5 378.5z" />
    <glyph glyph-name="D" unicode="D" horiz-adv-x="1134" 
d="M1116 539q-12 -87 -40.5 -163.5t-80 -146t-121 -119t-170 -79t-221.5 -29.5h-237q-34 0 -55 24.5t-17 59.5l180 1276q4 35 33.5 60.5t63.5 25.5h237q101 0 182.5 -19.5t135.5 -54.5t93 -83.5t56 -106t22.5 -122t-6.5 -132.5zM979 539l55 391q8 65 5 123t-26 106.5
t-61 83.5t-101 54.5t-146 19.5h-222l-168 -1184h222q104 0 185 31t132.5 88t82 128t42.5 159z" />
    <glyph glyph-name="E" unicode="E" horiz-adv-x="970" 
d="M911 78q0 -31 -23.5 -53.5t-53.5 -22.5h-555q-52 0 -82.5 19t-24.5 63l180 1278q5 33 33 58.5t64 25.5h567q24 0 39.5 -17.5t15.5 -44.5q0 -29 -22 -49t-52 -20h-516l-73 -522h475q25 0 41 -16.5t16 -41.5q0 -30 -22.5 -51.5t-53.5 -21.5h-475l-74 -529h537
q24 0 41.5 -16.5t17.5 -38.5z" />
    <glyph glyph-name="F" unicode="F" horiz-adv-x="970" 
d="M391 662l-86 -613q-5 -28 -26.5 -47.5t-49.5 -19.5q-29 0 -46.5 19.5t-12.5 47.5l184 1313q5 33 32 58.5t63 25.5h567q26 0 41.5 -17.5t15.5 -44.5q0 -29 -22.5 -49t-53.5 -20h-516l-71 -522h475q23 0 39 -16.5t16 -41.5q0 -30 -22 -51.5t-52 -21.5h-475z" />
    <glyph glyph-name="G" unicode="G" horiz-adv-x="1064" 
d="M373 948l-64 -448q-14 -91 -5.5 -164t38 -124.5t90.5 -79.5t152 -28q144 0 264 84l67 476h-219q-24 0 -39.5 15.5t-15.5 39.5q0 29 22.5 50.5t49.5 21.5h250q47 0 72.5 -20.5t19.5 -61.5l-72 -500q-9 -74 -79.5 -127t-161 -75.5t-185.5 -22.5q-227 0 -322.5 137.5
t-62.5 378.5l64 448q35 242 169 380t361 138q86 0 162.5 -21t123 -57t46.5 -77q0 -27 -20.5 -46.5t-47.5 -19.5q-16 0 -43 19q-2 2 -10 6.5t-10 5.5q-92 70 -209 70q-178 0 -267.5 -102t-117.5 -296z" />
    <glyph glyph-name="H" unicode="H" horiz-adv-x="1187" 
d="M1044 51q-4 -29 -26.5 -49t-50.5 -20q-27 0 -45.5 20.5t-14.5 48.5l84 608h-602l-84 -608q-5 -29 -27 -49t-51 -20q-28 0 -44.5 20t-12.5 49l188 1348q5 27 28 47t50 20q29 0 46 -20t12 -47l-86 -608h602l86 608q4 26 29 46.5t51 20.5t43.5 -20.5t13.5 -46.5z" />
    <glyph glyph-name="I" unicode="I" horiz-adv-x="464" 
d="M172 49l188 1350q5 26 28.5 46.5t51.5 20.5q29 0 46 -20t12 -47l-189 -1350q-5 -28 -27 -47.5t-51 -19.5q-28 0 -45.5 20t-13.5 47z" />
    <glyph glyph-name="J" unicode="J" horiz-adv-x="788" 
d="M829 1399l-131 -942q-34 -236 -142.5 -355.5t-330.5 -119.5q-153 0 -153 69q0 33 22 53.5t45 20.5q5 0 33 -4q58 -10 94 -10q75 0 128 23.5t85.5 71.5t50.5 106.5t31 144.5l131 942q5 28 28 47.5t52 19.5q26 0 43.5 -20.5t13.5 -46.5z" />
    <glyph glyph-name="K" unicode="K" horiz-adv-x="1019" 
d="M887 12l-371 678l-143 -149l-68 -490q-5 -29 -27 -49t-51 -20q-28 0 -44.5 20t-12.5 49l188 1348q5 27 28 47t50 20q29 0 46 -20t12 -47l-93 -656l656 689q30 34 69 34q22 0 38 -17t10 -48q-5 -26 -23 -47v2l-535 -561l394 -709h-2q4 -6 4 -23q0 -29 -16.5 -55t-53.5 -26
q-35 0 -55 30z" />
    <glyph glyph-name="L" unicode="L" horiz-adv-x="917" 
d="M905 74q0 -29 -23 -50.5t-51 -21.5h-589q-33 0 -53.5 22.5t-16.5 55.5l186 1319q3 27 26 47t52 20q27 0 44 -20t14 -47l-179 -1268h535q22 0 38.5 -16.5t16.5 -40.5z" />
    <glyph glyph-name="M" unicode="M" horiz-adv-x="1431" 
d="M1487 1393l-191 -1348q-3 -26 -24.5 -44.5t-48.5 -18.5q-28 0 -47.5 18.5t-16.5 44.5l154 1085q-36 -60 -477 -778q-24 -41 -70 -41q-45 0 -61 41l-259 778l-153 -1085q-3 -26 -26 -44.5t-54 -18.5q-26 0 -42 18.5t-13 44.5l190 1348q4 32 28 52.5t56 20.5q50 0 68 -47v2
l297 -907l549 909v-2q31 45 79 45q30 0 48 -21.5t14 -51.5z" />
    <glyph glyph-name="N" unicode="N" horiz-adv-x="1228" 
d="M999 -18q-22 0 -41 10t-26 28l-467 1170l-160 -1139q-4 -29 -27.5 -49t-52.5 -20q-28 0 -44.5 20t-12.5 49l186 1338q6 34 31 55.5t57 21.5q52 0 68 -43l467 -1171l162 1145q5 28 28.5 48.5t51.5 20.5q27 0 43.5 -20.5t11.5 -48.5l-189 -1340q-5 -33 -29 -54t-57 -21z
" />
    <glyph glyph-name="O" unicode="O" horiz-adv-x="1128" 
d="M565 -18q-150 0 -247 70t-132 185.5t-14 262.5l64 448q15 110 54 201t103 163.5t161.5 113t219.5 40.5q97 0 172 -26.5t121 -74t74 -113t32 -142t-6 -162.5l-63 -448q-21 -147 -88 -262.5t-184 -185.5t-267 -70zM756 1335q-331 0 -383 -387l-64 -448q-26 -177 43 -282
t232 -105t260 104.5t123 282.5l63 448q52 387 -274 387z" />
    <glyph glyph-name="P" unicode="P" horiz-adv-x="1085" 
d="M633 547h-258l-70 -494q-5 -30 -27 -50.5t-51 -20.5q-27 0 -44 20.5t-13 50.5l182 1307q6 35 35 60.5t64 25.5h307q105 0 183.5 -30.5t123.5 -84.5t66.5 -120.5t21.5 -145.5q0 -244 -142 -381t-378 -137zM481 1315l-88 -637h258q182 0 274.5 95t92.5 282q0 53 -13.5 97
t-43.5 82t-86.5 59.5t-135.5 21.5h-258z" />
    <glyph glyph-name="Q" unicode="Q" horiz-adv-x="1128" 
d="M743 -369q-128 0 -190.5 96t-48.5 257q-190 24 -275.5 166.5t-56.5 349.5l64 448q15 110 54.5 201t103.5 163.5t162 113t220 40.5q97 0 172 -26.5t120.5 -74t73.5 -113t31.5 -142t-6.5 -162.5l-63 -448q-29 -205 -150 -346t-313 -168q-15 -127 21.5 -181.5t125.5 -54.5
q6 0 18.5 1t18.5 1h23q57 0 57 -53q0 -24 -11.5 -38.5t-37.5 -20.5t-48.5 -7.5t-64.5 -1.5zM758 1335q-330 0 -385 -387l-64 -448q-24 -177 45 -282t232 -105t260 104.5t121 282.5l63 448q55 387 -272 387z" />
    <glyph glyph-name="R" unicode="R" horiz-adv-x="1177" 
d="M1198 1102q0 -181 -105 -296.5t-286 -150.5l266 -569l-2 2q4 -12 4 -31q0 -31 -29 -52t-55 -21q-34 0 -51 30l-285 637h-266l-84 -598q-5 -29 -28 -50t-52 -21q-27 0 -44 20.5t-13 50.5l182 1307q6 35 34 60.5t60 25.5h365q106 0 184 -28.5t121 -78t63.5 -108.5
t20.5 -129zM1061 1087q0 46 -13 84.5t-43 72t-87 52.5t-136 19h-301l-73 -535h313q165 0 252.5 79t87.5 228z" />
    <glyph glyph-name="S" unicode="S" horiz-adv-x="995" 
d="M819 426q0 130 -98 184q-50 30 -154 66q-33 12 -52.5 19t-51 20.5t-50.5 24t-45 27.5t-42 34t-34 40.5t-27.5 49t-16 58t-6.5 69.5q0 203 129 325.5t342 122.5q43 0 92 -5.5t103.5 -17.5t90 -36.5t35.5 -58.5q0 -29 -21 -50.5t-55 -21.5q-33 0 -69 18q-34 14 -50.5 20
t-54.5 13.5t-77 7.5q-50 0 -94.5 -8.5t-86.5 -30t-71.5 -53.5t-47.5 -83t-18 -116q0 -129 103 -184q61 -34 155 -65q55 -18 93 -34t85 -45.5t75.5 -63t48.5 -85.5t20 -116q0 -107 -39.5 -196.5t-108 -148.5t-161 -91.5t-197.5 -32.5q-51 0 -108.5 7.5t-114 22t-93 41
t-36.5 60.5q0 28 22.5 50.5t48.5 22.5q19 0 72 -22q42 -17 61.5 -24t69 -17t98.5 -10q164 0 250 83.5t86 229.5z" />
    <glyph glyph-name="T" unicode="T" horiz-adv-x="989" 
d="M436 49l178 1266h-299q-27 0 -44 16t-17 41q0 26 25 50t55 24h735q25 0 43 -17t18 -43q0 -29 -24 -50t-55 -21h-301l-179 -1266q-3 -28 -25 -47.5t-50 -19.5q-29 0 -46 19.5t-14 47.5z" />
    <glyph glyph-name="U" unicode="U" horiz-adv-x="1171" 
d="M1104 467q-30 -215 -168.5 -350t-345.5 -135q-211 0 -311 135t-70 350l131 926q4 32 28 52.5t54 20.5q27 0 42.5 -21t12.5 -52l-131 -926q-23 -163 43 -258.5t219 -95.5q152 0 243 96.5t114 257.5l131 926q3 29 26.5 51t51.5 22q29 0 46.5 -21.5t14.5 -51.5z" />
    <glyph glyph-name="V" unicode="V" horiz-adv-x="1083" 
d="M379 1415l196 -1212l541 1212q9 22 30.5 36.5t41.5 14.5q28 0 45.5 -16t17.5 -43q0 -8 -3 -21.5t-5 -15.5l-588 -1290q-48 -98 -110 -98q-37 0 -55 25.5t-25 72.5l-227 1290v16q0 36 24 58t57 22q17 0 34.5 -15.5t25.5 -35.5z" />
    <glyph glyph-name="W" unicode="W" horiz-adv-x="1589" 
d="M1069 68l-96 1134q-49 -134 -199 -540t-219 -596q-41 -84 -109 -84q-36 0 -58 23t-28 61l-127 1327l3 8q3 26 29.5 41.5t56.5 15.5q19 0 35 -14t20 -35l108 -1184l414 1131q22 56 46.5 83t64.5 27q39 0 55.5 -28t19.5 -82l103 -1133l438 1186q24 49 62 49
q30 0 53.5 -13.5t23.5 -39.5q0 -16 -6 -25v-2l-495 -1312q-15 -35 -44 -59.5t-65 -24.5q-37 0 -59 25t-27 61z" />
    <glyph glyph-name="X" unicode="X" horiz-adv-x="1024" 
d="M610 653l-436 -620q-31 -51 -72 -51q-23 0 -39 18t-16 43q0 29 16 45l480 666l-271 608l2 -2q-4 16 -4 33q0 28 22 50.5t50 22.5q19 0 37 -18.5t29 -46.5l229 -549l383 549h-2q45 65 88 65q21 0 35 -17t14 -42q0 -19 -14 -47l2 2l-436 -608l290 -666q4 -12 4 -27
q0 -31 -22.5 -55t-48.5 -24q-35 0 -62 51z" />
    <glyph glyph-name="Y" unicode="Y" horiz-adv-x="974" 
d="M492 -18q-31 0 -48.5 20t-13.5 51l74 518l-262 791q-4 16 -4 29q0 29 25.5 52t55.5 23q34 0 46 -26v2l231 -719l430 719v-2q17 26 55 26q25 0 42.5 -18t17.5 -43q0 -11 -13 -43l-487 -799l-72 -510q-5 -30 -26.5 -50.5t-50.5 -20.5z" />
    <glyph glyph-name="Z" unicode="Z" horiz-adv-x="991" 
d="M938 80q0 -33 -22.5 -55.5t-55.5 -22.5h-717q-29 0 -46 19t-17 47q0 26 29 67l825 1176h-608q-26 0 -43 16t-17 41q0 31 23.5 54.5t54.5 23.5h709q29 0 47 -19t18 -47q0 -20 -28 -65l-828 -1178h617q26 0 42.5 -16t16.5 -41z" />
    <glyph glyph-name="bracketleft" unicode="[" horiz-adv-x="602" 
d="M516 -180q0 -36 -31 -54t-69 -18h-213q-26 0 -43.5 19.5t-14.5 44.5l250 1769q8 66 103 66h213q21 0 37 -17t16 -41q0 -35 -29 -51t-67 -16h-148l-231 -1647h147q80 0 80 -55z" />
    <glyph glyph-name="backslash" unicode="\" horiz-adv-x="573" 
d="M492 -49l-326 1519l-2 11q2 26 19 47.5t42 25.5q24 3 43 -7t23 -31l325 -1516q6 -31 -14 -58t-47 -32q-23 -3 -41 8t-22 33z" />
    <glyph glyph-name="bracketright" unicode="]" horiz-adv-x="602" 
d="M406 -188q-3 -26 -23.5 -45t-46.5 -19h-215q-37 0 -61.5 13.5t-24.5 43.5q0 70 102 70h146l231 1647h-145q-84 0 -84 53q0 38 30 55t72 17h215q23 0 39.5 -20.5t13.5 -45.5z" />
    <glyph glyph-name="asciicircum" unicode="^" horiz-adv-x="667" 
d="M528 1370l-276 -291q-12 -16 -39 -16q-22 0 -34 10t-9 27q4 25 47 71l272 285q24 27 56 27q28 0 45 -27l192 -285q29 -40 29 -71l-2 2q-3 -17 -17 -28t-34 -11q-25 0 -37 16z" />
    <glyph glyph-name="underscore" unicode="_" horiz-adv-x="1228" 
d="M4 -367h1235q25 0 44.5 -19.5t19.5 -47.5q0 -26 -19 -45t-45 -19h-1235q-29 0 -48 18.5t-19 45.5q0 29 20 48t47 19z" />
    <glyph glyph-name="grave" unicode="`" horiz-adv-x="403" 
d="M377 1466l149 -186q6 -6 6 -16q0 -24 -19.5 -43t-41.5 -19q-27 0 -53 33l-139 180q-7 11 -7 21q0 22 19 40.5t39 18.5q7 0 12 -1t10 -5t7.5 -5.5t9 -8.5t8.5 -9z" />
    <glyph glyph-name="a" unicode="a" horiz-adv-x="987" 
d="M422 -14q-156 0 -224.5 103.5t-43.5 277.5l39 268q60 420 423 420q184 0 253 -102.5t40 -309.5l-63 -463q-12 -80 43 -80q5 0 10 1t6 1q19 0 29 -13.5t10 -33.5q0 -32 -26 -47.5t-60 -15.5q-46 0 -82 31t-57 86q-138 -123 -297 -123zM471 100q119 0 244 101l69 497
q17 124 -28.5 184t-155.5 60q-123 0 -186.5 -73.5t-87.5 -233.5l-39 -268q-38 -267 184 -267z" />
    <glyph glyph-name="b" unicode="b" horiz-adv-x="993" 
d="M412 827l-74 -526q-12 -91 45.5 -143t167.5 -52q119 0 186 62.5t82 175.5l55 397q29 203 -188 203q-150 0 -274 -117zM205 301l160 1135q3 26 23.5 45.5t51.5 19.5t46 -19.5t12 -45.5l-68 -482q153 101 313 101q83 0 141 -24.5t86 -66.5t39 -99.5t-1 -123.5l-56 -397
q-23 -159 -132.5 -258.5t-287.5 -99.5q-173 0 -259.5 89t-67.5 226z" />
    <glyph glyph-name="c" unicode="c" horiz-adv-x="804" 
d="M152 356l45 320q25 167 130 270t287 103q37 0 78.5 -5t84 -16.5t70 -33.5t27.5 -52q0 -25 -18.5 -43t-44.5 -18q-13 0 -29 4h2q-31 17 -50 26t-51.5 17t-68.5 8q-129 0 -196.5 -66t-87.5 -194l-45 -320q-37 -258 213 -258q37 0 72.5 8t54.5 16t55 25h-2q24 7 31 7
q21 0 35 -15t14 -37q0 -32 -31.5 -56t-80 -36t-94.5 -18t-87 -6q-182 0 -259 102t-54 268z" />
    <glyph glyph-name="d" unicode="d" horiz-adv-x="999" 
d="M588 1047q108 0 241 -46l62 435q3 27 24 46t52 19t45.5 -18.5t11.5 -46.5l-170 -1211q-8 -49 1 -80.5t40 -58.5q4 -12 4 -23q0 -27 -19.5 -45t-45.5 -18q-64 0 -97 72q-179 -86 -315 -86q-156 0 -224 103.5t-44 277.5l39 268q14 96 41 168t72.5 128.5t116.5 86t165 29.5z
M721 225l92 660q-54 24 -116 37.5t-103 13.5q-123 0 -184.5 -71t-83.5 -230l-39 -268q-35 -267 184 -267q108 0 250 66q-4 35 0 59z" />
    <glyph glyph-name="e" unicode="e" horiz-adv-x="890" 
d="M498 98q44 0 87.5 9.5t68 19t77.5 31.5q12 6 23 6q23 0 37 -15t14 -36q0 -34 -37 -60t-93.5 -40t-111.5 -20.5t-102 -6.5q-167 0 -251 94t-63 239l56 394q21 151 132.5 246.5t287.5 95.5q145 0 217.5 -72t72.5 -201q0 -167 -93.5 -259.5t-291.5 -92.5q-117 0 -229 23
l-20 -146q-12 -96 43.5 -152.5t175.5 -56.5zM782 768q0 170 -182 170q-109 0 -178.5 -56.5t-83.5 -152.5l-25 -174q115 -16 238 -16q231 0 231 229z" />
    <glyph glyph-name="f" unicode="f" horiz-adv-x="673" 
d="M115 -360l207 1478q27 186 136 281.5t271 101.5q12 3 39.5 0.5t55.5 -7.5t49.5 -21.5t21.5 -42.5q0 -31 -21 -50.5t-51 -19.5q-27 0 -47 4q-67 10 -80 10q-97 0 -161 -68.5t-78 -170.5l-21 -146h238q23 0 36 -15t13 -40q0 -28 -20 -48t-46 -20h-237l-172 -1226
q-5 -29 -25 -46.5t-51 -17.5q-32 0 -47 18t-10 46z" />
    <glyph glyph-name="g" unicode="g" horiz-adv-x="1042" 
d="M778 205l74 526q13 95 -43 150t-166 55q-119 0 -186.5 -64.5t-85.5 -183.5l-47 -334q-16 -124 27.5 -190t160.5 -66q150 0 266 107zM985 731l-117 -829q-23 -166 -127.5 -269.5t-283.5 -103.5q-39 0 -81.5 5.5t-85 16.5t-70 33t-27.5 51q0 24 19.5 44t43.5 20q13 0 31 -6
h-2q82 -49 170 -49q128 0 195 65.5t85 192.5l25 174q-150 -88 -297 -88q-324 0 -273 366l48 334q23 162 133 264.5t288 102.5q172 0 259.5 -92.5t66.5 -231.5z" />
    <glyph glyph-name="h" unicode="h" horiz-adv-x="1038" 
d="M780 184l74 533q31 217 -168 217q-70 0 -145.5 -34.5t-134.5 -100.5l-105 -748q-5 -28 -25.5 -46.5t-46.5 -18.5q-29 0 -45.5 18.5t-11.5 46.5l195 1395q3 26 24.5 46.5t48.5 20.5q28 0 44 -19t12 -48l-70 -498q154 107 297 107q156 0 221.5 -91t42.5 -245l-74 -535
q-12 -71 19 -110q4 -4 4 -25q0 -26 -19.5 -44.5t-48.5 -18.5q-116 0 -88 198z" />
    <glyph glyph-name="i" unicode="i" horiz-adv-x="501" 
d="M537 1405q0 -38 -30.5 -66t-68.5 -28q-33 0 -53 21.5t-20 51.5q0 40 29 68.5t69 28.5q31 0 52.5 -22t21.5 -54zM213 184l113 797q3 28 24.5 48t50.5 20q26 0 43.5 -20t14.5 -48l-113 -797q-8 -61 19 -110q6 -12 6 -25q0 -26 -20.5 -44.5t-49.5 -18.5q-116 0 -88 198z" />
    <glyph glyph-name="j" unicode="j" horiz-adv-x="501" 
d="M461 981l-146 -1028q-22 -154 -113 -255.5t-225 -123.5h-36q-19 0 -34 11.5t-16 29.5q-3 32 16.5 49t45.5 23q100 21 155 80.5t72 177.5l148 1036q3 28 24.5 48t50.5 20q26 0 43.5 -20t14.5 -48zM537 1405q0 -38 -30 -66t-67 -28q-33 0 -54 22t-21 53q0 38 30 66.5
t70 28.5q31 0 51.5 -22t20.5 -54z" />
    <glyph glyph-name="k" unicode="k" horiz-adv-x="899" 
d="M498 1434l-115 -826l469 424q15 15 41 15q23 0 38 -15.5t15 -38.5q0 -34 -20 -51l-367 -326l287 -538q8 -12 8 -35q0 -25 -21.5 -41t-50.5 -16q-36 0 -51 30l-264 514l-109 -98l-53 -381q-4 -27 -26.5 -46t-49.5 -19q-29 0 -45.5 18.5t-11.5 46.5l193 1383
q5 28 26.5 47.5t50.5 19.5q27 0 43.5 -20t12.5 -47z" />
    <glyph glyph-name="l" unicode="l" horiz-adv-x="466" 
d="M195 184l174 1233q3 27 24.5 47.5t48.5 20.5q28 0 44.5 -20t13.5 -48l-174 -1233q-9 -73 20 -110q6 -6 6 -25q0 -26 -20 -44.5t-49 -18.5q-116 0 -88 198z" />
    <glyph glyph-name="m" unicode="m" horiz-adv-x="1593" 
d="M391 954q170 101 326 101q154 0 227 -115q163 115 324 115q160 0 234 -93.5t52 -250.5l-73 -527q-11 -65 18 -110q4 -8 4 -25q0 -27 -19 -45t-48 -18q-116 0 -88 198l73 523q13 101 -31 165t-145 64q-70 0 -141.5 -34.5t-122.5 -88.5q2 -39 -4 -102l-92 -660
q-10 -63 -76 -63q-33 0 -47.5 17t-9.5 46l86 613q10 81 6.5 141.5t-42.5 95.5t-118 35q-66 0 -139.5 -27t-132.5 -67q0 -47 -4 -74l-101 -717q-5 -29 -25 -46t-51 -17q-33 0 -47.5 17t-9.5 46l100 717q14 102 -16 156q-6 12 -6 28q0 27 20.5 46.5t46.5 19.5q49 0 72 -64z
" />
    <glyph glyph-name="n" unicode="n" horiz-adv-x="1042" 
d="M397 950q160 101 322 101q156 0 222.5 -103t41.5 -280l-68 -484q-9 -67 19 -110q4 -8 4 -25q0 -26 -19.5 -44.5t-48.5 -18.5q-116 0 -88 198l68 484q19 128 -25.5 198t-146.5 70q-118 0 -264 -98q2 -23 -2 -70l-101 -717q-5 -29 -24.5 -46t-50.5 -17q-33 0 -48 17t-12 46
l103 717q14 101 -17 156q-6 12 -6 28q0 27 21 46.5t47 19.5q21 0 41 -18t32 -50z" />
    <glyph glyph-name="o" unicode="o" horiz-adv-x="950" 
d="M479 -14q-179 0 -264.5 100t-62.5 258l49 352q23 158 137 259.5t293 101.5q180 0 265 -101.5t62 -259.5l-49 -352q-23 -158 -136.5 -258t-293.5 -100zM498 106q121 0 192 63t86 175l49 354q15 113 -38 176.5t-173 63.5t-192.5 -64t-87.5 -176l-49 -354q-15 -112 39 -175
t174 -63z" />
    <glyph glyph-name="p" unicode="p" horiz-adv-x="978" 
d="M551 -12q-113 0 -244 43l-57 -408q-3 -27 -23.5 -45t-50.5 -18q-32 0 -47 17.5t-12 45.5l162 1141q14 101 -17 156q-8 16 -8 28q0 27 22 46.5t48 19.5q37 0 69 -58q200 99 328 99q154 0 220.5 -104t41.5 -279l-37 -275q-14 -95 -41 -167t-73 -128t-116.5 -85t-164.5 -29z
M412 764l-88 -617q49 -23 112.5 -36t110.5 -13q121 0 181.5 70.5t84.5 228.5l37 275q39 268 -180 268q-109 0 -256 -82q3 -51 -2 -94z" />
    <glyph glyph-name="q" unicode="q" horiz-adv-x="993" 
d="M739 205l74 526q13 95 -43 150t-166 55q-119 0 -186.5 -64.5t-85.5 -183.5l-47 -334q-16 -124 27.5 -190t160.5 -66q150 0 266 107zM946 731l-155 -1108q-3 -27 -23 -45t-51 -18q-32 0 -47.5 17.5t-12.5 45.5l64 453q-150 -88 -297 -88q-323 0 -272 366l47 334
q23 162 133.5 264.5t288.5 102.5q172 0 259 -92t66 -232z" />
    <glyph glyph-name="r" unicode="r" horiz-adv-x="690" 
d="M412 764l-99 -713q-4 -27 -26 -46t-49 -19q-29 0 -45.5 18.5t-12.5 46.5l99 713q8 53 5 89.5t-20 66.5q-8 16 -8 28q0 27 22 46.5t50 19.5q41 0 69 -64q75 44 162 70.5t146 26.5q86 0 86 -58q0 -33 -23.5 -56.5t-52.5 -21.5q-58 1 -92 -1.5t-89 -21.5t-114 -59v-2
q2 -2 -8 -63z" />
    <glyph glyph-name="s" unicode="s" horiz-adv-x="831" 
d="M225 729q0 146 97.5 236t271.5 90q42 0 83 -5t80.5 -15.5t64 -30.5t24.5 -46t-20.5 -45.5t-49.5 -19.5q-8 0 -28 8q-28 14 -45 21.5t-48 13.5t-69 6q-230 0 -230 -190q0 -42 21 -72.5t69 -56.5q31 -17 87 -40t93.5 -41.5t77 -48t60 -73.5t20.5 -103q0 -154 -99.5 -242.5
t-283.5 -88.5q-43 0 -87.5 4.5t-90.5 15t-75 30.5t-29 48q0 26 20.5 47t50.5 21q7 0 13 -2q119 -52 215 -52q109 0 172 49.5t63 149.5q0 88 -65 123q-29 16 -74.5 34.5t-82 32.5t-76.5 37t-67 48.5t-45 65.5t-18 91z" />
    <glyph glyph-name="t" unicode="t" horiz-adv-x="657" 
d="M223 414l125 882q3 28 23 47t51 19t45.5 -19t11.5 -47l-43 -307h238q22 0 36.5 -15.5t14.5 -39.5q0 -28 -21 -48t-49 -20h-237l-62 -438q-30 -170 -1 -240.5t149 -70.5q7 0 20.5 1t20.5 1q84 0 84 -53q0 -44 -31 -58t-82 -14q-139 0 -210.5 46.5t-87 140t4.5 233.5z" />
    <glyph glyph-name="u" unicode="u" horiz-adv-x="1042" 
d="M784 246l105 737q5 29 24.5 47.5t51.5 18.5q31 0 46.5 -18.5t10.5 -47.5l-104 -737q-15 -107 4 -133q22 -26 22 -54q0 -25 -21 -43t-49 -18q-44 0 -77 68q-149 -80 -316 -80q-156 0 -223.5 103t-42.5 278l86 616q5 29 25 47.5t51 18.5t45.5 -18.5t11.5 -47.5l-86 -616
q-19 -127 25.5 -197t146.5 -70q126 0 260 78q0 41 4 68z" />
    <glyph glyph-name="v" unicode="v" horiz-adv-x="880" 
d="M967 965l-412 -893q-22 -46 -46.5 -66t-59.5 -20q-67 0 -82 84l-166 901q-6 30 19.5 54t58.5 24q44 0 51 -43l143 -846l377 846q7 17 24.5 30.5t40.5 12.5q24 -2 40 -19t16 -41q0 -12 -4 -24z" />
    <glyph glyph-name="w" unicode="w" horiz-adv-x="1341" 
d="M1440 977l-373 -909q-19 -43 -40.5 -62.5t-59.5 -19.5q-27 0 -48.5 16t-25.5 43l-92 797q-217 -565 -316 -797q-26 -59 -92 -59q-34 0 -54.5 22t-25.5 60l-118 913v4q5 26 27 45t50 19q19 0 34 -14t20 -34l96 -825q68 163 319 809q29 64 90 64q28 0 45.5 -18t20.5 -46
q26 -262 96 -809l324 825q7 20 27.5 34t41.5 14q27 0 42.5 -19.5t11.5 -48.5v-4z" />
    <glyph glyph-name="x" unicode="x" horiz-adv-x="882" 
d="M451 530l-224 424q-4 4 -4 19q0 32 24 54t50 22q23 0 35 -11.5t24 -36.5l185 -364l286 364q14 18 22 26t21 15t29 7q21 0 38 -17t17 -41q0 -29 -14 -37l-342 -424l240 -448q4 -8 4 -23q0 -29 -23 -51t-55 -22q-24 0 -36.5 10.5t-25.5 36.5l-196 387l-320 -402
q-25 -32 -57 -32q-28 0 -44.5 15.5t-16.5 41.5q0 20 12 35z" />
    <glyph glyph-name="y" unicode="y" horiz-adv-x="1042" 
d="M190 354l91 629q3 29 23.5 47.5t51.5 18.5t46 -18.5t12 -47.5l-90 -629q-37 -256 188 -256q150 0 266 107l109 778q5 29 25.5 47.5t52.5 18.5q31 0 45.5 -18.5t9.5 -47.5l-152 -1081q-23 -166 -127.5 -269.5t-283.5 -103.5q-39 0 -81.5 5.5t-85 16.5t-70 33t-27.5 51
q0 24 19.5 44t43.5 20q13 0 31 -6h-2q82 -49 170 -49q128 0 195 65.5t85 192.5l25 174q-150 -88 -297 -88q-324 0 -273 366z" />
    <glyph glyph-name="z" unicode="z" horiz-adv-x="786" 
d="M889 975q0 -14 -8 -33.5t-15 -28.5l-647 -792h494q23 0 38 -16t15 -39q0 -28 -21.5 -47t-50.5 -19h-583q-25 0 -42.5 18t-17.5 45t19 54l653 796h-471q-23 0 -38 15.5t-15 38.5q0 29 20.5 48t48.5 19h559q28 0 45 -15t17 -44z" />
    <glyph glyph-name="braceleft" unicode="{" horiz-adv-x="854" 
d="M203 430q-28 0 -44 13.5t-16 37.5q0 32 21.5 51t54.5 19q88 0 138.5 49t70.5 154q4 20 16.5 83t18.5 95l41 209q25 108 122 174.5t228 66.5q96 0 96 -63q0 -31 -14 -46.5t-31 -14.5t-33 2q-11 1 -24 2.5t-22 2.5t-11 1q-62 0 -115.5 -40.5t-66.5 -109.5q-12 -69 -68 -350
q-37 -193 -209 -277q146 -80 133 -276l-32 -348q-7 -68 34 -109t103 -41q31 0 63 4q19 7 41.5 0.5t22.5 -36.5q0 -84 -119 -84q-133 0 -210 65t-70 174l30 387q9 108 -26 156.5t-123 48.5z" />
    <glyph glyph-name="bar" unicode="|" horiz-adv-x="464" 
d="M113 -442l272 1941q3 24 23.5 42t44.5 18q25 0 39.5 -18t11.5 -42l-273 -1941q-3 -24 -22 -41t-45 -17q-24 0 -39 17t-12 41z" />
    <glyph glyph-name="braceright" unicode="}" horiz-adv-x="854" 
d="M782 430q-88 0 -137.5 -49t-71.5 -156q-10 -51 -36.5 -183t-40.5 -204q-23 -109 -119.5 -174t-229.5 -65q-98 0 -98 61q0 31 14 46.5t31 14.5t33 -2q36 -4 59 -4q64 0 119 41.5t66 108.5q10 57 32.5 174t32.5 174q36 195 209 276q-150 85 -131 277l33 350
q4 69 -38.5 109.5t-105.5 40.5q-2 0 -11.5 -1t-24 -2.5t-25.5 -2.5q-13 0 -27 -1.5t-25 8t-11 31.5q0 50 32.5 67t87.5 17q131 0 208 -66.5t71 -174.5l-16 -209l-15 -178q-9 -106 27.5 -154.5t124.5 -48.5q57 0 57 -53q0 -32 -20.5 -50t-53.5 -18z" />
    <glyph glyph-name="asciitilde" unicode="~" horiz-adv-x="929" 
d="M901 731q0 -58 -68.5 -100t-142.5 -47l2 2q-63 0 -143 45q-50 27 -113 37q-47 0 -104 -45q-33 -25 -49 -25q-25 0 -40.5 14.5t-15.5 40.5q9 61 73 103.5t140 42.5q47 0 135 -43q63 -32 105 -39q29 0 54 7.5t37 14.5t30 21q33 24 53 28q20 -2 33.5 -18t13.5 -39z" />
    <glyph glyph-name="exclamdown" unicode="&#xa1;" horiz-adv-x="464" 
d="M109 -381l161 989q3 22 19.5 38t36.5 16q17 0 29 -14t12 -34q0 -96 -6.5 -194.5t-21 -211.5t-25.5 -187.5t-33 -210t-31 -191.5q-5 -27 -28 -47.5t-52 -20.5q-27 0 -45.5 20.5t-15.5 47.5zM463 950q0 -44 -32 -75t-77 -31q-35 0 -60.5 24.5t-25.5 59.5q0 42 36 76t79 34
q36 0 58 -26t22 -62z" />
    <glyph glyph-name="cent" unicode="&#xa2;" horiz-adv-x="1024" 
d="M467 -74l16 119q-157 18 -222 118t-44 253l31 213q21 152 114 250.5t254 115.5l15 105q3 17 16.5 29t30.5 12q15 0 24.5 -12t6.5 -29l-15 -103q40 -3 76.5 -10t72 -19.5t56.5 -32t21 -44.5q0 -24 -19 -42t-45 -18q-9 0 -29 5h2q-2 1 -16 7.5t-18 8t-17 7t-21 7.5t-21.5 6
t-27.5 6.5t-30 4.5l-100 -723q14 1 28 3.5t24 4.5t22.5 6t19 6t19 7t17 7t17.5 7.5t16 7.5h-2q18 6 31 6q21 0 34 -14t13 -35q0 -28 -24.5 -50t-64.5 -36t-81.5 -22.5t-85.5 -12.5l-16 -119q-3 -15 -15.5 -26t-27.5 -11q-16 0 -27 11t-8 26zM350 416q-14 -105 21 -168
t129 -84l100 715q-191 -38 -219 -250z" />
    <glyph glyph-name="yen" unicode="&#xa5;" horiz-adv-x="974" 
d="M264 743h180q-34 110 -105.5 325.5t-96.5 293.5q-4 16 -4 29q0 29 25.5 52t55.5 23q34 0 46 -26v2l231 -719l430 719v-2q17 26 55 26q24 0 41 -18t17 -43q0 -15 -11 -43l-380 -619h182q24 0 40.5 -16.5t16.5 -40.5q0 -26 -23 -47t-51 -21h-237l-35 -55l-12 -92h264
q22 0 39.5 -16.5t17.5 -40.5q0 -26 -24 -46t-52 -20h-264l-41 -295q-5 -30 -26.5 -50.5t-50.5 -20.5q-31 0 -48.5 20t-13.5 51l41 295h-262q-25 0 -42 15.5t-17 37.5q0 28 24 49t53 21h262l13 100l-17 47h-237q-26 0 -43 16t-17 40q0 27 24.5 48t51.5 21z" />
    <glyph glyph-name="dieresis" unicode="&#xa8;" horiz-adv-x="825" 
d="M866 1333q0 -39 -28.5 -67.5t-65.5 -28.5q-31 0 -53.5 22.5t-22.5 53.5q0 36 32 65t69 29q30 0 49.5 -22t19.5 -52zM512 1333q0 -39 -28.5 -67.5t-67.5 -28.5q-30 0 -51 22.5t-21 53.5q0 35 29.5 64.5t66.5 29.5q31 0 51.5 -22t20.5 -52z" />
    <glyph glyph-name="copyright" unicode="&#xa9;" horiz-adv-x="1515" 
d="M1487 748q0 -163 -49.5 -302.5t-141 -242t-229 -161t-305.5 -58.5q-261 0 -402 151t-141 402q0 163 50 302.5t142.5 242t230.5 160.5t306 58q260 0 399.5 -150t139.5 -402zM1393 733q0 215 -118.5 344t-340.5 129q-190 0 -332 -86.5t-214.5 -234t-72.5 -334.5
q0 -217 119 -345t342 -128q190 0 331.5 86.5t213.5 233.5t72 335zM580 578l18 127q18 131 101 211.5t225 80.5q30 0 62.5 -4t65 -13t53.5 -26t21 -39q0 -19 -13 -32t-32 -13h-14q-70 45 -141 45q-202 0 -230 -210l-18 -127q-28 -207 172 -207q10 0 19 0.5t18.5 2t16 2.5
t15.5 3.5t13.5 3.5t14.5 4.5t13 4.5t14 5.5t13 5.5h-6l14 5q18 6 23 6q14 0 23.5 -11.5t9.5 -25.5q0 -25 -24 -44t-62 -28.5t-73.5 -13.5t-68.5 -4q-142 0 -201.5 80t-41.5 211z" />
    <glyph glyph-name="guillemotleft" unicode="&#xab;" horiz-adv-x="882" 
d="M326 524l237 -442q0 -2 1 -10t1 -13q0 -30 -22 -51.5t-54 -21.5q-23 0 -34.5 10t-24.5 37q-46 89 -133 253t-123 234l377 471q19 26 35 37.5t39 11.5q21 0 37 -16.5t16 -40.5q0 -28 -12 -37zM662 520l157 -305q2 -4 2 -18q0 -30 -22.5 -52t-48.5 -22q-22 0 -34.5 11
t-23.5 36l-184 350l283 352q14 18 22 26.5t21 16t28 7.5q22 0 37.5 -16.5t15.5 -41.5q0 -30 -10 -37z" />
    <glyph glyph-name="registered" unicode="&#xae;" horiz-adv-x="1433" 
d="M1438 971q0 -149 -45.5 -276t-130.5 -220.5t-213 -146t-285 -52.5q-245 0 -376.5 137t-131.5 365q0 150 46.5 279.5t131.5 225t214 150t286 54.5q245 0 374.5 -140t129.5 -376zM1343 956q0 200 -108 318.5t-313 118.5q-176 0 -307 -80t-197 -215t-66 -305
q0 -192 109 -307t317 -115q175 0 304.5 76.5t195 208t65.5 300.5zM1083 1028q0 -142 -141 -201l113 -219q14 -26 -24 -38q-37 -11 -61 3q-7 4 -9 9l-117 233h-121l-29 -211q-3 -14 -19.5 -24.5t-35.5 -10.5q-18 0 -30 10t-9 25l74 535q3 22 22 38.5t39 16.5h162
q96 0 141 -47t45 -119zM989 1018q0 84 -108 84h-117l-29 -197h123q64 0 97.5 30.5t33.5 82.5z" />
    <glyph glyph-name="macron" unicode="&#xaf;" horiz-adv-x="825" 
d="M922 1327q0 -29 -20 -48t-48 -19h-522q-23 0 -38 14t-15 37q0 28 21 48.5t50 20.5h522q21 0 35.5 -15.5t14.5 -37.5z" />
    <glyph glyph-name="degree" unicode="&#xb0;" horiz-adv-x="802" 
d="M535 915q-117 0 -181.5 66t-64.5 170q0 134 88 225.5t235 91.5q117 0 179.5 -66t62.5 -171q0 -134 -86 -225t-233 -91zM549 1014q194 0 194 215q0 141 -145 141q-98 0 -148.5 -55.5t-50.5 -157.5q0 -143 150 -143z" />
    <glyph glyph-name="plusminus" unicode="&#xb1;" horiz-adv-x="1024" 
d="M532 352v373h-350q-28 0 -46.5 18.5t-18.5 44.5q0 28 19.5 48t45.5 20h350v371q0 25 20 45t48 20q26 0 45 -19t19 -46v-371h352q26 0 45.5 -20t19.5 -48q0 -26 -19.5 -44.5t-45.5 -18.5h-352v-373q0 -28 -19 -46.5t-45 -18.5q-29 0 -48.5 19t-19.5 46zM182 133h834
q25 0 45 -19t20 -46q0 -28 -19.5 -47t-45.5 -19h-834q-28 0 -46.5 19t-18.5 47q0 27 20 46t45 19z" />
    <glyph glyph-name="twosuperior" unicode="&#xb2;" 
d="M584 848q0 -22 -16 -35.5t-36 -13.5h-331q-23 0 -36 11t-13 30q0 18 16 49q25 43 66 89t66.5 69t80.5 71q88 81 100 94q72 60 72 138q0 46 -25 73t-73 27q-39 0 -95 -18l-26 -13q-28 -14 -41 -14q-18 0 -32.5 11t-14.5 28q0 25 18 39q103 61 203 61q89 0 136.5 -49.5
t47.5 -126.5q0 -119 -98 -221q-22 -22 -76 -68l-22 -20q-120 -96 -170 -166h260q15 0 27 -13.5t12 -31.5z" />
    <glyph glyph-name="threesuperior" unicode="&#xb3;" 
d="M631 1432l-189 -205q72 -6 117 -53.5t45 -122.5q0 -43 -15.5 -87.5t-45 -84.5t-78.5 -65.5t-109 -25.5q-20 0 -47.5 3t-63 10t-59.5 23.5t-24 39.5q0 22 17 39t40 17q6 0 29 -13q46 -28 102 -28t93 27t50 61.5t13 72.5q0 53 -31 78t-82 25q-23 0 -35 -6l-8 -4
q-3 -3 -16 -3q-27 0 -36 25.5t11 48.5l199 221h-203q-20 0 -33.5 11t-13.5 28q0 25 18 43.5t43 18.5h281q43 0 43 -49q0 -33 -12 -45z" />
    <glyph glyph-name="acute" unicode="&#xb4;" horiz-adv-x="565" 
d="M360 1280l203 186q34 29 51 29q20 0 32.5 -14.5t12.5 -34.5q0 -21 -10 -31l-192 -178q-40 -35 -62 -35q-20 0 -33.5 14.5t-13.5 36.5q0 15 12 27z" />
    <glyph glyph-name="periodcentered" unicode="&#xb7;" horiz-adv-x="522" 
d="M432 569q0 -44 -32.5 -75t-77.5 -31q-35 0 -59.5 24.5t-24.5 59.5q0 42 34 75t76 33q37 0 60.5 -25t23.5 -61z" />
    <glyph glyph-name="cedilla" unicode="&#xb8;" horiz-adv-x="614" 
d="M457 -252q0 -65 -46.5 -114.5t-115 -69.5t-135.5 -6q-44 8 -70.5 30t-7.5 45q8 11 22 12t35 -5l37 -9q78 -17 127 22.5t49 92.5q0 41 -35 56.5t-94 19.5q-45 3 -54 12t-1 39l45 139h72l-37 -125q108 0 158.5 -38.5t50.5 -100.5z" />
    <glyph glyph-name="onesuperior" unicode="&#xb9;" 
d="M377 834l82 569l-119 -74q-29 -18 -49 -18q-18 0 -30.5 12t-12.5 27q0 26 33 49l217 125q15 10 30 10q22 0 34 -15t9 -40l-92 -645q-2 -17 -18.5 -31.5t-36.5 -14.5q-22 0 -35.5 14t-11.5 32z" />
    <glyph glyph-name="ordmasculine" unicode="&#xba;" horiz-adv-x="786" 
d="M500 727q-135 0 -198.5 79.5t-45.5 205.5l23 166q20 128 104 208t219 80t197 -80t43 -208l-23 -166q-18 -127 -101 -206t-218 -79zM588 1366q-175 0 -201 -197l-22 -163q-26 -181 147 -181t199 181l22 163q13 96 -21 146.5t-124 50.5z" />
    <glyph glyph-name="guillemotright" unicode="&#xbb;" horiz-adv-x="882" 
d="M350 82l363 442l-221 422q-7 10 -7 23q0 29 24.5 50t51.5 21q22 0 34.5 -11.5t25.5 -37.5l243 -471l-391 -487q-24 -27 -38 -37t-36 -10q-28 0 -44.5 16.5t-16.5 42.5q0 20 12 37zM133 215l244 305l-158 307q-4 12 -4 23q0 28 24 50t50 22q16 0 27 -7.5t16 -15.5t14 -27
l182 -352l-280 -350q-19 -26 -34 -36.5t-38 -10.5q-22 0 -38.5 16.5t-16.5 38.5q0 20 12 37z" />
    <glyph glyph-name="questiondown" unicode="&#xbf;" horiz-adv-x="946" 
d="M492 504q16 26 24 88q5 28 27 49t51 21q25 0 41 -18t16 -44q0 -44 -20 -84q-20 -41 -53.5 -84t-60 -69.5t-71.5 -69.5q-13 -13 -39 -39.5t-40 -40.5q-160 -168 -160 -319q0 -108 61 -175t178 -67q106 0 211 41q18 8 60 31q44 26 67 26t39.5 -15.5t16.5 -39.5
q0 -39 -58 -74q-161 -90 -354 -90q-169 0 -263.5 94t-94.5 240q0 128 53 228t153 198q46 46 78 71q4 4 21.5 19t23.5 20.5t20.5 18.5t22 21t18 19.5t18.5 22t14 21.5zM535 928q0 43 33.5 76.5t76.5 33.5q36 0 60 -26t24 -62q0 -43 -33.5 -74.5t-77.5 -31.5q-37 0 -60 23.5
t-23 60.5z" />
    <glyph glyph-name="Agrave" unicode="&#xc0;" horiz-adv-x="1124" 
d="M338 334l-135 -303q-12 -19 -33.5 -34t-38.5 -15q-28 0 -45.5 16t-17.5 43q0 11 8 35l590 1290q21 48 46 74t62 26q64 0 82 -100l225 -1290q0 -19 -2 -27q-4 -30 -26.5 -48.5t-53.5 -18.5q-20 0 -38 14t-21 35l-51 303h-551zM741 1243l-346 -776h473zM705 1876l149 -186
q6 -6 6 -16q0 -24 -19.5 -43t-41.5 -19q-27 0 -53 33l-139 180q-7 11 -7 21q0 22 19 40.5t39 18.5q7 0 12 -1t10 -5t7.5 -5.5t9 -8.5t8.5 -9z" />
    <glyph glyph-name="Aacute" unicode="&#xc1;" horiz-adv-x="1124" 
d="M338 334l-135 -303q-12 -19 -33.5 -34t-38.5 -15q-28 0 -45.5 16t-17.5 43q0 11 8 35l590 1290q21 48 46 74t62 26q64 0 82 -100l225 -1290q0 -19 -2 -27q-4 -30 -26.5 -48.5t-53.5 -18.5q-20 0 -38 14t-21 35l-51 303h-551zM741 1243l-346 -776h473zM756 1690l202 186
q34 29 52 29q20 0 32.5 -15t12.5 -35q0 -19 -11 -30l-192 -178q-1 -1 -7 -6.5t-7.5 -6.5t-6.5 -5t-6.5 -5l-6 -4t-7 -3.5t-6 -2t-7 -2t-7.5 -0.5q-20 0 -34 14.5t-14 36.5q0 14 13 27z" />
    <glyph glyph-name="Acircumflex" unicode="&#xc2;" horiz-adv-x="1124" 
d="M338 334l-135 -303q-12 -19 -33.5 -34t-38.5 -15q-28 0 -45.5 16t-17.5 43q0 11 8 35l590 1290q21 48 46 74t62 26q64 0 82 -100l225 -1290q0 -19 -2 -27q-4 -30 -26.5 -48.5t-53.5 -18.5q-20 0 -38 14t-21 35l-51 303h-551zM741 1243l-346 -776h473zM809 1747l-188 -139
q-3 -6 -29 -6q-12 0 -21.5 11.5t-9.5 23.5q0 21 41 53l184 141h-2q30 15 39 15q10 0 35 -15h-2l147 -141q2 -4 9.5 -14.5t11.5 -18.5t4 -14q0 -14 -14 -27.5t-31 -13.5q-20 0 -23 6z" />
    <glyph glyph-name="Atilde" unicode="&#xc3;" horiz-adv-x="1124" 
d="M338 334l-135 -303q-12 -19 -33.5 -34t-38.5 -15q-28 0 -45.5 16t-17.5 43q0 11 8 35l590 1290q21 48 46 74t62 26q64 0 82 -100l225 -1290q0 -19 -2 -27q-4 -30 -26.5 -48.5t-53.5 -18.5q-20 0 -38 14t-21 35l-51 303h-551zM741 1243l-346 -776h473zM1083 1761
q0 -48 -57 -83.5t-117 -35.5q-46 0 -114 37q-6 3 -17 9.5t-18.5 10.5t-21 7.5t-29.5 3.5q-48 0 -99 -37q-24 -18 -41 -18q-41 0 -41 39q0 45 54 84t116 39q49 0 115 -39q49 -27 88 -29q58 0 103 35q30 24 47 24q12 0 22 -13.5t10 -33.5z" />
    <glyph glyph-name="Adieresis" unicode="&#xc4;" horiz-adv-x="1124" 
d="M338 334l-135 -303q-12 -19 -33.5 -34t-38.5 -15q-28 0 -45.5 16t-17.5 43q0 11 8 35l590 1290q21 48 46 74t62 26q64 0 82 -100l225 -1290q0 -19 -2 -27q-4 -30 -26.5 -48.5t-53.5 -18.5q-20 0 -38 14t-21 35l-51 303h-551zM741 1243l-346 -776h473zM1069 1743
q0 -39 -28.5 -67.5t-65.5 -28.5q-31 0 -53.5 22.5t-22.5 53.5q0 36 32 65t69 29q30 0 49.5 -22t19.5 -52zM715 1743q0 -39 -28.5 -67.5t-67.5 -28.5q-30 0 -51 22.5t-21 53.5q0 35 29.5 64.5t66.5 29.5q31 0 51.5 -22t20.5 -52z" />
    <glyph glyph-name="Aring" unicode="&#xc5;" horiz-adv-x="1124" 
d="M995 1528q0 -65 -35.5 -120t-97.5 -91l219 -1241q0 -19 -2 -27q-4 -30 -26.5 -48.5t-53.5 -18.5q-20 0 -38 14t-21 35l-51 303h-551l-135 -303q-12 -19 -33.5 -34t-38.5 -15q-28 0 -45.5 16t-17.5 43q0 11 8 35l567 1241q-38 28 -60 71.5t-22 90.5q0 96 75.5 167.5
t174.5 71.5q81 0 132.5 -54.5t51.5 -135.5zM741 1243l-346 -776h473zM922 1520q0 52 -34 89.5t-87 37.5q-64 0 -115 -49t-51 -111q0 -53 35.5 -89t89.5 -36q64 0 113 46.5t49 111.5z" />
    <glyph glyph-name="AE" unicode="&#xc6;" horiz-adv-x="1478" 
d="M858 0q-52 0 -81.5 19t-22.5 63l34 250h-452l-135 -303q-9 -21 -30.5 -35t-39.5 -14q-30 0 -47.5 16t-17.5 43q0 11 8 35l581 1269q23 49 48.5 75t60.5 26h768q26 0 42.5 -17.5t16.5 -44.5q0 -29 -23.5 -49t-54.5 -20h-452l-74 -522h414q23 0 39 -16.5t16 -41.5
q0 -30 -22 -52t-52 -22h-413l-74 -528h473q26 0 42.5 -15.5t16.5 -39.5q0 -32 -22.5 -54t-54.5 -22h-492zM926 1313h-119q-23 0 -30 -6t-17 -29l-365 -813h412z" />
    <glyph glyph-name="Ccedilla" unicode="&#xc7;" horiz-adv-x="987" 
d="M707 -258q0 -77 -63 -131.5t-173 -54.5q-53 0 -61 2q-42 5 -68 28t-10 49v-2q14 19 59 7l35 -9q78 -16 127 23.5t49 89.5q0 72 -127 78q-40 2 -52 12t-3 39l37 117q-173 33 -243 166.5t-40 343.5l62 448q35 242 169 380t361 138q133 0 232.5 -46t99.5 -109
q0 -28 -19.5 -47t-48.5 -19q-16 0 -43 19l-18 12q-95 70 -209 70q-178 0 -268.5 -102t-118.5 -296l-62 -448q-28 -192 34.5 -294t240.5 -102q120 0 223 66l25 14q34 21 49 21q24 0 38.5 -14.5t14.5 -36.5q0 -45 -55 -84.5t-142.5 -62.5t-181.5 -23h-31l-26 -97
q207 -3 207 -145z" />
    <glyph glyph-name="Egrave" unicode="&#xc8;" horiz-adv-x="970" 
d="M911 78q0 -31 -23.5 -53.5t-53.5 -22.5h-555q-52 0 -82.5 19t-24.5 63l180 1278q5 33 33 58.5t64 25.5h567q24 0 39.5 -17.5t15.5 -44.5q0 -29 -22 -49t-52 -20h-516l-73 -522h475q25 0 41 -16.5t16 -41.5q0 -30 -22.5 -51.5t-53.5 -21.5h-475l-74 -529h537
q24 0 41.5 -16.5t17.5 -38.5zM709 1876l149 -186q6 -6 6 -16q0 -24 -19.5 -43t-41.5 -19q-27 0 -53 33l-139 180q-7 11 -7 21q0 22 19 40.5t39 18.5q7 0 12 -1t10 -5t7.5 -5.5t9 -8.5t8.5 -9z" />
    <glyph glyph-name="Eacute" unicode="&#xc9;" horiz-adv-x="970" 
d="M911 78q0 -31 -23.5 -53.5t-53.5 -22.5h-555q-52 0 -82.5 19t-24.5 63l180 1278q5 33 33 58.5t64 25.5h567q24 0 39.5 -17.5t15.5 -44.5q0 -29 -22 -49t-52 -20h-516l-73 -522h475q25 0 41 -16.5t16 -41.5q0 -30 -22.5 -51.5t-53.5 -21.5h-475l-74 -529h537
q24 0 41.5 -16.5t17.5 -38.5zM674 1690l203 186q34 29 51 29q19 0 32 -15t13 -35t-10 -30l-193 -178q-1 -1 -7 -6.5t-7.5 -6.5t-6.5 -5t-6.5 -5l-6 -4t-7 -3.5t-6 -2t-7 -2t-7.5 -0.5q-20 0 -33.5 14.5t-13.5 36.5q0 15 12 27z" />
    <glyph glyph-name="Ecircumflex" unicode="&#xca;" horiz-adv-x="970" 
d="M911 78q0 -31 -23.5 -53.5t-53.5 -22.5h-555q-52 0 -82.5 19t-24.5 63l180 1278q5 33 33 58.5t64 25.5h567q24 0 39.5 -17.5t15.5 -44.5q0 -29 -22 -49t-52 -20h-516l-73 -522h475q25 0 41 -16.5t16 -41.5q0 -30 -22.5 -51.5t-53.5 -21.5h-475l-74 -529h537
q24 0 41.5 -16.5t17.5 -38.5zM782 1747l-188 -139q-3 -6 -29 -6q-12 0 -21.5 11.5t-9.5 23.5q0 21 41 53l184 141h-2q30 15 39 15q10 0 35 -15h-2l147 -141q2 -4 9.5 -14.5t11.5 -18.5t4 -14q0 -14 -14 -27.5t-31 -13.5q-20 0 -23 6z" />
    <glyph glyph-name="Edieresis" unicode="&#xcb;" horiz-adv-x="970" 
d="M911 78q0 -31 -23.5 -53.5t-53.5 -22.5h-555q-52 0 -82.5 19t-24.5 63l180 1278q5 33 33 58.5t64 25.5h567q24 0 39.5 -17.5t15.5 -44.5q0 -29 -22 -49t-52 -20h-516l-73 -522h475q25 0 41 -16.5t16 -41.5q0 -30 -22.5 -51.5t-53.5 -21.5h-475l-74 -529h537
q24 0 41.5 -16.5t17.5 -38.5zM1040 1743q0 -39 -28.5 -67.5t-65.5 -28.5q-31 0 -53.5 22t-22.5 53q0 36 32 65.5t69 29.5q30 0 49.5 -22t19.5 -52zM686 1743q0 -39 -28.5 -67.5t-67.5 -28.5q-30 0 -51 22t-21 53q0 36 30 65.5t66 29.5q31 0 51.5 -22t20.5 -52z" />
    <glyph glyph-name="Igrave" unicode="&#xcc;" horiz-adv-x="464" 
d="M172 49l188 1350q5 26 28.5 46.5t51.5 20.5q29 0 46 -20t12 -47l-189 -1350q-5 -28 -27 -47.5t-51 -19.5q-28 0 -45.5 20t-13.5 47zM402 1876l149 -186q6 -6 6 -16q0 -24 -19.5 -43t-41.5 -19q-27 0 -53 33l-139 180q-7 11 -7 21q0 22 19 40.5t39 18.5q7 0 12 -1t10 -5
t7.5 -5.5t9 -8.5t8.5 -9z" />
    <glyph glyph-name="Iacute" unicode="&#xcd;" horiz-adv-x="464" 
d="M172 49l188 1350q5 26 28.5 46.5t51.5 20.5q29 0 46 -20t12 -47l-189 -1350q-5 -28 -27 -47.5t-51 -19.5q-28 0 -45.5 20t-13.5 47zM393 1690l203 186q34 29 51 29q19 0 32 -15t13 -35t-10 -30l-193 -178q-1 -1 -7 -6.5t-7.5 -6.5t-6.5 -5t-6.5 -5l-6 -4t-7 -3.5t-6 -2
t-7 -2t-7.5 -0.5q-20 0 -33.5 14.5t-13.5 36.5q0 15 12 27z" />
    <glyph glyph-name="Icircumflex" unicode="&#xce;" horiz-adv-x="464" 
d="M172 49l188 1350q5 26 28.5 46.5t51.5 20.5q29 0 46 -20t12 -47l-189 -1350q-5 -28 -27 -47.5t-51 -19.5q-28 0 -45.5 20t-13.5 47zM481 1747l-188 -139q-3 -6 -29 -6q-12 0 -21.5 11.5t-9.5 23.5q0 21 41 53l184 141h-2q30 15 39 15q10 0 35 -15h-2l147 -141
q2 -4 9.5 -14.5t11.5 -18.5t4 -14q0 -14 -14 -27.5t-31 -13.5q-20 0 -23 6z" />
    <glyph glyph-name="Idieresis" unicode="&#xcf;" horiz-adv-x="464" 
d="M172 49l188 1350q5 26 28.5 46.5t51.5 20.5q29 0 46 -20t12 -47l-189 -1350q-5 -28 -27 -47.5t-51 -19.5q-28 0 -45.5 20t-13.5 47zM739 1743q0 -39 -28.5 -67.5t-65.5 -28.5q-31 0 -53.5 22t-22.5 53q0 36 32 65.5t69 29.5q30 0 49.5 -22t19.5 -52zM385 1743
q0 -39 -28.5 -67.5t-67.5 -28.5q-30 0 -51 22t-21 53q0 36 29.5 65.5t66.5 29.5q31 0 51.5 -22t20.5 -52z" />
    <glyph glyph-name="Eth" unicode="&#xd0;" horiz-adv-x="1175" 
d="M1157 539q-13 -87 -41 -163t-79 -146t-120.5 -119.5t-169.5 -79t-221 -29.5h-237q-34 0 -57 24.5t-19 59.5l82 580h-96q-24 0 -39 14t-15 37q0 28 21.5 48.5t50.5 20.5h96l80 576q4 35 34.5 60.5t64.5 25.5h237q101 0 182 -19.5t135.5 -54.5t93 -83.5t55 -106t22 -122
t-6.5 -132.5zM788 733q0 -29 -19.5 -48t-47.5 -19h-289l-74 -533h222q104 0 184.5 31t132 88t82 128t43.5 159l53 391q8 65 5 123t-26 106.5t-61.5 83.5t-101.5 54.5t-146 19.5h-221l-73 -531h288q21 0 35 -15.5t14 -37.5z" />
    <glyph glyph-name="Ntilde" unicode="&#xd1;" horiz-adv-x="1228" 
d="M999 -18q-22 0 -41 10t-26 28l-467 1170l-160 -1139q-4 -29 -27.5 -49t-52.5 -20q-28 0 -44.5 20t-12.5 49l186 1338q6 34 31 55.5t57 21.5q52 0 68 -43l467 -1171l162 1145q5 28 28.5 48.5t51.5 20.5q27 0 43.5 -20.5t11.5 -48.5l-189 -1340q-5 -33 -29 -54t-57 -21z
M1136 1762q0 -48 -57 -83.5t-117 -35.5q-47 0 -115 37q-6 3 -17.5 9.5t-18.5 10t-20.5 7t-29.5 3.5q-48 0 -98 -36q-25 -19 -41 -19q-41 0 -41 39q0 45 54 84t116 39q49 0 115 -39q49 -27 88 -29q57 0 102 35q31 25 47 25q12 0 22.5 -13.5t10.5 -33.5z" />
    <glyph glyph-name="Ograve" unicode="&#xd2;" horiz-adv-x="1128" 
d="M565 -18q-150 0 -247 70t-132 185.5t-14 262.5l64 448q15 110 54 201t103 163.5t161.5 113t219.5 40.5q97 0 172 -26.5t121 -74t74 -113t32 -142t-6 -162.5l-63 -448q-21 -147 -88 -262.5t-184 -185.5t-267 -70zM756 1335q-331 0 -383 -387l-64 -448q-26 -177 43 -282
t232 -105t260 104.5t123 282.5l63 448q52 387 -274 387zM746 1876l149 -186q6 -6 6 -16q0 -24 -19.5 -43t-41.5 -19q-27 0 -53 33l-139 180q-7 11 -7 21q0 22 19 40.5t39 18.5q7 0 12 -1t10 -5t7.5 -5.5t9 -8.5t8.5 -9z" />
    <glyph glyph-name="Oacute" unicode="&#xd3;" horiz-adv-x="1128" 
d="M565 -18q-150 0 -247 70t-132 185.5t-14 262.5l64 448q15 110 54 201t103 163.5t161.5 113t219.5 40.5q97 0 172 -26.5t121 -74t74 -113t32 -142t-6 -162.5l-63 -448q-21 -147 -88 -262.5t-184 -185.5t-267 -70zM756 1335q-331 0 -383 -387l-64 -448q-26 -177 43 -282
t232 -105t260 104.5t123 282.5l63 448q52 387 -274 387zM729 1690l203 186q34 29 51 29q19 0 32 -15t13 -35t-10 -30l-193 -178q-1 -1 -7 -6.5t-7.5 -6.5t-6.5 -5t-6.5 -5l-6 -4t-7 -3.5t-6 -2t-7 -2t-7.5 -0.5q-20 0 -33.5 14.5t-13.5 36.5q0 15 12 27z" />
    <glyph glyph-name="Ocircumflex" unicode="&#xd4;" horiz-adv-x="1128" 
d="M565 -18q-150 0 -247 70t-132 185.5t-14 262.5l64 448q15 110 54 201t103 163.5t161.5 113t219.5 40.5q97 0 172 -26.5t121 -74t74 -113t32 -142t-6 -162.5l-63 -448q-21 -147 -88 -262.5t-184 -185.5t-267 -70zM756 1335q-331 0 -383 -387l-64 -448q-26 -177 43 -282
t232 -105t260 104.5t123 282.5l63 448q52 387 -274 387zM811 1747l-188 -139q-3 -6 -29 -6q-12 0 -21.5 11.5t-9.5 23.5q0 21 41 53l184 141h-2q30 15 39 15q10 0 35 -15h-2l147 -141q2 -4 9.5 -14.5t11.5 -18.5t4 -14q0 -14 -14 -27.5t-31 -13.5q-20 0 -23 6z" />
    <glyph glyph-name="Otilde" unicode="&#xd5;" horiz-adv-x="1128" 
d="M565 -18q-150 0 -247 70t-132 185.5t-14 262.5l64 448q15 110 54 201t103 163.5t161.5 113t219.5 40.5q97 0 172 -26.5t121 -74t74 -113t32 -142t-6 -162.5l-63 -448q-21 -147 -88 -262.5t-184 -185.5t-267 -70zM756 1335q-331 0 -383 -387l-64 -448q-26 -177 43 -282
t232 -105t260 104.5t123 282.5l63 448q52 387 -274 387zM1085 1761q0 -48 -57 -83.5t-117 -35.5q-46 0 -114 37q-6 3 -17 9.5t-18.5 10.5t-21 7.5t-29.5 3.5q-48 0 -99 -37q-24 -18 -41 -18q-41 0 -41 39q0 45 54 84t116 39q49 0 115 -39q49 -27 88 -29q58 0 103 35
q30 24 47 24q12 0 22 -13.5t10 -33.5z" />
    <glyph glyph-name="Odieresis" unicode="&#xd6;" horiz-adv-x="1128" 
d="M565 -18q-150 0 -247 70t-132 185.5t-14 262.5l64 448q15 110 54 201t103 163.5t161.5 113t219.5 40.5q97 0 172 -26.5t121 -74t74 -113t32 -142t-6 -162.5l-63 -448q-21 -147 -88 -262.5t-184 -185.5t-267 -70zM756 1335q-331 0 -383 -387l-64 -448q-26 -177 43 -282
t232 -105t260 104.5t123 282.5l63 448q52 387 -274 387zM1071 1743q0 -39 -28.5 -67.5t-65.5 -28.5q-31 0 -53.5 22.5t-22.5 53.5q0 36 32 65t69 29q30 0 49.5 -22t19.5 -52zM717 1743q0 -39 -28.5 -67.5t-67.5 -28.5q-30 0 -51 22.5t-21 53.5q0 35 29.5 64.5t66.5 29.5
q31 0 51.5 -22t20.5 -52z" />
    <glyph glyph-name="multiply" unicode="&#xd7;" horiz-adv-x="1024" 
d="M1010 987l-297 -260l223 -262q16 -16 16 -41q0 -26 -25 -49t-50 -23q-32 0 -48 19l-223 262l-301 -262q-19 -19 -49 -19q-21 0 -39 19.5t-18 40.5q0 28 28 53l299 262l-227 260q-14 14 -14 41q0 24 27 49t48 25q30 0 48 -21l225 -260l297 260q24 21 51 21q19 0 38 -19
t19 -41q0 -30 -28 -55z" />
    <glyph glyph-name="Oslash" unicode="&#xd8;" horiz-adv-x="1128" 
d="M68 59l131 154q-46 135 -25 287l62 448q16 110 55 201t103.5 163.5t162 113t219.5 40.5q228 0 340 -157l107 123q10 13 26.5 16t28.5 -6q11 -10 12 -25t-12 -31l-129 -153q41 -118 18 -285l-61 -448q-21 -147 -88 -262.5t-184 -185.5t-267 -70q-223 0 -336 157l-106 -125
q-10 -13 -26.5 -16t-28.5 6q-11 10 -13 24.5t11 30.5zM758 1335q-332 0 -387 -387l-62 -448q-9 -53 0 -154l709 842q-69 147 -260 147zM1030 948q9 63 6 150l-706 -840q69 -145 256 -145q163 0 260 104.5t123 282.5z" />
    <glyph glyph-name="Ugrave" unicode="&#xd9;" horiz-adv-x="1171" 
d="M1104 467q-30 -215 -168.5 -350t-345.5 -135q-211 0 -311 135t-70 350l131 926q4 32 28 52.5t54 20.5q27 0 42.5 -21t12.5 -52l-131 -926q-23 -163 43 -258.5t219 -95.5q152 0 243 96.5t114 257.5l131 926q3 29 26.5 51t51.5 22q29 0 46.5 -21.5t14.5 -51.5zM739 1876
l149 -186q6 -6 6 -16q0 -24 -19.5 -43t-41.5 -19q-27 0 -53 33l-139 180q-7 11 -7 21q0 22 19 40.5t39 18.5q7 0 12 -1t10 -5t7.5 -5.5t9 -8.5t8.5 -9z" />
    <glyph glyph-name="Uacute" unicode="&#xda;" horiz-adv-x="1171" 
d="M1104 467q-30 -215 -168.5 -350t-345.5 -135q-211 0 -311 135t-70 350l131 926q4 32 28 52.5t54 20.5q27 0 42.5 -21t12.5 -52l-131 -926q-23 -163 43 -258.5t219 -95.5q152 0 243 96.5t114 257.5l131 926q3 29 26.5 51t51.5 22q29 0 46.5 -21.5t14.5 -51.5zM764 1690
l203 186q34 29 51 29q20 0 32.5 -15t12.5 -35t-10 -30l-193 -178q-1 -1 -7 -6.5t-7.5 -6.5t-6.5 -5t-6.5 -5l-6 -4t-7 -3.5t-6 -2t-7 -2t-7.5 -0.5q-20 0 -33.5 14.5t-13.5 36.5q0 15 12 27z" />
    <glyph glyph-name="Ucircumflex" unicode="&#xdb;" horiz-adv-x="1171" 
d="M1104 467q-30 -215 -168.5 -350t-345.5 -135q-211 0 -311 135t-70 350l131 926q4 32 28 52.5t54 20.5q27 0 42.5 -21t12.5 -52l-131 -926q-23 -163 43 -258.5t219 -95.5q152 0 243 96.5t114 257.5l131 926q3 29 26.5 51t51.5 22q29 0 46.5 -21.5t14.5 -51.5zM834 1747
l-188 -139q-3 -6 -29 -6q-12 0 -21.5 11.5t-9.5 23.5q0 21 41 53l184 141h-2q30 15 39 15q10 0 35 -15h-2l147 -141q2 -4 9.5 -14.5t11.5 -18.5t4 -14q0 -14 -14 -27.5t-31 -13.5q-20 0 -23 6z" />
    <glyph glyph-name="Udieresis" unicode="&#xdc;" horiz-adv-x="1171" 
d="M1104 467q-30 -215 -168.5 -350t-345.5 -135q-211 0 -311 135t-70 350l131 926q4 32 28 52.5t54 20.5q27 0 42.5 -21t12.5 -52l-131 -926q-23 -163 43 -258.5t219 -95.5q152 0 243 96.5t114 257.5l131 926q3 29 26.5 51t51.5 22q29 0 46.5 -21.5t14.5 -51.5zM1092 1743
q0 -39 -29 -67.5t-66 -28.5q-31 0 -53 22t-22 53q0 36 31.5 65.5t68.5 29.5q30 0 50 -22t20 -52zM737 1743q0 -39 -28.5 -67.5t-67.5 -28.5q-30 0 -51 22t-21 53q0 35 30 65t67 30q31 0 51 -22t20 -52z" />
    <glyph glyph-name="Yacute" unicode="&#xdd;" horiz-adv-x="974" 
d="M492 -18q-31 0 -48.5 20t-13.5 51l74 518l-262 791q-4 16 -4 29q0 29 25.5 52t55.5 23q34 0 46 -26v2l231 -719l430 719v-2q17 26 55 26q25 0 42.5 -18t17.5 -43q0 -11 -13 -43l-487 -799l-72 -510q-5 -30 -26.5 -50.5t-50.5 -20.5zM593 1690l203 186q34 29 51 29
q20 0 32.5 -14.5t12.5 -34.5q0 -21 -10 -31l-192 -178q-40 -35 -62 -35q-20 0 -33.5 14.5t-13.5 36.5q0 15 12 27z" />
    <glyph glyph-name="Thorn" unicode="&#xde;" horiz-adv-x="1085" 
d="M170 49l188 1350q5 27 28 47t50 20q29 0 46 -20t12 -47l-29 -203h258q105 0 183.5 -30.5t123.5 -84.5t66.5 -120.5t21.5 -145.5q0 -243 -142.5 -381.5t-379.5 -138.5h-258l-33 -246q-5 -28 -27 -47.5t-51 -19.5q-28 0 -44.5 19.5t-12.5 47.5zM446 1065l-90 -639h258
q369 0 369 377q0 42 -7.5 78.5t-27.5 71t-50.5 59t-79.5 39t-113 14.5h-259z" />
    <glyph glyph-name="germandbls" unicode="&#xdf;" horiz-adv-x="1114" 
d="M1108 375q0 -172 -109 -276.5t-301 -104.5q-17 0 -34 0.5t-48.5 2.5t-57.5 7.5t-51 13t-39.5 21t-14.5 31.5q0 23 19.5 44t59.5 21q26 0 74 -10q70 -12 107 -12q45 0 88.5 13.5t83 40.5t64 76t24.5 113q0 58 -23.5 106t-63 81t-79 54t-84.5 36q-42 13 -68 24t-49.5 36
t-23.5 59q0 86 88 125q14 6 40 18l52.5 24t46.5 23t43.5 25.5t35.5 27t31.5 33t21.5 37.5t15.5 46t4.5 54q0 90 -60 138.5t-164 48.5q-132 0 -204 -77.5t-95 -240.5l-153 -1104q-4 -27 -26.5 -46t-49.5 -19q-29 0 -45.5 18.5t-11.5 46.5l153 1098q29 211 149 328t312 117
q148 0 238 -73t90 -204q0 -118 -59 -202t-156 -124q-11 -5 -37 -14t-45 -17t-39.5 -18.5t-30.5 -23.5t-8 -27q1 -5 2.5 -8.5t5 -7l6.5 -6.5t10.5 -6.5t13.5 -6l18 -7.5t21.5 -8.5t26.5 -10t31 -11.5q117 -44 185.5 -124.5t68.5 -198.5z" />
    <glyph glyph-name="agrave" unicode="&#xe0;" horiz-adv-x="987" 
d="M422 -14q-156 0 -224.5 103.5t-43.5 277.5l39 268q60 420 423 420q184 0 253 -102.5t40 -309.5l-63 -463q-12 -80 43 -80q5 0 10 1t6 1q19 0 29 -13.5t10 -33.5q0 -32 -26 -47.5t-60 -15.5q-46 0 -82 31t-57 86q-138 -123 -297 -123zM471 100q119 0 244 101l69 497
q17 124 -28.5 184t-155.5 60q-123 0 -186.5 -73.5t-87.5 -233.5l-39 -268q-38 -267 184 -267zM619 1466l149 -186q6 -6 6 -16q0 -24 -19.5 -43t-41.5 -19q-27 0 -53 33l-139 180q-7 11 -7 21q0 22 19 40.5t39 18.5q7 0 12 -1t10 -5t7.5 -5.5t9 -8.5t8.5 -9z" />
    <glyph glyph-name="aacute" unicode="&#xe1;" horiz-adv-x="987" 
d="M422 -14q-156 0 -224.5 103.5t-43.5 277.5l39 268q60 420 423 420q184 0 253 -102.5t40 -309.5l-63 -463q-12 -80 43 -80q5 0 10 1t6 1q19 0 29 -13.5t10 -33.5q0 -32 -26 -47.5t-60 -15.5q-46 0 -82 31t-57 86q-138 -123 -297 -123zM471 100q119 0 244 101l69 497
q17 124 -28.5 184t-155.5 60q-123 0 -186.5 -73.5t-87.5 -233.5l-39 -268q-38 -267 184 -267zM602 1280l203 186q34 29 51 29q20 0 32.5 -14.5t12.5 -34.5q0 -21 -10 -31l-193 -178q-1 -1 -7 -6.5t-7.5 -6.5t-6.5 -5t-6.5 -5l-6 -4t-7 -3.5t-6 -2t-7 -2t-7.5 -0.5
q-20 0 -33.5 14.5t-13.5 36.5q0 15 12 27z" />
    <glyph glyph-name="acircumflex" unicode="&#xe2;" horiz-adv-x="987" 
d="M422 -14q-156 0 -224.5 103.5t-43.5 277.5l39 268q60 420 423 420q184 0 253 -102.5t40 -309.5l-63 -463q-12 -80 43 -80q5 0 10 1t6 1q19 0 29 -13.5t10 -33.5q0 -32 -26 -47.5t-60 -15.5q-46 0 -82 31t-57 86q-138 -123 -297 -123zM471 100q119 0 244 101l69 497
q17 124 -28.5 184t-155.5 60q-123 0 -186.5 -73.5t-87.5 -233.5l-39 -268q-38 -267 184 -267zM684 1337l-188 -139q-3 -6 -29 -6q-12 0 -21.5 11.5t-9.5 23.5q0 21 41 53l184 141h-2q30 15 39 15q10 0 35 -15h-2l147 -141q2 -4 9.5 -14.5t11.5 -18.5t4 -14q0 -14 -14 -27.5
t-31 -13.5q-20 0 -23 6z" />
    <glyph glyph-name="atilde" unicode="&#xe3;" horiz-adv-x="987" 
d="M422 -14q-156 0 -224.5 103.5t-43.5 277.5l39 268q60 420 423 420q184 0 253 -102.5t40 -309.5l-63 -463q-12 -80 43 -80q5 0 10 1t6 1q19 0 29 -13.5t10 -33.5q0 -32 -26 -47.5t-60 -15.5q-46 0 -82 31t-57 86q-138 -123 -297 -123zM471 100q119 0 244 101l69 497
q17 124 -28.5 184t-155.5 60q-123 0 -186.5 -73.5t-87.5 -233.5l-39 -268q-38 -267 184 -267zM958 1352q0 -48 -57 -83.5t-117 -35.5q-46 0 -114 37q-6 3 -17.5 9.5t-18.5 10t-20.5 7t-29.5 3.5q-49 0 -99 -36q-25 -19 -41 -19q-41 0 -41 39q0 45 54 84t116 39q49 0 115 -39
q49 -27 88 -29q58 0 103 35q31 25 47 25q12 0 22 -13.5t10 -33.5z" />
    <glyph glyph-name="adieresis" unicode="&#xe4;" horiz-adv-x="987" 
d="M422 -14q-156 0 -224.5 103.5t-43.5 277.5l39 268q60 420 423 420q184 0 253 -102.5t40 -309.5l-63 -463q-12 -80 43 -80q5 0 10 1t6 1q19 0 29 -13.5t10 -33.5q0 -32 -26 -47.5t-60 -15.5q-46 0 -82 31t-57 86q-138 -123 -297 -123zM471 100q119 0 244 101l69 497
q17 124 -28.5 184t-155.5 60q-123 0 -186.5 -73.5t-87.5 -233.5l-39 -268q-38 -267 184 -267zM942 1333q0 -39 -28.5 -67.5t-65.5 -28.5q-31 0 -53.5 22.5t-22.5 53.5q0 36 32 65t69 29q30 0 49.5 -22t19.5 -52zM588 1333q0 -39 -28.5 -67.5t-67.5 -28.5q-30 0 -51 22.5
t-21 53.5q0 35 29.5 64.5t66.5 29.5q31 0 51.5 -22t20.5 -52z" />
    <glyph glyph-name="aring" unicode="&#xe5;" horiz-adv-x="987" 
d="M422 -14q-156 0 -224.5 103.5t-43.5 277.5l39 268q60 420 423 420q184 0 253 -102.5t40 -309.5l-63 -463q-12 -80 43 -80q5 0 10 1t6 1q19 0 29 -13.5t10 -33.5q0 -32 -26 -47.5t-60 -15.5q-46 0 -82 31t-57 86q-138 -123 -297 -123zM471 100q119 0 244 101l69 497
q17 124 -28.5 184t-155.5 60q-123 0 -186.5 -73.5t-87.5 -233.5l-39 -268q-38 -267 184 -267zM883 1356q0 -87 -65.5 -150t-153.5 -63q-73 0 -121.5 48.5t-48.5 119.5q0 87 67.5 151t155.5 64q72 0 119 -49t47 -121zM819 1350q0 48 -30.5 81t-79.5 33q-59 0 -104.5 -43.5
t-45.5 -101.5q0 -48 32 -80.5t81 -32.5q59 0 103 42.5t44 101.5z" />
    <glyph glyph-name="ae" unicode="&#xe6;" horiz-adv-x="1458" 
d="M1108 430q-117 0 -229 23l-21 -146q-14 -96 42 -152.5t175 -56.5q44 0 87.5 9.5t69 19t77.5 31.5q12 6 26 6q21 0 34 -15t13 -36q0 -34 -37 -60t-92.5 -40t-108 -20.5t-95.5 -6.5q-99 0 -167.5 41.5t-101.5 115.5q-176 -157 -374 -157q-151 0 -219.5 81.5t-49.5 219.5
l2 8q41 299 398 299q96 0 225 -37l18 141q37 244 -207 244q-88 0 -170 -45q-3 0 -12 -6q-20 -10 -41 -10q-37 0 -37 49q0 62 89 93.5t208 31.5q203 0 260 -197q126 197 340 197q138 0 211.5 -74t73.5 -201q0 -165 -95 -257.5t-292 -92.5zM1362 768q0 170 -180 170
q-110 0 -181 -56.5t-83 -152.5l-25 -174q141 -16 237 -16q232 0 232 229zM711 201l34 245q-116 39 -225 39q-130 0 -184 -51t-66 -141l-2 -8q-24 -185 176 -185q133 0 267 101z" />
    <glyph glyph-name="ccedilla" unicode="&#xe7;" horiz-adv-x="804" 
d="M645 -260q0 -77 -63.5 -131.5t-175.5 -54.5q-52 0 -60 2q-45 5 -71 27t-7 50v-2q14 19 56 7l38 -9q78 -17 127.5 22.5t49.5 90.5q0 72 -129 78q-40 2 -52.5 12.5t-5.5 38.5l37 119q-140 24 -198 123t-37 243l43 320q25 167 130 270t287 103q38 0 79.5 -5t85 -16.5
t71 -33.5t27.5 -52q0 -25 -20 -43t-46 -18q-9 0 -29 4h2q-29 16 -49 25.5t-52.5 17.5t-68.5 8q-129 0 -196.5 -66t-87.5 -194l-43 -320q-40 -258 211 -258q37 0 72.5 8t54.5 16t55 25h-2q24 7 33 7q20 0 33.5 -15t13.5 -37q0 -31 -30.5 -55t-78.5 -36.5t-95 -19t-91 -7.5
l-31 -99q213 -3 213 -145z" />
    <glyph glyph-name="egrave" unicode="&#xe8;" horiz-adv-x="890" 
d="M498 98q44 0 87.5 9.5t68 19t77.5 31.5q12 6 23 6q23 0 37 -15t14 -36q0 -34 -37 -60t-93.5 -40t-111.5 -20.5t-102 -6.5q-167 0 -251 94t-63 239l56 394q21 151 132.5 246.5t287.5 95.5q145 0 217.5 -72t72.5 -201q0 -167 -93.5 -259.5t-291.5 -92.5q-117 0 -229 23
l-20 -146q-12 -96 43.5 -152.5t175.5 -56.5zM782 768q0 170 -182 170q-109 0 -178.5 -56.5t-83.5 -152.5l-25 -174q115 -16 238 -16q231 0 231 229zM531 1466l149 -186q6 -6 6 -16q0 -24 -19.5 -43t-41.5 -19q-27 0 -53 33l-139 180q-7 11 -7 21q0 22 19 40.5t39 18.5
q7 0 12 -1t10 -5t7.5 -5.5t9 -8.5t8.5 -9z" />
    <glyph glyph-name="eacute" unicode="&#xe9;" horiz-adv-x="890" 
d="M498 98q44 0 87.5 9.5t68 19t77.5 31.5q12 6 23 6q23 0 37 -15t14 -36q0 -34 -37 -60t-93.5 -40t-111.5 -20.5t-102 -6.5q-167 0 -251 94t-63 239l56 394q21 151 132.5 246.5t287.5 95.5q145 0 217.5 -72t72.5 -201q0 -167 -93.5 -259.5t-291.5 -92.5q-117 0 -229 23
l-20 -146q-12 -96 43.5 -152.5t175.5 -56.5zM782 768q0 170 -182 170q-109 0 -178.5 -56.5t-83.5 -152.5l-25 -174q115 -16 238 -16q231 0 231 229zM569 1280l203 186q34 29 51 29q20 0 32.5 -14.5t12.5 -34.5q0 -21 -10 -31l-192 -178q-40 -35 -62 -35q-20 0 -33.5 14.5
t-13.5 36.5q0 15 12 27z" />
    <glyph glyph-name="ecircumflex" unicode="&#xea;" horiz-adv-x="890" 
d="M498 98q44 0 87.5 9.5t68 19t77.5 31.5q12 6 23 6q23 0 37 -15t14 -36q0 -34 -37 -60t-93.5 -40t-111.5 -20.5t-102 -6.5q-167 0 -251 94t-63 239l56 394q21 151 132.5 246.5t287.5 95.5q145 0 217.5 -72t72.5 -201q0 -167 -93.5 -259.5t-291.5 -92.5q-117 0 -229 23
l-20 -146q-12 -96 43.5 -152.5t175.5 -56.5zM782 768q0 170 -182 170q-109 0 -178.5 -56.5t-83.5 -152.5l-25 -174q115 -16 238 -16q231 0 231 229zM635 1337l-188 -139q-3 -6 -29 -6q-12 0 -21.5 11.5t-9.5 23.5q0 21 41 53l184 141h-2q30 15 39 15q10 0 35 -15h-2
l147 -141q2 -4 9.5 -14.5t11.5 -18.5t4 -14q0 -14 -14 -27.5t-31 -13.5q-20 0 -23 6z" />
    <glyph glyph-name="edieresis" unicode="&#xeb;" horiz-adv-x="890" 
d="M498 98q44 0 87.5 9.5t68 19t77.5 31.5q12 6 23 6q23 0 37 -15t14 -36q0 -34 -37 -60t-93.5 -40t-111.5 -20.5t-102 -6.5q-167 0 -251 94t-63 239l56 394q21 151 132.5 246.5t287.5 95.5q145 0 217.5 -72t72.5 -201q0 -167 -93.5 -259.5t-291.5 -92.5q-117 0 -229 23
l-20 -146q-12 -96 43.5 -152.5t175.5 -56.5zM782 768q0 170 -182 170q-109 0 -178.5 -56.5t-83.5 -152.5l-25 -174q115 -16 238 -16q231 0 231 229zM895 1333q0 -39 -28.5 -67.5t-65.5 -28.5q-31 0 -53.5 22.5t-22.5 53.5q0 36 31.5 65t68.5 29q30 0 50 -22t20 -52z
M541 1333q0 -39 -29 -67.5t-68 -28.5q-30 0 -50.5 22.5t-20.5 53.5q0 35 29.5 64.5t66.5 29.5q31 0 51.5 -22t20.5 -52z" />
    <glyph glyph-name="igrave" unicode="&#xec;" horiz-adv-x="501" 
d="M213 184l113 797q3 28 24.5 48t50.5 20q26 0 43.5 -20t14.5 -48l-113 -797q-8 -61 19 -110q6 -12 6 -25q0 -26 -20.5 -44.5t-49.5 -18.5q-116 0 -88 198zM352 1466l149 -186q6 -6 6 -16q0 -24 -19.5 -43t-41.5 -19q-27 0 -53 33l-139 180q-7 11 -7 21q0 22 19 40.5
t39 18.5q7 0 12 -1t10 -5t7.5 -5.5t9 -8.5t8.5 -9z" />
    <glyph glyph-name="iacute" unicode="&#xed;" horiz-adv-x="501" 
d="M213 184l113 797q3 28 24.5 48t50.5 20q26 0 43.5 -20t14.5 -48l-113 -797q-8 -61 19 -110q6 -12 6 -25q0 -26 -20.5 -44.5t-49.5 -18.5q-116 0 -88 198zM371 1280l202 186q34 29 52 29q20 0 32.5 -14.5t12.5 -34.5t-11 -31l-192 -178q-1 -1 -7 -6.5t-7.5 -6.5t-6.5 -5
t-6.5 -5l-6 -4t-7 -3.5t-6 -2t-7 -2t-7.5 -0.5q-20 0 -34 14.5t-14 36.5q0 14 13 27z" />
    <glyph glyph-name="icircumflex" unicode="&#xee;" horiz-adv-x="501" 
d="M213 184l113 797q3 28 24.5 48t50.5 20q26 0 43.5 -20t14.5 -48l-113 -797q-8 -61 19 -110q6 -12 6 -25q0 -26 -20.5 -44.5t-49.5 -18.5q-116 0 -88 198zM442 1337l-188 -139q-3 -6 -29 -6q-12 0 -21.5 11.5t-9.5 23.5q0 21 41 53l184 141h-2q30 15 39 15q10 0 35 -15h-2
l147 -141q2 -4 9.5 -14.5t11.5 -18.5t4 -14q0 -14 -14 -27.5t-31 -13.5q-20 0 -23 6z" />
    <glyph glyph-name="idieresis" unicode="&#xef;" horiz-adv-x="501" 
d="M213 184l113 797q3 28 24.5 48t50.5 20q26 0 43.5 -20t14.5 -48l-113 -797q-8 -61 19 -110q6 -12 6 -25q0 -26 -20.5 -44.5t-49.5 -18.5q-116 0 -88 198zM700 1333q0 -39 -28.5 -67.5t-65.5 -28.5q-31 0 -53.5 22.5t-22.5 53.5q0 36 32 65t69 29q30 0 49.5 -22t19.5 -52z
M346 1333q0 -39 -28.5 -67.5t-67.5 -28.5q-30 0 -51 22.5t-21 53.5q0 35 29.5 64.5t66.5 29.5q31 0 51.5 -22t20.5 -52z" />
    <glyph glyph-name="eth" unicode="&#xf0;" horiz-adv-x="1024" 
d="M1174 1386q21 -1 30 -18.5t2.5 -38.5t-26.5 -31l-152 -73q31 -121 31 -326q0 -206 -22 -361t-63.5 -261t-107 -171.5t-146.5 -94.5t-188 -29q-194 0 -290.5 102.5t-96.5 271.5q0 143 52.5 264t157 197t241.5 76q72 0 158.5 -27.5t156.5 -89.5q34 244 4 389l-165 -82
q-28 -12 -43 -12q-16 0 -28.5 15.5t-6.5 33.5q8 29 28 39l181 90q-46 58 -98 79.5t-121 29.5q-15 1 -24 4t-15.5 15t-1.5 34q6 31 28.5 43t81.5 12q180 0 266 -159l136 67q24 12 41 12zM887 578l10 65q-45 56 -135.5 92.5t-167.5 36.5q-141 0 -227 -108.5t-86 -286.5
q0 -124 63 -197.5t197 -73.5q156 0 232 109t114 363z" />
    <glyph glyph-name="ntilde" unicode="&#xf1;" horiz-adv-x="1042" 
d="M397 950q160 101 322 101q156 0 222.5 -103t41.5 -280l-68 -484q-9 -67 19 -110q4 -8 4 -25q0 -26 -19.5 -44.5t-48.5 -18.5q-116 0 -88 198l68 484q19 128 -25.5 198t-146.5 70q-118 0 -264 -98q2 -23 -2 -70l-101 -717q-5 -29 -24.5 -46t-50.5 -17q-33 0 -48 17t-12 46
l103 717q14 101 -17 156q-6 12 -6 28q0 27 21 46.5t47 19.5q21 0 41 -18t32 -50zM962 1352q0 -48 -57 -83.5t-117 -35.5q-47 0 -115 37q-6 3 -17.5 9.5t-18.5 10t-20.5 7t-29.5 3.5q-48 0 -98 -36q-25 -19 -41 -19q-41 0 -41 39q0 45 54 84t116 39q49 0 115 -39
q49 -27 88 -29q57 0 102 35q31 25 47 25q12 0 22.5 -13.5t10.5 -33.5z" />
    <glyph glyph-name="ograve" unicode="&#xf2;" horiz-adv-x="950" 
d="M479 -14q-179 0 -264.5 100t-62.5 258l49 352q23 158 137 259.5t293 101.5q180 0 265 -101.5t62 -259.5l-49 -352q-23 -158 -136.5 -258t-293.5 -100zM498 106q121 0 192 63t86 175l49 354q15 113 -38 176.5t-173 63.5t-192.5 -64t-87.5 -176l-49 -354q-15 -112 39 -175
t174 -63zM586 1466l149 -186q6 -6 6 -16q0 -24 -19.5 -43t-41.5 -19q-27 0 -53 33l-139 180q-7 11 -7 21q0 22 19 40.5t39 18.5q7 0 12 -1t10 -5t7.5 -5.5t9 -8.5t8.5 -9z" />
    <glyph glyph-name="oacute" unicode="&#xf3;" horiz-adv-x="950" 
d="M479 -14q-179 0 -264.5 100t-62.5 258l49 352q23 158 137 259.5t293 101.5q180 0 265 -101.5t62 -259.5l-49 -352q-23 -158 -136.5 -258t-293.5 -100zM498 106q121 0 192 63t86 175l49 354q15 113 -38 176.5t-173 63.5t-192.5 -64t-87.5 -176l-49 -354q-15 -112 39 -175
t174 -63zM522 1280l203 186q34 29 51 29q20 0 32.5 -14.5t12.5 -34.5q0 -21 -10 -31l-193 -178q-1 -1 -7 -6.5t-7.5 -6.5t-6.5 -5t-6.5 -5l-6 -4t-7 -3.5t-6 -2t-7 -2t-7.5 -0.5q-20 0 -33.5 14.5t-13.5 36.5q0 15 12 27z" />
    <glyph glyph-name="ocircumflex" unicode="&#xf4;" horiz-adv-x="950" 
d="M479 -14q-179 0 -264.5 100t-62.5 258l49 352q23 158 137 259.5t293 101.5q180 0 265 -101.5t62 -259.5l-49 -352q-23 -158 -136.5 -258t-293.5 -100zM498 106q121 0 192 63t86 175l49 354q15 113 -38 176.5t-173 63.5t-192.5 -64t-87.5 -176l-49 -354q-15 -112 39 -175
t174 -63zM666 1337l-188 -139q-3 -6 -29 -6q-12 0 -21.5 11.5t-9.5 23.5q0 21 41 53l184 141h-2q30 15 39 15q10 0 35 -15h-2l147 -141q2 -4 9.5 -14.5t11.5 -18.5t4 -14q0 -14 -14 -27.5t-31 -13.5q-20 0 -23 6z" />
    <glyph glyph-name="otilde" unicode="&#xf5;" horiz-adv-x="950" 
d="M479 -14q-179 0 -264.5 100t-62.5 258l49 352q23 158 137 259.5t293 101.5q180 0 265 -101.5t62 -259.5l-49 -352q-23 -158 -136.5 -258t-293.5 -100zM498 106q121 0 192 63t86 175l49 354q15 113 -38 176.5t-173 63.5t-192.5 -64t-87.5 -176l-49 -354q-15 -112 39 -175
t174 -63zM940 1352q0 -48 -57 -83.5t-117 -35.5q-47 0 -115 37q-6 3 -17.5 9.5t-18.5 10t-20.5 7t-29.5 3.5q-48 0 -98 -36q-25 -19 -41 -19q-41 0 -41 39q0 45 54 84t116 39q49 0 115 -39q49 -27 88 -29q57 0 102 35q31 25 47 25q12 0 22.5 -13.5t10.5 -33.5z" />
    <glyph glyph-name="odieresis" unicode="&#xf6;" horiz-adv-x="950" 
d="M479 -14q-179 0 -264.5 100t-62.5 258l49 352q23 158 137 259.5t293 101.5q180 0 265 -101.5t62 -259.5l-49 -352q-23 -158 -136.5 -258t-293.5 -100zM498 106q121 0 192 63t86 175l49 354q15 113 -38 176.5t-173 63.5t-192.5 -64t-87.5 -176l-49 -354q-15 -112 39 -175
t174 -63zM923 1333q0 -39 -28.5 -67.5t-65.5 -28.5q-31 0 -53.5 22.5t-22.5 53.5q0 36 32 65t69 29q30 0 49.5 -22t19.5 -52zM569 1333q0 -39 -28.5 -67.5t-67.5 -28.5q-30 0 -51 22.5t-21 53.5q0 35 29.5 64.5t66.5 29.5q31 0 51.5 -22t20.5 -52z" />
    <glyph glyph-name="oslash" unicode="&#xf8;" horiz-adv-x="950" 
d="M92 20l90 109q-48 92 -32 215l49 352q23 158 137 259.5t293 101.5q154 0 256 -92l80 96q12 14 28 17t27 -7q30 -26 4 -55l-94 -113q42 -88 26 -207l-49 -352q-23 -158 -135.5 -258t-292.5 -100q-151 0 -252 82l-75 -93q-10 -13 -28 -15t-30 7q-10 9 -10 24.5t8 28.5z
M283 344q-5 -27 -2 -96l512 610q-58 80 -181 80q-119 0 -190.5 -63.5t-89.5 -176.5zM496 106q121 0 192 63t86 175l49 354q4 24 4 82l-510 -606q59 -68 179 -68z" />
    <glyph glyph-name="ugrave" unicode="&#xf9;" horiz-adv-x="1042" 
d="M784 246l105 737q5 29 24.5 47.5t51.5 18.5q31 0 46.5 -18.5t10.5 -47.5l-104 -737q-15 -107 4 -133q22 -26 22 -54q0 -25 -21 -43t-49 -18q-44 0 -77 68q-149 -80 -316 -80q-156 0 -223.5 103t-42.5 278l86 616q5 29 25 47.5t51 18.5t45.5 -18.5t11.5 -47.5l-86 -616
q-19 -127 25.5 -197t146.5 -70q126 0 260 78q0 41 4 68zM604 1466l149 -186q6 -6 6 -16q0 -24 -19.5 -43t-41.5 -19q-27 0 -53 33l-139 180q-7 11 -7 21q0 22 19 40.5t39 18.5q7 0 12 -1t10 -5t7.5 -5.5t9 -8.5t8.5 -9z" />
    <glyph glyph-name="uacute" unicode="&#xfa;" horiz-adv-x="1042" 
d="M784 246l105 737q5 29 24.5 47.5t51.5 18.5q31 0 46.5 -18.5t10.5 -47.5l-104 -737q-15 -107 4 -133q22 -26 22 -54q0 -25 -21 -43t-49 -18q-44 0 -77 68q-149 -80 -316 -80q-156 0 -223.5 103t-42.5 278l86 616q5 29 25 47.5t51 18.5t45.5 -18.5t11.5 -47.5l-86 -616
q-19 -127 25.5 -197t146.5 -70q126 0 260 78q0 41 4 68zM637 1280l203 186q34 29 51 29q20 0 32.5 -14.5t12.5 -34.5q0 -21 -10 -31l-193 -178q-1 -1 -7 -6.5t-7.5 -6.5t-6.5 -5t-6.5 -5l-6 -4t-7 -3.5t-6 -2t-7 -2t-7.5 -0.5q-20 0 -33.5 14.5t-13.5 36.5q0 15 12 27z" />
    <glyph glyph-name="ucircumflex" unicode="&#xfb;" horiz-adv-x="1042" 
d="M784 246l105 737q5 29 24.5 47.5t51.5 18.5q31 0 46.5 -18.5t10.5 -47.5l-104 -737q-15 -107 4 -133q22 -26 22 -54q0 -25 -21 -43t-49 -18q-44 0 -77 68q-149 -80 -316 -80q-156 0 -223.5 103t-42.5 278l86 616q5 29 25 47.5t51 18.5t45.5 -18.5t11.5 -47.5l-86 -616
q-19 -127 25.5 -197t146.5 -70q126 0 260 78q0 41 4 68zM711 1337l-188 -139q-3 -6 -29 -6q-12 0 -21.5 11.5t-9.5 23.5q0 21 41 53l184 141h-2q30 15 39 15q10 0 35 -15h-2l147 -141q2 -4 9.5 -14.5t11.5 -18.5t4 -14q0 -14 -14 -27.5t-31 -13.5q-20 0 -23 6z" />
    <glyph glyph-name="udieresis" unicode="&#xfc;" horiz-adv-x="1042" 
d="M784 246l105 737q5 29 24.5 47.5t51.5 18.5q31 0 46.5 -18.5t10.5 -47.5l-104 -737q-15 -107 4 -133q22 -26 22 -54q0 -25 -21 -43t-49 -18q-44 0 -77 68q-149 -80 -316 -80q-156 0 -223.5 103t-42.5 278l86 616q5 29 25 47.5t51 18.5t45.5 -18.5t11.5 -47.5l-86 -616
q-19 -127 25.5 -197t146.5 -70q126 0 260 78q0 41 4 68zM971 1333q0 -39 -28.5 -67.5t-65.5 -28.5q-31 0 -53.5 22.5t-22.5 53.5q0 36 31.5 65t68.5 29q30 0 50 -22t20 -52zM616 1333q0 -39 -28.5 -67.5t-67.5 -28.5q-30 0 -50.5 22.5t-20.5 53.5q0 35 29.5 64.5t66.5 29.5
q31 0 51 -22t20 -52z" />
    <glyph glyph-name="yacute" unicode="&#xfd;" horiz-adv-x="1042" 
d="M190 354l91 629q3 29 23.5 47.5t51.5 18.5t46 -18.5t12 -47.5l-90 -629q-37 -256 188 -256q150 0 266 107l109 778q5 29 25.5 47.5t52.5 18.5q31 0 45.5 -18.5t9.5 -47.5l-152 -1081q-23 -166 -127.5 -269.5t-283.5 -103.5q-39 0 -81.5 5.5t-85 16.5t-70 33t-27.5 51
q0 24 19.5 44t43.5 20q13 0 31 -6h-2q82 -49 170 -49q128 0 195 65.5t85 192.5l25 174q-150 -88 -297 -88q-324 0 -273 366zM645 1280l203 186q34 29 51 29q20 0 32.5 -14.5t12.5 -34.5q0 -21 -10 -31l-192 -178q-40 -35 -62 -35q-20 0 -33.5 14.5t-13.5 36.5q0 15 12 27z
" />
    <glyph glyph-name="thorn" unicode="&#xfe;" horiz-adv-x="993" 
d="M412 827l-80 -569q85 -115 241 -115q217 0 246 201l55 397q29 203 -188 203q-150 0 -274 -117zM109 -381l253 1800q3 26 24 46t52 20t46 -19.5t12 -46.5l-66 -465q153 101 313 101q83 0 141 -24.5t86 -66.5t39 -99.5t-1 -123.5l-56 -397q-20 -143 -106.5 -228t-247.5 -85
q-152 0 -285 100l-71 -512q-3 -26 -23 -44.5t-51 -18.5t-46.5 18.5t-12.5 44.5z" />
    <glyph glyph-name="ydieresis" unicode="&#xff;" horiz-adv-x="1042" 
d="M190 354l91 629q3 29 23.5 47.5t51.5 18.5t46 -18.5t12 -47.5l-90 -629q-37 -256 188 -256q150 0 266 107l109 778q5 29 25.5 47.5t52.5 18.5q31 0 45.5 -18.5t9.5 -47.5l-152 -1081q-23 -166 -127.5 -269.5t-283.5 -103.5q-39 0 -81.5 5.5t-85 16.5t-70 33t-27.5 51
q0 24 19.5 44t43.5 20q13 0 31 -6h-2q82 -49 170 -49q128 0 195 65.5t85 192.5l25 174q-150 -88 -297 -88q-324 0 -273 366zM967 1333q0 -39 -29 -67.5t-66 -28.5q-31 0 -53 22.5t-22 53.5q0 36 31.5 65t68.5 29q30 0 50 -22t20 -52zM612 1333q0 -39 -28.5 -67.5
t-67.5 -28.5q-30 0 -51 22.5t-21 53.5q0 35 30 64.5t67 29.5q31 0 51 -22t20 -52z" />
    <glyph glyph-name="Amacron" unicode="&#x100;" horiz-adv-x="1124" 
d="M338 334l-135 -303q-12 -19 -33.5 -34t-38.5 -15q-28 0 -45.5 16t-17.5 43q0 11 8 35l590 1290q21 48 46 74t62 26q64 0 82 -100l225 -1290q0 -19 -2 -27q-4 -30 -26.5 -48.5t-53.5 -18.5q-20 0 -38 14t-21 35l-51 303h-551zM741 1243l-346 -776h473zM1129 1737
q0 -29 -20 -48t-48 -19h-522q-23 0 -38 14t-15 37q0 28 21 48.5t50 20.5h522q21 0 35.5 -15.5t14.5 -37.5z" />
    <glyph glyph-name="amacron" unicode="&#x101;" horiz-adv-x="987" 
d="M422 -14q-156 0 -224.5 103.5t-43.5 277.5l39 268q60 420 423 420q184 0 253 -102.5t40 -309.5l-63 -463q-12 -80 43 -80q5 0 10 1t6 1q19 0 29 -13.5t10 -33.5q0 -32 -26 -47.5t-60 -15.5q-46 0 -82 31t-57 86q-138 -123 -297 -123zM471 100q119 0 244 101l69 497
q17 124 -28.5 184t-155.5 60q-123 0 -186.5 -73.5t-87.5 -233.5l-39 -268q-38 -267 184 -267zM956 1327q0 -29 -19.5 -48t-47.5 -19h-522q-24 0 -39 14t-15 37q0 28 21.5 48.5t50.5 20.5h522q21 0 35 -15.5t14 -37.5z" />
    <glyph glyph-name="Abreve" unicode="&#x102;" horiz-adv-x="1124" 
d="M338 334l-135 -303q-12 -19 -33.5 -34t-38.5 -15q-28 0 -45.5 16t-17.5 43q0 11 8 35l590 1290q21 48 46 74t62 26q64 0 82 -100l225 -1290q0 -19 -2 -27q-4 -30 -26.5 -48.5t-53.5 -18.5q-20 0 -38 14t-21 35l-51 303h-551zM741 1243l-346 -776h473zM805 1704
q85 0 162 92q23 29 55 29q23 0 31.5 -13.5t-2.5 -45.5q-30 -72 -107 -115t-151 -43q-47 0 -95 17t-85.5 54.5t-40.5 86.5q-1 26 16.5 42.5t36.5 16.5q31 0 45 -29q54 -92 135 -92z" />
    <glyph glyph-name="abreve" unicode="&#x103;" horiz-adv-x="987" 
d="M422 -14q-156 0 -224.5 103.5t-43.5 277.5l39 268q60 420 423 420q184 0 253 -102.5t40 -309.5l-63 -463q-12 -80 43 -80q5 0 10 1t6 1q19 0 29 -13.5t10 -33.5q0 -32 -26 -47.5t-60 -15.5q-46 0 -82 31t-57 86q-138 -123 -297 -123zM471 100q119 0 244 101l69 497
q17 124 -28.5 184t-155.5 60q-123 0 -186.5 -73.5t-87.5 -233.5l-39 -268q-38 -267 184 -267zM680 1294q85 0 162 92q23 29 55 29q23 0 31.5 -13.5t-2.5 -45.5q-30 -72 -107 -115t-151 -43q-47 0 -95.5 17t-86 54.5t-40.5 86.5q-1 26 16.5 42.5t37.5 16.5q30 0 45 -29
q54 -92 135 -92z" />
    <glyph glyph-name="Aogonek" unicode="&#x104;" horiz-adv-x="1124" 
d="M1167 -336q0 -70 -153 -70q-84 0 -131 36.5t-47 109.5q0 115 127 256q-25 19 -25 35l-51 303h-549l-135 -303q-12 -19 -34.5 -34t-37.5 -15q-28 0 -46.5 16t-18.5 43q0 11 8 35l592 1290q21 48 46 74t62 26q35 0 52 -25.5t30 -74.5l225 -1290q0 -19 -2 -27
q-4 -27 -32 -55q-44 -42 -71.5 -104t-27.5 -107q0 -42 24 -67t72 -25q16 0 64 6q20 4 25 4q14 0 24 -11.5t10 -25.5zM741 1243l-346 -776h473z" />
    <glyph glyph-name="aogonek" unicode="&#x105;" horiz-adv-x="987" 
d="M719 109q-138 -123 -297 -123q-156 0 -224.5 103.5t-43.5 277.5l39 268q60 420 423 420q184 0 253 -102.5t40 -309.5l-63 -463q-12 -80 41 -80q6 0 11.5 1t6.5 1q37 0 37 -47q0 -14 -5 -25t-10 -15.5t-16 -12.5q-54 -43 -82 -108.5t-28 -112.5q0 -42 23.5 -68t70.5 -26
q16 0 27.5 1.5t22 4t13.5 2.5q20 4 29 4q14 0 23.5 -12t9.5 -27q0 -70 -156 -70q-85 0 -132.5 37.5t-47.5 110.5q0 109 133 256q-70 30 -98 115zM471 100q119 0 244 101l69 497q17 124 -28.5 184t-155.5 60q-123 0 -186.5 -73.5t-87.5 -233.5l-39 -268q-38 -267 184 -267z
" />
    <glyph glyph-name="Cacute" unicode="&#x106;" horiz-adv-x="987" 
d="M172 500l64 448q35 242 169 380t361 138q86 0 162.5 -21t123 -57t46.5 -77q0 -28 -19.5 -47t-48.5 -19q-16 0 -43 19l-18 12q-95 70 -211 70q-178 0 -267.5 -102t-117.5 -296l-64 -448q-14 -91 -5.5 -164t38 -124.5t90.5 -79.5t152 -28q122 0 225 66l25 14q34 21 49 21
q24 0 37.5 -14.5t13.5 -36.5q0 -45 -55 -84.5t-142 -62.5t-180 -23q-227 0 -322.5 137.5t-62.5 378.5zM737 1690l203 186q34 29 51 29q20 0 32.5 -14.5t12.5 -34.5q0 -21 -10 -31l-192 -178q-40 -35 -62 -35q-20 0 -33.5 14.5t-13.5 36.5q0 15 12 27z" />
    <glyph glyph-name="cacute" unicode="&#x107;" horiz-adv-x="804" 
d="M152 356l45 320q25 167 130 270t287 103q37 0 78.5 -5t84 -16.5t70 -33.5t27.5 -52q0 -25 -18.5 -43t-44.5 -18q-13 0 -29 4h2q-31 17 -50 26t-51.5 17t-68.5 8q-129 0 -196.5 -66t-87.5 -194l-45 -320q-37 -258 213 -258q37 0 72.5 8t54.5 16t55 25h-2q24 7 31 7
q21 0 35 -15t14 -37q0 -32 -31.5 -56t-80 -36t-94.5 -18t-87 -6q-182 0 -259 102t-54 268zM553 1280l203 186q34 29 51 29q20 0 32.5 -14.5t12.5 -34.5q0 -21 -10 -31l-193 -178q-1 -1 -7 -6.5t-7.5 -6.5t-6.5 -5t-6.5 -5l-6 -4t-7 -3.5t-6 -2t-7 -2t-7.5 -0.5
q-20 0 -33.5 14.5t-13.5 36.5q0 15 12 27z" />
    <glyph glyph-name="Ccircumflex" unicode="&#x108;" horiz-adv-x="987" 
d="M172 500l64 448q35 242 169 380t361 138q86 0 162.5 -21t123 -57t46.5 -77q0 -28 -19.5 -47t-48.5 -19q-16 0 -43 19l-18 12q-95 70 -211 70q-178 0 -267.5 -102t-117.5 -296l-64 -448q-14 -91 -5.5 -164t38 -124.5t90.5 -79.5t152 -28q122 0 225 66l25 14q34 21 49 21
q24 0 37.5 -14.5t13.5 -36.5q0 -45 -55 -84.5t-142 -62.5t-180 -23q-227 0 -322.5 137.5t-62.5 378.5zM795 1747l-188 -139q-3 -6 -29 -6q-12 0 -21.5 11.5t-9.5 23.5q0 21 41 53l184 141h-2q30 15 39 15q10 0 35 -15h-2l147 -141q2 -4 9.5 -14.5t11.5 -18.5t4 -14
q0 -14 -14 -27.5t-31 -13.5q-20 0 -23 6z" />
    <glyph glyph-name="ccircumflex" unicode="&#x109;" horiz-adv-x="804" 
d="M152 356l45 320q25 167 130 270t287 103q37 0 78.5 -5t84 -16.5t70 -33.5t27.5 -52q0 -25 -18.5 -43t-44.5 -18q-13 0 -29 4h2q-31 17 -50 26t-51.5 17t-68.5 8q-129 0 -196.5 -66t-87.5 -194l-45 -320q-37 -258 213 -258q37 0 72.5 8t54.5 16t55 25h-2q24 7 31 7
q21 0 35 -15t14 -37q0 -32 -31.5 -56t-80 -36t-94.5 -18t-87 -6q-182 0 -259 102t-54 268zM594 1337l-188 -139q-3 -6 -29 -6q-12 0 -21.5 11.5t-9.5 23.5q0 21 41 53l184 141h-2q30 15 39 15q10 0 35 -15h-2l147 -141q2 -4 9.5 -14.5t11.5 -18.5t4 -14q0 -14 -14 -27.5
t-31 -13.5q-20 0 -23 6z" />
    <glyph glyph-name="Cdotaccent" unicode="&#x10a;" horiz-adv-x="987" 
d="M172 500l64 448q35 242 169 380t361 138q86 0 162.5 -21t123 -57t46.5 -77q0 -28 -19.5 -47t-48.5 -19q-16 0 -43 19l-18 12q-95 70 -211 70q-178 0 -267.5 -102t-117.5 -296l-64 -448q-14 -91 -5.5 -164t38 -124.5t90.5 -79.5t152 -28q122 0 225 66l25 14q34 21 49 21
q24 0 37.5 -14.5t13.5 -36.5q0 -45 -55 -84.5t-142 -62.5t-180 -23q-227 0 -322.5 137.5t-62.5 378.5zM821 1743q0 -39 -28.5 -67.5t-67.5 -28.5q-30 0 -51 22.5t-21 53.5q0 35 29.5 64.5t66.5 29.5q31 0 51.5 -22t20.5 -52z" />
    <glyph glyph-name="cdotaccent" unicode="&#x10b;" horiz-adv-x="804" 
d="M152 356l45 320q25 167 130 270t287 103q37 0 78.5 -5t84 -16.5t70 -33.5t27.5 -52q0 -25 -18.5 -43t-44.5 -18q-13 0 -29 4h2q-31 17 -50 26t-51.5 17t-68.5 8q-129 0 -196.5 -66t-87.5 -194l-45 -320q-37 -258 213 -258q37 0 72.5 8t54.5 16t55 25h-2q24 7 31 7
q21 0 35 -15t14 -37q0 -32 -31.5 -56t-80 -36t-94.5 -18t-87 -6q-182 0 -259 102t-54 268zM672 1333q0 -39 -29 -67.5t-68 -28.5q-30 0 -50.5 22.5t-20.5 53.5q0 35 29.5 64.5t66.5 29.5q31 0 51.5 -22t20.5 -52z" />
    <glyph glyph-name="Ccaron" unicode="&#x10c;" horiz-adv-x="987" 
d="M172 500l64 448q35 242 169 380t361 138q86 0 162.5 -21t123 -57t46.5 -77q0 -28 -19.5 -47t-48.5 -19q-16 0 -43 19l-18 12q-95 70 -211 70q-178 0 -267.5 -102t-117.5 -296l-64 -448q-14 -91 -5.5 -164t38 -124.5t90.5 -79.5t152 -28q122 0 225 66l25 14q34 21 49 21
q24 0 37.5 -14.5t13.5 -36.5q0 -45 -55 -84.5t-142 -62.5t-180 -23q-227 0 -322.5 137.5t-62.5 378.5zM792 1588q-27 0 -37 14l-163 154q-31 31 -31 55q0 20 19 34.5t36 14.5q15 0 27 -12l164 -150l204 150q15 12 31 12q17 0 29 -11t12 -28q0 -20 -10.5 -34t-34.5 -31
l-207 -154q-14 -14 -39 -14z" />
    <glyph glyph-name="ccaron" unicode="&#x10d;" horiz-adv-x="804" 
d="M152 356l45 320q25 167 130 270t287 103q37 0 78.5 -5t84 -16.5t70 -33.5t27.5 -52q0 -25 -18.5 -43t-44.5 -18q-13 0 -29 4h2q-31 17 -50 26t-51.5 17t-68.5 8q-129 0 -196.5 -66t-87.5 -194l-45 -320q-37 -258 213 -258q37 0 72.5 8t54.5 16t55 25h-2q24 7 31 7
q21 0 35 -15t14 -37q0 -32 -31.5 -56t-80 -36t-94.5 -18t-87 -6q-182 0 -259 102t-54 268zM627 1178q-27 0 -37 14l-164 154q-31 31 -31 55q0 20 19.5 34.5t36.5 14.5q14 0 26 -12l164 -150l205 150q15 12 31 12q17 0 29 -11t12 -28q0 -20 -11 -33.5t-35 -31.5l-206 -154
q-14 -14 -39 -14z" />
    <glyph glyph-name="Dcaron" unicode="&#x10e;" horiz-adv-x="1134" 
d="M1116 539q-12 -87 -40.5 -163.5t-80 -146t-121 -119t-170 -79t-221.5 -29.5h-237q-34 0 -55 24.5t-17 59.5l180 1276q4 35 33.5 60.5t63.5 25.5h237q101 0 182.5 -19.5t135.5 -54.5t93 -83.5t56 -106t22.5 -122t-6.5 -132.5zM979 539l55 391q8 65 5 123t-26 106.5
t-61 83.5t-101 54.5t-146 19.5h-222l-168 -1184h222q104 0 185 31t132.5 88t82 128t42.5 159zM794 1588q-27 0 -37 14l-163 154q-31 31 -31 55q0 20 19 34.5t36 14.5q15 0 27 -12l164 -150l204 150q15 12 31 12q17 0 29 -11t12 -28q0 -20 -10.5 -34t-34.5 -31l-207 -154
q-14 -14 -39 -14z" />
    <glyph glyph-name="dcaron" unicode="&#x10f;" horiz-adv-x="1239" 
d="M588 1047q108 0 241 -46l62 435q3 27 24 46t52 19t45.5 -18.5t11.5 -46.5l-170 -1211q-8 -49 1 -80.5t40 -58.5q4 -12 4 -23q0 -27 -19.5 -45t-45.5 -18q-64 0 -97 72q-179 -86 -315 -86q-156 0 -224 103.5t-44 277.5l39 268q14 96 41 168t72.5 128.5t116.5 86t165 29.5z
M721 225l92 660q-54 24 -116 37.5t-103 13.5q-123 0 -184.5 -71t-83.5 -230l-39 -268q-35 -267 184 -267q108 0 250 66q-4 35 0 59zM1374 1403q0 -56 -36 -138t-81 -141t-71 -59q-25 0 -25 16q0 5 0.5 9.5t2.5 10t3.5 9t5 10t5.5 10t7.5 11t7.5 10t8.5 11.5t8.5 12
q37 51 62 114q-40 4 -66 30.5t-26 61.5q0 42 34.5 74.5t77.5 32.5q36 0 59 -24t23 -60z" />
    <glyph glyph-name="Dcroat" unicode="&#x110;" horiz-adv-x="1175" 
d="M1157 539q-13 -87 -41 -163t-79 -146t-120.5 -119.5t-169.5 -79t-221 -29.5h-237q-34 0 -57 24.5t-19 59.5l82 580h-96q-24 0 -39 14t-15 37q0 28 21.5 48.5t50.5 20.5h96l80 576q4 35 34.5 60.5t64.5 25.5h237q101 0 182 -19.5t135.5 -54.5t93 -83.5t55 -106t22 -122
t-6.5 -132.5zM788 733q0 -29 -19.5 -48t-47.5 -19h-289l-74 -533h222q104 0 184.5 31t132 88t82 128t43.5 159l53 391q8 65 5 123t-26 106.5t-61.5 83.5t-101.5 54.5t-146 19.5h-221l-73 -531h288q21 0 35 -15.5t14 -37.5z" />
    <glyph glyph-name="dcroat" unicode="&#x111;" horiz-adv-x="999" 
d="M1174 1272q0 -28 -20 -48t-46 -20h-117l-137 -979q-8 -49 1 -80.5t40 -58.5q4 -12 4 -23q0 -27 -20.5 -45t-44.5 -18q-64 0 -97 72q-183 -86 -317 -86q-154 0 -223 103.5t-45 277.5l38 268q14 95 41.5 168t73.5 129t116.5 85.5t164.5 29.5q110 0 243 -46l29 203h-276
q-26 0 -41 14.5t-15 38.5q0 28 21.5 49t50.5 21h276l17 109q3 28 23.5 46.5t52.5 18.5q31 0 45.5 -18.5t11.5 -46.5l-16 -109h116q23 0 36.5 -15.5t13.5 -39.5zM721 225l92 660q-54 23 -116.5 37t-102.5 14q-124 0 -186 -71t-84 -230l-39 -268q-35 -267 186 -267
q108 0 250 66q-4 35 0 59z" />
    <glyph glyph-name="Emacron" unicode="&#x112;" horiz-adv-x="970" 
d="M911 78q0 -31 -23.5 -53.5t-53.5 -22.5h-555q-52 0 -82.5 19t-24.5 63l180 1278q5 33 33 58.5t64 25.5h567q24 0 39.5 -17.5t15.5 -44.5q0 -29 -22 -49t-52 -20h-516l-73 -522h475q25 0 41 -16.5t16 -41.5q0 -30 -22.5 -51.5t-53.5 -21.5h-475l-74 -529h537
q24 0 41.5 -16.5t17.5 -38.5zM1053 1737q0 -29 -20 -48t-48 -19h-522q-23 0 -38 14t-15 37q0 28 21 48.5t50 20.5h522q21 0 35.5 -15.5t14.5 -37.5z" />
    <glyph glyph-name="emacron" unicode="&#x113;" horiz-adv-x="890" 
d="M498 98q44 0 87.5 9.5t68 19t77.5 31.5q12 6 23 6q23 0 37 -15t14 -36q0 -34 -37 -60t-93.5 -40t-111.5 -20.5t-102 -6.5q-167 0 -251 94t-63 239l56 394q21 151 132.5 246.5t287.5 95.5q145 0 217.5 -72t72.5 -201q0 -167 -93.5 -259.5t-291.5 -92.5q-117 0 -229 23
l-20 -146q-12 -96 43.5 -152.5t175.5 -56.5zM782 768q0 170 -182 170q-109 0 -178.5 -56.5t-83.5 -152.5l-25 -174q115 -16 238 -16q231 0 231 229zM954 1327q0 -29 -19.5 -48t-47.5 -19h-522q-24 0 -39 14t-15 37q0 28 21.5 48.5t50.5 20.5h522q21 0 35 -15.5t14 -37.5z
" />
    <glyph glyph-name="Ebreve" unicode="&#x114;" horiz-adv-x="970" 
d="M911 78q0 -31 -23.5 -53.5t-53.5 -22.5h-555q-52 0 -82.5 19t-24.5 63l180 1278q5 33 33 58.5t64 25.5h567q24 0 39.5 -17.5t15.5 -44.5q0 -29 -22 -49t-52 -20h-516l-73 -522h475q25 0 41 -16.5t16 -41.5q0 -30 -22.5 -51.5t-53.5 -21.5h-475l-74 -529h537
q24 0 41.5 -16.5t17.5 -38.5zM729 1704q85 0 162 92q23 29 55 29q23 0 31.5 -13.5t-2.5 -45.5q-30 -72 -107 -115t-151 -43q-47 0 -95 17t-85.5 54.5t-40.5 86.5q-1 26 16.5 42.5t36.5 16.5q31 0 45 -29q54 -92 135 -92z" />
    <glyph glyph-name="ebreve" unicode="&#x115;" horiz-adv-x="890" 
d="M498 98q44 0 87.5 9.5t68 19t77.5 31.5q12 6 23 6q23 0 37 -15t14 -36q0 -34 -37 -60t-93.5 -40t-111.5 -20.5t-102 -6.5q-167 0 -251 94t-63 239l56 394q21 151 132.5 246.5t287.5 95.5q145 0 217.5 -72t72.5 -201q0 -167 -93.5 -259.5t-291.5 -92.5q-117 0 -229 23
l-20 -146q-12 -96 43.5 -152.5t175.5 -56.5zM782 768q0 170 -182 170q-109 0 -178.5 -56.5t-83.5 -152.5l-25 -174q115 -16 238 -16q231 0 231 229zM631 1294q85 0 162 92q23 29 55 29q23 0 31.5 -13.5t-2.5 -45.5q-30 -72 -107.5 -115t-151.5 -43q-47 0 -95 17t-85.5 54.5
t-40.5 86.5q-1 26 16.5 42.5t37.5 16.5q31 0 45 -29q54 -92 135 -92z" />
    <glyph glyph-name="Edotaccent" unicode="&#x116;" horiz-adv-x="970" 
d="M911 78q0 -31 -23.5 -53.5t-53.5 -22.5h-555q-52 0 -82.5 19t-24.5 63l180 1278q5 33 33 58.5t64 25.5h567q24 0 39.5 -17.5t15.5 -44.5q0 -29 -22 -49t-52 -20h-516l-73 -522h475q25 0 41 -16.5t16 -41.5q0 -30 -22.5 -51.5t-53.5 -21.5h-475l-74 -529h537
q24 0 41.5 -16.5t17.5 -38.5zM813 1743q0 -39 -28.5 -67.5t-67.5 -28.5q-30 0 -51 22.5t-21 53.5q0 35 29.5 64.5t66.5 29.5q31 0 51.5 -22t20.5 -52z" />
    <glyph glyph-name="edotaccent" unicode="&#x117;" horiz-adv-x="890" 
d="M498 98q44 0 87.5 9.5t68 19t77.5 31.5q12 6 23 6q23 0 37 -15t14 -36q0 -34 -37 -60t-93.5 -40t-111.5 -20.5t-102 -6.5q-167 0 -251 94t-63 239l56 394q21 151 132.5 246.5t287.5 95.5q145 0 217.5 -72t72.5 -201q0 -167 -93.5 -259.5t-291.5 -92.5q-117 0 -229 23
l-20 -146q-12 -96 43.5 -152.5t175.5 -56.5zM782 768q0 170 -182 170q-109 0 -178.5 -56.5t-83.5 -152.5l-25 -174q115 -16 238 -16q231 0 231 229zM715 1333q0 -39 -29 -67.5t-68 -28.5q-30 0 -50.5 22.5t-20.5 53.5q0 35 29.5 64.5t66.5 29.5q31 0 51.5 -22t20.5 -52z" />
    <glyph glyph-name="Eogonek" unicode="&#x118;" horiz-adv-x="970" 
d="M938 -336q0 -70 -152 -70q-86 0 -133 36.5t-47 109.5q0 109 133 262h-460q-52 0 -82.5 19t-24.5 63l180 1278q5 33 33 58.5t64 25.5h565q26 0 41.5 -17.5t15.5 -44.5q0 -29 -22.5 -49t-53.5 -20h-514l-73 -522h475q24 0 40.5 -17t16.5 -43q0 -29 -23.5 -50t-52.5 -21
h-475l-74 -529h537q23 0 40 -16t17 -39q0 -31 -26.5 -53.5t-59.5 -22.5l-18 -27q-3 -5 -18.5 -31t-20.5 -35t-16.5 -30.5t-15.5 -34.5t-8.5 -30t-4.5 -31q0 -41 24 -66.5t70 -25.5q18 0 66 6q20 4 24 4q14 0 23.5 -11.5t9.5 -25.5z" />
    <glyph glyph-name="eogonek" unicode="&#x119;" horiz-adv-x="890" 
d="M760 -340q0 -70 -156 -70q-85 0 -132.5 37.5t-47.5 110.5q0 115 119 250q-7 0 -32 -1t-28 -1h-22q-167 0 -251 94t-63 239l56 394q21 151 132.5 246.5t287.5 95.5q145 0 217.5 -72t72.5 -201q0 -167 -93.5 -259.5t-291.5 -92.5q-117 0 -229 23l-20 -146
q-12 -96 43.5 -152.5t175.5 -56.5q44 0 87.5 9.5t68 19t77.5 31.5q12 6 23 6q23 0 37 -15t14 -36q0 -33 -81 -72q-4 -3 -7 -4l-60 -31q-61 -38 -89.5 -106.5t-28.5 -118.5q0 -42 24.5 -68t73.5 -26q15 0 26.5 1.5t21 3.5t13.5 3q24 4 27 4q14 0 24.5 -12.5t10.5 -26.5z
M782 768q0 170 -182 170q-109 0 -178.5 -56.5t-83.5 -152.5l-25 -174q115 -16 238 -16q231 0 231 229z" />
    <glyph glyph-name="Ecaron" unicode="&#x11a;" horiz-adv-x="970" 
d="M911 78q0 -31 -23.5 -53.5t-53.5 -22.5h-555q-52 0 -82.5 19t-24.5 63l180 1278q5 33 33 58.5t64 25.5h567q24 0 39.5 -17.5t15.5 -44.5q0 -29 -22 -49t-52 -20h-516l-73 -522h475q25 0 41 -16.5t16 -41.5q0 -30 -22.5 -51.5t-53.5 -21.5h-475l-74 -529h537
q24 0 41.5 -16.5t17.5 -38.5zM774 1588q-27 0 -37 14l-163 154q-31 31 -31 55q0 20 19 34.5t36 14.5q15 0 27 -12l164 -150l204 150q15 12 31 12q17 0 29 -11t12 -28q0 -20 -10.5 -34t-34.5 -31l-207 -154q-14 -14 -39 -14z" />
    <glyph glyph-name="ecaron" unicode="&#x11b;" horiz-adv-x="890" 
d="M498 98q44 0 87.5 9.5t68 19t77.5 31.5q12 6 23 6q23 0 37 -15t14 -36q0 -34 -37 -60t-93.5 -40t-111.5 -20.5t-102 -6.5q-167 0 -251 94t-63 239l56 394q21 151 132.5 246.5t287.5 95.5q145 0 217.5 -72t72.5 -201q0 -167 -93.5 -259.5t-291.5 -92.5q-117 0 -229 23
l-20 -146q-12 -96 43.5 -152.5t175.5 -56.5zM782 768q0 170 -182 170q-109 0 -178.5 -56.5t-83.5 -152.5l-25 -174q115 -16 238 -16q231 0 231 229zM614 1178q-26 0 -36 14l-164 154q-31 31 -31 55q0 20 19 34.5t36 14.5q15 0 27 -12l164 -150l205 150q15 12 30 12
q17 0 29 -11t12 -28q0 -20 -10.5 -34t-34.5 -31l-207 -154q-14 -14 -39 -14z" />
    <glyph glyph-name="Gcircumflex" unicode="&#x11c;" horiz-adv-x="1064" 
d="M373 948l-64 -448q-14 -91 -5.5 -164t38 -124.5t90.5 -79.5t152 -28q144 0 264 84l67 476h-219q-24 0 -39.5 15.5t-15.5 39.5q0 29 22.5 50.5t49.5 21.5h250q47 0 72.5 -20.5t19.5 -61.5l-72 -500q-9 -74 -79.5 -127t-161 -75.5t-185.5 -22.5q-227 0 -322.5 137.5
t-62.5 378.5l64 448q35 242 169 380t361 138q86 0 162.5 -21t123 -57t46.5 -77q0 -27 -20.5 -46.5t-47.5 -19.5q-16 0 -43 19q-2 2 -10 6.5t-10 5.5q-92 70 -209 70q-178 0 -267.5 -102t-117.5 -296zM780 1747l-188 -139q-3 -6 -29 -6q-12 0 -21.5 11.5t-9.5 23.5
q0 21 41 53l184 141h-2q30 15 39 15q10 0 35 -15h-2l147 -141q2 -4 9.5 -14.5t11.5 -18.5t4 -14q0 -14 -14 -27.5t-31 -13.5q-20 0 -23 6z" />
    <glyph glyph-name="gcircumflex" unicode="&#x11d;" horiz-adv-x="1042" 
d="M778 205l74 526q13 95 -43 150t-166 55q-119 0 -186.5 -64.5t-85.5 -183.5l-47 -334q-16 -124 27.5 -190t160.5 -66q150 0 266 107zM985 731l-117 -829q-23 -166 -127.5 -269.5t-283.5 -103.5q-39 0 -81.5 5.5t-85 16.5t-70 33t-27.5 51q0 24 19.5 44t43.5 20q13 0 31 -6
h-2q82 -49 170 -49q128 0 195 65.5t85 192.5l25 174q-150 -88 -297 -88q-324 0 -273 366l48 334q23 162 133 264.5t288 102.5q172 0 259.5 -92.5t66.5 -231.5zM707 1337l-189 -139q-3 -6 -29 -6q-12 0 -21 11.5t-9 23.5q0 21 41 53l184 141h-2q30 15 39 15q10 0 35 -15h-2
l147 -141q2 -4 9.5 -14.5t11.5 -18.5t4 -14q0 -14 -14 -27.5t-31 -13.5q-20 0 -23 6z" />
    <glyph glyph-name="Gbreve" unicode="&#x11e;" horiz-adv-x="1064" 
d="M373 948l-64 -448q-14 -91 -5.5 -164t38 -124.5t90.5 -79.5t152 -28q144 0 264 84l67 476h-219q-24 0 -39.5 15.5t-15.5 39.5q0 29 22.5 50.5t49.5 21.5h250q47 0 72.5 -20.5t19.5 -61.5l-72 -500q-9 -74 -79.5 -127t-161 -75.5t-185.5 -22.5q-227 0 -322.5 137.5
t-62.5 378.5l64 448q35 242 169 380t361 138q86 0 162.5 -21t123 -57t46.5 -77q0 -27 -20.5 -46.5t-47.5 -19.5q-16 0 -43 19q-2 2 -10 6.5t-10 5.5q-92 70 -209 70q-178 0 -267.5 -102t-117.5 -296zM776 1704q85 0 162 92q23 29 55 29q23 0 31.5 -13.5t-2.5 -45.5
q-30 -72 -107 -115t-151 -43q-47 0 -95 17t-85.5 54.5t-40.5 86.5q-1 26 16.5 42.5t36.5 16.5q31 0 45 -29q54 -92 135 -92z" />
    <glyph glyph-name="gbreve" unicode="&#x11f;" horiz-adv-x="1042" 
d="M778 205l74 526q13 95 -43 150t-166 55q-119 0 -186.5 -64.5t-85.5 -183.5l-47 -334q-16 -124 27.5 -190t160.5 -66q150 0 266 107zM985 731l-117 -829q-23 -166 -127.5 -269.5t-283.5 -103.5q-39 0 -81.5 5.5t-85 16.5t-70 33t-27.5 51q0 24 19.5 44t43.5 20q13 0 31 -6
h-2q82 -49 170 -49q128 0 195 65.5t85 192.5l25 174q-150 -88 -297 -88q-324 0 -273 366l48 334q23 162 133 264.5t288 102.5q172 0 259.5 -92.5t66.5 -231.5zM705 1294q84 0 161 92q23 29 56 29q22 0 30.5 -13.5t-2.5 -45.5q-30 -72 -107 -115t-151 -43q-47 0 -95 17
t-85.5 54.5t-40.5 86.5q-1 26 16.5 42.5t36.5 16.5q30 0 45 -29q54 -92 136 -92z" />
    <glyph glyph-name="Gdotaccent" unicode="&#x120;" horiz-adv-x="1064" 
d="M373 948l-64 -448q-14 -91 -5.5 -164t38 -124.5t90.5 -79.5t152 -28q144 0 264 84l67 476h-219q-24 0 -39.5 15.5t-15.5 39.5q0 29 22.5 50.5t49.5 21.5h250q47 0 72.5 -20.5t19.5 -61.5l-72 -500q-9 -74 -79.5 -127t-161 -75.5t-185.5 -22.5q-227 0 -322.5 137.5
t-62.5 378.5l64 448q35 242 169 380t361 138q86 0 162.5 -21t123 -57t46.5 -77q0 -27 -20.5 -46.5t-47.5 -19.5q-16 0 -43 19q-2 2 -10 6.5t-10 5.5q-92 70 -209 70q-178 0 -267.5 -102t-117.5 -296zM860 1743q0 -39 -28.5 -67.5t-67.5 -28.5q-30 0 -51 22.5t-21 53.5
q0 35 29.5 64.5t66.5 29.5q31 0 51.5 -22t20.5 -52z" />
    <glyph glyph-name="gdotaccent" unicode="&#x121;" horiz-adv-x="1042" 
d="M778 205l74 526q13 95 -43 150t-166 55q-119 0 -186.5 -64.5t-85.5 -183.5l-47 -334q-16 -124 27.5 -190t160.5 -66q150 0 266 107zM985 731l-117 -829q-23 -166 -127.5 -269.5t-283.5 -103.5q-39 0 -81.5 5.5t-85 16.5t-70 33t-27.5 51q0 24 19.5 44t43.5 20q13 0 31 -6
h-2q82 -49 170 -49q128 0 195 65.5t85 192.5l25 174q-150 -88 -297 -88q-324 0 -273 366l48 334q23 162 133 264.5t288 102.5q172 0 259.5 -92.5t66.5 -231.5zM791 1333q0 -39 -29 -67.5t-68 -28.5q-30 0 -50.5 22.5t-20.5 53.5q0 35 29.5 64.5t66.5 29.5q31 0 51.5 -22
t20.5 -52z" />
    <glyph glyph-name="uni0122" unicode="&#x122;" horiz-adv-x="1064" 
d="M373 948l-64 -448q-14 -91 -5.5 -164t38 -124.5t90.5 -79.5t152 -28q144 0 264 84l67 476h-219q-24 0 -39.5 15.5t-15.5 39.5q0 29 22.5 50.5t49.5 21.5h250q47 0 72.5 -20.5t19.5 -61.5l-72 -500q-9 -74 -79.5 -127t-161 -75.5t-185.5 -22.5q-227 0 -322.5 137.5
t-62.5 378.5l64 448q35 242 169 380t361 138q86 0 162.5 -21t123 -57t46.5 -77q0 -27 -20.5 -46.5t-47.5 -19.5q-16 0 -43 19q-2 2 -10 6.5t-10 5.5q-92 70 -209 70q-178 0 -267.5 -102t-117.5 -296zM641 -221q0 -48 -33.5 -114.5t-76.5 -113.5t-70 -47q-9 0 -16 5t-7 12
q0 12 41 59q4 5 17 20t26 31.5t23 34.5q-42 3 -69 29t-27 63q0 43 33 75t79 32q34 0 57 -25.5t23 -60.5z" />
    <glyph glyph-name="uni0123" unicode="&#x123;" horiz-adv-x="1042" 
d="M602 1319q0 48 34 115.5t78 115t72 47.5q21 0 21 -18q0 -3 -0.5 -6.5t-2.5 -7t-3 -6t-4.5 -7t-5 -6.5t-6 -6.5l-6 -6l-7 -7l-6.5 -6.5q-27 -27 -66 -86q44 -3 71.5 -30.5t27.5 -64.5q0 -41 -34.5 -72.5t-78.5 -31.5q-35 0 -59.5 25t-24.5 59zM778 205l74 526
q13 95 -43 150t-166 55q-119 0 -186.5 -64.5t-85.5 -183.5l-47 -334q-16 -124 27.5 -190t160.5 -66q150 0 266 107zM985 731l-117 -829q-23 -166 -127.5 -269.5t-283.5 -103.5q-39 0 -81.5 5.5t-85 16.5t-70 33t-27.5 51q0 24 19.5 44t43.5 20q13 0 31 -6h-2q82 -49 170 -49
q128 0 195 65.5t85 192.5l25 174q-150 -88 -297 -88q-324 0 -273 366l48 334q23 162 133 264.5t288 102.5q172 0 259.5 -92.5t66.5 -231.5z" />
    <glyph glyph-name="Hcircumflex" unicode="&#x124;" horiz-adv-x="1187" 
d="M1044 51q-4 -29 -26.5 -49t-50.5 -20q-27 0 -45.5 20.5t-14.5 48.5l84 608h-602l-84 -608q-5 -29 -27 -49t-51 -20q-28 0 -44.5 20t-12.5 49l188 1348q5 27 28 47t50 20q29 0 46 -20t12 -47l-86 -608h602l86 608q4 26 29 46.5t51 20.5t43.5 -20.5t13.5 -46.5zM842 1747
l-188 -139q-3 -6 -29 -6q-12 0 -21.5 11.5t-9.5 23.5q0 21 41 53l184 141h-2q30 15 39 15q10 0 35 -15h-2l147 -141q2 -4 9.5 -14.5t11.5 -18.5t4 -14q0 -14 -14 -27.5t-31 -13.5q-20 0 -23 6z" />
    <glyph glyph-name="Itilde" unicode="&#x128;" horiz-adv-x="464" 
d="M172 49l188 1350q5 26 28.5 46.5t51.5 20.5q29 0 46 -20t12 -47l-189 -1350q-5 -28 -27 -47.5t-51 -19.5q-28 0 -45.5 20t-13.5 47zM755 1762q0 -48 -57 -83.5t-117 -35.5q-47 0 -115 37q-6 3 -17.5 9.5t-18.5 10t-20.5 7t-29.5 3.5q-48 0 -98 -36q-25 -19 -41 -19
q-41 0 -41 39q0 45 54 84t116 39q49 0 115 -39q49 -27 88 -29q57 0 102 35q31 25 47 25q12 0 22.5 -13.5t10.5 -33.5z" />
    <glyph glyph-name="itilde" unicode="&#x129;" horiz-adv-x="501" 
d="M213 184l113 797q3 28 24.5 48t50.5 20q26 0 43.5 -20t14.5 -48l-113 -797q-8 -61 19 -110q6 -12 6 -25q0 -26 -20.5 -44.5t-49.5 -18.5q-116 0 -88 198zM717 1352q0 -48 -57 -83.5t-117 -35.5q-47 0 -115 37q-6 3 -17.5 9.5t-18.5 10t-20.5 7t-29.5 3.5q-48 0 -98 -36
q-25 -19 -41 -19q-41 0 -41 39q0 45 54 84t116 39q48 0 114 -39q49 -27 89 -29q57 0 102 35q31 25 47 25q12 0 22.5 -13.5t10.5 -33.5z" />
    <glyph glyph-name="Imacron" unicode="&#x12a;" horiz-adv-x="464" 
d="M172 49l188 1350q5 26 28.5 46.5t51.5 20.5q29 0 46 -20t12 -47l-189 -1350q-5 -28 -27 -47.5t-51 -19.5q-28 0 -45.5 20t-13.5 47zM801 1737q0 -29 -20 -48t-48 -19h-522q-23 0 -38 14t-15 37q0 28 21 48.5t50 20.5h522q21 0 35.5 -15.5t14.5 -37.5z" />
    <glyph glyph-name="imacron" unicode="&#x12b;" horiz-adv-x="501" 
d="M213 184l113 797q3 28 24.5 48t50.5 20q26 0 43.5 -20t14.5 -48l-113 -797q-8 -61 19 -110q6 -12 6 -25q0 -26 -20.5 -44.5t-49.5 -18.5q-116 0 -88 198zM762 1327q0 -29 -20 -48t-48 -19h-522q-23 0 -38 14t-15 37q0 28 21 48.5t50 20.5h523q21 0 35 -15.5t14 -37.5z
" />
    <glyph glyph-name="Ibreve" unicode="&#x12c;" horiz-adv-x="464" 
d="M172 49l188 1350q5 26 28.5 46.5t51.5 20.5q29 0 46 -20t12 -47l-189 -1350q-5 -28 -27 -47.5t-51 -19.5q-28 0 -45.5 20t-13.5 47zM477 1704q85 0 162 92q23 29 55 29q23 0 31.5 -13.5t-2.5 -45.5q-30 -72 -107 -115t-151 -43q-47 0 -95 17t-85.5 54.5t-40.5 86.5
q-1 26 16.5 42.5t36.5 16.5q31 0 45 -29q54 -92 135 -92z" />
    <glyph glyph-name="ibreve" unicode="&#x12d;" horiz-adv-x="501" 
d="M213 184l113 797q3 28 24.5 48t50.5 20q26 0 43.5 -20t14.5 -48l-113 -797q-8 -61 19 -110q6 -12 6 -25q0 -26 -20.5 -44.5t-49.5 -18.5q-116 0 -88 198zM438 1294q85 0 162 92q23 29 55 29q23 0 31.5 -13.5t-2.5 -45.5q-30 -72 -107 -115t-151 -43q-47 0 -95 17
t-85.5 54.5t-40.5 86.5q-1 26 16.5 42.5t36.5 16.5q30 0 45 -29q54 -92 135 -92z" />
    <glyph glyph-name="Iogonek" unicode="&#x12e;" horiz-adv-x="464" 
d="M395 -336q0 -70 -153 -70q-85 0 -132 36.5t-47 109.5q0 116 130 252q-27 30 -21 57l188 1350q5 26 28.5 46.5t51.5 20.5t45.5 -20.5t12.5 -46.5l-189 -1350q-1 -8 -5.5 -16.5t-8.5 -13t-11.5 -13t-9.5 -10.5q-40 -47 -68 -107.5t-28 -105.5q0 -42 23.5 -67t70.5 -25
q20 0 62 6q24 4 28 4q14 0 23.5 -11.5t9.5 -25.5z" />
    <glyph glyph-name="iogonek" unicode="&#x12f;" horiz-adv-x="501" 
d="M414 -340q0 -70 -158 -70q-84 0 -131 37.5t-47 110.5q0 122 133 258q-19 27 -16 55l131 930q3 28 24.5 48t50.5 20q26 0 43.5 -20t14.5 -48l-131 -930q-4 -22 -33 -51q-46 -48 -74 -110.5t-28 -108.5q0 -42 24.5 -68t71.5 -26q15 0 26.5 1.5t21.5 3.5l15 3q20 4 27 4
q14 0 24.5 -12.5t10.5 -26.5zM535 1405q0 -38 -30 -66t-67 -28q-33 0 -54.5 22t-21.5 53q0 38 30.5 66.5t70.5 28.5q31 0 51.5 -22t20.5 -54z" />
    <glyph glyph-name="Idotaccent" unicode="&#x130;" horiz-adv-x="464" 
d="M172 49l188 1350q5 26 28.5 46.5t51.5 20.5q29 0 46 -20t12 -47l-189 -1350q-5 -28 -27 -47.5t-51 -19.5q-28 0 -45.5 20t-13.5 47zM561 1743q0 -39 -28.5 -67.5t-67.5 -28.5q-30 0 -51 22.5t-21 53.5q0 35 29.5 64.5t66.5 29.5q31 0 51.5 -22t20.5 -52z" />
    <glyph glyph-name="dotlessi" unicode="&#x131;" horiz-adv-x="501" 
d="M213 184l113 797q3 28 24.5 48t50.5 20q26 0 43.5 -20t14.5 -48l-113 -797q-8 -61 19 -110q6 -12 6 -25q0 -26 -20.5 -44.5t-49.5 -18.5q-116 0 -88 198z" />
    <glyph glyph-name="Jcircumflex" unicode="&#x134;" horiz-adv-x="788" 
d="M829 1399l-131 -942q-34 -236 -142.5 -355.5t-330.5 -119.5q-153 0 -153 69q0 33 22 53.5t45 20.5q5 0 33 -4q58 -10 94 -10q75 0 128 23.5t85.5 71.5t50.5 106.5t31 144.5l131 942q5 28 28 47.5t52 19.5q26 0 43.5 -20.5t13.5 -46.5zM801 1747l-188 -139q-3 -6 -29 -6
q-12 0 -21.5 11.5t-9.5 23.5q0 21 41 53l184 141h-2q30 15 39 15q10 0 35 -15h-2l147 -141q2 -4 9.5 -14.5t11.5 -18.5t4 -14q0 -14 -14 -27.5t-31 -13.5q-20 0 -23 6z" />
    <glyph glyph-name="jcircumflex" unicode="&#x135;" horiz-adv-x="501" 
d="M461 981l-146 -1028q-22 -154 -112 -255.5t-223 -123.5h-39q-19 0 -34 11.5t-16 29.5q-3 31 17 48.5t45 23.5q100 21 155 80.5t72 177.5l148 1036q3 28 24.5 48t50.5 20q26 0 43.5 -20t14.5 -48zM442 1337l-188 -139q-3 -6 -29 -6q-12 0 -21 11.5t-9 23.5q0 21 41 53
l184 141h-2q30 15 39 15q10 0 35 -15h-3l148 -141q2 -4 9.5 -14.5t11.5 -18.5t4 -14q0 -14 -14.5 -27.5t-31.5 -13.5q-19 0 -22 6z" />
    <glyph glyph-name="uni0136" unicode="&#x136;" horiz-adv-x="1019" 
d="M887 12l-371 678l-143 -149l-68 -490q-5 -29 -27 -49t-51 -20q-28 0 -44.5 20t-12.5 49l188 1348q5 27 28 47t50 20q29 0 46 -20t12 -47l-93 -656l656 689q30 34 69 34q22 0 38 -17t10 -48q-5 -26 -23 -47v2l-535 -561l394 -709h-2q4 -6 4 -23q0 -29 -16.5 -55t-53.5 -26
q-35 0 -55 30zM655 -221q0 -48 -33.5 -114.5t-76.5 -113.5t-70 -47q-22 0 -22 17q0 12 41 59q3 4 16.5 19.5t26 32t22.5 34.5q-42 3 -69 29t-27 63q0 43 33 75t79 32q34 0 57 -25.5t23 -60.5z" />
    <glyph glyph-name="uni0137" unicode="&#x137;" horiz-adv-x="899" 
d="M498 1434l-115 -826l469 424q15 15 41 15q23 0 38 -15.5t15 -38.5q0 -34 -20 -51l-367 -326l287 -538q8 -12 8 -35q0 -25 -21.5 -41t-50.5 -16q-36 0 -51 30l-264 514l-109 -98l-53 -381q-4 -27 -26.5 -46t-49.5 -19q-29 0 -45.5 18.5t-11.5 46.5l193 1383
q5 28 26.5 47.5t50.5 19.5q27 0 43.5 -20t12.5 -47zM571 -221q0 -48 -33.5 -114.5t-76.5 -113.5t-70 -47q-22 0 -22 17q0 12 41 59q3 4 16.5 19.5t26 32t22.5 34.5q-42 3 -69 29t-27 63q0 43 33.5 75t79.5 32q33 0 56 -25t23 -61z" />
    <glyph glyph-name="Lacute" unicode="&#x139;" horiz-adv-x="917" 
d="M905 74q0 -29 -23 -50.5t-51 -21.5h-589q-33 0 -53.5 22.5t-16.5 55.5l186 1319q3 27 26 47t52 20q27 0 44 -20t14 -47l-179 -1268h535q22 0 38.5 -16.5t16.5 -40.5zM442 1690l203 186q34 29 51 29q20 0 32.5 -14.5t12.5 -34.5q0 -21 -10 -31l-192 -178q-40 -35 -62 -35
q-20 0 -33.5 14.5t-13.5 36.5q0 15 12 27z" />
    <glyph glyph-name="lacute" unicode="&#x13a;" horiz-adv-x="466" 
d="M195 184l174 1233q3 27 24.5 47.5t48.5 20.5q28 0 44.5 -20t13.5 -48l-174 -1233q-9 -73 20 -110q6 -6 6 -25q0 -26 -20 -44.5t-49 -18.5q-116 0 -88 198zM422 1661l203 186q34 29 51 29q20 0 32.5 -14.5t12.5 -34.5q0 -21 -10 -31l-193 -178q-1 -1 -7 -6.5t-7.5 -6.5
t-6.5 -5t-6.5 -5l-6 -4t-7 -3.5t-6 -2t-7 -2t-7.5 -0.5q-20 0 -33.5 14.5t-13.5 36.5q0 15 12 27z" />
    <glyph glyph-name="uni013B" unicode="&#x13b;" horiz-adv-x="917" 
d="M905 74q0 -29 -23 -50.5t-51 -21.5h-589q-33 0 -53.5 22.5t-16.5 55.5l186 1319q3 27 26 47t52 20q27 0 44 -20t14 -47l-179 -1268h535q22 0 38.5 -16.5t16.5 -40.5zM618 -221q0 -48 -33.5 -114.5t-76.5 -113.5t-70 -47q-22 0 -22 17q0 12 41 59q3 4 16.5 19.5t26 32
t22.5 34.5q-42 3 -69 29t-27 63q0 43 33.5 75t79.5 32q33 0 56 -25t23 -61z" />
    <glyph glyph-name="uni013C" unicode="&#x13c;" horiz-adv-x="466" 
d="M195 184l174 1233q3 27 24.5 47.5t48.5 20.5q28 0 44.5 -20t13.5 -48l-174 -1233q-9 -73 20 -110q6 -6 6 -25q0 -26 -20 -44.5t-49 -18.5q-116 0 -88 198zM301 -221q0 -48 -33.5 -114.5t-76.5 -113.5t-70 -47q-9 0 -16 5t-7 12q0 12 41 59q4 4 17 19.5t26 32t23 34.5
q-42 3 -69 29t-27 63q0 43 33 75t79 32q34 0 57 -25.5t23 -60.5z" />
    <glyph glyph-name="Lcaron" unicode="&#x13d;" horiz-adv-x="917" 
d="M905 74q0 -29 -23 -50.5t-51 -21.5h-589q-33 0 -53.5 22.5t-16.5 55.5l186 1319q3 27 26 47t52 20q27 0 44 -20t14 -47l-179 -1268h535q22 0 38.5 -16.5t16.5 -40.5zM997 1403q0 -56 -36 -138t-81 -141t-71 -59q-25 0 -25 16q0 6 1 12t4.5 13t5.5 12t8 13.5t9 12.5t11 15
t11 15q34 48 61 114q-40 4 -66 30.5t-26 61.5q0 42 34.5 74.5t77.5 32.5q36 0 59 -24t23 -60z" />
    <glyph glyph-name="lcaron" unicode="&#x13e;" horiz-adv-x="735" 
d="M195 184l174 1233q3 27 24.5 47.5t48.5 20.5q28 0 44.5 -20t13.5 -48l-174 -1233q-9 -73 20 -110q6 -6 6 -25q0 -26 -20 -44.5t-49 -18.5q-116 0 -88 198zM868 1403q0 -56 -36 -138t-81 -141t-71 -59q-25 0 -25 16q0 6 1 12t4.5 13t5.5 12t8 13.5t9 12.5t11 15t11 15
q34 48 61 114q-40 4 -66 30.5t-26 61.5q0 42 34.5 74.5t77.5 32.5q36 0 59 -24t23 -60z" />
    <glyph glyph-name="Lslash" unicode="&#x141;" horiz-adv-x="1011" 
d="M1001 74q0 -29 -22 -50.5t-51 -21.5h-590q-33 0 -52.5 22.5t-15.5 55.5l76 543l-117 -68q-27 -18 -43 -18q-25 0 -43 13.5t-18 39.5q0 36 37 59l205 123l88 627q5 27 28 47t52 20q27 0 43.5 -20t11.5 -47l-76 -539l154 92q30 19 53 19q16 0 30 -12.5t19 -28.5v-10
q0 -38 -33 -60l-243 -147l-82 -582h534q23 0 39 -16t16 -41z" />
    <glyph glyph-name="lslash" unicode="&#x142;" horiz-adv-x="690" 
d="M289 184l61 449l-119 -74q-27 -18 -43 -18q-27 0 -45 13.5t-18 41.5q0 35 39 57l207 125l92 656q5 27 28 47t50 20q28 0 44 -19.5t11 -47.5l-78 -566l154 93q36 18 55 18q15 0 29.5 -13t19.5 -28v-10q0 -38 -33 -60l-247 -151l-74 -533q-12 -72 20 -110q4 -4 4 -25
q0 -26 -20 -44.5t-47 -18.5q-120 0 -90 198z" />
    <glyph glyph-name="Nacute" unicode="&#x143;" horiz-adv-x="1228" 
d="M999 -18q-22 0 -41 10t-26 28l-467 1170l-160 -1139q-4 -29 -27.5 -49t-52.5 -20q-28 0 -44.5 20t-12.5 49l186 1338q6 34 31 55.5t57 21.5q52 0 68 -43l467 -1171l162 1145q5 28 28.5 48.5t51.5 20.5q27 0 43.5 -20.5t11.5 -48.5l-189 -1340q-5 -33 -29 -54t-57 -21z
M802 1690l203 186q34 29 51 29q20 0 32.5 -14.5t12.5 -34.5q0 -21 -10 -31l-192 -178q-40 -35 -62 -35q-20 0 -33.5 14.5t-13.5 36.5q0 15 12 27z" />
    <glyph glyph-name="nacute" unicode="&#x144;" horiz-adv-x="1042" 
d="M397 950q160 101 322 101q156 0 222.5 -103t41.5 -280l-68 -484q-9 -67 19 -110q4 -8 4 -25q0 -26 -19.5 -44.5t-48.5 -18.5q-116 0 -88 198l68 484q19 128 -25.5 198t-146.5 70q-118 0 -264 -98q2 -23 -2 -70l-101 -717q-5 -29 -24.5 -46t-50.5 -17q-33 0 -48 17t-12 46
l103 717q14 101 -17 156q-6 12 -6 28q0 27 21 46.5t47 19.5q21 0 41 -18t32 -50zM569 1280l203 186q34 29 51 29q20 0 32.5 -14.5t12.5 -34.5q0 -21 -10 -31l-192 -178q-40 -35 -62 -35q-20 0 -33.5 14.5t-13.5 36.5q0 15 12 27z" />
    <glyph glyph-name="uni0145" unicode="&#x145;" horiz-adv-x="1228" 
d="M999 -18q-22 0 -41 10t-26 28l-467 1170l-160 -1139q-4 -29 -27.5 -49t-52.5 -20q-28 0 -44.5 20t-12.5 49l186 1338q6 34 31 55.5t57 21.5q52 0 68 -43l467 -1171l162 1145q5 28 28.5 48.5t51.5 20.5q27 0 43.5 -20.5t11.5 -48.5l-189 -1340q-5 -33 -29 -54t-57 -21z
M682 -221q0 -48 -33.5 -114.5t-76.5 -113.5t-70 -47q-9 0 -16 5t-7 12q0 12 41 59q4 5 17 20t26 31.5t23 34.5q-43 3 -70 29t-27 63q0 43 33.5 75t79.5 32q34 0 57 -25.5t23 -60.5z" />
    <glyph glyph-name="uni0146" unicode="&#x146;" horiz-adv-x="1042" 
d="M397 950q160 101 322 101q156 0 222.5 -103t41.5 -280l-68 -484q-9 -67 19 -110q4 -8 4 -25q0 -26 -19.5 -44.5t-48.5 -18.5q-116 0 -88 198l68 484q19 128 -25.5 198t-146.5 70q-118 0 -264 -98q2 -23 -2 -70l-101 -717q-5 -29 -24.5 -46t-50.5 -17q-33 0 -48 17t-12 46
l103 717q14 101 -17 156q-6 12 -6 28q0 27 21 46.5t47 19.5q21 0 41 -18t32 -50zM588 -221q0 -48 -33.5 -114.5t-76.5 -113.5t-70 -47q-9 0 -16 5t-7 12q0 12 41 59q4 5 17 20t26 31.5t23 34.5q-43 3 -70 29t-27 63q0 43 33.5 75t79.5 32q34 0 57 -25.5t23 -60.5z" />
    <glyph glyph-name="Ncaron" unicode="&#x147;" horiz-adv-x="1228" 
d="M999 -18q-22 0 -41 10t-26 28l-467 1170l-160 -1139q-4 -29 -27.5 -49t-52.5 -20q-28 0 -44.5 20t-12.5 49l186 1338q6 34 31 55.5t57 21.5q52 0 68 -43l467 -1171l162 1145q5 28 28.5 48.5t51.5 20.5q27 0 43.5 -20.5t11.5 -48.5l-189 -1340q-5 -33 -29 -54t-57 -21z
M841 1588q-27 0 -37 14l-163 154q-31 31 -31 55q0 20 19 34.5t36 14.5q15 0 27 -12l164 -150l204 150q15 12 31 12q17 0 29 -11t12 -28q0 -20 -10.5 -34t-34.5 -31l-207 -154q-14 -14 -39 -14z" />
    <glyph glyph-name="ncaron" unicode="&#x148;" horiz-adv-x="1042" 
d="M397 950q160 101 322 101q156 0 222.5 -103t41.5 -280l-68 -484q-9 -67 19 -110q4 -8 4 -25q0 -26 -19.5 -44.5t-48.5 -18.5q-116 0 -88 198l68 484q19 128 -25.5 198t-146.5 70q-118 0 -264 -98q2 -23 -2 -70l-101 -717q-5 -29 -24.5 -46t-50.5 -17q-33 0 -48 17t-12 46
l103 717q14 101 -17 156q-6 12 -6 28q0 27 21 46.5t47 19.5q21 0 41 -18t32 -50zM690 1178q-26 0 -37 14l-164 154q-30 30 -30 55q0 20 19 34.5t36 14.5q15 0 27 -12l164 -150l204 150q15 12 31 12q17 0 29 -11t12 -28q0 -20 -10.5 -34t-34.5 -31l-207 -154q-14 -14 -39 -14
z" />
    <glyph glyph-name="Omacron" unicode="&#x14c;" horiz-adv-x="1128" 
d="M565 -18q-150 0 -247 70t-132 185.5t-14 262.5l64 448q15 110 54 201t103 163.5t161.5 113t219.5 40.5q97 0 172 -26.5t121 -74t74 -113t32 -142t-6 -162.5l-63 -448q-21 -147 -88 -262.5t-184 -185.5t-267 -70zM756 1335q-331 0 -383 -387l-64 -448q-26 -177 43 -282
t232 -105t260 104.5t123 282.5l63 448q52 387 -274 387zM1131 1737q0 -29 -20 -48t-48 -19h-522q-23 0 -38 14t-15 37q0 28 21 48.5t50 20.5h522q21 0 35.5 -15.5t14.5 -37.5z" />
    <glyph glyph-name="omacron" unicode="&#x14d;" horiz-adv-x="950" 
d="M479 -14q-179 0 -264.5 100t-62.5 258l49 352q23 158 137 259.5t293 101.5q180 0 265 -101.5t62 -259.5l-49 -352q-23 -158 -136.5 -258t-293.5 -100zM498 106q121 0 192 63t86 175l49 354q15 113 -38 176.5t-173 63.5t-192.5 -64t-87.5 -176l-49 -354q-15 -112 39 -175
t174 -63zM985 1327q0 -29 -19.5 -48t-47.5 -19h-523q-23 0 -38 14t-15 37q0 28 21.5 48.5t50.5 20.5h522q21 0 35 -15.5t14 -37.5z" />
    <glyph glyph-name="Obreve" unicode="&#x14e;" horiz-adv-x="1128" 
d="M565 -18q-150 0 -247 70t-132 185.5t-14 262.5l64 448q15 110 54 201t103 163.5t161.5 113t219.5 40.5q97 0 172 -26.5t121 -74t74 -113t32 -142t-6 -162.5l-63 -448q-21 -147 -88 -262.5t-184 -185.5t-267 -70zM756 1335q-331 0 -383 -387l-64 -448q-26 -177 43 -282
t232 -105t260 104.5t123 282.5l63 448q52 387 -274 387zM807 1704q85 0 162 92q23 29 55 29q23 0 31.5 -13.5t-2.5 -45.5q-30 -72 -107 -115t-151 -43q-47 0 -95 17t-85.5 54.5t-40.5 86.5q-1 26 16.5 42.5t36.5 16.5q31 0 45 -29q54 -92 135 -92z" />
    <glyph glyph-name="obreve" unicode="&#x14f;" horiz-adv-x="950" 
d="M479 -14q-179 0 -264.5 100t-62.5 258l49 352q23 158 137 259.5t293 101.5q180 0 265 -101.5t62 -259.5l-49 -352q-23 -158 -136.5 -258t-293.5 -100zM498 106q121 0 192 63t86 175l49 354q15 113 -38 176.5t-173 63.5t-192.5 -64t-87.5 -176l-49 -354q-15 -112 39 -175
t174 -63zM662 1294q84 0 161 92q23 29 56 29q22 0 30.5 -13.5t-2.5 -45.5q-30 -72 -107 -115t-151 -43q-47 0 -95 17t-85.5 54.5t-40.5 86.5q-1 26 16.5 42.5t36.5 16.5q31 0 45 -29q54 -92 136 -92z" />
    <glyph glyph-name="Ohungarumlaut" unicode="&#x150;" horiz-adv-x="1128" 
d="M565 -18q-150 0 -247 70t-132 185.5t-14 262.5l64 448q15 110 54 201t103 163.5t161.5 113t219.5 40.5q97 0 172 -26.5t121 -74t74 -113t32 -142t-6 -162.5l-63 -448q-21 -147 -88 -262.5t-184 -185.5t-267 -70zM756 1335q-331 0 -383 -387l-64 -448q-26 -177 43 -282
t232 -105t260 104.5t123 282.5l63 448q52 387 -274 387zM879 1670l163 200q13 17 19.5 24t19 16t25.5 9q19 0 34 -16t15 -35q0 -13 -6 -22l-180 -219q-23 -29 -47 -29q-20 0 -35 14t-15 33q0 15 7 25zM596 1670l174 213q29 36 53 36t35.5 -19t11.5 -40q-4 -14 -6 -16
q-111 -147 -160 -201q-23 -25 -37 -35t-30 -10q-19 0 -33 14.5t-14 34.5q0 14 6 23z" />
    <glyph glyph-name="ohungarumlaut" unicode="&#x151;" horiz-adv-x="950" 
d="M479 -14q-179 0 -264.5 100t-62.5 258l49 352q23 158 137 259.5t293 101.5q180 0 265 -101.5t62 -259.5l-49 -352q-23 -158 -136.5 -258t-293.5 -100zM498 106q121 0 192 63t86 175l49 354q15 113 -38 176.5t-173 63.5t-192.5 -64t-87.5 -176l-49 -354q-15 -112 39 -175
t174 -63zM748 1260l163 200q13 17 19.5 24t19 16t25.5 9q19 0 34 -16t15 -35q0 -13 -6 -22l-180 -219q-23 -29 -47 -29q-20 0 -35 14t-15 33q0 15 7 25zM465 1260l174 213q29 36 53 36t35.5 -19t11.5 -40q-4 -14 -6 -16q-111 -147 -160 -201q-23 -25 -37 -35t-30 -10
q-19 0 -33 14.5t-14 34.5q0 14 6 23z" />
    <glyph glyph-name="OE" unicode="&#x152;" horiz-adv-x="1548" 
d="M1497 78q0 -32 -22.5 -54t-53.5 -22h-491q-116 0 -103 113q-146 -133 -307 -133q-103 0 -179 37t-118.5 102.5t-57.5 151.5t-1 186l76 530q11 81 35.5 150.5t65 130.5t95 104t129.5 67.5t164 24.5q165 0 264 -120q12 40 43 70t62 30h504q26 0 41.5 -17.5t15.5 -44.5
q0 -29 -22 -49t-54 -20h-450l-74 -522h411q24 0 41 -17t17 -43q0 -29 -23.5 -50t-52.5 -21h-412l-73 -529h473q23 0 40 -16t17 -39zM711 1335q-288 0 -336 -346l-76 -530q-23 -158 37 -252t203 -94t227.5 93.5t107.5 252.5l76 530q48 346 -239 346z" />
    <glyph glyph-name="oe" unicode="&#x153;" horiz-adv-x="1497" 
d="M467 -14q-172 0 -257 101t-63 257l50 352q23 156 136 258.5t285 102.5q217 0 291 -201q57 94 144 146.5t198 52.5q138 0 210.5 -73.5t72.5 -201.5q0 -166 -93.5 -258t-291.5 -92q-117 0 -229 23l-21 -146q-12 -96 43 -152.5t174 -56.5q45 0 89 9.5t69.5 19t77.5 31.5
q12 6 22 6q23 0 37 -15t14 -36q0 -34 -37.5 -60t-93.5 -40t-109.5 -20.5t-97.5 -6.5q-105 0 -174.5 51.5t-99.5 142.5q-60 -92 -148 -143t-198 -51zM492 106q121 0 193 63t87 175l49 354q15 113 -38 176.5t-173 63.5t-192.5 -64t-87.5 -176l-49 -354q-15 -112 38.5 -175
t172.5 -63zM1403 768q0 170 -180 170q-110 0 -180.5 -56.5t-84.5 -152.5l-24 -174q141 -16 235 -16q234 0 234 229z" />
    <glyph glyph-name="Racute" unicode="&#x154;" horiz-adv-x="1177" 
d="M1198 1102q0 -181 -105 -296.5t-286 -150.5l266 -569l-2 2q4 -12 4 -31q0 -31 -29 -52t-55 -21q-34 0 -51 30l-285 637h-266l-84 -598q-5 -29 -28 -50t-52 -21q-27 0 -44 20.5t-13 50.5l182 1307q6 35 34 60.5t60 25.5h365q106 0 184 -28.5t121 -78t63.5 -108.5
t20.5 -129zM1061 1087q0 46 -13 84.5t-43 72t-87 52.5t-136 19h-301l-73 -535h313q165 0 252.5 79t87.5 228zM694 1690l203 186q34 29 51 29q20 0 32.5 -14.5t12.5 -34.5q0 -21 -10 -31l-192 -178q-40 -35 -62 -35q-20 0 -33.5 14.5t-13.5 36.5q0 15 12 27z" />
    <glyph glyph-name="racute" unicode="&#x155;" horiz-adv-x="690" 
d="M412 764l-99 -713q-4 -27 -26 -46t-49 -19q-29 0 -45.5 18.5t-12.5 46.5l99 713q8 53 5 89.5t-20 66.5q-8 16 -8 28q0 27 22 46.5t50 19.5q41 0 69 -64q75 44 162 70.5t146 26.5q86 0 86 -58q0 -33 -23.5 -56.5t-52.5 -21.5q-58 1 -92 -1.5t-89 -21.5t-114 -59v-2
q2 -2 -8 -63zM524 1280l203 186q34 29 51 29q20 0 32.5 -14.5t12.5 -34.5q0 -21 -10 -31l-192 -178q-40 -35 -62 -35q-20 0 -33.5 14.5t-13.5 36.5q0 15 12 27z" />
    <glyph glyph-name="uni0156" unicode="&#x156;" horiz-adv-x="1177" 
d="M1198 1102q0 -181 -105 -296.5t-286 -150.5l266 -569l-2 2q4 -12 4 -31q0 -31 -29 -52t-55 -21q-34 0 -51 30l-285 637h-266l-84 -598q-5 -29 -28 -50t-52 -21q-27 0 -44 20.5t-13 50.5l182 1307q6 35 34 60.5t60 25.5h365q106 0 184 -28.5t121 -78t63.5 -108.5
t20.5 -129zM1061 1087q0 46 -13 84.5t-43 72t-87 52.5t-136 19h-301l-73 -535h313q165 0 252.5 79t87.5 228zM655 -221q0 -48 -33.5 -114.5t-76.5 -113.5t-70 -47q-22 0 -22 17q0 12 41 59q3 4 16.5 19.5t26 32t22.5 34.5q-42 3 -69 29t-27 63q0 43 33 75t79 32
q34 0 57 -25.5t23 -60.5z" />
    <glyph glyph-name="uni0157" unicode="&#x157;" horiz-adv-x="690" 
d="M412 764l-99 -713q-4 -27 -26 -46t-49 -19q-29 0 -45.5 18.5t-12.5 46.5l99 713q8 53 5 89.5t-20 66.5q-8 16 -8 28q0 27 22 46.5t50 19.5q41 0 69 -64q75 44 162 70.5t146 26.5q86 0 86 -58q0 -33 -23.5 -56.5t-52.5 -21.5q-58 1 -92 -1.5t-89 -21.5t-114 -59v-2
q2 -2 -8 -63zM301 -221q0 -48 -33.5 -114.5t-76.5 -113.5t-70 -47q-9 0 -16 5t-7 12q0 12 41 59q4 4 17 19.5t26 32t23 34.5q-42 3 -69 29t-27 63q0 43 33 75t79 32q34 0 57 -25.5t23 -60.5z" />
    <glyph glyph-name="Rcaron" unicode="&#x158;" horiz-adv-x="1177" 
d="M1198 1102q0 -181 -105 -296.5t-286 -150.5l266 -569l-2 2q4 -12 4 -31q0 -31 -29 -52t-55 -21q-34 0 -51 30l-285 637h-266l-84 -598q-5 -29 -28 -50t-52 -21q-27 0 -44 20.5t-13 50.5l182 1307q6 35 34 60.5t60 25.5h365q106 0 184 -28.5t121 -78t63.5 -108.5
t20.5 -129zM1061 1087q0 46 -13 84.5t-43 72t-87 52.5t-136 19h-301l-73 -535h313q165 0 252.5 79t87.5 228zM815 1588q-27 0 -37 14l-163 154q-31 31 -31 55q0 20 19 34.5t36 14.5q15 0 27 -12l164 -150l204 150q15 12 31 12q17 0 29 -11t12 -28q0 -20 -10.5 -34t-34.5 -31
l-207 -154q-14 -14 -39 -14z" />
    <glyph glyph-name="rcaron" unicode="&#x159;" horiz-adv-x="690" 
d="M412 764l-99 -713q-4 -27 -26 -46t-49 -19q-29 0 -45.5 18.5t-12.5 46.5l99 713q8 53 5 89.5t-20 66.5q-8 16 -8 28q0 27 22 46.5t50 19.5q41 0 69 -64q75 44 162 70.5t146 26.5q86 0 86 -58q0 -33 -23.5 -56.5t-52.5 -21.5q-58 1 -92 -1.5t-89 -21.5t-114 -59v-2
q2 -2 -8 -63zM516 1178q-26 0 -37 14l-164 154q-30 30 -30 55q0 20 19 34.5t36 14.5q15 0 27 -12l163 -150l205 150q15 12 31 12q17 0 29 -11t12 -28q0 -20 -10.5 -34t-34.5 -31l-207 -154q-14 -14 -39 -14z" />
    <glyph glyph-name="Sacute" unicode="&#x15a;" horiz-adv-x="995" 
d="M819 426q0 130 -98 184q-50 30 -154 66q-33 12 -52.5 19t-51 20.5t-50.5 24t-45 27.5t-42 34t-34 40.5t-27.5 49t-16 58t-6.5 69.5q0 203 129 325.5t342 122.5q43 0 92 -5.5t103.5 -17.5t90 -36.5t35.5 -58.5q0 -29 -21 -50.5t-55 -21.5q-33 0 -69 18q-34 14 -50.5 20
t-54.5 13.5t-77 7.5q-50 0 -94.5 -8.5t-86.5 -30t-71.5 -53.5t-47.5 -83t-18 -116q0 -129 103 -184q61 -34 155 -65q55 -18 93 -34t85 -45.5t75.5 -63t48.5 -85.5t20 -116q0 -107 -39.5 -196.5t-108 -148.5t-161 -91.5t-197.5 -32.5q-51 0 -108.5 7.5t-114 22t-93 41
t-36.5 60.5q0 28 22.5 50.5t48.5 22.5q19 0 72 -22q42 -17 61.5 -24t69 -17t98.5 -10q164 0 250 83.5t86 229.5zM696 1690l203 186q34 29 51 29q20 0 32.5 -14.5t12.5 -34.5q0 -21 -10 -31l-192 -178q-40 -35 -62 -35q-20 0 -33.5 14.5t-13.5 36.5q0 15 12 27z" />
    <glyph glyph-name="sacute" unicode="&#x15b;" horiz-adv-x="831" 
d="M225 729q0 146 97.5 236t271.5 90q42 0 83 -5t80.5 -15.5t64 -30.5t24.5 -46t-20.5 -45.5t-49.5 -19.5q-8 0 -28 8q-28 14 -45 21.5t-48 13.5t-69 6q-230 0 -230 -190q0 -42 21 -72.5t69 -56.5q31 -17 87 -40t93.5 -41.5t77 -48t60 -73.5t20.5 -103q0 -154 -99.5 -242.5
t-283.5 -88.5q-43 0 -87.5 4.5t-90.5 15t-75 30.5t-29 48q0 26 20.5 47t50.5 21q7 0 13 -2q119 -52 215 -52q109 0 172 49.5t63 149.5q0 88 -65 123q-29 16 -74.5 34.5t-82 32.5t-76.5 37t-67 48.5t-45 65.5t-18 91zM553 1280l203 186q34 29 51 29q20 0 32.5 -14.5
t12.5 -34.5q0 -21 -10 -31l-193 -178q-1 -1 -7 -6.5t-7.5 -6.5t-6.5 -5t-6.5 -5l-6 -4t-7 -3.5t-6 -2t-7 -2t-7.5 -0.5q-20 0 -33.5 14.5t-13.5 36.5q0 15 12 27z" />
    <glyph glyph-name="Scircumflex" unicode="&#x15c;" horiz-adv-x="995" 
d="M819 426q0 130 -98 184q-50 30 -154 66q-33 12 -52.5 19t-51 20.5t-50.5 24t-45 27.5t-42 34t-34 40.5t-27.5 49t-16 58t-6.5 69.5q0 203 129 325.5t342 122.5q43 0 92 -5.5t103.5 -17.5t90 -36.5t35.5 -58.5q0 -29 -21 -50.5t-55 -21.5q-33 0 -69 18q-34 14 -50.5 20
t-54.5 13.5t-77 7.5q-50 0 -94.5 -8.5t-86.5 -30t-71.5 -53.5t-47.5 -83t-18 -116q0 -129 103 -184q61 -34 155 -65q55 -18 93 -34t85 -45.5t75.5 -63t48.5 -85.5t20 -116q0 -107 -39.5 -196.5t-108 -148.5t-161 -91.5t-197.5 -32.5q-51 0 -108.5 7.5t-114 22t-93 41
t-36.5 60.5q0 28 22.5 50.5t48.5 22.5q19 0 72 -22q42 -17 61.5 -24t69 -17t98.5 -10q164 0 250 83.5t86 229.5zM746 1747l-188 -139q-3 -6 -29 -6q-12 0 -21.5 11.5t-9.5 23.5q0 21 41 53l184 141h-2q30 15 39 15q10 0 35 -15h-2l147 -141q2 -4 9.5 -14.5t11.5 -18.5t4 -14
q0 -14 -14 -27.5t-31 -13.5q-20 0 -23 6z" />
    <glyph glyph-name="scircumflex" unicode="&#x15d;" horiz-adv-x="831" 
d="M225 729q0 146 97.5 236t271.5 90q42 0 83 -5t80.5 -15.5t64 -30.5t24.5 -46t-20.5 -45.5t-49.5 -19.5q-8 0 -28 8q-28 14 -45 21.5t-48 13.5t-69 6q-230 0 -230 -190q0 -42 21 -72.5t69 -56.5q31 -17 87 -40t93.5 -41.5t77 -48t60 -73.5t20.5 -103q0 -154 -99.5 -242.5
t-283.5 -88.5q-43 0 -87.5 4.5t-90.5 15t-75 30.5t-29 48q0 26 20.5 47t50.5 21q7 0 13 -2q119 -52 215 -52q109 0 172 49.5t63 149.5q0 88 -65 123q-29 16 -74.5 34.5t-82 32.5t-76.5 37t-67 48.5t-45 65.5t-18 91zM606 1337l-188 -139q-3 -6 -29 -6q-12 0 -21.5 11.5
t-9.5 23.5q0 21 41 53l185 141h-2q30 15 39 15t34 -15h-2l148 -141q2 -3 9 -14t11 -19t4 -14q0 -14 -14 -27.5t-31 -13.5q-19 0 -22 6z" />
    <glyph glyph-name="Scedilla" unicode="&#x15e;" horiz-adv-x="995" 
d="M692 -258q0 -77 -62.5 -131.5t-172.5 -54.5q-54 0 -62 2q-42 5 -68 28t-10 49v-2q14 19 58 7l37 -9q78 -16 127 23.5t49 89.5q0 72 -129 78q-39 2 -51 12t-5 39l33 109q-55 2 -108.5 10.5t-104 23.5t-81.5 40.5t-31 56.5q0 28 22.5 50.5t48.5 22.5q19 0 72 -22
q42 -17 61.5 -24t69 -17t98.5 -10q164 0 250 83.5t86 229.5q0 130 -98 184q-50 30 -154 66q-33 12 -52.5 19t-51 20.5t-50.5 24t-45 27.5t-42 34t-34 40.5t-27.5 49t-16 58t-6.5 69.5q0 203 129 325.5t342 122.5q43 0 92 -5.5t103.5 -17.5t90 -36.5t35.5 -58.5
q0 -29 -21 -50.5t-55 -21.5q-33 0 -69 18q-34 14 -50.5 20t-54.5 13.5t-77 7.5q-50 0 -94.5 -8.5t-86.5 -30t-71.5 -53.5t-47.5 -83t-18 -116q0 -129 103 -184q61 -34 155 -65q55 -18 93 -34t85 -45.5t75.5 -63t48.5 -85.5t20 -116q0 -196 -129 -322.5t-328 -144.5l-29 -97
q209 -3 209 -145z" />
    <glyph glyph-name="scedilla" unicode="&#x15f;" horiz-adv-x="831" 
d="M614 -260q0 -77 -64 -131.5t-175 -54.5q-52 0 -60 2q-43 5 -69 27t-8 50v-2q14 19 57 7l37 -9q79 -17 128.5 22.5t49.5 90.5q0 72 -129 78q-40 2 -52 12.5t-5 38.5l34 113q-239 18 -239 100q0 26 20.5 47t50.5 21q7 0 13 -2q119 -52 215 -52q109 0 172 49.5t63 149.5
q0 84 -65 119q-11 6 -109 45h2q-46 17 -72.5 28t-66.5 35t-62 49t-38.5 65t-16.5 89q0 148 97 238t272 90q42 0 83 -5t80.5 -15.5t64 -30.5t24.5 -46t-20.5 -45.5t-49.5 -19.5q-8 0 -28 8q-28 14 -45 21.5t-48 13.5t-69 6q-230 0 -230 -190q0 -41 21 -69.5t69 -55.5
q26 -13 97 -39h-2q38 -15 59 -24t54 -27t52.5 -36.5t39.5 -45t29 -60.5t9 -76q0 -144 -91 -232.5t-261 -100.5l-29 -101q211 -3 211 -145z" />
    <glyph glyph-name="Scaron" unicode="&#x160;" horiz-adv-x="995" 
d="M819 426q0 130 -98 184q-50 30 -154 66q-33 12 -52.5 19t-51 20.5t-50.5 24t-45 27.5t-42 34t-34 40.5t-27.5 49t-16 58t-6.5 69.5q0 203 129 325.5t342 122.5q43 0 92 -5.5t103.5 -17.5t90 -36.5t35.5 -58.5q0 -29 -21 -50.5t-55 -21.5q-33 0 -69 18q-34 14 -50.5 20
t-54.5 13.5t-77 7.5q-50 0 -94.5 -8.5t-86.5 -30t-71.5 -53.5t-47.5 -83t-18 -116q0 -129 103 -184q61 -34 155 -65q55 -18 93 -34t85 -45.5t75.5 -63t48.5 -85.5t20 -116q0 -107 -39.5 -196.5t-108 -148.5t-161 -91.5t-197.5 -32.5q-51 0 -108.5 7.5t-114 22t-93 41
t-36.5 60.5q0 28 22.5 50.5t48.5 22.5q19 0 72 -22q42 -17 61.5 -24t69 -17t98.5 -10q164 0 250 83.5t86 229.5zM725 1588q-27 0 -37 14l-163 154q-31 31 -31 55q0 20 19 34.5t36 14.5q15 0 27 -12l164 -150l204 150q15 12 31 12q17 0 29 -11t12 -28q0 -20 -10.5 -34
t-34.5 -31l-207 -154q-14 -14 -39 -14z" />
    <glyph glyph-name="scaron" unicode="&#x161;" horiz-adv-x="831" 
d="M225 729q0 146 97.5 236t271.5 90q42 0 83 -5t80.5 -15.5t64 -30.5t24.5 -46t-20.5 -45.5t-49.5 -19.5q-8 0 -28 8q-28 14 -45 21.5t-48 13.5t-69 6q-230 0 -230 -190q0 -42 21 -72.5t69 -56.5q31 -17 87 -40t93.5 -41.5t77 -48t60 -73.5t20.5 -103q0 -154 -99.5 -242.5
t-283.5 -88.5q-43 0 -87.5 4.5t-90.5 15t-75 30.5t-29 48q0 26 20.5 47t50.5 21q7 0 13 -2q119 -52 215 -52q109 0 172 49.5t63 149.5q0 88 -65 123q-29 16 -74.5 34.5t-82 32.5t-76.5 37t-67 48.5t-45 65.5t-18 91zM586 1178q-26 0 -37 14l-164 154q-31 31 -31 55
q0 20 19.5 34.5t36.5 14.5q14 0 26 -12l164 -150l205 150q15 12 31 12q17 0 29 -11t12 -28q0 -20 -11 -33.5t-35 -31.5l-206 -154q-14 -14 -39 -14z" />
    <glyph glyph-name="uni0162" unicode="&#x162;" horiz-adv-x="989" 
d="M729 -256q0 -79 -62 -133.5t-173 -54.5q-52 0 -60 2q-44 5 -69.5 28t-6.5 49v-2q14 19 56 7l37 -9q79 -16 127.5 23.5t48.5 89.5q0 72 -129 78q-41 2 -53 12t-3 39l35 111q-47 18 -41 65l178 1266h-299q-27 0 -44 16t-17 41q0 26 25 50t55 24h735q25 0 43 -17t18 -43
q0 -29 -24 -50t-55 -21h-301l-179 -1266q-2 -13 -12 -33l-37 -129q207 -3 207 -143z" />
    <glyph glyph-name="uni0163" unicode="&#x163;" horiz-adv-x="657" 
d="M575 -258q0 -78 -62.5 -133t-174.5 -55q-54 0 -62 2q-44 5 -69 27t-6 50v-2q14 19 57 7l35 -9q80 -17 129 22t49 91q0 72 -131 78q-38 3 -49 13.5t-4 37.5q31 112 47 149q-87 45 -112 145t1 249l125 882q3 28 23 47t51 19t45.5 -19t11.5 -47l-43 -307h238
q22 0 36.5 -15.5t14.5 -39.5q0 -28 -21 -48t-49 -20h-237l-62 -438q-25 -180 2 -245.5t146 -65.5h18q4 0 12 1t11 1q84 0 84 -53q0 -44 -31 -58t-82 -14q-57 0 -123 8q-25 -66 -22 -117q204 -3 204 -143z" />
    <glyph glyph-name="Tcaron" unicode="&#x164;" horiz-adv-x="989" 
d="M436 49l178 1266h-299q-27 0 -44 16t-17 41q0 26 25 50t55 24h735q25 0 43 -17t18 -43q0 -29 -24 -50t-55 -21h-301l-179 -1266q-3 -28 -25 -47.5t-50 -19.5q-29 0 -46 19.5t-14 47.5zM721 1588q-27 0 -37 14l-163 154q-31 31 -31 55q0 20 19 34.5t36 14.5q15 0 27 -12
l164 -150l204 150q15 12 31 12q17 0 29 -11t12 -28q0 -20 -10.5 -34t-34.5 -31l-207 -154q-14 -14 -39 -14z" />
    <glyph glyph-name="tcaron" unicode="&#x165;" horiz-adv-x="882" 
d="M223 414l125 882q3 28 23 47t51 19t45.5 -19t11.5 -47l-43 -307h238q22 0 36.5 -15.5t14.5 -39.5q0 -28 -21 -48t-49 -20h-237l-62 -438q-30 -170 -1 -240.5t149 -70.5q7 0 20.5 1t20.5 1q84 0 84 -53q0 -44 -31 -58t-82 -14q-139 0 -210.5 46.5t-87 140t4.5 233.5z
M1032 1403q0 -56 -36 -138t-81 -141t-71 -59q-25 0 -25 16q0 5 0.5 9.5t2.5 10t3.5 9t5 10t5.5 10t7.5 11t7.5 10t8.5 11.5t8.5 12q37 51 62 114q-40 4 -66 30.5t-26 61.5q0 42 34.5 74.5t77.5 32.5q36 0 59 -24t23 -60z" />
    <glyph glyph-name="Utilde" unicode="&#x168;" horiz-adv-x="1171" 
d="M1104 467q-30 -215 -168.5 -350t-345.5 -135q-211 0 -311 135t-70 350l131 926q4 32 28 52.5t54 20.5q27 0 42.5 -21t12.5 -52l-131 -926q-23 -163 43 -258.5t219 -95.5q152 0 243 96.5t114 257.5l131 926q3 29 26.5 51t51.5 22q29 0 46.5 -21.5t14.5 -51.5zM1108 1762
q0 -48 -57 -83.5t-117 -35.5q-47 0 -115 37q-6 3 -17.5 9.5t-18.5 10t-20.5 7t-29.5 3.5q-48 0 -98 -36q-25 -19 -41 -19q-41 0 -41 39q0 45 54 84t116 39q49 0 115 -39q49 -27 88 -29q57 0 102 35q31 25 47 25q12 0 22.5 -13.5t10.5 -33.5z" />
    <glyph glyph-name="utilde" unicode="&#x169;" horiz-adv-x="1042" 
d="M784 246l105 737q5 29 24.5 47.5t51.5 18.5q31 0 46.5 -18.5t10.5 -47.5l-104 -737q-15 -107 4 -133q22 -26 22 -54q0 -25 -21 -43t-49 -18q-44 0 -77 68q-149 -80 -316 -80q-156 0 -223.5 103t-42.5 278l86 616q5 29 25 47.5t51 18.5t45.5 -18.5t11.5 -47.5l-86 -616
q-19 -127 25.5 -197t146.5 -70q126 0 260 78q0 41 4 68zM985 1352q0 -48 -57 -83.5t-117 -35.5q-47 0 -115 37q-6 3 -17.5 9.5t-18.5 10t-20.5 7t-29.5 3.5q-48 0 -98 -36q-25 -19 -41 -19q-41 0 -41 39q0 45 54 84t116 39q49 0 115 -39q49 -27 88 -29q57 0 102 35
q31 25 47 25q12 0 22.5 -13.5t10.5 -33.5z" />
    <glyph glyph-name="Umacron" unicode="&#x16a;" horiz-adv-x="1171" 
d="M1104 467q-30 -215 -168.5 -350t-345.5 -135q-211 0 -311 135t-70 350l131 926q4 32 28 52.5t54 20.5q27 0 42.5 -21t12.5 -52l-131 -926q-23 -163 43 -258.5t219 -95.5q152 0 243 96.5t114 257.5l131 926q3 29 26.5 51t51.5 22q29 0 46.5 -21.5t14.5 -51.5zM1153 1737
q0 -29 -20 -48t-48 -19h-522q-23 0 -38 14t-15 37q0 28 21 48.5t50 20.5h522q21 0 35.5 -15.5t14.5 -37.5z" />
    <glyph glyph-name="umacron" unicode="&#x16b;" horiz-adv-x="1042" 
d="M784 246l105 737q5 29 24.5 47.5t51.5 18.5q31 0 46.5 -18.5t10.5 -47.5l-104 -737q-15 -107 4 -133q22 -26 22 -54q0 -25 -21 -43t-49 -18q-44 0 -77 68q-149 -80 -316 -80q-156 0 -223.5 103t-42.5 278l86 616q5 29 25 47.5t51 18.5t45.5 -18.5t11.5 -47.5l-86 -616
q-19 -127 25.5 -197t146.5 -70q126 0 260 78q0 41 4 68zM1030 1327q0 -29 -19.5 -48t-47.5 -19h-523q-23 0 -38 14t-15 37q0 28 21.5 48.5t50.5 20.5h522q21 0 35 -15.5t14 -37.5z" />
    <glyph glyph-name="Ubreve" unicode="&#x16c;" horiz-adv-x="1171" 
d="M1104 467q-30 -215 -168.5 -350t-345.5 -135q-211 0 -311 135t-70 350l131 926q4 32 28 52.5t54 20.5q27 0 42.5 -21t12.5 -52l-131 -926q-23 -163 43 -258.5t219 -95.5q152 0 243 96.5t114 257.5l131 926q3 29 26.5 51t51.5 22q29 0 46.5 -21.5t14.5 -51.5zM829 1704
q85 0 162 92q23 29 55 29q23 0 31.5 -13.5t-2.5 -45.5q-30 -72 -107 -115t-151 -43q-47 0 -95 17t-85.5 54.5t-40.5 86.5q-1 26 16.5 42.5t36.5 16.5q31 0 45 -29q54 -92 135 -92z" />
    <glyph glyph-name="ubreve" unicode="&#x16d;" horiz-adv-x="1042" 
d="M784 246l105 737q5 29 24.5 47.5t51.5 18.5q31 0 46.5 -18.5t10.5 -47.5l-104 -737q-15 -107 4 -133q22 -26 22 -54q0 -25 -21 -43t-49 -18q-44 0 -77 68q-149 -80 -316 -80q-156 0 -223.5 103t-42.5 278l86 616q5 29 25 47.5t51 18.5t45.5 -18.5t11.5 -47.5l-86 -616
q-19 -127 25.5 -197t146.5 -70q126 0 260 78q0 41 4 68zM707 1294q84 0 161 92q23 29 56 29q22 0 30.5 -13.5t-2.5 -45.5q-30 -72 -107 -115t-151 -43q-47 0 -95 17t-85.5 54.5t-40.5 86.5q-1 26 16.5 42.5t36.5 16.5q30 0 45 -29q54 -92 136 -92z" />
    <glyph glyph-name="Uring" unicode="&#x16e;" horiz-adv-x="1171" 
d="M1104 467q-30 -215 -168.5 -350t-345.5 -135q-211 0 -311 135t-70 350l131 926q4 32 28 52.5t54 20.5q27 0 42.5 -21t12.5 -52l-131 -926q-23 -163 43 -258.5t219 -95.5q152 0 243 96.5t114 257.5l131 926q3 29 26.5 51t51.5 22q29 0 46.5 -21.5t14.5 -51.5zM1031 1766
q0 -87 -66 -150t-154 -63q-73 0 -121.5 48.5t-48.5 119.5q0 87 67.5 151t156.5 64q72 0 119 -49t47 -121zM967 1760q0 48 -30.5 81t-79.5 33q-59 0 -104.5 -43.5t-45.5 -101.5q0 -48 32 -80.5t81 -32.5q59 0 103 42.5t44 101.5z" />
    <glyph glyph-name="uring" unicode="&#x16f;" horiz-adv-x="1042" 
d="M784 246l105 737q5 29 24.5 47.5t51.5 18.5q31 0 46.5 -18.5t10.5 -47.5l-104 -737q-15 -107 4 -133q22 -26 22 -54q0 -25 -21 -43t-49 -18q-44 0 -77 68q-149 -80 -316 -80q-156 0 -223.5 103t-42.5 278l86 616q5 29 25 47.5t51 18.5t45.5 -18.5t11.5 -47.5l-86 -616
q-19 -127 25.5 -197t146.5 -70q126 0 260 78q0 41 4 68zM909 1356q0 -87 -65.5 -150t-153.5 -63q-73 0 -121.5 48.5t-48.5 119.5q0 87 67.5 151t155.5 64q72 0 119 -49t47 -121zM846 1350q0 48 -31 81t-80 33q-59 0 -104 -43.5t-45 -101.5q0 -48 31.5 -80.5t80.5 -32.5
q59 0 103.5 42.5t44.5 101.5z" />
    <glyph glyph-name="Uhungarumlaut" unicode="&#x170;" horiz-adv-x="1171" 
d="M1104 467q-30 -215 -168.5 -350t-345.5 -135q-211 0 -311 135t-70 350l131 926q4 32 28 52.5t54 20.5q27 0 42.5 -21t12.5 -52l-131 -926q-23 -163 43 -258.5t219 -95.5q152 0 243 96.5t114 257.5l131 926q3 29 26.5 51t51.5 22q29 0 46.5 -21.5t14.5 -51.5zM918 1670
l163 200q13 17 19.5 24t19 16t25.5 9q19 0 34 -16t15 -35q0 -13 -6 -22l-180 -219q-23 -29 -47 -29q-20 0 -35 14t-15 33q0 15 7 25zM635 1670l174 213q29 36 53 36t35.5 -19t11.5 -40q-4 -14 -6 -16q-111 -147 -160 -201q-23 -25 -37 -35t-30 -10q-19 0 -33 14.5t-14 34.5
q0 14 6 23z" />
    <glyph glyph-name="uhungarumlaut" unicode="&#x171;" horiz-adv-x="1042" 
d="M784 246l105 737q5 29 24.5 47.5t51.5 18.5q31 0 46.5 -18.5t10.5 -47.5l-104 -737q-15 -107 4 -133q22 -26 22 -54q0 -25 -21 -43t-49 -18q-44 0 -77 68q-149 -80 -316 -80q-156 0 -223.5 103t-42.5 278l86 616q5 29 25 47.5t51 18.5t45.5 -18.5t11.5 -47.5l-86 -616
q-19 -127 25.5 -197t146.5 -70q126 0 260 78q0 41 4 68zM791 1260l163 200q13 17 19.5 24t19 16t25.5 9q19 0 34 -16t15 -35q0 -13 -6 -22l-180 -219q-23 -29 -47 -29q-20 0 -35 14t-15 33q0 15 7 25zM508 1260l174 213q29 36 53 36t35.5 -19t11.5 -40q-4 -14 -6 -16
q-111 -147 -160 -201q-23 -25 -37 -35t-30 -10q-19 0 -33 14.5t-14 34.5q0 14 6 23z" />
    <glyph glyph-name="Uogonek" unicode="&#x172;" horiz-adv-x="1171" 
d="M1104 467q-22 -157 -105.5 -275.5t-212.5 -173.5q-4 -6 -28.5 -44t-32.5 -52t-23.5 -43.5t-21.5 -52t-6 -43.5q0 -41 24 -66.5t70 -25.5q21 0 63 6q20 4 27 4q15 0 25 -11.5t10 -25.5q0 -70 -156 -70q-84 0 -131 36.5t-47 109.5q0 101 115 246q-37 -4 -84 -4
q-211 0 -311 135t-70 350l131 926q4 32 28 52.5t54 20.5q27 0 42.5 -21t12.5 -52l-131 -926q-23 -163 43 -258.5t219 -95.5q152 0 243 96.5t114 257.5l131 926q3 29 26.5 51t51.5 22q29 0 46.5 -21.5t14.5 -51.5z" />
    <glyph glyph-name="uogonek" unicode="&#x173;" horiz-adv-x="1042" 
d="M1030 -340q0 -70 -156 -70q-85 0 -132.5 37.5t-47.5 110.5q0 115 146 268q-29 26 -41 60q-161 -80 -320 -80q-156 0 -222.5 103t-41.5 278l86 616q3 29 23 47.5t53 18.5q30 0 45 -18.5t12 -47.5l-86 -616q-19 -127 25.5 -197t146.5 -70q124 0 260 76q-2 30 2 70l105 737
q3 29 24 47.5t52 18.5q32 0 46 -18t11 -48l-105 -737q-8 -79 -6 -99.5t13 -33.5q14 -18 14 -25v2q6 -12 6 -31q0 -25 -24 -49q-44 -49 -75.5 -114.5t-31.5 -114.5q0 -42 23.5 -68t70.5 -26q16 0 28 1.5t22.5 4t13.5 2.5q20 4 28 4q14 0 23.5 -12t9.5 -27z" />
    <glyph glyph-name="Wcircumflex" unicode="&#x174;" horiz-adv-x="1589" 
d="M1069 68l-96 1134q-49 -134 -199 -540t-219 -596q-41 -84 -109 -84q-36 0 -58 23t-28 61l-127 1327l3 8q3 26 29.5 41.5t56.5 15.5q19 0 35 -14t20 -35l108 -1184l414 1131q22 56 46.5 83t64.5 27q39 0 55.5 -28t19.5 -82l103 -1133l438 1186q24 49 62 49
q30 0 53.5 -13.5t23.5 -39.5q0 -16 -6 -25v-2l-495 -1312q-15 -35 -44 -59.5t-65 -24.5q-37 0 -59 25t-27 61zM1043 1747l-188 -139q-3 -6 -29 -6q-12 0 -21.5 11.5t-9.5 23.5q0 21 41 53l184 141h-2q30 15 39 15q10 0 35 -15h-2l147 -141q2 -4 9.5 -14.5t11.5 -18.5t4 -14
q0 -14 -14 -27.5t-31 -13.5q-20 0 -23 6z" />
    <glyph glyph-name="wcircumflex" unicode="&#x175;" horiz-adv-x="1341" 
d="M1440 977l-373 -909q-19 -43 -40.5 -62.5t-59.5 -19.5q-27 0 -48.5 16t-25.5 43l-92 797q-217 -565 -316 -797q-26 -59 -92 -59q-34 0 -54.5 22t-25.5 60l-118 913v4q5 26 27 45t50 19q19 0 34 -14t20 -34l96 -825q68 163 319 809q29 64 90 64q28 0 45.5 -18t20.5 -46
q26 -262 96 -809l324 825q7 20 27.5 34t41.5 14q27 0 42.5 -19.5t11.5 -48.5v-4zM860 1337l-188 -139q-3 -6 -29 -6q-12 0 -21.5 11.5t-9.5 23.5q0 21 41 53l185 141h-2q30 15 38 15q10 0 35 -15h-2l148 -141q2 -3 9 -14t11 -19t4 -14q0 -14 -14 -27.5t-31 -13.5
q-19 0 -22 6z" />
    <glyph glyph-name="Ycircumflex" unicode="&#x176;" horiz-adv-x="974" 
d="M492 -18q-31 0 -48.5 20t-13.5 51l74 518l-262 791q-4 16 -4 29q0 29 25.5 52t55.5 23q34 0 46 -26v2l231 -719l430 719v-2q17 26 55 26q25 0 42.5 -18t17.5 -43q0 -11 -13 -43l-487 -799l-72 -510q-5 -30 -26.5 -50.5t-50.5 -20.5zM735 1747l-188 -139q-3 -6 -29 -6
q-12 0 -21.5 11.5t-9.5 23.5q0 21 41 53l184 141h-2q30 15 39 15q10 0 35 -15h-2l147 -141q2 -4 9.5 -14.5t11.5 -18.5t4 -14q0 -14 -14 -27.5t-31 -13.5q-20 0 -23 6z" />
    <glyph glyph-name="ycircumflex" unicode="&#x177;" horiz-adv-x="1042" 
d="M190 354l91 629q3 29 23.5 47.5t51.5 18.5t46 -18.5t12 -47.5l-90 -629q-37 -256 188 -256q150 0 266 107l109 778q5 29 25.5 47.5t52.5 18.5q31 0 45.5 -18.5t9.5 -47.5l-152 -1081q-23 -166 -127.5 -269.5t-283.5 -103.5q-39 0 -81.5 5.5t-85 16.5t-70 33t-27.5 51
q0 24 19.5 44t43.5 20q13 0 31 -6h-2q82 -49 170 -49q128 0 195 65.5t85 192.5l25 174q-150 -88 -297 -88q-324 0 -273 366zM707 1337l-189 -139q-3 -6 -29 -6q-12 0 -21 11.5t-9 23.5q0 21 41 53l184 141h-2q30 15 39 15q10 0 35 -15h-2l147 -141q2 -4 9.5 -14.5
t11.5 -18.5t4 -14q0 -14 -14 -27.5t-31 -13.5q-20 0 -23 6z" />
    <glyph glyph-name="Ydieresis" unicode="&#x178;" horiz-adv-x="974" 
d="M492 -18q-31 0 -48.5 20t-13.5 51l74 518l-262 791q-4 16 -4 29q0 29 25.5 52t55.5 23q34 0 46 -26v2l231 -719l430 719v-2q17 26 55 26q25 0 42.5 -18t17.5 -43q0 -11 -13 -43l-487 -799l-72 -510q-5 -30 -26.5 -50.5t-50.5 -20.5zM993 1743q0 -39 -28.5 -67.5
t-65.5 -28.5q-31 0 -53.5 22.5t-22.5 53.5q0 36 32 65t69 29q30 0 49.5 -22t19.5 -52zM639 1743q0 -39 -28.5 -67.5t-67.5 -28.5q-30 0 -51 22.5t-21 53.5q0 35 29.5 64.5t66.5 29.5q31 0 51.5 -22t20.5 -52z" />
    <glyph glyph-name="Zacute" unicode="&#x179;" horiz-adv-x="991" 
d="M938 80q0 -33 -22.5 -55.5t-55.5 -22.5h-717q-29 0 -46 19t-17 47q0 26 29 67l825 1176h-608q-26 0 -43 16t-17 41q0 31 23.5 54.5t54.5 23.5h709q29 0 47 -19t18 -47q0 -20 -28 -65l-828 -1178h617q26 0 42.5 -16t16.5 -41zM682 1690l203 186q34 29 51 29
q20 0 32.5 -14.5t12.5 -34.5q0 -21 -10 -31l-192 -178q-40 -35 -62 -35q-20 0 -33.5 14.5t-13.5 36.5q0 15 12 27z" />
    <glyph glyph-name="zacute" unicode="&#x17a;" horiz-adv-x="786" 
d="M889 975q0 -14 -8 -33.5t-15 -28.5l-647 -792h494q23 0 38 -16t15 -39q0 -28 -21.5 -47t-50.5 -19h-583q-25 0 -42.5 18t-17.5 45t19 54l653 796h-471q-23 0 -38 15.5t-15 38.5q0 29 20.5 48t48.5 19h559q28 0 45 -15t17 -44zM545 1280l203 186q34 29 51 29
q20 0 32.5 -14.5t12.5 -34.5q0 -21 -10 -31l-193 -178q-1 -1 -7 -6.5t-7.5 -6.5t-6.5 -5t-6.5 -5l-6 -4t-7 -3.5t-6 -2t-7 -2t-7.5 -0.5q-20 0 -34 14.5t-14 36.5q0 14 13 27z" />
    <glyph glyph-name="Zdotaccent" unicode="&#x17b;" horiz-adv-x="991" 
d="M938 80q0 -33 -22.5 -55.5t-55.5 -22.5h-717q-29 0 -46 19t-17 47q0 26 29 67l825 1176h-608q-26 0 -43 16t-17 41q0 31 23.5 54.5t54.5 23.5h709q29 0 47 -19t18 -47q0 -20 -28 -65l-828 -1178h617q26 0 42.5 -16t16.5 -41zM823 1743q0 -39 -28.5 -67.5t-67.5 -28.5
q-30 0 -51 22.5t-21 53.5q0 35 29.5 64.5t66.5 29.5q31 0 51.5 -22t20.5 -52z" />
    <glyph glyph-name="zdotaccent" unicode="&#x17c;" horiz-adv-x="786" 
d="M889 975q0 -14 -8 -33.5t-15 -28.5l-647 -792h494q23 0 38 -16t15 -39q0 -28 -21.5 -47t-50.5 -19h-583q-25 0 -42.5 18t-17.5 45t19 54l653 796h-471q-23 0 -38 15.5t-15 38.5q0 29 20.5 48t48.5 19h559q28 0 45 -15t17 -44zM664 1333q0 -39 -29 -67.5t-68 -28.5
q-30 0 -50.5 22.5t-20.5 53.5q0 35 29.5 64.5t66.5 29.5q31 0 51.5 -22t20.5 -52z" />
    <glyph glyph-name="Zcaron" unicode="&#x17d;" horiz-adv-x="991" 
d="M938 80q0 -33 -22.5 -55.5t-55.5 -22.5h-717q-29 0 -46 19t-17 47q0 26 29 67l825 1176h-608q-26 0 -43 16t-17 41q0 31 23.5 54.5t54.5 23.5h709q29 0 47 -19t18 -47q0 -20 -28 -65l-828 -1178h617q26 0 42.5 -16t16.5 -41zM723 1588q-27 0 -37 14l-163 154
q-31 31 -31 55q0 20 19 34.5t36 14.5q15 0 27 -12l164 -150l204 150q15 12 31 12q17 0 29 -11t12 -28q0 -20 -10.5 -34t-34.5 -31l-207 -154q-14 -14 -39 -14z" />
    <glyph glyph-name="zcaron" unicode="&#x17e;" horiz-adv-x="786" 
d="M889 975q0 -14 -8 -33.5t-15 -28.5l-647 -792h494q23 0 38 -16t15 -39q0 -28 -21.5 -47t-50.5 -19h-583q-25 0 -42.5 18t-17.5 45t19 54l653 796h-471q-23 0 -38 15.5t-15 38.5q0 29 20.5 48t48.5 19h559q28 0 45 -15t17 -44zM569 1178q-27 0 -37 14l-163 154
q-31 31 -31 55q0 20 19 34.5t36 14.5q15 0 27 -12l164 -150l204 150q15 12 31 12q17 0 29 -11t12 -28q0 -20 -10.5 -34t-34.5 -31l-207 -154q-14 -14 -39 -14z" />
    <glyph glyph-name="florin" unicode="&#x192;" horiz-adv-x="1007" 
d="M1182 1415q0 -31 -13.5 -46.5t-30 -14.5t-32.5 2q-41 6 -59 6q-62 0 -113 -40.5t-74 -109.5l-88 -294h193q47 0 47 -50q0 -63 -64 -63h-217q-35 -112 -285 -905q-50 -162 -130.5 -251t-209.5 -89q-38 0 -59 1t-44 6t-33.5 15.5t-10.5 28.5q0 32 21.5 51t56.5 19h22
q6 0 18.5 -1.5t18.5 -1.5q85 0 130 47t79 156l293 924h-195q-51 0 -51 47q0 34 19.5 50t48.5 16h215l96 315q41 109 134.5 177.5t217.5 68.5q99 0 99 -64z" />
    <glyph glyph-name="uni0218" unicode="&#x218;" horiz-adv-x="995" 
d="M819 426q0 130 -98 184q-50 30 -154 66q-33 12 -52.5 19t-51 20.5t-50.5 24t-45 27.5t-42 34t-34 40.5t-27.5 49t-16 58t-6.5 69.5q0 203 129 325.5t342 122.5q43 0 92 -5.5t103.5 -17.5t90 -36.5t35.5 -58.5q0 -29 -21 -50.5t-55 -21.5q-33 0 -69 18q-34 14 -50.5 20
t-54.5 13.5t-77 7.5q-50 0 -94.5 -8.5t-86.5 -30t-71.5 -53.5t-47.5 -83t-18 -116q0 -129 103 -184q61 -34 155 -65q55 -18 93 -34t85 -45.5t75.5 -63t48.5 -85.5t20 -116q0 -107 -39.5 -196.5t-108 -148.5t-161 -91.5t-197.5 -32.5q-51 0 -108.5 7.5t-114 22t-93 41
t-36.5 60.5q0 28 22.5 50.5t48.5 22.5q19 0 72 -22q42 -17 61.5 -24t69 -17t98.5 -10q164 0 250 83.5t86 229.5zM565 -221q0 -48 -33.5 -114.5t-76.5 -113.5t-70 -47q-9 0 -16 5t-7 12q0 12 41 59q3 5 16.5 20t26.5 31.5t23 34.5q-42 3 -69 29t-27 63q0 43 33 75t79 32
q34 0 57 -25.5t23 -60.5z" />
    <glyph glyph-name="uni0219" unicode="&#x219;" horiz-adv-x="831" 
d="M225 729q0 146 97.5 236t271.5 90q42 0 83 -5t80.5 -15.5t64 -30.5t24.5 -46t-20.5 -45.5t-49.5 -19.5q-8 0 -28 8q-28 14 -45 21.5t-48 13.5t-69 6q-230 0 -230 -190q0 -42 21 -72.5t69 -56.5q31 -17 87 -40t93.5 -41.5t77 -48t60 -73.5t20.5 -103q0 -154 -99.5 -242.5
t-283.5 -88.5q-43 0 -87.5 4.5t-90.5 15t-75 30.5t-29 48q0 26 20.5 47t50.5 21q7 0 13 -2q119 -52 215 -52q109 0 172 49.5t63 149.5q0 88 -65 123q-29 16 -74.5 34.5t-82 32.5t-76.5 37t-67 48.5t-45 65.5t-18 91zM483 -221q0 -48 -33.5 -114.5t-76.5 -113.5t-70 -47
q-22 0 -22 17q0 12 41 59q3 4 16.5 19.5t26 32t22.5 34.5q-42 3 -69 29t-27 63q0 43 33 75t79 32q34 0 57 -25.5t23 -60.5z" />
    <glyph glyph-name="uni021A" unicode="&#x21a;" horiz-adv-x="989" 
d="M436 49l178 1266h-299q-27 0 -44 16t-17 41q0 26 25 50t55 24h735q25 0 43 -17t18 -43q0 -29 -24 -50t-55 -21h-301l-179 -1266q-3 -28 -25 -47.5t-50 -19.5q-29 0 -46 19.5t-14 47.5zM561 -221q0 -48 -33.5 -114.5t-76.5 -113.5t-70 -47q-9 0 -16 5t-7 12q0 12 41 59
q4 5 17 20t26 31.5t23 34.5q-42 3 -69 29t-27 63q0 43 33 75t79 32q34 0 57 -25.5t23 -60.5z" />
    <glyph glyph-name="uni021B" unicode="&#x21b;" horiz-adv-x="657" 
d="M223 414l125 882q3 28 23 47t51 19t45.5 -19t11.5 -47l-43 -307h238q22 0 36.5 -15.5t14.5 -39.5q0 -28 -21 -48t-49 -20h-237l-62 -438q-30 -170 -1 -240.5t149 -70.5q7 0 20.5 1t20.5 1q84 0 84 -53q0 -44 -31 -58t-82 -14q-139 0 -210.5 46.5t-87 140t4.5 233.5z
M518 -221q0 -48 -33.5 -114.5t-76.5 -113.5t-70 -47q-9 0 -16 5t-7 12q0 12 41 59q3 5 16.5 20t26.5 31.5t23 34.5q-42 3 -69 29t-27 63q0 43 33 75t79 32q34 0 57 -25.5t23 -60.5z" />
    <glyph glyph-name="dotlessj" unicode="&#x237;" horiz-adv-x="501" 
d="M461 981l-146 -1028q-22 -154 -112 -255.5t-223 -123.5h-39q-19 0 -34 11.5t-16 29.5q-3 31 17 48.5t45 23.5q100 21 155 80.5t72 177.5l148 1036q3 28 24.5 48t50.5 20q26 0 43.5 -20t14.5 -48z" />
    <glyph glyph-name="circumflex" unicode="&#x2c6;" horiz-adv-x="811" 
d="M594 1337l-188 -139q-3 -6 -29 -6q-12 0 -21.5 11.5t-9.5 23.5q0 21 41 53l184 141h-2q30 15 39 15q10 0 35 -15h-2l147 -141q2 -4 9.5 -14.5t11.5 -18.5t4 -14q0 -14 -14 -27.5t-31 -13.5q-20 0 -23 6z" />
    <glyph glyph-name="caron" unicode="&#x2c7;" horiz-adv-x="800" 
d="M569 1178q-27 0 -37 14l-163 154q-31 31 -31 55q0 20 19 34.5t36 14.5q15 0 27 -12l164 -150l204 150q15 12 31 12q17 0 29 -11t12 -28q0 -20 -10.5 -34t-34.5 -31l-207 -154q-14 -14 -39 -14z" />
    <glyph glyph-name="breve" unicode="&#x2d8;" horiz-adv-x="753" 
d="M561 1294q85 0 162 92q23 29 55 29q23 0 31.5 -13.5t-2.5 -45.5q-30 -72 -107 -115t-151 -43q-47 0 -95 17t-85.5 54.5t-40.5 86.5q-1 26 16.5 42.5t36.5 16.5q31 0 45 -29q54 -92 135 -92z" />
    <glyph glyph-name="dotaccent" unicode="&#x2d9;" horiz-adv-x="487" 
d="M514 1333q0 -39 -28.5 -67.5t-67.5 -28.5q-30 0 -51 22.5t-21 53.5q0 35 29.5 64.5t66.5 29.5q31 0 51.5 -22t20.5 -52z" />
    <glyph glyph-name="ring" unicode="&#x2da;" horiz-adv-x="1169" 
d="M965 1356q0 -87 -66 -150t-154 -63q-73 0 -121.5 48.5t-48.5 119.5q0 87 67.5 151t156.5 64q72 0 119 -49t47 -121zM901 1350q0 48 -30.5 81t-79.5 33q-59 0 -104.5 -43.5t-45.5 -101.5q0 -48 32 -80.5t81 -32.5q59 0 103 42.5t44 101.5z" />
    <glyph glyph-name="ogonek" unicode="&#x2db;" horiz-adv-x="659" 
d="M453 -336q0 -70 -154 -70q-84 0 -131 36.5t-47 109.5q0 103 102 231h94q-60 -98 -73 -139q-8 -27 -8 -49q0 -42 23.5 -67t70.5 -25q21 0 63 6q20 4 27 4q14 0 23.5 -11.5t9.5 -25.5z" />
    <glyph glyph-name="tilde" unicode="&#x2dc;" horiz-adv-x="768" 
d="M864 1352q0 -48 -57 -83.5t-117 -35.5q-47 0 -115 37q-6 3 -17.5 9.5t-18.5 10t-20.5 7t-29.5 3.5q-48 0 -98 -36q-25 -19 -41 -19q-41 0 -41 39q0 45 54 84t116 39q49 0 115 -39q49 -27 88 -29q57 0 102 35q31 25 47 25q12 0 22.5 -13.5t10.5 -33.5z" />
    <glyph glyph-name="hungarumlaut" unicode="&#x2dd;" horiz-adv-x="839" 
d="M621 1260l163 200q13 17 19.5 24t19 16t25.5 9q19 0 34 -16t15 -35q0 -13 -6 -22l-180 -219q-23 -29 -47 -29q-20 0 -35 14t-15 33q0 15 7 25zM338 1260l174 213q29 36 53 36t35.5 -19t11.5 -40q-4 -14 -6 -16q-111 -147 -160 -201q-23 -25 -37 -35t-30 -10
q-19 0 -33 14.5t-14 34.5q0 14 6 23z" />
    <glyph glyph-name="uni0400" unicode="&#x400;" horiz-adv-x="970" 
d="M911 78q0 -31 -23.5 -53.5t-53.5 -22.5h-555q-52 0 -82.5 19t-24.5 63l180 1278q5 33 33 58.5t64 25.5h567q24 0 39.5 -17.5t15.5 -44.5q0 -29 -22 -49t-52 -20h-516l-73 -522h475q25 0 41 -16.5t16 -41.5q0 -30 -22.5 -51.5t-53.5 -21.5h-475l-74 -529h537
q24 0 41.5 -16.5t17.5 -38.5zM709 1878l149 -186q6 -6 6 -16q0 -24 -19.5 -43t-41.5 -19q-27 0 -53 33l-139 180q-7 11 -7 21q0 22 19 40.5t39 18.5q7 0 12 -1t10 -5t7.5 -5.5t9 -8.5t8.5 -9z" />
    <glyph glyph-name="uni0401" unicode="&#x401;" horiz-adv-x="970" 
d="M911 78q0 -31 -23.5 -53.5t-53.5 -22.5h-555q-52 0 -82.5 19t-24.5 63l180 1278q5 33 33 58.5t64 25.5h567q24 0 39.5 -17.5t15.5 -44.5q0 -29 -22 -49t-52 -20h-516l-73 -522h475q25 0 41 -16.5t16 -41.5q0 -30 -22.5 -51.5t-53.5 -21.5h-475l-74 -529h537
q24 0 41.5 -16.5t17.5 -38.5zM1055 1745q0 -39 -28.5 -67.5t-65.5 -28.5q-31 0 -53.5 22t-22.5 53q0 36 31.5 65.5t68.5 29.5q30 0 50 -22t20 -52zM700 1745q0 -39 -28.5 -67.5t-67.5 -28.5q-30 0 -51 22t-21 53q0 35 30 65t67 30q31 0 51 -22t20 -52z" />
    <glyph glyph-name="uni0402" unicode="&#x402;" horiz-adv-x="1318" 
d="M350 49l178 1268h-215q-27 0 -44 16t-17 39q0 28 25.5 52t54.5 24h737q25 0 42 -16.5t17 -42.5q0 -29 -23.5 -50.5t-53.5 -21.5h-385l-68 -479q155 63 297 63q178 0 272.5 -94.5t94.5 -276.5q0 -242 -118 -395t-306 -153q-81 0 -132 28.5t-51 71.5q0 27 21.5 47.5
t46.5 20.5q5 0 9.5 -1.5t7.5 -3.5t7 -5t7 -5q33 -22 86 -22q135 0 209.5 104t74.5 303q0 133 -63 191.5t-197 58.5q-163 0 -284 -65l-93 -656q-5 -28 -27 -47.5t-50 -19.5t-46 20t-14 47z" />
    <glyph glyph-name="uni0403" unicode="&#x403;" horiz-adv-x="880" 
d="M481 1313l-176 -1262q-5 -28 -26.5 -47.5t-49.5 -19.5q-29 0 -46.5 19.5t-12.5 47.5l184 1313q3 32 29.5 56t60.5 24h570q24 0 39.5 -17.5t15.5 -42.5q0 -29 -22 -50t-52 -21h-514zM707 1692l202 186q34 29 52 29q20 0 32.5 -14.5t12.5 -34.5t-11 -31l-192 -178
q-40 -35 -62 -35q-20 0 -33.5 14.5t-13.5 36.5q0 14 13 27z" />
    <glyph glyph-name="uni0404" unicode="&#x404;" horiz-adv-x="987" 
d="M172 500l64 448q35 242 169 380t361 138q86 0 162.5 -21t123 -57t46.5 -77q0 -28 -19.5 -47t-48.5 -19q-16 0 -43 19l-18 12q-95 70 -211 70q-178 0 -267.5 -102t-117.5 -296l-23 -155h406q23 0 39 -16.5t16 -41.5q0 -32 -22 -54t-52 -22h-405l-23 -159
q-14 -91 -5.5 -164t38 -124.5t90.5 -79.5t152 -28q122 0 225 66l25 14q34 21 49 21q24 0 37.5 -14.5t13.5 -36.5q0 -45 -55 -84.5t-142 -62.5t-180 -23q-227 0 -322.5 137.5t-62.5 378.5z" />
    <glyph glyph-name="uni0405" unicode="&#x405;" horiz-adv-x="995" 
d="M819 426q0 130 -98 184q-50 30 -154 66q-33 12 -52.5 19t-51 20.5t-50.5 24t-45 27.5t-42 34t-34 40.5t-27.5 49t-16 58t-6.5 69.5q0 203 129 325.5t342 122.5q43 0 92 -5.5t103.5 -17.5t90 -36.5t35.5 -58.5q0 -29 -21 -50.5t-55 -21.5q-33 0 -69 18q-34 14 -50.5 20
t-54.5 13.5t-77 7.5q-50 0 -94.5 -8.5t-86.5 -30t-71.5 -53.5t-47.5 -83t-18 -116q0 -129 103 -184q61 -34 155 -65q55 -18 93 -34t85 -45.5t75.5 -63t48.5 -85.5t20 -116q0 -107 -39.5 -196.5t-108 -148.5t-161 -91.5t-197.5 -32.5q-51 0 -108.5 7.5t-114 22t-93 41
t-36.5 60.5q0 28 22.5 50.5t48.5 22.5q19 0 72 -22q42 -17 61.5 -24t69 -17t98.5 -10q164 0 250 83.5t86 229.5z" />
    <glyph glyph-name="uni0406" unicode="&#x406;" horiz-adv-x="464" 
d="M172 49l188 1350q5 26 28.5 46.5t51.5 20.5q29 0 46 -20t12 -47l-189 -1350q-5 -28 -27 -47.5t-51 -19.5q-28 0 -45.5 20t-13.5 47z" />
    <glyph glyph-name="uni0407" unicode="&#x407;" horiz-adv-x="464" 
d="M172 49l188 1350q5 26 28.5 46.5t51.5 20.5q29 0 46 -20t12 -47l-189 -1350q-5 -28 -27 -47.5t-51 -19.5q-28 0 -45.5 20t-13.5 47zM741 1745q0 -39 -28.5 -67.5t-65.5 -28.5q-31 0 -53.5 22.5t-22.5 53.5q0 36 32 65t69 29q30 0 49.5 -22t19.5 -52zM387 1745
q0 -39 -28.5 -67.5t-67.5 -28.5q-30 0 -51 22.5t-21 53.5q0 35 29.5 64.5t66.5 29.5q31 0 51.5 -22t20.5 -52z" />
    <glyph glyph-name="uni0408" unicode="&#x408;" horiz-adv-x="788" 
d="M829 1399l-131 -942q-34 -236 -142.5 -355.5t-330.5 -119.5q-153 0 -153 69q0 33 22 53.5t45 20.5q5 0 33 -4q58 -10 94 -10q75 0 128 23.5t85.5 71.5t50.5 106.5t31 144.5l131 942q5 28 28 47.5t52 19.5q26 0 43.5 -20.5t13.5 -46.5z" />
    <glyph glyph-name="uni0409" unicode="&#x409;" horiz-adv-x="1796" 
d="M1081 1184v-15l21 148h-434l-203 -977q-34 -164 -108 -259t-189 -95q-33 0 -52 1.5t-41 6.5t-32 18t-10 33q0 37 21 57.5t50 20.5q12 0 27 -3t33 -3q62 0 100 50.5t62 156.5l223 1054q10 35 32 52.5t44 17.5h565q26 0 42.5 -20t12.5 -48l-65 -477h215q186 0 290.5 -97.5
t104.5 -277.5q0 -80 -17 -153.5t-57 -142t-98.5 -119t-148.5 -81t-201 -30.5h-267q-35 0 -56.5 24.5t-16.5 59.5zM1161 772l-90 -639h215q91 0 160 25.5t108 64t62.5 92.5t31 101t7.5 100q0 256 -279 256h-215z" />
    <glyph glyph-name="uni040A" unicode="&#x40a;" horiz-adv-x="1736" 
d="M385 659l-84 -608q-5 -29 -26.5 -49t-49.5 -20q-29 0 -46 20t-13 49l188 1348q5 27 28 47t52 20q27 0 43.5 -20t11.5 -47l-86 -608h562l86 602q4 30 27.5 51.5t51.5 21.5q27 0 44 -21.5t14 -51.5l-70 -490h215q188 0 294 -97.5t106 -277.5q0 -79 -17.5 -153t-58 -142.5
t-100 -119t-150 -81t-201.5 -30.5h-266q-34 0 -56 24.5t-18 59.5l80 573h-561zM1100 772l-90 -639h215q91 0 160 25.5t107.5 64t62.5 92.5t31 101t7 100q0 256 -278 256h-215z" />
    <glyph glyph-name="uni040B" unicode="&#x40b;" horiz-adv-x="1318" 
d="M1128 1389q0 -29 -23.5 -50.5t-53.5 -21.5h-385l-68 -479q155 63 297 63q202 0 296.5 -115t63.5 -331l-57 -402q-3 -29 -26 -50t-52 -21q-27 0 -44 20.5t-13 50.5l57 400q23 169 -40 243t-218 74q-161 0 -282 -65l-93 -656q-5 -28 -27 -47.5t-50 -19.5t-46 20t-14 47
l178 1268h-215q-27 0 -44 16t-17 41t25.5 49.5t54.5 24.5h737q25 0 42 -16.5t17 -42.5z" />
    <glyph glyph-name="uni040C" unicode="&#x40c;" horiz-adv-x="1056" 
d="M494 1399l-86 -608h147q86 105 266 322t266 321q29 32 62 32q24 0 37.5 -20.5t13.5 -46.5q0 -18 -12 -39l-533 -637l353 -637q4 -6 4 -23q0 -29 -21 -55t-51 -26q-35 0 -53 30l-355 647h-143l-84 -608q-5 -29 -27 -49t-51 -20q-28 0 -44.5 20t-12.5 49l188 1348
q5 27 28 47t50 20q29 0 46 -20t12 -47zM743 1692l203 186q34 29 51 29q20 0 32.5 -14.5t12.5 -34.5q0 -21 -10 -31l-192 -178q-40 -35 -62 -35q-20 0 -33.5 14.5t-13.5 36.5q0 15 12 27z" />
    <glyph glyph-name="uni040D" unicode="&#x40d;" horiz-adv-x="1206" 
d="M236 -18q-34 0 -53.5 21.5t-14.5 53.5l188 1340q3 28 26.5 48.5t51.5 20.5q29 0 46 -20.5t14 -48.5l-160 -1129l776 1155q29 43 80 43q31 0 48 -21.5t13 -55.5l-186 -1338q-4 -29 -26.5 -49t-49.5 -20q-28 0 -46.5 20t-14.5 49l157 1127l-774 -1158q-24 -38 -75 -38z
M727 1878l150 -186q6 -6 6 -17q0 -24 -19.5 -42.5t-42.5 -18.5q-27 0 -53 33l-139 180q-6 9 -6 20q0 23 18.5 41.5t38.5 18.5q7 0 12 -1t10 -5t7.5 -5.5t9 -8.5t8.5 -9z" />
    <glyph glyph-name="uni040E" unicode="&#x40e;" horiz-adv-x="1030" 
d="M1169 1380l-467 -913q-46 -91 -70 -135t-65 -111.5t-74 -100t-79.5 -68.5t-99.5 -50.5t-117 -15.5q-26 0 -43 15t-17 40q0 27 20.5 48t51.5 22q104 4 168 52.5t133 170.5l-250 1046q0 2 -1 8.5t-1 8.5q0 30 22.5 49.5t55.5 19.5q42 0 51 -45l211 -915l455 917
q9 18 29 30.5t38 12.5q22 0 38 -16t16 -41q0 -6 -1 -13t-3 -12zM758 1706q85 0 162 92q23 29 55 29q23 0 31.5 -14t-2.5 -46q-30 -72 -107.5 -114.5t-151.5 -42.5q-47 0 -95 17t-85.5 54t-40.5 86q-1 26 17 43t37 17q30 0 45 -29q54 -92 135 -92z" />
    <glyph glyph-name="uni040F" unicode="&#x40f;" horiz-adv-x="1185" 
d="M489 -266l39 268h-299q-28 0 -44.5 20t-12.5 48l186 1329q3 28 26.5 48.5t51.5 20.5q29 0 45 -20.5t13 -48.5l-179 -1266h603l178 1266q3 27 28 48t52 21t43.5 -20.5t13.5 -48.5l-186 -1329q-4 -28 -28 -48t-50 -20h-303l-39 -268q-3 -26 -25.5 -46t-50.5 -20t-46.5 20
t-15.5 46z" />
    <glyph glyph-name="uni0410" unicode="&#x410;" horiz-adv-x="1124" 
d="M338 334l-135 -303q-12 -19 -33.5 -34t-38.5 -15q-28 0 -45.5 16t-17.5 43q0 11 8 35l590 1290q21 48 46 74t62 26q64 0 82 -100l225 -1290q0 -19 -2 -27q-4 -30 -26.5 -48.5t-53.5 -18.5q-20 0 -38 14t-21 35l-51 303h-551zM741 1243l-346 -776h473z" />
    <glyph glyph-name="uni0411" unicode="&#x411;" horiz-adv-x="1087" 
d="M1036 1313h-555l-63 -451h258q188 0 293.5 -94.5t105.5 -265.5q0 -76 -17 -146t-56.5 -135.5t-98 -113t-148 -76.5t-200.5 -29h-307q-35 0 -56.5 24.5t-17.5 59.5l180 1278q5 32 30 56t58 24h613q24 0 39.5 -17.5t15.5 -42.5q0 -29 -22 -50t-52 -21zM315 133h258
q90 0 158.5 23.5t106.5 59t61.5 85.5t31 93.5t7.5 92.5q0 244 -279 244h-258z" />
    <glyph glyph-name="uni0412" unicode="&#x412;" horiz-adv-x="1110" 
d="M414 819h258q59 0 117.5 18t109 52.5t82 93t31.5 131.5q0 87 -57 144t-179 57h-293zM657 686h-264l-78 -553h273q177 0 272.5 84.5t95.5 220.5q0 118 -82 183t-217 65zM592 2h-346q-35 0 -56 24.5t-16 59.5l180 1274q4 36 33.5 61t63.5 25h354q167 0 254.5 -93t87.5 -229
q0 -73 -22.5 -132.5t-67 -105t-96.5 -78.5t-123 -65q43 -17 72.5 -30.5t67.5 -39t60.5 -54t39 -72.5t16.5 -98q0 -187 -141 -317t-361 -130z" />
    <glyph glyph-name="uni0413" unicode="&#x413;" horiz-adv-x="880" 
d="M481 1313l-176 -1262q-5 -28 -26.5 -47.5t-49.5 -19.5q-29 0 -46.5 19.5t-12.5 47.5l184 1313q3 32 29.5 56t60.5 24h570q24 0 39.5 -17.5t15.5 -42.5q0 -29 -22 -50t-52 -21h-514z" />
    <glyph glyph-name="uni0414" unicode="&#x414;" horiz-adv-x="1286" 
d="M1231 1444q29 0 45.5 -20t11.5 -48l-174 -1243h70q29 0 45 -26t10 -66l-37 -266q-5 -28 -27 -47t-51 -19t-44.5 19t-12.5 47l33 227h-901l-33 -227q-3 -27 -26 -46.5t-50 -19.5q-28 0 -45 19t-14 47l39 266q6 39 29 65.5t51 26.5h69q127 148 205 569l125 674
q7 35 30 51.5t46 16.5h606zM561 702q-68 -367 -213 -569h631l166 1180h-475z" />
    <glyph glyph-name="uni0415" unicode="&#x415;" horiz-adv-x="970" 
d="M911 78q0 -31 -23.5 -53.5t-53.5 -22.5h-555q-52 0 -82.5 19t-24.5 63l180 1278q5 33 33 58.5t64 25.5h567q24 0 39.5 -17.5t15.5 -44.5q0 -29 -22 -49t-52 -20h-516l-73 -522h475q25 0 41 -16.5t16 -41.5q0 -30 -22.5 -51.5t-53.5 -21.5h-475l-74 -529h537
q24 0 41.5 -16.5t17.5 -38.5z" />
    <glyph glyph-name="uni0416" unicode="&#x416;" horiz-adv-x="1527" 
d="M1036 1399l-86 -608h121l494 643q25 32 61 32q42 0 53.5 -38.5t-12.5 -67.5l-481 -637l299 -637q6 -9 6 -23q0 -28 -22 -54.5t-52 -26.5q-33 0 -53 30l-311 647h-121l-86 -608q-4 -29 -27 -49t-51 -20t-45.5 20t-13.5 49l86 608h-119l-496 -647q-27 -30 -61 -30
q-26 0 -39.5 19.5t-13.5 45.5q0 19 14 39l477 637l-299 637q-16 35 12 70.5t64 35.5q33 0 47 -32l311 -643h121l86 608q3 26 26.5 46.5t51.5 20.5q27 0 44.5 -20t14.5 -47z" />
    <glyph glyph-name="uni0417" unicode="&#x417;" horiz-adv-x="993" 
d="M965 430q0 -86 -37 -167t-101 -143t-159 -100t-203 -38q-76 0 -159 15.5t-149.5 51t-66.5 82.5q0 29 21 49.5t49 20.5q9 0 30 -13q59 -32 85 -44.5t84.5 -28t121.5 -15.5q163 0 255.5 94t92.5 232q0 228 -337 246q-24 1 -38.5 4t-28 15.5t-13.5 35.5q0 72 80 72
q56 0 112 11.5t109 37.5t94 63t65.5 92t24.5 121q0 95 -59 159.5t-183 64.5q-128 0 -202 -43l-52 -29q-48 -27 -75 -29q-21 0 -35.5 14t-14.5 35q0 47 69 87.5t161.5 61.5t175.5 21q166 0 254 -98.5t88 -237.5q0 -253 -326 -387q267 -96 267 -313z" />
    <glyph glyph-name="uni0418" unicode="&#x418;" horiz-adv-x="1206" 
d="M236 -18q-34 0 -53.5 21.5t-14.5 53.5l188 1340q3 28 26.5 48.5t51.5 20.5q29 0 46 -20.5t14 -48.5l-160 -1129l776 1155q29 43 80 43q31 0 48 -21.5t13 -55.5l-186 -1338q-4 -29 -26.5 -49t-49.5 -20q-28 0 -46.5 20t-14.5 49l157 1127l-774 -1158q-24 -38 -75 -38z" />
    <glyph glyph-name="uni0419" unicode="&#x419;" horiz-adv-x="1206" 
d="M236 -18q-34 0 -53.5 21.5t-14.5 53.5l188 1340q3 28 26.5 48.5t51.5 20.5q29 0 46 -20.5t14 -48.5l-160 -1129l776 1155q29 43 80 43q31 0 48 -21.5t13 -55.5l-186 -1338q-4 -29 -26.5 -49t-49.5 -20q-28 0 -46.5 20t-14.5 49l157 1127l-774 -1158q-24 -38 -75 -38z
M846 1706q85 0 162 92q23 29 55 29q23 0 31.5 -14t-2.5 -46q-30 -72 -107 -114.5t-151 -42.5q-47 0 -95.5 17t-86 54t-40.5 86q-1 26 17 43t37 17q30 0 45 -29q54 -92 135 -92z" />
    <glyph glyph-name="uni041A" unicode="&#x41a;" horiz-adv-x="1056" 
d="M494 1399l-86 -608h147q86 105 266 322t266 321q29 32 62 32q24 0 37.5 -20.5t13.5 -46.5q0 -18 -12 -39l-533 -637l353 -637q4 -6 4 -23q0 -29 -21 -55t-51 -26q-35 0 -53 30l-355 647h-143l-84 -608q-5 -29 -27 -49t-51 -20q-28 0 -44.5 20t-12.5 49l188 1348
q5 27 28 47t50 20q29 0 46 -20t12 -47z" />
    <glyph glyph-name="uni041B" unicode="&#x41b;" horiz-adv-x="1249" 
d="M1104 51h2q-4 -28 -26 -46.5t-50 -18.5q-30 0 -47 18.5t-14 46.5l178 1262h-475l-205 -973q-34 -164 -108 -259t-187 -95q-33 0 -52 1.5t-41.5 6.5t-33 18t-10.5 33q0 37 22.5 57.5t51.5 20.5q12 0 25.5 -3t33.5 -3q61 0 99.5 50.5t62.5 156.5l223 1050q10 35 31 52.5
t43 17.5h608q28 0 44 -20t11 -48z" />
    <glyph glyph-name="uni041C" unicode="&#x41c;" horiz-adv-x="1413" 
d="M1479 1393l-191 -1348q-3 -26 -25 -44.5t-49 -18.5q-28 0 -47 18.5t-16 44.5l154 1085q0 -1 -478 -778q-24 -41 -69 -41q-46 0 -62 41l-258 778l-153 -1085q-3 -26 -26 -44.5t-54 -18.5q-26 0 -42 18.5t-13 44.5l190 1348q4 32 28 52.5t56 20.5q50 0 68 -47v2l296 -907
l549 909v-2q31 45 80 45q30 0 48 -21.5t14 -51.5z" />
    <glyph glyph-name="uni041D" unicode="&#x41d;" horiz-adv-x="1187" 
d="M1044 51q-4 -29 -26.5 -49t-50.5 -20q-27 0 -45.5 20.5t-14.5 48.5l84 608h-602l-84 -608q-5 -29 -27 -49t-51 -20q-28 0 -44.5 20t-12.5 49l188 1348q5 27 28 47t50 20q29 0 46 -20t12 -47l-86 -608h602l86 608q4 26 29 46.5t51 20.5t43.5 -20.5t13.5 -46.5z" />
    <glyph glyph-name="uni041E" unicode="&#x41e;" horiz-adv-x="1128" 
d="M565 -18q-150 0 -247 70t-132 185.5t-14 262.5l64 448q15 110 54 201t103 163.5t161.5 113t219.5 40.5q97 0 172 -26.5t121 -74t74 -113t32 -142t-6 -162.5l-63 -448q-21 -147 -88 -262.5t-184 -185.5t-267 -70zM756 1335q-331 0 -383 -387l-64 -448q-26 -177 43 -282
t232 -105t260 104.5t123 282.5l63 448q52 387 -274 387z" />
    <glyph glyph-name="uni041F" unicode="&#x41f;" horiz-adv-x="1185" 
d="M1044 51q-4 -29 -26.5 -49t-50.5 -20q-27 0 -45.5 20.5t-14.5 48.5l176 1262h-602l-176 -1262q-5 -29 -27 -49t-51 -20q-28 0 -44.5 20t-12.5 49l184 1323q5 28 28 49t50 21h739q27 0 44.5 -21.5t13.5 -48.5z" />
    <glyph glyph-name="uni0420" unicode="&#x420;" horiz-adv-x="1085" 
d="M633 547h-258l-70 -494q-5 -30 -27 -50.5t-51 -20.5q-27 0 -44 20.5t-13 50.5l182 1307q6 35 35 60.5t64 25.5h307q105 0 183.5 -30.5t123.5 -84.5t66.5 -120.5t21.5 -145.5q0 -244 -142 -381t-378 -137zM481 1315l-88 -637h258q182 0 274.5 95t92.5 282q0 53 -13.5 97
t-43.5 82t-86.5 59.5t-135.5 21.5h-258z" />
    <glyph glyph-name="uni0421" unicode="&#x421;" horiz-adv-x="985" 
d="M172 500l64 448q35 242 169 380t361 138q86 0 162.5 -21t123 -57t46.5 -77q0 -28 -19.5 -47t-48.5 -19q-16 0 -43 19l-18 12q-95 70 -211 70q-178 0 -267.5 -102t-117.5 -296l-64 -448q-14 -91 -5.5 -164t38 -124.5t90.5 -79.5t152 -28q122 0 225 66l25 14q34 21 49 21
q24 0 37.5 -14.5t13.5 -36.5q0 -45 -55 -84.5t-142 -62.5t-180 -23q-227 0 -322.5 137.5t-62.5 378.5z" />
    <glyph glyph-name="uni0422" unicode="&#x422;" horiz-adv-x="989" 
d="M436 49l178 1266h-299q-27 0 -44 16t-17 41q0 26 25 50t55 24h735q25 0 43 -17t18 -43q0 -29 -24 -50t-55 -21h-301l-179 -1266q-3 -28 -25 -47.5t-50 -19.5q-29 0 -46 19.5t-14 47.5z" />
    <glyph glyph-name="uni0423" unicode="&#x423;" horiz-adv-x="1030" 
d="M1169 1380l-467 -913q-46 -91 -70 -135t-65 -111.5t-74 -100t-79.5 -68.5t-99.5 -50.5t-117 -15.5q-26 0 -43 15t-17 40q0 27 20.5 48t51.5 22q104 4 168 52.5t133 170.5l-250 1046q0 2 -1 8.5t-1 8.5q0 30 22.5 49.5t55.5 19.5q42 0 51 -45l211 -915l455 917
q9 18 29 30.5t38 12.5q22 0 38 -16t16 -41q0 -6 -1 -13t-3 -12z" />
    <glyph glyph-name="uni0424" unicode="&#x424;" horiz-adv-x="1536" 
d="M715 49l41 289h-150q-189 0 -295 97.5t-106 277.5q0 79 17 152.5t57 142.5t99 119.5t150 81t203 30.5h150l22 160q4 26 29 46.5t51 20.5q29 0 45.5 -20t11.5 -47l-22 -160h151q106 0 185 -30.5t124.5 -84.5t67 -121t21.5 -147q0 -243 -143.5 -380.5t-379.5 -137.5h-151
l-41 -289q-4 -28 -27 -47.5t-51 -19.5t-45.5 20t-13.5 47zM1151 1106h-152l-88 -637h152q182 0 275.5 95t93.5 282q0 53 -13.5 97t-44 82t-87.5 59.5t-136 21.5zM625 469h149l88 637h-149q-94 0 -164 -26t-108.5 -64t-62 -92.5t-30 -100.5t-6.5 -98q0 -256 283 -256z" />
    <glyph glyph-name="uni0425" unicode="&#x425;" horiz-adv-x="989" 
d="M592 653l-436 -620q-31 -51 -72 -51q-23 0 -39 18t-16 43q0 29 16 45l479 666l-270 608l2 -2q-4 16 -4 33q0 28 22 50.5t50 22.5q19 0 36.5 -18.5t28.5 -46.5l229 -549l383 549h-2q45 65 88 65q22 0 36 -17t14 -42q0 -17 -15 -47l2 2l-436 -608l291 -666q4 -12 4 -27
q0 -31 -23 -55t-49 -24q-34 0 -61 51z" />
    <glyph glyph-name="uni0426" unicode="&#x426;" horiz-adv-x="1236" 
d="M229 2q-29 0 -46.5 20t-12.5 48l186 1327q3 28 26 48.5t52 20.5q28 0 45.5 -20.5t14.5 -48.5l-179 -1264h603l178 1264q3 28 26.5 48.5t51.5 20.5q27 0 43.5 -20.5t13.5 -48.5l-178 -1264h100q28 0 45 -20.5t12 -46.5l-45 -330q-5 -28 -27.5 -48t-50.5 -20
q-27 0 -44 20.5t-13 47.5l37 266h-838z" />
    <glyph glyph-name="uni0427" unicode="&#x427;" horiz-adv-x="1120" 
d="M934 739l92 654q5 30 28 51.5t52 21.5q27 0 43 -21.5t12 -51.5l-188 -1340q-4 -30 -26.5 -50.5t-49.5 -20.5q-29 0 -45.5 20.5t-13.5 50.5l77 553q-147 -59 -294 -59q-204 0 -299 115t-64 329l55 402q5 29 28.5 51t51.5 22q27 0 44.5 -21.5t13.5 -51.5l-56 -400
q-24 -167 39.5 -241t218.5 -74q159 0 281 61z" />
    <glyph glyph-name="uni0428" unicode="&#x428;" horiz-adv-x="1556" 
d="M1608 1397l-187 -1327q-4 -28 -28 -48t-50 -20h-1116q-28 0 -44.5 20t-12.5 48l186 1327q3 28 25.5 48.5t50.5 20.5q29 0 46 -20.5t14 -48.5l-179 -1264h420l178 1266q3 26 26.5 46.5t51.5 20.5q27 0 45 -20t15 -47l-179 -1266h422l178 1264q3 28 26.5 48.5t51.5 20.5
t45.5 -20.5t14.5 -48.5z" />
    <glyph glyph-name="uni0429" unicode="&#x429;" horiz-adv-x="1605" 
d="M1606 1397l-179 -1264h101q28 0 45 -20.5t12 -46.5l-45 -330q-5 -28 -27 -48t-51 -20q-27 0 -45 20.5t-14 47.5l37 266h-1213q-29 0 -46.5 20t-12.5 48l186 1327q3 28 26 48.5t52 20.5q28 0 45.5 -20.5t14.5 -48.5l-179 -1264h420l178 1266q3 27 26 47t52 20q27 0 44 -20
t14 -47l-179 -1266h424l178 1264q3 27 26 48t50 21q29 0 46 -20.5t14 -48.5z" />
    <glyph glyph-name="uni042A" unicode="&#x42a;" horiz-adv-x="1339" 
d="M420 86l174 1231h-301q-26 0 -43 16t-17 41q0 30 23 52t55 22h359q33 0 51.5 -24t13.5 -56l-63 -465h258q186 0 291.5 -97.5t105.5 -277.5q0 -80 -17.5 -153.5t-57.5 -142t-99 -119t-149 -81t-201 -30.5h-307q-36 0 -58 24.5t-18 59.5zM563 133h258q68 0 123.5 14
t93 36.5t65.5 55t44 65.5t25.5 73t12.5 72t3 67q0 256 -277 256h-258z" />
    <glyph glyph-name="uni042B" unicode="&#x42b;" horiz-adv-x="1484" 
d="M422 903h258q188 0 293.5 -97.5t105.5 -277.5q0 -80 -17.5 -153.5t-57.5 -142t-99 -119t-149.5 -81t-202.5 -30.5h-307q-35 0 -56.5 24.5t-17.5 59.5l184 1307q4 30 27.5 51.5t50.5 21.5q29 0 46 -21.5t12 -51.5zM403 772l-90 -639h258q68 0 124 14t93.5 36.5t66 55
t44.5 65.5t25.5 73t12.5 72t3 67q0 256 -278 256h-259zM1210 49l189 1350q5 27 28 47t50 20q29 0 45.5 -20t11.5 -47l-188 -1350q-5 -28 -27 -47.5t-51 -19.5q-28 0 -45 19.5t-13 47.5z" />
    <glyph glyph-name="uni042C" unicode="&#x42c;" horiz-adv-x="1095" 
d="M424 903h258q188 0 292.5 -97.5t104.5 -277.5q0 -80 -17 -153.5t-57 -142t-99 -119t-149 -81t-202 -30.5h-307q-35 0 -56.5 24.5t-17.5 59.5l184 1307q4 30 27.5 51.5t50.5 21.5q29 0 46 -21.5t12 -51.5zM406 772l-91 -639h258q91 0 160 25.5t108 64t62.5 92.5t31 101
t7.5 100q0 256 -278 256h-258z" />
    <glyph glyph-name="uni042D" unicode="&#x42d;" horiz-adv-x="1019" 
d="M1057 948l-62 -448q-35 -241 -168.5 -378.5t-359.5 -137.5q-134 0 -234 45.5t-100 109.5q0 26 21 46t49 20q12 0 47 -21q5 -2 10.5 -7.5t7.5 -6.5q84 -66 205 -66q177 0 267 101.5t118 294.5l21 159h-404q-24 0 -38.5 16.5t-14.5 41.5q0 31 22.5 53.5t51.5 22.5h403
l21 155q16 123 0.5 211.5t-83 137.5t-188.5 49q-115 0 -227 -70l-23 -12q-34 -19 -49 -19q-24 0 -39.5 14.5t-15.5 36.5q0 44 56 83.5t144 63t181 23.5q227 0 321.5 -138t59.5 -380z" />
    <glyph glyph-name="uni042E" unicode="&#x42e;" horiz-adv-x="1552" 
d="M1020 -18q-108 0 -188 38.5t-125 106.5t-61 157.5t-1 194.5l27 183h-283l-86 -611q-5 -29 -27 -49t-51 -20q-28 0 -45.5 20t-13.5 49l188 1348q5 26 28.5 46.5t51.5 20.5q29 0 46 -20t12 -47l-86 -608h282l27 178q14 105 51.5 193t99 157t154.5 108t209 39
q93 0 165 -25.5t115.5 -71t70.5 -108t30 -136.5t-6 -156l-70 -490q-20 -141 -84 -251.5t-175.5 -178t-254.5 -67.5zM1210 1335q-308 0 -360 -366l-70 -490q-24 -168 40.5 -267t217.5 -99q154 0 245.5 99t115.5 267l69 490q52 366 -258 366z" />
    <glyph glyph-name="uni042F" unicode="&#x42f;" horiz-adv-x="1148" 
d="M297 985q0 67 15.5 129.5t52.5 123t93 106t143.5 73t197.5 27.5h323q32 0 51.5 -25.5t14.5 -60.5l-182 -1305q-4 -30 -25.5 -50.5t-48.5 -20.5q-29 0 -47.5 21t-14.5 50l84 598h-223l-463 -637q-23 -30 -61 -30q-21 0 -44.5 17t-23.5 40q0 25 17 45l424 569
q-134 27 -208.5 112t-74.5 218zM434 1001q0 -109 68 -165t200 -56h271l74 533h-259q-87 0 -153.5 -21t-103.5 -52.5t-60 -75.5t-30 -82t-7 -81z" />
    <glyph glyph-name="uni0430" unicode="&#x430;" horiz-adv-x="987" 
d="M422 -14q-156 0 -224.5 103.5t-43.5 277.5l39 268q60 420 423 420q184 0 253 -102.5t40 -309.5l-63 -463q-12 -80 43 -80q5 0 10 1t6 1q19 0 29 -13.5t10 -33.5q0 -32 -26 -47.5t-60 -15.5q-46 0 -82 31t-57 86q-138 -123 -297 -123zM471 100q119 0 244 101l69 497
q17 124 -28.5 184t-155.5 60q-123 0 -186.5 -73.5t-87.5 -233.5l-39 -268q-38 -267 184 -267z" />
    <glyph glyph-name="uni0431" unicode="&#x431;" horiz-adv-x="952" 
d="M242 991q28 200 141.5 311t325.5 132q28 4 39 4q30 1 45.5 3.5t52 14.5t94.5 37q12 6 25 6q21 0 35 -15.5t14 -37.5q0 -25 -15.5 -45t-46 -33t-59.5 -22t-73 -15t-68 -8.5t-62 -5.5q-28 -2 -47 -4.5t-51 -11t-55 -21t-51 -36t-47.5 -55t-36.5 -79t-25 -106.5l-23 -158
q139 149 299 149q159 0 238.5 -101.5t58.5 -258.5l-41 -291q-23 -158 -136.5 -258t-293.5 -100q-179 0 -264.5 100t-62.5 258zM496 106q120 0 191 62.5t89 175.5l41 293q16 114 -33.5 177t-167.5 63q-119 0 -195 -61.5t-95 -168.5l-41 -303q-17 -112 37 -175t174 -63z" />
    <glyph glyph-name="uni0432" unicode="&#x432;" horiz-adv-x="958" 
d="M510 -14q-179 0 -269.5 101t-68.5 257l49 352q23 158 136 259.5t290 101.5q151 0 230 -72t79 -186q0 -100 -50.5 -164t-162.5 -105q166 -63 166 -213q0 -140 -105.5 -235.5t-293.5 -95.5zM532 106q248 0 248 216q0 151 -207 151h-249l-19 -129q-15 -112 43.5 -175
t183.5 -63zM354 698l-16 -118h256q229 0 229 202q0 164 -194 164q-117 0 -188.5 -67t-86.5 -181z" />
    <glyph glyph-name="uni0433" unicode="&#x433;" horiz-adv-x="831" 
d="M838 807q0 -68 -22 -121.5t-55.5 -86t-84.5 -60t-96 -43t-104.5 -37t-96.5 -39.5q-109 -52 -109 -176q0 -73 50 -109.5t139 -36.5q43 0 88 9t69 17t70 26q6 2 12 2q26 0 41 -16.5t15 -39.5q0 -32 -32.5 -55t-84 -34t-100 -16t-95.5 -5q-148 0 -224.5 64.5t-76.5 182.5
q0 69 20.5 122.5t50 86t78 61t89.5 44t100.5 37.5t95.5 39q80 37 107 75.5t27 104.5q0 139 -181 139q-54 0 -90.5 -10t-83.5 -31q-20 -8 -32 -8q-23 0 -37.5 14.5t-14.5 36.5q0 30 28 52.5t72.5 34.5t89.5 18t89 6q141 0 215 -66.5t74 -181.5z" />
    <glyph glyph-name="uni0434" unicode="&#x434;" horiz-adv-x="1024" 
d="M561 1411q6 31 29 43t82 12q426 0 391 -563q-13 -212 -43 -368t-74.5 -262t-110 -170.5t-144 -92t-181.5 -28.5q-171 -1 -264.5 112t-93.5 303q0 110 32 213.5t89 184.5t143.5 130.5t187.5 49.5q75 0 163 -27.5t157 -89.5q26 194 -13 305q-16 47 -44.5 82t-56.5 54
t-70 32.5t-68.5 17.5t-69.5 9q-28 3 -37.5 13t-3.5 40zM897 580l12 145q-44 56 -134.5 92.5t-168.5 36.5q-141 0 -230 -125.5t-89 -316.5q0 -306 260 -306q154 0 235 112t115 362z" />
    <glyph glyph-name="uni0435" unicode="&#x435;" horiz-adv-x="886" 
d="M498 98q44 0 87.5 9.5t68 19t77.5 31.5q12 6 23 6q23 0 37 -15t14 -36q0 -34 -37 -60t-93.5 -40t-111.5 -20.5t-102 -6.5q-167 0 -251 94t-63 239l56 394q21 151 132.5 246.5t287.5 95.5q145 0 217.5 -72t72.5 -201q0 -167 -93.5 -259.5t-291.5 -92.5q-117 0 -229 23
l-20 -146q-12 -96 43.5 -152.5t175.5 -56.5zM782 768q0 170 -182 170q-109 0 -178.5 -56.5t-83.5 -152.5l-25 -174q115 -16 238 -16q231 0 231 229z" />
    <glyph glyph-name="uni0436" unicode="&#x436;" horiz-adv-x="1245" 
d="M707 51q-4 -27 -26.5 -46t-49.5 -19q-29 0 -45.5 18.5t-12.5 46.5l62 432h-103l-352 -467q-30 -30 -61 -30q-25 0 -40.5 13t-15.5 36q0 17 17 43l330 436l-211 447q-5 7 0 30q4 26 23 41t46 15q37 0 51 -33l201 -422h129l56 389q3 28 24.5 48t50.5 20q26 0 43.5 -20
t14.5 -48l-56 -389h127l322 422q23 33 59 33q28 0 43.5 -15t12.5 -41h-3q-4 -28 -12 -39l-330 -438l207 -436q6 -13 2 -39h2q-4 -25 -23.5 -39t-47.5 -14q-36 0 -49 30l-222 467h-102z" />
    <glyph glyph-name="uni0437" unicode="&#x437;" horiz-adv-x="835" 
d="M834 809q0 -240 -228 -279v-2q182 -33 182 -213q0 -152 -100 -240.5t-289 -88.5q-44 0 -91 4.5t-95.5 15t-79.5 31.5t-31 49q0 24 20 45t58 21q2 0 4.5 -1t3.5 -1q106 -52 234 -52q237 0 237 211q0 21 -5 39.5t-20.5 39.5t-40.5 37t-69.5 28.5t-103.5 15.5q-24 1 -38.5 4
t-28 14t-13.5 31q0 16 6 27.5t13 17t22 9.5t23.5 5t27.5 3q79 7 135.5 30t85.5 56t41.5 67t12.5 72q0 137 -187 137q-58 0 -130.5 -24.5t-92.5 -24.5q-24 0 -37.5 14.5t-13.5 36.5q0 30 30 52.5t76.5 34.5t94.5 18t94 6q145 0 219 -66.5t74 -179.5z" />
    <glyph glyph-name="uni0438" unicode="&#x438;" horiz-adv-x="1042" 
d="M784 246l105 737q5 29 24.5 47.5t51.5 18.5q31 0 46.5 -18.5t10.5 -47.5l-104 -737q-15 -107 4 -133q22 -26 22 -54q0 -25 -21 -43t-49 -18q-44 0 -77 68q-149 -80 -316 -80q-156 0 -223.5 103t-42.5 278l86 616q5 29 25 47.5t51 18.5t45.5 -18.5t11.5 -47.5l-86 -616
q-19 -127 25.5 -197t146.5 -70q126 0 260 78q0 41 4 68z" />
    <glyph glyph-name="uni0439" unicode="&#x439;" horiz-adv-x="1042" 
d="M705 1294q84 0 161 92q23 29 56 29q22 0 30.5 -13.5t-2.5 -45.5q-30 -72 -107 -115t-151 -43q-47 0 -95 17t-85.5 54.5t-40.5 86.5q-1 26 16.5 42.5t36.5 16.5q30 0 45 -29q54 -92 136 -92zM784 246l105 737q5 29 24.5 47.5t51.5 18.5q31 0 46.5 -18.5t10.5 -47.5
l-104 -737q-15 -107 4 -133q22 -26 22 -54q0 -25 -21 -43t-49 -18q-44 0 -77 68q-149 -80 -316 -80q-156 0 -223.5 103t-42.5 278l86 616q5 29 25 47.5t51 18.5t45.5 -18.5t11.5 -47.5l-86 -616q-19 -127 25.5 -197t146.5 -70q126 0 260 78q0 41 4 68z" />
    <glyph glyph-name="uni043A" unicode="&#x43a;" horiz-adv-x="892" 
d="M303 51q-4 -27 -26.5 -46t-49.5 -19q-29 0 -45.5 18.5t-11.5 46.5l129 930q5 28 27 48t51 20q26 0 42.5 -20t12.5 -48l-53 -389h153l338 422q26 33 60 33q23 0 38 -13t15 -35q0 -28 -16 -47l-357 -438l234 -436q8 -12 8 -35q0 -25 -21.5 -41t-50.5 -16q-36 0 -51 30
l-242 467h-125z" />
    <glyph glyph-name="uni043B" unicode="&#x43b;" horiz-adv-x="1073" 
d="M934 51q-3 -28 -24.5 -46.5t-49.5 -18.5q-29 0 -45.5 18.5t-13.5 46.5l125 877h-363l-133 -596q-75 -340 -287 -340q-34 0 -53 2t-36 13.5t-17 33.5q0 35 22 54.5t52 19.5h12q1 0 5 -1t9 -1q62 0 101 49t63 153l145 652q10 35 32 52t44 17h486q28 0 44 -19.5t11 -47.5z
" />
    <glyph glyph-name="uni043C" unicode="&#x43c;" horiz-adv-x="1310" 
d="M690 178h-4q-43 0 -59 41l-230 549l-100 -717q-4 -28 -26 -46.5t-50 -18.5q-26 0 -41.5 18.5t-11.5 46.5l129 924q5 32 28.5 53t55.5 21q38 0 63 -48l267 -659l454 659q36 48 76 48q31 0 48.5 -21t13.5 -53l-129 -924q-4 -28 -26 -46.5t-48 -18.5q-28 0 -45 19t-13 46
l101 717l-381 -549q-30 -41 -72 -41z" />
    <glyph glyph-name="uni043D" unicode="&#x43d;" horiz-adv-x="1052" 
d="M301 51q-4 -28 -26 -46.5t-50 -18.5t-44.5 18.5t-12.5 46.5l129 930q5 28 27.5 48t50.5 20t44 -20t11 -48l-53 -389h479l53 389q5 28 27.5 48t50.5 20t44 -20t11 -48l-129 -930q-5 -28 -26 -46.5t-49 -18.5t-45 19t-13 46l60 432h-480z" />
    <glyph glyph-name="uni043E" unicode="&#x43e;" horiz-adv-x="952" 
d="M479 -14q-179 0 -264.5 100t-62.5 258l49 352q23 158 137 259.5t293 101.5q180 0 265 -101.5t62 -259.5l-49 -352q-23 -158 -136.5 -258t-293.5 -100zM498 106q121 0 192 63t86 175l49 354q15 113 -38 176.5t-173 63.5t-192.5 -64t-87.5 -176l-49 -354q-15 -112 39 -175
t174 -63z" />
    <glyph glyph-name="uni043F" unicode="&#x43f;" horiz-adv-x="1032" 
d="M301 51q-4 -28 -26 -46.5t-48 -18.5q-29 0 -45.5 18.5t-11.5 46.5l127 918q5 28 27 47.5t51 19.5h590q28 0 44 -19.5t11 -47.5l-127 -918q-4 -28 -26 -46.5t-50 -18.5t-44.5 18.5t-12.5 46.5l123 877h-459z" />
    <glyph glyph-name="uni0440" unicode="&#x440;" horiz-adv-x="978" 
d="M551 -12q-113 0 -244 43l-57 -408q-3 -27 -23.5 -45t-50.5 -18q-32 0 -47 17.5t-12 45.5l162 1141q14 101 -17 156q-8 16 -8 28q0 27 22 46.5t48 19.5q37 0 69 -58q200 99 328 99q154 0 220.5 -104t41.5 -279l-37 -275q-14 -95 -41 -167t-73 -128t-116.5 -85t-164.5 -29z
M412 764l-88 -617q49 -23 112.5 -36t110.5 -13q121 0 181.5 70.5t84.5 228.5l37 275q39 268 -180 268q-109 0 -256 -82q3 -51 -2 -94z" />
    <glyph glyph-name="uni0441" unicode="&#x441;" horiz-adv-x="798" 
d="M152 356l45 320q25 167 130 270t287 103q37 0 78.5 -5t84 -16.5t70 -33.5t27.5 -52q0 -25 -18.5 -43t-44.5 -18q-13 0 -29 4h2q-31 17 -50 26t-51.5 17t-68.5 8q-129 0 -196.5 -66t-87.5 -194l-45 -320q-37 -258 213 -258q37 0 72.5 8t54.5 16t55 25h-2q24 7 31 7
q21 0 35 -15t14 -37q0 -32 -31.5 -56t-80 -36t-94.5 -18t-87 -6q-182 0 -259 102t-54 268z" />
    <glyph glyph-name="uni0442" unicode="&#x442;" horiz-adv-x="1593" 
d="M391 954q170 101 326 101q154 0 227 -115q163 115 324 115q160 0 234 -93.5t52 -250.5l-73 -527q-11 -65 18 -110q4 -8 4 -25q0 -27 -19 -45t-48 -18q-116 0 -88 198l73 523q13 101 -31 165t-145 64q-70 0 -141.5 -34.5t-122.5 -88.5q2 -39 -4 -102l-92 -660
q-10 -63 -76 -63q-33 0 -47.5 17t-9.5 46l86 613q10 81 6.5 141.5t-42.5 95.5t-118 35q-66 0 -139.5 -27t-132.5 -67q0 -47 -4 -74l-101 -717q-5 -29 -25 -46t-51 -17q-33 0 -47.5 17t-9.5 46l100 717q14 102 -16 156q-6 12 -6 28q0 27 20.5 46.5t46.5 19.5q49 0 72 -64z
" />
    <glyph glyph-name="uni0443" unicode="&#x443;" horiz-adv-x="1042" 
d="M190 354l91 629q3 29 23.5 47.5t51.5 18.5t46 -18.5t12 -47.5l-90 -629q-37 -256 188 -256q150 0 266 107l109 778q5 29 25.5 47.5t52.5 18.5q31 0 45.5 -18.5t9.5 -47.5l-152 -1081q-23 -166 -127.5 -269.5t-283.5 -103.5q-39 0 -81.5 5.5t-85 16.5t-70 33t-27.5 51
q0 24 19.5 44t43.5 20q13 0 31 -6h-2q82 -49 170 -49q128 0 195 65.5t85 192.5l25 174q-150 -88 -297 -88q-324 0 -273 366z" />
    <glyph glyph-name="uni0444" unicode="&#x444;" horiz-adv-x="1198" 
d="M483 -387l52 373q-208 0 -304 129.5t-67 335.5l22 159q29 198 160.5 321.5t339.5 123.5l53 379q3 26 25.5 46.5t50.5 20.5q27 0 43.5 -19.5t13.5 -47.5l-53 -379q143 0 236 -59t127.5 -158t15.5 -228l-22 -159q-29 -206 -161.5 -335.5t-342.5 -129.5l-56 -373
q-5 -27 -26.5 -46.5t-48.5 -19.5q-28 0 -45.5 20t-12.5 46zM823 936h-22l-115 -830q152 0 243 91t113 254l23 161q22 152 -40 238t-202 86zM553 106l115 830q-149 0 -238 -85.5t-111 -238.5l-22 -161q-22 -163 42.5 -254t213.5 -91z" />
    <glyph glyph-name="uni0445" unicode="&#x445;" horiz-adv-x="882" 
d="M451 530l-224 424q-4 4 -4 19q0 32 24 54t50 22q23 0 35 -11.5t24 -36.5l185 -364l286 364q14 18 22 26t21 15t29 7q21 0 38 -17t17 -41q0 -29 -14 -37l-342 -424l240 -448q4 -8 4 -23q0 -29 -23 -51t-55 -22q-24 0 -36.5 10.5t-25.5 36.5l-196 387l-320 -402
q-25 -32 -57 -32q-28 0 -44.5 15.5t-16.5 41.5q0 20 12 35z" />
    <glyph glyph-name="uni0446" unicode="&#x446;" horiz-adv-x="1087" 
d="M520 100q125 0 273 84q-9 50 2 142l92 657q5 29 25 47.5t51 18.5q32 0 46 -18t11 -48l-92 -657q-15 -111 9 -168.5t85 -57.5q28 0 44.5 -19t12.5 -48l-39 -269q-3 -28 -24 -46.5t-49 -18.5t-45.5 18.5t-14.5 46.5l35 244q-57 11 -117 78q-76 -49 -168 -74.5t-176 -25.5
q-157 0 -224.5 103t-41.5 278l86 616q5 29 24.5 47.5t51.5 18.5q30 0 45 -18.5t12 -47.5l-86 -616q-19 -127 25.5 -197t146.5 -70z" />
    <glyph glyph-name="uni0447" unicode="&#x447;" horiz-adv-x="958" 
d="M373 981l-41 -297q-8 -35 -3 -69t20 -60.5t55.5 -42.5t103.5 -16q96 0 240 32l63 453q5 28 27.5 48t50.5 20t44 -20t11 -48l-131 -930q-3 -28 -24.5 -46.5t-49.5 -18.5t-45 18.5t-14 46.5l53 369q-133 -31 -235 -31q-175 0 -247.5 76.5t-51.5 218.5l41 297q5 28 27 48
t50 20t44.5 -20t11.5 -48z" />
    <glyph glyph-name="uni0448" unicode="&#x448;" horiz-adv-x="1581" 
d="M426 983l-92 -657q-14 -100 32 -164t146 -64q69 0 140.5 33.5t123.5 85.5q-4 36 4 105l92 661q5 29 25.5 47.5t52.5 18.5q30 0 45.5 -19t10.5 -47l-86 -614q-10 -80 -7 -140.5t42.5 -95.5t117.5 -35q131 0 266 88l111 797q5 29 25.5 47.5t52.5 18.5q31 0 45.5 -18.5
t9.5 -47.5l-106 -758q-6 -45 4.5 -73.5t38.5 -63.5q4 -4 4 -18q0 -31 -20.5 -50.5t-45.5 -19.5q-63 0 -96 72q-168 -92 -322 -92q-84 0 -137 26.5t-86 81.5q-168 -108 -328 -108t-235 93.5t-53 248.5l92 661q5 29 26 47.5t52 18.5t45.5 -18.5t9.5 -47.5z" />
    <glyph glyph-name="uni0449" unicode="&#x449;" horiz-adv-x="1648" 
d="M426 983l-92 -657q-14 -100 32 -164t146 -64q70 0 143.5 30t120.5 75q-6 65 2 119l92 661q5 29 25.5 47.5t52.5 18.5q31 0 46 -18.5t10 -47.5l-86 -614q-10 -80 -7 -140.5t43 -95.5t119 -35q71 0 147 27t134 68q-6 61 4 133l92 657q5 29 25.5 47.5t52.5 18.5
q31 0 44.5 -18.5t8.5 -47.5l-92 -657q-15 -110 9.5 -168t86.5 -58q28 0 43.5 -19t11.5 -48l-36 -269q-4 -28 -26 -46.5t-50 -18.5t-45 19t-13 46l33 244q-64 14 -117 80q-168 -108 -346 -108q-84 0 -137 26.5t-88 81.5q-165 -108 -326 -108q-160 0 -235 93.5t-53 248.5
l92 661q5 29 25.5 47.5t52.5 18.5q30 0 45 -18.5t10 -47.5z" />
    <glyph glyph-name="uni044A" unicode="&#x44a;" horiz-adv-x="1081" 
d="M649 -14q-177 0 -257.5 99.5t-57.5 258.5l80 576h-197q-22 0 -36.5 14.5t-14.5 36.5q0 27 20.5 46t46.5 19h265q27 0 43.5 -19.5t13.5 -47.5l-55 -391q122 75 243 75q170 0 255 -96.5t63 -243.5q-22 -143 -133 -235t-279 -92zM713 535q-250 0 -250 -234q0 -93 51.5 -144
t153.5 -51q121 0 191.5 68t70.5 182q0 85 -54 132t-163 47z" />
    <glyph glyph-name="uni044B" unicode="&#x44b;" horiz-adv-x="1339" 
d="M1204 51q-4 -28 -26 -46.5t-50 -18.5t-43.5 18.5t-11.5 46.5l131 930q3 28 24.5 48t49.5 20q27 0 43.5 -20t13.5 -48zM432 981l-57 -403q122 75 243 75q170 0 255 -96.5t63 -243.5q-22 -143 -133 -235t-279 -92q-177 0 -257.5 99.5t-57.5 258.5l90 637q3 28 25.5 48
t50.5 20q27 0 43.5 -20t13.5 -48zM590 535q-120 0 -186 -57t-66 -175q0 -94 52 -145.5t153 -51.5q121 0 191.5 68t70.5 182q0 84 -54 131.5t-161 47.5z" />
    <glyph glyph-name="uni044C" unicode="&#x44c;" horiz-adv-x="966" 
d="M432 981l-57 -403q122 75 243 75q170 0 255 -96.5t63 -243.5q-22 -143 -133 -235t-279 -92q-177 0 -257.5 99.5t-57.5 258.5l90 637q3 28 25.5 48t50.5 20q27 0 43.5 -20t13.5 -48zM590 535q-120 0 -186 -57t-66 -175q0 -94 52 -145.5t153 -51.5q121 0 191.5 68t70.5 182
q0 84 -54 131.5t-161 47.5z" />
    <glyph glyph-name="uni044D" unicode="&#x44d;" horiz-adv-x="804" 
d="M643 465h-338q-24 0 -39.5 14.5t-15.5 36.5q0 26 20.5 45t48.5 19h338l11 73q43 283 -185 283q-39 0 -80.5 -9t-60.5 -16t-66 -26h3q-16 -4 -29 -4q-21 0 -35 14t-14 35q0 32 34 57t86 37.5t102 18.5t95 6q169 0 238 -109.5t43 -286.5l-37 -276q-26 -176 -125 -283.5
t-268 -107.5q-42 0 -87.5 5t-92.5 16t-77 32.5t-30 50.5q0 25 20 44.5t45 19.5q8 0 29 -7h-2q36 -17 55.5 -25t57 -16t78.5 -8q226 0 266 279z" />
    <glyph glyph-name="uni044E" unicode="&#x44e;" horiz-adv-x="1394" 
d="M299 51q-4 -27 -26.5 -46t-49.5 -19q-29 0 -45.5 18.5t-11.5 46.5l129 930q5 28 27 48t51 20q26 0 42.5 -20t12.5 -48l-53 -389h264l14 102q23 158 136 259.5t292 101.5q180 0 266.5 -101.5t63.5 -259.5l-49 -350q-23 -158 -136.5 -258t-293.5 -100q-179 0 -265 100
t-63 258l19 139h-265zM948 106q121 0 193.5 63t87.5 175l49 352q15 113 -38.5 176.5t-174.5 63.5q-119 0 -191.5 -64t-87.5 -176l-49 -352q-15 -112 38.5 -175t172.5 -63z" />
    <glyph glyph-name="uni044F" unicode="&#x44f;" horiz-adv-x="997" 
d="M780 -14q-29 0 -45.5 18.5t-11.5 46.5l53 385h-207q-238 -304 -336 -420q-27 -30 -59 -30q-25 0 -40 13t-15 36q0 7 5 22t11 21l297 364q-211 47 -211 250q0 155 100 249.5t283 94.5h326q26 0 42 -19.5t13 -47.5l-129 -918q-4 -27 -26.5 -46t-49.5 -19zM352 702
q0 -157 211 -157h230l53 381h-254q-117 0 -178.5 -56.5t-61.5 -167.5z" />
    <glyph glyph-name="uni0450" unicode="&#x450;" horiz-adv-x="886" 
d="M498 98q44 0 87.5 9.5t68 19t77.5 31.5q12 6 23 6q23 0 37 -15t14 -36q0 -34 -37 -60t-93.5 -40t-111.5 -20.5t-102 -6.5q-167 0 -251 94t-63 239l56 394q21 151 132.5 246.5t287.5 95.5q145 0 217.5 -72t72.5 -201q0 -167 -93.5 -259.5t-291.5 -92.5q-117 0 -229 23
l-20 -146q-12 -96 43.5 -152.5t175.5 -56.5zM782 768q0 170 -182 170q-109 0 -178.5 -56.5t-83.5 -152.5l-25 -174q115 -16 238 -16q231 0 231 229zM565 1466l150 -186q6 -6 6 -16q0 -24 -20 -43t-42 -19q-27 0 -53 33l-139 180q-6 9 -6 21q0 22 18.5 40.5t38.5 18.5
q7 0 12 -1t10 -5t7.5 -5.5t9 -8.5t8.5 -9z" />
    <glyph glyph-name="uni0451" unicode="&#x451;" horiz-adv-x="886" 
d="M498 98q44 0 87.5 9.5t68 19t77.5 31.5q12 6 23 6q23 0 37 -15t14 -36q0 -34 -37 -60t-93.5 -40t-111.5 -20.5t-102 -6.5q-167 0 -251 94t-63 239l56 394q21 151 132.5 246.5t287.5 95.5q145 0 217.5 -72t72.5 -201q0 -167 -93.5 -259.5t-291.5 -92.5q-117 0 -229 23
l-20 -146q-12 -96 43.5 -152.5t175.5 -56.5zM782 768q0 170 -182 170q-109 0 -178.5 -56.5t-83.5 -152.5l-25 -174q115 -16 238 -16q231 0 231 229zM936 1333q0 -39 -28.5 -67.5t-65.5 -28.5q-31 0 -53.5 22.5t-22.5 53.5q0 36 31.5 65t68.5 29q30 0 50 -22t20 -52z
M582 1333q0 -39 -29 -67.5t-68 -28.5q-30 0 -50.5 22.5t-20.5 53.5q0 35 29.5 64.5t66.5 29.5q31 0 51.5 -22t20.5 -52z" />
    <glyph glyph-name="uni0452" unicode="&#x452;" horiz-adv-x="1191" 
d="M915 29l82 583q18 130 -20.5 194t-142.5 64q-70 0 -145 -34.5t-134 -100.5l-96 -684q-3 -27 -24 -46t-48 -19q-29 0 -45.5 18.5t-13.5 46.5l161 1153h-198q-25 0 -40 15t-15 38q0 28 21.5 49t51.5 21h199l16 119q3 26 24.5 46.5t49.5 20.5q27 0 43.5 -19t13.5 -48
l-16 -119h195q23 0 37 -15.5t14 -39.5q0 -28 -20.5 -48t-49.5 -20h-194l-46 -319q150 106 297 106q155 0 218.5 -102t39.5 -275l-81 -575q-28 -195 -120.5 -317.5t-228.5 -147.5q-2 -3 -19.5 -1.5t-18.5 1.5q-19 0 -33 11.5t-15 29.5q-3 32 18.5 50t49.5 24q97 29 154 107.5
t79 232.5z" />
    <glyph glyph-name="uni0453" unicode="&#x453;" horiz-adv-x="831" 
d="M838 807q0 115 -74 181.5t-215 66.5q-44 0 -89 -6t-89.5 -18t-72.5 -34.5t-28 -52.5q0 -22 14.5 -36.5t37.5 -14.5q12 0 32 8q31 14 51 21.5t52.5 13.5t70.5 6q181 0 181 -139q0 -66 -27 -104.5t-107 -75.5q-36 -17 -95.5 -39t-100.5 -37.5t-89.5 -44t-78 -61t-50 -86
t-20.5 -122.5q0 -118 76.5 -182.5t224.5 -64.5q47 0 95.5 5t100 16t84 34t32.5 55q0 23 -15 39.5t-41 16.5q-6 0 -12 -2q-46 -18 -70 -26t-69 -17t-88 -9q-89 0 -139 36.5t-50 109.5q0 124 109 176q37 18 96.5 39.5t104.5 37t96 43t84.5 60t55.5 86t22 121.5zM551 1280
l203 186q34 29 51 29q20 0 32.5 -14.5t12.5 -34.5q0 -21 -10 -31l-193 -178q-1 -1 -7 -6.5t-7.5 -6.5t-6.5 -5t-6.5 -5l-6 -4t-7 -3.5t-6 -2t-7 -2t-7.5 -0.5q-20 0 -33.5 14.5t-13.5 36.5q0 15 12 27z" />
    <glyph glyph-name="uni0454" unicode="&#x454;" horiz-adv-x="798" 
d="M641 465h-340l-12 -88q-40 -279 188 -279q41 0 80.5 8t63 16.5t59.5 24.5h-2q28 7 33 7q21 0 34 -15t13 -37q0 -32 -34 -56t-86 -36t-102 -18t-94 -6q-115 0 -186 52.5t-93.5 138.5t-6.5 200l39 276q25 177 125.5 286.5t271.5 109.5q42 0 87 -5t91.5 -16.5t76.5 -33.5
t30 -52q0 -24 -19.5 -42.5t-44.5 -18.5q-11 0 -31 4h2q-39 18 -56.5 25.5t-55 16.5t-76.5 9q-119 0 -184 -72.5t-84 -210.5l-11 -73h340q24 0 38 -14t14 -36q0 -28 -19.5 -46.5t-48.5 -18.5z" />
    <glyph glyph-name="uni0455" unicode="&#x455;" horiz-adv-x="851" 
d="M225 729q0 146 97.5 236t271.5 90q42 0 83 -5t80.5 -15.5t64 -30.5t24.5 -46t-20.5 -45.5t-49.5 -19.5q-8 0 -28 8q-28 14 -45 21.5t-48 13.5t-69 6q-230 0 -230 -190q0 -42 21 -72.5t69 -56.5q31 -17 87 -40t93.5 -41.5t77 -48t60 -73.5t20.5 -103q0 -154 -99.5 -242.5
t-283.5 -88.5q-43 0 -87.5 4.5t-90.5 15t-75 30.5t-29 48q0 26 20.5 47t50.5 21q7 0 13 -2q119 -52 215 -52q109 0 172 49.5t63 149.5q0 88 -65 123q-29 16 -74.5 34.5t-82 32.5t-76.5 37t-67 48.5t-45 65.5t-18 91z" />
    <glyph glyph-name="uni0456" unicode="&#x456;" horiz-adv-x="501" 
d="M537 1405q0 -38 -30.5 -66t-68.5 -28q-33 0 -53 21.5t-20 51.5q0 40 29 68.5t69 28.5q31 0 52.5 -22t21.5 -54zM213 184l113 797q3 28 24.5 48t50.5 20q26 0 43.5 -20t14.5 -48l-113 -797q-8 -61 19 -110q6 -12 6 -25q0 -26 -20.5 -44.5t-49.5 -18.5q-116 0 -88 198z" />
    <glyph glyph-name="uni0457" unicode="&#x457;" horiz-adv-x="501" 
d="M326 51q-3 -27 -25 -46t-49 -19q-29 0 -45.5 18.5t-13.5 46.5l131 930q5 28 26.5 48t50.5 20q27 0 43.5 -20.5t12.5 -47.5zM729 1303q0 -44 -33 -76.5t-75 -32.5q-37 0 -61.5 25.5t-24.5 62.5q0 40 34.5 72t77.5 32q35 0 58.5 -24t23.5 -59zM332 1303q0 -44 -33 -76.5
t-76 -32.5q-36 0 -59 25t-23 61q0 41 33 73.5t76 32.5q36 0 59 -23.5t23 -59.5z" />
    <glyph glyph-name="uni0458" unicode="&#x458;" horiz-adv-x="501" 
d="M487 981l-145 -1028q-22 -154 -113 -255.5t-225 -123.5h-37q-19 0 -33.5 11.5t-15.5 29.5q-3 32 16.5 49t45.5 23q100 21 155 80.5t72 177.5l147 1036q3 28 25 48t51 20q26 0 43 -20t14 -48zM563 1405q0 -38 -29.5 -66t-66.5 -28q-33 0 -54.5 22t-21.5 53q0 38 30.5 66.5
t70.5 28.5q31 0 51 -22t20 -54z" />
    <glyph glyph-name="uni0459" unicode="&#x459;" horiz-adv-x="1509" 
d="M973 1036q26 0 42.5 -19.5t12.5 -47.5l-51 -367h188q326 0 326 -254q0 -157 -99 -251.5t-282 -94.5h-283q-29 0 -45.5 19t-11.5 47l121 860h-322l-133 -596q-75 -340 -286 -340q-25 0 -40 1t-32.5 5.5t-26 15t-8.5 27.5q0 34 22.5 54t51.5 20h12q1 0 5 -1t9 -1
q63 0 101.5 48.5t62.5 153.5l146 652q10 35 31.5 52t43.5 17h445zM1151 494h-188l-54 -381h213q236 0 236 221q0 160 -207 160z" />
    <glyph glyph-name="uni045A" unicode="&#x45a;" horiz-adv-x="1478" 
d="M299 51q-4 -27 -26.5 -46t-49.5 -19q-29 0 -45.5 18.5t-11.5 46.5l129 930q5 28 27 48t51 20q26 0 42.5 -20t12.5 -48l-53 -389h436l53 389q5 28 27 48t51 20q26 0 42.5 -20t12.5 -48l-53 -389h191q321 0 321 -248q0 -154 -98.5 -248t-280.5 -94h-282q-29 0 -46 19
t-12 47l58 415h-437zM1118 483h-190l-51 -370h213q235 0 235 219q0 151 -207 151z" />
    <glyph glyph-name="uni045B" unicode="&#x45b;" horiz-adv-x="1191" 
d="M885 1272q0 -28 -20.5 -48t-49.5 -20h-194l-46 -319q150 106 297 106q155 0 220.5 -90.5t44.5 -243.5l-86 -606q-3 -28 -24.5 -46.5t-49.5 -18.5t-45 18.5t-14 46.5l83 602q15 110 -24 163.5t-143 53.5q-70 0 -145 -34.5t-134 -100.5l-96 -684q-3 -27 -24 -46t-48 -19
q-29 0 -45.5 18.5t-13.5 46.5l161 1153h-198q-25 0 -40 15t-15 38q0 28 21.5 49t51.5 21h199l16 119q3 26 24.5 46.5t49.5 20.5q27 0 43.5 -19t13.5 -48l-16 -119h195q23 0 37 -15.5t14 -39.5z" />
    <glyph glyph-name="uni045C" unicode="&#x45c;" horiz-adv-x="892" 
d="M303 51q-4 -27 -26.5 -46t-49.5 -19q-29 0 -45.5 18.5t-11.5 46.5l129 930q5 28 27 48t51 20q26 0 42.5 -20t12.5 -48l-53 -389h153l338 422q26 33 60 33q23 0 38 -13t15 -35q0 -28 -16 -47l-357 -438l234 -436q8 -12 8 -35q0 -25 -21.5 -41t-50.5 -16q-36 0 -51 30
l-242 467h-125zM631 1280l203 186q34 29 51 29q20 0 32.5 -14.5t12.5 -34.5q0 -21 -10 -31l-193 -178q-1 -1 -7 -6.5t-7.5 -6.5t-6.5 -5t-6.5 -5l-6 -4t-7 -3.5t-6 -2t-7 -2t-7.5 -0.5q-20 0 -34 14.5t-14 36.5q0 14 13 27z" />
    <glyph glyph-name="uni045D" unicode="&#x45d;" horiz-adv-x="1042" 
d="M625 1466l149 -186q6 -6 6 -16q0 -24 -19.5 -43t-41.5 -19q-27 0 -53 33l-140 180q-6 9 -6 21q0 22 19 40.5t39 18.5q7 0 12 -1t10 -5t7.5 -5.5t9 -8.5t8.5 -9zM784 246l105 737q5 29 24.5 47.5t51.5 18.5q31 0 46.5 -18.5t10.5 -47.5l-104 -737q-15 -107 4 -133
q22 -26 22 -54q0 -25 -21 -43t-49 -18q-44 0 -77 68q-149 -80 -316 -80q-156 0 -223.5 103t-42.5 278l86 616q5 29 25 47.5t51 18.5t45.5 -18.5t11.5 -47.5l-86 -616q-19 -127 25.5 -197t146.5 -70q126 0 260 78q0 41 4 68z" />
    <glyph glyph-name="uni045E" unicode="&#x45e;" horiz-adv-x="1042" 
d="M190 354l91 629q3 29 23.5 47.5t51.5 18.5t46 -18.5t12 -47.5l-90 -629q-37 -256 188 -256q150 0 266 107l109 778q5 29 25.5 47.5t52.5 18.5q31 0 45.5 -18.5t9.5 -47.5l-152 -1081q-23 -166 -127.5 -269.5t-283.5 -103.5q-39 0 -81.5 5.5t-85 16.5t-70 33t-27.5 51
q0 24 19.5 44t43.5 20q13 0 31 -6h-2q82 -49 170 -49q128 0 195 65.5t85 192.5l25 174q-150 -88 -297 -88q-324 0 -273 366zM704 1294q85 0 162 92q23 29 55 29q23 0 31.5 -13.5t-2.5 -45.5q-30 -72 -107 -115t-151 -43q-47 0 -95 17t-85.5 54.5t-40.5 86.5q-1 26 16.5 42.5
t36.5 16.5q31 0 45 -29q54 -92 135 -92z" />
    <glyph glyph-name="uni045F" unicode="&#x45f;" horiz-adv-x="1032" 
d="M557 -227q-3 -27 -25 -46.5t-49 -19.5q-29 0 -45.5 19t-13.5 47l33 229h-228q-29 0 -45.5 19t-11.5 47l127 917q5 29 27 48.5t51 19.5q26 0 41.5 -19.5t11.5 -48.5l-123 -874h459l123 874q4 29 27 48.5t51 19.5t43.5 -19.5t11.5 -48.5l-127 -917q-5 -28 -26.5 -47
t-49.5 -19h-229z" />
    <glyph glyph-name="uni0462" unicode="&#x462;" horiz-adv-x="1318" 
d="M1114 1284q0 -29 -24 -50.5t-54 -21.5h-385l-49 -350h256q188 0 295 -95t107 -267q0 -75 -17 -144.5t-56.5 -135t-98.5 -113t-149 -76.5t-202 -29h-307q-35 0 -57.5 24.5t-16.5 59.5l158 1126h-215q-27 0 -44 16.5t-17 39.5q0 28 25 51.5t54 23.5h215l23 160
q3 26 27.5 47t52.5 21q27 0 43.5 -20.5t13.5 -47.5l-22 -160h385q25 0 42 -16.5t17 -42.5zM500 133h256q76 0 136.5 16t99.5 44.5t65.5 62.5t40 76t19 78.5t5.5 76.5q0 244 -282 244h-256z" />
    <glyph glyph-name="uni0463" unicode="&#x463;" horiz-adv-x="1191" 
d="M868 1167q0 -29 -19 -48t-48 -19h-193l-55 -393h231q318 0 318 -281q0 -190 -100 -307t-289 -117h-324q-29 0 -45.5 19t-13.5 47l145 1032h-199q-25 0 -40 15t-15 38q0 28 22 49t52 21h199l26 202q5 28 27 48t51 20q26 0 42.5 -20t12.5 -48l-26 -202h192q22 0 35.5 -16.5
t13.5 -39.5zM770 600h-231l-70 -487h254q121 0 184.5 77t63.5 222q0 188 -201 188z" />
    <glyph glyph-name="uni0490" unicode="&#x490;" horiz-adv-x="880" 
d="M354 1368q5 32 30.5 56t59.5 24h498l29 205q5 28 28 48.5t52 20.5q27 0 43.5 -20.5t11.5 -48.5l-37 -273q-4 -26 -26 -44.5t-48 -18.5h-514l-176 -1266q-5 -28 -26.5 -47.5t-49.5 -19.5q-29 0 -46.5 19.5t-12.5 47.5z" />
    <glyph glyph-name="uni0491" unicode="&#x491;" horiz-adv-x="768" 
d="M776 1036l31 219q5 29 27 48.5t51 19.5q27 0 43 -19.5t12 -48.5l-37 -270q-5 -26 -27.5 -45.5t-48.5 -19.5h-403l-121 -869q-4 -27 -26.5 -46t-49.5 -19q-29 0 -45.5 18.5t-11.5 46.5l129 926q3 26 23 42.5t47 16.5h407z" />
    <glyph glyph-name="Wgrave" unicode="&#x1e80;" horiz-adv-x="1589" 
d="M1069 68l-96 1134q-49 -134 -199 -540t-219 -596q-41 -84 -109 -84q-36 0 -58 23t-28 61l-127 1327l3 8q3 26 29.5 41.5t56.5 15.5q19 0 35 -14t20 -35l108 -1184l414 1131q22 56 46.5 83t64.5 27q39 0 55.5 -28t19.5 -82l103 -1133l438 1186q24 49 62 49
q30 0 53.5 -13.5t23.5 -39.5q0 -16 -6 -25v-2l-495 -1312q-15 -35 -44 -59.5t-65 -24.5q-37 0 -59 25t-27 61zM1018 1876l149 -186q6 -6 6 -16q0 -24 -19.5 -43t-41.5 -19q-27 0 -53 33l-139 180q-7 11 -7 21q0 22 19 40.5t39 18.5q7 0 12 -1t10 -5t7.5 -5.5t9 -8.5t8.5 -9z
" />
    <glyph glyph-name="wgrave" unicode="&#x1e81;" horiz-adv-x="1341" 
d="M1440 977l-373 -909q-19 -43 -40.5 -62.5t-59.5 -19.5q-27 0 -48.5 16t-25.5 43l-92 797q-217 -565 -316 -797q-26 -59 -92 -59q-34 0 -54.5 22t-25.5 60l-118 913v4q5 26 27 45t50 19q19 0 34 -14t20 -34l96 -825q68 163 319 809q29 64 90 64q28 0 45.5 -18t20.5 -46
q26 -262 96 -809l324 825q7 20 27.5 34t41.5 14q27 0 42.5 -19.5t11.5 -48.5v-4zM838 1466l149 -186q6 -6 6 -16q0 -24 -19.5 -43t-41.5 -19q-27 0 -53 33l-140 180q-6 9 -6 21q0 22 19 40.5t39 18.5q7 0 12 -1t10 -5t7.5 -5.5t9 -8.5t8.5 -9z" />
    <glyph glyph-name="Wacute" unicode="&#x1e82;" horiz-adv-x="1589" 
d="M1069 68l-96 1134q-49 -134 -199 -540t-219 -596q-41 -84 -109 -84q-36 0 -58 23t-28 61l-127 1327l3 8q3 26 29.5 41.5t56.5 15.5q19 0 35 -14t20 -35l108 -1184l414 1131q22 56 46.5 83t64.5 27q39 0 55.5 -28t19.5 -82l103 -1133l438 1186q24 49 62 49
q30 0 53.5 -13.5t23.5 -39.5q0 -16 -6 -25v-2l-495 -1312q-15 -35 -44 -59.5t-65 -24.5q-37 0 -59 25t-27 61zM899 1690l203 186q34 29 51 29q20 0 32.5 -14.5t12.5 -34.5q0 -21 -10 -31l-192 -178q-40 -35 -62 -35q-20 0 -33.5 14.5t-13.5 36.5q0 15 12 27z" />
    <glyph glyph-name="wacute" unicode="&#x1e83;" horiz-adv-x="1341" 
d="M1440 977l-373 -909q-19 -43 -40.5 -62.5t-59.5 -19.5q-27 0 -48.5 16t-25.5 43l-92 797q-217 -565 -316 -797q-26 -59 -92 -59q-34 0 -54.5 22t-25.5 60l-118 913v4q5 26 27 45t50 19q19 0 34 -14t20 -34l96 -825q68 163 319 809q29 64 90 64q28 0 45.5 -18t20.5 -46
q26 -262 96 -809l324 825q7 20 27.5 34t41.5 14q27 0 42.5 -19.5t11.5 -48.5v-4zM719 1280l203 186q34 29 51 29q20 0 32.5 -14.5t12.5 -34.5q0 -21 -10 -31l-193 -178q-1 -1 -7 -6.5t-7.5 -6.5t-6.5 -5t-6.5 -5l-6 -4t-7 -3.5t-6 -2t-7 -2t-7.5 -0.5q-20 0 -33.5 14.5
t-13.5 36.5q0 15 12 27z" />
    <glyph glyph-name="Wdieresis" unicode="&#x1e84;" horiz-adv-x="1589" 
d="M1069 68l-96 1134q-49 -134 -199 -540t-219 -596q-41 -84 -109 -84q-36 0 -58 23t-28 61l-127 1327l3 8q3 26 29.5 41.5t56.5 15.5q19 0 35 -14t20 -35l108 -1184l414 1131q22 56 46.5 83t64.5 27q39 0 55.5 -28t19.5 -82l103 -1133l438 1186q24 49 62 49
q30 0 53.5 -13.5t23.5 -39.5q0 -16 -6 -25v-2l-495 -1312q-15 -35 -44 -59.5t-65 -24.5q-37 0 -59 25t-27 61zM1300 1743q0 -39 -28.5 -67.5t-65.5 -28.5q-31 0 -53.5 22.5t-22.5 53.5q0 36 32 65t69 29q30 0 49.5 -22t19.5 -52zM946 1743q0 -39 -28.5 -67.5t-67.5 -28.5
q-30 0 -51 22.5t-21 53.5q0 35 29.5 64.5t66.5 29.5q31 0 51.5 -22t20.5 -52z" />
    <glyph glyph-name="wdieresis" unicode="&#x1e85;" horiz-adv-x="1341" 
d="M1440 977l-373 -909q-19 -43 -40.5 -62.5t-59.5 -19.5q-27 0 -48.5 16t-25.5 43l-92 797q-217 -565 -316 -797q-26 -59 -92 -59q-34 0 -54.5 22t-25.5 60l-118 913v4q5 26 27 45t50 19q19 0 34 -14t20 -34l96 -825q68 163 319 809q29 64 90 64q28 0 45.5 -18t20.5 -46
q26 -262 96 -809l324 825q7 20 27.5 34t41.5 14q27 0 42.5 -19.5t11.5 -48.5v-4zM1120 1333q0 -39 -28.5 -67.5t-65.5 -28.5q-31 0 -53.5 22.5t-22.5 53.5q0 36 32 65t69 29q30 0 49.5 -22t19.5 -52zM766 1333q0 -39 -28.5 -67.5t-67.5 -28.5q-30 0 -51 22.5t-21 53.5
q0 35 29.5 64.5t66.5 29.5q31 0 51.5 -22t20.5 -52z" />
    <glyph glyph-name="Ygrave" unicode="&#x1ef2;" horiz-adv-x="974" 
d="M492 -18q-31 0 -48.5 20t-13.5 51l74 518l-262 791q-4 16 -4 29q0 29 25.5 52t55.5 23q34 0 46 -26v2l231 -719l430 719v-2q17 26 55 26q25 0 42.5 -18t17.5 -43q0 -11 -13 -43l-487 -799l-72 -510q-5 -30 -26.5 -50.5t-50.5 -20.5zM651 1876l149 -186q6 -6 6 -16
q0 -24 -19.5 -43t-41.5 -19q-27 0 -53 33l-139 180q-7 11 -7 21q0 22 19 40.5t39 18.5q7 0 12 -1t10 -5t7.5 -5.5t9 -8.5t8.5 -9z" />
    <glyph glyph-name="ygrave" unicode="&#x1ef3;" horiz-adv-x="1042" 
d="M190 354l91 629q3 29 23.5 47.5t51.5 18.5t46 -18.5t12 -47.5l-90 -629q-37 -256 188 -256q150 0 266 107l109 778q5 29 25.5 47.5t52.5 18.5q31 0 45.5 -18.5t9.5 -47.5l-152 -1081q-23 -166 -127.5 -269.5t-283.5 -103.5q-39 0 -81.5 5.5t-85 16.5t-70 33t-27.5 51
q0 24 19.5 44t43.5 20q13 0 31 -6h-2q82 -49 170 -49q128 0 195 65.5t85 192.5l25 174q-150 -88 -297 -88q-324 0 -273 366zM633 1466l149 -186q6 -6 6 -16q0 -24 -19.5 -43t-41.5 -19q-27 0 -53 33l-139 180q-7 11 -7 21q0 22 19 40.5t39 18.5q7 0 12 -1t10 -5t7.5 -5.5
t9 -8.5t8.5 -9z" />
    <glyph glyph-name="endash" unicode="&#x2013;" horiz-adv-x="882" 
d="M881 586q0 -25 -18 -42.5t-44 -17.5h-586q-26 0 -43.5 17.5t-17.5 42.5t17.5 44t43.5 19h586q26 0 44 -19t18 -44z" />
    <glyph glyph-name="emdash" unicode="&#x2014;" horiz-adv-x="1085" 
d="M1090 586q0 -25 -18.5 -42.5t-43.5 -17.5h-795q-27 0 -45 17.5t-18 42.5t18 44t45 19h795q25 0 43.5 -19t18.5 -44z" />
    <glyph glyph-name="quoteleft" unicode="&#x2018;" horiz-adv-x="471" 
d="M301 1149q0 56 36 137.5t82.5 141t74.5 59.5q20 0 20 -17q0 -34 -47 -94q-36 -50 -61 -114q41 -4 65.5 -29t24.5 -62q0 -44 -32.5 -75t-78.5 -31q-35 0 -59.5 24.5t-24.5 59.5z" />
    <glyph glyph-name="quoteright" unicode="&#x2019;" horiz-adv-x="471" 
d="M528 1403q0 -56 -36 -138t-81 -141t-71 -59q-25 0 -25 16q0 6 1 12t4.5 13t5.5 12t8 13.5t9 12.5t11 15t11 15q34 48 61 114q-40 4 -66 30.5t-26 61.5q0 42 34.5 74.5t77.5 32.5q36 0 59 -24t23 -60z" />
    <glyph glyph-name="quotesinglbase" unicode="&#x201a;" horiz-adv-x="471" 
d="M344 90q0 -56 -36 -138t-81 -141t-71 -59q-25 0 -25 19q0 7 2 14t4.5 13t8 15t9.5 14.5t12.5 17.5t12.5 18q3 5 12 17.5t14.5 21.5t15.5 29t20 46q-40 5 -66 31t-26 62q0 41 34.5 73.5t77.5 32.5q36 0 59 -25t23 -61z" />
    <glyph glyph-name="quotedblleft" unicode="&#x201c;" horiz-adv-x="755" 
d="M299 1149q0 56 36 137.5t82.5 141t74.5 59.5q20 0 20 -17q0 -7 -1 -13t-4 -13t-5 -11.5t-7.5 -13t-8 -13t-10.5 -15t-11 -15.5q-34 -47 -62 -114q41 -4 66 -29t25 -62q0 -44 -32.5 -75t-78.5 -31q-35 0 -59.5 24.5t-24.5 59.5zM592 1149q0 55 36.5 137t82.5 141.5
t73 59.5q21 0 21 -17q0 -7 -1 -13t-4 -13t-5 -11.5t-7.5 -13t-8 -13t-10.5 -15t-11 -15.5q-34 -47 -62 -114q41 -4 65.5 -29t24.5 -62q0 -44 -32 -75t-78 -31q-35 0 -59.5 24.5t-24.5 59.5z" />
    <glyph glyph-name="quotedblright" unicode="&#x201d;" horiz-adv-x="755" 
d="M819 1403q0 -56 -35.5 -138t-80.5 -141t-72 -59q-23 0 -23 16q0 29 47 93q37 52 64 114q-41 4 -67.5 30.5t-26.5 61.5q0 42 34.5 74.5t77.5 32.5q36 0 59 -24t23 -60zM526 1403q0 -56 -36.5 -138t-81.5 -141t-70 -59q-23 0 -23 16q0 29 47 93q37 52 64 114
q-41 4 -67.5 30.5t-26.5 61.5q0 42 34.5 74.5t77.5 32.5q36 0 59 -24t23 -60z" />
    <glyph glyph-name="quotedblbase" unicode="&#x201e;" horiz-adv-x="755" 
d="M635 90q0 -56 -35.5 -138t-81 -141t-72.5 -59q-22 0 -22 19q0 34 45 92q39 53 66 114q-41 3 -68 29.5t-27 63.5q0 42 35 74t78 32q36 0 59 -25t23 -61zM342 90q0 -56 -36.5 -138t-81.5 -141t-70 -59q-23 0 -23 19q0 34 45 92q39 53 66 114q-41 3 -68 29.5t-27 63.5
q0 42 35 74t78 32q36 0 59 -25t23 -61z" />
    <glyph glyph-name="dagger" unicode="&#x2020;" horiz-adv-x="884" 
d="M1040 983q0 -26 -20.5 -44.5t-48.5 -18.5h-330l-149 -1067q-5 -31 -9 -43q-5 -21 -25 -36.5t-46 -15.5q-23 0 -39.5 15.5t-18.5 36.5q0 15 4 43l150 1067h-330q-14 0 -16 2q-35 10 -35 49q0 27 20.5 47t47.5 20h329l51 353q5 32 9 43q8 22 27 37.5t42 15.5q26 0 43 -15
t17 -38q0 -14 -4 -43l-52 -353h330q2 0 14 -6q17 -3 28 -16.5t11 -32.5z" />
    <glyph glyph-name="daggerdbl" unicode="&#x2021;" horiz-adv-x="1175" 
d="M1053 76q0 -27 -22 -46.5t-50 -19.5h-328l-51 -375q-7 -30 -8 -34q-9 -21 -31 -37.5t-43 -16.5q-24 0 -40.5 15.5t-16.5 36.5q0 28 2 36l51 375h-326q-23 0 -39 15t-16 38q0 27 22 46.5t50 19.5h325l113 791h-326q-25 0 -41 14.5t-16 36.5q0 28 22.5 48.5t51.5 20.5h326
l53 379q0 6 2 8q9 25 31.5 42.5t46.5 17.5q27 0 43.5 -20t13.5 -48l-53 -379h327q23 0 38.5 -16t15.5 -39q0 -27 -21.5 -46t-48.5 -19h-328l-112 -791h327q24 0 40 -15t16 -38z" />
    <glyph glyph-name="bullet" unicode="&#x2022;" horiz-adv-x="620" 
d="M539 575q0 -67 -50.5 -115t-115.5 -48q-55 0 -92 37.5t-37 93.5q0 65 52 113.5t118 48.5q55 0 90 -37.5t35 -92.5z" />
    <glyph glyph-name="ellipsis" unicode="&#x2026;" horiz-adv-x="1193" 
d="M1081 90q0 -44 -33 -76t-77 -32q-37 0 -60.5 24.5t-23.5 61.5q0 43 33.5 75.5t76.5 32.5q37 0 60.5 -25t23.5 -61zM711 90q0 -44 -33 -76t-78 -32q-35 0 -60.5 25.5t-25.5 60.5q0 42 35.5 75t77.5 33q37 0 60.5 -25t23.5 -61zM340 90q0 -44 -33 -76t-78 -32
q-35 0 -59.5 24.5t-24.5 61.5q0 42 34.5 75t76.5 33q37 0 60.5 -25t23.5 -61z" />
    </font>
</defs>
</svg>
