<?xml version="1.0" standalone="no"?>
<!DOCTYPE svg PUBLIC "-//W3C//DTD SVG 1.1//EN" "http://www.w3.org/Graphics/SVG/1.1/DTD/svg11.dtd" >
<svg xmlns="http://www.w3.org/2000/svg" xmlns:xlink="http://www.w3.org/1999/xlink" version="1.1">
<metadata>
Created by FontForge 20170731 at Mon Nov 23 21:08:59 2020
 By Aleksey,,,
(c) 2014 Sergiy S. Tkachenko / 4th february
(c) 2014 FirstSiteGuide.com
http://creativecommons.org/licenses/by-nd/4.0/
</metadata>
<defs>
<font id="BloggerSans-Bold" horiz-adv-x="552" >
  <font-face 
    font-family="Blogger Sans"
    font-weight="700"
    font-stretch="squinchy"
    units-per-em="2048"
    panose-1="2 0 5 6 3 0 0 2 0 4"
    ascent="1638"
    descent="-410"
    x-height="1034"
    cap-height="1446"
    bbox="-142.445 -496 1952 1952"
    underline-thickness="40"
    underline-position="-333"
    unicode-range="U+0020-F0434"
  />
<missing-glyph horiz-adv-x="1556" 
 />
    <glyph glyph-name="ff" unicode="ff" horiz-adv-x="1490" 
d="M131 115v964q0 98 33 175t91 125t132.5 73t161.5 27q20 0 37.5 -1t50 -4.5t58 -13t51 -23.5t39.5 -39t14 -57q0 -56 -41 -89t-99 -33q-19 0 -60 6t-60 6q-61 0 -93 -39t-32 -98v-101h151q57 0 96 -35.5t39 -87.5t-39 -86t-96 -34h-151v-635q0 -54 -38 -88.5t-104 -34.5
t-103.5 34.5t-37.5 88.5zM866 115v964q0 98 33 175t91 125t132.5 73t161.5 27q20 0 37.5 -1t50 -4.5t58 -13t51 -23.5t39.5 -39t14 -57q0 -56 -40.5 -89t-98.5 -33q-19 0 -60 6t-61 6q-61 0 -93 -39t-32 -98v-101h151q57 0 96.5 -35.5t39.5 -87.5t-39 -86t-97 -34h-151v-635
q0 -54 -37.5 -88.5t-103.5 -34.5t-104 34.5t-38 88.5z" />
    <glyph glyph-name="fi" unicode="fi" horiz-adv-x="1318" 
d="M131 115v964q0 98 33 175t91 125t132.5 73t161.5 27q20 0 37.5 -1t50 -4.5t58 -13t51 -23.5t39.5 -39t14 -57q0 -56 -41 -89t-99 -33q-19 0 -60 6t-60 6q-61 0 -93 -39t-32 -98v-101h151q57 0 96 -35.5t39 -87.5t-39 -86t-96 -34h-151v-635q0 -54 -38 -88.5t-104 -34.5
t-103.5 34.5t-37.5 88.5zM1186 1319q0 -60 -46.5 -101.5t-113.5 -41.5t-113.5 42t-46.5 101q0 60 46.5 101.5t113.5 41.5t113.5 -42t46.5 -101zM1167 920v-807q0 -54 -40.5 -90.5t-100.5 -36.5t-100.5 36.5t-40.5 90.5v807q0 51 40.5 87.5t100.5 36.5t100.5 -36.5
t40.5 -87.5z" />
    <glyph glyph-name="fl" unicode="fl" horiz-adv-x="1284" 
d="M131 115v964q0 98 33 175t91 125t132.5 73t161.5 27q20 0 37.5 -1t50 -4.5t58 -13t51 -23.5t39.5 -39t14 -57q0 -56 -41 -89t-99 -33q-19 0 -60 6t-60 6q-61 0 -93 -39t-32 -98v-101h151q57 0 96 -35.5t39 -87.5t-39 -86t-96 -34h-151v-635q0 -54 -38 -88.5t-104 -34.5
t-103.5 34.5t-37.5 88.5zM1063 -14q-29 0 -52.5 4t-51.5 19t-47.5 40t-32.5 70.5t-13 107.5v1125q0 52 41.5 89.5t100.5 37.5q60 0 100.5 -36.5t40.5 -90.5v-1100q0 -33 5 -47t26 -37q3 -4 11 -12.5t11 -12t7.5 -11.5t6 -16.5t1.5 -19.5q0 -55 -40.5 -82.5t-113.5 -27.5z
" />
    <glyph glyph-name="ffi" unicode="ffi" horiz-adv-x="2054" 
d="M131 115v964q0 98 33 175t91 125t132.5 73t161.5 27q20 0 37.5 -1t50 -4.5t58 -13t51 -23.5t39.5 -39t14 -57q0 -56 -41 -89t-99 -33q-19 0 -60 6t-60 6q-61 0 -93 -39t-32 -98v-101h151q57 0 96 -35.5t39 -87.5t-39 -86t-96 -34h-151v-635q0 -54 -38 -88.5t-104 -34.5
t-103.5 34.5t-37.5 88.5zM866 115v964q0 98 33 175t91 125t132.5 73t161.5 27q20 0 37.5 -1t50 -4.5t58 -13t51 -23.5t39.5 -39t14 -57q0 -56 -40.5 -89t-98.5 -33q-19 0 -60 6t-61 6q-61 0 -93 -39t-32 -98v-101h151q57 0 96.5 -35.5t39.5 -87.5t-39 -86t-97 -34h-151v-635
q0 -54 -37.5 -88.5t-103.5 -34.5t-104 34.5t-38 88.5zM1921 1319q0 -60 -46.5 -101.5t-113.5 -41.5t-113 42t-46 101q0 60 46 101.5t113 41.5t113.5 -42t46.5 -101zM1903 920v-807q0 -54 -41 -90.5t-101 -36.5t-100.5 36.5t-40.5 90.5v807q0 51 40.5 87.5t100.5 36.5
t101 -36.5t41 -87.5z" />
    <glyph glyph-name="ffl" unicode="ffl" horiz-adv-x="2019" 
d="M131 115v964q0 98 33 175t91 125t132.5 73t161.5 27q20 0 37.5 -1t50 -4.5t58 -13t51 -23.5t39.5 -39t14 -57q0 -56 -41 -89t-99 -33q-19 0 -60 6t-60 6q-61 0 -93 -39t-32 -98v-101h151q57 0 96 -35.5t39 -87.5t-39 -86t-96 -34h-151v-635q0 -54 -38 -88.5t-104 -34.5
t-103.5 34.5t-37.5 88.5zM866 115v964q0 98 33 175t91 125t132.5 73t161.5 27q20 0 37.5 -1t50 -4.5t58 -13t51 -23.5t39.5 -39t14 -57q0 -56 -40.5 -89t-98.5 -33q-19 0 -60 6t-61 6q-61 0 -93 -39t-32 -98v-101h151q57 0 96.5 -35.5t39.5 -87.5t-39 -86t-97 -34h-151v-635
q0 -54 -37.5 -88.5t-103.5 -34.5t-104 34.5t-38 88.5zM1798 -14q-29 0 -52.5 4t-51.5 19t-47 40t-32 70.5t-13 107.5v1125q0 52 41 89.5t100 37.5q60 0 100.5 -36.5t40.5 -90.5v-1100q0 -33 5 -47t26 -37q3 -4 11 -12.5t11 -12t7.5 -11.5t6 -16.5t1.5 -19.5
q0 -55 -40.5 -82.5t-113.5 -27.5z" />
    <glyph glyph-name="uni0457_uni0457" unicode="&#x457;&#x457;" horiz-adv-x="1146" 
d="M707 1290q0 -54 -40 -91.5t-94 -37.5q-57 0 -96 38t-39 91q0 51 40 88t95 37q56 0 95 -36.5t39 -88.5zM432 113q0 -54 -40.5 -90.5t-100.5 -36.5t-100.5 36.5t-40.5 90.5v807q0 51 40.5 87.5t100.5 36.5t100.5 -36.5t40.5 -87.5v-807zM242 1290q0 -54 -39.5 -91.5
t-96.5 -37.5q-55 0 -93 38t-38 91q0 51 38 88t93 37q57 0 96.5 -36.5t39.5 -88.5zM995 113q0 -54 -40.5 -90.5t-100.5 -36.5t-100.5 36.5t-40.5 90.5v807q0 51 40.5 87.5t100.5 36.5t100.5 -36.5t40.5 -87.5v-807zM1171 1290q0 -54 -38.5 -91.5t-94.5 -37.5q-55 0 -95 38
t-40 91q0 51 40 88t95 37q56 0 94.5 -36.5t38.5 -88.5z" />
    <glyph glyph-name=".notdef" horiz-adv-x="1556" 
 />
    <glyph glyph-name=".null" horiz-adv-x="0" 
 />
    <glyph glyph-name="nonmarkingreturn" horiz-adv-x="682" 
 />
    <glyph glyph-name="space" unicode=" " horiz-adv-x="614" 
 />
    <glyph glyph-name="exclam" unicode="!" horiz-adv-x="546" 
d="M150 467l-21 862q0 53 42 93t101 40q58 0 101 -40t43 -93l-21 -862q-1 -46 -38.5 -80.5t-84.5 -34.5q-52 0 -87 33.5t-35 81.5zM446 141q0 -65 -50.5 -112t-119.5 -47q-71 0 -121.5 47t-50.5 112t50 111.5t122 46.5q69 0 119.5 -47t50.5 -111z" />
    <glyph glyph-name="quotedbl" unicode="&#x22;" horiz-adv-x="784" 
d="M115 1030l41 428q7 44 51 72t94 22q52 -7 82 -46.5t18 -82.5q-17 -69 -46 -210t-50 -222q-9 -33 -42.5 -52.5t-72.5 -14.5q-35 6 -56.5 38.5t-18.5 67.5zM416 1030l41 428q7 44 51 72t94 22q52 -7 82 -46.5t18 -82.5q-17 -69 -46 -210t-50 -222q-9 -33 -42 -52.5
t-72 -14.5q-35 6 -57 38.5t-19 67.5z" />
    <glyph glyph-name="numbersign" unicode="#" horiz-adv-x="1189" 
d="M268 1024h74l82 336q13 47 50.5 71.5t90.5 24.5q49 -5 86.5 -41t36.5 -84q0 -16 -4 -26l-68 -281h95l82 336q13 47 50.5 71.5t90.5 24.5q53 -5 89.5 -42t33.5 -87q0 -6 -4 -22l-68 -281q54 -2 95.5 -39t41.5 -90q0 -56 -40.5 -93.5t-100.5 -37.5h-57l-21 -78h17
q55 0 98 -38.5t43 -92.5q0 -56 -40.5 -93.5t-100.5 -37.5h-78l-82 -340q-13 -46 -51 -71t-91 -25q-53 3 -88.5 39.5t-35.5 87.5l4 18l69 291h-94l-82 -340q-13 -47 -50.5 -71.5t-90.5 -24.5q-51 5 -88 41t-37 86l4 18l70 291q-57 3 -95 40t-38 91t43 92.5t98 38.5h53l21 78
h-13q-60 0 -100.5 37.5t-40.5 93.5q0 54 42.5 91.5t98.5 37.5zM555 764l-20 -78h94l20 78h-94z" />
    <glyph glyph-name="dollar" unicode="$" horiz-adv-x="1077" 
d="M485 -57v100q-69 2 -139.5 14t-135.5 35t-106 61.5t-41 86.5t37.5 88.5t106.5 40.5q41 0 127 -31t151 -35v305h-1q-168 54 -240 96q-165 95 -177 276q-1 16 -1 32q0 173 112 274.5t307 112.5v102q0 22 16 37.5t38 15.5t37.5 -15.5t15.5 -37.5v-102q47 -3 92 -9t95 -20
t87 -33.5t61.5 -51.5t24.5 -71q0 -53 -40 -90t-101 -37q-34 0 -96 24t-123 28v-287q163 -55 215 -80q140 -67 182 -177q23 -59 23 -134q0 -179 -116 -287t-304 -127v-104q0 -22 -15 -38t-38 -16t-38.5 16t-15.5 38zM717 442q0 34 -14.5 59t-30 35.5t-39.5 20.5l-41 16v-264
q125 26 125 133zM444 909l41 -18v246q-127 -18 -127 -115q0 -76 86 -113z" />
    <glyph glyph-name="percent" unicode="%" horiz-adv-x="1521" 
d="M1141 -18q-156 0 -243 100t-87 258q0 156 87.5 257t242.5 101t242 -101t87 -257q0 -158 -86.5 -258t-242.5 -100zM1227 1284l-690 -1223q-24 -40 -69 -56t-97 -5q-49 17 -72.5 62.5t-9.5 95.5l10 22l690 1221q26 41 70 56t92 1q47 -14 73.5 -53t14.5 -84q-3 -19 -12 -37z
M1141 211q88 0 88 133q0 125 -88 125t-88 -125q0 -133 88 -133zM381 977q88 0 88 133q0 125 -88 125t-88 -125q0 -133 88 -133zM381 748q-155 0 -242.5 100.5t-87.5 257.5q0 158 87 258t243 100t243 -100t87 -258q0 -157 -87.5 -257.5t-242.5 -100.5z" />
    <glyph glyph-name="ampersand" unicode="&#x26;" horiz-adv-x="1396" 
d="M1321 111q0 -52 -39.5 -90.5t-103.5 -38.5q-37 0 -62.5 14t-52.5 45l-88 96q-183 -155 -412 -155q-216 0 -351.5 117t-135.5 296q0 241 274 416q-135 160 -135 303q0 101 58 181t150.5 121.5t197.5 41.5q107 0 200 -44t145 -111.5t52 -137.5q0 -63 -42.5 -100t-101.5 -37
q-40 0 -67 19t-41.5 46l-29 54t-40.5 46t-65 19q-53 0 -93 -30t-40 -74q0 -68 125 -197l346 -362l75 143q47 89 127 82q56 -5 97 -40.5t41 -88.5q0 -54 -44 -138t-106 -169l129 -143q33 -38 33 -84zM795 332l-271 286q-80 -46 -124 -93.5t-44 -114.5q0 -73 53 -127t146 -54
q126 0 240 103z" />
    <glyph glyph-name="quotesingle" unicode="'" horiz-adv-x="538" 
d="M145 1030l41 428q7 44 51.5 72t94.5 22q52 -7 82 -46.5t18 -82.5q-17 -69 -46 -210t-50 -222q-9 -33 -42.5 -52.5t-72.5 -14.5q-35 6 -57 38.5t-19 67.5z" />
    <glyph glyph-name="parenleft" unicode="(" horiz-adv-x="647" 
d="M397 473q0 -401 189 -711q28 -50 28 -79q0 -56 -35.5 -96t-103.5 -40q-77 0 -121 62q-122 186 -181.5 409.5t-59.5 454.5t59.5 454.5t181.5 409.5q43 64 121 64q68 0 103.5 -40t35.5 -97q0 -32 -28 -78q-189 -310 -189 -713z" />
    <glyph glyph-name="parenright" unicode=")" horiz-adv-x="645" 
d="M248 473q0 403 -189 713q-28 46 -28 78q0 57 35.5 97t103.5 40q78 0 121 -64q122 -186 181.5 -409.5t59.5 -454.5t-59.5 -454.5t-181.5 -409.5q-44 -62 -121 -62q-68 0 -103.5 40t-35.5 96q0 29 28 79q189 310 189 711z" />
    <glyph glyph-name="asterisk" unicode="*" horiz-adv-x="1097" 
d="M655 1200l224 82q6 2 20 2q40 0 73.5 -36t33.5 -91q0 -42 -29.5 -74t-73.5 -43l-170 -18l115 -131q35 -44 35 -86t-43.5 -80.5t-94.5 -38.5q-70 0 -110 57l-86 144l-84 -144q-40 -57 -111 -57q-51 0 -94 38.5t-43 80.5t35 86l115 131l-170 18q-44 11 -73.5 43t-29.5 74
q0 55 33.5 91t73.5 36q14 0 20 -2l221 -82l-26 166q-8 49 29 89t104 40t104 -40t29 -89z" />
    <glyph glyph-name="plus" unicode="+" horiz-adv-x="1105" 
d="M412 330v264h-246q-60 0 -100.5 37.5t-40.5 93.5q0 54 42.5 91.5t98.5 37.5h246v264q0 52 41 91.5t100 39.5q60 0 100.5 -37.5t40.5 -93.5v-264h246q56 0 98.5 -37.5t42.5 -91.5q0 -56 -40.5 -93.5t-100.5 -37.5h-246v-264q0 -55 -40.5 -92t-100.5 -37q-59 0 -100 39
t-41 90z" />
    <glyph glyph-name="comma" unicode="," 
d="M170 -195q3 33 31.5 85t36.5 98q-59 12 -96.5 55t-37.5 98q0 65 50 111.5t122 46.5q70 0 120 -46.5t50 -119.5q0 -65 -26 -162.5t-72.5 -177.5t-93.5 -80q-21 0 -39.5 5.5t-34 27.5t-10.5 59z" />
    <glyph glyph-name="hyphen" unicode="-" horiz-adv-x="899" 
d="M840 614q0 -54 -39 -89.5t-96 -35.5h-510q-59 0 -98.5 35.5t-39.5 89.5q0 51 40 88t98 37h510q57 0 96 -37t39 -88z" />
    <glyph glyph-name="period" unicode="." 
d="M446 141q0 -65 -50.5 -112t-119.5 -47q-71 0 -121.5 47t-50.5 112t50 111.5t122 46.5q69 0 119.5 -47t50.5 -111z" />
    <glyph glyph-name="slash" unicode="/" horiz-adv-x="737" 
d="M758 1376l-525 -1380q-19 -47 -62 -70.5t-93 -15.5q-57 11 -92.5 55t-18.5 92l535 1409q19 47 61 70t92 14q52 -9 85 -52t28 -91q-3 -17 -10 -31z" />
    <glyph glyph-name="zero" unicode="0" horiz-adv-x="1105" 
d="M553 1231q-97 0 -142.5 -59.5t-45.5 -163.5v-578q0 -90 49 -143.5t139 -53.5t139 53.5t49 143.5v578q0 104 -45.5 163.5t-142.5 59.5zM553 1481q120 0 212.5 -38t148.5 -105.5t84 -154t28 -190.5v-563q0 -127 -53.5 -227t-162.5 -160.5t-257 -60.5t-257 60.5
t-162.5 160.5t-53.5 227v563q0 104 28 190.5t84 154t148.5 105.5t212.5 38z" />
    <glyph glyph-name="one" unicode="1" horiz-adv-x="1105" 
d="M535 115v995l-162 -98q-67 -43 -121 -43q-53 0 -92 28.5t-39 89.5q0 78 63 115l406 238q40 22 80 22q64 0 107.5 -39t43.5 -98v-1210q0 -53 -42.5 -92t-100.5 -39q-59 0 -101 39t-42 92z" />
    <glyph glyph-name="two" unicode="2" horiz-adv-x="1105" 
d="M1032 129q0 -54 -40.5 -91.5t-100.5 -37.5h-674q-64 0 -104.5 38.5t-40.5 96.5q0 61 16 96q24 52 59.5 105t64.5 89t84 90.5t79.5 77.5t89.5 81q15 13 58.5 51t64.5 57.5t56 56.5t52 65t31 65.5t14 74.5q0 82 -50 134.5t-142 52.5q-91 0 -172 -33q-14 -5 -42 -21t-53 -25
t-51 -9q-55 0 -97 35t-42 90q0 53 47.5 96t120.5 67.5t148.5 37t142.5 12.5q218 0 345.5 -118.5t127.5 -297.5q0 -122 -42 -214t-120 -173q-51 -53 -140.5 -132.5t-164 -151t-123.5 -138.5h457q60 0 100.5 -36.5t40.5 -90.5z" />
    <glyph glyph-name="three" unicode="3" horiz-adv-x="1105" 
d="M942 1214l-278 -331q163 -30 259.5 -138.5t96.5 -271.5q0 -68 -18.5 -135.5t-59 -132t-98.5 -113.5t-144.5 -78.5t-189.5 -29.5q-36 0 -81.5 4t-108.5 16.5t-113 32.5t-85.5 57.5t-35.5 85.5q0 52 39.5 89.5t95.5 37.5q34 0 75.5 -19t93 -38t110.5 -19q64 0 111.5 20.5
t73.5 55t38 73.5t12 81q0 188 -233 188q-27 0 -53.5 -11t-51.5 -11q-56 0 -94.5 39t-38.5 96q0 31 15 49l305 371h-330q-60 0 -100.5 37.5t-40.5 91.5q0 56 40.5 95.5t100.5 39.5h571q66 0 108 -39.5t42 -99.5q0 -52 -33 -93z" />
    <glyph glyph-name="four" unicode="4" horiz-adv-x="1105" 
d="M930 281v-168q0 -55 -41 -92t-101 -37t-100.5 37t-40.5 92v168h-450q-63 0 -104.5 41t-41.5 98q0 25 21 72l393 907q15 36 50.5 58t76.5 22q54 0 97.5 -40t43.5 -93q0 -28 -8 -46q-59 -137 -166.5 -381.5t-167.5 -381.5h256v313q0 55 40.5 92t100.5 37q58 0 100 -37
t42 -92v-313h26q58 0 98 -37.5t40 -89.5q0 -54 -40 -91.5t-98 -37.5h-26z" />
    <glyph glyph-name="five" unicode="5" horiz-adv-x="1105" 
d="M1020 481q0 -73 -17 -143t-54 -134.5t-91 -113t-135 -77.5t-178 -29q-37 0 -85.5 4t-117 16.5t-123.5 32.5t-94 57.5t-39 85.5q0 52 39.5 89.5t97.5 37.5q32 0 72.5 -19t92 -38t110.5 -19q65 0 113 20.5t74 56t38 76.5t12 89q0 109 -54 165t-142 56q-62 0 -113 -26
q-9 -7 -24.5 -17.5t-54.5 -28.5t-68 -18q-62 0 -103.5 39t-40.5 100l21 566q1 62 47.5 99.5t107.5 37.5h494q63 0 109.5 -32t46.5 -97q0 -64 -46 -94.5t-110 -30.5h-383l-12 -266q55 16 133 16q214 0 345.5 -123.5t131.5 -337.5z" />
    <glyph glyph-name="six" unicode="6" horiz-adv-x="1105" 
d="M602 1214q-57 1 -99 -16t-68 -44.5t-42.5 -74t-24 -92.5t-12.5 -110q101 61 222 61q95 0 178 -30t147.5 -86.5t101.5 -147t37 -203.5q0 -101 -30.5 -188.5t-89.5 -155.5t-154 -106.5t-215 -38.5q-138 0 -235.5 51.5t-152 149t-78.5 220t-24 283.5q0 378 128.5 577
t386.5 199q44 0 94 -5.5t116.5 -20t112 -49t51.5 -84.5t-29.5 -88.5t-97.5 -38.5q-31 0 -101.5 18.5t-121.5 19.5zM350 612v-24q0 -58 5 -105.5t19.5 -93.5t37.5 -77.5t61.5 -50.5t89.5 -19q102 0 148.5 64t46.5 163q0 106 -52.5 159.5t-148.5 53.5q-60 0 -116 -19t-91 -51z
" />
    <glyph glyph-name="seven" unicode="7" horiz-adv-x="1105" 
d="M1024 1309q0 -38 -12 -60l-510 -1183q-35 -82 -127 -82q-61 0 -104.5 32t-43.5 88q0 31 11 56l448 1024h-465q-56 0 -97.5 38t-41.5 93q0 54 40.5 92.5t98.5 38.5h656q61 0 104 -39.5t43 -97.5z" />
    <glyph glyph-name="eight" unicode="8" horiz-adv-x="1105" 
d="M1067 424q0 -192 -144 -317t-370 -125q-223 0 -369.5 122.5t-146.5 311.5q0 214 203 346q-152 116 -152 299q0 121 63.5 213.5t168 139t231.5 46.5q197 0 330 -110t133 -281q0 -175 -152 -293q205 -134 205 -352zM733 1063q0 65 -52 108t-128 43q-77 0 -129.5 -43
t-52.5 -108q0 -67 53 -113.5t133 -62.5q78 18 127 65t49 111zM782 424q0 81 -66.5 136t-168.5 77q-100 -21 -162.5 -77t-62.5 -136q0 -83 66 -138t165 -55t164 56t65 137z" />
    <glyph glyph-name="nine" unicode="9" horiz-adv-x="1105" 
d="M504 229q57 -1 99 16t68 45t42.5 74.5t24 92.5t12.5 110q-101 -61 -222 -61q-95 0 -178.5 30t-147.5 86.5t-101.5 147t-37.5 203.5q0 101 30.5 188.5t90 155.5t154.5 106.5t215 38.5q111 0 196 -34.5t140 -95t90 -151t49 -193t14 -230.5q0 -379 -128 -577.5t-386 -198.5
q-44 0 -94 5.5t-116.5 20t-112 49t-51.5 84.5t29.5 88.5t97.5 38.5q31 0 101.5 -19t121.5 -20zM756 831v25q0 58 -5 105.5t-19.5 93.5t-37.5 77.5t-61.5 50.5t-89.5 19q-102 0 -148.5 -64t-46.5 -163q0 -106 52.5 -159.5t148.5 -53.5q60 0 116 18.5t91 50.5z" />
    <glyph glyph-name="colon" unicode=":" 
d="M446 141q0 -65 -50.5 -112t-119.5 -47q-71 0 -121.5 47t-50.5 112t50 111.5t122 46.5q69 0 119.5 -47t50.5 -111zM446 755q0 -65 -50.5 -112t-119.5 -47q-71 0 -121.5 47t-50.5 112t50 111.5t122 46.5q69 0 119.5 -47t50.5 -111z" />
    <glyph glyph-name="semicolon" unicode=";" 
d="M170 -195q3 33 31.5 85t36.5 98q-59 12 -96.5 55t-37.5 98q0 65 50 111.5t122 46.5q70 0 120 -46.5t50 -119.5q0 -65 -26 -162.5t-72.5 -177.5t-93.5 -80q-21 0 -39.5 5.5t-34 27.5t-10.5 59zM446 756q0 -65 -50.5 -112.5t-119.5 -47.5q-71 0 -121.5 47.5t-50.5 112.5
t50 111t122 46q69 0 119.5 -46.5t50.5 -110.5z" />
    <glyph glyph-name="less" unicode="&#x3c;" horiz-adv-x="1361" 
d="M528 721l625 -289q40 -19 65 -52t25 -67q0 -57 -38.5 -95t-100.5 -38q-36 0 -66 15l-815 391q-36 18 -54 30.5t-34 39.5t-16 65q0 39 15.5 66t33 39t53.5 30l817 393q27 15 66 15q61 0 100 -39t39 -95q0 -35 -25.5 -68t-64.5 -52z" />
    <glyph glyph-name="equal" unicode="=" horiz-adv-x="1105" 
d="M248 666h610q55 0 98 -38.5t43 -92.5q0 -56 -40.5 -94t-100.5 -38h-610q-60 0 -101 38t-41 94q0 54 43.5 92.5t98.5 38.5zM248 1044h610q56 0 98.5 -37.5t42.5 -91.5q0 -56 -40.5 -93.5t-100.5 -37.5h-610q-60 0 -101 38t-41 93q0 54 43 91.5t99 37.5z" />
    <glyph glyph-name="greater" unicode="&#x3e;" horiz-adv-x="1361" 
d="M209 432l625 289l-625 289q-39 19 -64.5 52t-25.5 68q0 56 39 95t100 39q39 0 66 -15l817 -393q36 -18 53.5 -30t33 -39t15.5 -66q0 -38 -16 -65t-34 -39.5t-54 -30.5l-815 -391q-30 -15 -66 -15q-62 0 -100.5 38t-38.5 95q0 34 25 67t65 52z" />
    <glyph glyph-name="question" unicode="?" horiz-adv-x="1028" 
d="M666 541q-17 -17 -17 -64q-3 -58 -45 -94.5t-98 -36.5q-55 0 -99.5 36.5t-44.5 106.5q0 121 160 285q79 81 108 126q54 81 54 157q0 77 -52 127.5t-151 50.5q-95 0 -162 -33q-14 -6 -37 -22t-43.5 -24.5t-45.5 -8.5q-53 0 -95.5 35.5t-42.5 89.5q0 53 45 96t115 67.5
t144.5 37t142.5 12.5q210 0 337.5 -118t127.5 -312q0 -112 -43 -200t-119 -171q-40 -43 -85 -88t-54 -55zM676 139q0 -65 -51 -112t-121 -47t-120 47t-50 112t50 111.5t120 46.5t121 -46.5t51 -111.5z" />
    <glyph glyph-name="at" unicode="@" horiz-adv-x="1605" 
d="M1112 31q-57 -24 -150.5 -40t-179.5 -16q-311 0 -491 184.5t-180 487.5q0 197 77.5 345.5t234 233.5t374.5 85q168 0 302 -50.5t219.5 -139t131 -204.5t45.5 -249q0 -162 -73 -255.5t-230 -93.5q-132 0 -209 80q-50 -56 -91 -78t-99 -22q-148 0 -241 99.5t-93 258.5
q0 151 88 244.5t254 93.5q73 0 129 -20.5t89.5 -51t56.5 -77.5t33 -88.5t17 -95.5q13 -85 23 -106q14 -30 43 -30q72 0 72 129q0 130 -51 232.5t-157.5 164.5t-254.5 62q-219 0 -339 -128.5t-120 -338.5q0 -208 120.5 -330t356.5 -122q65 0 113 11.5t123 39.5q50 15 100 2.5
t70 -53.5q10 -34 6.5 -59t-25 -46.5t-44 -34.5t-50.5 -24zM795 504q41 0 102 41q-8 46 -9.5 55t-1.5 22t-1 33q-2 25 -3 37t-6.5 33.5t-13.5 32t-23.5 19.5t-37.5 9q-101 0 -101 -141q0 -69 24.5 -105t70.5 -36z" />
    <glyph glyph-name="A" unicode="A" horiz-adv-x="1206" 
d="M381 285l-68 -207q-14 -42 -55 -69t-80 -27q-61 0 -104 37t-43 94q0 30 6 45l399 1165q23 67 60.5 103t105.5 36q69 0 106.5 -35.5t61.5 -103.5l399 -1165q7 -17 7 -45q0 -58 -42 -94.5t-106 -36.5q-41 0 -83 27.5t-56 68.5l-72 207h-436zM743 518l-104 350
q-20 64 -37 201q-17 -137 -37 -201l-108 -350h286z" />
    <glyph glyph-name="B" unicode="B" horiz-adv-x="1191" 
d="M416 879h235q61 0 109.5 41t48.5 118q0 65 -34.5 106.5t-108.5 41.5h-250v-307zM657 616h-241v-356h229q99 0 151 46.5t52 127.5q0 85 -53.5 133.5t-137.5 48.5zM627 0h-338q-67 0 -113.5 43.5t-46.5 103.5v1149q0 62 47.5 105t112.5 43h346q89 0 165.5 -22t130 -60.5
t91.5 -89.5t56 -109.5t18 -120.5q0 -187 -215 -290q254 -102 254 -322q0 -185 -138.5 -307.5t-369.5 -122.5z" />
    <glyph glyph-name="C" unicode="C" horiz-adv-x="1069" 
d="M358 926v-406q0 -140 57 -213.5t189 -73.5q93 0 170 50l21 12q4 2 14.5 9t15 9.5t14 6t20 5t24.5 1.5q58 0 96.5 -36.5t38.5 -86.5q0 -58 -60.5 -109t-158.5 -80.5t-205 -29.5q-261 0 -391.5 142.5t-130.5 393.5v406q0 251 130.5 393.5t391.5 142.5q107 0 205 -29.5
t158.5 -80.5t60.5 -109q0 -50 -38.5 -86.5t-96.5 -36.5q-14 0 -24.5 1.5t-20 5t-14 6t-15 9.5t-14.5 9l-21 12q-76 49 -170 49q-132 0 -189 -73t-57 -213z" />
    <glyph glyph-name="D" unicode="D" horiz-adv-x="1216" 
d="M1143 555q0 -90 -19.5 -169t-66 -151t-117 -123t-178 -81.5t-242.5 -30.5h-231q-65 0 -112.5 43.5t-47.5 103.5v1151q0 60 47.5 104t112.5 44h231q135 0 242 -29t177.5 -78.5t117 -119t66.5 -146.5t20 -166v-352zM856 555v352q0 127 -72 203t-229 76h-139v-926h139
q158 0 229.5 81t71.5 214z" />
    <glyph glyph-name="E" unicode="E" horiz-adv-x="1052" 
d="M1006 133q0 -55 -42.5 -94t-101.5 -39h-543q-84 0 -137 34t-53 111v1153q0 56 46.5 101t111.5 45h555q58 0 100.5 -39.5t42.5 -93.5q0 -55 -42 -91t-101 -36h-426v-330h387q56 0 98.5 -37.5t42.5 -91.5q0 -56 -40.5 -93.5t-100.5 -37.5h-387v-334h446q58 0 101 -37.5
t43 -89.5z" />
    <glyph glyph-name="F" unicode="F" horiz-adv-x="1052" 
d="M416 594v-481q0 -53 -43 -92t-101 -39q-59 0 -101 39t-42 92v1187q0 56 46.5 101t111.5 45h555q58 0 100.5 -39.5t42.5 -93.5q0 -55 -42 -91t-101 -36h-426v-332h387q56 0 98.5 -37.5t42.5 -91.5q0 -56 -40.5 -93.5t-100.5 -37.5h-387z" />
    <glyph glyph-name="G" unicode="G" horiz-adv-x="1146" 
d="M358 926v-406q0 -140 57 -213.5t189 -73.5q89 0 170 43v320h-106q-52 0 -90.5 38t-38.5 91t38.5 91t90.5 38h223q75 0 121.5 -36.5t46.5 -106.5v-453q0 -69 -42.5 -123.5t-111.5 -86.5t-148.5 -48t-162.5 -16q-261 0 -391.5 142.5t-130.5 393.5v406q0 251 130.5 393.5
t391.5 142.5q107 0 205 -29.5t158.5 -80.5t60.5 -109q0 -50 -38.5 -86.5t-96.5 -36.5q-14 0 -24.5 1.5t-20 5t-14 6t-15 9.5t-14.5 9l-21 12q-81 49 -170 49q-132 0 -189 -73t-57 -213z" />
    <glyph glyph-name="H" unicode="H" horiz-adv-x="1269" 
d="M1139 115q0 -54 -43 -93.5t-101 -39.5q-57 0 -100 39.5t-43 93.5v477h-436v-477q0 -54 -43 -93.5t-101 -39.5q-60 0 -101.5 39.5t-41.5 93.5v1216q0 53 42 92t101 39q58 0 101 -39t43 -92v-477h436v477q0 52 43 91.5t100 39.5t100.5 -39.5t43.5 -91.5v-1216z" />
    <glyph glyph-name="I" unicode="I" horiz-adv-x="546" 
d="M129 113v1218q0 53 42 92t101 39q58 0 101 -39t43 -92v-1218q0 -53 -43 -92t-101 -39q-59 0 -101 39t-42 92z" />
    <glyph glyph-name="J" unicode="J" horiz-adv-x="870" 
d="M741 1331v-850q0 -97 -14 -172t-48 -137.5t-88 -103.5t-135.5 -63.5t-189.5 -22.5q-235 0 -235 141q0 57 42.5 93t90.5 36q23 0 61 -6t64 -6q97 0 131.5 59t34.5 182v850q0 55 41 93t102 38q57 0 100 -39.5t43 -91.5z" />
    <glyph glyph-name="K" unicode="K" horiz-adv-x="1138" 
d="M1044 1243l-407 -461l448 -594q23 -31 23 -69q0 -49 -38.5 -93t-100.5 -44q-74 0 -119 59l-397 532l-37 -41v-417q0 -54 -43 -93.5t-101 -39.5q-60 0 -101.5 39.5t-41.5 93.5v1216q0 53 42 92t101 39q58 0 101 -39t43 -92v-389l405 461q20 25 52.5 42t64.5 17
q49 0 95 -39.5t46 -91.5q0 -27 -6 -44.5t-29 -43.5z" />
    <glyph glyph-name="L" unicode="L" horiz-adv-x="1030" 
d="M999 131q0 -55 -40 -93t-99 -38h-577q-62 0 -108 41t-46 100v1190q0 53 42 92t101 39q58 0 101 -39t43 -92v-1073h444q56 0 97.5 -37t41.5 -90z" />
    <glyph glyph-name="M" unicode="M" horiz-adv-x="1554" 
d="M1430 1327v-1216q0 -52 -42.5 -90.5t-99.5 -38.5q-59 0 -102 38.5t-43 90.5v704l-234 -459q-39 -77 -135 -77q-94 0 -133 77l-233 459v-704q0 -52 -44 -90.5t-104 -38.5q-58 0 -98.5 38t-40.5 91v1216q0 58 42 96.5t105 38.5q103 0 144 -80l364 -723l365 725
q38 78 141 78q63 0 105.5 -39.5t42.5 -95.5z" />
    <glyph glyph-name="N" unicode="N" horiz-adv-x="1310" 
d="M1028 -18q-40 0 -78.5 19.5t-58.5 51.5l-475 828v-766q0 -54 -43.5 -93.5t-102.5 -39.5t-100 39t-41 94v1208q0 60 42.5 99.5t107.5 39.5q41 0 79 -21t60 -55q113 -196 475 -831v774q0 54 43 93.5t102 39.5t100.5 -39t41.5 -94v-1208q0 -58 -43 -98.5t-109 -40.5z" />
    <glyph glyph-name="O" unicode="O" horiz-adv-x="1249" 
d="M625 -18q-129 0 -232 42t-168 115.5t-99 170.5t-34 210v406q0 89 18.5 167.5t59.5 147t102 117t151 76.5t202 28t202 -28t151 -76.5t102 -117t59 -146.5t18 -168v-406q0 -113 -34 -210t-99 -170.5t-167.5 -115.5t-231.5 -42zM625 1202q-246 0 -246 -276v-406
q0 -128 62 -203t184 -75t183.5 75t61.5 203v406q0 276 -245 276z" />
    <glyph glyph-name="P" unicode="P" horiz-adv-x="1167" 
d="M590 492h-174v-375q0 -54 -43 -94.5t-101 -40.5q-57 0 -100 40t-43 95v1179q0 60 47.5 104t112.5 44h301q112 0 201.5 -26t148.5 -70.5t98.5 -106.5t56.5 -130t17 -146q0 -224 -140.5 -348.5t-381.5 -124.5zM416 1184v-432h174q235 0 235 215q0 217 -235 217h-174z" />
    <glyph glyph-name="Q" unicode="Q" horiz-adv-x="1249" 
d="M846 -354q-138 0 -228 93t-118 253q-198 37 -303 180.5t-105 347.5v406q0 89 18.5 167.5t59.5 147t102 117t151 76.5t202 28t202 -28t151 -76.5t102 -117t59 -146.5t18 -168v-406q0 -195 -96.5 -336t-278.5 -184q22 -104 90 -104h60q64 0 102.5 -33.5t38.5 -91.5
q0 -35 -12.5 -59.5t-29.5 -37t-50.5 -19t-60.5 -8t-74 -1.5zM625 1202q-246 0 -246 -276v-406q0 -128 62 -203t184 -75t183.5 75t61.5 203v406q0 276 -245 276z" />
    <glyph glyph-name="R" unicode="R" horiz-adv-x="1259" 
d="M1149 1010q0 -149 -75 -249.5t-210 -144.5l281 -421q31 -53 18 -100t-55 -79t-88 -32q-80 0 -121 63l-344 539h-139v-469q0 -54 -44 -94.5t-102 -40.5q-57 0 -99 40t-42 95v1179q0 60 46.5 104t109.5 44h356q139 0 241 -37t158.5 -100.5t82.5 -137t26 -159.5zM862 1010
q0 174 -229 174h-217v-340h229q105 0 161 43t56 123z" />
    <glyph glyph-name="S" unicode="S" horiz-adv-x="1077" 
d="M717 418q0 103 -84 139q-65 27 -150 55q-56 17 -87.5 27.5t-82 31.5t-80 41t-65.5 52.5t-55.5 70t-33 89.5t-13.5 114q0 197 128 310.5t347 113.5q55 0 117 -7.5t132.5 -26t116 -57.5t45.5 -93q0 -53 -39 -91t-104 -38q-13 0 -27 2.5t-23 4.5t-26 7.5t-24 7.5
q-86 31 -156 31q-40 0 -73 -7.5t-61.5 -24.5t-44.5 -48t-16 -75q0 -99 86 -138q64 -33 148 -55q44 -14 68 -22t65.5 -23.5t65.5 -28t58.5 -33.5t54.5 -41.5t43 -50t35.5 -62t21 -74.5t8.5 -89q0 -139 -66.5 -241.5t-181.5 -154.5t-262 -52q-62 0 -133.5 11t-142 33
t-117 61.5t-46.5 90.5t40 90t96 39q35 0 102 -24q3 -1 18.5 -6t21.5 -7t22 -7t25.5 -7t25.5 -5t28.5 -5t29 -3t32.5 -1q105 0 159 45.5t54 130.5z" />
    <glyph glyph-name="T" unicode="T" horiz-adv-x="1071" 
d="M391 113v1071h-217q-61 0 -102 38t-41 91q0 46 43 88.5t100 42.5h721q57 0 101 -38.5t44 -92.5q0 -52 -43 -90.5t-102 -38.5h-217v-1071q0 -53 -42.5 -92t-100.5 -39q-59 0 -101.5 39t-42.5 92z" />
    <glyph glyph-name="U" unicode="U" horiz-adv-x="1253" 
d="M1141 492q0 -226 -138 -368t-376 -142q-241 0 -377.5 142t-136.5 368v835q0 58 41.5 96.5t103.5 38.5q57 0 99 -40t42 -95v-835q0 -115 57.5 -182.5t170.5 -67.5q111 0 168 68t57 182v835q0 55 41 95t100 40q62 0 105 -40t43 -95v-835z" />
    <glyph glyph-name="V" unicode="V" horiz-adv-x="1193" 
d="M633 575l250 791q14 41 56 68.5t83 27.5q64 0 105.5 -36.5t41.5 -94.5q0 -30 -6 -45l-399 -1165q-24 -68 -61.5 -103.5t-106.5 -35.5q-68 0 -105.5 36t-60.5 103l-399 1165q-6 15 -6 45q0 57 43 94t104 37q39 0 80 -27t55 -69l252 -791q20 -65 37 -200q17 135 37 200z
" />
    <glyph glyph-name="W" unicode="W" horiz-adv-x="1699" 
d="M1014 1311l119 -482q13 -50 22.5 -107t19.5 -126.5t17 -108.5q6 36 17 108t21 128t23 106l131 523q12 49 48 76.5t84 27.5q60 0 109.5 -32.5t49.5 -92.5q0 -14 -4 -26l-307 -1194q-17 -57 -58 -93t-110 -36q-68 0 -110.5 37t-59.5 94l-121 501q-12 47 -21 101.5
t-18.5 123t-15.5 103.5q-6 -35 -15.5 -103.5t-18.5 -123t-21 -101.5l-123 -505q-39 -127 -168 -127q-59 0 -107 39.5t-63 89.5l-301 1183l-8 39q0 54 47.5 88.5t105.5 34.5q48 0 85 -25t48 -73l135 -529q13 -49 23 -106t20 -126.5t17 -107.5q6 32 23.5 154.5t33.5 185.5
l121 482q21 81 54 116t112 35q73 0 109 -37.5t55 -113.5z" />
    <glyph glyph-name="X" unicode="X" horiz-adv-x="1134" 
d="M567 514l-272 -451v3q-52 -84 -131 -84q-55 0 -97 41t-42 92q0 37 20 69l354 566l-325 514q-17 34 -17 69q0 50 41.5 89.5t96.5 39.5q85 0 141 -94l231 -381l232 381q65 94 143 94q54 0 94.5 -38.5t40.5 -92.5q0 -26 -18 -67l-324 -514l355 -566q20 -32 20 -69
q0 -51 -42 -92t-95 -41q-81 0 -133 81z" />
    <glyph glyph-name="Y" unicode="Y" horiz-adv-x="1085" 
d="M543 -18q-61 0 -103.5 39.5t-42.5 95.5v448l-360 705q-12 28 -12 59q0 53 44.5 93t100.5 40q35 0 67 -15.5t50 -45.5l256 -508l254 508q35 61 118 61q56 0 101 -40t45 -93q0 -17 -14 -59l-359 -705v-448q0 -55 -42 -95t-103 -40z" />
    <glyph glyph-name="Z" unicode="Z" horiz-adv-x="1073" 
d="M1032 133q0 -55 -42 -94t-101 -39h-703q-62 0 -104.5 40.5t-42.5 98.5q0 32 29 90q94 156 283.5 465.5t295.5 485.5h-463q-60 0 -100.5 37.5t-40.5 93.5q0 55 41 94t100 39h695q64 0 106.5 -39.5t42.5 -97.5q0 -40 -29 -88l-583 -955h473q58 0 100.5 -38t42.5 -93z" />
    <glyph glyph-name="bracketleft" unicode="[" horiz-adv-x="684" 
d="M651 -100q0 -67 -49 -98t-117 -31h-209q-55 0 -97 39t-42 90v1597q0 66 47 96.5t121 30.5h209q52 0 94.5 -37.5t42.5 -87.5q0 -67 -48 -98t-116 -31h-65v-1343h65q72 0 118 -30t46 -97z" />
    <glyph glyph-name="backslash" unicode="\" horiz-adv-x="737" 
d="M485 -4l-524 1380q-7 14 -10 31q-5 48 28 91t84 52q50 9 92.5 -14t61.5 -70l535 -1409q17 -48 -18.5 -92t-92.5 -55q-50 -8 -94 15.5t-62 70.5z" />
    <glyph glyph-name="bracketright" unicode="]" horiz-adv-x="684" 
d="M545 -100q0 -54 -40.5 -91.5t-98.5 -37.5h-209q-44 0 -79.5 11t-62 41.5t-26.5 76.5q0 47 25.5 77t60.5 40t80 10h65v1343h-65q-44 0 -78.5 10t-61 40.5t-26.5 78.5q0 66 49 95.5t119 29.5h209q52 0 95.5 -40t43.5 -87v-1597z" />
    <glyph glyph-name="asciicircum" unicode="^" horiz-adv-x="749" 
d="M373 1194l-164 -188q-15 -20 -45 -35t-58 -15q-55 0 -88.5 31t-33.5 82q3 52 53 102l225 256q45 52 111 52q65 0 110 -52q38 -42 113 -128t113 -128q50 -50 53 -102q0 -51 -33.5 -82t-89.5 -31q-30 0 -59.5 14.5t-42.5 35.5q-26 29 -55 63.5t-53 62.5t-56 62z" />
    <glyph glyph-name="underscore" unicode="_" horiz-adv-x="1310" 
d="M51 -190h1209q55 0 98 -39t43 -93q0 -55 -40.5 -92t-100.5 -37h-1209q-60 0 -100.5 37t-40.5 92q0 54 43 93t98 39z" />
    <glyph glyph-name="grave" unicode="`" horiz-adv-x="485" 
d="M305 1454l166 -162q16 -14 16 -51q0 -44 -30 -72t-74 -28q-21 0 -38 6.5t-25 12.5t-29 24l-168 168q-19 27 -19 57q0 41 32 70.5t69 29.5q31 0 46.5 -8.5t37.5 -30.5z" />
    <glyph glyph-name="a" unicode="a" horiz-adv-x="1069" 
d="M922 627v-381q0 -22 6.5 -35t11 -17t24 -10t23.5 -8q47 -18 47 -78q0 -52 -34 -79t-113 -27q-59 0 -99.5 19t-74.5 67q-115 -92 -277 -92q-175 0 -269.5 87t-94.5 236v6q0 314 405 314q92 0 162 -21v66q0 141 -156 141q-58 0 -133 -33q-2 -1 -13 -5.5t-18 -7t-20 -5
t-27 -2.5q-59 0 -88.5 37t-29.5 82q0 44 30.5 77.5t81.5 53t111.5 29.5t126.5 10q218 0 318 -106t100 -318zM494 430q-82 0 -112 -31.5t-30 -85.5v-6q0 -50 30 -72t97 -22q91 0 160 53v148q-82 16 -145 16z" />
    <glyph glyph-name="b" unicode="b" horiz-adv-x="1095" 
d="M414 780v-450q0 -57 41.5 -90t113.5 -33q75 0 113.5 36.5t38.5 102.5v375q0 117 -141 117q-102 0 -166 -58zM131 330v1024q0 52 38 88.5t103 36.5t103.5 -36.5t38.5 -88.5v-361q103 58 223 58q186 0 276.5 -93t90.5 -247v-344q0 -169 -113 -275t-324 -106
q-202 0 -319 97.5t-117 246.5z" />
    <glyph glyph-name="c" unicode="c" horiz-adv-x="907" 
d="M92 377v276q0 174 107 282.5t317 108.5q54 0 107.5 -7.5t111.5 -25t94.5 -55t36.5 -90.5q0 -44 -28.5 -74t-98.5 -30q-32 0 -67 12q-7 3 -24 9.5t-26.5 10t-24.5 7.5t-31 6t-34 2q-157 0 -157 -156v-276q0 -156 157 -156q18 0 33.5 1.5t32.5 6.5t24 7.5t27 10.5t23 9
q30 12 63 12q72 0 101.5 -30.5t29.5 -73.5q0 -42 -25 -74.5t-63 -51.5t-87.5 -31.5t-92 -16.5t-84.5 -4q-106 0 -187.5 30t-132 83.5t-76.5 123.5t-26 154z" />
    <glyph glyph-name="d" unicode="d" horiz-adv-x="1101" 
d="M481 1042q90 0 181 -38v350q0 54 37.5 89.5t103.5 35.5q65 0 103 -36t38 -89v-1090q0 -22 8 -35t31 -36q29 -29 29 -70q0 -58 -40.5 -91.5t-92.5 -33.5q-69 0 -123 78q-83 -45 -149.5 -67.5t-139.5 -22.5q-176 0 -275.5 109t-99.5 292v231q0 424 389 424zM662 305v477
q-95 27 -150 27q-73 0 -105 -46.5t-32 -144.5v-231q0 -164 133 -164q65 0 158 43q-4 28 -4 39z" />
    <glyph glyph-name="e" unicode="e" horiz-adv-x="993" 
d="M532 391q-68 0 -157 12v-67q0 -54 41.5 -84.5t122.5 -30.5q82 0 184 45q26 13 61 13q66 0 96.5 -35t30.5 -78q0 -50 -42 -87.5t-107 -56.5t-126.5 -27.5t-117.5 -8.5q-198 0 -312 100.5t-114 257.5v342q0 161 114.5 263t321.5 102q196 0 299 -94.5t103 -254.5
q0 -311 -398 -311zM649 717q0 60 -30.5 87t-92.5 27q-73 0 -112 -35.5t-39 -97.5v-88q88 -8 147 -8q62 0 94.5 26t32.5 89z" />
    <glyph glyph-name="f" unicode="f" horiz-adv-x="755" 
d="M131 115v964q0 98 33 175t91 125t132.5 73t161.5 27q20 0 37.5 -1t50 -4.5t58 -13t51 -23.5t39.5 -39t14 -57q0 -56 -41 -89t-99 -33q-19 0 -60 6t-60 6q-61 0 -93 -39t-32 -98v-101h151q57 0 96 -35.5t39 -87.5t-39 -86t-96 -34h-151v-635q0 -54 -38 -88.5t-104 -34.5
t-103.5 34.5t-37.5 88.5z" />
    <glyph glyph-name="g" unicode="g" horiz-adv-x="1091" 
d="M72 -164q0 61 30 114.5t101 110.5q-43 74 -43 168q0 80 57 150q-131 110 -131 283q0 171 109.5 280t300.5 109q131 0 274 -70q40 55 88 84t92 29q54 0 93.5 -34.5t39.5 -84.5q0 -47 -32 -74q-59 -52 -76 -75.5t-17 -63.5v-115q0 -166 -112 -269.5t-328 -103.5
q-61 0 -112 11q-13 -35 -13 -47q0 -66 58 -66h86q137 0 240.5 -32.5t167 -105t63.5 -177.5q0 -161 -135 -257t-347 -96q-203 0 -328.5 90t-125.5 242zM676 788q-81 35 -146 35q-78 0 -119.5 -43t-41.5 -123q0 -161 157 -161q75 0 112.5 39t37.5 110v143zM541 -59l-150 2
q-37 -46 -37 -86q0 -58 44 -89.5t132 -31.5q89 0 142 30.5t53 83.5q0 91 -184 91z" />
    <glyph glyph-name="h" unicode="h" horiz-adv-x="1120" 
d="M412 760v-647q0 -54 -40 -90.5t-100 -36.5t-100.5 36.5t-40.5 90.5v1249q0 51 40 89t99 38q60 0 101 -36.5t41 -90.5v-367q91 56 194 56q190 0 285.5 -97t95.5 -262v-579q0 -53 -41.5 -90t-99.5 -37q-60 0 -100.5 36.5t-40.5 90.5v598q0 60 -27.5 88t-89.5 28
q-45 0 -93.5 -17.5t-82.5 -49.5z" />
    <glyph glyph-name="i" unicode="i" horiz-adv-x="583" 
d="M451 1319q0 -60 -46.5 -101.5t-113.5 -41.5t-113.5 42t-46.5 101q0 60 46.5 101.5t113.5 41.5t113.5 -42t46.5 -101zM432 920v-807q0 -54 -40.5 -90.5t-100.5 -36.5t-100.5 36.5t-40.5 90.5v807q0 51 40.5 87.5t100.5 36.5t100.5 -36.5t40.5 -87.5z" />
    <glyph glyph-name="j" unicode="j" horiz-adv-x="583" 
d="M451 1319q0 -60 -46.5 -101.5t-113.5 -41.5t-113.5 42t-46.5 101q0 60 46.5 101.5t113.5 41.5t113.5 -42t46.5 -101zM432 920v-934q0 -179 -105.5 -288.5t-283.5 -109.5q-47 0 -81.5 23.5t-45.5 62.5q-18 62 18.5 100.5t88.5 47.5q127 23 127 158v940q0 51 40.5 87.5
t100.5 36.5t100.5 -36.5t40.5 -87.5z" />
    <glyph glyph-name="k" unicode="k" horiz-adv-x="997" 
d="M414 702l282 306q34 34 97 34q59 0 98 -34t39 -86q0 -50 -39 -86h2l-250 -265l301 -397q23 -33 23 -76q-3 -51 -42 -81.5t-96 -30.5q-74 0 -116 57l-277 375l-22 -21v-284q0 -54 -41 -90.5t-101 -36.5t-100.5 36.5t-40.5 90.5v1239q0 54 40.5 90.5t100.5 36.5t101 -36.5
t41 -90.5v-650z" />
    <glyph glyph-name="l" unicode="l" horiz-adv-x="548" 
d="M328 -14q-29 0 -52.5 4t-51.5 19t-47.5 40t-32.5 70.5t-13 107.5v1125q0 52 41 89.5t100 37.5q60 0 101 -36.5t41 -90.5v-1100q0 -34 4.5 -48t25.5 -36q3 -4 11 -12.5t11 -12t7.5 -11.5t6 -16.5t1.5 -19.5q0 -55 -40 -82.5t-113 -27.5z" />
    <glyph glyph-name="m" unicode="m" horiz-adv-x="1675" 
d="M1260 113v567q0 56 -32 92.5t-87 36.5q-76 0 -164 -72q4 -36 4 -53v-571q0 -55 -36.5 -90t-104.5 -35t-105 35t-37 90v530q0 81 -22 123.5t-84 42.5q-70 0 -174 -53q2 -6 2 -23v-620q0 -55 -36.5 -90t-104.5 -35t-105 35t-37 90v620q0 32 -3 50.5t-5 22.5t-8 13
q-35 47 -35 78q0 54 39 87.5t94 33.5q65 0 109 -57q145 90 276 90q125 0 238 -90q88 47 158.5 68.5t150.5 21.5q180 0 285.5 -100.5t105.5 -266.5v-571q0 -55 -36.5 -90t-104.5 -35t-104.5 35t-36.5 90z" />
    <glyph glyph-name="n" unicode="n" horiz-adv-x="1124" 
d="M420 731v-618q0 -55 -36.5 -90t-104.5 -35t-105 35t-37 90v620q0 32 -3 50.5t-5 22.5t-8 13q-22 29 -28.5 44.5t-6.5 35.5q0 51 39 85t98 34q62 0 109 -60q134 89 270 89q189 0 288 -107.5t99 -292.5v-534q0 -54 -37.5 -89.5t-103.5 -35.5t-103.5 35.5t-37.5 89.5v534
q0 76 -36 121t-98 45q-64 0 -157 -43q4 -28 4 -39z" />
    <glyph glyph-name="o" unicode="o" horiz-adv-x="1073" 
d="M537 -14q-211 0 -328 106.5t-117 274.5v305q0 168 117 274.5t328 106.5t327.5 -106.5t116.5 -274.5v-305q0 -168 -116.5 -274.5t-327.5 -106.5zM537 227q78 0 119.5 37t41.5 103v307q0 64 -41.5 100.5t-119.5 36.5t-120 -36.5t-42 -100.5v-307q0 -66 42 -103t120 -37z
" />
    <glyph glyph-name="p" unicode="p" horiz-adv-x="1081" 
d="M598 -12q-91 0 -178 41v-338q0 -54 -37.5 -89.5t-103.5 -35.5q-65 0 -103.5 36t-38.5 89v1040q0 62 -22 96q-29 36 -29 66q0 55 41.5 90t93.5 35q60 0 107 -57q82 46 147 68t141 22q174 0 273.5 -110.5t99.5 -291.5v-237q0 -424 -391 -424zM420 731v-483q91 -27 149 -27
q74 0 106 46t32 145v237q0 80 -34 122t-100 42q-64 0 -157 -43q4 -28 4 -39z" />
    <glyph glyph-name="q" unicode="q" horiz-adv-x="1095" 
d="M682 274v426q0 51 -41 80t-111 29q-78 0 -116.5 -38t-38.5 -107v-289q0 -154 145 -154q98 0 162 53zM965 700v-968q0 -55 -37 -90t-105 -35t-104.5 35t-36.5 90v309q-87 -53 -209 -53q-103 0 -178.5 29t-119 82.5t-63.5 121.5t-20 154v289q0 172 112.5 279.5t323.5 107.5
q202 0 319.5 -99.5t117.5 -251.5z" />
    <glyph glyph-name="r" unicode="r" horiz-adv-x="772" 
d="M612 791q-61 5 -104 2t-92 -23q4 -28 4 -39v-618q0 -54 -40.5 -90.5t-100.5 -36.5t-101 36.5t-41 90.5v618q0 62 -22 96q-29 36 -29 68q0 54 41 88.5t98 34.5q59 0 109 -64q150 88 254 88q168 0 168 -122q0 -59 -42 -95.5t-102 -33.5z" />
    <glyph glyph-name="s" unicode="s" horiz-adv-x="913" 
d="M88 733q0 145 102 231.5t293 86.5q56 0 109 -8t106 -26t85 -54t32 -86q0 -41 -22.5 -66t-47 -32t-51.5 -7q-32 0 -94 21.5t-115 21.5q-118 0 -118 -74q0 -43 61 -67q26 -11 80.5 -29.5t93.5 -32.5t88 -42t80 -60t52.5 -84t21.5 -117q0 -151 -104.5 -237t-295.5 -86
q-56 0 -114 7.5t-118 24t-98 49.5t-38 78q0 47 38 84t95 37q30 0 103.5 -22.5t127.5 -22.5q58 0 91.5 20.5t33.5 61.5q0 44 -43 66q-28 15 -78 32.5t-94 31t-94 39t-85.5 56.5t-59 84t-23.5 121z" />
    <glyph glyph-name="t" unicode="t" horiz-adv-x="739" 
d="M131 426v795q0 54 37.5 89.5t103.5 35.5q65 0 103.5 -36t38.5 -89v-228h151q57 0 96 -35.5t39 -87.5t-39 -86t-96 -34h-151v-310q0 -121 20 -162.5t90 -41.5q11 0 23 1l12 1q94 0 131 -26t37 -85q0 -43 -15.5 -71t-45.5 -41.5t-61 -18t-75 -4.5q-94 0 -163 19t-114.5 53
t-72.5 89t-38 120.5t-11 152.5z" />
    <glyph glyph-name="u" unicode="u" horiz-adv-x="1124" 
d="M795 76q-127 -90 -283 -90q-182 0 -281.5 108.5t-99.5 292.5v535q0 54 37.5 88t103.5 34t104 -34t38 -88v-535q0 -164 133 -164q65 0 158 43q-5 35 -5 39v617q0 55 37 88.5t105 33.5t104.5 -33.5t36.5 -88.5v-658q0 -22 8 -35t31 -36q29 -29 29 -70q0 -58 -40.5 -91.5
t-90.5 -33.5q-71 0 -125 78z" />
    <glyph glyph-name="v" unicode="v" horiz-adv-x="962" 
d="M303 958l113 -344q16 -49 27.5 -105.5t22.5 -126t19 -106.5q8 39 19.5 107.5t22.5 125t26 105.5l106 342q13 39 52 63.5t82 24.5q57 0 98 -34t41 -88q0 -21 -4 -35l-281 -776q-25 -67 -61.5 -96t-100.5 -29q-66 0 -102.5 28t-60.5 92l-285 783q-4 14 -4 35q0 54 41 88.5
t98 34.5q42 0 80 -25t51 -64z" />
    <glyph glyph-name="w" unicode="w" horiz-adv-x="1423" 
d="M838 88l-86 328q-10 37 -16.5 77t-13 94.5t-9.5 78.5q-3 -20 -10 -77.5t-13.5 -96.5t-15.5 -76l-84 -328q-15 -54 -53 -78t-103 -24q-123 0 -162 123l-237 786q-4 10 -4 27q0 48 41 85t100 37q46 0 83.5 -24.5t49.5 -67.5l88 -338q12 -45 19 -97t12 -115.5t10 -98.5
q5 35 12 98.5t15 115.5t20 97l82 326q13 46 53 75t99 29q58 0 97 -29t50 -75l80 -326q11 -45 19.5 -97t16.5 -117.5t13 -98.5q5 36 10 99.5t12 116t19 97.5l88 338q10 38 49.5 65t83.5 27q57 0 98.5 -35.5t41.5 -88.5l-1 -9q-1 -9 -1 -12l-238 -793q-20 -63 -55.5 -91.5
t-106.5 -28.5q-55 0 -97.5 27t-55.5 75z" />
    <glyph glyph-name="x" unicode="x" horiz-adv-x="964" 
d="M649 526l264 -348q21 -26 21 -63q0 -54 -40 -91.5t-103 -37.5q-47 0 -73 16t-56 57q-37 53 -91 125.5t-90 122.5q-176 -240 -190 -260q-46 -61 -117 -61q-61 0 -102 35.5t-41 91.5q0 35 20 61q46 63 133 176.5t133 175.5q-238 317 -245 326q-25 28 -25 66q0 52 41 89
t100 37q28 0 50.5 -7t41 -23.5t26 -26t24.5 -31.5l155 -211l164 228q26 36 53.5 53.5t73.5 17.5q52 0 95.5 -35.5t43.5 -86.5q0 -41 -20 -66z" />
    <glyph glyph-name="y" unicode="y" horiz-adv-x="970" 
d="M555 614l111 344q13 42 50.5 64t82.5 22q56 0 98.5 -35t42.5 -89q0 -22 -6 -37l-250 -729q-79 -232 -123 -319q-81 -160 -199 -215q-77 -36 -180 -36q-62 0 -102.5 34.5t-40.5 88.5q0 48 37 84t98 39q66 3 106 54.5t78 174.5l-315 813q-10 25 -10 52q0 52 40.5 86
t100.5 34q43 0 77.5 -22t51.5 -64l129 -344q17 -43 38 -127.5t28 -107.5q5 23 16 73.5t20.5 89.5t20.5 72z" />
    <glyph glyph-name="z" unicode="z" horiz-adv-x="888" 
d="M864 907q0 -46 -28 -84l-443 -581h338q58 0 97.5 -35t39.5 -86t-39.5 -86t-97.5 -35h-567q-58 0 -101 38t-43 93q0 42 25 76l444 586h-313q-57 0 -96 34.5t-39 85.5q0 52 39 86.5t96 34.5h543q61 0 103 -34.5t42 -92.5z" />
    <glyph glyph-name="braceleft" unicode="{" horiz-adv-x="894" 
d="M164 373q-24 2 -40.5 6.5t-37.5 16.5t-32 37.5t-11 64.5q0 40 12 66t34.5 37.5t37 15.5t37.5 6q25 3 37.5 6.5t28.5 14.5t23.5 34t10.5 61q2 24 7.5 117.5t15.5 245.5q9 133 115 208.5t274 75.5q28 0 50 -2.5t47 -10.5t41 -22.5t27 -41t11 -62.5q0 -44 -15.5 -71t-39 -34
t-50.5 -9t-51 4q-32 4 -49 4q-31 0 -56 -18.5t-26 -49.5q-1 -8 -4 -78t-6.5 -144.5t-7.5 -107.5q-9 -79 -55.5 -139t-141.5 -106q186 -91 195 -248l20 -330q1 -28 27.5 -47.5t52.5 -17.5q2 0 26 2t27 2q22 2 32 2t32.5 -1t34.5 -8t27 -18.5t21.5 -33.5t6.5 -52
q0 -45 -15 -74.5t-43 -43t-55 -18.5t-63 -5q-163 0 -272.5 78t-116.5 206l-23 367q-2 38 -12.5 63t-28.5 35t-29.5 13t-29.5 4z" />
    <glyph glyph-name="bar" unicode="|" horiz-adv-x="546" 
d="M137 -328v1749q0 50 39.5 87.5t95.5 37.5t96 -37.5t40 -87.5v-1749q0 -51 -39.5 -88t-96.5 -37t-96 37t-39 88z" />
    <glyph glyph-name="braceright" unicode="}" horiz-adv-x="894" 
d="M741 373q-21 -2 -35 -6t-29.5 -15t-24.5 -34.5t-11 -59.5l-23 -367q-7 -126 -116 -205t-273 -79q-28 0 -50 2.5t-47 11.5t-41 24t-27 41.5t-11 63.5q0 32 9 53.5t20.5 33t35 17t41 6.5t50.5 1q29 -4 49 -4q40 0 60 18t22 45l20 330q9 157 195 248q-89 41 -140.5 106.5
t-56.5 138.5q-6 76 -9.5 137t-4.5 92t-1.5 52.5t-1 31.5t-1.5 17q-4 32 -26.5 50t-53.5 18q-19 0 -51 -4q-24 -6 -51 -4t-50.5 9t-39 34t-15.5 71q0 36 11 62.5t27 41t41 22.5t47 10.5t50 2.5q168 0 274 -75.5t115 -208.5q8 -110 12.5 -186t6 -101.5t2.5 -43.5t2 -32
q3 -38 10.5 -61t23.5 -34t28.5 -14.5t37.5 -6.5q23 -2 37.5 -6t37 -15.5t34.5 -37.5t12 -66t-11.5 -66t-34 -37.5t-37.5 -15.5t-38 -6z" />
    <glyph glyph-name="asciitilde" unicode="~" horiz-adv-x="1015" 
d="M891 707q0 -73 -72 -127t-149 -54q-56 0 -107.5 23t-94.5 48t-71 28q-20 3 -36.5 -5t-28.5 -21.5t-23.5 -27.5t-30 -24t-40.5 -10q-40 0 -75 28.5t-38 71.5q0 84 64.5 140.5t150.5 56.5q60 0 112.5 -25t93 -49.5t70.5 -24.5q21 0 37 9.5t27 22.5t22.5 26t28.5 22.5
t39 9.5q48 0 84.5 -33.5t36.5 -84.5z" />
    <glyph glyph-name="exclamdown" unicode="&#xa1;" horiz-adv-x="546" 
d="M129 -307l21 862q0 48 35 81.5t87 33.5q47 0 84.5 -34.5t38.5 -80.5l21 -862q0 -53 -43 -93t-101 -40q-59 0 -101 40t-42 93zM446 881q0 -64 -50.5 -111t-119.5 -47q-72 0 -122 46.5t-50 111.5t50.5 112t121.5 47q69 0 119.5 -47t50.5 -112z" />
    <glyph glyph-name="cent" unicode="&#xa2;" horiz-adv-x="907" 
d="M92 438v174q0 167 99 275t294 117v88q0 22 15.5 37.5t38.5 15.5t38 -15.5t15 -37.5v-93q66 -7 118.5 -23t94 -55t41.5 -96q0 -44 -28.5 -74t-98.5 -30q-33 0 -68 12l-59 25v-467q18 5 59 26q33 13 64 13q72 0 101.5 -31.5t29.5 -73.5t-23 -75t-62 -52.5t-80 -30.5
t-89 -16v-108q0 -22 -15 -38t-38 -16t-38.5 16t-15.5 38v104q-194 7 -293.5 115t-99.5 276zM375 438q0 -131 110 -151v477q-110 -23 -110 -152v-174z" />
    <glyph glyph-name="yen" unicode="&#xa5;" horiz-adv-x="1105" 
d="M205 756h104l-262 514q-12 28 -12 59q0 53 44.5 93t100.5 40q35 0 67 -15.5t50 -45.5l256 -508l254 508q35 61 119 61q56 0 100.5 -40t44.5 -93q0 -17 -14 -59l-262 -514h102q31 0 55.5 -22t24.5 -54t-23 -54t-57 -22h-180l-19 -39v-76h199q32 0 56 -22t24 -53
q0 -32 -23 -54t-57 -22h-199v-221q0 -50 -34.5 -88t-88.5 -45q-16 -4 -24 -4q-19 0 -31 6q-49 9 -80.5 46t-31.5 85v221h-203q-34 0 -57 22t-23 54q0 31 24 53t56 22h203v76l-21 39h-182q-34 0 -57 22t-23 54t24.5 54t55.5 22z" />
    <glyph glyph-name="dieresis" unicode="&#xa8;" horiz-adv-x="907" 
d="M797 1290q0 -54 -38.5 -91.5t-94.5 -37.5q-55 0 -95.5 38t-40.5 91q0 51 40.5 88t95.5 37q56 0 94.5 -36.5t38.5 -88.5zM430 1290q0 -54 -39 -91.5t-96 -37.5q-55 0 -93 38t-38 91q0 51 38 88t93 37q57 0 96 -36t39 -89z" />
    <glyph glyph-name="copyright" unicode="&#xa9;" horiz-adv-x="1515" 
d="M1384 641q0 -195 -71 -342.5t-213.5 -232t-341.5 -84.5t-342 84.5t-214 232t-71 342.5t71 342.5t214 232t342 84.5t341.5 -84.5t213.5 -232t71 -342.5zM1262 641q0 242 -132.5 389.5t-371.5 147.5t-371.5 -147.5t-132.5 -389.5t132.5 -389.5t371.5 -147.5t371.5 147.5
t132.5 389.5zM463 580v125q0 134 78 217.5t235 83.5q36 0 75 -6t79.5 -19t67 -38t26.5 -58q0 -30 -22 -53t-54 -23q-6 0 -26 4q-66 39 -131 39q-140 0 -140 -147v-125q0 -74 33.5 -111t106.5 -37q10 0 20.5 1t18 2t18 4t15.5 4.5t16 6t13.5 6t15 7t14.5 6.5q15 6 26 6
q32 0 54 -23.5t22 -54.5q0 -32 -26.5 -56.5t-67 -37t-79.5 -18.5t-75 -6q-157 0 -235 83t-78 218z" />
    <glyph glyph-name="guillemotleft" unicode="&#xab;" horiz-adv-x="882" 
d="M270 528l287 -426q10 -15 10 -34q0 -35 -23 -59.5t-59 -24.5q-26 0 -41.5 12t-35.5 43l-324 485l311 469q17 28 33.5 41t42.5 13q29 0 53.5 -22.5t24.5 -53.5q0 -24 -10 -39zM598 524l190 -291q11 -17 11 -38q0 -31 -24.5 -53.5t-53.5 -22.5q-26 0 -42.5 13t-33.5 40
l-233 352l233 353q17 27 33.5 40t42.5 13q29 0 53.5 -22.5t24.5 -53.5q0 -23 -11 -39z" />
    <glyph glyph-name="registered" unicode="&#xae;" horiz-adv-x="1433" 
d="M1303 866q0 -177 -66 -310.5t-200 -210.5t-320 -77t-320 77t-200 210.5t-66 310.5q0 183 66 321t200 218t320 80t320 -80t200 -218t66 -321zM1180 866q0 224 -121 360t-342 136t-342 -136t-121 -360q0 -215 121 -345t342 -130t342 130t121 345zM965 995q0 -124 -109 -174
l121 -184q20 -25 8 -53.5t-55 -28.5q-74 0 -111 49l-125 193h-35v-170q0 -28 -26 -50t-58 -22q-31 0 -55 21t-24 51v481q0 35 27 62.5t61 27.5h137q125 0 184.5 -59t59.5 -144zM801 995q0 62 -64 62h-78v-121h84q58 0 58 59z" />
    <glyph glyph-name="macron" unicode="&#xaf;" horiz-adv-x="907" 
d="M844 1290q0 -44 -33.5 -74t-81.5 -30h-551q-50 0 -83.5 30t-33.5 74q0 43 34 74t83 31h551q47 0 81 -31t34 -74z" />
    <glyph glyph-name="degree" unicode="&#xb0;" horiz-adv-x="802" 
d="M401 893q-135 0 -211.5 81t-76.5 206t76 205.5t212 80.5t212.5 -80.5t76.5 -205.5t-76.5 -206t-212.5 -81zM401 1036q136 0 136 148q0 139 -136 139q-135 0 -135 -139q0 -148 135 -148z" />
    <glyph glyph-name="plusminus" unicode="&#xb1;" horiz-adv-x="1105" 
d="M412 412v264h-246q-60 0 -100.5 37.5t-40.5 93.5q0 54 42.5 91.5t98.5 37.5h246v264q0 52 41 91.5t100 39.5q60 0 100.5 -37.5t40.5 -93.5v-264h246q56 0 98.5 -37.5t42.5 -91.5q0 -56 -40.5 -93.5t-100.5 -37.5h-246v-264q0 -55 -40.5 -92t-100.5 -37q-59 0 -100 39
t-41 90zM940 0h-774q-60 0 -100.5 37.5t-40.5 93.5q0 54 42.5 91.5t98.5 37.5h774q56 0 98.5 -37.5t42.5 -91.5q0 -56 -40.5 -93.5t-100.5 -37.5z" />
    <glyph glyph-name="twosuperior" unicode="&#xb2;" 
d="M516 866q0 -26 -20.5 -44.5t-51.5 -18.5h-335q-32 0 -53 19t-21 48t8 48q19 42 55 86.5t57 64t76 70.5q3 3 34.5 30t41 37t29.5 33.5t27.5 43.5t7.5 42q0 40 -25.5 66t-71.5 26t-86 -16l-28 -14t-45 -13q-27 0 -48.5 17.5t-21.5 44.5t24 48.5t60.5 33.5t74 18t70.5 6
q109 0 173.5 -59t64.5 -148q0 -109 -82 -194q-21 -23 -101 -95t-112 -116h227q31 0 51.5 -18t20.5 -46z" />
    <glyph glyph-name="threesuperior" unicode="&#xb3;" 
d="M471 1409l-139 -166q81 -14 129.5 -68.5t48.5 -136.5q0 -43 -15.5 -85t-45.5 -78t-80.5 -58t-114.5 -22q-24 0 -54 3.5t-68 13t-63.5 30.5t-25.5 51q0 25 19.5 44t48.5 19q18 0 59.5 -19t79.5 -19q61 0 89 34t28 80q0 94 -117 94q-14 0 -26.5 -5t-24.5 -5q-28 0 -48 19.5
t-20 48.5q0 16 8 24l152 185h-164q-31 0 -51.5 18.5t-20.5 46.5t21 48t51 20h285q33 0 54 -20t21 -50q0 -28 -16 -47z" />
    <glyph glyph-name="acute" unicode="&#xb4;" horiz-adv-x="647" 
d="M197 1292l165 162l17 16q15 15 23.5 21.5t23.5 12t37 5.5q37 0 68.5 -29.5t31.5 -70.5q0 -31 -18 -57l-168 -168q-21 -18 -29 -24t-25 -12.5t-38 -6.5q-44 0 -74.5 28.5t-30.5 71.5q0 28 17 51z" />
    <glyph glyph-name="periodcentered" unicode="&#xb7;" horiz-adv-x="604" 
d="M467 573q0 -66 -50 -111.5t-122 -45.5q-70 0 -120 46t-50 111q0 64 50.5 111t119.5 47q72 0 122 -46.5t50 -111.5z" />
    <glyph glyph-name="cedilla" unicode="&#xb8;" horiz-adv-x="698" 
d="M565 -242q0 -88 -64.5 -144t-168.5 -56q-95 0 -170.5 31.5t-75.5 88.5q0 27 19.5 43.5t50.5 16.5q18 0 69.5 -9.5t79.5 -9.5q96 0 96 45q0 23 -25 35t-91 23q-56 11 -67 17q-28 17 -25 79l28 172h160l-21 -158q205 -17 205 -174z" />
    <glyph glyph-name="onesuperior" unicode="&#xb9;" 
d="M266 860v498l-80 -49q-38 -23 -61 -23q-26 0 -46 15t-20 45q0 40 33 57l203 119q21 12 39 12q32 0 54 -20.5t22 -49.5v-604q0 -26 -21.5 -45.5t-50.5 -19.5t-50.5 19.5t-21.5 45.5z" />
    <glyph glyph-name="ordmasculine" unicode="&#xba;" horiz-adv-x="868" 
d="M434 653q-169 0 -260.5 91.5t-91.5 236.5v152q0 145 91.5 237t260.5 92t260.5 -92t91.5 -237v-152q0 -145 -91.5 -236.5t-260.5 -91.5zM434 1231q-49 0 -70.5 -27t-21.5 -80v-147q0 -44 23 -69t69 -25t69 25t23 69v147q0 53 -21.5 80t-70.5 27z" />
    <glyph glyph-name="guillemotright" unicode="&#xbb;" horiz-adv-x="882" 
d="M326 102l286 426l-268 404q-10 15 -10 39q0 31 24.5 53.5t53.5 22.5q26 0 42 -13t33 -41l312 -469l-324 -485q-20 -31 -36 -43t-42 -12q-36 0 -59 24.5t-23 59.5q0 18 11 34zM94 233l191 291l-191 291q-10 15 -10 39q0 31 24.5 53.5t53.5 22.5q26 0 42.5 -13t33.5 -40
l233 -353l-233 -352q-17 -27 -33.5 -40t-42.5 -13q-29 0 -53.5 22.5t-24.5 53.5q0 23 10 38z" />
    <glyph glyph-name="questiondown" unicode="&#xbf;" horiz-adv-x="1028" 
d="M356 483q17 17 17 64q3 58 45 94.5t98 36.5q55 0 99 -36.5t44 -106.5q0 -122 -159 -285q-79 -81 -108 -126q-54 -81 -54 -157q0 -77 52 -127.5t151 -50.5q94 0 161 33q14 6 37.5 22t44 24.5t45.5 8.5q53 0 95.5 -35.5t42.5 -89.5q0 -53 -45 -96t-115 -67.5t-144.5 -37
t-142.5 -12.5q-210 0 -337.5 118t-127.5 312q0 112 43 200t119 171q40 43 85 88t54 55zM346 885q0 65 51 112t121 47t120 -47t50 -112t-50 -111.5t-120 -46.5t-121 46.5t-51 111.5z" />
    <glyph glyph-name="Agrave" unicode="&#xc0;" horiz-adv-x="1206" 
d="M381 285l-68 -207q-14 -42 -55 -69t-80 -27q-61 0 -104 37t-43 94q0 30 6 45l399 1165q23 67 60.5 103t105.5 36q69 0 106.5 -35.5t61.5 -103.5l399 -1165q7 -17 7 -45q0 -58 -42 -94.5t-106 -36.5q-41 0 -83 27.5t-56 68.5l-72 207h-436zM743 518l-104 350
q-20 64 -37 201q-17 -137 -37 -201l-108 -350h286zM545 1864l166 -162q16 -14 16 -51q0 -44 -30 -72t-74 -28q-21 0 -38 6.5t-25 12.5t-29 24l-168 168q-19 27 -19 57q0 41 32 70.5t69 29.5q31 0 46.5 -8.5t37.5 -30.5z" />
    <glyph glyph-name="Aacute" unicode="&#xc1;" horiz-adv-x="1206" 
d="M381 285l-68 -207q-14 -42 -55 -69t-80 -27q-61 0 -104 37t-43 94q0 30 6 45l399 1165q23 67 60.5 103t105.5 36q69 0 106.5 -35.5t61.5 -103.5l399 -1165q7 -17 7 -45q0 -58 -42 -94.5t-106 -36.5q-41 0 -83 27.5t-56 68.5l-72 207h-436zM743 518l-104 350
q-20 64 -37 201q-17 -137 -37 -201l-108 -350h286zM514 1702l166 162l16 16q15 15 23.5 21.5t23.5 12t37 5.5q37 0 69 -29.5t32 -70.5q0 -31 -19 -58l-168 -168q-21 -18 -29 -24t-25 -12.5t-38 -6.5q-43 0 -73.5 28.5t-30.5 72.5q0 30 16 51z" />
    <glyph glyph-name="Acircumflex" unicode="&#xc2;" horiz-adv-x="1206" 
d="M381 285l-68 -207q-14 -42 -55 -69t-80 -27q-61 0 -104 37t-43 94q0 30 6 45l399 1165q23 67 60.5 103t105.5 36q69 0 106.5 -35.5t61.5 -103.5l399 -1165q7 -17 7 -45q0 -58 -42 -94.5t-106 -36.5q-41 0 -83 27.5t-56 68.5l-72 207h-436zM743 518l-104 350
q-20 64 -37 201q-17 -137 -37 -201l-108 -350h286zM602 1876q43 0 76 -26l161 -125q53 -47 56 -92q0 -38 -31 -66.5t-72 -28.5q-19 0 -39 8t-41.5 24.5t-36.5 29.5t-39 37t-34 33q-9 -9 -34 -33t-39.5 -37t-36.5 -30t-42 -24.5t-39 -7.5q-41 0 -71.5 28.5t-30.5 66.5
q3 46 55 92l162 125q33 26 76 26z" />
    <glyph glyph-name="Atilde" unicode="&#xc3;" horiz-adv-x="1206" 
d="M381 285l-68 -207q-14 -42 -55 -69t-80 -27q-61 0 -104 37t-43 94q0 30 6 45l399 1165q23 67 60.5 103t105.5 36q69 0 106.5 -35.5t61.5 -103.5l399 -1165q7 -17 7 -45q0 -58 -42 -94.5t-106 -36.5q-41 0 -83 27.5t-56 68.5l-72 207h-436zM743 518l-104 350
q-20 64 -37 201q-17 -137 -37 -201l-108 -350h286zM922 1726q0 -61 -60 -105t-125 -44q-47 0 -90 18.5t-78.5 39.5t-58.5 24q-20 3 -37 -8t-27 -26t-28 -27.5t-41 -12.5q-34 0 -62 23.5t-32 60.5q0 69 54.5 116.5t125.5 47.5q49 0 93 -20.5t77.5 -41t58.5 -20.5
q21 0 37 11.5t25.5 25.5t26.5 25.5t40 11.5q40 0 70.5 -28.5t30.5 -70.5z" />
    <glyph glyph-name="Adieresis" unicode="&#xc4;" horiz-adv-x="1206" 
d="M381 285l-68 -207q-14 -42 -55 -69t-80 -27q-61 0 -104 37t-43 94q0 30 6 45l399 1165q23 67 60.5 103t105.5 36q69 0 106.5 -35.5t61.5 -103.5l399 -1165q7 -17 7 -45q0 -58 -42 -94.5t-106 -36.5q-41 0 -83 27.5t-56 68.5l-72 207h-436zM743 518l-104 350
q-20 64 -37 201q-17 -137 -37 -201l-108 -350h286zM920 1700q0 -54 -38.5 -91.5t-94.5 -37.5q-55 0 -95.5 38t-40.5 91q0 51 40.5 88t95.5 37q56 0 94.5 -36.5t38.5 -88.5zM553 1700q0 -54 -39 -91.5t-96 -37.5q-55 0 -93 38t-38 91q0 51 38 88t93 37q57 0 96 -36t39 -89z
" />
    <glyph glyph-name="Aring" unicode="&#xc5;" horiz-adv-x="1206" 
d="M381 285l-68 -207q-14 -42 -55 -69t-80 -27q-61 0 -104 37t-43 94q0 30 6 45l401 1171q-59 65 -59 154q0 92 65.5 157.5t159.5 65.5q93 0 158 -66t65 -157q0 -92 -59 -154l401 -1171q7 -17 7 -45q0 -58 -42 -94.5t-106 -36.5q-41 0 -83 27.5t-56 68.5l-72 207h-436z
M743 518l-104 350q-20 64 -37 201q-17 -137 -37 -201l-108 -350h286zM694 1483q0 37 -26.5 64.5t-63.5 27.5t-63.5 -27.5t-26.5 -64.5q0 -38 26.5 -64t63.5 -26t63.5 26t26.5 64z" />
    <glyph glyph-name="AE" unicode="&#xc6;" horiz-adv-x="1581" 
d="M930 0q-84 0 -137.5 34t-53.5 111v140h-356l-68 -205q-14 -42 -55.5 -70t-81.5 -28q-64 0 -105.5 36.5t-41.5 94.5q0 30 6 45l395 1147q23 60 64.5 99.5t101.5 39.5h772q59 0 101 -39t42 -94q0 -54 -42 -90.5t-101 -36.5h-344v-330h305q56 0 99 -37.5t43 -91.5
q0 -55 -41 -93t-101 -38h-305v-334h365q57 0 100 -37.5t43 -89.5q0 -55 -42 -94t-101 -39h-461zM739 1184h-16q-41 0 -53 -39l-209 -627h278v666z" />
    <glyph glyph-name="Ccedilla" unicode="&#xc7;" horiz-adv-x="1069" 
d="M858 -242q0 -88 -64.5 -144t-168.5 -56q-95 0 -170.5 31.5t-75.5 88.5q0 27 19.5 43.5t50.5 16.5q18 0 69.5 -9.5t79.5 -9.5q96 0 96 45q0 23 -25 35t-91 23q-56 11 -67 17q-29 17 -26 79l13 72q-214 26 -320 164.5t-106 365.5v406q0 251 130.5 393.5t391.5 142.5
q107 0 205 -29.5t158.5 -80.5t60.5 -109q0 -50 -38.5 -86.5t-96.5 -36.5q-14 0 -24.5 1.5t-20 5t-14 6t-15 9.5t-14.5 9l-21 12q-76 49 -170 49q-132 0 -189 -73t-57 -213v-406q0 -140 57 -213.5t189 -73.5q93 0 170 50l21 12q4 2 14.5 9t15 9.5t14 6t20 5t24.5 1.5
q58 0 96.5 -36.5t38.5 -86.5q0 -78 -106 -140.5t-253 -74.5l-6 -56q205 -17 205 -174z" />
    <glyph glyph-name="Egrave" unicode="&#xc8;" horiz-adv-x="1052" 
d="M1006 133q0 -55 -42.5 -94t-101.5 -39h-543q-84 0 -137 34t-53 111v1153q0 56 46.5 101t111.5 45h555q58 0 100.5 -39.5t42.5 -93.5q0 -55 -42 -91t-101 -36h-426v-330h387q56 0 98.5 -37.5t42.5 -91.5q0 -56 -40.5 -93.5t-100.5 -37.5h-387v-334h446q58 0 101 -37.5
t43 -89.5zM534 1864l166 -162q16 -14 16 -51q0 -44 -30 -72t-74 -28q-21 0 -38 6.5t-25 12.5t-29 24l-168 168q-19 27 -19 57q0 41 32 70.5t69 29.5q31 0 46.5 -8.5t37.5 -30.5z" />
    <glyph glyph-name="Eacute" unicode="&#xc9;" horiz-adv-x="1052" 
d="M1006 133q0 -55 -42.5 -94t-101.5 -39h-543q-84 0 -137 34t-53 111v1153q0 56 46.5 101t111.5 45h555q58 0 100.5 -39.5t42.5 -93.5q0 -55 -42 -91t-101 -36h-426v-330h387q56 0 98.5 -37.5t42.5 -91.5q0 -56 -40.5 -93.5t-100.5 -37.5h-387v-334h446q58 0 101 -37.5
t43 -89.5zM485 1702l166 162l17 16q15 15 23.5 21.5t23.5 12t37 5.5q37 0 68.5 -29.5t31.5 -70.5q0 -32 -18 -58l-168 -168q-20 -17 -29 -24t-26 -13t-38 -6q-43 0 -73.5 28.5t-30.5 72.5q0 30 16 51z" />
    <glyph glyph-name="Ecircumflex" unicode="&#xca;" horiz-adv-x="1052" 
d="M1006 133q0 -55 -42.5 -94t-101.5 -39h-543q-84 0 -137 34t-53 111v1153q0 56 46.5 101t111.5 45h555q58 0 100.5 -39.5t42.5 -93.5q0 -55 -42 -91t-101 -36h-426v-330h387q56 0 98.5 -37.5t42.5 -91.5q0 -56 -40.5 -93.5t-100.5 -37.5h-387v-334h446q58 0 101 -37.5
t43 -89.5zM584 1876q43 0 76 -26l161 -125q53 -47 56 -92q0 -38 -31 -66.5t-72 -28.5q-19 0 -39 8t-41.5 24.5t-36.5 29.5t-39 37t-34 33q-9 -9 -34 -33t-39.5 -37t-36.5 -30t-42 -24.5t-39 -7.5q-41 0 -71.5 28.5t-30.5 66.5q3 46 55 92l162 125q33 26 76 26z" />
    <glyph glyph-name="Edieresis" unicode="&#xcb;" horiz-adv-x="1052" 
d="M1006 133q0 -55 -42.5 -94t-101.5 -39h-543q-84 0 -137 34t-53 111v1153q0 56 46.5 101t111.5 45h555q58 0 100.5 -39.5t42.5 -93.5q0 -55 -42 -91t-101 -36h-426v-330h387q56 0 98.5 -37.5t42.5 -91.5q0 -56 -40.5 -93.5t-100.5 -37.5h-387v-334h446q58 0 101 -37.5
t43 -89.5zM893 1700q0 -54 -38.5 -91.5t-94.5 -37.5q-55 0 -95 38t-40 91q0 51 40 88t95 37q56 0 94.5 -36.5t38.5 -88.5zM526 1700q0 -54 -39 -91.5t-96 -37.5q-55 0 -93 38t-38 91q0 51 38 88t93 37q57 0 96 -36t39 -89z" />
    <glyph glyph-name="Igrave" unicode="&#xcc;" horiz-adv-x="546" 
d="M129 113v1218q0 53 42 92t101 39q58 0 101 -39t43 -92v-1218q0 -53 -43 -92t-101 -39q-59 0 -101 39t-42 92zM215 1864l166 -162q16 -14 16 -51q0 -44 -30 -72t-74 -28q-21 0 -38 6.5t-25 12.5t-29 24l-168 168q-19 27 -19 57q0 41 32 70.5t69 29.5q31 0 46.5 -8.5
t37.5 -30.5z" />
    <glyph glyph-name="Iacute" unicode="&#xcd;" horiz-adv-x="546" 
d="M129 113v1218q0 53 42 92t101 39q58 0 101 -39t43 -92v-1218q0 -53 -43 -92t-101 -39q-59 0 -101 39t-42 92zM168 1702l166 162l16 16q15 15 23.5 21.5t23.5 12t37 5.5q37 0 69 -29.5t32 -70.5q0 -31 -19 -58l-168 -168q-21 -18 -29 -24t-25 -12.5t-38 -6.5
q-43 0 -73.5 28.5t-30.5 72.5q0 30 16 51z" />
    <glyph glyph-name="Icircumflex" unicode="&#xce;" horiz-adv-x="546" 
d="M129 113v1218q0 53 42 92t101 39q58 0 101 -39t43 -92v-1218q0 -53 -43 -92t-101 -39q-59 0 -101 39t-42 92zM275 1876q43 0 76 -26l161 -125q53 -47 56 -92q0 -38 -31 -66.5t-72 -28.5q-19 0 -39 8t-41.5 24.5t-36.5 29.5t-39 37t-34 33q-9 -9 -34 -33t-39.5 -37
t-36.5 -30t-42 -24.5t-39 -7.5q-41 0 -71.5 28.5t-30.5 66.5q3 46 55 92l162 125q33 26 76 26z" />
    <glyph glyph-name="Idieresis" unicode="&#xcf;" horiz-adv-x="546" 
d="M129 113v1218q0 53 42 92t101 39q58 0 101 -39t43 -92v-1218q0 -53 -43 -92t-101 -39q-59 0 -101 39t-42 92zM590 1700q0 -54 -38.5 -91.5t-94.5 -37.5q-55 0 -95 38t-40 91q0 51 40 88t95 37q56 0 94.5 -36.5t38.5 -88.5zM223 1700q0 -54 -39 -91.5t-96 -37.5
q-55 0 -93 38t-38 91q0 51 38 88t93 37q57 0 96 -36t39 -89z" />
    <glyph glyph-name="Eth" unicode="&#xd0;" horiz-adv-x="1261" 
d="M1190 555q0 -90 -19.5 -169t-66 -151t-117 -123t-178 -81.5t-242.5 -30.5h-231q-65 0 -112.5 43.5t-47.5 103.5v451h-18q-58 0 -98 36t-40 89q0 52 40 89.5t98 37.5h18v446q0 60 47.5 104t112.5 44h231q135 0 242 -29t177.5 -78t117 -118t66.5 -146t20 -166v-352z
M803 723q0 -53 -39 -89t-96 -36h-205v-338h139q158 0 229.5 81t71.5 214v352q0 126 -72 201.5t-229 75.5h-139v-334h205q56 0 95.5 -37.5t39.5 -89.5z" />
    <glyph glyph-name="Ntilde" unicode="&#xd1;" horiz-adv-x="1310" 
d="M1028 -18q-40 0 -78.5 19.5t-58.5 51.5l-475 828v-766q0 -54 -43.5 -93.5t-102.5 -39.5t-100 39t-41 94v1208q0 60 42.5 99.5t107.5 39.5q41 0 79 -21t60 -55q113 -196 475 -831v774q0 54 43 93.5t102 39.5t100.5 -39t41.5 -94v-1208q0 -58 -43 -98.5t-109 -40.5z
M975 1727q0 -61 -60 -105.5t-124 -44.5q-47 0 -90.5 18.5t-79 39.5t-58.5 24q-20 3 -37 -8t-27 -25.5t-28 -27t-41 -12.5q-34 0 -62 23.5t-32 60.5q0 69 54.5 116t125.5 47q49 0 93 -20.5t77.5 -41t58.5 -20.5q21 0 37 11.5t25.5 25.5t26.5 25.5t40 11.5q40 0 70.5 -28.5
t30.5 -69.5z" />
    <glyph glyph-name="Ograve" unicode="&#xd2;" horiz-adv-x="1249" 
d="M625 -18q-129 0 -232 42t-168 115.5t-99 170.5t-34 210v406q0 89 18.5 167.5t59.5 147t102 117t151 76.5t202 28t202 -28t151 -76.5t102 -117t59 -146.5t18 -168v-406q0 -113 -34 -210t-99 -170.5t-167.5 -115.5t-231.5 -42zM625 1202q-246 0 -246 -276v-406
q0 -128 62 -203t184 -75t183.5 75t61.5 203v406q0 276 -245 276zM553 1864l166 -162q16 -14 16 -51q0 -44 -30 -72t-74 -28q-21 0 -38 6.5t-25 12.5t-29 24l-168 168q-19 27 -19 57q0 41 32 70.5t69 29.5q31 0 46.5 -8.5t37.5 -30.5z" />
    <glyph glyph-name="Oacute" unicode="&#xd3;" horiz-adv-x="1249" 
d="M625 -18q-129 0 -232 42t-168 115.5t-99 170.5t-34 210v406q0 89 18.5 167.5t59.5 147t102 117t151 76.5t202 28t202 -28t151 -76.5t102 -117t59 -146.5t18 -168v-406q0 -113 -34 -210t-99 -170.5t-167.5 -115.5t-231.5 -42zM625 1202q-246 0 -246 -276v-406
q0 -128 62 -203t184 -75t183.5 75t61.5 203v406q0 276 -245 276zM506 1702l166 162l16 16q15 15 23.5 21.5t23.5 12t37 5.5q37 0 68.5 -29.5t31.5 -70.5q0 -32 -18 -58l-168 -168q-21 -18 -29 -24t-25 -12.5t-38 -6.5q-44 0 -74.5 28.5t-30.5 72.5q0 28 17 51z" />
    <glyph glyph-name="Ocircumflex" unicode="&#xd4;" horiz-adv-x="1249" 
d="M625 -18q-129 0 -232 42t-168 115.5t-99 170.5t-34 210v406q0 89 18.5 167.5t59.5 147t102 117t151 76.5t202 28t202 -28t151 -76.5t102 -117t59 -146.5t18 -168v-406q0 -113 -34 -210t-99 -170.5t-167.5 -115.5t-231.5 -42zM625 1202q-246 0 -246 -276v-406
q0 -128 62 -203t184 -75t183.5 75t61.5 203v406q0 276 -245 276zM625 1876q43 0 76 -26l161 -125q53 -47 56 -92q0 -38 -31 -66.5t-72 -28.5q-19 0 -39 8t-41.5 24.5t-36.5 29.5t-39 37t-34 33q-9 -9 -34 -33t-39.5 -37t-36.5 -30t-42 -24.5t-39 -7.5q-41 0 -71.5 28.5
t-30.5 66.5q3 46 55 92l162 125q33 26 76 26z" />
    <glyph glyph-name="Otilde" unicode="&#xd5;" horiz-adv-x="1249" 
d="M625 -18q-129 0 -232 42t-168 115.5t-99 170.5t-34 210v406q0 89 18.5 167.5t59.5 147t102 117t151 76.5t202 28t202 -28t151 -76.5t102 -117t59 -146.5t18 -168v-406q0 -113 -34 -210t-99 -170.5t-167.5 -115.5t-231.5 -42zM625 1202q-246 0 -246 -276v-406
q0 -128 62 -203t184 -75t183.5 75t61.5 203v406q0 276 -245 276zM944 1726q0 -61 -59.5 -105t-124.5 -44q-47 0 -90.5 18.5t-79 39.5t-58.5 24q-20 3 -37 -8t-27 -26t-28 -27.5t-41 -12.5q-34 0 -62 23.5t-32 60.5q0 69 54.5 116.5t125.5 47.5q49 0 93 -20.5t78 -41
t59 -20.5q21 0 37 11.5t25.5 25.5t26.5 25.5t40 11.5q39 0 69.5 -28.5t30.5 -70.5z" />
    <glyph glyph-name="Odieresis" unicode="&#xd6;" horiz-adv-x="1249" 
d="M625 -18q-129 0 -232 42t-168 115.5t-99 170.5t-34 210v406q0 89 18.5 167.5t59.5 147t102 117t151 76.5t202 28t202 -28t151 -76.5t102 -117t59 -146.5t18 -168v-406q0 -113 -34 -210t-99 -170.5t-167.5 -115.5t-231.5 -42zM625 1202q-246 0 -246 -276v-406
q0 -128 62 -203t184 -75t183.5 75t61.5 203v406q0 276 -245 276zM942 1700q0 -54 -38.5 -91.5t-94.5 -37.5q-55 0 -95.5 38t-40.5 91q0 51 40.5 88t95.5 37q56 0 94.5 -36.5t38.5 -88.5zM575 1700q0 -54 -39 -91.5t-96 -37.5q-55 0 -93 38t-38 91q0 51 38 88t93 37
q57 0 96 -36t39 -89z" />
    <glyph glyph-name="multiply" unicode="&#xd7;" horiz-adv-x="1024" 
d="M870 971l-245 -246l245 -246q25 -25 25 -57t-25 -55q-24 -24 -57 -24t-55 24l-246 245l-246 -245q-22 -24 -55 -24t-57 24q-25 23 -25 55t25 57l245 246l-245 246q-24 22 -24 55t24 57q23 25 55 25t57 -25l246 -245l246 245q25 25 57 25t55 -25q24 -24 24 -57t-24 -55z
" />
    <glyph glyph-name="Oslash" unicode="&#xd8;" horiz-adv-x="1210" 
d="M92 80l74 106q-94 134 -94 334v406q0 90 18 168t59 146.5t102 117t151 76.5t202 28q237 0 371 -121l57 82q12 19 34.5 23t41.5 -8q18 -12 21.5 -33.5t-9.5 -40.5l-73 -104q90 -136 90 -334v-406q0 -113 -34 -210t-99 -170.5t-168 -115.5t-232 -42q-229 0 -364 122
l-60 -84q-12 -18 -34.5 -22t-41.5 8q-18 12 -21.5 33.5t9.5 40.5zM604 1202q-246 0 -246 -276v-406q0 -39 2 -55l449 639q-59 98 -205 98zM850 926q0 8 -1 24.5t-1 24.5l-445 -635q63 -98 201 -98q122 0 184 75t62 203v406z" />
    <glyph glyph-name="Ugrave" unicode="&#xd9;" horiz-adv-x="1253" 
d="M1141 492q0 -226 -138 -368t-376 -142q-241 0 -377.5 142t-136.5 368v835q0 58 41.5 96.5t103.5 38.5q57 0 99 -40t42 -95v-835q0 -115 57.5 -182.5t170.5 -67.5q111 0 168 68t57 182v835q0 55 41 95t100 40q62 0 105 -40t43 -95v-835zM573 1864l166 -162q16 -14 16 -51
q0 -44 -30 -72t-74 -28q-21 0 -38 6.5t-25 12.5t-29 24l-168 168q-19 27 -19 57q0 41 32 70.5t69 29.5q31 0 46.5 -8.5t37.5 -30.5z" />
    <glyph glyph-name="Uacute" unicode="&#xda;" horiz-adv-x="1253" 
d="M1141 492q0 -226 -138 -368t-376 -142q-241 0 -377.5 142t-136.5 368v835q0 58 41.5 96.5t103.5 38.5q57 0 99 -40t42 -95v-835q0 -115 57.5 -182.5t170.5 -67.5q111 0 168 68t57 182v835q0 55 41 95t100 40q62 0 105 -40t43 -95v-835zM532 1702l166 162l17 16
q15 15 23.5 21.5t23.5 12t37 5.5q37 0 68.5 -29.5t31.5 -70.5q0 -32 -18 -58l-168 -168q-21 -18 -29 -24t-25 -12.5t-38 -6.5q-44 0 -74.5 28.5t-30.5 72.5q0 30 16 51z" />
    <glyph glyph-name="Ucircumflex" unicode="&#xdb;" horiz-adv-x="1253" 
d="M1141 492q0 -226 -138 -368t-376 -142q-241 0 -377.5 142t-136.5 368v835q0 58 41.5 96.5t103.5 38.5q57 0 99 -40t42 -95v-835q0 -115 57.5 -182.5t170.5 -67.5q111 0 168 68t57 182v835q0 55 41 95t100 40q62 0 105 -40t43 -95v-835zM627 1876q43 0 76 -26l161 -125
q53 -47 56 -92q0 -38 -31 -66.5t-72 -28.5q-19 0 -39 8t-41.5 24.5t-36.5 29.5t-39 37t-34 33q-9 -9 -34 -33t-39.5 -37t-36.5 -30t-42 -24.5t-39 -7.5q-41 0 -71.5 28.5t-30.5 66.5q3 46 55 92l162 125q33 26 76 26z" />
    <glyph glyph-name="Udieresis" unicode="&#xdc;" horiz-adv-x="1253" 
d="M1141 492q0 -226 -138 -368t-376 -142q-241 0 -377.5 142t-136.5 368v835q0 58 41.5 96.5t103.5 38.5q57 0 99 -40t42 -95v-835q0 -115 57.5 -182.5t170.5 -67.5q111 0 168 68t57 182v835q0 55 41 95t100 40q62 0 105 -40t43 -95v-835zM942 1700q0 -54 -38.5 -91.5
t-94.5 -37.5q-55 0 -95 38t-40 91q0 51 40 88t95 37q56 0 94.5 -36.5t38.5 -88.5zM575 1700q0 -54 -39 -91.5t-96 -37.5q-55 0 -93 38t-38 91q0 51 38 88t93 37q57 0 96 -36t39 -89z" />
    <glyph glyph-name="Yacute" unicode="&#xdd;" horiz-adv-x="1085" 
d="M543 -18q-61 0 -103.5 39.5t-42.5 95.5v448l-360 705q-12 28 -12 59q0 53 44.5 93t100.5 40q35 0 67 -15.5t50 -45.5l256 -508l254 508q35 61 118 61q56 0 101 -40t45 -93q0 -17 -14 -59l-359 -705v-448q0 -55 -42 -95t-103 -40zM455 1702l165 162l17 16q15 15 23.5 21.5
t23.5 12t37 5.5q37 0 68.5 -29.5t31.5 -70.5q0 -31 -18 -57l-168 -168q-21 -18 -29 -24t-25 -12.5t-38 -6.5q-44 0 -74.5 28.5t-30.5 71.5q0 28 17 51z" />
    <glyph glyph-name="Thorn" unicode="&#xde;" horiz-adv-x="1167" 
d="M129 117v1212q0 56 42.5 95.5t100.5 39.5t101 -40.5t43 -94.5v-129h174q112 0 201.5 -25t148.5 -68t98.5 -102.5t56.5 -125.5t17 -140q0 -215 -140.5 -333.5t-381.5 -118.5h-174v-170q0 -54 -43 -94.5t-101 -40.5q-57 0 -100 40t-43 95zM416 940v-393h174q235 0 235 194
q0 199 -235 199h-174z" />
    <glyph glyph-name="germandbls" unicode="&#xdf;" horiz-adv-x="1249" 
d="M414 8q0 -52 -41.5 -89.5t-100.5 -37.5t-100 37.5t-41 89.5v991q0 220 120 343.5t341 123.5q195 0 316.5 -94t121.5 -270q0 -58 -16 -108.5t-39 -84.5t-57 -65.5t-60.5 -48.5t-60.5 -35q-15 -9 -15 -13q-1 -5 11 -10q38 -17 57 -26.5l53 -26.5t52.5 -28.5t46.5 -29.5
t43.5 -33t36 -36t31.5 -42t22 -46t15.5 -53.5t4.5 -59.5q0 -117 -64.5 -201.5t-165 -123.5t-223.5 -39q-126 0 -179.5 40.5t-53.5 100.5q0 49 33.5 84t91.5 35q23 0 63.5 -9.5t67.5 -9.5q61 0 104 30.5t43 90.5q0 125 -206 197q-79 30 -107 50q-58 46 -59 128q0 99 88 150
q5 3 34.5 19.5t45.5 28.5t39 34.5t34 53t11 68.5q0 71 -46.5 106.5t-121.5 35.5q-89 0 -129.5 -52.5t-40.5 -166.5v-998z" />
    <glyph glyph-name="agrave" unicode="&#xe0;" horiz-adv-x="1069" 
d="M922 627v-381q0 -22 6.5 -35t11 -17t24 -10t23.5 -8q47 -18 47 -78q0 -52 -34 -79t-113 -27q-59 0 -99.5 19t-74.5 67q-115 -92 -277 -92q-175 0 -269.5 87t-94.5 236v6q0 314 405 314q92 0 162 -21v66q0 141 -156 141q-58 0 -133 -33q-2 -1 -13 -5.5t-18 -7t-20 -5
t-27 -2.5q-59 0 -88.5 37t-29.5 82q0 44 30.5 77.5t81.5 53t111.5 29.5t126.5 10q218 0 318 -106t100 -318zM494 430q-82 0 -112 -31.5t-30 -85.5v-6q0 -50 30 -72t97 -22q91 0 160 53v148q-82 16 -145 16zM543 1454l166 -162q16 -14 16 -51q0 -44 -30 -72t-74 -28
q-21 0 -38 6.5t-25 12.5t-29 24l-168 168q-19 27 -19 57q0 41 32 70.5t69 29.5q31 0 46.5 -8.5t37.5 -30.5z" />
    <glyph glyph-name="aacute" unicode="&#xe1;" horiz-adv-x="1069" 
d="M922 627v-381q0 -22 6.5 -35t11 -17t24 -10t23.5 -8q47 -18 47 -78q0 -52 -34 -79t-113 -27q-59 0 -99.5 19t-74.5 67q-115 -92 -277 -92q-175 0 -269.5 87t-94.5 236v6q0 314 405 314q92 0 162 -21v66q0 141 -156 141q-58 0 -133 -33q-2 -1 -13 -5.5t-18 -7t-20 -5
t-27 -2.5q-59 0 -88.5 37t-29.5 82q0 44 30.5 77.5t81.5 53t111.5 29.5t126.5 10q218 0 318 -106t100 -318zM494 430q-82 0 -112 -31.5t-30 -85.5v-6q0 -50 30 -72t97 -22q91 0 160 53v148q-82 16 -145 16zM358 1292l166 162l17 16q15 15 23.5 21.5t23.5 12t37 5.5
q37 0 68.5 -29.5t31.5 -70.5q0 -31 -18 -57l-168 -168q-20 -17 -29 -24t-26 -13t-38 -6q-44 0 -74 28t-30 72q0 30 16 51z" />
    <glyph glyph-name="acircumflex" unicode="&#xe2;" horiz-adv-x="1069" 
d="M922 627v-381q0 -22 6.5 -35t11 -17t24 -10t23.5 -8q47 -18 47 -78q0 -52 -34 -79t-113 -27q-59 0 -99.5 19t-74.5 67q-115 -92 -277 -92q-175 0 -269.5 87t-94.5 236v6q0 314 405 314q92 0 162 -21v66q0 141 -156 141q-58 0 -133 -33q-2 -1 -13 -5.5t-18 -7t-20 -5
t-27 -2.5q-59 0 -88.5 37t-29.5 82q0 44 30.5 77.5t81.5 53t111.5 29.5t126.5 10q218 0 318 -106t100 -318zM494 430q-82 0 -112 -31.5t-30 -85.5v-6q0 -50 30 -72t97 -22q91 0 160 53v148q-82 16 -145 16zM535 1466q43 0 76 -26l161 -125q53 -47 56 -92q0 -38 -31 -66.5
t-72 -28.5q-19 0 -39 8t-41.5 24.5t-36.5 29.5t-39 37t-34 33q-9 -9 -34 -33t-39.5 -37t-36.5 -30t-42 -24.5t-39 -7.5q-41 0 -71.5 28.5t-30.5 66.5q3 46 55 92l162 125q33 26 76 26z" />
    <glyph glyph-name="atilde" unicode="&#xe3;" horiz-adv-x="1069" 
d="M922 627v-381q0 -22 6.5 -35t11 -17t24 -10t23.5 -8q47 -18 47 -78q0 -52 -34 -79t-113 -27q-59 0 -99.5 19t-74.5 67q-115 -92 -277 -92q-175 0 -269.5 87t-94.5 236v6q0 314 405 314q92 0 162 -21v66q0 141 -156 141q-58 0 -133 -33q-2 -1 -13 -5.5t-18 -7t-20 -5
t-27 -2.5q-59 0 -88.5 37t-29.5 82q0 44 30.5 77.5t81.5 53t111.5 29.5t126.5 10q218 0 318 -106t100 -318zM494 430q-82 0 -112 -31.5t-30 -85.5v-6q0 -50 30 -72t97 -22q91 0 160 53v148q-82 16 -145 16zM854 1317q0 -61 -60 -105.5t-124 -44.5q-47 0 -90.5 18.5t-79 39.5
t-58.5 24q-20 3 -37 -8t-27 -25.5t-28 -27t-41 -12.5q-34 0 -62 23.5t-32 60.5q0 69 54.5 116t125.5 47q49 0 93 -20.5t78 -41t59 -20.5q21 0 37 11.5t25.5 25.5t26.5 25.5t40 11.5q40 0 70 -28t30 -70z" />
    <glyph glyph-name="adieresis" unicode="&#xe4;" horiz-adv-x="1069" 
d="M922 627v-381q0 -22 6.5 -35t11 -17t24 -10t23.5 -8q47 -18 47 -78q0 -52 -34 -79t-113 -27q-59 0 -99.5 19t-74.5 67q-115 -92 -277 -92q-175 0 -269.5 87t-94.5 236v6q0 314 405 314q92 0 162 -21v66q0 141 -156 141q-58 0 -133 -33q-2 -1 -13 -5.5t-18 -7t-20 -5
t-27 -2.5q-59 0 -88.5 37t-29.5 82q0 44 30.5 77.5t81.5 53t111.5 29.5t126.5 10q218 0 318 -106t100 -318zM494 430q-82 0 -112 -31.5t-30 -85.5v-6q0 -50 30 -72t97 -22q91 0 160 53v148q-82 16 -145 16zM850 1290q0 -54 -38.5 -91.5t-94.5 -37.5q-55 0 -95.5 38t-40.5 91
q0 51 40.5 88t95.5 37q56 0 94.5 -36.5t38.5 -88.5zM483 1290q0 -54 -39 -91.5t-96 -37.5q-55 0 -93 38t-38 91q0 51 38 88t93 37q57 0 96 -36t39 -89z" />
    <glyph glyph-name="aring" unicode="&#xe5;" horiz-adv-x="1069" 
d="M922 627v-381q0 -22 6.5 -35t11 -17t24 -10t23.5 -8q47 -18 47 -78q0 -52 -34 -79t-113 -27q-59 0 -99.5 19t-74.5 67q-115 -92 -277 -92q-175 0 -269.5 87t-94.5 236v6q0 314 405 314q92 0 162 -21v66q0 141 -156 141q-58 0 -133 -33q-2 -1 -13 -5.5t-18 -7t-20 -5
t-27 -2.5q-59 0 -88.5 37t-29.5 82q0 44 30.5 77.5t81.5 53t111.5 29.5t126.5 10q218 0 318 -106t100 -318zM494 430q-82 0 -112 -31.5t-30 -85.5v-6q0 -50 30 -72t97 -22q91 0 160 53v148q-82 16 -145 16zM760 1319q0 -94 -64.5 -158.5t-158.5 -64.5q-95 0 -160.5 64.5
t-65.5 158.5q0 93 65.5 158t160.5 65q93 0 158 -65t65 -158zM627 1319q0 37 -26.5 64.5t-63.5 27.5t-64 -27.5t-27 -64.5t27 -63.5t64 -26.5t63.5 26.5t26.5 63.5z" />
    <glyph glyph-name="ae" unicode="&#xe6;" horiz-adv-x="1458" 
d="M1028 371q-82 0 -147 8v-43q0 -54 41.5 -84.5t119.5 -30.5q11 0 21.5 1t18.5 1.5t19.5 3t17 3t18.5 4.5t16.5 5t18.5 6.5t17 6t19 7t19 7.5q39 13 57 13q55 0 94 -36.5t39 -82.5q0 -47 -42.5 -83t-106.5 -54.5t-125.5 -27.5t-112.5 -9q-187 0 -291 104
q-140 -104 -333 -104q-184 0 -279.5 88.5t-95.5 242.5v7q0 325 422 325q86 0 145 -10v35q0 141 -158 141q-56 0 -131 -33q-2 -1 -13 -5.5t-18 -7t-20 -5t-27 -2.5q-55 0 -85 32t-33 76q-6 60 46.5 102.5t131 60.5t170.5 18q192 0 282 -103q111 103 299 103q190 0 292 -95
t102 -258q0 -327 -408 -327zM1155 698q0 113 -125 113q-70 0 -109.5 -30t-39.5 -83v-88q114 -8 153 -8q70 0 95.5 26t25.5 70zM598 276v127q-87 17 -147 17q-81 0 -110.5 -26t-29.5 -72v-7q0 -92 119 -92q96 0 168 53z" />
    <glyph glyph-name="ccedilla" unicode="&#xe7;" horiz-adv-x="907" 
d="M762 -242q0 -88 -65 -144t-169 -56q-95 0 -170 31.5t-75 88.5q0 28 19 44t50 16q18 0 70 -9.5t80 -9.5q96 0 96 45q0 23 -25.5 35t-91.5 23q-56 11 -67 17q-28 17 -25 79l12 78q-153 28 -231 131t-78 250v276q0 174 107 282.5t317 108.5q54 0 107.5 -7.5t111.5 -25
t94.5 -55t36.5 -90.5q0 -44 -28.5 -74t-98.5 -30q-32 0 -67 12q-7 3 -24 9.5t-26.5 10t-24.5 7.5t-31 6t-34 2q-157 0 -157 -156v-276q0 -156 157 -156q18 0 33.5 1.5t32.5 6.5t24 7.5t27 10.5t23 9q30 12 63 12q72 0 101.5 -30.5t29.5 -73.5q0 -46 -28.5 -80.5t-76.5 -53.5
t-96 -29t-102 -13l-6 -56q205 -17 205 -174z" />
    <glyph glyph-name="egrave" unicode="&#xe8;" horiz-adv-x="993" 
d="M532 391q-68 0 -157 12v-67q0 -54 41.5 -84.5t122.5 -30.5q82 0 184 45q26 13 61 13q66 0 96.5 -35t30.5 -78q0 -50 -42 -87.5t-107 -56.5t-126.5 -27.5t-117.5 -8.5q-198 0 -312 100.5t-114 257.5v342q0 161 114.5 263t321.5 102q196 0 299 -94.5t103 -254.5
q0 -311 -398 -311zM649 717q0 60 -30.5 87t-92.5 27q-73 0 -112 -35.5t-39 -97.5v-88q88 -8 147 -8q62 0 94.5 26t32.5 89zM506 1454l166 -162q16 -14 16 -51q0 -44 -30 -72t-74 -28q-21 0 -38 6.5t-25 12.5t-29 24l-168 168q-19 27 -19 57q0 41 32 70.5t69 29.5
q31 0 46.5 -8.5t37.5 -30.5z" />
    <glyph glyph-name="eacute" unicode="&#xe9;" horiz-adv-x="993" 
d="M532 391q-68 0 -157 12v-67q0 -54 41.5 -84.5t122.5 -30.5q82 0 184 45q26 13 61 13q66 0 96.5 -35t30.5 -78q0 -50 -42 -87.5t-107 -56.5t-126.5 -27.5t-117.5 -8.5q-198 0 -312 100.5t-114 257.5v342q0 161 114.5 263t321.5 102q196 0 299 -94.5t103 -254.5
q0 -311 -398 -311zM649 717q0 60 -30.5 87t-92.5 27q-73 0 -112 -35.5t-39 -97.5v-88q88 -8 147 -8q62 0 94.5 26t32.5 89zM416 1292l166 162l16 16q15 15 23.5 21.5t23.5 12t37 5.5q37 0 68.5 -29.5t31.5 -70.5q0 -31 -18 -57l-168 -168q-21 -18 -29 -24t-25 -12.5
t-38 -6.5q-44 0 -74.5 28.5t-30.5 71.5q0 28 17 51z" />
    <glyph glyph-name="ecircumflex" unicode="&#xea;" horiz-adv-x="993" 
d="M532 391q-68 0 -157 12v-67q0 -54 41.5 -84.5t122.5 -30.5q82 0 184 45q26 13 61 13q66 0 96.5 -35t30.5 -78q0 -50 -42 -87.5t-107 -56.5t-126.5 -27.5t-117.5 -8.5q-198 0 -312 100.5t-114 257.5v342q0 161 114.5 263t321.5 102q196 0 299 -94.5t103 -254.5
q0 -311 -398 -311zM649 717q0 60 -30.5 87t-92.5 27q-73 0 -112 -35.5t-39 -97.5v-88q88 -8 147 -8q62 0 94.5 26t32.5 89zM518 1466q43 0 76 -26l161 -125q53 -47 56 -92q0 -38 -31 -66.5t-72 -28.5q-19 0 -39 8t-41.5 24.5t-36.5 29.5t-39 37t-34 33q-9 -9 -34 -33
t-39.5 -37t-36.5 -30t-42 -24.5t-39 -7.5q-41 0 -71.5 28.5t-30.5 66.5q3 46 55 92l162 125q33 26 76 26z" />
    <glyph glyph-name="edieresis" unicode="&#xeb;" horiz-adv-x="993" 
d="M532 391q-68 0 -157 12v-67q0 -54 41.5 -84.5t122.5 -30.5q82 0 184 45q26 13 61 13q66 0 96.5 -35t30.5 -78q0 -50 -42 -87.5t-107 -56.5t-126.5 -27.5t-117.5 -8.5q-198 0 -312 100.5t-114 257.5v342q0 161 114.5 263t321.5 102q196 0 299 -94.5t103 -254.5
q0 -311 -398 -311zM649 717q0 60 -30.5 87t-92.5 27q-73 0 -112 -35.5t-39 -97.5v-88q88 -8 147 -8q62 0 94.5 26t32.5 89zM813 1290q0 -54 -38.5 -91.5t-94.5 -37.5q-55 0 -95 38t-40 91q0 51 40 88t95 37q56 0 94.5 -36.5t38.5 -88.5zM446 1290q0 -54 -39 -91.5t-96 -37.5
q-55 0 -93 38t-38 91q0 51 38 88t93 37q57 0 96 -36t39 -89z" />
    <glyph glyph-name="igrave" unicode="&#xec;" horiz-adv-x="583" 
d="M432 113q0 -54 -40.5 -90.5t-100.5 -36.5t-100.5 36.5t-40.5 90.5v807q0 51 40.5 87.5t100.5 36.5t100.5 -36.5t40.5 -87.5v-807zM217 1454l166 -162q16 -14 16 -51q0 -44 -30 -72t-74 -28q-21 0 -38 6.5t-25 12.5t-29 24l-168 168q-19 27 -19 57q0 41 32 70.5t69 29.5
q31 0 46.5 -8.5t37.5 -30.5z" />
    <glyph glyph-name="iacute" unicode="&#xed;" horiz-adv-x="583" 
d="M432 113q0 -54 -40.5 -90.5t-100.5 -36.5t-100.5 36.5t-40.5 90.5v807q0 51 40.5 87.5t100.5 36.5t100.5 -36.5t40.5 -87.5v-807zM205 1292l166 162l16 16q15 15 23.5 21.5t23.5 12t37 5.5q37 0 68.5 -29.5t31.5 -70.5q0 -31 -18 -57l-168 -168q-21 -18 -29 -24
t-25 -12.5t-38 -6.5q-44 0 -74.5 28.5t-30.5 71.5q0 28 17 51z" />
    <glyph glyph-name="icircumflex" unicode="&#xee;" horiz-adv-x="583" 
d="M432 113q0 -54 -40.5 -90.5t-100.5 -36.5t-100.5 36.5t-40.5 90.5v807q0 51 40.5 87.5t100.5 36.5t100.5 -36.5t40.5 -87.5v-807zM293 1466q43 0 76 -26l161 -125q53 -47 56 -92q0 -38 -31 -66.5t-72 -28.5q-19 0 -39 8t-41.5 24.5t-36.5 29.5t-39 37t-34 33
q-9 -9 -34 -33t-39.5 -37t-36.5 -30t-42 -24.5t-39 -7.5q-41 0 -71.5 28.5t-30.5 66.5q3 46 55 92l162 125q33 26 76 26z" />
    <glyph glyph-name="idieresis" unicode="&#xef;" horiz-adv-x="583" 
d="M432 113q0 -54 -40.5 -90.5t-100.5 -36.5t-100.5 36.5t-40.5 90.5v807q0 51 40.5 87.5t100.5 36.5t100.5 -36.5t40.5 -87.5v-807zM608 1290q0 -54 -38.5 -91.5t-94.5 -37.5q-55 0 -95 38t-40 91q0 51 40 88t95 37q56 0 94.5 -36.5t38.5 -88.5zM242 1290
q0 -54 -39.5 -91.5t-96.5 -37.5q-55 0 -93 38t-38 91q0 51 38 88t93 37q57 0 96.5 -36.5t39.5 -88.5z" />
    <glyph glyph-name="eth" unicode="&#xf0;" horiz-adv-x="1177" 
d="M1098 1401q10 -3 10 -21q4 -44 -27 -63l-118 -94q108 -202 108 -574q0 -159 -21.5 -275.5t-60 -191.5t-99 -120t-130.5 -62.5t-162 -17.5q-129 0 -227 34.5t-158.5 97t-90.5 144.5t-30 182q0 204 116.5 336.5t326.5 132.5q131 0 241 -61q-8 118 -35 199l-73 -58
q-30 -22 -52 -26q-27 -5 -52 16.5t-25 52.5q-4 46 26 64l97 78q-46 37 -136 45q-21 2 -33.5 3.5t-30.5 9t-28 19.5t-16 34.5t-4 53.5q5 59 41 84t133 25q171 0 286 -109l105 84q24 20 51 25q24 4 41 -8t22 -26zM784 569v25q-44 32 -112 53t-123 21q-82 0 -128 -58t-46 -159
q0 -102 51.5 -163t161.5 -61t153 79t43 263z" />
    <glyph glyph-name="ntilde" unicode="&#xf1;" horiz-adv-x="1124" 
d="M420 731v-618q0 -55 -36.5 -90t-104.5 -35t-105 35t-37 90v620q0 32 -3 50.5t-5 22.5t-8 13q-22 29 -28.5 44.5t-6.5 35.5q0 51 39 85t98 34q62 0 109 -60q134 89 270 89q189 0 288 -107.5t99 -292.5v-534q0 -54 -37.5 -89.5t-103.5 -35.5t-103.5 35.5t-37.5 89.5v534
q0 76 -36 121t-98 45q-64 0 -157 -43q4 -28 4 -39zM856 1317q0 -61 -60 -105.5t-124 -44.5q-47 0 -90.5 18.5t-79 39.5t-58.5 24q-20 3 -37 -8t-27 -25.5t-28 -27t-41 -12.5q-34 0 -62 23.5t-32 60.5q0 69 54.5 116t125.5 47q49 0 93 -20.5t77.5 -41t58.5 -20.5
q21 0 37 11.5t25.5 25.5t26.5 25.5t40 11.5q40 0 70.5 -28.5t30.5 -69.5z" />
    <glyph glyph-name="ograve" unicode="&#xf2;" horiz-adv-x="1073" 
d="M537 -14q-211 0 -328 106.5t-117 274.5v305q0 168 117 274.5t328 106.5t327.5 -106.5t116.5 -274.5v-305q0 -168 -116.5 -274.5t-327.5 -106.5zM537 227q78 0 119.5 37t41.5 103v307q0 64 -41.5 100.5t-119.5 36.5t-120 -36.5t-42 -100.5v-307q0 -66 42 -103t120 -37z
M477 1454l166 -162q16 -14 16 -51q0 -44 -30 -72t-74 -28q-21 0 -38 6.5t-25 12.5t-29 24l-168 168q-19 27 -19 57q0 41 32 70.5t69 29.5q31 0 46.5 -8.5t37.5 -30.5z" />
    <glyph glyph-name="oacute" unicode="&#xf3;" horiz-adv-x="1073" 
d="M537 -14q-211 0 -328 106.5t-117 274.5v305q0 168 117 274.5t328 106.5t327.5 -106.5t116.5 -274.5v-305q0 -168 -116.5 -274.5t-327.5 -106.5zM537 227q78 0 119.5 37t41.5 103v307q0 64 -41.5 100.5t-119.5 36.5t-120 -36.5t-42 -100.5v-307q0 -66 42 -103t120 -37z
M442 1292l166 162l17 16q15 15 23.5 21.5t23.5 12t37 5.5q37 0 68.5 -29.5t31.5 -70.5q0 -31 -18 -57l-168 -168q-20 -17 -29 -24t-26 -13t-38 -6q-44 0 -74 28t-30 72q0 30 16 51z" />
    <glyph glyph-name="ocircumflex" unicode="&#xf4;" horiz-adv-x="1073" 
d="M537 -14q-211 0 -328 106.5t-117 274.5v305q0 168 117 274.5t328 106.5t327.5 -106.5t116.5 -274.5v-305q0 -168 -116.5 -274.5t-327.5 -106.5zM537 227q78 0 119.5 37t41.5 103v307q0 64 -41.5 100.5t-119.5 36.5t-120 -36.5t-42 -100.5v-307q0 -66 42 -103t120 -37z
M537 1466q43 0 76 -26l161 -125q53 -47 56 -92q0 -38 -31 -66.5t-72 -28.5q-19 0 -39 8t-41.5 24.5t-36.5 29.5t-39 37t-34 33q-9 -9 -34 -33t-39.5 -37t-36.5 -30t-42 -24.5t-39 -7.5q-41 0 -71.5 28.5t-30.5 66.5q3 46 55 92l162 125q33 26 76 26z" />
    <glyph glyph-name="otilde" unicode="&#xf5;" horiz-adv-x="1073" 
d="M537 -14q-211 0 -328 106.5t-117 274.5v305q0 168 117 274.5t328 106.5t327.5 -106.5t116.5 -274.5v-305q0 -168 -116.5 -274.5t-327.5 -106.5zM537 227q78 0 119.5 37t41.5 103v307q0 64 -41.5 100.5t-119.5 36.5t-120 -36.5t-42 -100.5v-307q0 -66 42 -103t120 -37z
M856 1317q0 -61 -60 -105.5t-124 -44.5q-47 0 -90.5 18.5t-79 39.5t-58.5 24q-20 3 -37 -8t-27 -25.5t-28 -27t-41 -12.5q-34 0 -62 23.5t-32 60.5q0 69 54.5 116t125.5 47q49 0 93 -20.5t78 -41t59 -20.5q21 0 37 11.5t25.5 25.5t26.5 25.5t40 11.5q40 0 70 -28t30 -70z
" />
    <glyph glyph-name="odieresis" unicode="&#xf6;" horiz-adv-x="1073" 
d="M537 -14q-211 0 -328 106.5t-117 274.5v305q0 168 117 274.5t328 106.5t327.5 -106.5t116.5 -274.5v-305q0 -168 -116.5 -274.5t-327.5 -106.5zM537 227q78 0 119.5 37t41.5 103v307q0 64 -41.5 100.5t-119.5 36.5t-120 -36.5t-42 -100.5v-307q0 -66 42 -103t120 -37z
M852 1290q0 -54 -38.5 -91.5t-94.5 -37.5q-55 0 -95.5 38t-40.5 91q0 51 40.5 88t95.5 37q56 0 94.5 -36.5t38.5 -88.5zM485 1290q0 -54 -39 -91.5t-96 -37.5q-55 0 -93 38t-38 91q0 51 38 88t93 37q57 0 96 -36t39 -89z" />
    <glyph glyph-name="oslash" unicode="&#xf8;" horiz-adv-x="1073" 
d="M537 -14q-157 0 -263 59l-43 -63q-12 -17 -34 -21t-39 8q-18 12 -22 34t7 40l47 68q-98 98 -98 256v305q0 168 117 274.5t328 106.5q159 0 268 -64l45 64q12 18 33.5 21.5t40.5 -9.5q20 -13 23.5 -34.5t-9.5 -39.5l-49 -69q92 -106 92 -250v-305q0 -168 -116.5 -274.5
t-327.5 -106.5zM375 674v-301l280 401q-43 37 -118 37q-78 0 -120 -36.5t-42 -100.5zM537 227q78 0 119.5 37t41.5 103v282l-274 -391q42 -31 113 -31z" />
    <glyph glyph-name="ugrave" unicode="&#xf9;" horiz-adv-x="1124" 
d="M795 76q-127 -90 -283 -90q-182 0 -281.5 108.5t-99.5 292.5v535q0 54 37.5 88t103.5 34t104 -34t38 -88v-535q0 -164 133 -164q65 0 158 43q-5 35 -5 39v617q0 55 37 88.5t105 33.5t104.5 -33.5t36.5 -88.5v-658q0 -22 8 -35t31 -36q29 -29 29 -70q0 -58 -40.5 -91.5
t-90.5 -33.5q-71 0 -125 78zM495 1454l166 -162q16 -14 16 -51q0 -44 -30 -72t-74 -28q-21 0 -38 6.5t-25 12.5t-29 24l-168 168q-19 27 -19 57q0 41 32 70.5t69 29.5q31 0 46.5 -8.5t37.5 -30.5z" />
    <glyph glyph-name="uacute" unicode="&#xfa;" horiz-adv-x="1124" 
d="M795 76q-127 -90 -283 -90q-182 0 -281.5 108.5t-99.5 292.5v535q0 54 37.5 88t103.5 34t104 -34t38 -88v-535q0 -164 133 -164q65 0 158 43q-5 35 -5 39v617q0 55 37 88.5t105 33.5t104.5 -33.5t36.5 -88.5v-658q0 -22 8 -35t31 -36q29 -29 29 -70q0 -58 -40.5 -91.5
t-90.5 -33.5q-71 0 -125 78zM475 1292l166 162l16 16q15 15 23.5 21.5t23.5 12t37 5.5q37 0 69 -29.5t32 -70.5q0 -30 -19 -57l-168 -168q-21 -18 -29 -24t-25 -12.5t-38 -6.5q-44 0 -74 28t-30 72q0 30 16 51z" />
    <glyph glyph-name="ucircumflex" unicode="&#xfb;" horiz-adv-x="1124" 
d="M795 76q-127 -90 -283 -90q-182 0 -281.5 108.5t-99.5 292.5v535q0 54 37.5 88t103.5 34t104 -34t38 -88v-535q0 -164 133 -164q65 0 158 43q-5 35 -5 39v617q0 55 37 88.5t105 33.5t104.5 -33.5t36.5 -88.5v-658q0 -22 8 -35t31 -36q29 -29 29 -70q0 -58 -40.5 -91.5
t-90.5 -33.5q-71 0 -125 78zM561 1466q43 0 76 -26l161 -125q53 -47 56 -92q0 -38 -31 -66.5t-72 -28.5q-19 0 -39 8t-41.5 24.5t-36.5 29.5t-39 37t-34 33q-9 -9 -34 -33t-39.5 -37t-36.5 -30t-42 -24.5t-39 -7.5q-41 0 -71.5 28.5t-30.5 66.5q3 46 55 92l162 125
q33 26 76 26z" />
    <glyph glyph-name="udieresis" unicode="&#xfc;" horiz-adv-x="1124" 
d="M795 76q-127 -90 -283 -90q-182 0 -281.5 108.5t-99.5 292.5v535q0 54 37.5 88t103.5 34t104 -34t38 -88v-535q0 -164 133 -164q65 0 158 43q-5 35 -5 39v617q0 55 37 88.5t105 33.5t104.5 -33.5t36.5 -88.5v-658q0 -22 8 -35t31 -36q29 -29 29 -70q0 -58 -40.5 -91.5
t-90.5 -33.5q-71 0 -125 78zM879 1290q0 -54 -39 -91.5t-95 -37.5q-55 0 -95 38t-40 91q0 51 40 88t95 37q56 0 95 -36.5t39 -88.5zM512 1290q0 -54 -39 -91.5t-96 -37.5q-55 0 -93 38t-38 91q0 51 38 88t93 37q57 0 96 -36t39 -89z" />
    <glyph glyph-name="yacute" unicode="&#xfd;" horiz-adv-x="970" 
d="M555 614l111 344q13 42 50.5 64t82.5 22q56 0 98.5 -35t42.5 -89q0 -22 -6 -37l-250 -729q-79 -232 -123 -319q-81 -160 -199 -215q-77 -36 -180 -36q-62 0 -102.5 34.5t-40.5 88.5q0 48 37 84t98 39q66 3 106 54.5t78 174.5l-315 813q-10 25 -10 52q0 52 40.5 86
t100.5 34q43 0 77.5 -22t51.5 -64l129 -344q17 -43 38 -127.5t28 -107.5q5 23 16 73.5t20.5 89.5t20.5 72zM394 1292l165 162l17 16q15 15 23.5 21.5t23.5 12t37 5.5q37 0 68.5 -29.5t31.5 -70.5q0 -31 -18 -57l-168 -168q-21 -18 -29 -24t-25 -12.5t-38 -6.5
q-44 0 -74.5 28.5t-30.5 71.5q0 28 17 51z" />
    <glyph glyph-name="thorn" unicode="&#xfe;" horiz-adv-x="1095" 
d="M414 780v-483q63 -57 166 -57q141 0 141 116v365q0 117 -141 117q-102 0 -166 -58zM131 -317v1671q0 52 38 88.5t103 36.5t103.5 -36.5t38.5 -88.5v-361q103 58 223 58q186 0 276.5 -93t90.5 -247v-344q0 -154 -90.5 -247t-276.5 -93q-121 0 -223 57v-401
q0 -52 -38.5 -88.5t-103.5 -36.5t-103 36.5t-38 88.5z" />
    <glyph glyph-name="ydieresis" unicode="&#xff;" horiz-adv-x="970" 
d="M555 614l111 344q13 42 50.5 64t82.5 22q56 0 98.5 -35t42.5 -89q0 -22 -6 -37l-250 -729q-79 -232 -123 -319q-81 -160 -199 -215q-77 -36 -180 -36q-62 0 -102.5 34.5t-40.5 88.5q0 48 37 84t98 39q66 3 106 54.5t78 174.5l-315 813q-10 25 -10 52q0 52 40.5 86
t100.5 34q43 0 77.5 -22t51.5 -64l129 -344q17 -43 38 -127.5t28 -107.5q5 23 16 73.5t20.5 89.5t20.5 72zM801 1290q0 -54 -38.5 -91.5t-94.5 -37.5q-55 0 -95.5 38t-40.5 91q0 51 40.5 88t95.5 37q56 0 94.5 -36.5t38.5 -88.5zM434 1290q0 -54 -39 -91.5t-96 -37.5
q-55 0 -93 38t-38 91q0 51 38 88t93 37q57 0 96 -36t39 -89z" />
    <glyph glyph-name="Amacron" unicode="&#x100;" horiz-adv-x="1206" 
d="M381 285l-68 -207q-14 -42 -55 -69t-80 -27q-61 0 -104 37t-43 94q0 30 6 45l399 1165q23 67 60.5 103t105.5 36q69 0 106.5 -35.5t61.5 -103.5l399 -1165q7 -17 7 -45q0 -58 -42 -94.5t-106 -36.5q-41 0 -83 27.5t-56 68.5l-72 207h-436zM743 518l-104 350
q-20 64 -37 201q-17 -137 -37 -201l-108 -350h286zM994 1700q0 -44 -33.5 -74t-81.5 -30h-551q-50 0 -83.5 30t-33.5 74q0 43 34 74t83 31h551q47 0 81 -31t34 -74z" />
    <glyph glyph-name="amacron" unicode="&#x101;" horiz-adv-x="1069" 
d="M922 627v-381q0 -22 6.5 -35t11 -17t24 -10t23.5 -8q47 -18 47 -78q0 -52 -34 -79t-113 -27q-59 0 -99.5 19t-74.5 67q-115 -92 -277 -92q-175 0 -269.5 87t-94.5 236v6q0 314 405 314q92 0 162 -21v66q0 141 -156 141q-58 0 -133 -33q-2 -1 -13 -5.5t-18 -7t-20 -5
t-27 -2.5q-59 0 -88.5 37t-29.5 82q0 44 30.5 77.5t81.5 53t111.5 29.5t126.5 10q218 0 318 -106t100 -318zM494 430q-82 0 -112 -31.5t-30 -85.5v-6q0 -50 30 -72t97 -22q91 0 160 53v148q-82 16 -145 16zM926 1290q0 -44 -33.5 -74t-81.5 -30h-551q-50 0 -83.5 30
t-33.5 74q0 43 34 74t83 31h551q47 0 81 -31t34 -74z" />
    <glyph glyph-name="Abreve" unicode="&#x102;" horiz-adv-x="1206" 
d="M381 285l-68 -207q-14 -42 -55 -69t-80 -27q-61 0 -104 37t-43 94q0 30 6 45l399 1165q23 67 60.5 103t105.5 36q69 0 106.5 -35.5t61.5 -103.5l399 -1165q7 -17 7 -45q0 -58 -42 -94.5t-106 -36.5q-41 0 -83 27.5t-56 68.5l-72 207h-436zM743 518l-104 350
q-20 64 -37 201q-17 -137 -37 -201l-108 -350h286zM602 1731q61 0 121 63q36 48 94 48q46 0 75 -30.5t15 -84.5q-16 -56 -69 -99.5t-115.5 -64t-120.5 -20.5q-92 0 -185.5 50.5t-119.5 133.5q-14 54 15 84.5t75 30.5q61 0 92 -48q63 -63 123 -63z" />
    <glyph glyph-name="abreve" unicode="&#x103;" horiz-adv-x="1069" 
d="M922 627v-381q0 -22 6.5 -35t11 -17t24 -10t23.5 -8q47 -18 47 -78q0 -52 -34 -79t-113 -27q-59 0 -99.5 19t-74.5 67q-115 -92 -277 -92q-175 0 -269.5 87t-94.5 236v6q0 314 405 314q92 0 162 -21v66q0 141 -156 141q-58 0 -133 -33q-2 -1 -13 -5.5t-18 -7t-20 -5
t-27 -2.5q-59 0 -88.5 37t-29.5 82q0 44 30.5 77.5t81.5 53t111.5 29.5t126.5 10q218 0 318 -106t100 -318zM494 430q-82 0 -112 -31.5t-30 -85.5v-6q0 -50 30 -72t97 -22q91 0 160 53v148q-82 16 -145 16zM535 1321q61 0 121 63q36 48 94 48q46 0 75 -30.5t15 -84.5
q-16 -56 -69 -99.5t-115.5 -64t-120.5 -20.5q-92 0 -185.5 50.5t-119.5 133.5q-14 54 15 84.5t75 30.5q61 0 92 -48q63 -63 123 -63z" />
    <glyph glyph-name="Aogonek" unicode="&#x104;" horiz-adv-x="1206" 
d="M1280 -340q0 -109 -195 -109q-114 0 -180.5 52.5t-66.5 156.5q0 114 94 258q-33 30 -43 60l-72 207h-436l-68 -207q-14 -42 -55 -69t-80 -27q-61 0 -104 37t-43 94q0 30 6 45l399 1165q23 67 60.5 103t105.5 36q69 0 106.5 -35.5t61.5 -103.5l399 -1165q7 -17 7 -45
q0 -39 -35 -88q-38 -49 -65 -114.5t-27 -119.5q0 -51 53 -51q14 0 38.5 4t28.5 4h19q38 0 65 -26t27 -62zM743 518l-104 350q-20 64 -37 201q-17 -137 -37 -201l-108 -350h286z" />
    <glyph glyph-name="aogonek" unicode="&#x105;" horiz-adv-x="1069" 
d="M1130 -340q0 -109 -194 -109q-115 0 -181.5 52.5t-66.5 156.5q0 110 107 246q-45 20 -82 72q-115 -92 -277 -92q-175 0 -269.5 87t-94.5 236v6q0 314 405 314q92 0 162 -21v66q0 141 -156 141q-58 0 -133 -33q-2 -1 -13 -5.5t-18 -7t-20 -5t-27 -2.5q-59 0 -88.5 37
t-29.5 82q0 44 30.5 77.5t81.5 53t111.5 29.5t126.5 10q218 0 318 -106t100 -318v-381q0 -22 6.5 -35t11 -17t24 -10t23.5 -8q47 -18 47 -78q0 -45 -30 -78q-42 -49 -73.5 -113t-31.5 -116q0 -51 53 -51q14 0 39 4t29 4h18q38 0 65 -26t27 -62zM494 430q-82 0 -112 -31.5
t-30 -85.5v-6q0 -50 30 -72t97 -22q91 0 160 53v148q-82 16 -145 16z" />
    <glyph glyph-name="Cacute" unicode="&#x106;" horiz-adv-x="1069" 
d="M358 926v-406q0 -140 57 -213.5t189 -73.5q93 0 170 50l21 12q4 2 14.5 9t15 9.5t14 6t20 5t24.5 1.5q58 0 96.5 -36.5t38.5 -86.5q0 -58 -60.5 -109t-158.5 -80.5t-205 -29.5q-261 0 -391.5 142.5t-130.5 393.5v406q0 251 130.5 393.5t391.5 142.5q107 0 205 -29.5
t158.5 -80.5t60.5 -109q0 -50 -38.5 -86.5t-96.5 -36.5q-14 0 -24.5 1.5t-20 5t-14 6t-15 9.5t-14.5 9l-21 12q-76 49 -170 49q-132 0 -189 -73t-57 -213zM467 1702l166 162l16 16q15 15 23.5 21.5t23.5 12t37 5.5q37 0 69 -29.5t32 -70.5q0 -31 -19 -58l-168 -168
q-21 -18 -29 -24t-25 -12.5t-38 -6.5q-43 0 -73.5 28.5t-30.5 72.5q0 30 16 51z" />
    <glyph glyph-name="cacute" unicode="&#x107;" horiz-adv-x="907" 
d="M92 377v276q0 174 107 282.5t317 108.5q54 0 107.5 -7.5t111.5 -25t94.5 -55t36.5 -90.5q0 -44 -28.5 -74t-98.5 -30q-32 0 -67 12q-7 3 -24 9.5t-26.5 10t-24.5 7.5t-31 6t-34 2q-157 0 -157 -156v-276q0 -156 157 -156q18 0 33.5 1.5t32.5 6.5t24 7.5t27 10.5t23 9
q30 12 63 12q72 0 101.5 -30.5t29.5 -73.5q0 -42 -25 -74.5t-63 -51.5t-87.5 -31.5t-92 -16.5t-84.5 -4q-106 0 -187.5 30t-132 83.5t-76.5 123.5t-26 154zM371 1292l165 162l17 16q15 15 23.5 21.5t23.5 12t37 5.5q37 0 68.5 -29.5t31.5 -70.5q0 -31 -18 -57l-168 -168
q-21 -18 -29 -24t-25 -12.5t-38 -6.5q-44 0 -74.5 28.5t-30.5 71.5q0 28 17 51z" />
    <glyph glyph-name="Ccircumflex" unicode="&#x108;" horiz-adv-x="1069" 
d="M358 926v-406q0 -140 57 -213.5t189 -73.5q93 0 170 50l21 12q4 2 14.5 9t15 9.5t14 6t20 5t24.5 1.5q58 0 96.5 -36.5t38.5 -86.5q0 -58 -60.5 -109t-158.5 -80.5t-205 -29.5q-261 0 -391.5 142.5t-130.5 393.5v406q0 251 130.5 393.5t391.5 142.5q107 0 205 -29.5
t158.5 -80.5t60.5 -109q0 -50 -38.5 -86.5t-96.5 -36.5q-14 0 -24.5 1.5t-20 5t-14 6t-15 9.5t-14.5 9l-21 12q-76 49 -170 49q-132 0 -189 -73t-57 -213zM535 1876q40 0 75 -27l162 -125q52 -46 55 -92q0 -38 -30.5 -66t-71.5 -28q-19 0 -39 7.5t-42 24t-36 29.5t-39 37
t-34 33q-9 -8 -34 -33t-39.5 -37t-36.5 -29t-42 -24.5t-39 -7.5q-41 0 -71.5 28t-30.5 66q3 46 55 92l162 125q35 27 76 27z" />
    <glyph glyph-name="ccircumflex" unicode="&#x109;" horiz-adv-x="907" 
d="M92 377v276q0 174 107 282.5t317 108.5q54 0 107.5 -7.5t111.5 -25t94.5 -55t36.5 -90.5q0 -44 -28.5 -74t-98.5 -30q-32 0 -67 12q-7 3 -24 9.5t-26.5 10t-24.5 7.5t-31 6t-34 2q-157 0 -157 -156v-276q0 -156 157 -156q18 0 33.5 1.5t32.5 6.5t24 7.5t27 10.5t23 9
q30 12 63 12q72 0 101.5 -30.5t29.5 -73.5q0 -42 -25 -74.5t-63 -51.5t-87.5 -31.5t-92 -16.5t-84.5 -4q-106 0 -187.5 30t-132 83.5t-76.5 123.5t-26 154zM522 1466q43 0 76 -26l162 -125q52 -46 55 -92q0 -38 -30.5 -66.5t-71.5 -28.5q-19 0 -39 7.5t-42 24.5t-36.5 30
t-39.5 37t-34 33q-10 -9 -34 -33t-39 -37t-36.5 -29.5t-41.5 -24.5t-39 -8q-41 0 -72 28.5t-31 66.5q3 45 56 92l161 125q33 26 76 26z" />
    <glyph glyph-name="Cdotaccent" unicode="&#x10a;" horiz-adv-x="1069" 
d="M358 926v-406q0 -140 57 -213.5t189 -73.5q93 0 170 50l21 12q4 2 14.5 9t15 9.5t14 6t20 5t24.5 1.5q58 0 96.5 -36.5t38.5 -86.5q0 -58 -60.5 -109t-158.5 -80.5t-205 -29.5q-261 0 -391.5 142.5t-130.5 393.5v406q0 251 130.5 393.5t391.5 142.5q107 0 205 -29.5
t158.5 -80.5t60.5 -109q0 -50 -38.5 -86.5t-96.5 -36.5q-14 0 -24.5 1.5t-20 5t-14 6t-15 9.5t-14.5 9l-21 12q-76 49 -170 49q-132 0 -189 -73t-57 -213zM668 1669q0 -54 -39.5 -91.5t-96.5 -37.5q-55 0 -93 38t-38 91q0 51 38 88t93 37q57 0 96.5 -36.5t39.5 -88.5z" />
    <glyph glyph-name="cdotaccent" unicode="&#x10b;" horiz-adv-x="907" 
d="M92 377v276q0 174 107 282.5t317 108.5q54 0 107.5 -7.5t111.5 -25t94.5 -55t36.5 -90.5q0 -44 -28.5 -74t-98.5 -30q-32 0 -67 12q-7 3 -24 9.5t-26.5 10t-24.5 7.5t-31 6t-34 2q-157 0 -157 -156v-276q0 -156 157 -156q18 0 33.5 1.5t32.5 6.5t24 7.5t27 10.5t23 9
q30 12 63 12q72 0 101.5 -30.5t29.5 -73.5q0 -42 -25 -74.5t-63 -51.5t-87.5 -31.5t-92 -16.5t-84.5 -4q-106 0 -187.5 30t-132 83.5t-76.5 123.5t-26 154zM586 1260q0 -54 -39 -92t-96 -38q-55 0 -93.5 38.5t-38.5 91.5q0 51 38.5 87.5t93.5 36.5q57 0 96 -36t39 -88z" />
    <glyph glyph-name="Ccaron" unicode="&#x10c;" horiz-adv-x="1069" 
d="M358 926v-406q0 -140 57 -213.5t189 -73.5q93 0 170 50l21 12q4 2 14.5 9t15 9.5t14 6t20 5t24.5 1.5q58 0 96.5 -36.5t38.5 -86.5q0 -58 -60.5 -109t-158.5 -80.5t-205 -29.5q-261 0 -391.5 142.5t-130.5 393.5v406q0 251 130.5 393.5t391.5 142.5q107 0 205 -29.5
t158.5 -80.5t60.5 -109q0 -50 -38.5 -86.5t-96.5 -36.5q-14 0 -24.5 1.5t-20 5t-14 6t-15 9.5t-14.5 9l-21 12q-76 49 -170 49q-132 0 -189 -73t-57 -213zM473 1849l119 -106l119 106q12 11 35.5 18t37.5 7q40 0 70.5 -28t30.5 -66q0 -43 -56 -92l-161 -125q-31 -27 -76 -27
t-76 27l-162 125q-55 48 -55 92q0 38 30 66t70 28q14 0 38 -7t36 -18z" />
    <glyph glyph-name="ccaron" unicode="&#x10d;" horiz-adv-x="907" 
d="M92 377v276q0 174 107 282.5t317 108.5q54 0 107.5 -7.5t111.5 -25t94.5 -55t36.5 -90.5q0 -44 -28.5 -74t-98.5 -30q-32 0 -67 12q-7 3 -24 9.5t-26.5 10t-24.5 7.5t-31 6t-34 2q-157 0 -157 -156v-276q0 -156 157 -156q18 0 33.5 1.5t32.5 6.5t24 7.5t27 10.5t23 9
q30 12 63 12q72 0 101.5 -30.5t29.5 -73.5q0 -42 -25 -74.5t-63 -51.5t-87.5 -31.5t-92 -16.5t-84.5 -4q-106 0 -187.5 30t-132 83.5t-76.5 123.5t-26 154zM397 1440l119 -107l119 107q12 11 35.5 17.5t38.5 6.5q40 0 70 -28t30 -66q0 -44 -55 -92l-162 -125
q-31 -27 -76 -27t-76 27l-161 125q-56 49 -56 92q0 38 30.5 66t70.5 28q15 0 38 -6.5t35 -17.5z" />
    <glyph glyph-name="Dcaron" unicode="&#x10e;" horiz-adv-x="1216" 
d="M1143 555q0 -90 -19.5 -169t-66 -151t-117 -123t-178 -81.5t-242.5 -30.5h-231q-65 0 -112.5 43.5t-47.5 103.5v1151q0 60 47.5 104t112.5 44h231q135 0 242 -29t177.5 -78.5t117 -119t66.5 -146.5t20 -166v-352zM856 555v352q0 127 -72 203t-229 76h-139v-926h139
q158 0 229.5 81t71.5 214zM489 1849l119 -106l119 106q12 11 36 18t38 7q40 0 70 -28t30 -66q0 -44 -55 -92l-162 -125q-31 -27 -76 -27t-76 27l-161 125q-56 49 -56 92q0 38 30.5 66t70.5 28q14 0 37.5 -7t35.5 -18z" />
    <glyph glyph-name="dcaron" unicode="&#x10f;" horiz-adv-x="1454" 
d="M481 1042q90 0 181 -38v350q0 54 37.5 89.5t103.5 35.5q65 0 103 -36t38 -89v-1090q0 -22 8 -35t31 -36q29 -29 29 -70q0 -58 -40.5 -91.5t-92.5 -33.5q-69 0 -123 78q-83 -45 -149.5 -67.5t-139.5 -22.5q-176 0 -275.5 109t-99.5 292v231q0 424 389 424zM662 305v477
q-95 27 -150 27q-73 0 -105 -46.5t-32 -144.5v-231q0 -164 133 -164q65 0 158 43q-4 28 -4 39zM1118 991q3 33 31.5 85t36.5 98q-59 12 -96 55t-37 98q0 65 50 111.5t122 46.5q70 0 120 -46.5t50 -119.5q0 -65 -26 -162.5t-73 -177.5t-94 -80q-21 0 -39.5 5.5t-34 27.5
t-10.5 59z" />
    <glyph glyph-name="Dcroat" unicode="&#x110;" horiz-adv-x="1261" 
d="M1190 555q0 -90 -19.5 -169t-66 -151t-117 -123t-178 -81.5t-242.5 -30.5h-231q-65 0 -112.5 43.5t-47.5 103.5v451h-18q-58 0 -98 36t-40 89q0 52 40 89.5t98 37.5h18v446q0 60 47.5 104t112.5 44h231q135 0 242 -29t177.5 -78t117 -118t66.5 -146t20 -166v-352z
M803 723q0 -53 -39 -89t-96 -36h-205v-338h139q158 0 229.5 81t71.5 214v352q0 126 -72 201.5t-229 75.5h-139v-334h205q56 0 95.5 -37.5t39.5 -89.5z" />
    <glyph glyph-name="dcroat" unicode="&#x111;" horiz-adv-x="1212" 
d="M481 1042q90 0 181 -38v120h-156q-40 0 -68 30t-28 71t28 71.5t68 30.5h156v27q0 54 37.5 89.5t103.5 35.5q65 0 103 -36t38 -89v-27h133q38 0 66 -30.5t28 -71.5q0 -40 -28 -70.5t-66 -30.5h-133v-860q0 -22 8 -35t31 -36q29 -29 29 -70q0 -58 -40.5 -91.5t-92.5 -33.5
q-69 0 -123 78q-83 -45 -149.5 -67.5t-139.5 -22.5q-176 0 -275.5 109t-99.5 292v231q0 424 389 424zM662 305v477q-95 27 -150 27q-73 0 -105 -46.5t-32 -144.5v-231q0 -164 133 -164q65 0 158 43q-4 28 -4 39z" />
    <glyph glyph-name="Emacron" unicode="&#x112;" horiz-adv-x="1052" 
d="M1006 133q0 -55 -42.5 -94t-101.5 -39h-543q-84 0 -137 34t-53 111v1153q0 56 46.5 101t111.5 45h555q58 0 100.5 -39.5t42.5 -93.5q0 -55 -42 -91t-101 -36h-426v-330h387q56 0 98.5 -37.5t42.5 -91.5q0 -56 -40.5 -93.5t-100.5 -37.5h-387v-334h446q58 0 101 -37.5
t43 -89.5zM918 1700q0 -44 -33.5 -74t-81.5 -30h-551q-50 0 -83.5 30t-33.5 74q0 43 34 74t83 31h551q47 0 81 -31t34 -74z" />
    <glyph glyph-name="emacron" unicode="&#x113;" horiz-adv-x="993" 
d="M532 391q-68 0 -157 12v-67q0 -54 41.5 -84.5t122.5 -30.5q82 0 184 45q26 13 61 13q66 0 96.5 -35t30.5 -78q0 -50 -42 -87.5t-107 -56.5t-126.5 -27.5t-117.5 -8.5q-198 0 -312 100.5t-114 257.5v342q0 161 114.5 263t321.5 102q196 0 299 -94.5t103 -254.5
q0 -311 -398 -311zM649 717q0 60 -30.5 87t-92.5 27q-73 0 -112 -35.5t-39 -97.5v-88q88 -8 147 -8q62 0 94.5 26t32.5 89zM887 1290q0 -44 -33.5 -74t-81.5 -30h-551q-50 0 -83.5 30t-33.5 74q0 43 34 74t83 31h551q47 0 81 -31t34 -74z" />
    <glyph glyph-name="Ebreve" unicode="&#x114;" horiz-adv-x="1052" 
d="M1006 133q0 -55 -42.5 -94t-101.5 -39h-543q-84 0 -137 34t-53 111v1153q0 56 46.5 101t111.5 45h555q58 0 100.5 -39.5t42.5 -93.5q0 -55 -42 -91t-101 -36h-426v-330h387q56 0 98.5 -37.5t42.5 -91.5q0 -56 -40.5 -93.5t-100.5 -37.5h-387v-334h446q58 0 101 -37.5
t43 -89.5zM527 1731q61 0 121 63q36 48 94 48q46 0 75 -30.5t15 -84.5q-16 -56 -69 -99.5t-115.5 -64t-120.5 -20.5q-92 0 -185.5 50.5t-119.5 133.5q-14 54 15 84.5t75 30.5q61 0 92 -48q63 -63 123 -63z" />
    <glyph glyph-name="ebreve" unicode="&#x115;" horiz-adv-x="993" 
d="M532 391q-68 0 -157 12v-67q0 -54 41.5 -84.5t122.5 -30.5q82 0 184 45q26 13 61 13q66 0 96.5 -35t30.5 -78q0 -50 -42 -87.5t-107 -56.5t-126.5 -27.5t-117.5 -8.5q-198 0 -312 100.5t-114 257.5v342q0 161 114.5 263t321.5 102q196 0 299 -94.5t103 -254.5
q0 -311 -398 -311zM649 717q0 60 -30.5 87t-92.5 27q-73 0 -112 -35.5t-39 -97.5v-88q88 -8 147 -8q62 0 94.5 26t32.5 89zM496 1321q61 0 121 63q36 48 94 48q46 0 75 -30.5t15 -84.5q-16 -56 -69 -99.5t-115.5 -64t-120.5 -20.5q-92 0 -185.5 50.5t-119.5 133.5
q-14 54 15 84.5t75 30.5q61 0 92 -48q63 -63 123 -63z" />
    <glyph glyph-name="Edotaccent" unicode="&#x116;" horiz-adv-x="1052" 
d="M1006 133q0 -55 -42.5 -94t-101.5 -39h-543q-84 0 -137 34t-53 111v1153q0 56 46.5 101t111.5 45h555q58 0 100.5 -39.5t42.5 -93.5q0 -55 -42 -91t-101 -36h-426v-330h387q56 0 98.5 -37.5t42.5 -91.5q0 -56 -40.5 -93.5t-100.5 -37.5h-387v-334h446q58 0 101 -37.5
t43 -89.5zM659 1669q0 -54 -39 -91.5t-96 -37.5q-55 0 -93 38t-38 91q0 51 38 88t93 37q57 0 96 -36t39 -89z" />
    <glyph glyph-name="edotaccent" unicode="&#x117;" horiz-adv-x="993" 
d="M532 391q-68 0 -157 12v-67q0 -54 41.5 -84.5t122.5 -30.5q82 0 184 45q26 13 61 13q66 0 96.5 -35t30.5 -78q0 -50 -42 -87.5t-107 -56.5t-126.5 -27.5t-117.5 -8.5q-198 0 -312 100.5t-114 257.5v342q0 161 114.5 263t321.5 102q196 0 299 -94.5t103 -254.5
q0 -311 -398 -311zM649 717q0 60 -30.5 87t-92.5 27q-73 0 -112 -35.5t-39 -97.5v-88q88 -8 147 -8q62 0 94.5 26t32.5 89zM629 1260q0 -54 -39 -92t-96 -38q-55 0 -93.5 38.5t-38.5 91.5q0 51 38.5 87.5t93.5 36.5q57 0 96 -36t39 -88z" />
    <glyph glyph-name="Eogonek" unicode="&#x118;" horiz-adv-x="1052" 
d="M1001 -340q0 -109 -194 -109q-115 0 -181.5 52.5t-66.5 156.5q0 105 96 240h-336q-84 0 -137 34t-53 111v1153q0 56 46.5 101t111.5 45h555q58 0 100.5 -39.5t42.5 -93.5q0 -55 -42 -91t-101 -36h-426v-330h387q56 0 98.5 -37.5t42.5 -91.5q0 -56 -40.5 -93.5
t-100.5 -37.5h-387v-334h446q58 0 101 -37.5t43 -89.5q0 -55 -42.5 -94t-101.5 -39l-39 -63q-53 -88 -53 -146q0 -51 53 -51q14 0 39 4t29 4h18q38 0 65 -26t27 -62z" />
    <glyph glyph-name="eogonek" unicode="&#x119;" horiz-adv-x="993" 
d="M930 -340q0 -109 -195 -109q-115 0 -181.5 52.5t-66.5 156.5q0 102 88 228q-11 0 -30 -1t-27 -1q-198 0 -312 100.5t-114 257.5v342q0 161 114.5 263t321.5 102q196 0 299 -94.5t103 -254.5q0 -311 -398 -311q-68 0 -157 12v-67q0 -54 41.5 -84.5t122.5 -30.5
q82 0 184 45q26 13 61 13q66 0 96.5 -35t30.5 -78q0 -20 -10.5 -39t-20.5 -28.5t-35 -29.5t-34 -28q-47 -41 -80 -115t-33 -135q0 -23 13.5 -37t40.5 -14q14 0 38.5 4t28.5 4h19q38 0 65 -26t27 -62zM649 717q0 60 -30.5 87t-92.5 27q-73 0 -112 -35.5t-39 -97.5v-88
q88 -8 147 -8q62 0 94.5 26t32.5 89z" />
    <glyph glyph-name="Ecaron" unicode="&#x11a;" horiz-adv-x="1052" 
d="M1006 133q0 -55 -42.5 -94t-101.5 -39h-543q-84 0 -137 34t-53 111v1153q0 56 46.5 101t111.5 45h555q58 0 100.5 -39.5t42.5 -93.5q0 -55 -42 -91t-101 -36h-426v-330h387q56 0 98.5 -37.5t42.5 -91.5q0 -56 -40.5 -93.5t-100.5 -37.5h-387v-334h446q58 0 101 -37.5
t43 -89.5zM457 1850l119 -107l119 107q12 11 35 17.5t38 6.5q40 0 70.5 -28t30.5 -66q0 -43 -56 -92l-161 -125q-31 -27 -76 -27t-76 27l-162 125q-55 48 -55 92q0 38 30 66t70 28q15 0 38.5 -6.5t35.5 -17.5z" />
    <glyph glyph-name="ecaron" unicode="&#x11b;" horiz-adv-x="993" 
d="M532 391q-68 0 -157 12v-67q0 -54 41.5 -84.5t122.5 -30.5q82 0 184 45q26 13 61 13q66 0 96.5 -35t30.5 -78q0 -50 -42 -87.5t-107 -56.5t-126.5 -27.5t-117.5 -8.5q-198 0 -312 100.5t-114 257.5v342q0 161 114.5 263t321.5 102q196 0 299 -94.5t103 -254.5
q0 -311 -398 -311zM649 717q0 60 -30.5 87t-92.5 27q-73 0 -112 -35.5t-39 -97.5v-88q88 -8 147 -8q62 0 94.5 26t32.5 89zM377 1440l119 -107l119 107q12 11 35 17.5t38 6.5q40 0 70.5 -28t30.5 -66q0 -43 -56 -92l-161 -125q-31 -27 -76 -27t-76 27l-162 125
q-55 48 -55 92q0 38 30 66t70 28q15 0 38.5 -6.5t35.5 -17.5z" />
    <glyph glyph-name="Gcircumflex" unicode="&#x11c;" horiz-adv-x="1146" 
d="M358 926v-406q0 -140 57 -213.5t189 -73.5q89 0 170 43v320h-106q-52 0 -90.5 38t-38.5 91t38.5 91t90.5 38h223q75 0 121.5 -36.5t46.5 -106.5v-453q0 -69 -42.5 -123.5t-111.5 -86.5t-148.5 -48t-162.5 -16q-261 0 -391.5 142.5t-130.5 393.5v406q0 251 130.5 393.5
t391.5 142.5q107 0 205 -29.5t158.5 -80.5t60.5 -109q0 -50 -38.5 -86.5t-96.5 -36.5q-14 0 -24.5 1.5t-20 5t-14 6t-15 9.5t-14.5 9l-21 12q-81 49 -170 49q-132 0 -189 -73t-57 -213zM574 1876q43 0 76 -26l161 -125q53 -47 56 -92q0 -38 -31 -66.5t-72 -28.5q-19 0 -39 8
t-41.5 24.5t-36.5 29.5t-39 37t-34 33q-9 -9 -34 -33t-39.5 -37t-36.5 -30t-42 -24.5t-39 -7.5q-41 0 -71.5 28.5t-30.5 66.5q3 46 55 92l162 125q33 26 76 26z" />
    <glyph glyph-name="gcircumflex" unicode="&#x11d;" horiz-adv-x="1091" 
d="M72 -164q0 61 30 114.5t101 110.5q-43 74 -43 168q0 80 57 150q-131 110 -131 283q0 171 109.5 280t300.5 109q131 0 274 -70q40 55 88 84t92 29q54 0 93.5 -34.5t39.5 -84.5q0 -47 -32 -74q-59 -52 -76 -75.5t-17 -63.5v-115q0 -166 -112 -269.5t-328 -103.5
q-61 0 -112 11q-13 -35 -13 -47q0 -66 58 -66h86q137 0 240.5 -32.5t167 -105t63.5 -177.5q0 -161 -135 -257t-347 -96q-203 0 -328.5 90t-125.5 242zM676 788q-81 35 -146 35q-78 0 -119.5 -43t-41.5 -123q0 -161 157 -161q75 0 112.5 39t37.5 110v143zM541 -59l-150 2
q-37 -46 -37 -86q0 -58 44 -89.5t132 -31.5q89 0 142 30.5t53 83.5q0 91 -184 91zM545 1466q43 0 76 -26l161 -125q53 -47 56 -92q0 -38 -31 -66.5t-72 -28.5q-19 0 -39 8t-41.5 24.5t-36.5 29.5t-39 37t-34 33q-9 -9 -34 -33t-39.5 -37t-36.5 -30t-42 -24.5t-39 -7.5
q-41 0 -71.5 28.5t-30.5 66.5q3 46 55 92l162 125q33 26 76 26z" />
    <glyph glyph-name="Gbreve" unicode="&#x11e;" horiz-adv-x="1146" 
d="M358 926v-406q0 -140 57 -213.5t189 -73.5q89 0 170 43v320h-106q-52 0 -90.5 38t-38.5 91t38.5 91t90.5 38h223q75 0 121.5 -36.5t46.5 -106.5v-453q0 -69 -42.5 -123.5t-111.5 -86.5t-148.5 -48t-162.5 -16q-261 0 -391.5 142.5t-130.5 393.5v406q0 251 130.5 393.5
t391.5 142.5q107 0 205 -29.5t158.5 -80.5t60.5 -109q0 -50 -38.5 -86.5t-96.5 -36.5q-14 0 -24.5 1.5t-20 5t-14 6t-15 9.5t-14.5 9l-21 12q-81 49 -170 49q-132 0 -189 -73t-57 -213zM574 1731q61 0 121 63q36 48 94 48q46 0 75 -30.5t15 -84.5q-16 -56 -69 -99.5
t-115.5 -64t-120.5 -20.5q-92 0 -185.5 50.5t-119.5 133.5q-14 54 15 84.5t75 30.5q61 0 92 -48q63 -63 123 -63z" />
    <glyph glyph-name="gbreve" unicode="&#x11f;" horiz-adv-x="1091" 
d="M72 -164q0 61 30 114.5t101 110.5q-43 74 -43 168q0 80 57 150q-131 110 -131 283q0 171 109.5 280t300.5 109q131 0 274 -70q40 55 88 84t92 29q54 0 93.5 -34.5t39.5 -84.5q0 -47 -32 -74q-59 -52 -76 -75.5t-17 -63.5v-115q0 -166 -112 -269.5t-328 -103.5
q-61 0 -112 11q-13 -35 -13 -47q0 -66 58 -66h86q137 0 240.5 -32.5t167 -105t63.5 -177.5q0 -161 -135 -257t-347 -96q-203 0 -328.5 90t-125.5 242zM676 788q-81 35 -146 35q-78 0 -119.5 -43t-41.5 -123q0 -161 157 -161q75 0 112.5 39t37.5 110v143zM541 -59l-150 2
q-37 -46 -37 -86q0 -58 44 -89.5t132 -31.5q89 0 142 30.5t53 83.5q0 91 -184 91zM545 1321q61 0 121 63q36 48 94 48q46 0 75 -30.5t15 -84.5q-16 -56 -69 -99.5t-115.5 -64t-120.5 -20.5q-92 0 -185.5 50.5t-119.5 133.5q-14 54 15 84.5t75 30.5q61 0 92 -48
q63 -63 123 -63z" />
    <glyph glyph-name="Gdotaccent" unicode="&#x120;" horiz-adv-x="1146" 
d="M358 926v-406q0 -140 57 -213.5t189 -73.5q89 0 170 43v320h-106q-52 0 -90.5 38t-38.5 91t38.5 91t90.5 38h223q75 0 121.5 -36.5t46.5 -106.5v-453q0 -69 -42.5 -123.5t-111.5 -86.5t-148.5 -48t-162.5 -16q-261 0 -391.5 142.5t-130.5 393.5v406q0 251 130.5 393.5
t391.5 142.5q107 0 205 -29.5t158.5 -80.5t60.5 -109q0 -50 -38.5 -86.5t-96.5 -36.5q-14 0 -24.5 1.5t-20 5t-14 6t-15 9.5t-14.5 9l-21 12q-81 49 -170 49q-132 0 -189 -73t-57 -213zM706 1670q0 -54 -39 -92t-96 -38q-55 0 -93 38.5t-38 91.5q0 51 38 87.5t93 36.5
q57 0 96 -36t39 -88z" />
    <glyph glyph-name="gdotaccent" unicode="&#x121;" horiz-adv-x="1091" 
d="M72 -164q0 61 30 114.5t101 110.5q-43 74 -43 168q0 80 57 150q-131 110 -131 283q0 171 109.5 280t300.5 109q131 0 274 -70q40 55 88 84t92 29q54 0 93.5 -34.5t39.5 -84.5q0 -47 -32 -74q-59 -52 -76 -75.5t-17 -63.5v-115q0 -166 -112 -269.5t-328 -103.5
q-61 0 -112 11q-13 -35 -13 -47q0 -66 58 -66h86q137 0 240.5 -32.5t167 -105t63.5 -177.5q0 -161 -135 -257t-347 -96q-203 0 -328.5 90t-125.5 242zM676 788q-81 35 -146 35q-78 0 -119.5 -43t-41.5 -123q0 -161 157 -161q75 0 112.5 39t37.5 110v143zM541 -59l-150 2
q-37 -46 -37 -86q0 -58 44 -89.5t132 -31.5q89 0 142 30.5t53 83.5q0 91 -184 91zM678 1260q0 -54 -39 -92t-96 -38q-55 0 -93 38.5t-38 91.5q0 51 38 87.5t93 36.5q57 0 96 -36t39 -88z" />
    <glyph glyph-name="uni0122" unicode="&#x122;" horiz-adv-x="1146" 
d="M358 926v-406q0 -140 57 -213.5t189 -73.5q89 0 170 43v320h-106q-52 0 -90.5 38t-38.5 91t38.5 91t90.5 38h223q75 0 121.5 -36.5t46.5 -106.5v-453q0 -69 -42.5 -123.5t-111.5 -86.5t-148.5 -48t-162.5 -16q-261 0 -391.5 142.5t-130.5 393.5v406q0 251 130.5 393.5
t391.5 142.5q107 0 205 -29.5t158.5 -80.5t60.5 -109q0 -50 -38.5 -86.5t-96.5 -36.5q-14 0 -24.5 1.5t-20 5t-14 6t-15 9.5t-14.5 9l-21 12q-81 49 -170 49q-132 0 -189 -73t-57 -213zM725 -213q0 -54 -33.5 -119.5t-81 -110t-84.5 -44.5t-37 34q0 24 32.5 63.5t43.5 63.5
q-71 3 -106 25t-35 84q0 54 33.5 83.5t115.5 29.5q152 0 152 -109z" />
    <glyph glyph-name="uni0123" unicode="&#x123;" horiz-adv-x="1091" 
d="M72 -164q0 61 30 114.5t101 110.5q-43 74 -43 168q0 80 57 150q-131 110 -131 283q0 171 109.5 280t300.5 109q131 0 274 -70q40 55 88 84t92 29q54 0 93.5 -34.5t39.5 -84.5q0 -47 -32 -74q-59 -52 -76 -75.5t-17 -63.5v-115q0 -166 -112 -269.5t-328 -103.5
q-61 0 -112 11q-13 -35 -13 -47q0 -66 58 -66h86q137 0 240.5 -32.5t167 -105t63.5 -177.5q0 -161 -135 -257t-347 -96q-203 0 -328.5 90t-125.5 242zM676 788q-81 35 -146 35q-78 0 -119.5 -43t-41.5 -123q0 -161 157 -161q75 0 112.5 39t37.5 110v143zM541 -59l-150 2
q-37 -46 -37 -86q0 -58 44 -89.5t132 -31.5q89 0 142 30.5t53 83.5q0 91 -184 91zM354 1300q0 54 33.5 120t81 110.5t84.5 44.5q15 0 26 -9t11 -26q0 -24 -33 -64.5t-43 -62.5q71 -3 106 -24.5t35 -83.5q0 -54 -33.5 -83.5t-115.5 -29.5q-152 0 -152 108z" />
    <glyph glyph-name="Hcircumflex" unicode="&#x124;" horiz-adv-x="1269" 
d="M1139 115q0 -54 -43 -93.5t-101 -39.5q-57 0 -100 39.5t-43 93.5v477h-436v-477q0 -54 -43 -93.5t-101 -39.5q-60 0 -101.5 39.5t-41.5 93.5v1216q0 53 42 92t101 39q58 0 101 -39t43 -92v-477h436v477q0 52 43 91.5t100 39.5t100.5 -39.5t43.5 -91.5v-1216zM635 1876
q41 0 76 -27l161 -125q53 -47 56 -92q0 -38 -31 -66t-72 -28q-19 0 -39 7.5t-42 24t-36 29.5t-39 37t-34 33q-9 -8 -34 -33t-39.5 -37t-36.5 -29t-42 -24.5t-39 -7.5q-41 0 -71.5 28t-30.5 66q3 46 55 92l162 125q35 27 76 27z" />
    <glyph glyph-name="Itilde" unicode="&#x128;" horiz-adv-x="546" 
d="M129 113v1218q0 53 42 92t101 39q58 0 101 -39t43 -92v-1218q0 -53 -43 -92t-101 -39q-59 0 -101 39t-42 92zM594 1726q0 -61 -59.5 -105t-124.5 -44q-47 0 -90.5 18.5t-79 39.5t-58.5 24q-20 3 -37 -8t-27 -26t-28 -27.5t-41 -12.5q-34 0 -62 23.5t-32 60.5
q0 69 54.5 116.5t125.5 47.5q49 0 93 -20.5t78 -41t59 -20.5q21 0 37 11.5t25.5 25.5t26.5 25.5t40 11.5q39 0 69.5 -28.5t30.5 -70.5z" />
    <glyph glyph-name="itilde" unicode="&#x129;" horiz-adv-x="583" 
d="M432 113q0 -54 -40.5 -90.5t-100.5 -36.5t-100.5 36.5t-40.5 90.5v807q0 51 40.5 87.5t100.5 36.5t100.5 -36.5t40.5 -87.5v-807zM613 1317q0 -61 -60 -105.5t-124 -44.5q-47 0 -90.5 18.5t-79 39.5t-58.5 24q-20 3 -37 -8t-27 -25.5t-28 -27t-41 -12.5q-34 0 -62 23.5
t-32 60.5q0 69 54.5 116t125.5 47q49 0 93 -20.5t77.5 -41t58.5 -20.5q21 0 37 11.5t25.5 25.5t26.5 25.5t40 11.5q40 0 70.5 -28.5t30.5 -69.5z" />
    <glyph glyph-name="Imacron" unicode="&#x12a;" horiz-adv-x="546" 
d="M129 113v1218q0 53 42 92t101 39q58 0 101 -39t43 -92v-1218q0 -53 -43 -92t-101 -39q-59 0 -101 39t-42 92zM666 1700q0 -44 -33.5 -74t-81.5 -30h-551q-50 0 -83.5 30t-33.5 74q0 43 34 74t83 31h551q47 0 81 -31t34 -74z" />
    <glyph glyph-name="imacron" unicode="&#x12b;" horiz-adv-x="583" 
d="M432 113q0 -54 -40.5 -90.5t-100.5 -36.5t-100.5 36.5t-40.5 90.5v807q0 51 40.5 87.5t100.5 36.5t100.5 -36.5t40.5 -87.5v-807zM684 1290q0 -44 -33.5 -74t-81.5 -30h-551q-50 0 -83.5 30t-33.5 74q0 43 34 74t83 31h551q47 0 81 -31t34 -74z" />
    <glyph glyph-name="Ibreve" unicode="&#x12c;" horiz-adv-x="546" 
d="M129 113v1218q0 53 42 92t101 39q58 0 101 -39t43 -92v-1218q0 -53 -43 -92t-101 -39q-59 0 -101 39t-42 92zM275 1731q61 0 121 63q36 48 94 48q46 0 75 -30.5t15 -84.5q-16 -56 -69 -99.5t-115.5 -64t-120.5 -20.5q-92 0 -185.5 50.5t-119.5 133.5q-14 54 15 84.5
t75 30.5q61 0 92 -48q63 -63 123 -63z" />
    <glyph glyph-name="ibreve" unicode="&#x12d;" horiz-adv-x="583" 
d="M432 113q0 -54 -40.5 -90.5t-100.5 -36.5t-100.5 36.5t-40.5 90.5v807q0 51 40.5 87.5t100.5 36.5t100.5 -36.5t40.5 -87.5v-807zM293 1321q61 0 121 63q36 48 94 48q46 0 75 -30.5t15 -84.5q-16 -56 -69 -99.5t-115.5 -64t-120.5 -20.5q-92 0 -185.5 50.5t-119.5 133.5
q-14 54 15 84.5t75 30.5q61 0 92 -48q63 -63 123 -63z" />
    <glyph glyph-name="Iogonek" unicode="&#x12e;" horiz-adv-x="546" 
d="M129 113v1218q0 53 42 92t101 39q58 0 101 -39t43 -92v-1218q0 -39 -43 -93q-41 -49 -71 -113t-30 -116q0 -23 13.5 -37t40.5 -14q14 0 38.5 4t28.5 4h19q38 0 65 -26t27 -62q0 -109 -195 -109q-115 0 -181.5 52.5t-66.5 156.5q0 116 113 256q-45 39 -45 97z" />
    <glyph glyph-name="iogonek" unicode="&#x12f;" horiz-adv-x="583" 
d="M514 -340q0 -109 -195 -109q-114 0 -180.5 52.5t-66.5 156.5q0 115 121 260q-43 37 -43 93v807q0 51 40.5 87.5t100.5 36.5t100.5 -36.5t40.5 -87.5v-807q0 -48 -41 -93q-43 -50 -75.5 -114t-32.5 -115t53 -51q14 0 38.5 4t28.5 4h19q38 0 65 -26t27 -62zM451 1319
q0 -60 -46.5 -101.5t-113.5 -41.5t-113.5 42t-46.5 101q0 60 46.5 101.5t113.5 41.5t113.5 -42t46.5 -101z" />
    <glyph glyph-name="Idotaccent" unicode="&#x130;" horiz-adv-x="546" 
d="M129 113v1218q0 53 42 92t101 39q58 0 101 -39t43 -92v-1218q0 -53 -43 -92t-101 -39q-59 0 -101 39t-42 92zM407 1670q0 -54 -39 -92t-96 -38q-55 0 -93 38.5t-38 91.5q0 51 38 87.5t93 36.5q57 0 96 -36t39 -88z" />
    <glyph glyph-name="dotlessi" unicode="&#x131;" horiz-adv-x="583" 
d="M432 113q0 -54 -40.5 -90.5t-100.5 -36.5t-100.5 36.5t-40.5 90.5v807q0 51 40.5 87.5t100.5 36.5t100.5 -36.5t40.5 -87.5v-807z" />
    <glyph glyph-name="Jcircumflex" unicode="&#x134;" horiz-adv-x="870" 
d="M741 1331v-850q0 -97 -14 -172t-48 -137.5t-88 -103.5t-135.5 -63.5t-189.5 -22.5q-235 0 -235 141q0 57 42.5 93t90.5 36q23 0 61 -6t64 -6q97 0 131.5 59t34.5 182v850q0 55 41 93t102 38q57 0 100 -39.5t43 -91.5zM598 1876q43 0 76 -26l161 -125q53 -47 56 -92
q0 -38 -31 -66.5t-72 -28.5q-19 0 -39 8t-41.5 24.5t-36.5 29.5t-39 37t-34 33q-9 -9 -34 -33t-39.5 -37t-36.5 -30t-42 -24.5t-39 -7.5q-41 0 -71.5 28.5t-30.5 66.5q3 46 55 92l162 125q33 26 76 26z" />
    <glyph glyph-name="jcircumflex" unicode="&#x135;" horiz-adv-x="583" 
d="M432 948v-919q0 -173 -89.5 -280.5t-252.5 -129.5q-16 -2 -47 -2q-48 0 -82.5 25t-44.5 67v-2q-18 63 18.5 103t88.5 49q127 27 127 161v928q0 53 41 91t100 38t100 -38t41 -91zM293 1466q43 0 76 -26l161 -125q53 -47 56 -92q0 -38 -31 -66.5t-72 -28.5q-19 0 -39 8
t-41.5 24.5t-36.5 29.5t-39 37t-34 33q-9 -9 -34 -33t-39.5 -37t-36.5 -30t-42 -24.5t-39 -7.5q-41 0 -71.5 28.5t-30.5 66.5q3 46 55 92l162 125q33 26 76 26z" />
    <glyph glyph-name="uni0136" unicode="&#x136;" horiz-adv-x="1138" 
d="M1044 1243l-407 -461l448 -594q23 -31 23 -69q0 -49 -38.5 -93t-100.5 -44q-74 0 -119 59l-397 532l-37 -41v-417q0 -54 -43 -93.5t-101 -39.5q-60 0 -101.5 39.5t-41.5 93.5v1216q0 53 42 92t101 39q58 0 101 -39t43 -92v-389l405 461q20 25 52.5 42t64.5 17
q49 0 95 -39.5t46 -91.5q0 -27 -6 -44.5t-29 -43.5zM776 -213q0 -54 -33.5 -119.5t-80.5 -110t-84 -44.5t-37 34q0 24 32.5 63.5t42.5 63.5q-71 3 -106 25t-35 84q0 54 33.5 83.5t116.5 29.5q151 0 151 -109z" />
    <glyph glyph-name="uni0137" unicode="&#x137;" horiz-adv-x="997" 
d="M414 702l282 306q34 34 97 34q59 0 98 -34t39 -86q0 -50 -39 -86h2l-250 -265l301 -397q23 -33 23 -76q-3 -51 -42 -81.5t-96 -30.5q-74 0 -116 57l-277 375l-22 -21v-284q0 -54 -41 -90.5t-101 -36.5t-100.5 36.5t-40.5 90.5v1239q0 54 40.5 90.5t100.5 36.5t101 -36.5
t41 -90.5v-650zM709 -213q0 -54 -33.5 -119.5t-81 -110t-84.5 -44.5t-37 34q0 24 32.5 63.5t43.5 63.5q-71 3 -106 25t-35 84q0 54 33.5 83.5t115.5 29.5q152 0 152 -109z" />
    <glyph glyph-name="Lacute" unicode="&#x139;" horiz-adv-x="1030" 
d="M999 131q0 -55 -40 -93t-99 -38h-577q-62 0 -108 41t-46 100v1190q0 53 42 92t101 39q58 0 101 -39t43 -92v-1073h444q56 0 97.5 -37t41.5 -90zM234 1702l165 162l17 16q15 15 23.5 21.5t23.5 12t37 5.5q37 0 68.5 -29.5t31.5 -70.5q0 -31 -18 -57l-168 -168
q-21 -18 -29 -24t-25 -12.5t-38 -6.5q-44 0 -74.5 28.5t-30.5 71.5q0 28 17 51z" />
    <glyph glyph-name="lacute" unicode="&#x13a;" horiz-adv-x="548" 
d="M328 -14q-29 0 -52.5 4t-51.5 19t-47.5 40t-32.5 70.5t-13 107.5v1125q0 52 41 89.5t100 37.5q60 0 101 -36.5t41 -90.5v-1100q0 -34 4.5 -48t25.5 -36q3 -4 11 -12.5t11 -12t7.5 -11.5t6 -16.5t1.5 -19.5q0 -55 -40 -82.5t-113 -27.5zM172 1716l166 162l16 16
q15 15 23.5 21.5t23.5 12t37 5.5q37 0 69 -29.5t32 -70.5q0 -30 -19 -57l-168 -168q-21 -18 -29 -24t-25 -12.5t-38 -6.5q-44 0 -74 28t-30 72q0 30 16 51z" />
    <glyph glyph-name="uni013B" unicode="&#x13b;" horiz-adv-x="1030" 
d="M999 131q0 -55 -40 -93t-99 -38h-577q-62 0 -108 41t-46 100v1190q0 53 42 92t101 39q58 0 101 -39t43 -92v-1073h444q56 0 97.5 -37t41.5 -90zM666 -213q0 -54 -33.5 -119.5t-81 -110t-84.5 -44.5t-37 34q0 24 32.5 63.5t43.5 63.5q-71 3 -106 25t-35 84q0 54 33.5 83.5
t115.5 29.5q152 0 152 -109z" />
    <glyph glyph-name="uni013C" unicode="&#x13c;" horiz-adv-x="548" 
d="M328 -14q-29 0 -52.5 4t-51.5 19t-47.5 40t-32.5 70.5t-13 107.5v1125q0 52 41 89.5t100 37.5q60 0 101 -36.5t41 -90.5v-1100q0 -34 4.5 -48t25.5 -36q3 -4 11 -12.5t11 -12t7.5 -11.5t6 -16.5t1.5 -19.5q0 -55 -40 -82.5t-113 -27.5zM426 -213q0 -54 -33.5 -119.5
t-81 -110t-84.5 -44.5t-37 34q0 24 32.5 63.5t43.5 63.5q-71 3 -106 25t-35 84q0 54 33.5 83.5t115.5 29.5q152 0 152 -109z" />
    <glyph glyph-name="Lcaron" unicode="&#x13d;" horiz-adv-x="1030" 
d="M999 131q0 -55 -40 -93t-99 -38h-577q-62 0 -108 41t-46 100v1190q0 53 42 92t101 39q58 0 101 -39t43 -92v-1073h444q56 0 97.5 -37t41.5 -90zM659 991q3 33 31.5 85t36.5 98q-59 12 -96 55t-37 98q0 65 50 111.5t122 46.5q70 0 120 -46.5t50 -119.5q0 -65 -26 -162.5
t-73 -177.5t-94 -80q-21 0 -39.5 5.5t-34 27.5t-10.5 59z" />
    <glyph glyph-name="lcaron" unicode="&#x13e;" horiz-adv-x="931" 
d="M328 -14q-29 0 -52.5 4t-51.5 19t-47.5 40t-32.5 70.5t-13 107.5v1125q0 52 41 89.5t100 37.5q60 0 101 -36.5t41 -90.5v-1100q0 -34 4.5 -48t25.5 -36q3 -4 11 -12.5t11 -12t7.5 -11.5t6 -16.5t1.5 -19.5q0 -55 -40 -82.5t-113 -27.5zM612 991q3 33 31.5 85t36.5 98
q-59 12 -96 55t-37 98q0 65 50 111.5t122 46.5q70 0 120 -46.5t50 -119.5q0 -65 -26 -162.5t-73 -177.5t-94 -80q-21 0 -39.5 5.5t-34 27.5t-10.5 59z" />
    <glyph glyph-name="Lslash" unicode="&#x141;" horiz-adv-x="1116" 
d="M1053 131q0 -55 -40.5 -93t-99.5 -38h-577q-62 0 -108 41t-46 100v383l-12 -8q-41 -27 -57 -27q-42 0 -71.5 24t-29.5 69q0 49 41 73l129 84v592q0 53 42.5 92t101.5 39q58 0 100.5 -39t42.5 -92v-403l127 84q39 24 72 24q27 0 50 -17t32 -44q4 -20 4 -29q0 -47 -39 -72
l-246 -161v-455h444q56 0 98 -37t42 -90z" />
    <glyph glyph-name="lslash" unicode="&#x142;" horiz-adv-x="772" 
d="M750 975q4 -20 4 -29q0 -47 -39 -72l-207 -137v-485q0 -33 5 -47t26 -37q3 -3 11 -12t10.5 -12.5t7 -11.5t6 -16.5t1.5 -19.5q0 -55 -40 -82.5t-113 -27.5q-29 0 -52.5 4t-51.5 19t-47.5 40t-32.5 70.5t-13 107.5v326l-55 -37q-41 -27 -57 -27q-42 0 -71.5 24t-29.5 69
q0 49 41 73l172 113v584q0 52 41.5 89.5t100.5 37.5q60 0 100.5 -36.5t40.5 -90.5v-400l88 60q39 24 72 24q27 0 50 -17t32 -44z" />
    <glyph glyph-name="Nacute" unicode="&#x143;" horiz-adv-x="1310" 
d="M1028 -18q-40 0 -78.5 19.5t-58.5 51.5l-475 828v-766q0 -54 -43.5 -93.5t-102.5 -39.5t-100 39t-41 94v1208q0 60 42.5 99.5t107.5 39.5q41 0 79 -21t60 -55q113 -196 475 -831v774q0 54 43 93.5t102 39.5t100.5 -39t41.5 -94v-1208q0 -58 -43 -98.5t-109 -40.5z
M561 1702l166 162l16 16q15 15 23.5 21.5t23.5 12t37 5.5q37 0 69 -29.5t32 -70.5q0 -31 -19 -58l-168 -168q-21 -18 -29 -24t-25 -12.5t-38 -6.5q-43 0 -73.5 28.5t-30.5 72.5q0 30 16 51z" />
    <glyph glyph-name="nacute" unicode="&#x144;" horiz-adv-x="1124" 
d="M420 731v-618q0 -55 -36.5 -90t-104.5 -35t-105 35t-37 90v620q0 32 -3 50.5t-5 22.5t-8 13q-22 29 -28.5 44.5t-6.5 35.5q0 51 39 85t98 34q62 0 109 -60q134 89 270 89q189 0 288 -107.5t99 -292.5v-534q0 -54 -37.5 -89.5t-103.5 -35.5t-103.5 35.5t-37.5 89.5v534
q0 76 -36 121t-98 45q-64 0 -157 -43q4 -28 4 -39zM387 1292l165 162l17 16q15 15 23.5 21.5t23.5 12t37 5.5q37 0 68.5 -29.5t31.5 -70.5q0 -31 -18 -57l-168 -168q-21 -18 -29 -24t-25 -12.5t-38 -6.5q-44 0 -74.5 28.5t-30.5 71.5q0 28 17 51z" />
    <glyph glyph-name="uni0145" unicode="&#x145;" horiz-adv-x="1310" 
d="M1028 -18q-40 0 -78.5 19.5t-58.5 51.5l-475 828v-766q0 -54 -43.5 -93.5t-102.5 -39.5t-100 39t-41 94v1208q0 60 42.5 99.5t107.5 39.5q41 0 79 -21t60 -55q113 -196 475 -831v774q0 54 43 93.5t102 39.5t100.5 -39t41.5 -94v-1208q0 -58 -43 -98.5t-109 -40.5z
M807 -213q0 -54 -33.5 -119.5t-81 -110t-84.5 -44.5t-37 34q0 24 32.5 63.5t43.5 63.5q-71 3 -106 25t-35 84q0 54 33.5 83.5t115.5 29.5q152 0 152 -109z" />
    <glyph glyph-name="uni0146" unicode="&#x146;" horiz-adv-x="1124" 
d="M420 731v-618q0 -55 -36.5 -90t-104.5 -35t-105 35t-37 90v620q0 32 -3 50.5t-5 22.5t-8 13q-22 29 -28.5 44.5t-6.5 35.5q0 51 39 85t98 34q62 0 109 -60q134 89 270 89q189 0 288 -107.5t99 -292.5v-534q0 -54 -37.5 -89.5t-103.5 -35.5t-103.5 35.5t-37.5 89.5v534
q0 76 -36 121t-98 45q-64 0 -157 -43q4 -28 4 -39zM713 -213q0 -54 -33.5 -119.5t-81 -110t-84.5 -44.5t-37 34q0 24 32.5 63.5t43.5 63.5q-71 3 -106 25t-35 84q0 54 33.5 83.5t115.5 29.5q152 0 152 -109z" />
    <glyph glyph-name="Ncaron" unicode="&#x147;" horiz-adv-x="1310" 
d="M1028 -18q-40 0 -78.5 19.5t-58.5 51.5l-475 828v-766q0 -54 -43.5 -93.5t-102.5 -39.5t-100 39t-41 94v1208q0 60 42.5 99.5t107.5 39.5q41 0 79 -21t60 -55q113 -196 475 -831v774q0 54 43 93.5t102 39.5t100.5 -39t41.5 -94v-1208q0 -58 -43 -98.5t-109 -40.5z
M536 1850l119 -107l119 107q12 11 35 17.5t38 6.5q40 0 70.5 -28t30.5 -66q0 -43 -56 -92l-161 -125q-31 -27 -76 -27t-76 27l-162 125q-55 48 -55 92q0 38 30 66t70 28q15 0 38.5 -6.5t35.5 -17.5z" />
    <glyph glyph-name="ncaron" unicode="&#x148;" horiz-adv-x="1124" 
d="M420 731v-618q0 -55 -36.5 -90t-104.5 -35t-105 35t-37 90v620q0 32 -3 50.5t-5 22.5t-8 13q-22 29 -28.5 44.5t-6.5 35.5q0 51 39 85t98 34q62 0 109 -60q134 89 270 89q189 0 288 -107.5t99 -292.5v-534q0 -54 -37.5 -89.5t-103.5 -35.5t-103.5 35.5t-37.5 89.5v534
q0 76 -36 121t-98 45q-64 0 -157 -43q4 -28 4 -39zM442 1440l119 -107l119 107q12 11 35 17.5t38 6.5q40 0 70.5 -28t30.5 -66q0 -43 -56 -92l-161 -125q-31 -27 -76 -27t-76 27l-162 125q-55 48 -55 92q0 38 30 66t70 28q15 0 38.5 -6.5t35.5 -17.5z" />
    <glyph glyph-name="Omacron" unicode="&#x14c;" horiz-adv-x="1249" 
d="M625 -18q-129 0 -232 42t-168 115.5t-99 170.5t-34 210v406q0 89 18.5 167.5t59.5 147t102 117t151 76.5t202 28t202 -28t151 -76.5t102 -117t59 -146.5t18 -168v-406q0 -113 -34 -210t-99 -170.5t-167.5 -115.5t-231.5 -42zM625 1202q-246 0 -246 -276v-406
q0 -128 62 -203t184 -75t183.5 75t61.5 203v406q0 276 -245 276zM1016 1700q0 -44 -33.5 -74.5t-81.5 -30.5h-551q-49 0 -83 30.5t-34 74.5q0 43 34 73.5t83 30.5h551q47 0 81 -30.5t34 -73.5z" />
    <glyph glyph-name="omacron" unicode="&#x14d;" horiz-adv-x="1073" 
d="M537 -14q-211 0 -328 106.5t-117 274.5v305q0 168 117 274.5t328 106.5t327.5 -106.5t116.5 -274.5v-305q0 -168 -116.5 -274.5t-327.5 -106.5zM537 227q78 0 119.5 37t41.5 103v307q0 64 -41.5 100.5t-119.5 36.5t-120 -36.5t-42 -100.5v-307q0 -66 42 -103t120 -37z
M928 1290q0 -44 -33.5 -74t-81.5 -30h-551q-50 0 -83.5 30t-33.5 74q0 43 34 74t83 31h551q47 0 81 -31t34 -74z" />
    <glyph glyph-name="Obreve" unicode="&#x14e;" horiz-adv-x="1249" 
d="M625 -18q-129 0 -232 42t-168 115.5t-99 170.5t-34 210v406q0 89 18.5 167.5t59.5 147t102 117t151 76.5t202 28t202 -28t151 -76.5t102 -117t59 -146.5t18 -168v-406q0 -113 -34 -210t-99 -170.5t-167.5 -115.5t-231.5 -42zM625 1202q-246 0 -246 -276v-406
q0 -128 62 -203t184 -75t183.5 75t61.5 203v406q0 276 -245 276zM625 1731q61 0 121 63q36 48 94 48q46 0 75 -30.5t15 -84.5q-16 -56 -69 -99.5t-115.5 -64t-120.5 -20.5q-92 0 -185.5 50.5t-119.5 133.5q-14 54 15 84.5t75 30.5q61 0 92 -48q63 -63 123 -63z" />
    <glyph glyph-name="obreve" unicode="&#x14f;" horiz-adv-x="1073" 
d="M537 -14q-211 0 -328 106.5t-117 274.5v305q0 168 117 274.5t328 106.5t327.5 -106.5t116.5 -274.5v-305q0 -168 -116.5 -274.5t-327.5 -106.5zM537 227q78 0 119.5 37t41.5 103v307q0 64 -41.5 100.5t-119.5 36.5t-120 -36.5t-42 -100.5v-307q0 -66 42 -103t120 -37z
M537 1321q61 0 121 63q36 48 94 48q46 0 75 -30.5t15 -84.5q-16 -56 -69 -99.5t-115.5 -64t-120.5 -20.5q-92 0 -185.5 50.5t-119.5 133.5q-14 54 15 84.5t75 30.5q61 0 92 -48q63 -63 123 -63z" />
    <glyph glyph-name="Ohungarumlaut" unicode="&#x150;" horiz-adv-x="1249" 
d="M625 -18q-129 0 -232 42t-168 115.5t-99 170.5t-34 210v406q0 89 18.5 167.5t59.5 147t102 117t151 76.5t202 28t202 -28t151 -76.5t102 -117t59 -146.5t18 -168v-406q0 -113 -34 -210t-99 -170.5t-167.5 -115.5t-231.5 -42zM625 1202q-246 0 -246 -276v-406
q0 -128 62 -203t184 -75t183.5 75t61.5 203v406q0 276 -245 276zM358 1678l129 182q18 26 27 36.5t30.5 23.5t47.5 12q55 0 91.5 -46.5t4.5 -93.5l-133 -196q-21 -31 -43 -45.5t-59 -14.5q-55 0 -91.5 47.5t-3.5 94.5zM707 1678l129 182q19 27 27 37t30 23t47 12
q55 0 91.5 -46.5t4.5 -93.5l-133 -196q-21 -31 -43 -45.5t-59 -14.5q-55 0 -91 47.5t-3 94.5z" />
    <glyph glyph-name="ohungarumlaut" unicode="&#x151;" horiz-adv-x="1073" 
d="M537 -14q-211 0 -328 106.5t-117 274.5v305q0 168 117 274.5t328 106.5t327.5 -106.5t116.5 -274.5v-305q0 -168 -116.5 -274.5t-327.5 -106.5zM537 227q78 0 119.5 37t41.5 103v307q0 64 -41.5 100.5t-119.5 36.5t-120 -36.5t-42 -100.5v-307q0 -66 42 -103t120 -37z
M264 1268l129 182q18 26 27 36.5t30.5 23.5t47.5 12q55 0 91.5 -46.5t4.5 -93.5l-133 -196q-21 -31 -43 -45.5t-59 -14.5q-55 0 -91.5 47.5t-3.5 94.5zM613 1268l129 182q19 27 27 37t30 23t47 12q55 0 91.5 -46.5t4.5 -93.5l-133 -196q-21 -31 -43 -45.5t-59 -14.5
q-55 0 -91 47.5t-3 94.5z" />
    <glyph glyph-name="OE" unicode="&#x152;" horiz-adv-x="1548" 
d="M1542 133q0 -55 -42 -94t-101 -39h-481q-104 0 -154 47q-105 -65 -242 -65q-158 0 -271 68t-166.5 179.5t-53.5 253.5v480q0 106 27.5 194t84.5 157.5t153.5 108.5t225.5 39q143 0 250 -63q48 45 113 45h493q59 0 101.5 -39t42.5 -94q0 -53 -42.5 -90t-101.5 -37h-364
v-330h325q56 0 99 -37.5t43 -91.5q0 -55 -41 -93t-101 -38h-325v-334h385q57 0 100 -37.5t43 -89.5zM522 1202q-205 0 -205 -239v-480q0 -110 52 -175.5t153 -65.5t153 65.5t52 175.5v480q0 239 -205 239z" />
    <glyph glyph-name="oe" unicode="&#x153;" horiz-adv-x="1497" 
d="M1067 371q-59 0 -147 12v-47q0 -54 41.5 -84.5t119.5 -30.5q35 0 70 7.5t54 14t65 23.5h-2q26 13 55 13q55 0 94 -36.5t39 -82.5q0 -47 -42.5 -83t-106.5 -54.5t-125.5 -27.5t-112.5 -9q-191 0 -297 106q-109 -106 -305 -106q-201 0 -318.5 108t-117.5 273v305
q0 165 117.5 273t318.5 108q195 0 309 -111q106 109 305 109q188 0 291 -95.5t103 -257.5q0 -327 -408 -327zM475 227q78 0 120 37t42 103v307q0 64 -42 100.5t-120 36.5t-120 -36.5t-42 -100.5v-307q0 -66 42 -103t120 -37zM1194 698q0 113 -125 113q-70 0 -109.5 -30
t-39.5 -83v-88q88 -8 153 -8q70 0 95.5 26t25.5 70z" />
    <glyph glyph-name="Racute" unicode="&#x154;" horiz-adv-x="1259" 
d="M1149 1010q0 -149 -75 -249.5t-210 -144.5l281 -421q31 -53 18 -100t-55 -79t-88 -32q-80 0 -121 63l-344 539h-139v-469q0 -54 -44 -94.5t-102 -40.5q-57 0 -99 40t-42 95v1179q0 60 46.5 104t109.5 44h356q139 0 241 -37t158.5 -100.5t82.5 -137t26 -159.5zM862 1010
q0 174 -229 174h-217v-340h229q105 0 161 43t56 123zM455 1702l166 162l16 16q15 15 23.5 21.5t23.5 12t37 5.5q37 0 68.5 -29.5t31.5 -70.5q0 -32 -18 -58l-168 -168q-21 -18 -29 -24t-25 -12.5t-38 -6.5q-44 0 -74.5 28.5t-30.5 72.5q0 28 17 51z" />
    <glyph glyph-name="racute" unicode="&#x155;" horiz-adv-x="772" 
d="M612 791q-61 5 -104 2t-92 -23q4 -28 4 -39v-618q0 -54 -40.5 -90.5t-100.5 -36.5t-101 36.5t-41 90.5v618q0 62 -22 96q-29 36 -29 68q0 54 41 88.5t98 34.5q59 0 109 -64q150 88 254 88q168 0 168 -122q0 -59 -42 -95.5t-102 -33.5zM324 1292l165 162l17 16
q15 15 23.5 21.5t23.5 12t37 5.5q37 0 68.5 -29.5t31.5 -70.5q0 -31 -18 -57l-168 -168q-21 -18 -29 -24t-25 -12.5t-38 -6.5q-44 0 -74.5 28.5t-30.5 71.5q0 28 17 51z" />
    <glyph glyph-name="uni0156" unicode="&#x156;" horiz-adv-x="1259" 
d="M1149 1010q0 -149 -75 -249.5t-210 -144.5l281 -421q31 -53 18 -100t-55 -79t-88 -32q-80 0 -121 63l-344 539h-139v-469q0 -54 -44 -94.5t-102 -40.5q-57 0 -99 40t-42 95v1179q0 60 46.5 104t109.5 44h356q139 0 241 -37t158.5 -100.5t82.5 -137t26 -159.5zM862 1010
q0 174 -229 174h-217v-340h229q105 0 161 43t56 123zM780 -213q0 -54 -33.5 -119.5t-80.5 -110t-84 -44.5t-37 34q0 24 32.5 63.5t43.5 63.5q-71 3 -106.5 25t-35.5 84q0 54 33.5 83.5t116.5 29.5q151 0 151 -109z" />
    <glyph glyph-name="uni0157" unicode="&#x157;" horiz-adv-x="772" 
d="M612 791q-61 5 -104 2t-92 -23q4 -28 4 -39v-618q0 -54 -40.5 -90.5t-100.5 -36.5t-101 36.5t-41 90.5v618q0 62 -22 96q-29 36 -29 68q0 54 41 88.5t98 34.5q59 0 109 -64q150 88 254 88q168 0 168 -122q0 -59 -42 -95.5t-102 -33.5zM428 -213q0 -54 -33.5 -119.5
t-81 -110t-84.5 -44.5q-36 0 -36 34q0 24 32.5 63.5t42.5 63.5q-71 3 -106 25t-35 84q0 54 33.5 83.5t115.5 29.5q152 0 152 -109z" />
    <glyph glyph-name="Rcaron" unicode="&#x158;" horiz-adv-x="1259" 
d="M1149 1010q0 -149 -75 -249.5t-210 -144.5l281 -421q31 -53 18 -100t-55 -79t-88 -32q-80 0 -121 63l-344 539h-139v-469q0 -54 -44 -94.5t-102 -40.5q-57 0 -99 40t-42 95v1179q0 60 46.5 104t109.5 44h356q139 0 241 -37t158.5 -100.5t82.5 -137t26 -159.5zM862 1010
q0 174 -229 174h-217v-340h229q105 0 161 43t56 123zM475 1849l119 -106l119 106q12 11 35.5 18t37.5 7q40 0 70.5 -28t30.5 -66q0 -43 -56 -92l-161 -125q-31 -27 -76 -27t-76 27l-162 125q-55 48 -55 92q0 38 30 66t70 28q14 0 38 -7t36 -18z" />
    <glyph glyph-name="rcaron" unicode="&#x159;" horiz-adv-x="772" 
d="M612 791q-61 5 -104 2t-92 -23q4 -28 4 -39v-618q0 -54 -40.5 -90.5t-100.5 -36.5t-101 36.5t-41 90.5v618q0 62 -22 96q-29 36 -29 68q0 54 41 88.5t98 34.5q59 0 109 -64q150 88 254 88q168 0 168 -122q0 -59 -42 -95.5t-102 -33.5zM268 1440l119 -107l119 107
q12 11 35 17.5t38 6.5q40 0 70.5 -28t30.5 -66q0 -43 -56 -92l-161 -125q-31 -27 -76 -27t-76 27l-162 125q-55 48 -55 92q0 38 30 66t70 28q15 0 38.5 -6.5t35.5 -17.5z" />
    <glyph glyph-name="Sacute" unicode="&#x15a;" horiz-adv-x="1077" 
d="M717 418q0 103 -84 139q-65 27 -150 55q-56 17 -87.5 27.5t-82 31.5t-80 41t-65.5 52.5t-55.5 70t-33 89.5t-13.5 114q0 197 128 310.5t347 113.5q55 0 117 -7.5t132.5 -26t116 -57.5t45.5 -93q0 -53 -39 -91t-104 -38q-13 0 -27 2.5t-23 4.5t-26 7.5t-24 7.5
q-86 31 -156 31q-40 0 -73 -7.5t-61.5 -24.5t-44.5 -48t-16 -75q0 -99 86 -138q64 -33 148 -55q44 -14 68 -22t65.5 -23.5t65.5 -28t58.5 -33.5t54.5 -41.5t43 -50t35.5 -62t21 -74.5t8.5 -89q0 -139 -66.5 -241.5t-181.5 -154.5t-262 -52q-62 0 -133.5 11t-142 33
t-117 61.5t-46.5 90.5t40 90t96 39q35 0 102 -24q3 -1 18.5 -6t21.5 -7t22 -7t25.5 -7t25.5 -5t28.5 -5t29 -3t32.5 -1q105 0 159 45.5t54 130.5zM437 1702l165 162l17 16q15 15 23.5 21.5t23.5 12t37 5.5q37 0 68.5 -29.5t31.5 -70.5q0 -31 -18 -57l-168 -168
q-21 -18 -29 -24t-25 -12.5t-38 -6.5q-44 0 -74.5 28.5t-30.5 71.5q0 28 17 51z" />
    <glyph glyph-name="sacute" unicode="&#x15b;" horiz-adv-x="913" 
d="M88 733q0 145 102 231.5t293 86.5q56 0 109 -8t106 -26t85 -54t32 -86q0 -41 -22.5 -66t-47 -32t-51.5 -7q-32 0 -94 21.5t-115 21.5q-118 0 -118 -74q0 -43 61 -67q26 -11 80.5 -29.5t93.5 -32.5t88 -42t80 -60t52.5 -84t21.5 -117q0 -151 -104.5 -237t-295.5 -86
q-56 0 -114 7.5t-118 24t-98 49.5t-38 78q0 47 38 84t95 37q30 0 103.5 -22.5t127.5 -22.5q58 0 91.5 20.5t33.5 61.5q0 44 -43 66q-28 15 -78 32.5t-94 31t-94 39t-85.5 56.5t-59 84t-23.5 121zM342 1292l166 162l16 16q15 15 23.5 21.5t23.5 12t37 5.5q37 0 69 -29.5
t32 -70.5q0 -30 -19 -57l-168 -168q-21 -18 -29 -24t-25 -12.5t-38 -6.5q-44 0 -74 28t-30 72q0 30 16 51z" />
    <glyph glyph-name="Scircumflex" unicode="&#x15c;" horiz-adv-x="1077" 
d="M717 418q0 103 -84 139q-65 27 -150 55q-56 17 -87.5 27.5t-82 31.5t-80 41t-65.5 52.5t-55.5 70t-33 89.5t-13.5 114q0 197 128 310.5t347 113.5q55 0 117 -7.5t132.5 -26t116 -57.5t45.5 -93q0 -53 -39 -91t-104 -38q-13 0 -27 2.5t-23 4.5t-26 7.5t-24 7.5
q-86 31 -156 31q-40 0 -73 -7.5t-61.5 -24.5t-44.5 -48t-16 -75q0 -99 86 -138q64 -33 148 -55q44 -14 68 -22t65.5 -23.5t65.5 -28t58.5 -33.5t54.5 -41.5t43 -50t35.5 -62t21 -74.5t8.5 -89q0 -139 -66.5 -241.5t-181.5 -154.5t-262 -52q-62 0 -133.5 11t-142 33
t-117 61.5t-46.5 90.5t40 90t96 39q35 0 102 -24q3 -1 18.5 -6t21.5 -7t22 -7t25.5 -7t25.5 -5t28.5 -5t29 -3t32.5 -1q105 0 159 45.5t54 130.5zM539 1876q43 0 76 -26l161 -125q53 -47 56 -92q0 -38 -31 -66.5t-72 -28.5q-19 0 -39 8t-41.5 24.5t-36.5 29.5t-39 37t-34 33
q-9 -9 -34 -33t-39.5 -37t-36.5 -30t-42 -24.5t-39 -7.5q-41 0 -71.5 28.5t-30.5 66.5q3 46 55 92l162 125q33 26 76 26z" />
    <glyph glyph-name="scircumflex" unicode="&#x15d;" horiz-adv-x="913" 
d="M88 733q0 145 102 231.5t293 86.5q56 0 109 -8t106 -26t85 -54t32 -86q0 -41 -22.5 -66t-47 -32t-51.5 -7q-32 0 -94 21.5t-115 21.5q-118 0 -118 -74q0 -43 61 -67q26 -11 80.5 -29.5t93.5 -32.5t88 -42t80 -60t52.5 -84t21.5 -117q0 -151 -104.5 -237t-295.5 -86
q-56 0 -114 7.5t-118 24t-98 49.5t-38 78q0 47 38 84t95 37q30 0 103.5 -22.5t127.5 -22.5q58 0 91.5 20.5t33.5 61.5q0 44 -43 66q-28 15 -78 32.5t-94 31t-94 39t-85.5 56.5t-59 84t-23.5 121zM457 1466q43 0 76 -26l161 -125q53 -47 56 -92q0 -38 -31 -66.5t-72 -28.5
q-19 0 -39 8t-41.5 24.5t-36.5 29.5t-39 37t-34 33q-9 -9 -34 -33t-39.5 -37t-36.5 -30t-42 -24.5t-39 -7.5q-41 0 -71.5 28.5t-30.5 66.5q3 46 55 92l162 125q33 26 76 26z" />
    <glyph glyph-name="Scedilla" unicode="&#x15e;" horiz-adv-x="1077" 
d="M772 -242q0 -88 -64.5 -144t-168.5 -56q-95 0 -170.5 31.5t-75.5 88.5q0 28 19 44t50 16q18 0 70 -9.5t80 -9.5q96 0 96 45q0 23 -25 35t-91 23q-56 11 -67 17q-29 17 -26 79l11 70q-85 8 -159.5 28.5t-131 63t-56.5 98.5q0 51 40 90t96 39q35 0 102 -24q3 -1 18.5 -6
t21.5 -7t22 -7t25.5 -7t25.5 -5t28.5 -5t29 -3t32.5 -1q105 0 159 45.5t54 130.5q0 103 -84 139q-65 27 -150 55q-56 17 -87.5 27.5t-82 31.5t-80 41t-65.5 52.5t-55.5 70t-33 89.5t-13.5 114q0 197 128 310.5t347 113.5q55 0 117 -7.5t132.5 -26t116 -57.5t45.5 -93
q0 -53 -39 -91t-104 -38q-13 0 -27 2.5t-23 4.5t-26 7.5t-24 7.5q-86 31 -156 31q-40 0 -73 -7.5t-61.5 -24.5t-44.5 -48t-16 -75q0 -99 86 -138q64 -33 148 -55q44 -14 68 -22t65.5 -23.5t65.5 -28t58.5 -33.5t54.5 -41.5t43 -50t35.5 -62t21 -74.5t8.5 -89
q0 -190 -121 -307.5t-318 -136.5l-6 -54q205 -17 205 -174z" />
    <glyph glyph-name="scedilla" unicode="&#x15f;" horiz-adv-x="913" 
d="M690 -242q0 -88 -64.5 -144t-168.5 -56q-95 0 -170.5 31.5t-75.5 88.5q0 27 19.5 43.5t50.5 16.5q18 0 69.5 -9.5t79.5 -9.5q96 0 96 45q0 23 -25 35t-91 23q-56 11 -67 17q-29 17 -26 79l13 76q-49 6 -92 17t-80.5 28.5t-59.5 44.5t-22 61q0 47 38 84t95 37
q30 0 103.5 -22.5t127.5 -22.5q58 0 91.5 20.5t33.5 61.5q0 44 -43 66q-28 15 -78 32.5t-94 31t-94 39t-85.5 56.5t-59 84t-23.5 121q0 145 102 231.5t293 86.5q56 0 109 -8t106 -26t85 -54t32 -86q0 -41 -22.5 -66t-47 -32t-51.5 -7q-32 0 -94 21.5t-115 21.5
q-118 0 -118 -74q0 -43 61 -67q26 -11 80.5 -29.5t93.5 -32.5t88 -42t80 -60t52.5 -84t21.5 -117q0 -141 -91.5 -226t-260.5 -95l-7 -56q205 -17 205 -174z" />
    <glyph glyph-name="Scaron" unicode="&#x160;" horiz-adv-x="1077" 
d="M717 418q0 103 -84 139q-65 27 -150 55q-56 17 -87.5 27.5t-82 31.5t-80 41t-65.5 52.5t-55.5 70t-33 89.5t-13.5 114q0 197 128 310.5t347 113.5q55 0 117 -7.5t132.5 -26t116 -57.5t45.5 -93q0 -53 -39 -91t-104 -38q-13 0 -27 2.5t-23 4.5t-26 7.5t-24 7.5
q-86 31 -156 31q-40 0 -73 -7.5t-61.5 -24.5t-44.5 -48t-16 -75q0 -99 86 -138q64 -33 148 -55q44 -14 68 -22t65.5 -23.5t65.5 -28t58.5 -33.5t54.5 -41.5t43 -50t35.5 -62t21 -74.5t8.5 -89q0 -139 -66.5 -241.5t-181.5 -154.5t-262 -52q-62 0 -133.5 11t-142 33
t-117 61.5t-46.5 90.5t40 90t96 39q35 0 102 -24q3 -1 18.5 -6t21.5 -7t22 -7t25.5 -7t25.5 -5t28.5 -5t29 -3t32.5 -1q105 0 159 45.5t54 130.5zM420 1850l119 -107l119 107q12 11 35 17.5t38 6.5q40 0 70.5 -28t30.5 -66q0 -43 -56 -92l-161 -125q-31 -27 -76 -27t-76 27
l-162 125q-55 48 -55 92q0 38 30 66t70 28q15 0 38.5 -6.5t35.5 -17.5z" />
    <glyph glyph-name="scaron" unicode="&#x161;" horiz-adv-x="913" 
d="M88 733q0 145 102 231.5t293 86.5q56 0 109 -8t106 -26t85 -54t32 -86q0 -41 -22.5 -66t-47 -32t-51.5 -7q-32 0 -94 21.5t-115 21.5q-118 0 -118 -74q0 -43 61 -67q26 -11 80.5 -29.5t93.5 -32.5t88 -42t80 -60t52.5 -84t21.5 -117q0 -151 -104.5 -237t-295.5 -86
q-56 0 -114 7.5t-118 24t-98 49.5t-38 78q0 47 38 84t95 37q30 0 103.5 -22.5t127.5 -22.5q58 0 91.5 20.5t33.5 61.5q0 44 -43 66q-28 15 -78 32.5t-94 31t-94 39t-85.5 56.5t-59 84t-23.5 121zM367 1440l118 -107l119 107q12 11 35.5 17.5t38.5 6.5q40 0 70 -28t30 -66
q0 -44 -55 -92l-162 -125q-31 -27 -76 -27q-44 0 -75 27l-162 125q-55 48 -55 92q0 38 30 66t70 28q15 0 38.5 -6.5t35.5 -17.5z" />
    <glyph glyph-name="uni0162" unicode="&#x162;" horiz-adv-x="1071" 
d="M815 -242q0 -88 -64.5 -144t-168.5 -56q-95 0 -170.5 31.5t-75.5 88.5q0 27 19.5 43.5t50.5 16.5q18 0 69.5 -9.5t79.5 -9.5q96 0 96 45q0 23 -25 35t-91 23q-56 11 -67 17q-29 17 -26 79l15 84q-66 42 -66 111v1071h-217q-61 0 -102 38t-41 91q0 46 43 88.5t100 42.5
h721q57 0 101 -38.5t44 -92.5q0 -52 -43 -90.5t-102 -38.5h-217v-1071q0 -64 -57 -105l-11 -76q205 -17 205 -174z" />
    <glyph glyph-name="uni0163" unicode="&#x163;" horiz-adv-x="739" 
d="M690 -242q0 -88 -64.5 -144t-168.5 -56q-95 0 -170.5 31.5t-75.5 88.5q0 27 19.5 43.5t50.5 16.5q18 0 69.5 -9.5t79.5 -9.5q96 0 96 45q0 23 -25 35t-91 23q-56 11 -67 17q-29 17 -26 79l17 102q-113 39 -158 139t-45 267v795q0 54 37.5 89.5t103.5 35.5q65 0 103.5 -36
t38.5 -89v-228h151q57 0 96 -35.5t39 -87.5t-39 -86t-96 -34h-151v-310q0 -121 20 -162.5t90 -41.5q11 0 23 1l12 1q94 0 131 -26t37 -85q0 -43 -15.5 -71t-45.5 -41.5t-61 -18t-75 -4.5q-6 0 -18 1t-18 1l-9 -62q205 -17 205 -174z" />
    <glyph glyph-name="Tcaron" unicode="&#x164;" horiz-adv-x="1071" 
d="M391 113v1071h-217q-61 0 -102 38t-41 91q0 46 43 88.5t100 42.5h721q57 0 101 -38.5t44 -92.5q0 -52 -43 -90.5t-102 -38.5h-217v-1071q0 -53 -42.5 -92t-100.5 -39q-59 0 -101.5 39t-42.5 92zM416 1850l119 -107l119 107q12 11 35 17.5t38 6.5q40 0 70.5 -28t30.5 -66
q0 -43 -56 -92l-161 -125q-31 -27 -76 -27t-76 27l-162 125q-55 48 -55 92q0 38 30 66t70 28q15 0 38.5 -6.5t35.5 -17.5z" />
    <glyph glyph-name="tcaron" unicode="&#x165;" horiz-adv-x="1161" 
d="M131 426v795q0 54 37.5 89.5t103.5 35.5q65 0 103.5 -36t38.5 -89v-228h151q57 0 96 -35.5t39 -87.5t-39 -86t-96 -34h-151v-310q0 -121 20 -162.5t90 -41.5q11 0 23 1l12 1q94 0 131 -26t37 -85q0 -43 -15.5 -71t-45.5 -41.5t-61 -18t-75 -4.5q-94 0 -163 19t-114.5 53
t-72.5 89t-38 120.5t-11 152.5zM825 991q3 33 31.5 85t36.5 98q-59 12 -96 55t-37 98q0 65 50 111.5t122 46.5q70 0 120 -46.5t50 -119.5q0 -65 -26 -162.5t-73 -177.5t-94 -80q-21 0 -39.5 5.5t-34 27.5t-10.5 59z" />
    <glyph glyph-name="Utilde" unicode="&#x168;" horiz-adv-x="1253" 
d="M1141 492q0 -226 -138 -368t-376 -142q-241 0 -377.5 142t-136.5 368v835q0 58 41.5 96.5t103.5 38.5q57 0 99 -40t42 -95v-835q0 -115 57.5 -182.5t170.5 -67.5q111 0 168 68t57 182v835q0 55 41 95t100 40q62 0 105 -40t43 -95v-835zM946 1727q0 -61 -60 -105.5
t-124 -44.5q-47 0 -90.5 18.5t-79 39.5t-58.5 24q-20 3 -37 -8t-27 -25.5t-28 -27t-41 -12.5q-34 0 -62 23.5t-32 60.5q0 69 54.5 116t125.5 47q49 0 93 -20.5t77.5 -41t58.5 -20.5q21 0 37 11.5t25.5 25.5t26.5 25.5t40 11.5q40 0 70.5 -28.5t30.5 -69.5z" />
    <glyph glyph-name="utilde" unicode="&#x169;" horiz-adv-x="1124" 
d="M795 76q-127 -90 -283 -90q-182 0 -281.5 108.5t-99.5 292.5v535q0 54 37.5 88t103.5 34t104 -34t38 -88v-535q0 -164 133 -164q65 0 158 43q-5 35 -5 39v617q0 55 37 88.5t105 33.5t104.5 -33.5t36.5 -88.5v-658q0 -22 8 -35t31 -36q29 -29 29 -70q0 -58 -40.5 -91.5
t-90.5 -33.5q-71 0 -125 78zM881 1317q0 -61 -60 -105.5t-125 -44.5q-47 0 -90 18.5t-78.5 39.5t-58.5 24q-20 3 -37 -8t-27 -25.5t-28 -27t-41 -12.5q-34 0 -62 23.5t-32 60.5q0 69 54.5 116t125.5 47q49 0 93 -20.5t77.5 -41t58.5 -20.5q21 0 37 11.5t25.5 25.5t26.5 25.5
t40 11.5q40 0 70.5 -28.5t30.5 -69.5z" />
    <glyph glyph-name="Umacron" unicode="&#x16a;" horiz-adv-x="1253" 
d="M1141 492q0 -226 -138 -368t-376 -142q-241 0 -377.5 142t-136.5 368v835q0 58 41.5 96.5t103.5 38.5q57 0 99 -40t42 -95v-835q0 -115 57.5 -182.5t170.5 -67.5q111 0 168 68t57 182v835q0 55 41 95t100 40q62 0 105 -40t43 -95v-835zM1018 1700q0 -44 -33.5 -74
t-81.5 -30h-551q-50 0 -83.5 30t-33.5 74q0 43 34 74t83 31h551q47 0 81 -31t34 -74z" />
    <glyph glyph-name="umacron" unicode="&#x16b;" horiz-adv-x="1124" 
d="M795 76q-127 -90 -283 -90q-182 0 -281.5 108.5t-99.5 292.5v535q0 54 37.5 88t103.5 34t104 -34t38 -88v-535q0 -164 133 -164q65 0 158 43q-5 35 -5 39v617q0 55 37 88.5t105 33.5t104.5 -33.5t36.5 -88.5v-658q0 -22 8 -35t31 -36q29 -29 29 -70q0 -58 -40.5 -91.5
t-90.5 -33.5q-71 0 -125 78zM953 1290q0 -44 -33.5 -74t-81.5 -30h-551q-50 0 -83.5 30t-33.5 74q0 43 34 74t83 31h551q47 0 81 -31t34 -74z" />
    <glyph glyph-name="Ubreve" unicode="&#x16c;" horiz-adv-x="1253" 
d="M1141 492q0 -226 -138 -368t-376 -142q-241 0 -377.5 142t-136.5 368v835q0 58 41.5 96.5t103.5 38.5q57 0 99 -40t42 -95v-835q0 -115 57.5 -182.5t170.5 -67.5q111 0 168 68t57 182v835q0 55 41 95t100 40q62 0 105 -40t43 -95v-835zM627 1731q61 0 121 63q35 47 94 47
q46 0 75 -30.5t15 -84.5q-16 -56 -69 -99.5t-115.5 -64t-120.5 -20.5q-92 0 -185.5 50.5t-119.5 133.5q-14 54 15 84.5t75 30.5q62 0 92 -47q63 -63 123 -63z" />
    <glyph glyph-name="ubreve" unicode="&#x16d;" horiz-adv-x="1124" 
d="M795 76q-127 -90 -283 -90q-182 0 -281.5 108.5t-99.5 292.5v535q0 54 37.5 88t103.5 34t104 -34t38 -88v-535q0 -164 133 -164q65 0 158 43q-5 35 -5 39v617q0 55 37 88.5t105 33.5t104.5 -33.5t36.5 -88.5v-658q0 -22 8 -35t31 -36q29 -29 29 -70q0 -58 -40.5 -91.5
t-90.5 -33.5q-71 0 -125 78zM561 1321q61 0 121 63q36 48 94 48q46 0 75 -30.5t15 -84.5q-16 -56 -69 -99.5t-115.5 -64t-120.5 -20.5q-92 0 -185.5 50.5t-119.5 133.5q-14 54 15 84.5t75 30.5q61 0 92 -48q63 -63 123 -63z" />
    <glyph glyph-name="Uring" unicode="&#x16e;" horiz-adv-x="1253" 
d="M1141 492q0 -226 -138 -368t-376 -142q-241 0 -377.5 142t-136.5 368v835q0 58 41.5 96.5t103.5 38.5q57 0 99 -40t42 -95v-835q0 -115 57.5 -182.5t170.5 -67.5q111 0 168 68t57 182v835q0 55 41 95t100 40q62 0 105 -40t43 -95v-835zM850 1729q0 -94 -64.5 -158.5
t-158.5 -64.5q-95 0 -160.5 64.5t-65.5 158.5q0 93 65.5 158t160.5 65q93 0 158 -65t65 -158zM717 1729q0 37 -26.5 64.5t-63.5 27.5t-64 -27.5t-27 -64.5t27 -63.5t64 -26.5t63.5 26.5t26.5 63.5z" />
    <glyph glyph-name="uring" unicode="&#x16f;" horiz-adv-x="1124" 
d="M795 76q-127 -90 -283 -90q-182 0 -281.5 108.5t-99.5 292.5v535q0 54 37.5 88t103.5 34t104 -34t38 -88v-535q0 -164 133 -164q65 0 158 43q-5 35 -5 39v617q0 55 37 88.5t105 33.5t104.5 -33.5t36.5 -88.5v-658q0 -22 8 -35t31 -36q29 -29 29 -70q0 -58 -40.5 -91.5
t-90.5 -33.5q-71 0 -125 78zM787 1319q0 -94 -64.5 -158.5t-158.5 -64.5q-95 0 -160.5 64.5t-65.5 158.5q0 93 65.5 158t160.5 65q93 0 158 -65t65 -158zM654 1319q0 37 -26.5 64.5t-63.5 27.5t-64 -27.5t-27 -64.5t27 -63.5t64 -26.5t63.5 26.5t26.5 63.5z" />
    <glyph glyph-name="Uhungarumlaut" unicode="&#x170;" horiz-adv-x="1253" 
d="M1141 492q0 -226 -138 -368t-376 -142q-241 0 -377.5 142t-136.5 368v835q0 58 41.5 96.5t103.5 38.5q57 0 99 -40t42 -95v-835q0 -115 57.5 -182.5t170.5 -67.5q111 0 168 68t57 182v835q0 55 41 95t100 40q62 0 105 -40t43 -95v-835zM362 1677l130 183q19 26 27 36.5
t29.5 23t47.5 11.5q55 0 91.5 -46t4.5 -93l-133 -197q-21 -31 -43 -45t-59 -14q-55 0 -91.5 47t-3.5 94zM711 1677l129 183q19 26 27 36.5t29.5 23t47.5 11.5q55 0 91.5 -46t4.5 -93l-133 -197q-21 -31 -43 -45t-59 -14q-55 0 -91 47t-3 94z" />
    <glyph glyph-name="uhungarumlaut" unicode="&#x171;" horiz-adv-x="1124" 
d="M795 76q-127 -90 -283 -90q-182 0 -281.5 108.5t-99.5 292.5v535q0 54 37.5 88t103.5 34t104 -34t38 -88v-535q0 -164 133 -164q65 0 158 43q-5 35 -5 39v617q0 55 37 88.5t105 33.5t104.5 -33.5t36.5 -88.5v-658q0 -22 8 -35t31 -36q29 -29 29 -70q0 -58 -40.5 -91.5
t-90.5 -33.5q-71 0 -125 78zM283 1268l129 182q19 27 27 37t30 23t47 12q55 0 91.5 -46.5t4.5 -93.5l-133 -196q-21 -31 -43 -45.5t-59 -14.5q-55 0 -91 47.5t-3 94.5zM631 1268l129 182q19 27 27 37t30 23t47 12q55 0 92 -46.5t5 -93.5l-134 -196q-21 -31 -43 -45.5
t-59 -14.5q-55 0 -91 47.5t-3 94.5z" />
    <glyph glyph-name="Uogonek" unicode="&#x172;" horiz-adv-x="1253" 
d="M1010 -340q0 -109 -195 -109q-115 0 -181.5 52.5t-66.5 156.5q0 100 84 222h-24q-241 0 -377.5 142t-136.5 368v835q0 58 41.5 96.5t103.5 38.5q57 0 99 -40t42 -95v-835q0 -115 57.5 -182.5t170.5 -67.5q111 0 168 68t57 182v835q0 55 41 95t100 40q62 0 105 -40t43 -95
v-835q0 -153 -65.5 -271.5t-184.5 -179.5q-3 -4 -20 -31.5t-22.5 -36.5t-20 -34t-20.5 -39.5t-14.5 -35.5t-12 -38.5t-3.5 -34.5q0 -51 53 -51q14 0 39 4t29 4h19q38 0 65 -26t27 -62z" />
    <glyph glyph-name="uogonek" unicode="&#x173;" horiz-adv-x="1124" 
d="M1143 -340q0 -109 -195 -109q-115 0 -181.5 52.5t-66.5 156.5q0 127 129 273q-19 19 -34 43q-127 -90 -283 -90q-182 0 -281.5 108.5t-99.5 292.5v535q0 54 37.5 88t103.5 34t104 -34t38 -88v-535q0 -164 133 -164q65 0 158 43q-5 35 -5 39v617q0 55 37 88.5t105 33.5
t104.5 -33.5t36.5 -88.5v-658q0 -22 8 -35t31 -36q29 -29 29 -70q0 -37 -27 -78q-3 -4 -21 -31.5t-23.5 -35.5t-20 -32.5t-20 -38.5t-14 -35.5t-11.5 -41t-3 -39.5q0 -23 13.5 -37t40.5 -14q13 0 38 4t29 4h19q38 0 65 -26t27 -62z" />
    <glyph glyph-name="Wcircumflex" unicode="&#x174;" horiz-adv-x="1699" 
d="M1014 1311l119 -482q13 -50 22.5 -107t19.5 -126.5t17 -108.5q6 36 17 108t21 128t23 106l131 523q12 49 48 76.5t84 27.5q60 0 109.5 -32.5t49.5 -92.5q0 -14 -4 -26l-307 -1194q-17 -57 -58 -93t-110 -36q-68 0 -110.5 37t-59.5 94l-121 501q-12 47 -21 101.5
t-18.5 123t-15.5 103.5q-6 -35 -15.5 -103.5t-18.5 -123t-21 -101.5l-123 -505q-39 -127 -168 -127q-59 0 -107 39.5t-63 89.5l-301 1183l-8 39q0 54 47.5 88.5t105.5 34.5q48 0 85 -25t48 -73l135 -529q13 -49 23 -106t20 -126.5t17 -107.5q6 32 23.5 154.5t33.5 185.5
l121 482q21 81 54 116t112 35q73 0 109 -37.5t55 -113.5zM850 1876q41 0 76 -27l161 -125q53 -47 56 -92q0 -38 -31 -66t-72 -28q-19 0 -39 7.5t-42 24t-36 29.5t-39 37t-34 33q-9 -8 -34 -33t-39.5 -37t-36.5 -29t-42 -24.5t-39 -7.5q-41 0 -71.5 28t-30.5 66q3 46 55 92
l162 125q35 27 76 27z" />
    <glyph glyph-name="wcircumflex" unicode="&#x175;" horiz-adv-x="1423" 
d="M838 88l-86 328q-10 37 -16.5 77t-13 94.5t-9.5 78.5q-3 -20 -10 -77.5t-13.5 -96.5t-15.5 -76l-84 -328q-15 -54 -53 -78t-103 -24q-123 0 -162 123l-237 786q-4 10 -4 27q0 48 41 85t100 37q46 0 83.5 -24.5t49.5 -67.5l88 -338q12 -45 19 -97t12 -115.5t10 -98.5
q5 35 12 98.5t15 115.5t20 97l82 326q13 46 53 75t99 29q58 0 97 -29t50 -75l80 -326q11 -45 19.5 -97t16.5 -117.5t13 -98.5q5 36 10 99.5t12 116t19 97.5l88 338q10 38 49.5 65t83.5 27q57 0 98.5 -35.5t41.5 -88.5l-1 -9q-1 -9 -1 -12l-238 -793q-20 -63 -55.5 -91.5
t-106.5 -28.5q-55 0 -97.5 27t-55.5 75zM711 1466q42 0 75 -26l162 -125q53 -47 56 -92q0 -38 -31 -66.5t-72 -28.5q-19 0 -39 8t-41.5 24.5t-36.5 29.5t-39 37t-34 33q-9 -9 -34 -33t-39.5 -37t-36.5 -30t-42 -24.5t-39 -7.5q-41 0 -71.5 28.5t-30.5 66.5q3 46 55 92
l162 125q33 26 76 26z" />
    <glyph glyph-name="Ycircumflex" unicode="&#x176;" horiz-adv-x="1085" 
d="M543 -18q-61 0 -103.5 39.5t-42.5 95.5v448l-360 705q-12 28 -12 59q0 53 44.5 93t100.5 40q35 0 67 -15.5t50 -45.5l256 -508l254 508q35 61 118 61q56 0 101 -40t45 -93q0 -17 -14 -59l-359 -705v-448q0 -55 -42 -95t-103 -40zM543 1876q43 0 76 -26l161 -125
q53 -47 56 -92q0 -38 -31 -66.5t-72 -28.5q-19 0 -39 8t-41.5 24.5t-36.5 29.5t-39 37t-34 33q-9 -9 -34 -33t-39.5 -37t-36.5 -30t-42 -24.5t-39 -7.5q-41 0 -71.5 28.5t-30.5 66.5q3 46 55 92l162 125q33 26 76 26z" />
    <glyph glyph-name="ycircumflex" unicode="&#x177;" horiz-adv-x="970" 
d="M555 614l111 344q13 42 50.5 64t82.5 22q56 0 98.5 -35t42.5 -89q0 -22 -6 -37l-250 -729q-79 -232 -123 -319q-81 -160 -199 -215q-77 -36 -180 -36q-62 0 -102.5 34.5t-40.5 88.5q0 48 37 84t98 39q66 3 106 54.5t78 174.5l-315 813q-10 25 -10 52q0 52 40.5 86
t100.5 34q43 0 77.5 -22t51.5 -64l129 -344q17 -43 38 -127.5t28 -107.5q5 23 16 73.5t20.5 89.5t20.5 72zM500 1466q43 0 76 -26l161 -125q53 -47 56 -92q0 -38 -31 -66.5t-72 -28.5q-19 0 -39 8t-41.5 24.5t-36.5 29.5t-39 37t-34 33q-9 -9 -34 -33t-39.5 -37t-36.5 -30
t-42 -24.5t-39 -7.5q-41 0 -71.5 28.5t-30.5 66.5q3 46 55 92l162 125q33 26 76 26z" />
    <glyph glyph-name="Ydieresis" unicode="&#x178;" horiz-adv-x="1085" 
d="M543 -18q-61 0 -103.5 39.5t-42.5 95.5v448l-360 705q-12 28 -12 59q0 53 44.5 93t100.5 40q35 0 67 -15.5t50 -45.5l256 -508l254 508q35 61 118 61q56 0 101 -40t45 -93q0 -17 -14 -59l-359 -705v-448q0 -55 -42 -95t-103 -40zM858 1700q0 -54 -38.5 -91.5t-94.5 -37.5
q-55 0 -95.5 38t-40.5 91q0 51 40.5 88t95.5 37q56 0 94.5 -36.5t38.5 -88.5zM491 1700q0 -54 -39 -91.5t-96 -37.5q-55 0 -93 38t-38 91q0 51 38 88t93 37q57 0 96 -36t39 -89z" />
    <glyph glyph-name="Zacute" unicode="&#x179;" horiz-adv-x="1073" 
d="M1032 133q0 -55 -42 -94t-101 -39h-703q-62 0 -104.5 40.5t-42.5 98.5q0 32 29 90q94 156 283.5 465.5t295.5 485.5h-463q-60 0 -100.5 37.5t-40.5 93.5q0 55 41 94t100 39h695q64 0 106.5 -39.5t42.5 -97.5q0 -40 -29 -88l-583 -955h473q58 0 100.5 -38t42.5 -93z
M463 1702l165 162l17 16q15 15 23.5 21.5t23.5 12t37 5.5q37 0 68.5 -29.5t31.5 -70.5q0 -31 -18 -57l-168 -168q-21 -18 -29 -24t-25 -12.5t-38 -6.5q-44 0 -74.5 28.5t-30.5 71.5q0 28 17 51z" />
    <glyph glyph-name="zacute" unicode="&#x17a;" horiz-adv-x="888" 
d="M864 907q0 -46 -28 -84l-443 -581h338q58 0 97.5 -35t39.5 -86t-39.5 -86t-97.5 -35h-567q-58 0 -101 38t-43 93q0 42 25 76l444 586h-313q-57 0 -96 34.5t-39 85.5q0 52 39 86.5t96 34.5h543q61 0 103 -34.5t42 -92.5zM336 1292l165 162l17 16q15 15 23.5 21.5t23.5 12
t37 5.5q37 0 68.5 -29.5t31.5 -70.5q0 -31 -18 -57l-168 -168q-21 -18 -29 -24t-25 -12.5t-38 -6.5q-44 0 -74.5 28.5t-30.5 71.5q0 28 17 51z" />
    <glyph glyph-name="Zdotaccent" unicode="&#x17b;" horiz-adv-x="1073" 
d="M1032 133q0 -55 -42 -94t-101 -39h-703q-62 0 -104.5 40.5t-42.5 98.5q0 32 29 90q94 156 283.5 465.5t295.5 485.5h-463q-60 0 -100.5 37.5t-40.5 93.5q0 55 41 94t100 39h695q64 0 106.5 -39.5t42.5 -97.5q0 -40 -29 -88l-583 -955h473q58 0 100.5 -38t42.5 -93z
M670 1670q0 -54 -39 -92t-96 -38q-55 0 -93 38.5t-38 91.5q0 51 38 87.5t93 36.5q57 0 96 -36t39 -88z" />
    <glyph glyph-name="zdotaccent" unicode="&#x17c;" horiz-adv-x="888" 
d="M864 907q0 -46 -28 -84l-443 -581h338q58 0 97.5 -35t39.5 -86t-39.5 -86t-97.5 -35h-567q-58 0 -101 38t-43 93q0 42 25 76l444 586h-313q-57 0 -96 34.5t-39 85.5q0 52 39 86.5t96 34.5h543q61 0 103 -34.5t42 -92.5zM578 1260q0 -54 -39.5 -92t-96.5 -38
q-55 0 -93 38.5t-38 91.5q0 51 38 87.5t93 36.5q57 0 96.5 -36t39.5 -88z" />
    <glyph glyph-name="Zcaron" unicode="&#x17d;" horiz-adv-x="1073" 
d="M1032 133q0 -55 -42 -94t-101 -39h-703q-62 0 -104.5 40.5t-42.5 98.5q0 32 29 90q94 156 283.5 465.5t295.5 485.5h-463q-60 0 -100.5 37.5t-40.5 93.5q0 55 41 94t100 39h695q64 0 106.5 -39.5t42.5 -97.5q0 -40 -29 -88l-583 -955h473q58 0 100.5 -38t42.5 -93z
M418 1850l119 -107l119 107q12 11 35 17.5t38 6.5q40 0 70.5 -28t30.5 -66q0 -43 -56 -92l-161 -125q-31 -27 -76 -27t-76 27l-162 125q-55 48 -55 92q0 38 30 66t70 28q15 0 38.5 -6.5t35.5 -17.5z" />
    <glyph glyph-name="zcaron" unicode="&#x17e;" horiz-adv-x="868" 
d="M854 907q0 -45 -29 -84l-442 -581h338q58 0 97.5 -35t39.5 -86t-39.5 -86t-97.5 -35h-567q-58 0 -101 38t-43 93q0 42 25 76l444 586h-313q-57 0 -96 34.5t-39 85.5q0 52 39 86.5t96 34.5h543q61 0 103 -34.5t42 -92.5zM315 1440l119 -107l119 107q12 11 35.5 17.5
t38.5 6.5q40 0 70 -28t30 -66q0 -44 -55 -92l-162 -125q-31 -27 -76 -27t-76 27l-161 125q-56 49 -56 92q0 38 30.5 66t70.5 28q15 0 38 -6.5t35 -17.5z" />
    <glyph glyph-name="florin" unicode="&#x192;" horiz-adv-x="1089" 
d="M1081 1284q0 -36 -11 -60.5t-25.5 -35t-39 -14t-40 -2.5t-39.5 4q-32 4 -47 4q-31 0 -54.5 -20.5t-29.5 -51.5l-35 -176h100q57 0 94 -29.5t37 -89.5t-36.5 -88.5t-94.5 -28.5h-145q-14 -74 -66 -331.5t-78 -395.5q-35 -174 -115.5 -264t-242.5 -90q-39 0 -62 1
t-53.5 4.5t-47.5 11.5t-33.5 21t-23.5 33.5t-7 49.5q0 58 38.5 90.5t102.5 32.5h23q6 0 18 -1t18 -1q42 0 65 29t36 89q28 140 75 386.5t64 334.5h-96q-57 0 -94 29.5t-37 89.5t36.5 88.5t94.5 28.5h143l43 215q25 126 125 199t258 73q38 0 65.5 -4.5t56.5 -17.5t44.5 -41.5
t15.5 -71.5z" />
    <glyph glyph-name="uni0218" unicode="&#x218;" horiz-adv-x="1077" 
d="M690 -213q0 -54 -33.5 -119.5t-80.5 -110t-84 -44.5t-37 34q0 24 32.5 63.5t42.5 63.5q-71 3 -106 25t-35 84q0 54 33.5 83.5t116.5 29.5q151 0 151 -109zM717 418q0 103 -84 139q-65 27 -150 55q-56 17 -87.5 27.5t-82 31.5t-80 41t-65.5 52.5t-55.5 70t-33 89.5
t-13.5 114q0 197 128 310.5t347 113.5q55 0 117 -7.5t132.5 -26t116 -57.5t45.5 -93q0 -53 -39 -91t-104 -38q-13 0 -27 2.5t-23 4.5t-26 7.5t-24 7.5q-86 31 -156 31q-40 0 -73 -7.5t-61.5 -24.5t-44.5 -48t-16 -75q0 -99 86 -138q64 -33 148 -55q44 -14 68 -22t65.5 -23.5
t65.5 -28t58.5 -33.5t54.5 -41.5t43 -50t35.5 -62t21 -74.5t8.5 -89q0 -139 -66.5 -241.5t-181.5 -154.5t-262 -52q-62 0 -133.5 11t-142 33t-117 61.5t-46.5 90.5t40 90t96 39q35 0 102 -24q3 -1 18.5 -6t21.5 -7t22 -7t25.5 -7t25.5 -5t28.5 -5t29 -3t32.5 -1
q105 0 159 45.5t54 130.5z" />
    <glyph glyph-name="uni0219" unicode="&#x219;" horiz-adv-x="913" 
d="M88 733q0 145 102 231.5t293 86.5q56 0 109 -8t106 -26t85 -54t32 -86q0 -41 -22.5 -66t-47 -32t-51.5 -7q-32 0 -94 21.5t-115 21.5q-118 0 -118 -74q0 -43 61 -67q26 -11 80.5 -29.5t93.5 -32.5t88 -42t80 -60t52.5 -84t21.5 -117q0 -151 -104.5 -237t-295.5 -86
q-56 0 -114 7.5t-118 24t-98 49.5t-38 78q0 47 38 84t95 37q30 0 103.5 -22.5t127.5 -22.5q58 0 91.5 20.5t33.5 61.5q0 44 -43 66q-28 15 -78 32.5t-94 31t-94 39t-85.5 56.5t-59 84t-23.5 121zM608 -213q0 -54 -33.5 -119.5t-80.5 -110t-84 -44.5t-37 34q0 24 32.5 63.5
t43.5 63.5q-71 3 -106.5 25t-35.5 84q0 54 33.5 83.5t116.5 29.5q151 0 151 -109z" />
    <glyph glyph-name="uni021A" unicode="&#x21a;" horiz-adv-x="1071" 
d="M391 113v1071h-217q-61 0 -102 38t-41 91q0 46 43 88.5t100 42.5h721q57 0 101 -38.5t44 -92.5q0 -52 -43 -90.5t-102 -38.5h-217v-1071q0 -53 -42.5 -92t-100.5 -39q-59 0 -101.5 39t-42.5 92zM686 -213q0 -54 -33.5 -119.5t-81 -110t-84.5 -44.5q-36 0 -36 34
q0 24 32.5 63.5t42.5 63.5q-71 3 -106 25t-35 84q0 54 33.5 83.5t116.5 29.5q151 0 151 -109z" />
    <glyph glyph-name="uni021B" unicode="&#x21b;" horiz-adv-x="739" 
d="M131 426v795q0 54 37.5 89.5t103.5 35.5q65 0 103.5 -36t38.5 -89v-228h151q57 0 96 -35.5t39 -87.5t-39 -86t-96 -34h-151v-310q0 -121 20 -162.5t90 -41.5q11 0 23 1l12 1q94 0 131 -26t37 -85q0 -43 -15.5 -71t-45.5 -41.5t-61 -18t-75 -4.5q-94 0 -163 19t-114.5 53
t-72.5 89t-38 120.5t-11 152.5zM610 -213q0 -54 -33.5 -119.5t-80.5 -110t-84 -44.5t-37 34q0 24 32.5 63.5t43.5 63.5q-71 3 -106.5 25t-35.5 84q0 54 33.5 83.5t116.5 29.5q151 0 151 -109z" />
    <glyph glyph-name="dotlessj" unicode="&#x237;" horiz-adv-x="583" 
d="M432 948v-919q0 -173 -89.5 -280.5t-252.5 -129.5q-16 -2 -47 -2q-48 0 -82.5 25t-44.5 67v-2q-18 63 18.5 103t88.5 49q127 27 127 161v928q0 53 41 91t100 38t100 -38t41 -91z" />
    <glyph glyph-name="circumflex" unicode="&#x2c6;" horiz-adv-x="892" 
d="M465 1466q43 0 76 -26l161 -125q53 -47 56 -92q0 -38 -31 -66.5t-72 -28.5q-19 0 -39 8t-41.5 24.5t-36.5 29.5t-39 37t-34 33q-9 -9 -34 -33t-39.5 -37t-36.5 -30t-42 -24.5t-39 -7.5q-41 0 -71.5 28.5t-30.5 66.5q3 46 55 92l162 125q33 26 76 26z" />
    <glyph glyph-name="caron" unicode="&#x2c7;" horiz-adv-x="882" 
d="M346 1440l119 -107l119 107q12 11 35 17.5t38 6.5q40 0 70.5 -28t30.5 -66q0 -43 -56 -92l-161 -125q-31 -27 -76 -27t-76 27l-162 125q-55 48 -55 92q0 38 30 66t70 28q15 0 38.5 -6.5t35.5 -17.5z" />
    <glyph glyph-name="breve" unicode="&#x2d8;" horiz-adv-x="833" 
d="M416 1321q61 0 121 63q36 48 94 48q46 0 75 -30.5t15 -84.5q-16 -56 -69 -99.5t-115.5 -64t-120.5 -20.5q-92 0 -185.5 50.5t-119.5 133.5q-14 54 15 84.5t75 30.5q61 0 92 -48q63 -63 123 -63z" />
    <glyph glyph-name="dotaccent" unicode="&#x2d9;" horiz-adv-x="593" 
d="M430 1260q0 -54 -39 -92t-96 -38q-55 0 -93 38.5t-38 91.5q0 51 38 87.5t93 36.5q57 0 96 -36t39 -88z" />
    <glyph glyph-name="ring" unicode="&#x2da;" horiz-adv-x="1251" 
d="M801 1319q0 -94 -64.5 -158.5t-158.5 -64.5q-95 0 -160.5 64.5t-65.5 158.5q0 93 65.5 158t160.5 65q93 0 158 -65t65 -158zM668 1319q0 37 -26.5 64.5t-63.5 27.5t-64 -27.5t-27 -64.5t27 -63.5t64 -26.5t63.5 26.5t26.5 63.5z" />
    <glyph glyph-name="ogonek" unicode="&#x2db;" horiz-adv-x="741" 
d="M596 -340q0 -109 -195 -109q-114 0 -180.5 52.5t-66.5 156.5q0 105 96 240h207l-39 -63q-53 -88 -53 -146q0 -51 53 -51q14 0 38.5 4t28.5 4h19q38 0 65 -26t27 -62z" />
    <glyph glyph-name="tilde" unicode="&#x2dc;" horiz-adv-x="849" 
d="M719 1317q0 -61 -60 -105.5t-124 -44.5q-47 0 -90.5 18.5t-79 39.5t-58.5 24q-20 3 -37 -8t-27 -25.5t-28 -27t-41 -12.5q-34 0 -62 23.5t-32 60.5q0 69 54.5 116t125.5 47q49 0 93 -20.5t77.5 -41t58.5 -20.5q21 0 37 11.5t25.5 25.5t26.5 25.5t40 11.5q40 0 70.5 -28.5
t30.5 -69.5z" />
    <glyph glyph-name="hungarumlaut" unicode="&#x2dd;" horiz-adv-x="921" 
d="M147 1268l129 182q18 26 27 36.5t30.5 23.5t47.5 12q55 0 91.5 -46.5t4.5 -93.5l-133 -196q-21 -31 -43 -45.5t-59 -14.5q-55 0 -91.5 47.5t-3.5 94.5zM496 1268l129 182q19 27 27 37t30 23t47 12q55 0 91.5 -46.5t4.5 -93.5l-133 -196q-21 -31 -43 -45.5t-59 -14.5
q-55 0 -91 47.5t-3 94.5z" />
    <glyph glyph-name="uni0400" unicode="&#x400;" horiz-adv-x="1052" 
d="M1006 133q0 -55 -42.5 -94t-101.5 -39h-543q-84 0 -137 34t-53 111v1153q0 56 46.5 101t111.5 45h555q58 0 100.5 -39.5t42.5 -93.5q0 -55 -42 -91t-101 -36h-426v-330h387q56 0 98.5 -37.5t42.5 -91.5q0 -56 -40.5 -93.5t-100.5 -37.5h-387v-334h446q58 0 101 -37.5
t43 -89.5zM534 1864l166 -162q16 -14 16 -51q0 -44 -30 -72t-74 -28q-21 0 -38 6.5t-25 12.5t-29 24l-168 168q-19 27 -19 57q0 41 32 70.5t69 29.5q31 0 46.5 -8.5t37.5 -30.5z" />
    <glyph glyph-name="uni0401" unicode="&#x401;" horiz-adv-x="1052" 
d="M893 1700q0 -54 -38.5 -91.5t-94.5 -37.5q-55 0 -95 38t-40 91q0 51 40 88t95 37q56 0 94.5 -36.5t38.5 -88.5zM526 1700q0 -54 -39 -91.5t-96 -37.5q-55 0 -93 38t-38 91q0 51 38 88t93 37q57 0 96 -36t39 -89zM1006 133q0 -55 -42.5 -94t-101.5 -39h-543q-84 0 -137 34
t-53 111v1153q0 56 46.5 101t111.5 45h555q58 0 100.5 -39.5t42.5 -93.5q0 -55 -42 -91t-101 -36h-426v-330h387q56 0 98.5 -37.5t42.5 -91.5q0 -56 -40.5 -93.5t-100.5 -37.5h-387v-334h446q58 0 101 -37.5t43 -89.5z" />
    <glyph glyph-name="uni0402" unicode="&#x402;" horiz-adv-x="1400" 
d="M309 113v1071h-135q-60 0 -101.5 39t-41.5 88t42.5 91t100.5 42h721q57 0 101 -38.5t44 -92.5q0 -52 -43 -90.5t-102 -38.5h-299v-271q101 39 205 39q236 0 363.5 -122t127.5 -361q0 -224 -101.5 -355.5t-277.5 -131.5q-97 0 -163 44.5t-66 106.5q0 52 39 87.5t94 35.5
q23 0 43 -7t37 -7q109 0 109 225q0 122 -52.5 173.5t-165.5 51.5q-95 0 -192 -53v-526q0 -53 -42.5 -92t-100.5 -39q-59 0 -101.5 39t-42.5 92z" />
    <glyph glyph-name="uni0403" unicode="&#x403;" horiz-adv-x="1030" 
d="M420 1702l166 162l16 16q15 15 23.5 21.5t23.5 12t37 5.5q37 0 68.5 -29.5t31.5 -70.5q0 -32 -18 -58l-168 -168q-21 -18 -29 -24t-25 -12.5t-38 -6.5q-44 0 -74.5 28.5t-30.5 72.5q0 28 17 51zM416 1184v-1069q0 -53 -43 -92t-101 -39q-59 0 -101 39t-42 92v1188
q0 54 45 97.5t109 43.5h557q59 0 100 -39t41 -92q0 -55 -40.5 -92t-100.5 -37h-424z" />
    <glyph glyph-name="uni0404" unicode="&#x404;" horiz-adv-x="1069" 
d="M358 926v-72h320q57 0 98 -37t41 -92q0 -56 -39.5 -94.5t-99.5 -38.5h-320v-72q0 -140 57 -213.5t189 -73.5q93 0 170 50l21 12q4 2 14.5 9t15 9.5t14 6t20 5t24.5 1.5q58 0 96.5 -36.5t38.5 -86.5q0 -58 -60.5 -109t-158.5 -80.5t-205 -29.5q-261 0 -391.5 142.5
t-130.5 393.5v406q0 251 130.5 393.5t391.5 142.5q107 0 205 -29.5t158.5 -80.5t60.5 -109q0 -50 -38.5 -86.5t-96.5 -36.5q-14 0 -24.5 1.5t-20 5t-14 6t-15 9.5t-14.5 9l-21 12q-76 49 -170 49q-132 0 -189 -73t-57 -213z" />
    <glyph glyph-name="uni0405" unicode="&#x405;" horiz-adv-x="1077" 
d="M717 418q0 103 -84 139q-65 27 -150 55q-56 17 -87.5 27.5t-82 31.5t-80 41t-65.5 52.5t-55.5 70t-33 89.5t-13.5 114q0 197 128 310.5t347 113.5q55 0 117 -7.5t132.5 -26t116 -57.5t45.5 -93q0 -53 -39 -91t-104 -38q-13 0 -27 2.5t-23 4.5t-26 7.5t-24 7.5
q-86 31 -156 31q-40 0 -73 -7.5t-61.5 -24.5t-44.5 -48t-16 -75q0 -99 86 -138q64 -33 148 -55q44 -14 68 -22t65.5 -23.5t65.5 -28t58.5 -33.5t54.5 -41.5t43 -50t35.5 -62t21 -74.5t8.5 -89q0 -139 -66.5 -241.5t-181.5 -154.5t-262 -52q-62 0 -133.5 11t-142 33
t-117 61.5t-46.5 90.5t40 90t96 39q35 0 102 -24q3 -1 18.5 -6t21.5 -7t22 -7t25.5 -7t25.5 -5t28.5 -5t29 -3t32.5 -1q105 0 159 45.5t54 130.5z" />
    <glyph glyph-name="uni0406" unicode="&#x406;" horiz-adv-x="546" 
d="M129 113v1218q0 53 42 92t101 39q58 0 101 -39t43 -92v-1218q0 -53 -43 -92t-101 -39q-59 0 -101 39t-42 92z" />
    <glyph glyph-name="uni0407" unicode="&#x407;" horiz-adv-x="546" 
d="M129 113v1218q0 53 42 92t101 39q58 0 101 -39t43 -92v-1218q0 -53 -43 -92t-101 -39q-59 0 -101 39t-42 92zM590 1700q0 -54 -38.5 -91.5t-94.5 -37.5q-55 0 -95.5 38t-40.5 91q0 51 40.5 88t95.5 37q56 0 94.5 -36.5t38.5 -88.5zM223 1700q0 -54 -39 -91.5t-96 -37.5
q-55 0 -93 38t-38 91q0 51 38 88t93 37q57 0 96 -36t39 -89z" />
    <glyph glyph-name="uni0408" unicode="&#x408;" horiz-adv-x="870" 
d="M741 1331v-850q0 -97 -14 -172t-48 -137.5t-88 -103.5t-135.5 -63.5t-189.5 -22.5q-235 0 -235 141q0 57 42.5 93t90.5 36q23 0 61 -6t64 -6q97 0 131.5 59t34.5 182v850q0 55 41 93t102 38q57 0 100 -39.5t43 -91.5z" />
    <glyph glyph-name="uni0409" unicode="&#x409;" horiz-adv-x="1908" 
d="M1321 694h-131v-434h131q235 0 235 219q0 215 -235 215zM512 1444h518q65 0 112.5 -44t47.5 -104v-342h131q241 0 381.5 -124.5t140.5 -348.5q0 -99 -28.5 -182.5t-87.5 -152t-163 -107.5t-243 -39h-260q-65 0 -112.5 43.5t-47.5 103.5v1039h-276l-60 -813
q-8 -87 -29.5 -156t-59 -121.5t-95.5 -81t-133 -28.5q-30 0 -47.5 0.5t-43.5 3t-41.5 7.5t-33.5 14.5t-28 23t-16.5 34.5t-6.5 48q0 66 40 100.5t97 34.5q8 0 22 -3t23 -3h12q47 0 56 123l71 927q0 60 47.5 104t112.5 44z" />
    <glyph glyph-name="uni040A" unicode="&#x40a;" horiz-adv-x="1818" 
d="M1098 1327v-373h133q241 0 381.5 -124.5t140.5 -348.5q0 -99 -28.5 -182.5t-87.5 -152t-163 -107.5t-243 -39h-260q-65 0 -112.5 43.5t-47.5 103.5v445h-395v-477q0 -54 -43 -93.5t-101 -39.5q-60 0 -101.5 39.5t-41.5 93.5v1216q0 53 42 92t101 39q58 0 101 -39t43 -92
v-477h395v473q0 55 43 95t100 40q58 0 101 -40.5t43 -94.5zM1231 694h-133v-434h133q235 0 235 219q0 215 -235 215z" />
    <glyph glyph-name="uni040B" unicode="&#x40b;" horiz-adv-x="1400" 
d="M1040 1313q0 -52 -43 -90.5t-102 -38.5h-299v-279q103 47 217 47q222 0 350.5 -124t128.5 -349v-362q0 -54 -42.5 -94.5t-100.5 -40.5q-57 0 -100 40t-43 95v360q0 112 -52.5 163.5t-158.5 51.5q-102 0 -199 -53v-526q0 -53 -42.5 -92t-100.5 -39q-59 0 -101.5 39
t-42.5 92v1071h-135q-60 0 -101.5 38t-41.5 87t42.5 92t100.5 43h721q57 0 101 -38.5t44 -92.5z" />
    <glyph glyph-name="uni040C" unicode="&#x40c;" horiz-adv-x="1138" 
d="M416 1331v-477h24l410 549q45 59 119 59q62 0 100.5 -44t38.5 -93q0 -33 -23 -70l-403 -532l403 -535q23 -37 23 -69q0 -49 -38.5 -93t-100.5 -44q-74 0 -119 59l-412 551h-22v-477q0 -54 -43 -93.5t-101 -39.5q-60 0 -101.5 39.5t-41.5 93.5v1216q0 53 42 92t101 39
q58 0 101 -39t43 -92zM508 1702l166 162l16 16q15 15 23.5 21.5t23.5 12t37 5.5q37 0 68.5 -29.5t31.5 -70.5q0 -32 -18 -58l-168 -168q-21 -18 -29 -24t-25 -12.5t-38 -6.5q-43 0 -73.5 28.5t-30.5 72.5q0 30 16 51z" />
    <glyph glyph-name="uni040D" unicode="&#x40d;" horiz-adv-x="1288" 
d="M281 -18q40 0 78.5 19.5t58.5 51.5l475 828v-766q0 -54 43 -93.5t102 -39.5t100.5 39t41.5 94v1208q0 60 -42.5 99.5t-107.5 39.5q-41 0 -79 -21t-60 -55q-113 -196 -475 -831v774q0 54 -43.5 93.5t-102.5 39.5t-100 -39t-41 -94v-1208q0 -58 43 -98.5t109 -40.5z
M551 1864l166 -162q16 -14 16 -51q0 -44 -30.5 -72.5t-73.5 -28.5q-21 0 -38 6.5t-25 12.5t-29 24l-168 168q-19 27 -19 58q0 41 32 70.5t69 29.5q31 0 46.5 -8.5t37.5 -30.5z" />
    <glyph glyph-name="uni040E" unicode="&#x40e;" horiz-adv-x="1112" 
d="M637 932l172 444q15 40 51.5 63t79.5 23q56 0 98.5 -37t42.5 -92q0 -27 -10 -47l-330 -817q-26 -65 -45.5 -108.5t-48 -98.5t-55 -90.5t-64.5 -73.5t-78.5 -59.5t-93.5 -36.5t-114 -16q-62 0 -103 36t-41 91q0 49 37 86.5t98 40.5q67 3 107.5 32.5t75.5 100.5l-377 917
q-8 18 -8 47q0 54 40.5 89.5t100.5 35.5q41 0 76.5 -23t52.5 -63l178 -442q16 -40 29.5 -87.5t27.5 -105.5t23 -90q5 18 31 122.5t47 158.5zM555 1731q61 0 121 63q35 47 94 47q46 0 75 -30.5t15 -84.5q-16 -56 -69 -99.5t-115.5 -64t-120.5 -20.5q-92 0 -185.5 50.5
t-119.5 133.5q-14 54 15 84.5t75 30.5q62 0 92 -47q63 -63 123 -63z" />
    <glyph glyph-name="uni040F" unicode="&#x40f;" horiz-adv-x="1267" 
d="M489 -211v211h-217q-60 0 -101.5 39.5t-41.5 93.5v1198q0 54 41.5 93.5t101.5 39.5q58 0 101 -39.5t43 -93.5v-1071h436v1071q0 54 43 93.5t100 39.5q58 0 101 -39.5t43 -93.5v-1198q0 -54 -43.5 -93.5t-100.5 -39.5h-219v-211q0 -53 -42.5 -92t-100.5 -39
q-59 0 -101.5 39t-42.5 92z" />
    <glyph glyph-name="uni0410" unicode="&#x410;" horiz-adv-x="1206" 
d="M381 285l-68 -207q-14 -42 -55 -69t-80 -27q-61 0 -104 37t-43 94q0 30 6 45l399 1165q23 67 60.5 103t105.5 36q69 0 106.5 -35.5t61.5 -103.5l399 -1165q7 -17 7 -45q0 -58 -42 -94.5t-106 -36.5q-41 0 -83 27.5t-56 68.5l-72 207h-436zM743 518l-104 350
q-20 64 -37 201q-17 -137 -37 -201l-108 -350h286z" />
    <glyph glyph-name="uni0411" unicode="&#x411;" horiz-adv-x="1169" 
d="M881 1184h-465v-266h174q241 0 381.5 -119t140.5 -336q0 -75 -17 -141t-56.5 -126t-98.5 -103t-148.5 -68t-201.5 -25h-301q-65 0 -112.5 43.5t-47.5 103.5v1156q0 54 45 97.5t109 43.5h598q59 0 100 -39t41 -92q0 -55 -40.5 -92t-100.5 -37zM590 657h-174v-397h174
q235 0 235 201q0 196 -235 196z" />
    <glyph glyph-name="uni0412" unicode="&#x412;" horiz-adv-x="1191" 
d="M416 879h235q61 0 109.5 41t48.5 118q0 65 -34.5 106.5t-108.5 41.5h-250v-307zM657 616h-241v-356h229q99 0 151 46.5t52 127.5q0 85 -53.5 133.5t-137.5 48.5zM627 0h-338q-67 0 -113.5 43.5t-46.5 103.5v1149q0 62 47.5 105t112.5 43h346q89 0 165.5 -22t130 -60.5
t91.5 -89.5t56 -109.5t18 -120.5q0 -187 -215 -290q254 -102 254 -322q0 -185 -138.5 -307.5t-369.5 -122.5z" />
    <glyph glyph-name="uni0413" unicode="&#x413;" horiz-adv-x="1030" 
d="M416 1184v-1069q0 -53 -43 -92t-101 -39q-59 0 -101 39t-42 92v1188q0 54 45 97.5t109 43.5h557q59 0 100 -39t41 -92q0 -55 -40.5 -92t-100.5 -37h-424z" />
    <glyph glyph-name="uni0414" unicode="&#x414;" horiz-adv-x="1368" 
d="M578 702q-12 -274 -93 -442h426v926h-315zM176 260q99 117 115 447l31 589q3 61 49 104.5t110 43.5h557q65 0 112.5 -44t47.5 -104v-1036q62 0 98.5 -44t36.5 -107v-263q0 -56 -42 -93.5t-103 -37.5q-60 0 -100.5 37.5t-40.5 93.5v154h-730v-154q0 -56 -40.5 -93.5
t-100.5 -37.5t-100.5 37.5t-40.5 93.5v263q0 62 39 106.5t102 44.5z" />
    <glyph glyph-name="uni0415" unicode="&#x415;" horiz-adv-x="1052" 
d="M1006 133q0 -55 -42.5 -94t-101.5 -39h-543q-84 0 -137 34t-53 111v1153q0 56 46.5 101t111.5 45h555q58 0 100.5 -39.5t42.5 -93.5q0 -55 -42 -91t-101 -36h-426v-330h387q56 0 98.5 -37.5t42.5 -91.5q0 -56 -40.5 -93.5t-100.5 -37.5h-387v-334h446q58 0 101 -37.5
t43 -89.5z" />
    <glyph glyph-name="uni0416" unicode="&#x416;" horiz-adv-x="1609" 
d="M948 1331v-477l373 547q47 61 119 61q62 0 100.5 -44t38.5 -93q0 -33 -18 -65l-359 -537l359 -541q18 -32 18 -63q0 -49 -38.5 -93t-100.5 -44q-74 0 -119 59l-373 549v-475q0 -54 -42.5 -93.5t-100.5 -39.5q-60 0 -101.5 39.5t-41.5 93.5v475l-373 -549
q-45 -59 -119 -59q-62 0 -100.5 44t-38.5 93q0 31 18 63l359 539l-359 539q-18 32 -18 65q0 49 38.5 93t100.5 44q72 0 119 -61l373 -547v477q0 53 42 92t101 39q58 0 100.5 -39t42.5 -92z" />
    <glyph glyph-name="uni0417" unicode="&#x417;" horiz-adv-x="1075" 
d="M1012 416q0 -85 -36 -163.5t-99.5 -138.5t-159 -96t-207.5 -36q-71 0 -150 14t-151.5 39.5t-120 68.5t-47.5 95q0 50 40 86.5t93 36.5q35 0 81 -23t106 -46.5t128 -23.5q111 0 174.5 55t63.5 138q0 49 -23.5 84.5t-67 55.5t-92.5 30t-114 14q-37 2 -59 6t-48 16
t-38.5 39.5t-12.5 69.5q0 34 9.5 57.5t22 35.5t35 19t36.5 8.5t39 2.5q114 3 198 53t84 140q0 66 -47 113.5t-147 47.5q-86 0 -158 -32q-14 -6 -43.5 -23t-55 -27t-50.5 -10q-51 0 -91.5 34.5t-40.5 84.5q0 64 75 116.5t178 78.5t202 26q109 0 198.5 -36.5t144.5 -96
t84.5 -130t29.5 -142.5q0 -101 -57.5 -176t-172.5 -133q267 -107 267 -332z" />
    <glyph glyph-name="uni0418" unicode="&#x418;" horiz-adv-x="1310" 
d="M281 -18q-66 0 -109 40.5t-43 98.5v1208q0 55 41 94t100 39t102.5 -39.5t43.5 -93.5v-774q362 635 475 831q22 34 60 55t79 21q65 0 107.5 -39.5t42.5 -99.5v-1208q0 -55 -41.5 -94t-100.5 -39t-102 39.5t-43 93.5v766l-475 -828q-20 -32 -58.5 -51.5t-78.5 -19.5z" />
    <glyph glyph-name="uni0419" unicode="&#x419;" horiz-adv-x="1288" 
d="M643 1731q61 0 121 63q35 47 94 47q46 0 75 -30.5t15 -84.5q-16 -56 -69 -99.5t-115.5 -64t-120.5 -20.5q-92 0 -185.5 50.5t-119.5 133.5q-14 54 15 84.5t75 30.5q62 0 92 -47q63 -63 123 -63zM281 -18q40 0 78.5 19.5t58.5 51.5l475 828v-766q0 -54 43 -93.5t102 -39.5
t100.5 39t41.5 94v1208q0 60 -42.5 99.5t-107.5 39.5q-41 0 -79 -21t-60 -55q-113 -196 -475 -831v774q0 54 -43.5 93.5t-102.5 39.5t-100 -39t-41 -94v-1208q0 -58 43 -98.5t109 -40.5z" />
    <glyph glyph-name="uni041A" unicode="&#x41a;" horiz-adv-x="1138" 
d="M416 1331v-477h24l410 549q45 59 119 59q62 0 100.5 -44t38.5 -93q0 -33 -23 -70l-403 -532l403 -535q23 -37 23 -69q0 -49 -38.5 -93t-100.5 -44q-74 0 -119 59l-412 551h-22v-477q0 -54 -43 -93.5t-101 -39.5q-60 0 -101.5 39.5t-41.5 93.5v1216q0 53 42 92t101 39
q58 0 101 -39t43 -92z" />
    <glyph glyph-name="uni041B" unicode="&#x41b;" horiz-adv-x="1361" 
d="M281 369l71 927q5 61 50.5 104.5t109.5 43.5h559q65 0 112.5 -44t47.5 -104v-1183q-3 -54 -45 -90.5t-99 -36.5q-62 0 -102.5 37t-40.5 92v1071h-319l-60 -813q-8 -87 -29.5 -156t-59 -121.5t-95.5 -81t-133 -28.5q-30 0 -47.5 0.5t-43.5 3t-41.5 7.5t-33.5 14.5t-28 23
t-16.5 34.5t-6.5 48q0 66 40 100.5t97 34.5q8 0 22 -3t23 -3h12q47 0 56 123z" />
    <glyph glyph-name="uni041C" unicode="&#x41c;" horiz-adv-x="1554" 
d="M1430 1327v-1216q0 -52 -42.5 -90.5t-99.5 -38.5q-59 0 -102 38.5t-43 90.5v704l-234 -459q-39 -77 -135 -77q-94 0 -133 77l-233 459v-704q0 -52 -44 -90.5t-104 -38.5q-58 0 -98.5 38t-40.5 91v1216q0 58 42 96.5t105 38.5q103 0 144 -80l364 -723l365 725
q38 78 141 78q63 0 105.5 -39.5t42.5 -95.5z" />
    <glyph glyph-name="uni041D" unicode="&#x41d;" horiz-adv-x="1269" 
d="M1139 115q0 -54 -43 -93.5t-101 -39.5q-57 0 -100 39.5t-43 93.5v477h-436v-477q0 -54 -43 -93.5t-101 -39.5q-60 0 -101.5 39.5t-41.5 93.5v1216q0 53 42 92t101 39q58 0 101 -39t43 -92v-477h436v477q0 52 43 91.5t100 39.5t100.5 -39.5t43.5 -91.5v-1216z" />
    <glyph glyph-name="uni041E" unicode="&#x41e;" horiz-adv-x="1249" 
d="M625 -18q-129 0 -232 42t-168 115.5t-99 170.5t-34 210v406q0 89 18.5 167.5t59.5 147t102 117t151 76.5t202 28t202 -28t151 -76.5t102 -117t59 -146.5t18 -168v-406q0 -113 -34 -210t-99 -170.5t-167.5 -115.5t-231.5 -42zM625 1202q-246 0 -246 -276v-406
q0 -128 62 -203t184 -75t183.5 75t61.5 203v406q0 276 -245 276z" />
    <glyph glyph-name="uni041F" unicode="&#x41f;" horiz-adv-x="1267" 
d="M1139 115q0 -54 -43 -93.5t-101 -39.5q-57 0 -100 39.5t-43 93.5v1071h-436v-1071q0 -54 -43 -93.5t-101 -39.5q-60 0 -101.5 39.5t-41.5 93.5v1198q0 54 41.5 93.5t101.5 39.5h723q57 0 100.5 -39.5t43.5 -93.5v-1198z" />
    <glyph glyph-name="uni0420" unicode="&#x420;" horiz-adv-x="1167" 
d="M590 492h-174v-375q0 -54 -43 -94.5t-101 -40.5q-57 0 -100 40t-43 95v1179q0 60 47.5 104t112.5 44h301q112 0 201.5 -26t148.5 -70.5t98.5 -106.5t56.5 -130t17 -146q0 -224 -140.5 -348.5t-381.5 -124.5zM416 1184v-432h174q235 0 235 215q0 217 -235 217h-174z" />
    <glyph glyph-name="uni0421" unicode="&#x421;" horiz-adv-x="1069" 
d="M358 926v-406q0 -140 57 -213.5t189 -73.5q93 0 170 50l21 12q4 2 14.5 9t15 9.5t14 6t20 5t24.5 1.5q58 0 96.5 -36.5t38.5 -86.5q0 -58 -60.5 -109t-158.5 -80.5t-205 -29.5q-261 0 -391.5 142.5t-130.5 393.5v406q0 251 130.5 393.5t391.5 142.5q107 0 205 -29.5
t158.5 -80.5t60.5 -109q0 -50 -38.5 -86.5t-96.5 -36.5q-14 0 -24.5 1.5t-20 5t-14 6t-15 9.5t-14.5 9l-21 12q-76 49 -170 49q-132 0 -189 -73t-57 -213z" />
    <glyph glyph-name="uni0422" unicode="&#x422;" horiz-adv-x="1071" 
d="M391 113v1071h-217q-61 0 -102 38t-41 91q0 46 43 88.5t100 42.5h721q57 0 101 -38.5t44 -92.5q0 -52 -43 -90.5t-102 -38.5h-217v-1071q0 -53 -42.5 -92t-100.5 -39q-59 0 -101.5 39t-42.5 92z" />
    <glyph glyph-name="uni0423" unicode="&#x423;" horiz-adv-x="1112" 
d="M637 932l172 444q15 40 51.5 63t79.5 23q56 0 98.5 -37t42.5 -92q0 -27 -10 -47l-330 -817q-26 -65 -45.5 -108.5t-48 -98.5t-55 -90.5t-64.5 -73.5t-78.5 -59.5t-93.5 -36.5t-114 -16q-62 0 -103 36t-41 91q0 49 37 86.5t98 40.5q67 3 107.5 32.5t75.5 100.5l-377 917
q-8 18 -8 47q0 54 40.5 89.5t100.5 35.5q41 0 76.5 -23t52.5 -63l178 -442q16 -40 29.5 -87.5t27.5 -105.5t23 -90q5 18 31 122.5t47 158.5z" />
    <glyph glyph-name="uni0424" unicode="&#x424;" horiz-adv-x="1617" 
d="M666 113v188h-72q-241 0 -381.5 124.5t-140.5 350.5q0 98 28.5 181.5t87.5 152t163 108t243 39.5h72v74q0 52 44 91.5t99 39.5q63 0 103 -38.5t40 -92.5v-74h72q139 0 243 -39.5t163 -108t87.5 -152t28.5 -181.5q0 -226 -140.5 -350.5t-381.5 -124.5h-72v-188
q0 -53 -42.5 -92t-100.5 -39q-59 0 -101 39t-42 92zM1024 997h-72v-434h72q236 0 236 215q0 219 -236 219zM594 563h72v434h-72q-236 0 -236 -219q0 -215 236 -215z" />
    <glyph glyph-name="uni0425" unicode="&#x425;" horiz-adv-x="1134" 
d="M567 514l-272 -451v3q-52 -84 -131 -84q-55 0 -97 41t-42 92q0 37 20 69l354 566l-325 514q-17 34 -17 69q0 50 41.5 89.5t96.5 39.5q85 0 141 -94l231 -381l232 381q65 94 143 94q54 0 94.5 -38.5t40.5 -92.5q0 -26 -18 -67l-324 -514l355 -566q20 -32 20 -69
q0 -51 -42 -92t-95 -41q-81 0 -133 81z" />
    <glyph glyph-name="uni0426" unicode="&#x426;" horiz-adv-x="1318" 
d="M1139 1329v-1069h20q57 0 100.5 -39.5t43.5 -91.5v-317q0 -54 -43.5 -94t-100.5 -40t-100 40t-43 94v188h-744q-60 0 -101.5 39.5t-41.5 93.5v1196q0 54 41.5 93.5t101.5 39.5q58 0 101 -39.5t43 -93.5v-1069h436v1069q0 54 43 93.5t100 39.5q58 0 101 -39.5t43 -93.5z
" />
    <glyph glyph-name="uni0427" unicode="&#x427;" horiz-adv-x="1202" 
d="M784 117v422q-91 -47 -213 -47q-227 0 -355 123.5t-128 349.5v362q0 55 42 95t101 40q58 0 101 -40t43 -95v-360q0 -112 52 -163.5t157 -51.5q101 0 200 51v524q0 55 42.5 95t101.5 40q57 0 100 -40t43 -95v-1210q0 -55 -43 -95t-100 -40q-59 0 -101.5 40t-42.5 95z" />
    <glyph glyph-name="uni0428" unicode="&#x428;" horiz-adv-x="1638" 
d="M1507 1329v-1196q0 -54 -43 -93.5t-100 -39.5h-1092q-60 0 -101.5 39.5t-41.5 93.5v1196q0 54 41.5 93.5t101.5 39.5q58 0 101 -39.5t43 -93.5v-1069h258v1071q0 53 42 92t101 39q58 0 101 -39t43 -92v-1071h260v1069q0 54 43 93.5t100 39.5q58 0 100.5 -39.5t42.5 -93.5
z" />
    <glyph glyph-name="uni0429" unicode="&#x429;" horiz-adv-x="1687" 
d="M272 0q-60 0 -101.5 39.5t-41.5 93.5v1196q0 54 41.5 93.5t101.5 39.5q58 0 101 -39.5t43 -93.5v-1069h258v1071q0 53 42 92t101 39q58 0 101 -39t43 -92v-1071h260v1069q0 54 43 93.5t100 39.5q58 0 100.5 -39.5t42.5 -93.5v-1069h21q57 0 100 -39.5t43 -91.5v-297
q0 -54 -42.5 -93.5t-100.5 -39.5q-57 0 -100.5 39.5t-43.5 93.5v168h-1112z" />
    <glyph glyph-name="uni042A" unicode="&#x42a;" horiz-adv-x="1441" 
d="M373 147v1037h-199q-60 0 -100.5 37t-40.5 92q0 53 41 92t100 39h332q64 0 108.5 -43.5t44.5 -97.5v-349h175q241 0 381.5 -124.5t140.5 -348.5q0 -99 -28.5 -182.5t-87.5 -152t-163 -107.5t-243 -39h-302q-65 0 -112 43.5t-47 103.5zM834 694h-175v-434h175
q235 0 235 219q0 215 -235 215z" />
    <glyph glyph-name="uni042B" unicode="&#x42b;" horiz-adv-x="1607" 
d="M1190 113v1218q0 53 42 92t101 39q58 0 101 -39t43 -92v-1218q0 -53 -43 -92t-101 -39q-59 0 -101 39t-42 92zM416 1327v-373h153q241 0 382 -124.5t141 -348.5q0 -99 -28.5 -182.5t-88 -152t-163.5 -107.5t-243 -39h-280q-65 0 -112.5 43.5t-47.5 103.5v1180q0 55 43 95
t100 40q58 0 101 -40.5t43 -94.5zM569 694h-153v-434h153q236 0 236 219q0 215 -236 215z" />
    <glyph glyph-name="uni042C" unicode="&#x42c;" horiz-adv-x="1198" 
d="M416 1327v-373h174q241 0 381.5 -124.5t140.5 -348.5q0 -99 -28.5 -182.5t-87.5 -152t-163 -107.5t-243 -39h-301q-65 0 -112.5 43.5t-47.5 103.5v1180q0 55 43 95t100 40q58 0 101 -40.5t43 -94.5zM590 694h-174v-434h174q235 0 235 219q0 215 -235 215z" />
    <glyph glyph-name="uni042D" unicode="&#x42d;" horiz-adv-x="1101" 
d="M731 854v72q0 140 -57 213t-189 73q-94 0 -170 -49l-20 -12q-4 -2 -14.5 -9t-15 -9.5t-14 -6t-20 -5t-24.5 -1.5q-58 0 -96.5 36.5t-38.5 86.5q0 58 60.5 109t158.5 80.5t205 29.5q261 0 391.5 -142.5t130.5 -393.5v-406q0 -251 -130.5 -393.5t-391.5 -142.5
q-107 0 -205 29.5t-158.5 80.5t-60.5 109q0 50 38.5 86.5t96.5 36.5q14 0 24.5 -1.5t20 -5t14 -6t15 -9.5t14.5 -9l20 -12q77 -50 170 -50q132 0 189 73.5t57 213.5v72h-319q-60 0 -100 38.5t-40 94.5q0 55 41.5 92t98.5 37h319z" />
    <glyph glyph-name="uni042E" unicode="&#x42e;" horiz-adv-x="1716" 
d="M1112 -18q-165 0 -282.5 70.5t-173.5 186t-56 263.5v92h-184v-479q0 -54 -43 -93.5t-101 -39.5q-60 0 -101.5 39.5t-41.5 93.5v1216q0 53 42 92t101 39q58 0 101 -39t43 -92v-477h184v90q0 110 29 201t88 163.5t160 113t235 40.5t235 -40.5t160 -113t88 -163.5t29 -201
v-442q0 -148 -56 -263.5t-173.5 -186t-282.5 -70.5zM1112 1202q-225 0 -225 -258v-442q0 -120 56.5 -190t168.5 -70t168.5 70t56.5 190v442q0 258 -225 258z" />
    <glyph glyph-name="uni042F" unicode="&#x42f;" horiz-adv-x="1230" 
d="M123 1010q0 86 26 159.5t82.5 137t158.5 100.5t241 37h315q63 0 109.5 -44t46.5 -104v-1179q0 -56 -40.5 -95.5t-100.5 -39.5q-58 0 -102 40.5t-44 94.5v469h-100l-342 -539q-41 -63 -121 -63q-46 0 -98 38.5t-52 88.5q0 45 25 84l279 421q-135 44 -209 144t-74 250z
M410 1010q0 -80 50.5 -123t145.5 -43h209v340h-197q-208 0 -208 -174z" />
    <glyph glyph-name="uni0430" unicode="&#x430;" horiz-adv-x="1069" 
d="M922 627v-381q0 -22 6.5 -35t11 -17t24 -10t23.5 -8q47 -18 47 -78q0 -52 -34 -79t-113 -27q-59 0 -99.5 19t-74.5 67q-115 -92 -277 -92q-175 0 -269.5 87t-94.5 236v6q0 314 405 314q92 0 162 -21v66q0 141 -156 141q-58 0 -133 -33q-2 -1 -13 -5.5t-18 -7t-20 -5
t-27 -2.5q-59 0 -88.5 37t-29.5 82q0 44 30.5 77.5t81.5 53t111.5 29.5t126.5 10q218 0 318 -106t100 -318zM494 430q-82 0 -112 -31.5t-30 -85.5v-6q0 -50 30 -72t97 -22q91 0 160 53v148q-82 16 -145 16z" />
    <glyph glyph-name="uni0431" unicode="&#x431;" horiz-adv-x="1034" 
d="M72 367v561q0 208 113 341.5t345 157.5q1 0 16.5 2t34 4.5t42.5 7.5t51 13.5t51 18.5q24 12 57 12q56 0 93.5 -35.5t37.5 -87.5q0 -28 -13 -51.5t-32.5 -39.5t-51 -29t-58 -20.5t-63.5 -13.5t-59 -8t-53.5 -4.5t-37.5 -3.5q-191 -18 -191 -250q77 57 191 57
q193 0 304.5 -107.5t111.5 -273.5v-251q0 -168 -117 -274.5t-328 -106.5t-327.5 106.5t-116.5 274.5zM516 227q78 0 120 37t42 103v254q0 65 -38.5 101t-115.5 36q-74 0 -120 -33t-50 -92v-266q0 -66 42 -103t120 -37z" />
    <glyph glyph-name="uni0432" unicode="&#x432;" horiz-adv-x="1040" 
d="M946 748q0 -75 -43.5 -129.5t-144.5 -94.5q110 -43 159.5 -99t49.5 -138q0 -127 -104 -207t-298 -80h-295q-59 0 -100 37.5t-41 89.5v780q0 52 41 89.5t100 37.5h275q195 0 298 -80t103 -206zM686 319q0 109 -143 109h-131v-215h149q125 0 125 106zM412 821v-203h133
q121 0 121 97q0 106 -125 106h-129z" />
    <glyph glyph-name="uni0433" unicode="&#x433;" horiz-adv-x="884" 
d="M412 797v-684q0 -54 -41 -90.5t-101 -36.5t-100.5 36.5t-40.5 90.5v802q0 51 39 85t96 34h461q55 0 95 -34.5t40 -84.5q0 -51 -39 -84.5t-96 -33.5h-313z" />
    <glyph glyph-name="uni0434" unicode="&#x434;" horiz-adv-x="1183" 
d="M389 1034h512q33 0 58 -13t38 -34t19 -41t6 -39v-676h14q33 0 58 -13t38 -34t19 -41t6 -39v-264q0 -54 -40.5 -90.5t-100.5 -36.5t-101 36.5t-41 90.5v160h-565v-160q0 -54 -40.5 -90.5t-100.5 -36.5t-100.5 36.5t-40.5 90.5v264q0 18 5.5 37.5t17.5 41t37.5 35
t59.5 13.5q93 75 105 308l18 372q2 48 36 85.5t83 37.5zM524 535q-10 -185 -63 -304h278v572h-204z" />
    <glyph glyph-name="uni0435" unicode="&#x435;" horiz-adv-x="993" 
d="M532 391q-68 0 -157 12v-67q0 -54 41.5 -84.5t122.5 -30.5q82 0 184 45q26 13 61 13q66 0 96.5 -35t30.5 -78q0 -50 -42 -87.5t-107 -56.5t-126.5 -27.5t-117.5 -8.5q-198 0 -312 100.5t-114 257.5v342q0 161 114.5 263t321.5 102q196 0 299 -94.5t103 -254.5
q0 -311 -398 -311zM649 717q0 60 -30.5 87t-92.5 27q-73 0 -112 -35.5t-39 -97.5v-88q88 -8 147 -8q62 0 94.5 26t32.5 89z" />
    <glyph glyph-name="uni0436" unicode="&#x436;" horiz-adv-x="1327" 
d="M805 113q0 -54 -40.5 -90.5t-100.5 -36.5t-101 36.5t-41 90.5v274l-237 -344q-40 -57 -117 -57q-59 0 -96.5 30t-40.5 82q0 45 22 76l234 340l-236 342q-20 28 -20 72q3 52 41 83t96 31q77 0 119 -59l229 -336h6v273q0 51 41 87.5t101 36.5t100.5 -36.5t40.5 -87.5v-273
h4l231 332q45 63 119 63q59 0 96.5 -31t40.5 -83q0 -43 -22 -74l-236 -340l236 -340q22 -31 22 -76q-3 -52 -41 -82t-96 -30q-75 0 -119 59l-235 342v-274z" />
    <glyph glyph-name="uni0437" unicode="&#x437;" horiz-adv-x="917" 
d="M827 758q0 -78 -40.5 -133.5t-129.5 -96.5q101 -37 146 -92.5t45 -140.5q0 -139 -106 -224t-304 -85q-56 0 -114 7t-121.5 24t-103.5 52.5t-40 84.5q0 45 30.5 82.5t78.5 37.5t84 -18q49 -24 86 -34.5t94 -10.5q68 0 102.5 21.5t34.5 80.5q0 18 -5 31t-21 30t-55.5 27.5
t-100.5 14.5q-29 2 -45 3.5t-41 8t-38 17t-23.5 31t-10.5 48.5q0 26 9 45t22 29.5t33.5 17t36.5 8.5t38 4h4.5t4 0.5t4.5 0.5q168 17 168 110q0 86 -125 86q-62 0 -122 -26.5t-91 -26.5q-55 0 -93 37t-38 84q0 42 34.5 74.5t89.5 49.5t113.5 25.5t116.5 8.5
q188 0 290.5 -81.5t102.5 -211.5z" />
    <glyph glyph-name="uni0438" unicode="&#x438;" horiz-adv-x="1167" 
d="M281 -18q-66 0 -109 39t-43 96v801q0 53 40 91t99 38t101.5 -38.5t42.5 -90.5v-469l342 528q20 33 56.5 51.5t78.5 18.5q65 0 106 -38.5t41 -97.5v-798q0 -53 -41 -92t-100 -39t-100 39t-41 92v460l-340 -524q-51 -67 -133 -67z" />
    <glyph glyph-name="uni0439" unicode="&#x439;" horiz-adv-x="1167" 
d="M281 -18q-66 0 -109 39t-43 96v801q0 53 40 91t99 38t101.5 -38.5t42.5 -90.5v-469l342 528q20 33 56.5 51.5t78.5 18.5q65 0 106 -38.5t41 -97.5v-798q0 -53 -41 -92t-100 -39t-100 39t-41 92v460l-340 -524q-51 -67 -133 -67zM584 1321q61 0 121 63q36 48 94 48
q46 0 75 -30.5t15 -84.5q-16 -56 -69 -99.5t-115.5 -64t-120.5 -20.5q-92 0 -185.5 50.5t-119.5 133.5q-14 54 15 84.5t75 30.5q61 0 92 -48q63 -63 123 -63z" />
    <glyph glyph-name="uni043A" unicode="&#x43a;" horiz-adv-x="974" 
d="M440 381h-28v-268q0 -54 -41 -90.5t-101 -36.5t-100.5 36.5t-40.5 90.5v807q0 51 40.5 87.5t100.5 36.5t101 -36.5t41 -87.5v-273h28l250 338q42 57 117 57q58 0 96 -31t41 -83q0 -43 -22 -74l-258 -340l258 -340q22 -31 22 -74q-3 -52 -41 -83t-96 -31q-75 0 -117 57z
" />
    <glyph glyph-name="uni043B" unicode="&#x43b;" horiz-adv-x="1183" 
d="M250 346l53 565q5 49 37.5 86t81.5 37h512q33 0 58 -13t38 -34t19 -41t6 -39v-794q0 -54 -41 -90.5t-101 -36.5t-100.5 36.5t-40.5 90.5v690h-209l-39 -453q-16 -172 -88.5 -265t-218.5 -93q-186 0 -186 119q0 63 42.5 97.5t94.5 24.5q20 -4 27 -4q46 0 55 117z" />
    <glyph glyph-name="uni043C" unicode="&#x43c;" horiz-adv-x="1392" 
d="M696 152h-4q-87 0 -131 73l-151 285v-397q0 -52 -42.5 -89.5t-99.5 -37.5q-58 0 -98.5 37t-40.5 90v800q0 57 42 94t105 37q90 0 136 -75l282 -482l283 482q46 75 135 75q63 0 105.5 -37t42.5 -94v-800q0 -52 -42 -89.5t-98 -37.5q-60 0 -100.5 37t-40.5 90v397
l-152 -285q-44 -73 -131 -73z" />
    <glyph glyph-name="uni043D" unicode="&#x43d;" horiz-adv-x="1134" 
d="M412 113q0 -54 -41 -90.5t-101 -36.5t-100.5 36.5t-40.5 90.5v807q0 51 40.5 87.5t100.5 36.5t101 -36.5t41 -87.5v-273h311v273q0 51 40.5 87.5t100.5 36.5t101 -36.5t41 -87.5v-807q0 -54 -41 -90.5t-101 -36.5t-100.5 36.5t-40.5 90.5v305h-311v-305z" />
    <glyph glyph-name="uni043E" unicode="&#x43e;" horiz-adv-x="1073" 
d="M537 -14q-211 0 -328 106.5t-117 274.5v305q0 168 117 274.5t328 106.5t327.5 -106.5t116.5 -274.5v-305q0 -168 -116.5 -274.5t-327.5 -106.5zM537 227q78 0 119.5 37t41.5 103v307q0 64 -41.5 100.5t-119.5 36.5t-120 -36.5t-42 -100.5v-307q0 -66 42 -103t120 -37z
" />
    <glyph glyph-name="uni043F" unicode="&#x43f;" horiz-adv-x="1114" 
d="M270 1034h574q60 0 100.5 -36.5t40.5 -90.5v-794q0 -54 -40.5 -90.5t-100.5 -36.5t-101 36.5t-41 90.5v690h-290v-690q0 -54 -41 -90.5t-101 -36.5t-100.5 36.5t-40.5 90.5v794q0 54 40.5 90.5t100.5 36.5z" />
    <glyph glyph-name="uni0440" unicode="&#x440;" horiz-adv-x="1081" 
d="M598 -12q-91 0 -178 41v-338q0 -54 -37.5 -89.5t-103.5 -35.5q-65 0 -103.5 36t-38.5 89v1040q0 62 -22 96q-29 36 -29 66q0 55 41.5 90t93.5 35q60 0 107 -57q82 46 147 68t141 22q174 0 273.5 -110.5t99.5 -291.5v-237q0 -424 -391 -424zM420 731v-483q91 -27 149 -27
q74 0 106 46t32 145v237q0 80 -34 122t-100 42q-64 0 -157 -43q4 -28 4 -39z" />
    <glyph glyph-name="uni0441" unicode="&#x441;" horiz-adv-x="907" 
d="M92 377v276q0 174 107 282.5t317 108.5q54 0 107.5 -7.5t111.5 -25t94.5 -55t36.5 -90.5q0 -44 -28.5 -74t-98.5 -30q-32 0 -67 12q-7 3 -24 9.5t-26.5 10t-24.5 7.5t-31 6t-34 2q-157 0 -157 -156v-276q0 -156 157 -156q18 0 33.5 1.5t32.5 6.5t24 7.5t27 10.5t23 9
q30 12 63 12q72 0 101.5 -30.5t29.5 -73.5q0 -42 -25 -74.5t-63 -51.5t-87.5 -31.5t-92 -16.5t-84.5 -4q-106 0 -187.5 30t-132 83.5t-76.5 123.5t-26 154z" />
    <glyph glyph-name="uni0442" unicode="&#x442;" horiz-adv-x="917" 
d="M600 788v-675q0 -54 -40.5 -90.5t-100.5 -36.5t-101 36.5t-41 90.5v675h-151q-57 0 -96 35.5t-39 87.5t39 87.5t96 35.5h586q57 0 96 -35.5t39 -87.5t-39 -87.5t-96 -35.5h-152z" />
    <glyph glyph-name="uni0443" unicode="&#x443;" horiz-adv-x="970" 
d="M555 614l111 344q13 42 50.5 64t82.5 22q56 0 98.5 -35t42.5 -89q0 -22 -6 -37l-250 -729q-79 -232 -123 -319q-81 -160 -199 -215q-77 -36 -180 -36q-62 0 -102.5 34.5t-40.5 88.5q0 48 37 84t98 39q66 3 106 54.5t78 174.5l-315 813q-10 25 -10 52q0 52 40.5 86
t100.5 34q43 0 77.5 -22t51.5 -64l129 -344q17 -43 38 -127.5t28 -107.5q5 23 16 73.5t20.5 89.5t20.5 72z" />
    <glyph glyph-name="uni0444" unicode="&#x444;" horiz-adv-x="1359" 
d="M537 -307v297q-215 17 -330 144.5t-115 322.5v139q0 187 115.5 310.5t329.5 140.5v305q0 52 41 89.5t100 37.5q60 0 100.5 -36.5t40.5 -90.5v-305q216 -15 332.5 -139t116.5 -312v-139q0 -196 -116.5 -324t-332.5 -143v-297q0 -54 -40.5 -90.5t-100.5 -36.5t-100.5 36.5
t-40.5 90.5zM1006 598q0 85 -47.5 138.5t-139.5 66.5v-570q92 15 139.5 73.5t47.5 150.5v141zM354 457q0 -90 46 -147.5t137 -76.5v568q-91 -15 -137 -67.5t-46 -135.5v-141z" />
    <glyph glyph-name="uni0445" unicode="&#x445;" horiz-adv-x="964" 
d="M649 526l264 -348q21 -26 21 -63q0 -54 -40 -91.5t-103 -37.5q-47 0 -73 16t-56 57q-37 53 -91 125.5t-90 122.5q-176 -240 -190 -260q-46 -61 -117 -61q-61 0 -102 35.5t-41 91.5q0 35 20 61q46 63 133 176.5t133 175.5q-238 317 -245 326q-25 28 -25 66q0 52 41 89
t100 37q28 0 50.5 -7t41 -23.5t26 -26t24.5 -31.5l155 -211l164 228q26 36 53.5 53.5t73.5 17.5q52 0 95.5 -35.5t43.5 -86.5q0 -41 -20 -66z" />
    <glyph glyph-name="uni0446" unicode="&#x446;" horiz-adv-x="1165" 
d="M1006 231q57 -3 96 -39t39 -88v-274q0 -54 -41 -90.5t-101 -36.5t-100.5 36.5t-40.5 90.5v170h-588q-60 0 -100.5 36.5t-40.5 90.5v793q0 54 40.5 89t100.5 35t101 -35t41 -89v-689h311v689q0 54 40.5 89t100.5 35t101 -35t41 -89v-689z" />
    <glyph glyph-name="uni0447" unicode="&#x447;" horiz-adv-x="1060" 
d="M375 920v-258q0 -44 25 -70.5t94 -26.5q37 0 153 17v338q0 51 40.5 87.5t100.5 36.5t101 -36.5t41 -87.5v-807q0 -54 -41 -90.5t-101 -36.5t-100.5 36.5t-40.5 90.5v245q-63 -22 -147 -22q-408 0 -408 326v258q0 51 40.5 87.5t100.5 36.5t101 -36.5t41 -87.5z" />
    <glyph glyph-name="uni0448" unicode="&#x448;" horiz-adv-x="1525" 
d="M1253 0h-983q-60 0 -100.5 36.5t-40.5 90.5v793q0 54 40.5 89t100.5 35t101 -35t41 -89v-689h209v689q0 51 40.5 87.5t100.5 36.5t100.5 -36.5t40.5 -87.5v-689h209v689q0 54 40.5 89t100.5 35t101 -35t41 -89v-793q0 -54 -41 -90.5t-101 -36.5z" />
    <glyph glyph-name="uni0449" unicode="&#x449;" horiz-adv-x="1552" 
d="M1247 0h-977q-60 0 -100.5 36.5t-40.5 90.5v793q0 54 40.5 89t100.5 35t101 -35t41 -89v-689h209v689q0 51 40.5 87.5t100.5 36.5t100.5 -36.5t40.5 -87.5v-689h209v689q0 54 40.5 89t100.5 35t101 -35t41 -89v-689q56 -2 95.5 -38t39.5 -89v-274q0 -54 -40.5 -90.5
t-100.5 -36.5t-101 36.5t-41 90.5v170z" />
    <glyph glyph-name="uni044A" unicode="&#x44a;" horiz-adv-x="1193" 
d="M274 797h-108q-57 0 -96 33.5t-39 84.5q0 50 40 84.5t95 34.5h256q57 0 96 -34t39 -85v-258h168q212 0 310 -84.5t98 -248.5q0 -149 -97.5 -236.5t-283.5 -87.5h-336q-59 0 -100.5 37.5t-41.5 89.5v670zM725 426h-168v-193h191q104 0 104 97q0 43 -26.5 69.5t-100.5 26.5
z" />
    <glyph glyph-name="uni044B" unicode="&#x44b;" horiz-adv-x="1482" 
d="M1352 113q0 -54 -41 -90.5t-101 -36.5t-100.5 36.5t-40.5 90.5v807q0 51 40.5 87.5t100.5 36.5t101 -36.5t41 -87.5v-807zM412 920v-263h168q211 0 309 -84.5t98 -248.5q0 -149 -97.5 -236.5t-283.5 -87.5h-336q-59 0 -100 37.5t-41 89.5v793q0 51 40.5 87.5t100.5 36.5
t101 -36.5t41 -87.5zM580 426h-168v-193h190q105 0 105 97q0 43 -26.5 69.5t-100.5 26.5z" />
    <glyph glyph-name="uni044C" unicode="&#x44c;" horiz-adv-x="1048" 
d="M412 920v-263h168q211 0 309 -84.5t98 -248.5q0 -149 -97.5 -236.5t-283.5 -87.5h-336q-59 0 -100 37.5t-41 89.5v793q0 51 40.5 87.5t100.5 36.5t101 -36.5t41 -87.5zM580 426h-168v-193h190q105 0 105 97q0 43 -26.5 69.5t-100.5 26.5z" />
    <glyph glyph-name="uni044D" unicode="&#x44d;" horiz-adv-x="886" 
d="M813 635v-240q0 -184 -101.5 -296.5t-305.5 -112.5q-52 0 -110.5 8.5t-118.5 26.5t-99 52t-39 79q0 48 38 82t93 34q26 0 57 -10q35 -14 49.5 -19t47 -11.5t65.5 -6.5q141 0 141 174v6h-251q-57 0 -96.5 34t-39.5 85t39.5 85t96.5 34h251q-3 170 -141 170
q-33 0 -65.5 -6.5t-47 -11.5t-49.5 -19q-42 -10 -57 -10q-55 0 -93 35t-38 82q0 45 39 79.5t99.5 52t118.5 25.5t110 8q204 0 305.5 -112.5t101.5 -296.5z" />
    <glyph glyph-name="uni044E" unicode="&#x44e;" horiz-adv-x="1517" 
d="M412 113q0 -54 -41 -90.5t-101 -36.5t-100.5 36.5t-40.5 90.5v807q0 51 40.5 87.5t100.5 36.5t101 -36.5t41 -87.5v-273h163v23q0 168 114 274.5t321 106.5t320.5 -106.5t113.5 -274.5v-303q0 -168 -113.5 -274.5t-320.5 -106.5t-321 106.5t-114 274.5v51h-163v-305z
M1010 227q74 0 112.5 37t38.5 103v305q0 64 -38.5 100.5t-112.5 36.5t-113 -36.5t-39 -100.5v-305q0 -66 39 -103t113 -37z" />
    <glyph glyph-name="uni044F" unicode="&#x44f;" horiz-adv-x="1079" 
d="M807 -14q-60 0 -100.5 37t-40.5 90v264h-86l-244 -334q-45 -57 -117 -57q-59 0 -96.5 30t-40.5 82q0 45 22 76l179 238q-193 70 -193 299q0 149 103 236t299 87h315q59 0 100 -37.5t41 -89.5v-794q0 -53 -40.5 -90t-100.5 -37zM371 705q0 -97 147 -97h148v193h-170
q-125 0 -125 -96z" />
    <glyph glyph-name="uni0450" unicode="&#x450;" horiz-adv-x="993" 
d="M532 391q-68 0 -157 12v-67q0 -54 41.5 -84.5t122.5 -30.5q82 0 184 45q26 13 61 13q66 0 96.5 -35t30.5 -78q0 -50 -42 -87.5t-107 -56.5t-126.5 -27.5t-117.5 -8.5q-198 0 -312 100.5t-114 257.5v342q0 161 114.5 263t321.5 102q196 0 299 -94.5t103 -254.5
q0 -311 -398 -311zM649 717q0 60 -30.5 87t-92.5 27q-73 0 -112 -35.5t-39 -97.5v-88q88 -8 147 -8q62 0 94.5 26t32.5 89zM493 1454l166 -162q16 -14 16 -51q0 -44 -30 -72t-74 -28q-21 0 -38 6.5t-25 12.5t-29 24l-168 168q-19 27 -19 57q0 41 32 70.5t69 29.5
q31 0 46.5 -8.5t37.5 -30.5z" />
    <glyph glyph-name="uni0451" unicode="&#x451;" horiz-adv-x="993" 
d="M532 391q-68 0 -157 12v-67q0 -54 41.5 -84.5t122.5 -30.5q82 0 184 45q26 13 61 13q66 0 96.5 -35t30.5 -78q0 -50 -42 -87.5t-107 -56.5t-126.5 -27.5t-117.5 -8.5q-198 0 -312 100.5t-114 257.5v342q0 161 114.5 263t321.5 102q196 0 299 -94.5t103 -254.5
q0 -311 -398 -311zM649 717q0 60 -30.5 87t-92.5 27q-73 0 -112 -35.5t-39 -97.5v-88q88 -8 147 -8q62 0 94.5 26t32.5 89zM813 1290q0 -54 -38.5 -91.5t-94.5 -37.5q-55 0 -95 38t-40 91q0 51 40 88t95 37q56 0 94.5 -36.5t38.5 -88.5zM446 1290q0 -54 -39 -91.5t-96 -37.5
q-55 0 -93 38t-38 91q0 51 38 88t93 37q57 0 96 -36t39 -89z" />
    <glyph glyph-name="uni0452" unicode="&#x452;" horiz-adv-x="1273" 
d="M858 82v491q0 92 -27.5 135.5t-89.5 43.5q-44 0 -93 -18.5t-83 -49.5v-571q0 -54 -39.5 -90.5t-99.5 -36.5t-100.5 36.5t-40.5 90.5v1011h-138q-49 0 -82.5 29.5t-33.5 71.5t33.5 72t82.5 30h138v35q0 51 40 89t99 38q60 0 100.5 -36.5t40.5 -90.5v-35h133q47 0 81 -30.5
t34 -71.5q0 -40 -34 -70.5t-81 -30.5h-133v-176q86 47 195 47q190 0 285.5 -113t95.5 -307v-425q0 -496 -389 -562q-47 0 -81.5 23.5t-45.5 62.5q-7 35 -2.5 60t24.5 43.5t40.5 28.5t43.5 16q127 33 127 260z" />
    <glyph glyph-name="uni0453" unicode="&#x453;" horiz-adv-x="884" 
d="M412 797v-684q0 -54 -41 -90.5t-101 -36.5t-100.5 36.5t-40.5 90.5v802q0 51 39 85t96 34h461q55 0 95 -34.5t40 -84.5q0 -51 -39 -84.5t-96 -33.5h-313zM377 1292l166 162l16 16q15 15 23.5 21.5t23.5 12t37 5.5q37 0 68.5 -29.5t31.5 -70.5q0 -31 -18 -57l-168 -168
q-21 -18 -29 -24t-25 -12.5t-38 -6.5q-44 0 -74.5 28.5t-30.5 71.5q0 28 17 51z" />
    <glyph glyph-name="uni0454" unicode="&#x454;" horiz-adv-x="907" 
d="M92 377v276q0 174 107 282.5t317 108.5q54 0 107.5 -7.5t111.5 -25t94.5 -55t36.5 -90.5q0 -44 -28.5 -74t-98.5 -30q-32 0 -67 12q-7 3 -24 9.5t-26.5 10t-24.5 7.5t-31 6t-34 2q-157 0 -157 -156v-14h252q57 0 96 -34t39 -85t-39 -85t-96 -34h-252v-24q0 -156 157 -156
q18 0 33.5 1.5t32.5 6.5t24 7.5t27 10.5t23 9q30 12 63 12q72 0 101.5 -30.5t29.5 -73.5q0 -42 -25 -74.5t-63 -51.5t-87.5 -31.5t-92 -16.5t-84.5 -4q-106 0 -187.5 30t-132 83.5t-76.5 123.5t-26 154z" />
    <glyph glyph-name="uni0455" unicode="&#x455;" horiz-adv-x="913" 
d="M88 733q0 145 102 231.5t293 86.5q56 0 109 -8t106 -26t85 -54t32 -86q0 -41 -22.5 -66t-47 -32t-51.5 -7q-32 0 -94 21.5t-115 21.5q-118 0 -118 -74q0 -43 61 -67q26 -11 80.5 -29.5t93.5 -32.5t88 -42t80 -60t52.5 -84t21.5 -117q0 -151 -104.5 -237t-295.5 -86
q-56 0 -114 7.5t-118 24t-98 49.5t-38 78q0 47 38 84t95 37q30 0 103.5 -22.5t127.5 -22.5q58 0 91.5 20.5t33.5 61.5q0 44 -43 66q-28 15 -78 32.5t-94 31t-94 39t-85.5 56.5t-59 84t-23.5 121z" />
    <glyph glyph-name="uni0456" unicode="&#x456;" horiz-adv-x="583" 
d="M451 1319q0 -60 -46.5 -101.5t-113.5 -41.5t-113.5 42t-46.5 101q0 60 46.5 101.5t113.5 41.5t113.5 -42t46.5 -101zM432 920v-807q0 -54 -40.5 -90.5t-100.5 -36.5t-100.5 36.5t-40.5 90.5v807q0 51 40.5 87.5t100.5 36.5t100.5 -36.5t40.5 -87.5z" />
    <glyph glyph-name="uni0457" unicode="&#x457;" horiz-adv-x="583" 
d="M432 113q0 -54 -40.5 -90.5t-100.5 -36.5t-100.5 36.5t-40.5 90.5v807q0 51 40.5 87.5t100.5 36.5t100.5 -36.5t40.5 -87.5v-807zM608 1290q0 -54 -38.5 -91.5t-94.5 -37.5q-55 0 -95 38t-40 91q0 51 40 88t95 37q56 0 94.5 -36.5t38.5 -88.5zM242 1290
q0 -54 -39.5 -91.5t-96.5 -37.5q-55 0 -93 38t-38 91q0 51 38 88t93 37q57 0 96.5 -36.5t39.5 -88.5z" />
    <glyph glyph-name="uni0458" unicode="&#x458;" horiz-adv-x="583" 
d="M451 1319q0 -60 -46.5 -101.5t-113.5 -41.5t-113.5 42t-46.5 101q0 60 46.5 101.5t113.5 41.5t113.5 -42t46.5 -101zM432 920v-934q0 -179 -105.5 -288.5t-283.5 -109.5q-47 0 -81.5 23.5t-45.5 62.5q-18 62 18.5 100.5t88.5 47.5q127 23 127 158v940q0 51 40.5 87.5
t100.5 36.5t100.5 -36.5t40.5 -87.5z" />
    <glyph glyph-name="uni0459" unicode="&#x459;" horiz-adv-x="1609" 
d="M1141 426h-127v-193h149q105 0 105 97q0 43 -26.5 69.5t-100.5 26.5zM1014 907v-250h127q211 0 309 -84.5t98 -248.5q0 -149 -97.5 -236.5t-283.5 -87.5h-295q-59 0 -100 37.5t-41 89.5v676h-168l-39 -453q-16 -172 -88.5 -265t-218.5 -93q-36 0 -56.5 1t-49 7.5t-43 18
t-26 35t-11.5 57.5q0 61 40 91.5t97 30.5q4 0 13.5 -1t13.5 -1q46 0 55 115l53 565q5 49 37.5 86t81.5 37h471q33 0 58 -13t38 -34t19 -41t6 -39z" />
    <glyph glyph-name="uni045A" unicode="&#x45a;" horiz-adv-x="1560" 
d="M412 113q0 -54 -41 -90.5t-101 -36.5t-100.5 36.5t-40.5 90.5v807q0 51 40.5 87.5t100.5 36.5t101 -36.5t41 -87.5v-273h270v273q0 51 40.5 87.5t100.5 36.5t101 -36.5t41 -87.5v-273h127q212 0 309.5 -81.5t97.5 -241.5q0 -149 -97.5 -236.5t-283.5 -87.5h-295
q-59 0 -100 37.5t-41 89.5v291h-270v-305zM1092 418h-127v-185h149q105 0 105 97q0 88 -127 88z" />
    <glyph glyph-name="uni045B" unicode="&#x45b;" horiz-adv-x="1273" 
d="M813 1225q0 -40 -34 -70.5t-81 -30.5h-133v-163q84 34 195 34q190 0 285.5 -96.5t95.5 -261.5v-524q0 -53 -42 -90t-100 -37q-60 0 -100.5 36.5t-40.5 90.5v522q0 60 -27.5 88.5t-89.5 28.5q-44 0 -93 -18.5t-83 -49.5v-571q0 -54 -39.5 -90.5t-99.5 -36.5t-100.5 36.5
t-40.5 90.5v1011h-138q-49 0 -82.5 29.5t-33.5 71.5t33.5 72t82.5 30h138v35q0 51 40 89t99 38q60 0 100.5 -36.5t40.5 -90.5v-35h133q47 0 81 -30.5t34 -71.5z" />
    <glyph glyph-name="uni045C" unicode="&#x45c;" horiz-adv-x="974" 
d="M412 381h28l250 -338q42 -57 117 -57q58 0 96 31t41 83q0 43 -22 74l-258 340l258 340q22 31 22 74q-3 52 -41 83t-96 31q-75 0 -117 -57l-250 -338h-28v273q0 51 -41 87.5t-101 36.5t-100.5 -36.5t-40.5 -87.5v-807q0 -54 40.5 -90.5t100.5 -36.5t101 36.5t41 90.5v268z
M416 1292l166 162l16 16q15 15 23.5 21.5t23.5 12t37 5.5q37 0 68.5 -29.5t31.5 -70.5q0 -31 -18 -57l-168 -168q-21 -18 -29 -24t-25 -12.5t-38 -6.5q-44 0 -74.5 28.5t-30.5 71.5q0 28 17 51z" />
    <glyph glyph-name="uni045D" unicode="&#x45d;" horiz-adv-x="1167" 
d="M281 -18q-66 0 -109 39t-43 96v801q0 53 40 91t99 38t101.5 -38.5t42.5 -90.5v-469l342 528q20 33 56.5 51.5t78.5 18.5q65 0 106 -38.5t41 -97.5v-798q0 -53 -41 -92t-100 -39t-100 39t-41 92v460l-340 -524q-51 -67 -133 -67zM530 1454l166 -162q17 -15 17 -51
q0 -43 -30.5 -71.5t-74.5 -28.5q-21 0 -38 6.5t-25 12.5t-29 24l-168 168q-18 26 -18 57q0 41 31.5 70.5t68.5 29.5q31 0 46.5 -8.5t37.5 -30.5z" />
    <glyph glyph-name="uni045E" unicode="&#x45e;" horiz-adv-x="970" 
d="M555 614l111 344q13 42 50.5 64t82.5 22q56 0 98.5 -35t42.5 -89q0 -22 -6 -37l-250 -729q-79 -232 -123 -319q-81 -160 -199 -215q-77 -36 -180 -36q-62 0 -102.5 34.5t-40.5 88.5q0 48 37 84t98 39q66 3 106 54.5t78 174.5l-315 813q-10 25 -10 52q0 52 40.5 86
t100.5 34q43 0 77.5 -22t51.5 -64l129 -344q17 -43 38 -127.5t28 -107.5q5 23 16 73.5t20.5 89.5t20.5 72zM486 1321q61 0 121 63q36 48 94 48q46 0 75 -30.5t15 -84.5q-16 -56 -69 -99.5t-115.5 -64t-120.5 -20.5q-92 0 -185.5 50.5t-119.5 133.5q-14 54 15 84.5t75 30.5
q61 0 92 -48q63 -63 123 -63z" />
    <glyph glyph-name="uni045F" unicode="&#x45f;" horiz-adv-x="1114" 
d="M844 0h-146v-170q0 -54 -40.5 -90.5t-100.5 -36.5t-100.5 36.5t-40.5 90.5v170h-146q-60 0 -100.5 36.5t-40.5 90.5v795q0 54 40.5 90.5t100.5 36.5t101 -36.5t41 -90.5v-691h290v691q0 54 41 90.5t101 36.5t100.5 -36.5t40.5 -90.5v-795q0 -54 -40.5 -90.5t-100.5 -36.5
z" />
    <glyph glyph-name="uni0462" unicode="&#x462;" horiz-adv-x="1400" 
d="M596 1425v-73h319q48 0 86.5 -33t38.5 -78t-37 -76.5t-88 -31.5h-319v-215h174q241 0 381.5 -119t140.5 -336q0 -75 -17 -141t-56.5 -126t-98.5 -103t-148.5 -68t-201.5 -25h-301q-65 0 -112.5 43.5t-47.5 103.5v986h-155q-51 0 -87 32.5t-36 73.5t37 77t86 36h155v73
q0 53 42.5 92t101.5 39q58 0 100.5 -39t42.5 -92zM596 260h174q236 0 236 201q0 196 -236 196h-174v-397z" />
    <glyph glyph-name="uni0463" unicode="&#x463;" horiz-adv-x="1273" 
d="M567 1343v-106h131q47 0 81 -30.5t34 -71.5q0 -40 -34 -70.5t-81 -30.5h-131v-284h148q428 0 428 -367q0 -178 -103 -280.5t-299 -102.5h-315q-59 0 -100 37.5t-41 89.5v907h-138q-49 0 -82.5 30t-33.5 73q0 42 33.5 71t82.5 29h138v106q0 54 40.5 90.5t100.5 36.5
t100.5 -36.5t40.5 -90.5zM715 518h-148v-285h170q125 0 125 148q0 60 -31 98.5t-116 38.5z" />
    <glyph glyph-name="uni0490" unicode="&#x490;" horiz-adv-x="1030" 
d="M129 1303q0 54 45 97.5t109 43.5h411v137q0 53 42.5 93t101.5 40q58 0 100.5 -40t42.5 -93v-266q0 -55 -40.5 -92t-100.5 -37h-424v-1071q0 -53 -43 -92t-101 -39q-59 0 -101 39t-42 92v1188z" />
    <glyph glyph-name="uni0491" unicode="&#x491;" horiz-adv-x="921" 
d="M866 1178v-256q0 -53 -40.5 -89t-100.5 -36h-313v-684q0 -54 -41 -90.5t-101 -36.5t-100.5 36.5t-40.5 90.5v802q0 51 39 85t96 34h320v144q0 54 40.5 90.5t100.5 36.5t100.5 -36.5t40.5 -90.5z" />
    <glyph glyph-name="Wgrave" unicode="&#x1e80;" horiz-adv-x="1699" 
d="M1014 1311l119 -482q13 -50 22.5 -107t19.5 -126.5t17 -108.5q6 36 17 108t21 128t23 106l131 523q12 49 48 76.5t84 27.5q60 0 109.5 -32.5t49.5 -92.5q0 -14 -4 -26l-307 -1194q-17 -57 -58 -93t-110 -36q-68 0 -110.5 37t-59.5 94l-121 501q-12 47 -21 101.5
t-18.5 123t-15.5 103.5q-6 -35 -15.5 -103.5t-18.5 -123t-21 -101.5l-123 -505q-39 -127 -168 -127q-59 0 -107 39.5t-63 89.5l-301 1183l-8 39q0 54 47.5 88.5t105.5 34.5q48 0 85 -25t48 -73l135 -529q13 -49 23 -106t20 -126.5t17 -107.5q6 32 23.5 154.5t33.5 185.5
l121 482q21 81 54 116t112 35q73 0 109 -37.5t55 -113.5zM858 1864l166 -162q16 -14 16 -51q0 -44 -30.5 -72.5t-73.5 -28.5q-21 0 -38 6.5t-25 12.5t-29 24l-168 168q-19 27 -19 58q0 41 32 70.5t69 29.5q31 0 46.5 -8.5t37.5 -30.5z" />
    <glyph glyph-name="wgrave" unicode="&#x1e81;" horiz-adv-x="1423" 
d="M838 88l-86 328q-10 37 -16.5 77t-13 94.5t-9.5 78.5q-3 -20 -10 -77.5t-13.5 -96.5t-15.5 -76l-84 -328q-15 -54 -53 -78t-103 -24q-123 0 -162 123l-237 786q-4 10 -4 27q0 48 41 85t100 37q46 0 83.5 -24.5t49.5 -67.5l88 -338q12 -45 19 -97t12 -115.5t10 -98.5
q5 35 12 98.5t15 115.5t20 97l82 326q13 46 53 75t99 29q58 0 97 -29t50 -75l80 -326q11 -45 19.5 -97t16.5 -117.5t13 -98.5q5 36 10 99.5t12 116t19 97.5l88 338q10 38 49.5 65t83.5 27q57 0 98.5 -35.5t41.5 -88.5l-1 -9q-1 -9 -1 -12l-238 -793q-20 -63 -55.5 -91.5
t-106.5 -28.5q-55 0 -97.5 27t-55.5 75zM721 1454l166 -162q16 -14 16 -51q0 -44 -30 -72t-74 -28q-21 0 -38 6.5t-25 12.5t-29 24l-168 168q-19 27 -19 57q0 41 32 70.5t69 29.5q31 0 46.5 -8.5t37.5 -30.5z" />
    <glyph glyph-name="Wacute" unicode="&#x1e82;" horiz-adv-x="1699" 
d="M1014 1311l119 -482q13 -50 22.5 -107t19.5 -126.5t17 -108.5q6 36 17 108t21 128t23 106l131 523q12 49 48 76.5t84 27.5q60 0 109.5 -32.5t49.5 -92.5q0 -14 -4 -26l-307 -1194q-17 -57 -58 -93t-110 -36q-68 0 -110.5 37t-59.5 94l-121 501q-12 47 -21 101.5
t-18.5 123t-15.5 103.5q-6 -35 -15.5 -103.5t-18.5 -123t-21 -101.5l-123 -505q-39 -127 -168 -127q-59 0 -107 39.5t-63 89.5l-301 1183l-8 39q0 54 47.5 88.5t105.5 34.5q48 0 85 -25t48 -73l135 -529q13 -49 23 -106t20 -126.5t17 -107.5q6 32 23.5 154.5t33.5 185.5
l121 482q21 81 54 116t112 35q73 0 109 -37.5t55 -113.5zM674 1702l165 162l17 16q15 15 23.5 21.5t23.5 12t37 5.5q37 0 68.5 -29.5t31.5 -70.5q0 -31 -18 -57l-168 -168q-21 -18 -29 -24t-25 -12.5t-38 -6.5q-44 0 -74.5 28.5t-30.5 71.5q0 28 17 51z" />
    <glyph glyph-name="wacute" unicode="&#x1e83;" horiz-adv-x="1423" 
d="M838 88l-86 328q-10 37 -16.5 77t-13 94.5t-9.5 78.5q-3 -20 -10 -77.5t-13.5 -96.5t-15.5 -76l-84 -328q-15 -54 -53 -78t-103 -24q-123 0 -162 123l-237 786q-4 10 -4 27q0 48 41 85t100 37q46 0 83.5 -24.5t49.5 -67.5l88 -338q12 -45 19 -97t12 -115.5t10 -98.5
q5 35 12 98.5t15 115.5t20 97l82 326q13 46 53 75t99 29q58 0 97 -29t50 -75l80 -326q11 -45 19.5 -97t16.5 -117.5t13 -98.5q5 36 10 99.5t12 116t19 97.5l88 338q10 38 49.5 65t83.5 27q57 0 98.5 -35.5t41.5 -88.5l-1 -9q-1 -9 -1 -12l-238 -793q-20 -63 -55.5 -91.5
t-106.5 -28.5q-55 0 -97.5 27t-55.5 75zM537 1292l165 162l17 16q15 15 23.5 21.5t23.5 12t37 5.5q37 0 68.5 -29.5t31.5 -70.5q0 -31 -18 -57l-168 -168q-21 -18 -29 -24t-25 -12.5t-38 -6.5q-44 0 -74.5 28.5t-30.5 71.5q0 28 17 51z" />
    <glyph glyph-name="Wdieresis" unicode="&#x1e84;" horiz-adv-x="1699" 
d="M1014 1311l119 -482q13 -50 22.5 -107t19.5 -126.5t17 -108.5q6 36 17 108t21 128t23 106l131 523q12 49 48 76.5t84 27.5q60 0 109.5 -32.5t49.5 -92.5q0 -14 -4 -26l-307 -1194q-17 -57 -58 -93t-110 -36q-68 0 -110.5 37t-59.5 94l-121 501q-12 47 -21 101.5
t-18.5 123t-15.5 103.5q-6 -35 -15.5 -103.5t-18.5 -123t-21 -101.5l-123 -505q-39 -127 -168 -127q-59 0 -107 39.5t-63 89.5l-301 1183l-8 39q0 54 47.5 88.5t105.5 34.5q48 0 85 -25t48 -73l135 -529q13 -49 23 -106t20 -126.5t17 -107.5q6 32 23.5 154.5t33.5 185.5
l121 482q21 81 54 116t112 35q73 0 109 -37.5t55 -113.5zM1166 1700q0 -54 -38.5 -91.5t-94.5 -37.5q-55 0 -95.5 38t-40.5 91q0 51 40.5 88t95.5 37q56 0 94.5 -36.5t38.5 -88.5zM799 1700q0 -54 -39 -91.5t-96 -37.5q-55 0 -93 38t-38 91q0 51 38 88t93 37q57 0 96 -36
t39 -89z" />
    <glyph glyph-name="wdieresis" unicode="&#x1e85;" horiz-adv-x="1423" 
d="M838 88l-86 328q-10 37 -16.5 77t-13 94.5t-9.5 78.5q-3 -20 -10 -77.5t-13.5 -96.5t-15.5 -76l-84 -328q-15 -54 -53 -78t-103 -24q-123 0 -162 123l-237 786q-4 10 -4 27q0 48 41 85t100 37q46 0 83.5 -24.5t49.5 -67.5l88 -338q12 -45 19 -97t12 -115.5t10 -98.5
q5 35 12 98.5t15 115.5t20 97l82 326q13 46 53 75t99 29q58 0 97 -29t50 -75l80 -326q11 -45 19.5 -97t16.5 -117.5t13 -98.5q5 36 10 99.5t12 116t19 97.5l88 338q10 38 49.5 65t83.5 27q57 0 98.5 -35.5t41.5 -88.5l-1 -9q-1 -9 -1 -12l-238 -793q-20 -63 -55.5 -91.5
t-106.5 -28.5q-55 0 -97.5 27t-55.5 75zM1028 1290q0 -54 -38.5 -91.5t-94.5 -37.5q-55 0 -95.5 38t-40.5 91q0 51 40.5 88t95.5 37q56 0 94.5 -36.5t38.5 -88.5zM661 1290q0 -54 -39 -91.5t-96 -37.5q-55 0 -93 38t-38 91q0 51 38 88t93 37q57 0 96 -36t39 -89z" />
    <glyph glyph-name="Ygrave" unicode="&#x1ef2;" horiz-adv-x="1085" 
d="M543 -18q-61 0 -103.5 39.5t-42.5 95.5v448l-360 705q-12 28 -12 59q0 53 44.5 93t100.5 40q35 0 67 -15.5t50 -45.5l256 -508l254 508q35 61 118 61q56 0 101 -40t45 -93q0 -17 -14 -59l-359 -705v-448q0 -55 -42 -95t-103 -40zM489 1864l166 -162q16 -14 16 -51
q0 -44 -30 -72t-74 -28q-21 0 -38 6.5t-25 12.5t-29 24l-168 168q-19 27 -19 57q0 41 32 70.5t69 29.5q31 0 46.5 -8.5t37.5 -30.5z" />
    <glyph glyph-name="ygrave" unicode="&#x1ef3;" horiz-adv-x="970" 
d="M555 614l111 344q13 42 50.5 64t82.5 22q56 0 98.5 -35t42.5 -89q0 -22 -6 -37l-250 -729q-79 -232 -123 -319q-81 -160 -199 -215q-77 -36 -180 -36q-62 0 -102.5 34.5t-40.5 88.5q0 48 37 84t98 39q66 3 106 54.5t78 174.5l-315 813q-10 25 -10 52q0 52 40.5 86
t100.5 34q43 0 77.5 -22t51.5 -64l129 -344q17 -43 38 -127.5t28 -107.5q5 23 16 73.5t20.5 89.5t20.5 72zM493 1454l166 -162q16 -14 16 -51q0 -44 -30 -72t-74 -28q-21 0 -38 6.5t-25 12.5t-29 24l-168 168q-19 27 -19 57q0 41 32 70.5t69 29.5q31 0 46.5 -8.5t37.5 -30.5
z" />
    <glyph glyph-name="endash" unicode="&#x2013;" horiz-adv-x="964" 
d="M905 598q0 -52 -40.5 -88.5t-96.5 -36.5h-573q-58 0 -98 36t-40 89q0 52 40 89.5t98 37.5h573q58 0 97.5 -37.5t39.5 -89.5z" />
    <glyph glyph-name="emdash" unicode="&#x2014;" horiz-adv-x="1167" 
d="M1110 598q0 -52 -40.5 -88.5t-96.5 -36.5h-778q-58 0 -98 36t-40 89q0 52 40 89.5t98 37.5h778q58 0 97.5 -37.5t39.5 -89.5z" />
    <glyph glyph-name="quoteleft" unicode="&#x2018;" horiz-adv-x="550" 
d="M381 1393q-3 -33 -31.5 -85t-36.5 -98q59 -12 96 -55t37 -98q0 -65 -50 -111.5t-122 -46.5q-70 0 -120 46.5t-50 119.5q0 65 26 162.5t73 177.5t94 80q21 0 39.5 -5.5t34 -27.5t10.5 -59z" />
    <glyph glyph-name="quoteright" unicode="&#x2019;" 
d="M170 991q3 33 31.5 85t36.5 98q-59 12 -96.5 55t-37.5 98q0 65 50 111.5t122 46.5q70 0 120 -46.5t50 -119.5q0 -65 -26 -162.5t-72.5 -177.5t-93.5 -80q-21 0 -39.5 5.5t-34 27.5t-10.5 59z" />
    <glyph glyph-name="quotesinglbase" unicode="&#x201a;" 
d="M170 -195q3 33 31.5 85t36.5 98q-59 12 -96.5 55t-37.5 98q0 65 50 111.5t122 46.5q70 0 120 -46.5t50 -119.5q0 -65 -26 -162.5t-72.5 -177.5t-93.5 -80q-21 0 -39.5 5.5t-34 27.5t-10.5 59z" />
    <glyph glyph-name="quotedblleft" unicode="&#x201c;" horiz-adv-x="962" 
d="M381 1393q-3 -33 -31.5 -85t-36.5 -98q59 -12 96 -55t37 -98q0 -65 -50 -111.5t-122 -46.5q-70 0 -120 46.5t-50 119.5q0 65 26 162.5t73 177.5t94 80q21 0 39.5 -5.5t34 -27.5t10.5 -59zM793 1393q-3 -33 -31.5 -85t-36.5 -98q59 -12 96 -55t37 -98q0 -65 -50 -111.5
t-122 -46.5q-70 0 -120 46.5t-50 119.5q0 65 26 162.5t73 177.5t94 80q21 0 39.5 -5.5t34 -27.5t10.5 -59z" />
    <glyph glyph-name="quotedblright" unicode="&#x201d;" horiz-adv-x="962" 
d="M582 991q3 33 31 85t36 98q-59 12 -96 55t-37 98q0 65 50 111.5t122 46.5q70 0 120 -46.5t50 -119.5q0 -65 -26 -162.5t-72.5 -177.5t-93.5 -80q-21 0 -39.5 5.5t-34 27.5t-10.5 59zM170 991q3 33 31.5 85t36.5 98q-59 12 -96.5 55t-37.5 98q0 65 50 111.5t122 46.5
q70 0 120 -46.5t50 -119.5q0 -65 -26 -162.5t-72.5 -177.5t-93.5 -80q-21 0 -39.5 5.5t-34 27.5t-10.5 59z" />
    <glyph glyph-name="quotedblbase" unicode="&#x201e;" horiz-adv-x="962" 
d="M582 -197q3 33 31 85t36 98q-59 12 -96 55t-37 98q0 65 50 111.5t122 46.5q70 0 120 -46.5t50 -119.5q0 -65 -26 -162.5t-72.5 -177.5t-93.5 -80q-21 0 -39.5 5.5t-34 27.5t-10.5 59zM170 -197q3 33 31.5 85t36.5 98q-59 12 -96.5 55t-37.5 98q0 65 50 111.5t122 46.5
q70 0 120 -46.5t50 -119.5q0 -65 -26 -162.5t-72.5 -177.5t-93.5 -80q-21 0 -39.5 5.5t-34 27.5t-10.5 59z" />
    <glyph glyph-name="dagger" unicode="&#x2020;" horiz-adv-x="966" 
d="M1006 950q0 -52 -40.5 -87.5t-95.5 -35.5h-245v-888q0 -28 -4 -52q-8 -44 -48.5 -75t-91.5 -31q-47 0 -87 33.5t-52 79.5q-2 14 -2 45v888h-246q-18 0 -39 7l2 -3q-43 11 -70.5 44t-27.5 75q0 54 39 89.5t96 35.5h246v250q0 35 2 49q11 45 50.5 76t88.5 31q51 0 91 -31.5
t49 -77.5q4 -24 4 -47v-250h245q25 0 41 -8q40 -11 67.5 -43.5t27.5 -73.5z" />
    <glyph glyph-name="daggerdbl" unicode="&#x2021;" horiz-adv-x="1257" 
d="M1145 133q0 -53 -40.5 -89t-96.5 -36h-244v-266q0 -5 -1 -13t-2.5 -18t-2.5 -16q-11 -43 -50.5 -74t-86.5 -31q-51 0 -91.5 31.5t-48.5 75.5q-4 20 -4 45v266h-244q-59 0 -98 35.5t-39 89.5t39 88.5t98 34.5h244v571h-244q-58 0 -97.5 35t-39.5 88t39.5 90t97.5 37h244
v273q0 12 4 28q11 41 51.5 72t88.5 31q59 0 101 -38.5t42 -92.5v-273h244q56 0 96.5 -37.5t40.5 -89.5t-40.5 -87.5t-96.5 -35.5h-244v-571h244q57 0 97 -35t40 -88z" />
    <glyph glyph-name="bullet" unicode="&#x2022;" horiz-adv-x="620" 
d="M504 561q0 -79 -57.5 -136.5t-137.5 -57.5q-78 0 -135 57.5t-57 136.5q0 78 57 135.5t135 57.5q79 0 137 -57.5t58 -135.5z" />
    </font>
</defs>
</svg>
