<?xml version="1.0" standalone="no"?>
<!DOCTYPE svg PUBLIC "-//W3C//DTD SVG 1.1//EN" "http://www.w3.org/Graphics/SVG/1.1/DTD/svg11.dtd" >
<svg xmlns="http://www.w3.org/2000/svg" xmlns:xlink="http://www.w3.org/1999/xlink" version="1.1">
<metadata>
Created by FontForge 20170731 at Sat Aug 10 20:06:26 2019
 By Aleksey,,,
Moh'd M. Khatib.2019
</metadata>
<defs>
<font id="Sahar-SemiBold" horiz-adv-x="551" >
  <font-face 
    font-family="Sahar SemiBold"
    font-weight="600"
    font-stretch="normal"
    units-per-em="1000"
    panose-1="0 0 0 0 0 0 0 0 0 0"
    ascent="800"
    descent="-200"
    x-height="516"
    cap-height="710"
    bbox="-224 -257 1153 972"
    underline-thickness="50"
    underline-position="-250"
    unicode-range="U+0020-FB02"
  />
<missing-glyph horiz-adv-x="686" 
d="M81 710v-710h529v710h-529zM514 620v-530h-337v530h337z" />
    <glyph glyph-name="fi" unicode="fi" horiz-adv-x="580" 
d="M518 0v516h-319v19q0 67 29 94.5t100 27.5h190v83h-190q-115 0 -167 -48.5t-52 -156.5v-19h-99v-83h99v-433h90v433h229v-433h90z" />
    <glyph glyph-name="fl" unicode="fl" horiz-adv-x="553" 
d="M328 740q-115 0 -167 -49t-52 -155v-20h-99v-83h99v-433h90v433h122v83h-122v19q0 68 29 95t100 27h69v-657h90v740h-159z" />
    <glyph glyph-name=".notdef" horiz-adv-x="686" 
d="M81 710v-710h529v710h-529zM514 620v-530h-337v530h337z" />
    <glyph glyph-name=".null" horiz-adv-x="371" 
 />
    <glyph glyph-name="glyph2" horiz-adv-x="333" 
 />
    <glyph glyph-name="space" unicode=" " horiz-adv-x="228" 
 />
    <glyph glyph-name="exclam" unicode="!" horiz-adv-x="222" 
d="M65 740l11 -556h71l12 556h-94zM57 48q0 -23 15.5 -39t38.5 -16t39 16t16 39t-16 39t-39 16t-38.5 -16t-15.5 -39z" />
    <glyph glyph-name="quotedbl" unicode="&#x22;" horiz-adv-x="319" 
d="M60 465h69l13 245h-82v-245zM183 710v-245h69l13 245h-82z" />
    <glyph glyph-name="numbersign" unicode="#" horiz-adv-x="694" 
d="M236 490h-118l-24 -82h117l-43 -145h-117l-25 -82h117l-54 -181h87l54 181h140l-54 -181h87l54 181h120l24 82h-119l43 145h119l24 82h-118l50 170h-87l-50 -170h-140l50 170h-87zM395 263h-140l43 145h140z" />
    <glyph glyph-name="dollar" unicode="$" horiz-adv-x="591" 
d="M453 210q0 -110 -160 -110q-66 0 -103 26.5t-59 80.5l-11 26l-90 -33l10 -26q57 -146 209 -161v-82h90v83q103 10 157 61.5t54 136.5q-3 60 -22.5 95.5t-52 55.5t-75 28.5t-92.5 12.5q-41 4 -72.5 10.5t-57.5 22.5q-13 9 -22.5 25.5t-9.5 39.5q0 55 34.5 81t109.5 26
q62 0 96.5 -23.5t60.5 -74.5l13 -24l89 39l-13 26q-16 34 -35 59t-42.5 43t-52.5 29t-67 15v81h-90v-81q-100 -9 -150.5 -60t-50.5 -136q0 -57 20.5 -92t54.5 -55t77.5 -29t89.5 -14q26 -2 54.5 -6t52.5 -14.5t40 -29.5t16 -52z" />
    <glyph glyph-name="percent" unicode="%" horiz-adv-x="816" 
d="M457 131q0 -69 42 -108t120 -39t120 39t42 108v72q0 69 -42 108.5t-120 39.5t-120 -39.5t-42 -108.5v-72zM358 578q0 69 -42 108.5t-120 39.5t-120 -39.5t-42 -108.5v-73q0 -69 42 -107.5t120 -38.5t120 38.5t42 107.5v73zM96 0h99l521 710h-97zM109 574q0 80 87 80
q42 0 64 -21t22 -59v-64q0 -38 -22 -59t-64 -21t-64.5 21t-22.5 59v64zM533 199q0 38 22 59t64 21q87 0 87 -80v-63q0 -80 -87 -80q-42 0 -64 21t-22 59v63z" />
    <glyph glyph-name="ampersand" unicode="&#x26;" horiz-adv-x="669" 
d="M326 369q78 35 112.5 77t34.5 108q0 38 -14.5 69.5t-39.5 54t-58 35t-69 12.5q-43 0 -77.5 -14t-59 -38t-37.5 -56.5t-13 -68.5q0 -77 78 -160q-67 -33 -105 -80t-38 -119q0 -45 15.5 -82.5t42.5 -64.5t64.5 -42t82.5 -15q36 0 66 8t57 22t51.5 34t50.5 44l94 -93h112
l-148 149l83 82l-58 60l-83 -80l-154 153zM412 156q-25 -24 -46 -40t-40 -26.5t-37 -15t-39 -4.5q-25 0 -47 9t-38 24.5t-25 37t-9 46.5q0 48 26.5 81t83.5 58zM389 553q0 -21 -5.5 -37t-17.5 -28.5t-31 -24t-46 -23.5l-30 -15q-36 36 -52.5 62.5t-16.5 59.5q0 42 28 70.5
t74 28.5q21 0 38.5 -7.5t30.5 -20t20.5 -29.5t7.5 -36z" />
    <glyph glyph-name="quotesingle" unicode="'" horiz-adv-x="196" 
d="M142 710h-82v-245h69z" />
    <glyph glyph-name="parenleft" unicode="(" horiz-adv-x="270" 
d="M198 848q-71 -33 -106 -89t-35 -149v-510q0 -93 35 -149t106 -89l21 -10l38 79l-23 11q-45 22 -67 56.5t-22 94.5v524q0 60 22 94.5t67 56.5l23 11l-38 79z" />
    <glyph glyph-name="parenright" unicode=")" horiz-adv-x="270" 
d="M72 -138q71 33 106 89t35 149v510q0 93 -35 149t-106 89l-21 10l-38 -79l23 -11q45 -22 67 -56.5t22 -94.5v-524q0 -60 -22 -94.5t-67 -56.5l-23 -11l38 -79z" />
    <glyph glyph-name="asterisk" unicode="*" horiz-adv-x="372" 
d="M66 606l-19 -54l111 -24l-76 -85l46 -35l58 98l57 -97l46 33l-74 86l111 23l-18 56l-104 -46l10 112h-55l10 -112z" />
    <glyph glyph-name="plus" unicode="+" horiz-adv-x="556" 
d="M514 369h-194v194h-84v-194h-194v-84h194v-194h84v194h194v84z" />
    <glyph glyph-name="comma" unicode="," horiz-adv-x="199" 
d="M81 -122l77 222h-97l-38 -222h58z" />
    <glyph glyph-name="hyphen" unicode="-" horiz-adv-x="417" 
d="M358 222v86h-298v-86h298z" />
    <glyph glyph-name="period" unicode="." horiz-adv-x="205" 
d="M156 50q0 23 -15.5 39t-38.5 16t-39 -16t-16 -39t16 -39t39 -16t38.5 16t15.5 39z" />
    <glyph glyph-name="slash" unicode="/" horiz-adv-x="422" 
d="M24 -60h91l286 771h-91z" />
    <glyph glyph-name="zero" unicode="0" horiz-adv-x="629" 
d="M315 725q-124 0 -192 -63t-68 -174v-266q0 -111 68 -174t192 -63q57 0 104.5 15t82 44.5t53.5 74t19 103.5v266q0 59 -19 103.5t-53.5 74t-82 44.5t-104.5 15zM477 222q0 -69 -42 -108t-120 -39t-120.5 39t-42.5 108v266q0 70 42.5 108.5t120.5 38.5t120 -38.5t42 -108.5
v-266z" />
    <glyph glyph-name="one" unicode="1" horiz-adv-x="442" 
d="M279 710l-267 -150l46 -80l205 113v-593h96v710h-80z" />
    <glyph glyph-name="two" unicode="2" horiz-adv-x="594" 
d="M446 502q-2 -74 -61 -119q-32 -24 -134 -63q-40 -16 -77 -33.5t-65 -42.5t-44.5 -59.5t-16.5 -84.5v-100h490v90h-389v29q3 22 10.5 37.5t19 26.5t27.5 19t35 16q4 2 13.5 5.5t23.5 8.5q38 15 67 27t52.5 24.5t43 25.5t38.5 29q38 32 53 71.5t15 96.5q0 50 -18.5 90.5
t-50.5 69t-75 44t-91 15.5q-191 0 -260 -164l-10 -23l91 -34l11 25q48 106 165 106q30 0 55 -10t43.5 -28t28.5 -42.5t10 -52.5z" />
    <glyph glyph-name="three" unicode="3" horiz-adv-x="606" 
d="M560 199q0 127 -107 171q84 41 84 154q0 96 -59 148.5t-168 52.5q-108 0 -168.5 -41t-89.5 -126l-4 -14q-2 -6 -5 -13l91 -33l9 25q10 30 23 51t32.5 34.5t46 20t63.5 6.5q133 0 133 -120q0 -49 -30.5 -79.5t-85.5 -30.5h-139v-87h153q60 0 90 -30.5t30 -87.5
q0 -125 -149 -125q-39 0 -67 6.5t-48.5 20.5t-34 35.5t-23.5 51.5l-9 26l-91 -33l8 -25q29 -86 91.5 -129t173.5 -43q124 0 187 57.5t63 156.5z" />
    <glyph glyph-name="four" unicode="4" horiz-adv-x="620" 
d="M485 180h108v86h-108v449h-91l-370 -460v-75h371v-180h90v180zM395 266h-258l258 318v-318z" />
    <glyph glyph-name="five" unicode="5" horiz-adv-x="590" 
d="M122 202l-91 -31l9 -26q57 -160 265 -160q52 0 97 16t78 46t51.5 72.5t18.5 96.5q0 48 -15.5 88.5t-45.5 70t-74 46t-101 16.5h-145l18 183h336v90h-423l-37 -363h246q66 0 103 -35.5t37 -95.5q0 -64 -39.5 -102.5t-105.5 -38.5q-136 0 -173 103z" />
    <glyph glyph-name="six" unicode="6" horiz-adv-x="627" 
d="M327 430q-93 0 -176 -26v65q0 82 42.5 124t124.5 42q121 0 162 -98l10 -24l89 32l-4 12q-2 5 -3 8.5t-2 3.5q-58 156 -252 156q-129 0 -196.5 -66.5t-67.5 -190.5v-226q0 -121 67.5 -189t196.5 -68q124 0 193.5 59t69.5 164q0 222 -254 222zM151 310q56 30 170 30
q87 0 125 -32.5t38 -99.5q0 -64 -42.5 -98.5t-123.5 -34.5q-82 0 -124.5 42.5t-42.5 123.5v69z" />
    <glyph glyph-name="seven" unicode="7" horiz-adv-x="528" 
d="M25 710v-90h378l-279 -620h106l284 638v72h-489z" />
    <glyph glyph-name="eight" unicode="8" horiz-adv-x="621" 
d="M576 187q0 72 -38 113.5t-107 68.5q123 56 123 170q0 91 -61.5 138.5t-182.5 47.5q-115 0 -179 -50t-64 -143q0 -66 32 -106.5t90 -68.5q-144 -58 -144 -184q0 -188 265 -188q137 0 201.5 54t64.5 148zM365 301q23 -6 43 -15.5t35 -23.5t23.5 -32.5t8.5 -44.5
q0 -57 -38.5 -86.5t-126.5 -29.5q-167 0 -167 113q0 105 132 142l12 -3t20 -4q11 -3 19 -5l12 -3q10 -4 27 -8zM311 406q-26 6 -52 14.5t-47 22.5t-34.5 35t-13.5 53q0 54 38 82t108 28q72 0 111 -28t39 -82q0 -28 -9.5 -49.5t-25 -37t-37 -27t-45.5 -19.5z" />
    <glyph glyph-name="nine" unicode="9" horiz-adv-x="627" 
d="M476 241q0 -82 -42.5 -124t-124.5 -42q-121 0 -162 98l-10 24l-90 -33l9 -23q62 -156 253 -156q129 0 196 66.5t67 190.5v226q0 121 -67 189t-196 68q-124 0 -193.5 -59t-69.5 -164q0 -222 254 -222q93 0 176 26v-65zM476 400q-55 -30 -170 -30q-87 0 -125.5 32.5
t-38.5 99.5q0 64 43 98.5t124 34.5t124 -42.5t43 -123.5v-69z" />
    <glyph glyph-name="colon" unicode=":" horiz-adv-x="227" 
d="M60 437q0 -23 15.5 -39t38.5 -16t39 16t16 39t-16 38.5t-39 15.5t-38.5 -15.5t-15.5 -38.5zM169 49q0 23 -16 38.5t-39 15.5t-38.5 -15.5t-15.5 -38.5t15.5 -39t38.5 -16t39 16t16 39z" />
    <glyph glyph-name="semicolon" unicode=";" horiz-adv-x="248" 
d="M182 100h-97l-38 -222h58zM133 491q-23 0 -38.5 -15.5t-15.5 -38.5t15.5 -39t38.5 -16t39 16t16 39t-16 38.5t-39 15.5z" />
    <glyph glyph-name="less" unicode="&#x3c;" horiz-adv-x="490" 
d="M141 327l291 150v100l-400 -217v-67l400 -218v103z" />
    <glyph glyph-name="equal" unicode="=" horiz-adv-x="593" 
d="M533 382v87h-472v-87h472zM61 271v-86h472v86h-472z" />
    <glyph glyph-name="greater" unicode="&#x3e;" horiz-adv-x="490" 
d="M58 575v-100l291 -150l-291 -149v-103l400 218v67z" />
    <glyph glyph-name="question" unicode="?" horiz-adv-x="563" 
d="M297 194q0 38 20 62.5t57 48.5q2 2 25 15q8 5 19.5 12.5t23 16t21 17t14.5 15.5q3 4 8.5 11t11.5 15.5t11.5 18t7.5 17.5q5 17 9.5 40.5t4.5 49.5q0 45 -17 82.5t-48.5 65t-76 43t-100.5 15.5q-193 0 -256 -165l-9 -24l85 -30l10 24q23 54 62 82t106 28q72 0 110.5 -35
t38.5 -90q0 -32 -9 -55.5t-24.5 -42t-36.5 -33.5t-45 -31q-25 -16 -44.5 -33t-32.5 -37t-20 -45t-7 -58v-25h81v25zM203 49q0 -23 15.5 -39t38.5 -16t39 16t16 39t-16 38.5t-39 15.5t-38.5 -15.5t-15.5 -38.5z" />
    <glyph glyph-name="at" unicode="@" horiz-adv-x="901" 
d="M602 83q15 -22 31 -31t47 -9q36 0 67.5 14.5t55 41.5t36.5 66.5t13 90.5v73q0 91 -26.5 164.5t-78 125t-127 79t-172.5 27.5q-93 0 -167.5 -26.5t-126.5 -77.5t-80 -124.5t-28 -167.5v-73q0 -92 26.5 -164t78 -122t126.5 -76t171 -26q109 0 215 26l15 3v63l-18 -4
q-66 -13 -119 -19t-93 -6q-161 0 -246 83t-85 240v76q0 78 22 139.5t64.5 104t104 65t140.5 22.5q81 0 143 -23t104 -65.5t64 -104t22 -138.5v-76q0 -75 -29 -110t-71 -35q-45 0 -45 41v340l-34 13q-76 30 -181 30q-88 0 -131 -43t-43 -124v-149q0 -81 43 -123.5t131 -42.5
q91 0 181 32zM560 442v-298q-58 -24 -129 -24q-108 0 -108 99v145q0 99 108 99q74 0 116 -16z" />
    <glyph glyph-name="A" unicode="A" horiz-adv-x="649" 
d="M280 712l-279 -712h103l69 186h298l70 -186h106l-278 712h-89zM203 265l120 318l119 -318h-239z" />
    <glyph glyph-name="B" unicode="B" horiz-adv-x="647" 
d="M605 193q0 141 -112 174v3q86 42 86 156q0 90 -52.5 137t-146.5 47h-306v-710h315q99 0 157.5 50t58.5 143zM171 317h215q57 0 86.5 -29.5t29.5 -84.5q0 -113 -116 -113h-215v227zM171 620h198q111 0 111 -108q0 -107 -111 -107h-198v215z" />
    <glyph glyph-name="C" unicode="C" horiz-adv-x="638" 
d="M333 725q-135 0 -207.5 -67.5t-72.5 -188.5v-228q0 -121 72.5 -188.5t207.5 -67.5q215 0 270 172l8 25l-91 33l-9 -26q-19 -58 -61 -86t-117 -28q-88 0 -135.5 43.5t-47.5 121.5v230q0 79 46.5 122t136.5 43q75 0 116.5 -27.5t60.5 -84.5l8 -25l92 32l-9 28
q-57 167 -268 167z" />
    <glyph glyph-name="D" unicode="D" horiz-adv-x="659" 
d="M608 446q0 124 -75.5 194t-214.5 70h-244v-710h244q139 0 214.5 70t75.5 194v182zM171 90v530h147q94 0 143.5 -44.5t49.5 -128.5v-184q0 -84 -49.5 -128.5t-143.5 -44.5h-147z" />
    <glyph glyph-name="E" unicode="E" horiz-adv-x="576" 
d="M528 710h-454v-710h466v90h-369v225h311v90h-311v215h357v90z" />
    <glyph glyph-name="F" unicode="F" horiz-adv-x="559" 
d="M171 620h357v90h-454v-710h97v305h308v90h-308v225z" />
    <glyph glyph-name="G" unicode="G" horiz-adv-x="658" 
d="M517 223q0 -67 -48 -107.5t-136 -40.5t-135.5 43.5t-47.5 122.5v229q0 79 46.5 122t136.5 43q75 0 116.5 -27.5t60.5 -84.5l8 -25l92 32l-8 25q-56 170 -269 170q-135 0 -207.5 -67.5t-72.5 -188.5v-228q0 -121 72.5 -188.5t207.5 -67.5q66 0 118 17t88 48t55 75t19 98
v155h-295v-90h199v-65z" />
    <glyph glyph-name="H" unicode="H" horiz-adv-x="683" 
d="M609 710h-96v-305h-342v305h-97v-710h97v315h342v-315h96v710z" />
    <glyph glyph-name="I" unicode="I" horiz-adv-x="245" 
d="M171 0v710h-97v-710h97z" />
    <glyph glyph-name="J" unicode="J" horiz-adv-x="574" 
d="M408 227q0 -73 -38 -112.5t-113 -39.5q-62 0 -96 30t-51 90l-7 27l-92 -33l8 -29q49 -175 238 -175q121 0 184 64t63 179v482h-96v-483z" />
    <glyph glyph-name="K" unicode="K" horiz-adv-x="617" 
d="M499 0h113l-150 289q-42 75 -106 96l250 325h-117l-230 -306h-88v306h-97v-710h97v316h78q27 0 47 -4t35 -13t27 -24t24 -38z" />
    <glyph glyph-name="L" unicode="L" horiz-adv-x="525" 
d="M74 0h438v90h-341v620h-97v-710z" />
    <glyph glyph-name="M" unicode="M" horiz-adv-x="805" 
d="M161 710h-87v-710h90v524l205 -362h65l205 364v-526h92v710h-88l-241 -429z" />
    <glyph glyph-name="N" unicode="N" horiz-adv-x="693" 
d="M526 180l-365 530h-87v-710h94v529l363 -529h88v710h-93v-530z" />
    <glyph glyph-name="O" unicode="O" horiz-adv-x="666" 
d="M333 725q-135 0 -207.5 -67.5t-72.5 -188.5v-228q0 -121 72.5 -188.5t207.5 -67.5t207.5 67.5t72.5 188.5v228q0 121 -72.5 188.5t-207.5 67.5zM333 75q-88 0 -135.5 42.5t-47.5 123.5v228q0 81 47.5 123.5t135.5 42.5t135.5 -42.5t47.5 -123.5v-228q0 -81 -47.5 -123.5
t-135.5 -42.5z" />
    <glyph glyph-name="P" unicode="P" horiz-adv-x="627" 
d="M74 710v-710h97v258h196q108 0 169 59.5t61 165.5q0 53 -16 95t-46 71.5t-72.5 45t-95.5 15.5h-293zM358 620q66 0 102 -36.5t36 -100.5t-36 -99.5t-102 -35.5h-187v272h187z" />
    <glyph glyph-name="Q" unicode="Q" horiz-adv-x="679" 
d="M333 725q-135 0 -207.5 -67.5t-72.5 -188.5v-228q0 -121 72.5 -188.5t207.5 -67.5q93 0 152 34l86 -101l70 58l-83 97q55 64 55 168v228q0 121 -72.5 188.5t-207.5 67.5zM333 75q-88 0 -135.5 42.5t-47.5 123.5v228q0 81 47.5 123.5t135.5 42.5t135.5 -42.5t47.5 -123.5
v-228q0 -81 -47.5 -123.5t-135.5 -42.5z" />
    <glyph glyph-name="R" unicode="R" horiz-adv-x="647" 
d="M512 0h113l-125 242q-23 41 -50 56q70 16 108.5 67t38.5 132q0 102 -57 157.5t-159 55.5h-307v-710h97v285h107q26 0 45.5 -3.5t34.5 -12.5t27.5 -24t24.5 -38zM372 620q60 0 92 -31.5t32 -91.5q0 -58 -32 -90t-92 -32h-201v245h201z" />
    <glyph glyph-name="S" unicode="S" horiz-adv-x="629" 
d="M493 200q0 -124 -180 -124q-131 0 -181 113l-11 25l-90 -34l9 -24q34 -87 98.5 -129t174.5 -42q134 0 205.5 57.5t71.5 159.5q-3 60 -23.5 97t-54.5 58.5t-78.5 31t-94.5 15.5q-36 5 -59 8t-51 12q-35 11 -58.5 32.5t-23.5 62.5q0 113 167 113q66 0 105.5 -24.5
t66.5 -76.5l12 -23l89 41q-3 7 -6 13q-1 2 -2 4.5t-2 4.5l-2 4q-38 77 -99 113.5t-162 36.5q-63 0 -112.5 -15t-83.5 -43t-52 -67t-18 -87q0 -62 23.5 -99t62 -58t86.5 -29.5t96 -14.5q27 -3 58 -7.5t57.5 -16t44 -32.5t17.5 -56z" />
    <glyph glyph-name="T" unicode="T" horiz-adv-x="554" 
d="M14 710v-90h215v-620h96v620h215v90h-526z" />
    <glyph glyph-name="U" unicode="U" horiz-adv-x="685" 
d="M520 242q0 -79 -44.5 -123t-132.5 -44t-132.5 44t-44.5 123v468h-96v-467q0 -121 69.5 -189.5t203.5 -68.5t204 68.5t70 189.5v467h-97v-468z" />
    <glyph glyph-name="V" unicode="V" horiz-adv-x="630" 
d="M318 132l-210 578h-105l267 -710h90l268 710h-103z" />
    <glyph glyph-name="W" unicode="W" horiz-adv-x="890" 
d="M689 0l185 710h-100l-129 -544l-147 536h-99l-147 -532l-130 540h-106l184 -710h96l149 545l147 -545h97z" />
    <glyph glyph-name="X" unicode="X" horiz-adv-x="627" 
d="M127 710h-119l246 -350l-255 -360h117l196 277l195 -277h121l-256 362l247 348h-117l-188 -265z" />
    <glyph glyph-name="Y" unicode="Y" horiz-adv-x="634" 
d="M518 710l-200 -326l-198 326h-122l271 -424v-286h96v284l271 426h-118z" />
    <glyph glyph-name="Z" unicode="Z" horiz-adv-x="576" 
d="M536 710h-498v-90h377l-382 -542v-78h511v90h-390l382 542v78z" />
    <glyph glyph-name="bracketleft" unicode="[" horiz-adv-x="286" 
d="M150 -65v841h117v80h-202v-1002h202v81h-117z" />
    <glyph glyph-name="backslash" unicode="\" horiz-adv-x="422" 
d="M113 711h-91l286 -771h91z" />
    <glyph glyph-name="bracketright" unicode="]" horiz-adv-x="286" 
d="M19 856v-80h117v-841h-117v-81h202v1002h-202z" />
    <glyph glyph-name="asciicircum" unicode="^" horiz-adv-x="590" 
d="M322 811h-57l-236 -290h103l161 202l162 -202h106z" />
    <glyph glyph-name="underscore" unicode="_" horiz-adv-x="501" 
d="M477 0h-452v-86h452v86z" />
    <glyph glyph-name="grave" unicode="`" horiz-adv-x="257" 
d="M57 745l-50 -62l216 -102l33 44z" />
    <glyph glyph-name="a" unicode="a" horiz-adv-x="516" 
d="M258 301q-60 0 -102.5 -8t-69.5 -27t-39 -48.5t-12 -73.5q0 -41 10.5 -71t36 -49.5t67.5 -29t105 -9.5q111 0 172 26l36 16v302q0 47 -11 84.5t-36 63.5t-64 40t-96 14q-149 0 -203 -105l-12 -23l76 -34l13 21q37 61 124 61q66 0 92.5 -30.5t26.5 -88.5v-38
q-30 4 -58.5 5.5t-55.5 1.5zM357 72q-34 -12 -111 -12q-70 0 -95.5 20.5t-25.5 63.5q0 45 27 64.5t96 19.5q22 0 53 -2t71 -6v-143z" />
    <glyph glyph-name="b" unicode="b" horiz-adv-x="539" 
d="M150 740h-89v-708l37 -16q72 -31 175 -31q220 0 220 208v140q0 96 -49.5 147t-152.5 51q-65 0 -141 -25v234zM278 449q125 0 125 -119v-134q0 -129 -136 -129q-61 0 -103 16l-14 5v335q70 26 128 26z" />
    <glyph glyph-name="c" unicode="c" horiz-adv-x="516" 
d="M265 64q-64 0 -97 31t-33 88v151q0 57 33 87.5t97 30.5q103 0 130 -84l8 -24l85 27l-8 26q-42 134 -211 134q-112 0 -168 -52.5t-56 -148.5v-143q0 -97 54.5 -149.5t163.5 -52.5q170 0 219 138l10 26l-88 26l-8 -24q-28 -87 -131 -87z" />
    <glyph glyph-name="d" unicode="d" horiz-adv-x="539" 
d="M478 31v709h-89v-231q-81 22 -140 22q-102 0 -152.5 -52t-50.5 -152v-141q0 -201 214 -201q99 0 179 31zM389 88l-14 -5q-45 -16 -107 -16q-132 0 -132 122v135q0 125 130 125q53 0 123 -22v-339z" />
    <glyph glyph-name="e" unicode="e" horiz-adv-x="534" 
d="M406 132q-42 -69 -139 -69q-66 0 -100 31t-34 89v48h363v93q0 93 -57.5 150t-168.5 57t-168.5 -55.5t-57.5 -158.5v-124q0 -97 55 -152.5t167 -55.5q157 0 215 103l15 27l-77 39zM133 300v29q0 60 35 93t102 33t102 -33t35 -93v-29h-274z" />
    <glyph glyph-name="f" unicode="f" horiz-adv-x="361" 
d="M199 534q0 35 6.5 58.5t21.5 38t40 20.5t61 6h24v83h-33q-111 -1 -160.5 -50.5t-49.5 -155.5v-18h-99v-83h99v-433h90v433h153v83h-153v18z" />
    <glyph glyph-name="g" unicode="g" horiz-adv-x="538" 
d="M478 483l-38 17q-66 31 -174 31q-220 0 -220 -207v-123q0 -198 202 -198q64 0 140 25v-57q0 -132 -127 -132q-84 0 -123 67l-13 23l-78 -43l14 -25q57 -102 202 -102q215 0 215 216v508zM388 107q-73 -22 -128 -22q-125 0 -125 118v118q0 128 137 128q56 0 102 -15l14 -4
v-323z" />
    <glyph glyph-name="h" unicode="h" horiz-adv-x="553" 
d="M406 0h89v333q0 198 -203 198q-95 0 -140 -22v231h-89v-740h89v426q48 23 128 23q126 0 126 -119v-330z" />
    <glyph glyph-name="i" unicode="i" horiz-adv-x="214" 
d="M62 516v-516h90v516h-90zM55 653q0 -22 15 -37t37 -15t37 15t15 37t-15 37t-37 15t-37 -15t-15 -37z" />
    <glyph glyph-name="j" unicode="j" horiz-adv-x="215" 
d="M63 -6q0 -70 -29 -105.5t-99 -35.5h-24v-83h24q114 0 165.5 56.5t51.5 165.5v524h-89v-522zM108 705q-22 0 -37 -15t-15 -37t15 -37t37 -15t37 15t15 37t-15 37t-37 15z" />
    <glyph glyph-name="k" unicode="k" horiz-adv-x="514" 
d="M152 305v435h-89v-740h89v222h84q35 0 55 -12t34 -41l80 -169h99l-102 206q-31 64 -80 82l182 228h-108l-163 -211h-81z" />
    <glyph glyph-name="l" unicode="l" horiz-adv-x="221" 
d="M155 0v740h-89v-740h89z" />
    <glyph glyph-name="m" unicode="m" horiz-adv-x="822" 
d="M459 337q0 54 -15 85q63 27 118 27q112 0 112 -115v-334h89v337q0 194 -189 194q-84 0 -178 -38q-47 38 -128 38q-92 0 -169 -33l-38 -16v-482h89v429l12 4q44 16 94 16q114 0 114 -115v-334h89v337z" />
    <glyph glyph-name="n" unicode="n" 
d="M403 0h90v333q0 198 -203 198q-110 0 -191 -34l-38 -16v-481h89v427l12 4q56 18 116 18q125 0 125 -119v-330z" />
    <glyph glyph-name="o" unicode="o" horiz-adv-x="541" 
d="M270 531q-106 0 -165 -50.5t-59 -141.5v-163q0 -90 59 -140.5t165 -50.5q108 0 166.5 50.5t58.5 140.5v163q0 91 -58.5 141.5t-166.5 50.5zM270 66q-63 0 -99 29t-36 81v164q0 52 36 81t99 29q64 0 100 -29t36 -81v-164q0 -52 -36 -81t-100 -29z" />
    <glyph glyph-name="p" unicode="p" horiz-adv-x="539" 
d="M280 -15q213 0 213 204v141q0 201 -209 201q-108 0 -184 -29l-39 -15v-707h89v232q78 -27 130 -27zM165 434q51 15 106 15q132 0 132 -122v-135q0 -125 -130 -125q-47 0 -123 26v337z" />
    <glyph glyph-name="q" unicode="q" horiz-adv-x="539" 
d="M389 -220h89v707l-39 15q-76 29 -184 29q-209 0 -209 -201v-141q0 -204 213 -204q52 0 130 27v-232zM266 67q-130 0 -130 125v135q0 122 132 122q55 0 106 -15l15 -4v-337q-76 -26 -123 -26z" />
    <glyph glyph-name="r" unicode="r" horiz-adv-x="346" 
d="M338 531h-56q-54 -1 -99.5 -9t-83.5 -22q-23 -10 -30.5 -21t-7.5 -35v-444h89v412q0 15 14 20q57 17 115 17h59v82z" />
    <glyph glyph-name="s" unicode="s" horiz-adv-x="500" 
d="M267 299q-36 3 -62 7.5t-42.5 13t-24 22.5t-7.5 36q0 72 114 72q54 0 83 -16.5t45 -48.5l10 -20l81 33l-12 25q-49 108 -209 108q-99 0 -150 -41.5t-51 -113.5q0 -48 17.5 -77t46 -45.5t65 -23t74.5 -10.5q36 -4 61 -9t41 -13.5t23.5 -22t7.5 -34.5q0 -76 -125 -76
q-106 0 -135 72l-9 23l-81 -28q3 -6 5 -12q4 -10 4 -12q47 -123 219 -123q103 0 156 42.5t53 117.5q0 41 -12.5 68t-37 44.5t-61.5 27t-87 14.5z" />
    <glyph glyph-name="t" unicode="t" horiz-adv-x="372" 
d="M203 636h-89v-120h-107v-83h107v-235q0 -62 11 -103t36.5 -65t67.5 -34t103 -10h25v84h-30q-36 0 -60 6t-38 20.5t-20 39.5t-6 64v233h154v83h-154v120z" />
    <glyph glyph-name="u" unicode="u" 
d="M386 84q-57 -17 -113 -17q-126 0 -126 119v330h-89v-333q0 -198 203 -198q101 0 191 34l38 14v483h-89v-427z" />
    <glyph glyph-name="v" unicode="v" horiz-adv-x="509" 
d="M255 129l-157 387h-94l214 -518h73l213 518h-94z" />
    <glyph glyph-name="w" unicode="w" horiz-adv-x="733" 
d="M562 -2l157 518h-91l-103 -371l-116 364h-82l-115 -367l-103 374h-94l155 -518h79l116 386l117 -386h80z" />
    <glyph glyph-name="x" unicode="x" horiz-adv-x="497" 
d="M113 516h-105l189 -253l-196 -263h103l144 194l145 -194h104l-197 264l187 252h-102l-136 -183z" />
    <glyph glyph-name="y" unicode="y" horiz-adv-x="553" 
d="M401 107q-67 -21 -128 -21q-126 0 -126 119v311h-89v-314q0 -198 203 -198q64 0 140 21v-54q0 -132 -128 -132q-85 0 -124 67l-13 23l-79 -43q4 -7 7 -12q4 -6 5 -9l2 -4q59 -102 203 -102q216 0 216 216v541h-89v-409z" />
    <glyph glyph-name="z" unicode="z" horiz-adv-x="463" 
d="M428 516h-393v-81h277l-282 -365v-70h402v81h-288l284 363v72z" />
    <glyph glyph-name="braceleft" unicode="{" horiz-adv-x="333" 
d="M316 775v81h-72q-72 0 -102.5 -31t-30.5 -100v-236q0 -91 -75 -91h-28v-91h28q75 0 75 -90v-234q0 -69 30.5 -99.5t103.5 -30.5h71v81h-69q-51 0 -51 54v241q0 99 -69 124q69 35 69 124v244q0 54 51 54h69z" />
    <glyph glyph-name="bar" unicode="|" horiz-adv-x="215" 
d="M150 -147v1003h-85v-1003h85z" />
    <glyph glyph-name="braceright" unicode="}" horiz-adv-x="333" 
d="M222 217q0 90 75 90h28v91h-28q-75 0 -75 91v236q0 69 -30.5 100t-102.5 31h-72v-81h69q51 0 51 -54v-244q0 -89 69 -124q-69 -25 -69 -124v-241q0 -54 -51 -54h-69v-81h71q73 0 103.5 30.5t30.5 99.5v234z" />
    <glyph glyph-name="asciitilde" unicode="~" horiz-adv-x="558" 
d="M370 265q24 0 43 5t35.5 13.5t31.5 21t31 27.5l-61 58l-18 -15q-35 -29 -73 -29q-28 0 -78 19t-92 19q-63 0 -119 -47l-23 -20l63 -58q4 4 8 7q8 8 9 8q35 29 73 29q28 0 78 -19t92 -19z" />
    <glyph glyph-name="exclamdown" unicode="&#xa1;" horiz-adv-x="213" 
d="M71 331l-11 -556h94l-12 556h-71zM107 412q23 0 38.5 16t15.5 39t-15.5 38.5t-38.5 15.5t-39 -15.5t-16 -38.5t16 -39t39 -16z" />
    <glyph glyph-name="cent" unicode="&#xa2;" horiz-adv-x="535" 
d="M318 -10q130 16 170 133l9 27l-86 24l-8 -23q-30 -87 -131 -87q-64 0 -97.5 31t-33.5 88v151q0 57 33.5 87.5t97.5 30.5q100 0 130 -84l8 -24l84 27l-8 26q-34 115 -168 130v83h-90v-83q-88 -10 -132 -61t-44 -136v-143q0 -87 44 -138t132 -61v-72h90v74z" />
    <glyph glyph-name="sterling" unicode="&#xa3;" horiz-adv-x="640" 
d="M232 521q0 51 32.5 82.5t93.5 31.5q54 0 87 -22t55 -73l11 -25l90 32l-9 24q-57 154 -238 154q-54 0 -95 -15.5t-69.5 -42.5t-43 -63.5t-14.5 -78.5v-145h-86v-84h86v-106q0 -92 -65 -104h-27v-86h548v90h-265q-48 0 -141 -9v4q50 35 50 106v105h266v84h-266v141z" />
    <glyph glyph-name="currency" unicode="&#xa4;" horiz-adv-x="606" 
d="M304 564q-68 0 -126 -40l-68 68l-63 -63l69 -69q-39 -55 -39 -123q0 -72 40 -125l-70 -69l65 -63l67 69q56 -39 125 -39q71 0 124 40l68 -69l62 64l-66 67q39 59 39 125q0 69 -41 125l68 68l-63 63l-68 -68q-57 39 -123 39zM449 337q0 -31 -11 -57.5t-30.5 -46t-46 -31
t-57.5 -11.5q-30 0 -57 11.5t-46.5 31t-31.5 46.5t-12 57t12 56.5t31.5 46t46.5 31t57 11.5q31 0 57.5 -11t46 -30.5t30.5 -46t11 -57.5z" />
    <glyph glyph-name="yen" unicode="&#xa5;" horiz-adv-x="646" 
d="M532 213h-161v77h161v69h-125l225 351h-111l-196 -318l-195 318h-116l227 -351h-128v-69h162v-77h-162v-70h162v-143h96v143h161v70z" />
    <glyph glyph-name="brokenbar" unicode="&#xa6;" horiz-adv-x="224" 
d="M155 856h-86v-425h86v425zM69 279v-425h86v425h-86z" />
    <glyph glyph-name="section" unicode="&#xa7;" horiz-adv-x="601" 
d="M206 461q-48 19 -48 74q0 101 142 101q111 0 151 -102l10 -26l90 41l-10 25q-63 154 -241 154q-119 0 -180 -53t-61 -140q0 -103 86 -147q-95 -53 -95 -146q0 -57 23 -90t59 -51t80.5 -24.5t87.5 -11.5q13 -1 30 -3t34.5 -5.5t34 -9t26.5 -13.5q12 -9 21 -25.5t9 -38.5
q0 -101 -154 -101q-123 0 -160 103l-9 26l-92 -31l9 -27q57 -161 252 -161q123 0 187 52t64 140q0 107 -85 149q78 56 78 139q-4 66 -29.5 100.5t-76.5 51.5q-18 6 -32.5 10t-29 7t-30 5t-36.5 5q-19 2 -33 4t-26 4.5t-23 6t-23 8.5zM291 347q23 -2 50.5 -6t51.5 -14
t40 -28.5t16 -48.5q0 -63 -70 -103l-15 2.5t-19 2.5t-18.5 2t-14.5 1q-42 4 -73.5 10t-57.5 22q-13 9 -22.5 26.5t-9.5 40.5q0 66 78 103q12 -2 28 -4.5t36 -5.5z" />
    <glyph glyph-name="dieresis" unicode="&#xa8;" horiz-adv-x="439" 
d="M73 652q0 -20 13 -33t32 -13t32.5 13t13.5 33q0 19 -13.5 32t-32.5 13t-32 -13t-13 -32zM361 652q0 19 -13.5 32t-32.5 13t-32 -13t-13 -32q0 -20 13 -33t32 -13t32.5 13t13.5 33z" />
    <glyph glyph-name="copyright" unicode="&#xa9;" horiz-adv-x="804" 
d="M403 710q-76 0 -142 -27.5t-114.5 -76t-76 -114t-27.5 -141.5t28 -141.5t76.5 -114t114 -76t141.5 -27.5t141 27.5t113 76t75.5 114t27.5 141.5t-27.5 141.5t-75.5 114t-113 76t-141 27.5zM698 351q0 -63 -22.5 -117t-62.5 -94t-93.5 -63t-116.5 -23t-117.5 23t-94 62.5
t-62.5 94t-23 117.5t22.5 117.5t62.5 94t94.5 62t117.5 22.5t117 -22.5t93.5 -62.5t62 -94t22.5 -117zM490 269q-18 -58 -90 -58q-91 0 -91 82v111q0 82 91 82q40 0 60 -13t30 -44l6 -18l58 21l-6 18q-32 95 -148 95q-73 0 -113 -37.5t-40 -103.5v-111q0 -66 40 -103.5
t113 -37.5q116 0 149 97l6 18l-59 22z" />
    <glyph glyph-name="ordfeminine" unicode="&#xaa;" horiz-adv-x="364" 
d="M183 670q-81 0 -122 -56l-12 -16l57 -30l10 11q27 32 65 32q33 0 46 -14.5t13 -44.5v-17q-20 4 -59 4q-72 0 -101.5 -23t-29.5 -71q0 -44 29 -67t100 -23q64 0 98 15l32 14v162q0 60 -28.5 92t-97.5 32zM229 415q-16 -6 -53 -6q-58 0 -58 38q0 21 13 31t46 10q24 0 63 -3
v-66z" />
    <glyph glyph-name="guillemotleft" unicode="&#xab;" horiz-adv-x="576" 
d="M246 40l58 58l-165 166l166 169l-56 56l-225 -226zM479 40l58 58l-167 166l167 168l-55 57l-225 -226z" />
    <glyph glyph-name="logicalnot" unicode="&#xac;" horiz-adv-x="584" 
d="M432 315v-176h89v260h-463v-84h374z" />
    <glyph glyph-name="registered" unicode="&#xae;" horiz-adv-x="475" 
d="M431 516q0 40 -15 75.5t-41.5 61.5t-61.5 41.5t-75 15.5t-75.5 -15t-62 -41.5t-42 -61.5t-15.5 -76q0 -40 15.5 -75.5t42 -61.5t62 -41.5t75.5 -15.5q41 0 76 15.5t61 41.5t41 61.5t15 75.5zM392 516q0 -32 -12 -60.5t-32.5 -49.5t-48.5 -33t-60 -12t-60 12t-49 33
t-33 49.5t-12 60.5t12 60t33 49t49 33t60 12t60 -12t48.5 -33t32.5 -49t12 -60zM329 417l-44 72q43 13 43 60q0 31 -19 48.5t-51 17.5h-97v-198h37v68h46l40 -68h45zM257 580q32 0 32 -31q0 -30 -32 -30h-59v61h59z" />
    <glyph glyph-name="macron" unicode="&#xaf;" horiz-adv-x="352" 
d="M316 621v65h-279v-65h279z" />
    <glyph glyph-name="degree" unicode="&#xb0;" horiz-adv-x="392" 
d="M196 712q-33 0 -62 -12t-50 -33t-33 -50t-12 -62t12 -62t33.5 -50t50 -33.5t61.5 -12.5q32 0 60.5 12.5t50 34t34 50.5t12.5 61q0 33 -12 62t-33 50t-50 33t-62 12zM257 494q-13 -13 -28.5 -19t-32.5 -6q-35 0 -60 25q-12 12 -18.5 27.5t-6.5 32t6.5 32.5t18.5 29
q25 25 60 25t61 -25q26 -26 26 -61t-26 -60z" />
    <glyph glyph-name="plusminus" unicode="&#xb1;" horiz-adv-x="618" 
d="M269 434h-196v-77h196v-123h81v123h195v77h-195v127h-81v-127zM73 190v-77h472v77h-472z" />
    <glyph glyph-name="twosuperior" unicode="&#xb2;" horiz-adv-x="359" 
d="M246 691q0 -22 -12 -37q-11 -12 -59 -31l-57 -23q-46 -18 -64 -46.5t-18 -79.5v-59h282v69h-209v17q0 33 44 47l56 17q60 20 87 48t27 81q0 55 -36.5 90t-102.5 35q-108 0 -145 -103l-10 -26l72 -22q4 9 7 16q4 8 5 12q1 2 2 5q3 6 7.5 14t12.5 15t20 12t28 5
q30 0 46.5 -15.5t16.5 -40.5z" />
    <glyph glyph-name="threesuperior" unicode="&#xb3;" horiz-adv-x="365" 
d="M187 819q-119 0 -152 -104l-8 -24l68 -26l10 29q10 30 29.5 43.5t54.5 13.5q28 0 43.5 -14t15.5 -39q0 -49 -47 -49h-69v-68h74q24 0 37 -14.5t13 -38.5q0 -53 -69 -53q-38 0 -57 13.5t-28 43.5l-7 25l-71 -23l9 -27q34 -100 154 -100q72 0 108 29.5t36 83.5
q0 73 -57 101q45 24 45 85q0 52 -34.5 82.5t-97.5 30.5z" />
    <glyph glyph-name="acute" unicode="&#xb4;" horiz-adv-x="257" 
d="M11 625l33 -44l217 103l-51 61z" />
    <glyph glyph-name="mu" unicode="&#xb5;" horiz-adv-x="553" 
d="M276 67q-125 0 -125 119v330h-90v-736h90l-1 258q41 -53 134 -53q85 0 171 34l38 15v482h-89v-428l-14 -4q-57 -17 -114 -17z" />
    <glyph glyph-name="paragraph" unicode="&#xb6;" horiz-adv-x="495" 
d="M425 710h-217q-38 0 -69 -12.5t-53.5 -35t-34.5 -53.5t-12 -69q0 -36 11.5 -66.5t33 -52.5t52 -35t67.5 -14v-461h83v709h55v-709h84v799z" />
    <glyph glyph-name="periodcentered" unicode="&#xb7;" horiz-adv-x="230" 
d="M169 278q0 23 -16 38.5t-39 15.5t-38.5 -15.5t-15.5 -38.5t15.5 -39t38.5 -16t39 16t16 39z" />
    <glyph glyph-name="cedilla" unicode="&#xb8;" horiz-adv-x="251" 
d="M69 -92q0 -1 -1.5 -4.5t-3.5 -8.5q-2 -6 -5 -12l22 5q14 3 29 3q52 -1 52 -36q0 -47 -60 -47q-35 0 -67 20l-14 9l3 -59l13 -7q28 -16 77 -16q54 0 87.5 22.5t37.5 73.5q3 37 -20.5 61t-63.5 24q-4 0 -9 -0.5t-11 -1.5l25 66h-54z" />
    <glyph glyph-name="onesuperior" unicode="&#xb9;" horiz-adv-x="283" 
d="M171 811l-163 -92l34 -65l111 62v-301h76v396h-58z" />
    <glyph glyph-name="ordmasculine" unicode="&#xba;" horiz-adv-x="369" 
d="M319 549q0 57 -34.5 89t-100.5 32t-100.5 -32t-34.5 -89v-73q0 -57 34.5 -88.5t100.5 -31.5t100.5 31.5t34.5 88.5v73zM247 474q0 -55 -63 -55q-62 0 -62 55v78q0 25 16 40t46 15q31 0 47 -15t16 -40v-78z" />
    <glyph glyph-name="guillemotright" unicode="&#xbb;" horiz-adv-x="576" 
d="M272 98l58 -58l223 223l-226 226l-56 -56l166 -169zM39 98l59 -58l221 223l-225 226l-55 -57l167 -168z" />
    <glyph glyph-name="onequarter" unicode="&#xbc;" horiz-adv-x="794" 
d="M91 0h98l522 710h-98zM433 151v-58h203v-93h71v93h53v64h-53v239h-76zM167 617v-301h76v396h-58l-163 -92l34 -65zM636 302v-145h-118z" />
    <glyph glyph-name="onehalf" unicode="&#xbd;" horiz-adv-x="839" 
d="M793 69h-209v17q0 33 44 47l56 17q60 20 87 48t27 81q0 55 -36.5 90t-102.5 35q-108 0 -145 -103l-10 -26l72 -22q4 9 7 16q4 8 5 12q1 2 2 5q3 6 7.5 14t12.5 15t20 12t28 5q30 0 46.5 -15.5t16.5 -40.5q0 -22 -12 -37q-11 -12 -59 -31l-57 -23q-46 -18 -64 -46.5
t-18 -79.5v-59h282v69zM85 0h98l522 710h-98zM166 622v-301h76v396h-58l-163 -92l34 -65z" />
    <glyph glyph-name="threequarters" unicode="&#xbe;" horiz-adv-x="828" 
d="M33 597l68 -26l10 29q10 30 29.5 43.5t54.5 13.5q28 0 43.5 -14t15.5 -39q0 -49 -47 -49h-69v-68h74q24 0 37 -14.5t13 -38.5q0 -53 -69 -53q-38 0 -57 13.5t-28 43.5l-7 25l-71 -23l9 -27q34 -100 154 -100q72 0 108 29.5t36 83.5q0 73 -57 101q45 24 45 85
q0 52 -34.5 82.5t-97.5 30.5q-119 0 -152 -104zM748 710h-98l-522 -710h98zM797 157h-53v239h-76l-198 -245v-58h203v-93h71v93h53v64zM673 302v-145h-118z" />
    <glyph glyph-name="questiondown" unicode="&#xbf;" horiz-adv-x="558" 
d="M274 -140q-72 0 -110.5 35t-38.5 90q0 32 9 55.5t24.5 42t36.5 33.5t45 31q25 17 44.5 33.5t32.5 36.5t20 45t7 58v25h-81v-25q0 -38 -20 -62.5t-57 -48.5q-1 -1 -24 -15q-9 -5 -20.5 -12.5t-23 -15.5t-21 -16.5t-14.5 -15.5q-3 -4 -8.5 -11.5t-11.5 -16t-11 -17.5
t-7 -17q-5 -17 -10 -41t-5 -50q0 -45 17 -82.5t48.5 -65t76 -43t100.5 -15.5q193 0 256 165l9 24l-85 30l-10 -24q-23 -54 -62 -82t-106 -28zM303 520q-23 0 -38.5 -15.5t-15.5 -38.5t15.5 -39t38.5 -16t39 16t16 39t-16 38.5t-39 15.5z" />
    <glyph glyph-name="Agrave" unicode="&#xc0;" horiz-adv-x="649" 
d="M280 712l-279 -712h103l69 186h298l70 -186h106l-278 712h-89zM323 583l119 -318h-239zM203 854l217 -103l32 44l-199 120z" />
    <glyph glyph-name="Aacute" unicode="&#xc1;" horiz-adv-x="649" 
d="M280 712l-279 -712h103l69 186h298l70 -186h106l-278 712h-89zM323 583l119 -318h-239zM400 917l-198 -120l32 -44l217 103z" />
    <glyph glyph-name="Acircumflex" unicode="&#xc2;" horiz-adv-x="649" 
d="M280 712l-279 -712h103l69 186h298l70 -186h106l-278 712h-89zM323 583l119 -318h-239zM352 905h-55l-157 -144h87l97 85l93 -85h93z" />
    <glyph glyph-name="Atilde" unicode="&#xc3;" horiz-adv-x="649" 
d="M280 712l-279 -712h103l69 186h298l70 -186h106l-278 712h-89zM203 265l120 318l119 -318h-239zM393 768q42 0 61.5 25t19.5 80v15h-55v-15q0 -48 -32 -48q-20 0 -61 32q-40 31 -79 31q-80 0 -80 -105v-15h55v15q0 48 33 48q23 0 63 -31q41 -32 75 -32z" />
    <glyph glyph-name="Adieresis" unicode="&#xc4;" horiz-adv-x="649" 
d="M647 0l-278 712h-89l-279 -712h103l69 186h298l70 -186h106zM442 265h-239l120 318zM226 784q19 0 32.5 13t13.5 33q0 19 -13.5 32t-32.5 13t-32 -13t-13 -32q0 -20 13 -33t32 -13zM377 830q0 -20 13 -33t32 -13t32.5 13t13.5 33q0 19 -13.5 32t-32.5 13t-32 -13t-13 -32
z" />
    <glyph glyph-name="Aring" unicode="&#xc5;" horiz-adv-x="649" 
d="M437 772q0 51 -31 82.5t-82 31.5q-52 0 -84.5 -31.5t-32.5 -82.5q0 -68 57 -92l-265 -680h103l69 186h298l70 -186h106l-265 678q57 26 57 94zM321 584l119 -319h-239zM324 832q27 0 43 -16t16 -44q0 -26 -16 -42t-43 -16q-29 0 -46 16t-17 42q0 28 17 44t46 16z" />
    <glyph glyph-name="AE" unicode="&#xc6;" horiz-adv-x="843" 
d="M515 620h281v90h-372l-442 -710h110l97 163h232v-163h387v90h-293v224h235v90h-235v216zM421 548v-305h-184z" />
    <glyph glyph-name="Ccedilla" unicode="&#xc7;" horiz-adv-x="638" 
d="M309 -109q52 -1 52 -36q0 -47 -60 -47q-35 0 -67 20l-14 9l3 -59l13 -7q28 -16 77 -16q54 0 87.5 22.5t37.5 73.5q3 37 -20.5 61t-63.5 24q-4 0 -9 -0.5t-11 -1.5l19 51q198 9 250 172l8 25l-91 33l-9 -26q-19 -58 -61 -86t-117 -28q-88 0 -135.5 43.5t-47.5 121.5v230
q0 79 46.5 122t136.5 43q75 0 116.5 -27.5t60.5 -84.5l8 -25l92 32l-9 28q-57 167 -268 167q-135 0 -207.5 -67.5t-72.5 -188.5v-228q0 -113 64 -179.5t182 -75.5l-31 -78q0 -1 -1.5 -4.5t-3.5 -8.5q-2 -6 -5 -12l22 5q14 3 29 3z" />
    <glyph glyph-name="Egrave" unicode="&#xc8;" horiz-adv-x="576" 
d="M171 620h357v90h-454v-710h466v90h-369v225h311v90h-311v215zM396 751l33 44l-199 120l-51 -61z" />
    <glyph glyph-name="Eacute" unicode="&#xc9;" horiz-adv-x="576" 
d="M528 710h-454v-710h466v90h-369v225h311v90h-311v215h357v90zM428 854l-51 61l-199 -120l32 -44z" />
    <glyph glyph-name="Ecircumflex" unicode="&#xca;" horiz-adv-x="576" 
d="M171 405v215h357v90h-454v-710h466v90h-369v225h311v90h-311zM275 905l-157 -144h87l97 85l93 -85h93l-158 144h-55z" />
    <glyph glyph-name="Edieresis" unicode="&#xcb;" horiz-adv-x="576" 
d="M171 405v215h357v90h-454v-710h466v90h-369v225h311v90h-311zM203 784q19 0 32.5 13t13.5 33q0 19 -13.5 32t-32.5 13t-32 -13t-13 -32q0 -20 13 -33t32 -13zM354 830q0 -20 13 -33t32 -13t32.5 13t13.5 33q0 19 -13.5 32t-32.5 13t-32 -13t-13 -32z" />
    <glyph glyph-name="Igrave" unicode="&#xcc;" horiz-adv-x="245" 
d="M171 710h-97v-710h97v710zM49 913l-51 -61l217 -103l33 44z" />
    <glyph glyph-name="Iacute" unicode="&#xcd;" horiz-adv-x="245" 
d="M74 0h97v710h-97v-710zM2 798l33 -44l217 103l-51 61z" />
    <glyph glyph-name="Icircumflex" unicode="&#xce;" horiz-adv-x="245" 
d="M74 710v-710h97v710h-97zM308 761l-158 144h-55l-157 -144h87l97 85l93 -85h93z" />
    <glyph glyph-name="Idieresis" unicode="&#xcf;" horiz-adv-x="245" 
d="M74 710v-710h97v710h-97zM-21 830q0 -20 13 -33t32 -13t32.5 13t13.5 33q0 19 -13.5 32t-32.5 13t-32 -13t-13 -32zM220 784q19 0 32.5 13t13.5 33q0 19 -13.5 32t-32.5 13t-32 -13t-13 -32q0 -20 13 -33t32 -13z" />
    <glyph glyph-name="Eth" unicode="&#xd0;" horiz-adv-x="672" 
d="M87 710v-315h-83v-63h83v-332h244q139 0 214.5 70t75.5 194v182q0 124 -75.5 194t-214.5 70h-244zM524 263q0 -84 -49.5 -128.5t-143.5 -44.5h-147v242h170v63h-170v225h147q94 0 143.5 -44.5t49.5 -128.5v-184z" />
    <glyph glyph-name="Ntilde" unicode="&#xd1;" horiz-adv-x="693" 
d="M161 710h-87v-710h94v529l363 -529h88v710h-93v-530zM349 857q-40 31 -79 31q-80 0 -80 -105v-15h55v15q0 48 33 48q23 0 63 -31q41 -32 75 -32q42 0 61.5 25t19.5 80v15h-55v-15q0 -48 -32 -48q-20 0 -61 32z" />
    <glyph glyph-name="Ograve" unicode="&#xd2;" horiz-adv-x="666" 
d="M613 469q0 121 -72.5 188.5t-207.5 67.5t-207.5 -67.5t-72.5 -188.5v-228q0 -121 72.5 -188.5t207.5 -67.5t207.5 67.5t72.5 188.5v228zM333 75q-88 0 -135.5 42.5t-47.5 123.5v228q0 81 47.5 123.5t135.5 42.5t135.5 -42.5t47.5 -123.5v-228q0 -81 -47.5 -123.5
t-135.5 -42.5zM428 761l32 44l-199 120l-50 -61z" />
    <glyph glyph-name="Oacute" unicode="&#xd3;" horiz-adv-x="666" 
d="M333 725q-135 0 -207.5 -67.5t-72.5 -188.5v-228q0 -121 72.5 -188.5t207.5 -67.5t207.5 67.5t72.5 188.5v228q0 121 -72.5 188.5t-207.5 67.5zM333 75q-88 0 -135.5 42.5t-47.5 123.5v228q0 81 47.5 123.5t135.5 42.5t135.5 -42.5t47.5 -123.5v-228q0 -81 -47.5 -123.5
t-135.5 -42.5zM243 763l217 103l-51 61l-198 -120z" />
    <glyph glyph-name="Ocircumflex" unicode="&#xd4;" horiz-adv-x="666" 
d="M613 469q0 121 -72.5 188.5t-207.5 67.5t-207.5 -67.5t-72.5 -188.5v-228q0 -121 72.5 -188.5t207.5 -67.5t207.5 67.5t72.5 188.5v228zM516 241q0 -81 -47.5 -123.5t-135.5 -42.5t-135.5 42.5t-47.5 123.5v228q0 81 47.5 123.5t135.5 42.5t135.5 -42.5t47.5 -123.5v-228
zM519 771l-158 144h-55l-157 -144h87l97 85l93 -85h93z" />
    <glyph glyph-name="Otilde" unicode="&#xd5;" horiz-adv-x="666" 
d="M333 725q-135 0 -207.5 -67.5t-72.5 -188.5v-228q0 -121 72.5 -188.5t207.5 -67.5t207.5 67.5t72.5 188.5v228q0 121 -72.5 188.5t-207.5 67.5zM516 241q0 -81 -47.5 -123.5t-135.5 -42.5t-135.5 42.5t-47.5 123.5v228q0 81 47.5 123.5t135.5 42.5t135.5 -42.5
t47.5 -123.5v-228zM335 867q-40 31 -79 31q-80 0 -80 -105v-15h55v15q0 48 33 48q23 0 63 -31q41 -32 75 -32q42 0 61.5 25t19.5 80v15h-55v-15q0 -48 -32 -48q-20 0 -61 32z" />
    <glyph glyph-name="Odieresis" unicode="&#xd6;" horiz-adv-x="666" 
d="M613 469q0 121 -72.5 188.5t-207.5 67.5t-207.5 -67.5t-72.5 -188.5v-228q0 -121 72.5 -188.5t207.5 -67.5t207.5 67.5t72.5 188.5v228zM516 241q0 -81 -47.5 -123.5t-135.5 -42.5t-135.5 42.5t-47.5 123.5v228q0 81 47.5 123.5t135.5 42.5t135.5 -42.5t47.5 -123.5v-228
zM235 794q19 0 32.5 13t13.5 33q0 19 -13.5 32t-32.5 13t-32 -13t-13 -32q0 -20 13 -33t32 -13zM386 840q0 -20 13 -33t32 -13t32.5 13t13.5 33q0 19 -13.5 32t-32.5 13t-32 -13t-13 -32z" />
    <glyph glyph-name="multiply" unicode="&#xd7;" horiz-adv-x="510" 
d="M463 173l-152 152l152 152l-57 57l-152 -152l-152 151l-57 -57l152 -151l-152 -152l57 -57l152 152l152 -152z" />
    <glyph glyph-name="Oslash" unicode="&#xd8;" horiz-adv-x="666" 
d="M613 469q0 105 -57 171l72 112h-75l-46 -72q-67 45 -174 45q-135 0 -207.5 -67.5t-72.5 -188.5v-228q0 -112 61 -176l-67 -106h75l43 67q65 -41 168 -41q136 1 208 68t72 188v228zM175 160q-25 29 -25 81v228q0 81 47.5 123.5t135.5 42.5q76 0 123 -34zM516 241
q0 -81 -47.5 -123.5t-135.5 -42.5q-71 0 -117 31l279 439q21 -30 21 -76v-228z" />
    <glyph glyph-name="Ugrave" unicode="&#xd9;" horiz-adv-x="685" 
d="M520 242q0 -79 -44.5 -123t-132.5 -44t-132.5 44t-44.5 123v468h-96v-467q0 -121 69.5 -189.5t203.5 -68.5t204 68.5t70 189.5v467h-97v-468zM218 853l218 -101l32 44l-199 118z" />
    <glyph glyph-name="Uacute" unicode="&#xda;" horiz-adv-x="685" 
d="M520 242q0 -79 -44.5 -123t-132.5 -44t-132.5 44t-44.5 123v468h-96v-467q0 -121 69.5 -189.5t203.5 -68.5t204 68.5t70 189.5v467h-97v-468zM418 916l-199 -118l33 -44l217 101z" />
    <glyph glyph-name="Ucircumflex" unicode="&#xdb;" horiz-adv-x="685" 
d="M343 75q-88 0 -132.5 44t-44.5 123v468h-96v-467q0 -121 69.5 -189.5t203.5 -68.5t204 68.5t70 189.5v467h-97v-468q0 -79 -44.5 -123t-132.5 -44zM435 761h93l-158 144h-55l-157 -144h87l97 85z" />
    <glyph glyph-name="Udieresis" unicode="&#xdc;" horiz-adv-x="685" 
d="M520 242q0 -79 -44.5 -123t-132.5 -44t-132.5 44t-44.5 123v468h-96v-467q0 -121 69.5 -189.5t203.5 -68.5t204 68.5t70 189.5v467h-97v-468zM245 784q19 0 32 13t13 33q0 19 -13 32t-32 13t-32.5 -13t-13.5 -32q0 -20 13.5 -33t32.5 -13zM441 875q-19 0 -32.5 -13
t-13.5 -32q0 -20 13.5 -33t32.5 -13t32 13t13 33q0 19 -13 32t-32 13z" />
    <glyph glyph-name="Yacute" unicode="&#xdd;" horiz-adv-x="634" 
d="M365 284l271 426h-118l-200 -326l-198 326h-122l271 -424v-286h96v284zM197 799l32 -44l218 101l-51 61z" />
    <glyph glyph-name="Thorn" unicode="&#xde;" horiz-adv-x="625" 
d="M171 596v114h-97v-710h97v124h186q55 0 99.5 16.5t75.5 47t48 74t17 97.5q0 55 -17 99t-48 74.5t-75.5 47t-99.5 16.5h-186zM348 506q69 0 108.5 -40.5t39.5 -106.5t-39.5 -105.5t-108.5 -39.5h-177v292h177z" />
    <glyph glyph-name="germandbls" unicode="&#xdf;" 
d="M208 90v-90h94q100 0 155 52.5t55 152.5q0 146 -109 183v3q83 41 83 156q0 97 -54 150t-160 53q-50 0 -89 -15.5t-65.5 -44.5t-40.5 -70t-14 -92v-528h89v529q0 60 31 95.5t88 35.5q121 0 121 -122q0 -48 -26 -80.5t-77 -32.5h-79v-87h87q57 0 87 -32.5t30 -89.5
q0 -126 -121 -126h-85z" />
    <glyph glyph-name="agrave" unicode="&#xe0;" horiz-adv-x="516" 
d="M372 294q-30 4 -58.5 5.5t-55.5 1.5q-60 0 -102.5 -8t-69.5 -27t-39 -48.5t-12 -73.5q0 -41 10.5 -71t36 -49.5t67.5 -29t105 -9.5q111 0 172 26l36 16v302q0 47 -11 84.5t-36 63.5t-64 40t-96 14q-149 0 -203 -105l-12 -23l76 -34l13 21q37 61 124 61q66 0 92.5 -30.5
t26.5 -88.5v-38zM357 72q-34 -12 -111 -12q-70 0 -95.5 20.5t-25.5 63.5q0 45 27 64.5t96 19.5q22 0 53 -2t71 -6v-143zM181 742l-51 -61l217 -103l33 44z" />
    <glyph glyph-name="aacute" unicode="&#xe1;" horiz-adv-x="516" 
d="M372 294q-30 4 -58.5 5.5t-55.5 1.5q-60 0 -102.5 -8t-69.5 -27t-39 -48.5t-12 -73.5q0 -41 10.5 -71t36 -49.5t67.5 -29t105 -9.5q111 0 172 26l36 16v302q0 47 -11 84.5t-36 63.5t-64 40t-96 14q-149 0 -203 -105l-12 -23l76 -34l13 21q37 61 124 61q66 0 92.5 -30.5
t26.5 -88.5v-38zM357 72q-34 -12 -111 -12q-70 0 -95.5 20.5t-25.5 63.5q0 45 27 64.5t96 19.5q22 0 53 -2t71 -6v-143zM132 622l32 -44l218 103l-51 61z" />
    <glyph glyph-name="acircumflex" unicode="&#xe2;" horiz-adv-x="516" 
d="M372 294q-30 4 -58.5 5.5t-55.5 1.5q-60 0 -102.5 -8t-69.5 -27t-39 -48.5t-12 -73.5q0 -41 10.5 -71t36 -49.5t67.5 -29t105 -9.5q111 0 172 26l36 16v302q0 47 -11 84.5t-36 63.5t-64 40t-96 14q-149 0 -203 -105l-12 -23l76 -34l13 21q37 61 124 61q66 0 92.5 -30.5
t26.5 -88.5v-38zM372 77l-15 -5q-34 -12 -111 -12q-70 0 -95.5 20.5t-25.5 63.5q0 45 27 64.5t96 19.5q22 0 53 -2t71 -6v-143zM440 581l-158 144h-55l-157 -144h87l97 85l93 -85h93z" />
    <glyph glyph-name="atilde" unicode="&#xe3;" horiz-adv-x="516" 
d="M258 301q-60 0 -102.5 -8t-69.5 -27t-39 -48.5t-12 -73.5q0 -41 10.5 -71t36 -49.5t67.5 -29t105 -9.5q111 0 172 26l36 16v302q0 47 -11 84.5t-36 63.5t-64 40t-96 14q-149 0 -203 -105l-12 -23l76 -34l13 21q37 61 124 61q66 0 92.5 -30.5t26.5 -88.5v-38
q-30 4 -58.5 5.5t-55.5 1.5zM246 60q-70 0 -95.5 20.5t-25.5 63.5q0 45 27 64.5t96 19.5q22 0 53 -2t71 -6v-143l-15 -5q-34 -12 -111 -12zM152 609q0 48 33 48q23 0 63 -31q41 -32 75 -32q42 0 61.5 25t19.5 80v15h-55v-15q0 -48 -32 -48q-20 0 -61 32q-40 31 -79 31
q-80 0 -80 -105v-15h55v15z" />
    <glyph glyph-name="adieresis" unicode="&#xe4;" horiz-adv-x="516" 
d="M372 294q-30 4 -58.5 5.5t-55.5 1.5q-60 0 -102.5 -8t-69.5 -27t-39 -48.5t-12 -73.5q0 -41 10.5 -71t36 -49.5t67.5 -29t105 -9.5q111 0 172 26l36 16v302q0 47 -11 84.5t-36 63.5t-64 40t-96 14q-149 0 -203 -105l-12 -23l76 -34l13 21q37 61 124 61q66 0 92.5 -30.5
t26.5 -88.5v-38zM372 77l-15 -5q-34 -12 -111 -12q-70 0 -95.5 20.5t-25.5 63.5q0 45 27 64.5t96 19.5q22 0 53 -2t71 -6v-143zM156 606q19 0 32.5 13t13.5 33q0 19 -13.5 32t-32.5 13t-32 -13t-13 -32q0 -20 13 -33t32 -13zM307 652q0 -20 13 -33t32 -13t32.5 13t13.5 33
q0 19 -13.5 32t-32.5 13t-32 -13t-13 -32z" />
    <glyph glyph-name="aring" unicode="&#xe5;" horiz-adv-x="516" 
d="M372 294q-30 4 -58.5 5.5t-55.5 1.5q-60 0 -102.5 -8t-69.5 -27t-39 -48.5t-12 -73.5q0 -41 10.5 -71t36 -49.5t67.5 -29t105 -9.5q111 0 172 26l36 16v302q0 47 -11 84.5t-36 63.5t-64 40t-96 14q-149 0 -203 -105l-12 -23l76 -34l13 21q37 61 124 61q66 0 92.5 -30.5
t26.5 -88.5v-38zM372 77l-15 -5q-34 -12 -111 -12q-70 0 -95.5 20.5t-25.5 63.5q0 45 27 64.5t96 19.5q22 0 53 -2t71 -6v-143zM258 783q-48 0 -77 -28.5t-29 -74.5q0 -45 29 -73t77 -28q46 0 74.5 28t28.5 73q0 46 -28.5 74.5t-74.5 28.5zM315 680q0 -25 -15.5 -40.5
t-41.5 -15.5q-27 0 -43.5 15.5t-16.5 40.5q0 26 16.5 41.5t43.5 15.5q26 0 41.5 -15.5t15.5 -41.5z" />
    <glyph glyph-name="ae" unicode="&#xe6;" horiz-adv-x="793" 
d="M240 531q-133 0 -187 -105l-12 -23l77 -33l12 20q37 61 108 61q59 0 81 -28t22 -81v-49q-32 4 -56.5 5.5t-42.5 1.5q-57 0 -96 -8t-64 -27t-36 -48.5t-11 -73.5q0 -41 10 -70.5t33.5 -49t62.5 -29t97 -9.5q103 0 168 50q47 -50 140 -50q76 0 121 25.5t74 76.5l15 26
l-76 41l-14 -23q-20 -34 -47 -51t-72 -17q-116 0 -116 119v49h324v94q0 94 -51 150t-156 56q-112 0 -158 -73q-42 73 -150 73zM431 330q0 125 117 125q118 0 118 -125v-30h-235v30zM341 158q0 -17 1 -31.5t3 -26.5q-1 -4 -7 -10.5t-19 -13t-34.5 -11.5t-54.5 -5
q-61 0 -82.5 20t-21.5 63q0 45 23 64.5t84 19.5q17 0 44 -1.5t64 -5.5v-62z" />
    <glyph glyph-name="ccedilla" unicode="&#xe7;" horiz-adv-x="515" 
d="M251 -109q52 -1 52 -36q0 -47 -60 -47q-35 0 -67 20l-14 9l3 -59l13 -7q28 -16 77 -16q54 0 87.5 22.5t37.5 73.5q3 37 -20.5 61t-63.5 24q-4 0 -9 -0.5t-11 -1.5l20 52q141 14 186 137l10 26l-88 26l-8 -24q-28 -87 -131 -87q-64 0 -97 31t-33 88v151q0 57 33 87.5
t97 30.5q103 0 130 -84l8 -24l85 27l-8 26q-42 134 -211 134q-112 0 -168 -52.5t-56 -148.5v-143q0 -91 48.5 -143.5t147.5 -57.5l-31 -78q0 -1 -1.5 -4.5t-3.5 -8.5q-2 -6 -5 -12l22 5q14 3 29 3z" />
    <glyph glyph-name="egrave" unicode="&#xe8;" horiz-adv-x="534" 
d="M270 531q-111 0 -168.5 -55.5t-57.5 -158.5v-124q0 -97 55 -152.5t167 -55.5q157 0 215 103l15 27l-77 39l-13 -22q-42 -69 -139 -69q-66 0 -100 31t-34 89v48h363v93q0 93 -57.5 150t-168.5 57zM407 300h-274v29q0 60 35 93t102 33t102 -33t35 -93v-29zM197 740l-51 -61
l217 -103l33 44z" />
    <glyph glyph-name="eacute" unicode="&#xe9;" horiz-adv-x="534" 
d="M270 531q-111 0 -168.5 -55.5t-57.5 -158.5v-124q0 -97 55 -152.5t167 -55.5q157 0 215 103l15 27l-77 39l-13 -22q-42 -69 -139 -69q-66 0 -100 31t-34 89v48h363v93q0 93 -57.5 150t-168.5 57zM407 300h-274v29q0 60 35 93t102 33t102 -33t35 -93v-29zM147 620l33 -44
l217 103l-51 61z" />
    <glyph glyph-name="ecircumflex" unicode="&#xea;" horiz-adv-x="534" 
d="M267 63q-66 0 -100 31t-34 89v48h363v93q0 93 -57.5 150t-168.5 57t-168.5 -55.5t-57.5 -158.5v-124q0 -97 55 -152.5t167 -55.5q157 0 215 103l15 27l-77 39l-13 -22q-42 -69 -139 -69zM407 300h-274v29q0 60 35 93t102 33t102 -33t35 -93v-29zM456 578l-158 144h-55
l-157 -144h87l97 85l93 -85h93z" />
    <glyph glyph-name="edieresis" unicode="&#xeb;" horiz-adv-x="534" 
d="M267 63q-66 0 -100 31t-34 89v48h363v93q0 93 -57.5 150t-168.5 57t-168.5 -55.5t-57.5 -158.5v-124q0 -97 55 -152.5t167 -55.5q157 0 215 103l15 27l-77 39l-13 -22q-42 -69 -139 -69zM407 300h-274v29q0 60 35 93t102 33t102 -33t35 -93v-29zM128 652q0 -20 13 -33
t32 -13t32.5 13t13.5 33q0 19 -13.5 32t-32.5 13t-32 -13t-13 -32zM324 652q0 -20 13 -33t32 -13t32.5 13t13.5 33q0 19 -13.5 32t-32.5 13t-32 -13t-13 -32z" />
    <glyph glyph-name="igrave" unicode="&#xec;" horiz-adv-x="213" 
d="M152 516h-90v-516h90v516zM51 742l-51 -64l186 -103l33 44z" />
    <glyph glyph-name="iacute" unicode="&#xed;" horiz-adv-x="213" 
d="M152 516h-90v-516h90v516zM-2 618l32 -44l187 103l-51 64z" />
    <glyph glyph-name="icircumflex" unicode="&#xee;" horiz-adv-x="213" 
d="M62 516v-516h90v516h-90zM259 584l-122 138h-60l-123 -138h84l68 80l66 -80h87z" />
    <glyph glyph-name="idieresis" unicode="&#xef;" horiz-adv-x="213" 
d="M62 516v-516h90v516h-90zM-19 660q0 -20 13.5 -33t32.5 -13t32.5 13t13.5 33q0 19 -13.5 32t-32.5 13t-32.5 -13t-13.5 -32zM141 660q0 -20 13 -33t32 -13t32.5 13t13.5 33q0 19 -13.5 32t-32.5 13t-32 -13t-13 -32z" />
    <glyph glyph-name="eth" unicode="&#xf0;" horiz-adv-x="552" 
d="M495 398q0 189 -86 269l50 55l-46 34l-52 -57q-79 43 -216 43h-23v-82h26q96 0 154 -29l-59 -66l44 -31l63 68q57 -52 60 -165q-41 68 -158 68q-97 0 -152 -53t-55 -146v-123q0 -94 57 -146t168 -52t168 52t57 146v215zM270 66q-66 0 -100.5 30.5t-34.5 87.5v122
q0 57 34.5 87.5t100.5 30.5t100.5 -30t34.5 -87v-123q0 -57 -34.5 -87.5t-100.5 -30.5z" />
    <glyph glyph-name="ntilde" unicode="&#xf1;" 
d="M403 0h90v333q0 198 -203 198q-110 0 -191 -34l-38 -16v-481h89v427l12 4q56 18 116 18q125 0 125 -119v-330zM344 594q42 0 61.5 25t19.5 80v15h-55v-15q0 -48 -32 -48q-20 0 -61 32q-40 31 -79 31q-80 0 -80 -105v-15h55v15q0 48 33 48q23 0 63 -31q41 -32 75 -32z" />
    <glyph glyph-name="ograve" unicode="&#xf2;" horiz-adv-x="541" 
d="M495 339q0 91 -58.5 141.5t-166.5 50.5q-106 0 -165 -50.5t-59 -141.5v-163q0 -90 59 -140.5t165 -50.5q108 0 166.5 50.5t58.5 140.5v163zM270 66q-63 0 -99 29t-36 81v164q0 52 36 81t99 29q64 0 100 -29t36 -81v-164q0 -52 -36 -81t-100 -29zM363 576l33 44l-199 122
l-50 -63z" />
    <glyph glyph-name="oacute" unicode="&#xf3;" horiz-adv-x="541" 
d="M270 531q-106 0 -165 -50.5t-59 -141.5v-163q0 -90 59 -140.5t165 -50.5q108 0 166.5 50.5t58.5 140.5v163q0 91 -58.5 141.5t-166.5 50.5zM270 66q-63 0 -99 29t-36 81v164q0 52 36 81t99 29q64 0 100 -29t36 -81v-164q0 -52 -36 -81t-100 -29zM180 576l216 103l-50 63
l-199 -122z" />
    <glyph glyph-name="ocircumflex" unicode="&#xf4;" horiz-adv-x="541" 
d="M495 339q0 91 -58.5 141.5t-166.5 50.5q-106 0 -165 -50.5t-59 -141.5v-163q0 -90 59 -140.5t165 -50.5q108 0 166.5 50.5t58.5 140.5v163zM406 176q0 -52 -36 -81t-100 -29q-63 0 -99 29t-36 81v164q0 52 36 81t99 29q64 0 100 -29t36 -81v-164zM451 580l-153 140h-54
l-154 -140h86l94 82l90 -82h91z" />
    <glyph glyph-name="otilde" unicode="&#xf5;" horiz-adv-x="541" 
d="M270 531q-106 0 -165 -50.5t-59 -141.5v-163q0 -90 59 -140.5t165 -50.5q108 0 166.5 50.5t58.5 140.5v163q0 91 -58.5 141.5t-166.5 50.5zM406 176q0 -52 -36 -81t-100 -29q-63 0 -99 29t-36 81v164q0 52 36 81t99 29q64 0 100 -29t36 -81v-164zM272 683q-40 31 -79 31
q-80 0 -80 -105v-15h55v15q0 48 33 48q23 0 63 -31q41 -32 75 -32q42 0 61.5 25t19.5 80v15h-55v-15q0 -48 -32 -48q-20 0 -61 32z" />
    <glyph glyph-name="odieresis" unicode="&#xf6;" horiz-adv-x="541" 
d="M495 339q0 91 -58.5 141.5t-166.5 50.5q-106 0 -165 -50.5t-59 -141.5v-163q0 -90 59 -140.5t165 -50.5q108 0 166.5 50.5t58.5 140.5v163zM406 176q0 -52 -36 -81t-100 -29q-63 0 -99 29t-36 81v164q0 52 36 81t99 29q64 0 100 -29t36 -81v-164zM172 606q19 0 32.5 13
t13.5 33q0 19 -13.5 32t-32.5 13t-32 -13t-13 -32q0 -20 13 -33t32 -13zM322 652q0 -20 13 -33t32 -13t32.5 13t13.5 33q0 19 -13.5 32t-32.5 13t-32 -13t-13 -32z" />
    <glyph glyph-name="divide" unicode="&#xf7;" horiz-adv-x="566" 
d="M48 368v-86h471v86h-471zM338 516q0 23 -16 38.5t-39 15.5t-38.5 -15.5t-15.5 -38.5t15.5 -39t38.5 -16t39 16t16 39zM283 190q-23 0 -38.5 -15.5t-15.5 -38.5t15.5 -39t38.5 -16t39 16t16 39t-16 38.5t-39 15.5z" />
    <glyph glyph-name="oslash" unicode="&#xf8;" horiz-adv-x="541" 
d="M495 339q0 88 -56 139l47 74h-57l-31 -48q-51 27 -128 27q-106 0 -165 -50.5t-59 -141.5v-163q0 -87 57 -137l-47 -74h58l30 47q54 -27 126 -27q108 0 166.5 50.5t58.5 140.5v163zM157 123q-22 22 -22 53v164q0 52 36 81t99 29q48 0 82 -19zM270 66q-46 0 -80 19l195 308
q21 -21 21 -53v-164q0 -52 -36 -81t-100 -29z" />
    <glyph glyph-name="ugrave" unicode="&#xf9;" 
d="M490 33v483h-89v-427l-15 -5q-57 -17 -113 -17q-126 0 -126 119v330h-89v-333q0 -198 203 -198q101 0 191 34zM149 679l218 -101l33 44l-200 118z" />
    <glyph glyph-name="uacute" unicode="&#xfa;" 
d="M490 33v483h-89v-427l-15 -5q-57 -17 -113 -17q-126 0 -126 119v330h-89v-333q0 -198 203 -198q101 0 191 34zM351 739l-200 -118l33 -44l218 101z" />
    <glyph glyph-name="ucircumflex" unicode="&#xfb;" 
d="M386 84q-57 -17 -113 -17q-126 0 -126 119v330h-89v-333q0 -198 203 -198q101 0 191 34l38 14v483h-89v-427zM177 581l97 85l93 -85h93l-158 144h-55l-157 -144h87z" />
    <glyph glyph-name="udieresis" unicode="&#xfc;" 
d="M386 84q-57 -17 -113 -17q-126 0 -126 119v330h-89v-333q0 -198 203 -198q101 0 191 34l38 14v483h-89v-427zM131 652q0 -20 13 -33t32 -13t32.5 13t13.5 33q0 19 -13.5 32t-32.5 13t-32 -13t-13 -32zM418 652q0 19 -13.5 32t-32.5 13t-32 -13t-13 -32q0 -20 13 -33
t32 -13t32.5 13t13.5 33z" />
    <glyph glyph-name="yacute" unicode="&#xfd;" horiz-adv-x="553" 
d="M273 -161q-85 0 -124 67l-13 23l-79 -43q4 -7 7 -12q4 -6 5 -9l2 -4q59 -102 203 -102q216 0 216 216v541h-89v-409q-67 -21 -128 -21q-126 0 -126 119v311h-89v-314q0 -198 203 -198q64 0 140 21v-54q0 -132 -128 -132zM152 620l33 -44l217 103l-51 61z" />
    <glyph glyph-name="thorn" unicode="&#xfe;" horiz-adv-x="541" 
d="M282 -15q213 0 213 204v137q0 201 -209 201q-63 0 -134 -21v233h-89v-959h89v232q78 -27 130 -27zM274 446q132 0 132 -122v-133q0 -124 -130 -124q-50 0 -124 25v330q72 24 122 24z" />
    <glyph glyph-name="ydieresis" unicode="&#xff;" horiz-adv-x="553" 
d="M401 -29q0 -132 -128 -132q-85 0 -124 67l-13 23l-79 -43q4 -7 7 -12q4 -6 5 -9l2 -4q59 -102 203 -102q216 0 216 216v541h-89v-409q-67 -21 -128 -21q-126 0 -126 119v311h-89v-314q0 -198 203 -198q64 0 140 21v-54zM131 652q0 -20 13 -33t32 -13t32.5 13t13.5 33
q0 19 -13.5 32t-32.5 13t-32 -13t-13 -32zM327 652q0 -20 13 -33t32 -13t32.5 13t13.5 33q0 19 -13.5 32t-32.5 13t-32 -13t-13 -32z" />
    <glyph glyph-name="Amacron" unicode="&#x100;" horiz-adv-x="649" 
d="M280 712l-279 -712h103l69 186h298l70 -186h106l-278 712h-89zM323 583l119 -318h-239zM185 859v-65h278v65h-278z" />
    <glyph glyph-name="amacron" unicode="&#x101;" horiz-adv-x="516" 
d="M372 294q-30 4 -58.5 5.5t-55.5 1.5q-60 0 -102.5 -8t-69.5 -27t-39 -48.5t-12 -73.5q0 -41 10.5 -71t36 -49.5t67.5 -29t105 -9.5q111 0 172 26l36 16v302q0 47 -11 84.5t-36 63.5t-64 40t-96 14q-149 0 -203 -105l-12 -23l76 -34l13 21q37 61 124 61q66 0 92.5 -30.5
t26.5 -88.5v-38zM357 72q-34 -12 -111 -12q-70 0 -95.5 20.5t-25.5 63.5q0 45 27 64.5t96 19.5q22 0 53 -2t71 -6v-143zM114 682v-65h278v65h-278z" />
    <glyph glyph-name="Abreve" unicode="&#x102;" horiz-adv-x="649" 
d="M280 712l-279 -712h103l69 186h298l70 -186h106l-278 712h-89zM442 265h-239l120 318zM325 827q-68 0 -86 66l-5 17l-66 -26l5 -17q17 -51 55.5 -78t96.5 -27q118 0 154 105l6 17l-69 23l-4 -14q-19 -66 -87 -66z" />
    <glyph glyph-name="abreve" unicode="&#x103;" horiz-adv-x="516" 
d="M253 451q66 0 92.5 -30.5t26.5 -88.5v-38q-30 4 -58.5 5.5t-55.5 1.5q-44 0 -84.5 -4.5t-71 -21t-49 -47.5t-18.5 -84q0 -52 17.5 -83.5t47.5 -48.5t69.5 -22t84.5 -5q111 0 172 26q21 9 28.5 20t7.5 37v261q0 105 -52 153.5t-155 48.5q-149 0 -203 -105q-12 -24 13 -34
l31 -14q9 -3 14 -3q8 0 19 15q37 61 124 61zM248 228q22 0 53 -2t71 -6v-126q0 -16 -15 -22q-34 -12 -111 -12q-23 0 -45 2.5t-39 11.5t-27 25.5t-10 44.5q0 45 27 64.5t96 19.5zM162 732l-66 -26l5 -17q17 -51 55.5 -78t96.5 -27q118 0 154 105l6 17l-69 23l-4 -14
q-19 -66 -87 -66t-86 66z" />
    <glyph glyph-name="Aogonek" unicode="&#x104;" horiz-adv-x="648" 
d="M551 -155q-4 12 0 30t15 38.5t28 43t40 43.5h13l-277 712h-90l-278 -712h102l70 189h297l70 -189h24q-54 -48 -77.5 -99t-13.5 -92q13 -55 82 -55q55 0 93 35l6 6l-22 51l-9 -9q-17 -17 -39 -17q-25 0 -34 25zM323 592l119 -323h-238z" />
    <glyph glyph-name="aogonek" unicode="&#x105;" horiz-adv-x="518" 
d="M258 301q-60 0 -102.5 -8t-69.5 -27t-39 -48.5t-12 -73.5q0 -41 10.5 -71t36 -49.5t67.5 -29t105 -9.5q32 0 59.5 3t52.5 8q-23 -23 -40 -48t-27 -49.5t-13 -47.5t1 -42q12 -55 83 -55q55 0 92 36l6 5l-22 51l-9 -9q-16 -16 -40 -16q-25 0 -33 24q-8 26 13.5 75t72.5 106
l12 13v290q0 47 -11 84.5t-36 63.5t-64 40t-96 14q-149 0 -203 -105l-12 -23l76 -34l13 21q37 61 124 61q66 0 92.5 -30.5t26.5 -88.5v-38q-30 4 -58.5 5.5t-55.5 1.5zM357 72q-34 -12 -111 -12q-70 0 -95.5 20.5t-25.5 63.5q0 45 27 64.5t96 19.5q22 0 53 -2t71 -6v-143z
" />
    <glyph glyph-name="Cacute" unicode="&#x106;" horiz-adv-x="638" 
d="M610 530l-9 28q-57 167 -268 167q-135 0 -207.5 -67.5t-72.5 -188.5v-228q0 -121 72.5 -188.5t207.5 -67.5q215 0 270 172l8 25l-91 33l-9 -26q-19 -58 -61 -86t-117 -28q-88 0 -135.5 43.5t-47.5 121.5v230q0 79 46.5 122t136.5 43q75 0 116.5 -27.5t60.5 -84.5l8 -25z
M247 753l217 103l-51 61l-198 -120z" />
    <glyph glyph-name="cacute" unicode="&#x107;" horiz-adv-x="516" 
d="M488 371l-8 26q-42 134 -211 134q-112 0 -168 -52.5t-56 -148.5v-143q0 -97 54.5 -149.5t163.5 -52.5q170 0 219 138l10 26l-88 26l-8 -24q-28 -87 -131 -87q-64 0 -97 31t-33 88v151q0 57 33 87.5t97 30.5q103 0 130 -84l8 -24zM395 681l-51 61l-198 -120l32 -44z" />
    <glyph glyph-name="Ccircumflex" unicode="&#x108;" horiz-adv-x="638" 
d="M601 558q-57 167 -268 167q-135 0 -207.5 -67.5t-72.5 -188.5v-228q0 -121 72.5 -188.5t207.5 -67.5q215 0 270 172l8 25l-91 33l-9 -26q-19 -58 -61 -86t-117 -28q-88 0 -135.5 43.5t-47.5 121.5v230q0 79 46.5 122t136.5 43q75 0 116.5 -27.5t60.5 -84.5l8 -25l92 32z
M523 761l-158 144h-55l-157 -144h87l97 85l93 -85h93z" />
    <glyph glyph-name="ccircumflex" unicode="&#x109;" horiz-adv-x="516" 
d="M480 397q-42 134 -211 134q-112 0 -168 -52.5t-56 -148.5v-143q0 -97 54.5 -149.5t163.5 -52.5q170 0 219 138l10 26l-88 26l-8 -24q-28 -87 -131 -87q-64 0 -97 31t-33 88v151q0 57 33 87.5t97 30.5q103 0 130 -84l8 -24l85 27zM451 580l-153 140h-54l-154 -140h86
l94 82l90 -82h91z" />
    <glyph glyph-name="Cdotaccent" unicode="&#x10a;" horiz-adv-x="638" 
d="M610 530l-9 28q-57 167 -268 167q-135 0 -207.5 -67.5t-72.5 -188.5v-228q0 -121 72.5 -188.5t207.5 -67.5q215 0 270 172l8 25l-91 33l-9 -26q-19 -58 -61 -86t-117 -28q-88 0 -135.5 43.5t-47.5 121.5v230q0 79 46.5 122t136.5 43q75 0 116.5 -27.5t60.5 -84.5l8 -25z
M337 781q19 0 32.5 13.5t13.5 33.5q0 19 -13.5 32.5t-32.5 13.5q-20 0 -33.5 -13.5t-13.5 -32.5q0 -20 13.5 -33.5t33.5 -13.5z" />
    <glyph glyph-name="cdotaccent" unicode="&#x10b;" horiz-adv-x="516" 
d="M488 371l-8 26q-42 134 -211 134q-112 0 -168 -52.5t-56 -148.5v-143q0 -97 54.5 -149.5t163.5 -52.5q170 0 219 138l10 26l-88 26l-8 -24q-28 -87 -131 -87q-64 0 -97 31t-33 88v151q0 57 33 87.5t97 30.5q103 0 130 -84l8 -24zM223 650q0 -20 13 -33.5t33 -13.5
t33.5 13.5t13.5 33.5q0 19 -13.5 32.5t-33.5 13.5t-33 -13.5t-13 -32.5z" />
    <glyph glyph-name="Ccaron" unicode="&#x10c;" horiz-adv-x="638" 
d="M601 558q-57 167 -268 167q-135 0 -207.5 -67.5t-72.5 -188.5v-228q0 -121 72.5 -188.5t207.5 -67.5q215 0 270 172l8 25l-91 33l-9 -26q-19 -58 -61 -86t-117 -28q-88 0 -135.5 43.5t-47.5 121.5v230q0 79 46.5 122t136.5 43q75 0 116.5 -27.5t60.5 -84.5l8 -25l92 32z
M241 904h-93l158 -144h55l157 144h-87l-97 -85z" />
    <glyph glyph-name="ccaron" unicode="&#x10d;" horiz-adv-x="516" 
d="M269 531q-112 0 -168 -52.5t-56 -148.5v-143q0 -97 54.5 -149.5t163.5 -52.5q170 0 219 138l10 26l-88 26l-8 -24q-28 -87 -131 -87q-64 0 -97 31t-33 88v151q0 57 33 87.5t97 30.5q103 0 130 -84l8 -24l85 27l-8 26q-42 134 -211 134zM351 708l-84 -78l-88 78h-80
l144 -132h50l143 132h-85z" />
    <glyph glyph-name="Dcaron" unicode="&#x10e;" horiz-adv-x="659" 
d="M74 710v-710h244q139 0 214.5 70t75.5 194v182q0 124 -75.5 194t-214.5 70h-244zM511 263q0 -84 -49.5 -128.5t-143.5 -44.5h-147v530h147q94 0 143.5 -44.5t49.5 -128.5v-184zM403 904l-93 -85l-97 85h-87l158 -144h54l157 144h-92z" />
    <glyph glyph-name="dcaron" unicode="&#x10f;" horiz-adv-x="589" 
d="M478 740h-89v-231q-81 22 -140 22q-102 0 -152.5 -52t-50.5 -152v-141q0 -201 214 -201q99 0 179 31l39 15v709zM266 449q53 0 123 -22v-339l-14 -5q-45 -16 -107 -16q-132 0 -132 122v135q0 125 130 125zM666 740h-86l-38 -231h60z" />
    <glyph glyph-name="Dcroat" unicode="&#x110;" horiz-adv-x="672" 
d="M87 710v-315h-83v-63h83v-332h244q139 0 214.5 70t75.5 194v182q0 124 -75.5 194t-214.5 70h-244zM524 263q0 -84 -49.5 -128.5t-143.5 -44.5h-147v242h170v63h-170v225h147q94 0 143.5 -44.5t49.5 -128.5v-184z" />
    <glyph glyph-name="dcroat" unicode="&#x111;" horiz-adv-x="540" 
d="M390 509q-81 21 -140 21q-102 0 -152.5 -51.5t-50.5 -151.5v-141q0 -201 213 -201q99 0 179 31l40 15v573h77v56h-77v80h-89v-80h-155v-56h155v-95zM375 83q-47 -16 -107 -16q-132 0 -132 122v135q0 125 130 125q54 0 124 -22v-339z" />
    <glyph glyph-name="Emacron" unicode="&#x112;" horiz-adv-x="576" 
d="M482 315v90h-311v215h357v90h-454v-710h466v90h-369v225h311zM162 859v-65h278v65h-278z" />
    <glyph glyph-name="emacron" unicode="&#x113;" horiz-adv-x="534" 
d="M270 531q-111 0 -168.5 -55.5t-57.5 -158.5v-124q0 -97 55 -152.5t167 -55.5q157 0 215 103l15 27l-77 39l-13 -22q-42 -69 -139 -69q-66 0 -100 31t-34 89v48h363v93q0 93 -57.5 150t-168.5 57zM407 300h-274v29q0 60 35 93t102 33t102 -33t35 -93v-29zM142 675v-62h256
v62h-256z" />
    <glyph glyph-name="Ebreve" unicode="&#x114;" horiz-adv-x="576" 
d="M171 405v215h357v90h-454v-710h466v90h-369v225h311v90h-311zM462 884l-69 23l-4 -14q-19 -66 -87 -66t-86 66l-5 17l-66 -26l5 -17q17 -51 55.5 -78t96.5 -27q118 0 154 105z" />
    <glyph glyph-name="ebreve" unicode="&#x115;" horiz-adv-x="534" 
d="M496 115l-77 39l-13 -22q-42 -69 -139 -69q-66 0 -100 31t-34 89v48h363v93q0 93 -57.5 150t-168.5 57t-168.5 -55.5t-57.5 -158.5v-124q0 -97 55 -152.5t167 -55.5q157 0 215 103zM407 300h-274v29q0 60 35 93t102 33t102 -33t35 -93v-29zM430 706l-69 23l-4 -14
q-19 -66 -87 -66t-86 66l-4 17l-67 -26l5 -17q17 -51 55.5 -78t96.5 -27q118 0 154 105z" />
    <glyph glyph-name="Edotaccent" unicode="&#x116;" horiz-adv-x="576" 
d="M528 620v90h-454v-710h466v90h-369v225h311v90h-311v215h357zM256 828q0 -20 13 -33.5t33 -13.5t33.5 13.5t13.5 33.5q0 19 -13.5 32.5t-33.5 13.5q-19 0 -32.5 -13.5t-13.5 -32.5z" />
    <glyph glyph-name="edotaccent" unicode="&#x117;" horiz-adv-x="534" 
d="M406 132q-42 -69 -139 -69q-66 0 -100 31t-34 89v48h363v93q0 93 -57.5 150t-168.5 57t-168.5 -55.5t-57.5 -158.5v-124q0 -97 55 -152.5t167 -55.5q157 0 215 103l15 27l-77 39zM407 300h-274v29q0 60 35 93t102 33t102 -33t35 -93v-29zM316 650q0 19 -13.5 32.5
t-33.5 13.5q-19 0 -32.5 -13.5t-13.5 -32.5q0 -20 13 -33.5t33 -13.5t33.5 13.5t13.5 33.5z" />
    <glyph glyph-name="Eogonek" unicode="&#x118;" horiz-adv-x="576" 
d="M171 404v216h357v90h-454v-710h389q-57 -46 -83 -97.5t-15 -91.5q15 -55 82 -55q54 0 91 36l7 6l-21 50l-10 -9q-17 -16 -38 -16q-19 0 -28.5 14.5t-4.5 39t26 57.5t62 69l9 8v79h-369v224h311v90h-311z" />
    <glyph glyph-name="eogonek" unicode="&#x119;" horiz-adv-x="534" 
d="M360 -246q56 0 92 36l7 6l-22 50l-9 -9q-17 -17 -40 -17q-26 0 -33 25q-4 13 0.5 35t16.5 49t31.5 57t44.5 59q18 17 32 43l14 27l-76 39l-13 -22q-40 -69 -139 -69q-66 0 -100 31t-34 89v48h363v93q0 93 -57.5 150t-168.5 57t-168.5 -55.5t-57.5 -158.5v-124
q0 -97 55 -152.5t167 -55.5q52 0 92 13q-46 -51 -67.5 -101.5t-11.5 -87.5q12 -55 82 -55zM132 300v29q0 60 35 93t102 33t102 -33t35 -93v-29h-274z" />
    <glyph glyph-name="Ecaron" unicode="&#x11a;" horiz-adv-x="576" 
d="M171 405v215h357v90h-454v-710h466v90h-369v225h311v90h-311zM396 904l-97 -85l-93 85h-93l158 -144h55l157 144h-87z" />
    <glyph glyph-name="ecaron" unicode="&#x11b;" horiz-adv-x="534" 
d="M267 63q-66 0 -100 31t-34 89v48h363v93q0 93 -57.5 150t-168.5 57t-168.5 -55.5t-57.5 -158.5v-124q0 -97 55 -152.5t167 -55.5q157 0 215 103l15 27l-77 39l-13 -22q-42 -69 -139 -69zM407 300h-274v29q0 60 35 93t102 33t102 -33t35 -93v-29zM179 708h-80l144 -132h50
l143 132h-85l-84 -78z" />
    <glyph glyph-name="Gcircumflex" unicode="&#x11c;" horiz-adv-x="658" 
d="M518 498l92 32l-8 25q-56 170 -269 170q-135 0 -207.5 -67.5t-72.5 -188.5v-228q0 -121 72.5 -188.5t207.5 -67.5q66 0 118 17t88 48t55 75t19 98v155h-295v-90h199v-65q0 -67 -48 -107.5t-136 -40.5t-135.5 43.5t-47.5 122.5v229q0 79 46.5 122t136.5 43
q75 0 116.5 -27.5t60.5 -84.5zM306 915l-157 -144h87l97 85l93 -85h93l-158 144h-55z" />
    <glyph glyph-name="gcircumflex" unicode="&#x11d;" horiz-adv-x="538" 
d="M388 -29q0 -132 -127 -132q-84 0 -123 67l-13 23l-78 -43l14 -25q57 -102 202 -102q215 0 215 216v508l-38 17q-66 31 -174 31q-220 0 -220 -207v-123q0 -198 202 -198q64 0 140 25v-57zM260 85q-125 0 -125 118v118q0 128 137 128q56 0 102 -15l14 -4v-323
q-73 -22 -128 -22zM96 580h86l94 82l90 -82h91l-153 140h-54z" />
    <glyph glyph-name="Gbreve" unicode="&#x11e;" horiz-adv-x="658" 
d="M333 725q-135 0 -207.5 -67.5t-72.5 -188.5v-228q0 -121 72.5 -188.5t207.5 -67.5q66 0 118 17t88 48t55 75t19 98v155h-295v-90h199v-65q0 -67 -48 -107.5t-136 -40.5t-135.5 43.5t-47.5 122.5v229q0 79 46.5 122t136.5 43q75 0 116.5 -27.5t60.5 -84.5l8 -25l92 32
l-8 25q-56 170 -269 170zM333 837q-68 0 -86 66l-5 17l-66 -26l5 -17q17 -51 55.5 -78t96.5 -27q118 0 154 105l6 17l-69 23l-4 -14q-19 -66 -87 -66z" />
    <glyph glyph-name="gbreve" unicode="&#x11f;" horiz-adv-x="538" 
d="M388 -29q0 -132 -127 -132q-84 0 -123 67l-13 23l-78 -43l14 -25q57 -102 202 -102q215 0 215 216v508l-38 17q-66 31 -174 31q-220 0 -220 -207v-123q0 -198 202 -198q64 0 140 25v-57zM260 85q-125 0 -125 118v118q0 128 137 128q56 0 102 -15l14 -4v-323
q-73 -22 -128 -22zM119 706l5 -17q17 -51 55.5 -78t96.5 -27q118 0 154 105l6 17l-69 23l-4 -14q-19 -66 -87 -66t-86 66l-5 17z" />
    <glyph glyph-name="Gdotaccent" unicode="&#x120;" horiz-adv-x="658" 
d="M333 725q-135 0 -207.5 -67.5t-72.5 -188.5v-228q0 -121 72.5 -188.5t207.5 -67.5q66 0 118 17t88 48t55 75t19 98v155h-295v-90h199v-65q0 -67 -48 -107.5t-136 -40.5t-135.5 43.5t-47.5 122.5v229q0 79 46.5 122t136.5 43q75 0 116.5 -27.5t60.5 -84.5l8 -25l92 32
l-8 25q-56 170 -269 170zM333 884q-20 0 -33 -13.5t-13 -32.5q0 -20 13 -33.5t33 -13.5t33.5 13.5t13.5 33.5q0 19 -13.5 32.5t-33.5 13.5z" />
    <glyph glyph-name="gdotaccent" unicode="&#x121;" horiz-adv-x="538" 
d="M261 -161q-84 0 -123 67l-13 23l-78 -43l14 -25q57 -102 202 -102q215 0 215 216v508l-38 17q-66 31 -174 31q-220 0 -220 -207v-123q0 -198 202 -198q64 0 140 25v-57q0 -132 -127 -132zM260 85q-125 0 -125 118v118q0 128 137 128q56 0 102 -15l14 -4v-323
q-73 -22 -128 -22zM275 696q-20 0 -33 -13.5t-13 -32.5q0 -20 13 -33.5t33 -13.5t33.5 13.5t13.5 33.5q0 19 -13.5 32.5t-33.5 13.5z" />
    <glyph glyph-name="uni0122" unicode="&#x122;" horiz-adv-x="658" 
d="M333 75q-88 0 -135.5 43.5t-47.5 122.5v229q0 79 46.5 122t136.5 43q75 0 116.5 -27.5t60.5 -84.5l8 -25l92 32l-8 25q-56 170 -269 170q-135 0 -207.5 -67.5t-72.5 -188.5v-228q0 -121 72.5 -188.5t207.5 -67.5q66 0 118 17t88 48t55 75t19 98v155h-295v-90h199v-65
q0 -67 -48 -107.5t-136 -40.5zM310 -67l-37 -186h69l62 186h-94z" />
    <glyph glyph-name="uni0123" unicode="&#x123;" horiz-adv-x="539" 
d="M261 -161q-84 0 -123 67l-13 23l-78 -43l14 -25q57 -102 202 -102q215 0 215 216v508l-38 17q-66 31 -174 31q-220 0 -220 -207v-123q0 -198 202 -198q64 0 140 25v-57q0 -132 -127 -132zM260 85q-125 0 -125 118v118q0 128 137 128q56 0 102 -15l14 -4v-323
q-73 -22 -128 -22zM212 573h90l41 164h-67z" />
    <glyph glyph-name="Hcircumflex" unicode="&#x124;" horiz-adv-x="683" 
d="M609 710h-96v-305h-342v305h-97v-710h97v315h342v-315h96v710zM245 761l97 85l93 -85h93l-158 144h-55l-157 -144h87z" />
    <glyph glyph-name="hcircumflex" unicode="&#x125;" horiz-adv-x="553" 
d="M406 0h89v333q0 198 -203 198q-95 0 -140 -22v231h-89v-740h89v426q48 23 128 23q126 0 126 -119v-330zM13 788l94 82l90 -82h91l-153 140h-54l-154 -140h86z" />
    <glyph glyph-name="Hbar" unicode="&#x126;" horiz-adv-x="694" 
d="M614 542h71v57h-71v111h-96v-111h-342v111h-97v-111h-69v-57h69v-542h97v315h342v-315h96v542zM176 405v137h342v-137h-342z" />
    <glyph glyph-name="hbar" unicode="&#x127;" horiz-adv-x="553" 
d="M405 0h90v333q0 198 -203 198q-95 0 -140 -22v98h163v54h-163v79h-89v-79h-60v-54h60v-607h89v426q48 23 128 23q125 0 125 -119v-330z" />
    <glyph glyph-name="Itilde" unicode="&#x128;" horiz-adv-x="245" 
d="M74 0h97v710h-97v-710zM272 888h-55v-15q0 -48 -32 -48q-20 0 -61 32q-40 31 -79 31q-80 0 -80 -105v-15h55v15q0 48 33 48q23 0 63 -31q41 -32 75 -32q42 0 61.5 25t19.5 80v15z" />
    <glyph glyph-name="itilde" unicode="&#x129;" horiz-adv-x="213" 
d="M152 0v516h-90v-516h90zM225 720h-48v-15q0 -45 -26 -45q-17 0 -44 30t-58 30q-33 0 -50 -23.5t-17 -80.5v-16h49v16q0 43 27 43q18 0 45 -29q27 -30 56 -30q34 0 50 24t16 81v15z" />
    <glyph glyph-name="Imacron" unicode="&#x12a;" horiz-adv-x="245" 
d="M171 710h-97v-710h97v710zM-17 859v-65h279v65h-279z" />
    <glyph glyph-name="imacron" unicode="&#x12b;" horiz-adv-x="213" 
d="M152 516h-90v-516h90v516zM20 679v-63h173v63h-173z" />
    <glyph glyph-name="Ibreve" unicode="&#x12c;" horiz-adv-x="245" 
d="M74 0h97v710h-97v-710zM209 893q-19 -66 -87 -66t-86 66l-5 17l-66 -26l5 -17q16 -51 55 -78t97 -27q118 0 154 105l6 17l-69 23z" />
    <glyph glyph-name="ibreve" unicode="&#x12d;" horiz-adv-x="213" 
d="M62 0h90v516h-90v-516zM176 714q-17 -62 -69 -62q-54 0 -69 62l-3 15l-67 -23l5 -17q29 -104 134 -104t135 104l5 17l-67 23z" />
    <glyph glyph-name="Iogonek" unicode="&#x12e;" horiz-adv-x="245" 
d="M211 -205l-20 51l-10 -9q-16 -16 -40 -16q-25 0 -34 24q-7 26 6 66.5t49 88.5l9 12v698h-97v-710h28q-92 -110 -72 -191q12 -55 83 -55q55 0 92 36z" />
    <glyph glyph-name="iogonek" unicode="&#x12f;" horiz-adv-x="214" 
d="M62 516v-515h21q-15 -20 -27 -43t-20 -48t-11 -49t0 -45q9 -61 81 -61q51 0 81 36l5 6l-20 52l-10 -13q-12 -16 -30 -16q-11 0 -20 8t-10 21q-4 30 8 72.5t35 79.5l7 12v503h-90zM55 653q0 -22 15 -37t37 -15t37 15t15 37t-15 37t-37 15t-37 -15t-15 -37z" />
    <glyph glyph-name="Idotaccent" unicode="&#x130;" horiz-adv-x="245" 
d="M74 710v-710h97v710h-97zM77 828q0 -20 13 -33.5t33 -13.5t33.5 13.5t13.5 33.5q0 19 -13.5 32.5t-33.5 13.5t-33 -13.5t-13 -32.5z" />
    <glyph glyph-name="dotlessi" unicode="&#x131;" horiz-adv-x="214" 
d="M152 0v516h-90v-516h90z" />
    <glyph glyph-name="IJ" unicode="&#x132;" horiz-adv-x="821" 
d="M259 189l8 -29q50 -175 238 -175q121 0 184 64t63 179v482h-96v-483q0 -73 -38 -112.5t-113 -39.5q-62 0 -96 30t-51 90l-7 27zM74 0h97v710h-97v-710z" />
    <glyph glyph-name="ij" unicode="&#x133;" horiz-adv-x="457" 
d="M305 -6q0 -70 -29 -105.5t-99 -35.5h-24v-83h24q114 0 165.5 56.5t51.5 165.5v524h-89v-522zM152 516h-90v-516h90v516zM55 653q0 -22 15 -37t37 -15t37 15t15 37t-15 37t-37 15t-37 -15t-15 -37zM350 601q22 0 37 15t15 37t-15 37t-37 15t-37 -15t-15 -37t15 -37t37 -15
z" />
    <glyph glyph-name="Jcircumflex" unicode="&#x134;" horiz-adv-x="574" 
d="M408 227q0 -73 -38 -112.5t-113 -39.5q-62 0 -96 30t-51 90l-7 27l-92 -33l8 -29q49 -175 238 -175q121 0 184 64t63 179v482h-96v-483zM456 846l90 -82h91l-153 140h-54l-154 -140h86z" />
    <glyph glyph-name="jcircumflex" unicode="&#x135;" horiz-adv-x="215" 
d="M63 -6q0 -70 -29 -105.5t-99 -35.5h-24v-83h24q114 0 165.5 56.5t51.5 165.5v524h-89v-522zM184 580h91l-138 140h-58l-138 -140h87l79 83z" />
    <glyph glyph-name="uni0136" unicode="&#x136;" horiz-adv-x="617" 
d="M606 710h-117l-230 -306h-88v306h-97v-710h97v316h78q27 0 47 -4t35 -13t27 -24t24 -38l117 -237h113l-150 289q-42 75 -106 96zM320 -253l64 186h-96l-35 -186h67z" />
    <glyph glyph-name="uni0137" unicode="&#x137;" horiz-adv-x="514" 
d="M396 516l-163 -211h-81v435h-89v-740h89v222h84q35 0 55 -12t34 -41l80 -169h99l-102 206q-31 64 -80 82l182 228h-108zM277 -229l54 177h-89l-31 -177h66z" />
    <glyph glyph-name="kgreenlandic" unicode="&#x138;" horiz-adv-x="488" 
d="M487 0l-207 287l203 229h-109l-222 -251v251h-90v-516h90v141l69 78l155 -219h111z" />
    <glyph glyph-name="Lacute" unicode="&#x139;" horiz-adv-x="525" 
d="M74 710v-710h438v90h-341v620h-97zM-1 797l33 -44l217 103l-51 61z" />
    <glyph glyph-name="lacute" unicode="&#x13a;" horiz-adv-x="221" 
d="M155 0v740h-89v-740h89zM-4 810l35 -47l190 81l-53 67z" />
    <glyph glyph-name="uni013B" unicode="&#x13b;" horiz-adv-x="525" 
d="M171 90v620h-97v-710h438v90h-341zM216 -253h67l64 186h-96z" />
    <glyph glyph-name="uni013C" unicode="&#x13c;" horiz-adv-x="221" 
d="M66 740v-740h89v740h-89zM161 -39h-89l-31 -177h66z" />
    <glyph glyph-name="Lcaron" unicode="&#x13d;" horiz-adv-x="525" 
d="M171 90v620h-97v-710h438v90h-341zM314 484h61l67 226h-90z" />
    <glyph glyph-name="lcaron" unicode="&#x13e;" horiz-adv-x="228" 
d="M155 740h-89v-740h89v740zM256 740l-32 -203h61l62 203h-91z" />
    <glyph glyph-name="Ldot" unicode="&#x13f;" horiz-adv-x="525" 
d="M171 90v620h-97v-710h438v90h-341zM357 426q-23 0 -38.5 -15.5t-15.5 -38.5t15.5 -39t38.5 -16t39 16t16 39t-16 38.5t-39 15.5z" />
    <glyph glyph-name="ldot" unicode="&#x140;" horiz-adv-x="354" 
d="M66 0h89v740h-89v-740zM344 376q0 23 -16 38.5t-39 15.5t-38.5 -15.5t-15.5 -38.5t15.5 -39t38.5 -16t39 16t16 39z" />
    <glyph glyph-name="Lslash" unicode="&#x141;" horiz-adv-x="556" 
d="M403 487l-203 -95v317h-96v-362l-115 -54l30 -60l85 40v-274h438v90h-342v229l231 108z" />
    <glyph glyph-name="lslash" unicode="&#x142;" horiz-adv-x="307" 
d="M274 479l-78 -44v304h-89v-354l-106 -59l33 -57l73 41v-311h89v360l109 62z" />
    <glyph glyph-name="Nacute" unicode="&#x143;" horiz-adv-x="693" 
d="M526 180l-365 530h-87v-710h94v529l363 -529h88v710h-93v-530zM257 753l217 103l-51 61l-198 -120z" />
    <glyph glyph-name="nacute" unicode="&#x144;" 
d="M403 24q0 -14 5.5 -19t18.5 -5h42q13 0 18.5 5t5.5 19v309q0 198 -203 198q-110 0 -191 -34q-23 -10 -30.5 -21t-7.5 -35v-417q0 -24 23 -24h42q14 0 19 5t5 19v389q0 14 12 18q56 18 116 18q125 0 125 -119v-306zM153 623l32 -44l217 103l-51 61z" />
    <glyph glyph-name="uni0145" unicode="&#x145;" horiz-adv-x="693" 
d="M526 180l-365 530h-87v-710h94v529l363 -529h88v710h-93v-530zM346 -253l64 186h-96l-35 -186h67z" />
    <glyph glyph-name="uni0146" unicode="&#x146;" 
d="M290 531q-110 0 -191 -34q-23 -10 -30.5 -21t-7.5 -35v-417q0 -24 23 -24h42q14 0 19 5t5 19v389q0 14 12 18q56 18 116 18q125 0 125 -119v-306q0 -14 5.5 -19t18.5 -5h42q13 0 18.5 5t5.5 19v309q0 198 -203 198zM281 -216l54 177h-89l-31 -177h66z" />
    <glyph glyph-name="Ncaron" unicode="&#x147;" horiz-adv-x="693" 
d="M619 0v710h-93v-530l-365 530h-87v-710h94v529l363 -529h88zM159 904l158 -144h55l157 144h-87l-97 -85l-93 85h-93z" />
    <glyph glyph-name="ncaron" unicode="&#x148;" 
d="M403 24q0 -14 5.5 -19t18.5 -5h42q13 0 18.5 5t5.5 19v309q0 198 -203 198q-110 0 -191 -34q-23 -10 -30.5 -21t-7.5 -35v-417q0 -24 23 -24h42q14 0 19 5t5 19v389q0 14 12 18q56 18 116 18q125 0 125 -119v-306zM358 708l-84 -78l-88 78h-80l144 -132h50l143 132h-85z
" />
    <glyph glyph-name="napostrophe" unicode="&#x149;" 
d="M290 531q-110 0 -191 -34q-23 -10 -30.5 -21t-7.5 -35v-417q0 -24 23 -24h42q14 0 19 5t5 19v389q0 14 12 18q56 18 116 18q125 0 125 -119v-306q0 -14 5.5 -19t18.5 -5h42q13 0 18.5 5t5.5 19v309q0 198 -203 198zM204 740h-92l-79 -201h60z" />
    <glyph glyph-name="Eng" unicode="&#x14a;" horiz-adv-x="693" 
d="M364 -230h25q112 0 170.5 57t58.5 163v720h-93v-530l-365 530h-87v-710h94v528l358 -519v-16q0 -140 -136 -140h-25v-83z" />
    <glyph glyph-name="eng" unicode="&#x14b;" 
d="M270 -230q109 0 166 55.5t57 158.5v349q0 198 -203 198q-110 0 -191 -34l-38 -16v-481h89v427l12 4q56 18 116 18q125 0 125 -119v-343q0 -137 -133 -137h-23v-80h23z" />
    <glyph glyph-name="Omacron" unicode="&#x14c;" horiz-adv-x="666" 
d="M613 469q0 121 -72.5 188.5t-207.5 67.5t-207.5 -67.5t-72.5 -188.5v-228q0 -121 72.5 -188.5t207.5 -67.5t207.5 67.5t72.5 188.5v228zM333 75q-88 0 -135.5 42.5t-47.5 123.5v228q0 81 47.5 123.5t135.5 42.5t135.5 -42.5t47.5 -123.5v-228q0 -81 -47.5 -123.5
t-135.5 -42.5zM472 804v65h-277v-65h277z" />
    <glyph glyph-name="omacron" unicode="&#x14d;" horiz-adv-x="541" 
d="M495 339q0 91 -58.5 141.5t-166.5 50.5q-106 0 -165 -50.5t-59 -141.5v-163q0 -90 59 -140.5t165 -50.5q108 0 166.5 50.5t58.5 140.5v163zM270 66q-63 0 -99 29t-36 81v164q0 52 36 81t99 29q64 0 100 -29t36 -81v-164q0 -52 -36 -81t-100 -29zM398 613v62h-256v-62h256
z" />
    <glyph glyph-name="Obreve" unicode="&#x14e;" horiz-adv-x="666" 
d="M613 469q0 121 -72.5 188.5t-207.5 67.5t-207.5 -67.5t-72.5 -188.5v-228q0 -121 72.5 -188.5t207.5 -67.5t207.5 67.5t72.5 188.5v228zM516 241q0 -81 -47.5 -123.5t-135.5 -42.5t-135.5 42.5t-47.5 123.5v228q0 81 47.5 123.5t135.5 42.5t135.5 -42.5t47.5 -123.5v-228
zM333 837q-68 0 -86 66l-5 17l-66 -26l5 -17q17 -51 55.5 -78t96.5 -27q118 0 154 105l6 17l-69 23l-4 -14q-19 -66 -87 -66z" />
    <glyph glyph-name="obreve" unicode="&#x14f;" horiz-adv-x="541" 
d="M495 339q0 91 -58.5 141.5t-166.5 50.5q-106 0 -165 -50.5t-59 -141.5v-163q0 -90 59 -140.5t165 -50.5q108 0 166.5 50.5t58.5 140.5v163zM406 176q0 -52 -36 -81t-100 -29q-63 0 -99 29t-36 81v164q0 52 36 81t99 29q64 0 100 -29t36 -81v-164zM430 706l-69 23l-4 -14
q-19 -66 -87 -66t-86 66l-5 17l-66 -26l5 -17q17 -51 55.5 -78t96.5 -27q118 0 154 105z" />
    <glyph glyph-name="Ohungarumlaut" unicode="&#x150;" horiz-adv-x="666" 
d="M613 469q0 121 -72.5 188.5t-207.5 67.5t-207.5 -67.5t-72.5 -188.5v-228q0 -121 72.5 -188.5t207.5 -67.5t207.5 67.5t72.5 188.5v228zM516 241q0 -81 -47.5 -123.5t-135.5 -42.5t-135.5 42.5t-47.5 123.5v228q0 81 47.5 123.5t135.5 42.5t135.5 -42.5t47.5 -123.5v-228
zM392 765l149 136l-80 24l-118 -143zM368 901l-78 24l-113 -141l49 -16z" />
    <glyph glyph-name="ohungarumlaut" unicode="&#x151;" horiz-adv-x="541" 
d="M495 339q0 91 -58.5 141.5t-166.5 50.5q-106 0 -165 -50.5t-59 -141.5v-163q0 -90 59 -140.5t165 -50.5q108 0 166.5 50.5t58.5 140.5v163zM406 176q0 -52 -36 -81t-100 -29q-63 0 -99 29t-36 81v164q0 52 36 81t99 29q64 0 100 -29t36 -81v-164zM324 569l139 123l-73 21
l-111 -130zM172 571l128 120l-69 24l-104 -131z" />
    <glyph glyph-name="OE" unicode="&#x152;" horiz-adv-x="851" 
d="M515 620h289v90h-359q-48 15 -112 15q-135 0 -207.5 -67.5t-72.5 -188.5v-228q0 -121 72.5 -188.5t207.5 -67.5q63 0 112 15h371v90h-301v224h242v90h-242v216zM333 635q52 0 85 -13v-534q-30 -13 -85 -13q-88 0 -135.5 42.5t-47.5 123.5v228q0 81 47.5 123.5t135.5 42.5
z" />
    <glyph glyph-name="oe" unicode="&#x153;" horiz-adv-x="823" 
d="M785 231v94q0 94 -51.5 150t-156.5 56q-113 0 -160 -75q-46 75 -164 75q-99 0 -152.5 -50.5t-53.5 -140.5v-164q0 -91 53.5 -141t152.5 -50q115 0 163 73q46 -73 159 -73q76 0 121 25.5t74 76.5q1 1 3 4.5t5 8.5q3 6 7 13l-76 42l-15 -26q-20 -33 -46.5 -49.5
t-71.5 -16.5q-116 0 -116 119v49h325zM137 340q0 52 30.5 81t85.5 29q57 0 87 -29t30 -81v-164q0 -52 -31 -81t-86 -29t-85.5 29t-30.5 81v164zM460 330q0 125 117 125q118 0 118 -125v-30h-235v30z" />
    <glyph glyph-name="Racute" unicode="&#x154;" horiz-adv-x="647" 
d="M74 710v-710h97v285h107q26 0 45.5 -3.5t34.5 -12.5t27.5 -24t24.5 -38l102 -207h113l-125 242q-23 41 -50 56q70 16 108.5 67t38.5 132q0 102 -57 157.5t-159 55.5h-307zM372 620q60 0 92 -31.5t32 -91.5q0 -58 -32 -90t-92 -32h-201v245h201zM198 797l32 -44l217 103
l-50 61z" />
    <glyph glyph-name="racute" unicode="&#x155;" horiz-adv-x="346" 
d="M164 432q57 17 115 17h59v82h-56q-54 -1 -99.5 -9t-83.5 -22q-23 -10 -30.5 -21t-7.5 -35v-444h89v412q0 15 14 20zM83 622l32 -44l217 103l-51 61z" />
    <glyph glyph-name="uni0156" unicode="&#x156;" horiz-adv-x="647" 
d="M74 710v-710h97v285h107q26 0 45.5 -3.5t34.5 -12.5t27.5 -24t24.5 -38l102 -207h113l-125 242q-23 41 -50 56q70 16 108.5 67t38.5 132q0 102 -57 157.5t-159 55.5h-307zM171 375v245h201q60 0 92 -31.5t32 -91.5q0 -58 -32 -90t-92 -32h-201zM397 -67h-96l-35 -186h67z
" />
    <glyph glyph-name="uni0157" unicode="&#x157;" horiz-adv-x="346" 
d="M338 449v82h-56q-54 -1 -99.5 -9t-83.5 -22q-23 -10 -30.5 -21t-7.5 -35v-444h89v412q0 15 14 20q57 17 115 17h59zM66 -41l-29 -183h67l52 183h-90z" />
    <glyph glyph-name="Rcaron" unicode="&#x158;" horiz-adv-x="647" 
d="M74 710v-710h97v285h107q26 0 45.5 -3.5t34.5 -12.5t27.5 -24t24.5 -38l102 -207h113l-125 242q-23 41 -50 56q70 16 108.5 67t38.5 132q0 102 -57 157.5t-159 55.5h-307zM171 375v245h201q60 0 92 -31.5t32 -91.5q0 -58 -32 -90t-92 -32h-201zM415 904l-97 -85l-93 85
h-93l158 -144h55l157 144h-87z" />
    <glyph glyph-name="rcaron" unicode="&#x159;" horiz-adv-x="346" 
d="M164 432q57 17 115 17h59v82h-56q-54 -1 -99.5 -9t-83.5 -22q-23 -10 -30.5 -21t-7.5 -35v-444h89v412q0 15 14 20zM372 708h-85l-84 -78l-88 78h-80l144 -132h50z" />
    <glyph glyph-name="Sacute" unicode="&#x15a;" horiz-adv-x="629" 
d="M590 202q-3 60 -23.5 97t-54.5 58.5t-78.5 31t-94.5 15.5q-36 5 -59 8t-51 12q-35 11 -58.5 32.5t-23.5 62.5q0 113 167 113q66 0 105.5 -24.5t66.5 -76.5l12 -23l89 41q-3 7 -6 13q-1 2 -2 4.5t-2 4.5l-2 4q-38 77 -99 113.5t-162 36.5q-63 0 -112.5 -15t-83.5 -43
t-52 -67t-18 -87q0 -62 23.5 -99t62 -58t86.5 -29.5t96 -14.5q27 -3 58 -7.5t57.5 -16t44 -32.5t17.5 -56q0 -124 -180 -124q-131 0 -181 113l-11 25l-90 -34l9 -24q34 -87 98.5 -129t174.5 -42q134 0 205.5 57.5t71.5 159.5zM194 807l33 -44l217 103l-51 61z" />
    <glyph glyph-name="sacute" unicode="&#x15b;" horiz-adv-x="500" 
d="M383 365l81 33l-12 25q-49 108 -209 108q-99 0 -150 -41.5t-51 -113.5q0 -48 17.5 -77t46 -45.5t65 -23t74.5 -10.5q36 -4 61 -9t41 -13.5t23.5 -22t7.5 -34.5q0 -76 -125 -76q-106 0 -135 72l-9 23l-81 -28q3 -6 5 -12q4 -10 4 -12q47 -123 219 -123q103 0 156 42.5
t53 117.5q0 41 -12.5 68t-37 44.5t-61.5 27t-87 14.5q-36 3 -62 7.5t-42.5 13t-24 22.5t-7.5 36q0 72 114 72q54 0 83 -16.5t45 -48.5zM129 620l32 -44l217 103l-51 61z" />
    <glyph glyph-name="Scircumflex" unicode="&#x15c;" horiz-adv-x="629" 
d="M590 202q-3 60 -23.5 97t-54.5 58.5t-78.5 31t-94.5 15.5q-36 5 -59 8t-51 12q-35 11 -58.5 32.5t-23.5 62.5q0 113 167 113q66 0 105.5 -24.5t66.5 -76.5l12 -23l89 41q-3 7 -6 13q-1 2 -2 4.5t-2 4.5l-2 4q-38 77 -99 113.5t-162 36.5q-63 0 -112.5 -15t-83.5 -43
t-52 -67t-18 -87q0 -62 23.5 -99t62 -58t86.5 -29.5t96 -14.5q27 -3 58 -7.5t57.5 -16t44 -32.5t17.5 -56q0 -124 -180 -124q-131 0 -181 113l-11 25l-90 -34l9 -24q34 -87 98.5 -129t174.5 -42q134 0 205.5 57.5t71.5 159.5zM503 770l-158 144h-55l-157 -144h87l97 85
l93 -85h93z" />
    <glyph glyph-name="scircumflex" unicode="&#x15d;" horiz-adv-x="500" 
d="M383 365l81 33l-12 25q-49 108 -209 108q-99 0 -150 -41.5t-51 -113.5q0 -48 17.5 -77t46 -45.5t65 -23t74.5 -10.5q36 -4 61 -9t41 -13.5t23.5 -22t7.5 -34.5q0 -76 -125 -76q-106 0 -135 72l-9 23l-81 -28q3 -6 5 -12q4 -10 4 -12q47 -123 219 -123q103 0 156 42.5
t53 117.5q0 41 -12.5 68t-37 44.5t-61.5 27t-87 14.5q-36 3 -62 7.5t-42.5 13t-24 22.5t-7.5 36q0 72 114 72q54 0 83 -16.5t45 -48.5zM436 578l-158 144h-55l-157 -144h87l97 85l93 -85h93z" />
    <glyph glyph-name="Scedilla" unicode="&#x15e;" horiz-adv-x="629" 
d="M228 424q-35 11 -58.5 32.5t-23.5 62.5q0 113 167 113q66 0 105.5 -24.5t66.5 -76.5l12 -23l89 41q-3 7 -6 13q-1 2 -2 4.5t-2 4.5l-2 4q-38 77 -99 113.5t-162 36.5q-63 0 -112.5 -15t-83.5 -43t-52 -67t-18 -87q0 -62 23.5 -99t62 -58t86.5 -29.5t96 -14.5
q27 -3 58 -7.5t57.5 -16t44 -32.5t17.5 -56q0 -124 -180 -124q-131 0 -181 113l-11 25l-90 -34l9 -24q33 -85 94 -126.5t164 -44.5l-32 -78q0 -1 -1.5 -4.5t-3.5 -8.5q-2 -6 -5 -12l22 5q14 3 29 3q52 -1 52 -36q0 -47 -60 -47q-35 0 -67 20l-14 9l3 -59l13 -7
q28 -16 77 -16q54 0 87.5 22.5t37.5 73.5q3 37 -20.5 61t-63.5 24q-4 0 -9 -0.5t-11 -1.5l20 53q115 9 176.5 65.5t61.5 150.5q-3 60 -23.5 97t-54.5 58.5t-78.5 31t-94.5 15.5q-36 5 -59 8t-51 12z" />
    <glyph glyph-name="scedilla" unicode="&#x15f;" horiz-adv-x="500" 
d="M208 -115q14 3 29 3q51 -2 51 -35q0 -45 -59 -45q-35 0 -66 19l-14 9l3 -57l13 -7q29 -15 75 -15q53 0 86 22t37 70q3 36 -20 59t-62 23q-5 0 -9.5 -0.5t-10.5 -1.5l22 57q90 5 136 47.5t46 111.5q0 41 -12.5 68t-37 44.5t-61.5 27t-87 14.5q-36 3 -62 7.5t-42.5 13
t-24 22.5t-7.5 36q0 72 114 72q54 0 83 -16.5t45 -48.5l10 -20l81 33l-12 25q-49 108 -209 108q-99 0 -150 -41.5t-51 -113.5q0 -48 17.5 -77t46 -45.5t65 -23t74.5 -10.5q36 -4 61 -9t41 -13.5t23.5 -22t7.5 -34.5q0 -76 -125 -76q-106 0 -135 72l-9 23l-81 -28q3 -6 5 -12
q4 -10 4 -12q43 -113 193 -122l-34 -82q0 -4 -5 -12q-2 -6 -5 -12z" />
    <glyph glyph-name="Scaron" unicode="&#x160;" horiz-adv-x="629" 
d="M313 76q-131 0 -181 113l-11 25l-90 -34l9 -24q34 -87 98.5 -129t174.5 -42q134 0 205.5 57.5t71.5 159.5q-3 60 -23.5 97t-54.5 58.5t-78.5 31t-94.5 15.5q-36 5 -59 8t-51 12q-35 11 -58.5 32.5t-23.5 62.5q0 113 167 113q66 0 105.5 -24.5t66.5 -76.5l12 -23l89 41
q-3 7 -6 13q-1 2 -2 4.5t-2 4.5l-2 4q-38 77 -99 113.5t-162 36.5q-63 0 -112.5 -15t-83.5 -43t-52 -67t-18 -87q0 -62 23.5 -99t62 -58t86.5 -29.5t96 -14.5q27 -3 58 -7.5t57.5 -16t44 -32.5t17.5 -56q0 -124 -180 -124zM222 914h-93l158 -144h55l157 144h-87l-97 -85z
" />
    <glyph glyph-name="scaron" unicode="&#x161;" horiz-adv-x="500" 
d="M383 365l81 33l-12 25q-49 108 -209 108q-99 0 -150 -41.5t-51 -113.5q0 -48 17.5 -77t46 -45.5t65 -23t74.5 -10.5q36 -4 61 -9t41 -13.5t23.5 -22t7.5 -34.5q0 -76 -125 -76q-106 0 -135 72l-9 23l-81 -28q3 -6 5 -12q4 -10 4 -12q47 -123 219 -123q103 0 156 42.5
t53 117.5q0 41 -12.5 68t-37 44.5t-61.5 27t-87 14.5q-36 3 -62 7.5t-42.5 13t-24 22.5t-7.5 36q0 72 114 72q54 0 83 -16.5t45 -48.5zM160 706h-80l144 -132h50l143 132h-85l-84 -78z" />
    <glyph glyph-name="Tcaron" unicode="&#x164;" horiz-adv-x="554" 
d="M325 620h215v90h-526v-90h215v-620h96v620zM459 904h-87l-97 -85l-93 85h-93l158 -144h55z" />
    <glyph glyph-name="tcaron" unicode="&#x165;" horiz-adv-x="372" 
d="M327 70q-36 0 -60 6t-38 20.5t-20 39.5t-6 64v233h154v83h-154v120h-89v-120h-107v-83h107v-235q0 -62 11 -103t36.5 -65t67.5 -34t103 -10h25v84h-30zM274 555h58l59 185h-90z" />
    <glyph glyph-name="Tbar" unicode="&#x166;" horiz-adv-x="573" 
d="M92 363v-70h146v-293h97v293h147v70h-147v257h215v90h-526v-90h214v-257h-146z" />
    <glyph glyph-name="tbar" unicode="&#x167;" horiz-adv-x="378" 
d="M208 234h120v63h-120v137h154v83h-154v120h-90v-120h-106v-83h106v-137h-91v-63h91v-36q0 -62 11.5 -103t37.5 -65t67.5 -33.5t102.5 -9.5h25v84h-25q-38 0 -63 5.5t-39.5 20t-20.5 39.5t-6 63v35z" />
    <glyph glyph-name="Utilde" unicode="&#x168;" horiz-adv-x="685" 
d="M617 710h-97v-468q0 -79 -44.5 -123t-132.5 -44t-132.5 44t-44.5 123v468h-96v-467q0 -121 69.5 -189.5t203.5 -68.5t204 68.5t70 189.5v467zM344 857q-40 31 -79 31q-80 0 -80 -105v-15h55v15q0 48 33 48q23 0 63 -31q41 -32 75 -32q42 0 61.5 25t19.5 80v15h-55v-15
q0 -48 -32 -48q-20 0 -61 32z" />
    <glyph glyph-name="utilde" unicode="&#x169;" 
d="M273 67q-126 0 -126 119v330h-89v-333q0 -198 203 -198q101 0 191 34l38 14v483h-89v-427l-15 -5q-57 -17 -113 -17zM276 683q-40 31 -79 31q-80 0 -80 -105v-15h55v15q0 48 33 48q23 0 63 -31q41 -32 75 -32q42 0 61.5 25t19.5 80v15h-55v-15q0 -48 -32 -48
q-20 0 -61 32z" />
    <glyph glyph-name="Umacron" unicode="&#x16a;" horiz-adv-x="685" 
d="M520 242q0 -79 -44.5 -123t-132.5 -44t-132.5 44t-44.5 123v468h-96v-467q0 -121 69.5 -189.5t203.5 -68.5t204 68.5t70 189.5v467h-97v-468zM481 794v65h-278v-65h278z" />
    <glyph glyph-name="umacron" unicode="&#x16b;" 
d="M147 516h-89v-333q0 -198 203 -198q101 0 191 34l38 14v483h-89v-427l-15 -5q-57 -17 -113 -17q-126 0 -126 119v330zM136 682v-65h278v65h-278z" />
    <glyph glyph-name="Ubreve" unicode="&#x16c;" horiz-adv-x="685" 
d="M520 242q0 -79 -44.5 -123t-132.5 -44t-132.5 44t-44.5 123v468h-96v-467q0 -121 69.5 -189.5t203.5 -68.5t204 68.5t70 189.5v467h-97v-468zM429 893q-19 -66 -87 -66t-86 66l-5 17l-66 -26l5 -17q17 -51 55.5 -78t96.5 -27q118 0 154 105l6 17l-69 23z" />
    <glyph glyph-name="ubreve" unicode="&#x16d;" 
d="M401 89l-15 -5q-57 -17 -113 -17q-126 0 -126 119v330h-89v-333q0 -198 203 -198q101 0 191 34l38 14v483h-89v-427zM361 715q-19 -66 -87 -66t-86 66l-5 17l-66 -26l5 -17q17 -51 55.5 -78t96.5 -27q118 0 154 105l6 17l-69 23z" />
    <glyph glyph-name="Uring" unicode="&#x16e;" horiz-adv-x="685" 
d="M520 242q0 -79 -44.5 -123t-132.5 -44t-132.5 44t-44.5 123v468h-96v-467q0 -121 69.5 -189.5t203.5 -68.5t204 68.5t70 189.5v467h-97v-468zM347 946q-48 0 -77 -28t-29 -74q0 -45 29 -73t77 -28q46 0 74 28t28 73q0 47 -27.5 74.5t-74.5 27.5zM347 788q-28 0 -44 15
t-16 41t16 41.5t44 15.5q26 0 41 -15q15 -16 15 -42t-15 -41q-16 -15 -41 -15z" />
    <glyph glyph-name="uring" unicode="&#x16f;" 
d="M401 89l-15 -5q-57 -17 -113 -17q-126 0 -126 119v330h-89v-333q0 -198 203 -198q101 0 191 34l38 14v483h-89v-427zM277 546q46 0 74.5 28t28.5 73q0 46 -28.5 74.5t-74.5 28.5q-48 0 -77 -28.5t-29 -74.5q0 -45 29 -73t77 -28zM334 647q0 -25 -16 -40.5t-41 -15.5
q-27 0 -43.5 15.5t-16.5 40.5q0 26 16.5 41.5t43.5 15.5q26 0 41.5 -15.5t15.5 -41.5z" />
    <glyph glyph-name="Uhungarumlaut" unicode="&#x170;" horiz-adv-x="685" 
d="M520 242q0 -79 -44.5 -123t-132.5 -44t-132.5 44t-44.5 123v468h-96v-467q0 -121 69.5 -189.5t203.5 -68.5t204 68.5t70 189.5v467h-97v-468zM351 772l49 -17l149 136l-79 24zM376 891l-77 24l-114 -141l49 -16z" />
    <glyph glyph-name="uhungarumlaut" unicode="&#x171;" 
d="M386 84q-57 -17 -113 -17q-126 0 -126 119v330h-89v-333q0 -198 203 -198q101 0 191 34l38 14v483h-89v-427zM283 587l49 -17l149 136l-79 24zM166 573l142 133l-77 24l-114 -141z" />
    <glyph glyph-name="Uogonek" unicode="&#x172;" horiz-adv-x="685" 
d="M483 -163q-16 -16 -40 -16q-25 0 -34 24q-3 13 3 34t21.5 47t39.5 55t57 59q86 68 86 203v467h-97v-468q0 -79 -44.5 -123t-132.5 -44t-132.5 44t-44.5 123v468h-96v-467q0 -120 70 -189t203 -69q43 0 76 9q-48 -49 -71.5 -98.5t-14.5 -86.5q13 -55 83 -55q55 0 92 36
l6 5l-20 51z" />
    <glyph glyph-name="uogonek" unicode="&#x173;" 
d="M401 89l-15 -5q-57 -17 -113 -17q-126 0 -126 119v330h-89v-333q0 -198 203 -198q74 0 131 17q-23 -24 -40 -50t-27.5 -51.5t-13.5 -49.5t2 -42q12 -55 82 -55q56 0 92 36l7 6l-21 50l-10 -9q-16 -16 -40 -16q-25 0 -33 24q-4 13 0 34t15.5 46.5t29.5 53.5t42 55l7 7l6 7
v468h-89v-427z" />
    <glyph glyph-name="Wcircumflex" unicode="&#x174;" horiz-adv-x="890" 
d="M399 702l-147 -532l-130 540h-106l184 -710h96l149 545l147 -545h97l185 710h-100l-129 -544l-147 536h-99zM478 904h-54l-154 -140h86l94 82l90 -82h91z" />
    <glyph glyph-name="wcircumflex" unicode="&#x175;" horiz-adv-x="733" 
d="M327 509l-115 -367l-103 374h-94l155 -518h79l116 386l117 -386h80l157 518h-91l-103 -371l-116 364h-82zM396 720h-54l-154 -140h86l94 82l90 -82h91z" />
    <glyph glyph-name="Ycircumflex" unicode="&#x176;" horiz-adv-x="634" 
d="M365 284l271 426h-118l-200 -326l-198 326h-122l271 -424v-286h96v284zM139 764h86l94 82l90 -82h91l-153 140h-54z" />
    <glyph glyph-name="ycircumflex" unicode="&#x177;" horiz-adv-x="553" 
d="M401 -29q0 -132 -128 -132q-85 0 -124 67l-13 23l-79 -43q4 -7 7 -12q4 -6 5 -9l2 -4q59 -102 203 -102q216 0 216 216v541h-89v-409q-67 -21 -128 -21q-126 0 -126 119v311h-89v-314q0 -198 203 -198q64 0 140 21v-54zM455 580l-153 140h-54l-154 -140h86l94 82l90 -82
h91z" />
    <glyph glyph-name="Ydieresis" unicode="&#x178;" horiz-adv-x="634" 
d="M365 284l271 426h-118l-200 -326l-198 326h-122l271 -424v-286h96v284zM221 784q19 0 32.5 13t13.5 33q0 19 -13.5 32t-32.5 13t-32 -13t-13 -32q0 -20 13 -33t32 -13zM417 784q19 0 32.5 13t13.5 33q0 19 -13.5 32t-32.5 13t-32 -13t-13 -32q0 -20 13 -33t32 -13z" />
    <glyph glyph-name="Zacute" unicode="&#x179;" horiz-adv-x="576" 
d="M536 710h-498v-90h377l-382 -542v-78h511v90h-390l382 542v78zM369 917l-198 -120l32 -44l217 103z" />
    <glyph glyph-name="zacute" unicode="&#x17a;" horiz-adv-x="463" 
d="M428 444v72h-393v-81h277l-282 -365v-70h402v81h-288zM141 577l217 103l-51 61l-198 -120z" />
    <glyph glyph-name="Zdotaccent" unicode="&#x17b;" horiz-adv-x="576" 
d="M536 710h-498v-90h377l-382 -542v-78h511v90h-390l382 542v78zM341 828q0 19 -13.5 32.5t-33.5 13.5t-33 -13.5t-13 -32.5q0 -20 13 -33.5t33 -13.5t33.5 13.5t13.5 33.5z" />
    <glyph glyph-name="zdotaccent" unicode="&#x17c;" horiz-adv-x="463" 
d="M428 516h-393v-81h277l-282 -365v-70h402v81h-288l284 363v72zM278 650q0 19 -13.5 32.5t-33.5 13.5t-33 -13.5t-13 -32.5q0 -20 13 -33.5t33 -13.5t33.5 13.5t13.5 33.5z" />
    <glyph glyph-name="Zcaron" unicode="&#x17d;" horiz-adv-x="576" 
d="M536 632v78h-498v-90h377l-382 -542v-78h511v90h-390zM318 760l157 144h-87l-97 -85l-93 85h-93l158 -144h55z" />
    <glyph glyph-name="zcaron" unicode="&#x17e;" horiz-adv-x="463" 
d="M428 516h-393v-81h277l-282 -365v-70h402v81h-288l284 363v72zM205 573h50l143 132h-85l-84 -78l-88 78h-80z" />
    <glyph glyph-name="longs" unicode="&#x17f;" horiz-adv-x="276" 
d="M346 657v83h-24q-115 0 -167 -49.5t-52 -155.5v-19h-92v-83h92v-433h90v528q0 70 28.5 99.5t100.5 29.5h24z" />
    <glyph glyph-name="florin" unicode="&#x192;" horiz-adv-x="452" 
d="M282 526q7 66 36.5 98.5t96.5 32.5h24v83h-24q-108 0 -160 -53.5t-63 -156.5l-13 -131h-148v-83h139l-34 -322q-7 -64 -37 -97.5t-96 -33.5h-25v-83h25q108 0 160 54.5t62 156.5l35 325h154v83h-146z" />
    <glyph glyph-name="Aringacute" unicode="&#x1fa;" horiz-adv-x="648" 
d="M382 670q48 23 48 75q0 45 -29.5 74t-75.5 29q-48 0 -78 -29t-30 -74q0 -53 49 -75l-265 -670h101l71 189h297l70 -189h106zM323 588l117 -319h-237zM380 748q0 -22 -15.5 -36.5t-39.5 -14.5q-25 0 -41.5 14.5t-16.5 36.5q0 24 16 39t42 15q24 0 39.5 -15t15.5 -39z
M213 885l32 -32l201 73l-43 46z" />
    <glyph glyph-name="aringacute" unicode="&#x1fb;" horiz-adv-x="516" 
d="M372 294q-30 4 -58.5 5.5t-55.5 1.5q-60 0 -102.5 -8t-69.5 -27t-39 -48.5t-12 -73.5q0 -41 10.5 -71t36 -49.5t67.5 -29t105 -9.5q111 0 172 26l36 16v302q0 47 -11 84.5t-36 63.5t-64 40t-96 14q-149 0 -203 -105l-12 -23l76 -34l13 21q37 61 124 61q66 0 92.5 -30.5
t26.5 -88.5v-38zM246 60q-70 0 -95.5 20.5t-25.5 63.5q0 45 27 64.5t96 19.5q22 0 53 -2t71 -6v-143l-15 -5q-34 -12 -111 -12zM361 671q0 46 -28.5 74t-74.5 28q-48 0 -77 -28t-29 -74q0 -45 29 -73t77 -28q46 0 74.5 28t28.5 73zM198 671q0 30 18.5 43.5t46.5 13.5
q18 0 30.5 -11t18 -26.5t3 -32t-14.5 -27.5q-16 -16 -42 -16q-27 0 -43.5 15.5t-16.5 40.5zM139 820l32 -33l201 73l-44 46z" />
    <glyph glyph-name="AEacute" unicode="&#x1fc;" horiz-adv-x="843" 
d="M515 620h281v90h-372l-442 -710h110l97 163h232v-163h387v90h-293v224h235v90h-235v216zM421 243h-184l184 305v-305zM486 796l32 -43l216 102l-51 62z" />
    <glyph glyph-name="aeacute" unicode="&#x1fd;" horiz-adv-x="793" 
d="M666 131q-20 -34 -47 -51t-72 -17q-116 0 -116 119v49h324v94q0 94 -51 150t-156 56q-112 0 -158 -73q-42 73 -150 73q-133 0 -187 -105l-12 -23l77 -33l12 20q37 61 108 61q59 0 81 -28t22 -81v-49q-32 4 -56.5 5.5t-42.5 1.5q-57 0 -96 -8t-64 -27t-36 -48.5t-11 -73.5
q0 -41 10 -70.5t33.5 -49t62.5 -29t97 -9.5q103 0 168 50q47 -50 140 -50q76 0 121 25.5t74 76.5l15 26l-76 41zM431 300v30q0 125 117 125q118 0 118 -125v-30h-235zM126 143q0 45 23 64.5t84 19.5q17 0 44 -1.5t64 -5.5v-62q0 -17 1 -31.5t3 -26.5q-1 -4 -7 -10.5t-19 -13
t-34.5 -11.5t-54.5 -5q-61 0 -82.5 20t-21.5 63zM517 684l-52 62l-197 -121l32 -43z" />
    <glyph glyph-name="Oslashacute" unicode="&#x1fe;" horiz-adv-x="666" 
d="M613 469q0 105 -57 171l72 112h-75l-46 -72q-67 45 -174 45q-135 0 -207.5 -67.5t-72.5 -188.5v-228q0 -112 61 -176l-67 -106h75l43 67q65 -41 168 -41q136 1 208 68t72 188v228zM175 160q-25 29 -25 81v228q0 81 47.5 123.5t135.5 42.5q76 0 123 -34zM495 545
q21 -30 21 -76v-228q0 -81 -47.5 -123.5t-135.5 -42.5q-71 0 -117 31zM413 927l-197 -121l32 -43l216 102z" />
    <glyph glyph-name="oslashacute" unicode="&#x1ff;" horiz-adv-x="541" 
d="M270 531q-106 0 -165 -50.5t-59 -141.5v-163q0 -87 57 -137l-47 -74h58l30 47q54 -27 126 -27q108 0 166.5 50.5t58.5 140.5v163q0 88 -56 139l47 74h-57l-31 -48q-51 27 -128 27zM157 123q-22 22 -22 53v164q0 52 36 81t99 29q48 0 82 -19zM385 393q21 -21 21 -53v-164
q0 -52 -36 -81t-100 -29q-46 0 -80 19zM148 621l32 -43l217 102l-52 62z" />
    <glyph glyph-name="uni0218" unicode="&#x218;" horiz-adv-x="629" 
d="M590 202q-3 60 -23.5 97t-54.5 58.5t-78.5 31t-94.5 15.5q-36 5 -59 8t-51 12q-35 11 -58.5 32.5t-23.5 62.5q0 113 167 113q66 0 105.5 -24.5t66.5 -76.5l12 -23l89 41q-3 7 -6 13q-1 2 -2 4.5t-2 4.5l-2 4q-38 77 -99 113.5t-162 36.5q-63 0 -112.5 -15t-83.5 -43
t-52 -67t-18 -87q0 -62 23.5 -99t62 -58t86.5 -29.5t96 -14.5q27 -3 58 -7.5t57.5 -16t44 -32.5t17.5 -56q0 -124 -180 -124q-131 0 -181 113l-11 25l-90 -34l9 -24q34 -87 98.5 -129t174.5 -42q134 0 205.5 57.5t71.5 159.5zM288 -71l-35 -186h67l64 186h-96z" />
    <glyph glyph-name="uni0219" unicode="&#x219;" horiz-adv-x="500" 
d="M383 365l81 33l-12 25q-49 108 -209 108q-99 0 -150 -41.5t-51 -113.5q0 -48 17.5 -77t46 -45.5t65 -23t74.5 -10.5q36 -4 61 -9t41 -13.5t23.5 -22t7.5 -34.5q0 -76 -125 -76q-106 0 -135 72l-9 23l-81 -28q3 -6 5 -12q4 -10 4 -12q47 -123 219 -123q103 0 156 42.5
t53 117.5q0 41 -12.5 68t-37 44.5t-61.5 27t-87 14.5q-36 3 -62 7.5t-42.5 13t-24 22.5t-7.5 36q0 72 114 72q54 0 83 -16.5t45 -48.5zM225 -47l-33 -176h69l53 176h-89z" />
    <glyph glyph-name="uni021A" unicode="&#x21a;" horiz-adv-x="554" 
d="M540 620v90h-526v-90h215v-620h96v620h215zM205 -253h67l64 186h-96z" />
    <glyph glyph-name="uni021B" unicode="&#x21b;" horiz-adv-x="372" 
d="M357 433v83h-154v120h-89v-120h-107v-83h107v-235q0 -62 11 -103t36.5 -65t67.5 -34t103 -10h25v84h-30q-36 0 -60 6t-38 20.5t-20 39.5t-6 64v233h154zM186 -67l-35 -186h67l64 186h-96z" />
    <glyph glyph-name="uni0237" unicode="&#x237;" horiz-adv-x="215" 
d="M63 516v-522q0 -70 -29 -105.5t-99 -35.5h-24v-83h24q114 0 165.5 56.5t51.5 165.5v524h-89z" />
    <glyph glyph-name="circumflex" unicode="&#x2c6;" horiz-adv-x="385" 
d="M218 728h-54l-154 -140h86l94 82l90 -82h91z" />
    <glyph glyph-name="caron" unicode="&#x2c7;" horiz-adv-x="332" 
d="M164 643l-93 85h-93l158 -144h55l157 144h-87z" />
    <glyph glyph-name="breve" unicode="&#x2d8;" horiz-adv-x="287" 
d="M225 719q-19 -66 -87 -66t-86 66l-5 17l-66 -26l5 -17q17 -51 55.5 -78t96.5 -27q118 0 154 105l6 17l-69 23z" />
    <glyph glyph-name="dotaccent" unicode="&#x2d9;" horiz-adv-x="216" 
d="M154 653q0 19 -13.5 32.5t-32.5 13.5q-20 0 -33 -13.5t-13 -32.5t13 -32.5t33 -13.5q19 0 32.5 13.5t13.5 32.5z" />
    <glyph glyph-name="ring" unicode="&#x2da;" horiz-adv-x="240" 
d="M16 653q0 -45 29 -73t77 -28q46 0 74.5 28t28.5 73q0 46 -28.5 74.5t-74.5 28.5q-48 0 -77 -28.5t-29 -74.5zM179 653q0 -25 -16 -40.5t-41 -15.5q-27 0 -43.5 15.5t-16.5 40.5q0 27 17 42t43 15t41.5 -15.5t15.5 -41.5z" />
    <glyph glyph-name="ogonek" unicode="&#x2db;" horiz-adv-x="252" 
d="M188 -163q-16 -16 -40 -16q-25 0 -33 24t12 65.5t65 89.5h-60q-55 -48 -80 -99.5t-14 -91.5q12 -55 82 -55q56 0 92 36q1 0 4 3l3 3l-22 50z" />
    <glyph glyph-name="tilde" unicode="&#x2dc;" horiz-adv-x="305" 
d="M225 598q42 0 61.5 25t19.5 80v15h-55v-15q0 -48 -32 -48q-20 0 -61 32q-40 31 -79 31q-80 0 -80 -105v-15h55v15q0 48 33 48q23 0 63 -31q41 -32 75 -32z" />
    <glyph glyph-name="hungarumlaut" unicode="&#x2dd;" horiz-adv-x="395" 
d="M207 592l49 -17l149 136l-79 24zM232 711l-77 24l-114 -141l49 -16z" />
    <glyph glyph-name="uni0326" unicode="&#x326;" horiz-adv-x="0" 
d="M128 -253l63 186h-95l-36 -186h68z" />
    <glyph glyph-name="pi" unicode="&#x3c0;" horiz-adv-x="629" 
d="M606 434v82h-440q-87 0 -146 -31l-20 -10l32 -75l22 11q22 11 42 16.5t39 6.5v-434h89v434h224v-282q0 -83 30 -139l12 -22l82 34l-13 25q-22 41 -22 98v286h69z" />
    <glyph glyph-name="uni0401" unicode="&#x401;" horiz-adv-x="576" 
d="M171 405v215h357v90h-454v-710h466v90h-369v225h311v90h-311zM160 822q0 -20 13 -33t32 -13t32.5 13t13.5 33q0 19 -13.5 32t-32.5 13t-32 -13t-13 -32zM401 776q19 0 32.5 13t13.5 33q0 19 -13.5 32t-32.5 13t-32 -13t-13 -32q0 -20 13 -33t32 -13z" />
    <glyph glyph-name="uni0410" unicode="&#x410;" horiz-adv-x="649" 
d="M280 712l-279 -712h103l69 186h298l70 -186h106l-278 712h-89zM203 265l120 318l119 -318h-239z" />
    <glyph glyph-name="uni0411" unicode="&#x411;" horiz-adv-x="631" 
d="M171 421v199h379v90h-476v-710h312q100 0 157 56t57 155t-57 154.5t-157 55.5h-215zM376 331q58 0 90.5 -31.5t32.5 -88.5q0 -58 -33 -89.5t-90 -31.5h-205v241h205z" />
    <glyph glyph-name="uni0412" unicode="&#x412;" horiz-adv-x="647" 
d="M605 193q0 141 -112 174v3q86 42 86 156q0 90 -52.5 137t-146.5 47h-306v-710h315q99 0 157.5 50t58.5 143zM171 317h215q57 0 86.5 -29.5t29.5 -84.5q0 -113 -116 -113h-215v227zM171 620h198q111 0 111 -108q0 -107 -111 -107h-198v215z" />
    <glyph glyph-name="uni0413" unicode="&#x413;" horiz-adv-x="515" 
d="M171 0v620h329v90h-426v-710h97z" />
    <glyph glyph-name="uni0414" unicode="&#x414;" horiz-adv-x="724" 
d="M705 90h-84v620h-450v-231q0 -106 -8.5 -179.5t-24.5 -115.5q-16 -41 -30.5 -60.5t-34.5 -33.5h-56v-243h94v153h499v-153h95v243zM264 620h260v-530h-337q77 101 77 389v141z" />
    <glyph glyph-name="uni0415" unicode="&#x415;" horiz-adv-x="576" 
d="M528 710h-454v-710h466v90h-369v225h311v90h-311v215h357v90z" />
    <glyph glyph-name="uni0416" unicode="&#x416;" horiz-adv-x="928" 
d="M512 0v316h47q27 0 47 -3.5t35 -12.5t27 -23.5t23 -36.5l118 -240h113l-142 276q-38 73 -91 98l225 336h-117l-200 -308q-6 1 -15.5 1.5t-22.5 0.5h-47v306h-96v-306h-47q-13 0 -22 -0.5t-16 -1.5l-199 308h-118l225 -336q-50 -26 -84 -86l-149 -288h113l118 240
q11 22 23 36.5t27 23.5t35 12.5t47 3.5h47v-316h96z" />
    <glyph glyph-name="uni0417" unicode="&#x417;" horiz-adv-x="627" 
d="M326 75q-88 0 -133 27t-65 87l-9 26l-90 -33l8 -25q55 -172 289 -172q130 0 194 55.5t64 155.5q0 133 -108 173q86 41 86 154q0 97 -60.5 149.5t-175.5 52.5q-120 0 -187.5 -42.5t-95.5 -127.5l-8 -24l91 -33l8 25q19 58 61.5 85t124.5 27q144 0 144 -120
q0 -49 -27 -79.5t-81 -30.5h-173v-87h184q57 0 86 -31.5t29 -86.5q0 -125 -156 -125z" />
    <glyph glyph-name="uni0418" unicode="&#x418;" horiz-adv-x="696" 
d="M621 0v710h-87l-365 -530v530h-93v-710h88l363 529v-529h94z" />
    <glyph glyph-name="uni0419" unicode="&#x419;" horiz-adv-x="696" 
d="M622 1v710h-87l-365 -530v530h-93v-710h88l363 529v-529h94zM447 896q-21 -66 -95 -66t-94 66l-5 17l-73 -26l6 -17q17 -51 59.5 -78t106.5 -27q129 0 168 105l7 17l-76 23z" />
    <glyph glyph-name="uni041A" unicode="&#x41a;" horiz-adv-x="617" 
d="M499 0h113l-150 289q-42 75 -106 96l250 325h-117l-230 -306h-88v306h-97v-710h97v316h78q27 0 47 -4t35 -13t27 -24t24 -38z" />
    <glyph glyph-name="uni041B" unicode="&#x41b;" horiz-adv-x="665" 
d="M146 464q-1 -72 -5 -125.5t-10.5 -93t-16.5 -66.5t-23 -45q-9 -12 -16.5 -20t-14.5 -14t-14.5 -10.5t-17.5 -9.5l-33 -17l44 -84l25 12q38 19 72 46.5t51 68.5q23 47 39.5 133.5t14.5 224.5v156h253v-620h97v710h-445v-246z" />
    <glyph glyph-name="uni041C" unicode="&#x41c;" horiz-adv-x="805" 
d="M161 710h-87v-710h90v524l205 -362h65l205 364v-526h92v710h-88l-241 -429z" />
    <glyph glyph-name="uni041D" unicode="&#x41d;" horiz-adv-x="683" 
d="M609 710h-96v-305h-342v305h-97v-710h97v315h342v-315h96v710z" />
    <glyph glyph-name="uni041E" unicode="&#x41e;" horiz-adv-x="666" 
d="M333 725q-135 0 -207.5 -67.5t-72.5 -188.5v-228q0 -121 72.5 -188.5t207.5 -67.5t207.5 67.5t72.5 188.5v228q0 121 -72.5 188.5t-207.5 67.5zM333 75q-88 0 -135.5 42.5t-47.5 123.5v228q0 81 47.5 123.5t135.5 42.5t135.5 -42.5t47.5 -123.5v-228q0 -81 -47.5 -123.5
t-135.5 -42.5z" />
    <glyph glyph-name="uni041F" unicode="&#x41f;" horiz-adv-x="678" 
d="M74 710v-710h97v620h336v-620h97v710h-530z" />
    <glyph glyph-name="uni0420" unicode="&#x420;" horiz-adv-x="627" 
d="M74 710v-710h97v258h196q108 0 169 59.5t61 165.5q0 53 -16 95t-46 71.5t-72.5 45t-95.5 15.5h-293zM358 620q66 0 102 -36.5t36 -100.5t-36 -99.5t-102 -35.5h-187v272h187z" />
    <glyph glyph-name="uni0421" unicode="&#x421;" horiz-adv-x="638" 
d="M333 725q-135 0 -207.5 -67.5t-72.5 -188.5v-228q0 -121 72.5 -188.5t207.5 -67.5q215 0 270 172l8 25l-91 33l-9 -26q-19 -58 -61 -86t-117 -28q-88 0 -135.5 43.5t-47.5 121.5v230q0 79 46.5 122t136.5 43q75 0 116.5 -27.5t60.5 -84.5l8 -25l92 32l-9 28
q-57 167 -268 167z" />
    <glyph glyph-name="uni0422" unicode="&#x422;" horiz-adv-x="554" 
d="M14 710v-90h215v-620h96v620h215v90h-526z" />
    <glyph glyph-name="uni0423" unicode="&#x423;" horiz-adv-x="602" 
d="M308 313l-201 395h-111l260 -502l-100 -209h109l340 711h-107z" />
    <glyph glyph-name="uni0424" unicode="&#x424;" horiz-adv-x="831" 
d="M309 650q-132 0 -201 -66.5t-69 -187.5v-77q0 -121 69 -187.5t201 -66.5h58v-85h97v85h58q132 0 201 66.5t69 187.5v77q0 121 -69 187.5t-201 66.5h-58v85h-97v-85h-58zM367 563v-411h-58q-85 0 -129 42t-44 121v85q0 79 44 121t129 42h58zM522 563q85 0 129 -42t44 -121
v-85q0 -79 -44 -121t-129 -42h-58v411h58z" />
    <glyph glyph-name="uni0425" unicode="&#x425;" horiz-adv-x="627" 
d="M127 710h-119l246 -350l-255 -360h117l196 277l195 -277h121l-256 362l247 348h-117l-188 -265z" />
    <glyph glyph-name="uni0426" unicode="&#x426;" horiz-adv-x="703" 
d="M682 90h-83v620h-96v-620h-332v620h-97v-710h515v-153h93v243z" />
    <glyph glyph-name="uni0427" unicode="&#x427;" horiz-adv-x="635" 
d="M561 710h-97v-338q-60 -19 -164 -19q-88 0 -126.5 38.5t-38.5 116.5v202h-97v-202q0 -121 61 -183t196 -62q95 0 169 17v-280h97v710z" />
    <glyph glyph-name="uni0428" unicode="&#x428;" horiz-adv-x="918" 
d="M508 710h-97v-620h-240v620h-97v-710h770v710h-96v-620h-240v620z" />
    <glyph glyph-name="uni0429" unicode="&#x429;" horiz-adv-x="948" 
d="M411 710v-620h-240v620h-97v-710h761v-153h93v243h-84v620h-96v-620h-240v620h-97z" />
    <glyph glyph-name="uni042A" unicode="&#x42a;" horiz-adv-x="736" 
d="M280 452v258h-266v-90h169v-620h293q53 0 95.5 15.5t72.5 45t46 71.5t16 95q0 106 -61 165.5t-169 59.5h-196zM467 362q66 0 102.5 -35.5t36.5 -99.5t-36.5 -100.5t-102.5 -36.5h-187v272h187z" />
    <glyph glyph-name="uni042B" unicode="&#x42b;" horiz-adv-x="882" 
d="M171 710h-97v-710h293q53 0 95.5 15.5t72.5 45t46 71.5t16 95q0 106 -61 165.5t-169 59.5h-196v258zM496 227q0 -64 -36 -100.5t-102 -36.5h-187v272h187q66 0 102 -35.5t36 -99.5zM808 0v710h-96v-710h96z" />
    <glyph glyph-name="uni042C" unicode="&#x42c;" horiz-adv-x="627" 
d="M171 710h-97v-710h293q53 0 95.5 15.5t72.5 45t46 71.5t16 95q0 106 -61 165.5t-169 59.5h-196v258zM496 227q0 -64 -36 -100.5t-102 -36.5h-187v272h187q66 0 102 -35.5t36 -99.5z" />
    <glyph glyph-name="uni042D" unicode="&#x42d;" horiz-adv-x="642" 
d="M309 75q-75 0 -117 28t-61 86l-9 26l-91 -33l8 -25q58 -172 270 -172q135 0 207.5 67.5t72.5 188.5v229q0 120 -72 187.5t-208 67.5q-212 0 -269 -170l-8 -24l92 -33l8 25q19 57 60.5 84.5t116.5 27.5q90 0 136.5 -43t46.5 -121v-67h-300v-90h300v-74q0 -78 -47.5 -121.5
t-135.5 -43.5z" />
    <glyph glyph-name="uni042E" unicode="&#x42e;" horiz-adv-x="929" 
d="M602 725q-133 0 -203.5 -67.5t-70.5 -187.5v-65h-157v305h-97v-710h97v315h157v-75q0 -120 70.5 -187.5t203.5 -67.5t203.5 67.5t70.5 187.5v230q0 120 -70.5 187.5t-203.5 67.5zM602 75q-87 0 -132 43t-45 122v230q0 79 45 122t132 43t132 -43t45 -122v-230
q0 -79 -45 -122t-132 -43z" />
    <glyph glyph-name="uni042F" unicode="&#x42f;" horiz-adv-x="646" 
d="M475 285v-285h97v710h-307q-102 0 -159 -55.5t-57 -157.5q0 -81 38.5 -132t108.5 -67q-27 -15 -50 -56l-125 -242h113l102 207q12 23 24.5 38t27.5 24t34.5 12.5t45.5 3.5h107zM150 497q0 60 32 91.5t92 31.5h201v-245h-201q-60 0 -92 32t-32 90z" />
    <glyph glyph-name="uni0430" unicode="&#x430;" horiz-adv-x="516" 
d="M258 301q-60 0 -102.5 -8t-69.5 -27t-39 -48.5t-12 -73.5q0 -41 10.5 -71t36 -49.5t67.5 -29t105 -9.5q111 0 172 26l36 16v302q0 47 -11 84.5t-36 63.5t-64 40t-96 14q-149 0 -203 -105l-12 -23l76 -34l13 21q37 61 124 61q66 0 92.5 -30.5t26.5 -88.5v-38
q-30 4 -58.5 5.5t-55.5 1.5zM357 72q-34 -12 -111 -12q-70 0 -95.5 20.5t-25.5 63.5q0 45 27 64.5t96 19.5q22 0 53 -2t71 -6v-143z" />
    <glyph glyph-name="uni0431" unicode="&#x431;" horiz-adv-x="554" 
d="M366 648q72 0 103 16l23 12l-28 78q-7 -3 -12 -5t-8.5 -4t-4.5 -2q-25 -12 -75 -12h-33q-79 0 -132 -19t-84 -57t-44 -95t-13 -132v-244q0 -94 58 -146.5t167 -52.5q112 0 169 52.5t57 146.5v121q0 94 -54 147t-153 53q-113 0 -161 -72v19q0 55 9 92.5t31 60.5t59 33
t92 10h34zM419 185q0 -57 -34.5 -88t-101.5 -31q-66 0 -100.5 31t-34.5 88v144q2 18 11.5 35t27 30.5t42 21.5t54.5 8q67 0 101.5 -31t34.5 -88v-120z" />
    <glyph glyph-name="uni0432" unicode="&#x432;" horiz-adv-x="534" 
d="M62 516v-516h281q70 0 111 39t41 105q0 91 -73 125q55 33 55 109q0 64 -39 101t-109 37h-267zM324 228q37 0 57.5 -20t20.5 -55q0 -36 -20 -56.5t-57 -20.5h-173v152h172zM314 440q35 0 54 -18t19 -51q0 -32 -19 -50.5t-51 -18.5h-165v138h162z" />
    <glyph glyph-name="uni0433" unicode="&#x433;" horiz-adv-x="427" 
d="M152 0v433h261v83h-351v-516h90z" />
    <glyph glyph-name="uni0434" unicode="&#x434;" horiz-adv-x="605" 
d="M588 -139v222h-75v433h-378v-175q0 -28 -1 -64.5t-7 -73t-19.5 -68.5t-38.5 -52h-50v-222h87v139h395v-139h87zM222 433h201v-350h-251q50 73 50 253v97z" />
    <glyph glyph-name="uni0435" unicode="&#x435;" horiz-adv-x="534" 
d="M406 132q-42 -69 -139 -69q-66 0 -100 31t-34 89v48h363v93q0 93 -57.5 150t-168.5 57t-168.5 -55.5t-57.5 -158.5v-124q0 -97 55 -152.5t167 -55.5q157 0 215 103l15 27l-77 39zM133 300v29q0 60 35 93t102 33t102 -33t35 -93v-29h-274z" />
    <glyph glyph-name="uni0436" unicode="&#x436;" horiz-adv-x="748" 
d="M469 221q35 0 54.5 -11.5t33.5 -40.5l81 -170h99l-105 210q-25 51 -64 71l167 235h-108l-141 -211h-67v211h-90v-211h-67l-141 211h-108l167 -235q-36 -19 -64 -71l-105 -210h100l80 169q14 29 33.5 41t54.5 12h50v-222h90v222h50z" />
    <glyph glyph-name="uni0437" unicode="&#x437;" horiz-adv-x="514" 
d="M373 370q0 -33 -21.5 -52t-59.5 -19h-121v-74h127q85 0 85 -76q0 -85 -120 -85q-110 0 -147 85l-11 24l-84 -28l11 -26q8 -19 24 -42t43.5 -43.5t67.5 -34.5t95 -14q111 0 162 42t51 113q0 96 -77 125v4q66 26 66 109q0 70 -49.5 111.5t-155.5 41.5q-52 0 -91 -14
t-66 -34t-42 -42.5t-21 -39.5l-8 -27l86 -30l7 27q2 9 10.5 22.5t25 26t41 22t58.5 10.5q114 0 114 -82z" />
    <glyph glyph-name="uni0438" unicode="&#x438;" horiz-adv-x="562" 
d="M500 0v516h-80l-268 -364v364h-90v-516h82l266 364v-364h90z" />
    <glyph glyph-name="uni0439" unicode="&#x439;" horiz-adv-x="562" 
d="M500 516h-80l-268 -364v364h-90v-516h82l266 364v-364h90v516zM372 719q-19 -66 -87 -66t-86 66l-5 17l-66 -26l5 -17q17 -51 55.5 -78t96.5 -27q118 0 154 105l6 17l-69 23z" />
    <glyph glyph-name="uni043A" unicode="&#x43a;" horiz-adv-x="521" 
d="M152 305v211h-90v-516h90v222h91q35 0 55 -12t34 -41l81 -169h98l-102 206q-31 64 -80 82l182 228h-108l-163 -211h-88z" />
    <glyph glyph-name="uni043B" unicode="&#x43b;" horiz-adv-x="540" 
d="M108 336q0 -158 -32 -210q-8 -13 -14.5 -21.5t-13 -14.5t-14 -10.5t-17.5 -9.5l-23 -11l42 -80l20 10q49 24 77 62t41.5 84t17 96t3.5 99v103h193v-433h89v516h-369v-180z" />
    <glyph glyph-name="uni043C" unicode="&#x43c;" horiz-adv-x="640" 
d="M143 516h-81v-516h83v352l144 -251h62l143 253v-354h84v516h-82l-175 -316z" />
    <glyph glyph-name="uni043D" unicode="&#x43d;" horiz-adv-x="557" 
d="M495 516h-90v-211h-253v211h-90v-516h90v222h253v-222h90v516z" />
    <glyph glyph-name="uni043E" unicode="&#x43e;" horiz-adv-x="541" 
d="M270 531q-106 0 -165 -50.5t-59 -141.5v-163q0 -90 59 -140.5t165 -50.5q108 0 166.5 50.5t58.5 140.5v163q0 91 -58.5 141.5t-166.5 50.5zM270 66q-63 0 -99 29t-36 81v164q0 52 36 81t99 29q64 0 100 -29t36 -81v-164q0 -52 -36 -81t-100 -29z" />
    <glyph glyph-name="uni043F" unicode="&#x43f;" horiz-adv-x="553" 
d="M62 516v-516h90v433h249v-433h89v516h-428z" />
    <glyph glyph-name="uni0440" unicode="&#x440;" horiz-adv-x="539" 
d="M280 -15q213 0 213 204v141q0 201 -209 201q-108 0 -184 -29l-39 -15v-707h89v232q78 -27 130 -27zM165 434q51 15 106 15q132 0 132 -122v-135q0 -125 -130 -125q-47 0 -123 26v337z" />
    <glyph glyph-name="uni0441" unicode="&#x441;" horiz-adv-x="516" 
d="M265 64q-64 0 -97 31t-33 88v151q0 57 33 87.5t97 30.5q103 0 130 -84l8 -24l85 27l-8 26q-42 134 -211 134q-112 0 -168 -52.5t-56 -148.5v-143q0 -97 54.5 -149.5t163.5 -52.5q170 0 219 138l10 26l-88 26l-8 -24q-28 -87 -131 -87z" />
    <glyph glyph-name="uni0442" unicode="&#x442;" horiz-adv-x="457" 
d="M14 516v-83h170v-433h89v433h170v83h-429z" />
    <glyph glyph-name="uni0443" unicode="&#x443;" horiz-adv-x="553" 
d="M401 107q-67 -21 -128 -21q-126 0 -126 119v311h-89v-314q0 -198 203 -198q64 0 140 21v-54q0 -132 -128 -132q-85 0 -124 67l-13 23l-79 -43l2 -4t5 -8.5t5 -8.5l2 -4q59 -102 203 -102q216 0 216 216v541h-89v-409z" />
    <glyph glyph-name="uni0444" unicode="&#x444;" horiz-adv-x="740" 
d="M415 -10q11 -2 27 -3t36 -2q101 0 159 51.5t58 162.5v119q0 110 -58 161.5t-159 51.5q-20 -1 -36 -2t-27 -3v213h-89v-213q-11 2 -27 3t-38 2q-100 0 -158.5 -53t-58.5 -164v-115q0 -111 58 -162.5t159 -51.5q22 1 38 2t27 3v-210h89v210zM134 311q0 74 37.5 106t95.5 32
q11 0 25 -1t34 -3v-374q-20 -2 -34 -3t-25 -1q-29 0 -53.5 7.5t-42 23.5t-27.5 41.5t-10 61.5v110zM473 449q133 0 133 -134v-114q0 -36 -10 -61.5t-27.5 -41.5t-42 -23.5t-53.5 -7.5q-10 0 -24.5 1t-33.5 3v374q19 2 33.5 3t24.5 1z" />
    <glyph glyph-name="uni0445" unicode="&#x445;" horiz-adv-x="497" 
d="M113 516h-105l189 -253l-196 -263h103l144 194l145 -194h104l-197 264l187 252h-102l-136 -183z" />
    <glyph glyph-name="uni0446" unicode="&#x446;" horiz-adv-x="577" 
d="M560 83h-75v433h-90v-433h-243v433h-90v-516h411v-139h87v222z" />
    <glyph glyph-name="uni0447" unicode="&#x447;" horiz-adv-x="513" 
d="M451 516h-90v-236q-45 -18 -114 -18q-126 0 -126 111v143h-89v-145q0 -96 49 -143t154 -47q89 0 126 15v-196h90v516z" />
    <glyph glyph-name="uni0448" unicode="&#x448;" horiz-adv-x="766" 
d="M428 516h-90v-433h-186v433h-90v-516h642v516h-89v-433h-187v433z" />
    <glyph glyph-name="uni0449" unicode="&#x449;" horiz-adv-x="796" 
d="M338 516v-433h-186v433h-90v-516h629v-139h87v222h-74v433h-89v-433h-187v433h-90z" />
    <glyph glyph-name="uni044A" unicode="&#x44a;" horiz-adv-x="611" 
d="M245 360v156h-231v-83h142v-433h244q87 0 135.5 48t48.5 133t-48.5 132t-135.5 47h-155zM389 279q48 0 75 -26t27 -72q0 -48 -27 -74.5t-75 -26.5h-144v199h144z" />
    <glyph glyph-name="uni044B" unicode="&#x44b;" horiz-adv-x="708" 
d="M152 516h-90v-516h245q87 0 135.5 48t48.5 133t-48.5 132t-135.5 47h-155v156zM397 181q0 -48 -26.5 -74.5t-74.5 -26.5h-144v199h144q48 0 74.5 -26t26.5 -72zM646 0v516h-90v-516h90z" />
    <glyph glyph-name="uni044C" unicode="&#x44c;" horiz-adv-x="518" 
d="M152 516h-90v-516h245q87 0 135.5 48t48.5 133t-48.5 132t-135.5 47h-155v156zM397 181q0 -48 -26.5 -74.5t-74.5 -26.5h-144v199h144q48 0 74.5 -26t26.5 -72z" />
    <glyph glyph-name="uni044D" unicode="&#x44d;" horiz-adv-x="512" 
d="M248 65q-101 0 -130 87l-8 24l-86 -27l9 -26q50 -138 218 -138q109 0 162.5 52.5t53.5 149.5v143q0 96 -55 148.5t-167 52.5q-168 0 -210 -134l-8 -26l84 -27l8 24q30 84 129 84q64 0 96.5 -30.5t32.5 -87.5v-32h-202v-79l202 -1v-39q0 -57 -33 -87.5t-96 -30.5z" />
    <glyph glyph-name="uni044E" unicode="&#x44e;" horiz-adv-x="750" 
d="M484 531q-105 0 -162 -50t-57 -140v-38h-113v213h-90v-516h90v220h113v-45q0 -90 57 -140t162 -50q106 0 163 50t57 140v166q0 90 -57 140t-163 50zM484 66q-61 0 -95 29t-34 80v166q0 52 34 80.5t95 28.5q63 0 96.5 -28.5t33.5 -80.5v-166q0 -51 -34.5 -80t-95.5 -29z
" />
    <glyph glyph-name="uni044F" unicode="&#x44f;" horiz-adv-x="528" 
d="M213 516q-81 0 -127 -45.5t-46 -124.5q0 -60 29 -101t81 -56l-126 -189h105l112 177h135v-177h90v516h-253zM224 258q-42 0 -66.5 23t-24.5 65t24.5 66t66.5 24h152v-178h-152z" />
    <glyph glyph-name="uni0451" unicode="&#x451;" horiz-adv-x="534" 
d="M267 63q-66 0 -100 31t-34 89v48h363v93q0 93 -57.5 150t-168.5 57t-168.5 -55.5t-57.5 -158.5v-124q0 -97 55 -152.5t167 -55.5q157 0 215 103l15 27l-77 39l-13 -22q-42 -69 -139 -69zM407 300h-274v29q0 60 35 93t102 33t102 -33t35 -93v-29zM173 606q19 0 32.5 13
t13.5 33q0 19 -13.5 32t-32.5 13t-32 -13t-13 -32q0 -20 13 -33t32 -13zM324 652q0 -20 13 -33t32 -13t32.5 13t13.5 33q0 19 -13.5 32t-32.5 13t-32 -13t-13 -32z" />
    <glyph glyph-name="Wgrave" unicode="&#x1e80;" horiz-adv-x="890" 
d="M252 170l-130 540h-106l184 -710h96l149 545l147 -545h97l185 710h-100l-129 -544l-147 536h-99zM546 751l32 44l-199 118l-51 -61z" />
    <glyph glyph-name="wgrave" unicode="&#x1e81;" horiz-adv-x="733" 
d="M482 -2h80l157 518h-91l-103 -371l-116 364h-82l-115 -367l-103 374h-94l155 -518h79l116 386zM244 680l217 -101l33 44l-199 118z" />
    <glyph glyph-name="Wacute" unicode="&#x1e82;" horiz-adv-x="890" 
d="M252 170l-130 540h-106l184 -710h96l149 545l147 -545h97l185 710h-100l-129 -544l-147 536h-99zM576 856l-51 61l-199 -120l33 -44z" />
    <glyph glyph-name="wacute" unicode="&#x1e83;" horiz-adv-x="733" 
d="M482 -2h80l157 518h-91l-103 -371l-116 364h-82l-115 -367l-103 374h-94l155 -518h79l116 386zM444 740l-199 -120l33 -44l217 103z" />
    <glyph glyph-name="Wdieresis" unicode="&#x1e84;" horiz-adv-x="890" 
d="M498 702h-99l-147 -532l-130 540h-106l184 -710h96l149 545l147 -545h97l185 710h-100l-129 -544zM307 830q0 -20 13 -33t32 -13t32.5 13t13.5 33q0 19 -13.5 32t-32.5 13t-32 -13t-13 -32zM548 784q19 0 32.5 13t13.5 33q0 19 -13.5 32t-32.5 13t-32 -13t-13 -32
q0 -20 13 -33t32 -13z" />
    <glyph glyph-name="wdieresis" unicode="&#x1e85;" horiz-adv-x="733" 
d="M409 509h-82l-115 -367l-103 374h-94l155 -518h79l116 386l117 -386h80l157 518h-91l-103 -371zM270 606q19 0 32.5 13t13.5 33q0 19 -13.5 32t-32.5 13t-32 -13t-13 -32q0 -20 13 -33t32 -13zM466 606q19 0 32.5 13t13.5 33q0 19 -13.5 32t-32.5 13t-32 -13t-13 -32
q0 -20 13 -33t32 -13z" />
    <glyph glyph-name="Ygrave" unicode="&#x1ef2;" horiz-adv-x="634" 
d="M365 284l271 426h-118l-200 -326l-198 326h-122l271 -424v-286h96v284zM246 914l-51 -61l218 -102l33 45z" />
    <glyph glyph-name="ygrave" unicode="&#x1ef3;" horiz-adv-x="553" 
d="M273 86q-126 0 -126 119v311h-89v-314q0 -198 203 -198q64 0 140 21v-54q0 -132 -128 -132q-85 0 -124 67l-13 23l-79 -43q4 -7 7 -12q4 -6 5 -9l2 -4q59 -102 203 -102q216 0 216 216v541h-89v-409q-67 -21 -128 -21zM201 740l-51 -61l218 -101l32 44z" />
    <glyph glyph-name="endash" unicode="&#x2013;" horiz-adv-x="572" 
d="M512 224v86h-452v-86h452z" />
    <glyph glyph-name="emdash" unicode="&#x2014;" horiz-adv-x="770" 
d="M711 223v87h-652v-87h652z" />
    <glyph glyph-name="quoteleft" unicode="&#x2018;" horiz-adv-x="210" 
d="M133 488l38 222h-58l-77 -222h97z" />
    <glyph glyph-name="quoteright" unicode="&#x2019;" horiz-adv-x="205" 
d="M106 488l77 222h-97l-38 -222h58z" />
    <glyph glyph-name="quotesinglbase" unicode="&#x201a;" horiz-adv-x="187" 
d="M139 110h-87v-245h68z" />
    <glyph glyph-name="quotedblleft" unicode="&#x201c;" horiz-adv-x="346" 
d="M133 488l38 222h-58l-77 -222h97zM248 710l-76 -222h96l38 222h-58z" />
    <glyph glyph-name="quotedblright" unicode="&#x201d;" horiz-adv-x="340" 
d="M221 710l-38 -222h58l77 222h-97zM182 710h-96l-38 -222h58z" />
    <glyph glyph-name="quotedblbase" unicode="&#x201e;" horiz-adv-x="334" 
d="M89 100q-17 0 -24 -6t-9 -23l-30 -174q-2 -11 1.5 -15t15.5 -4h16q23 0 30 24l59 169q11 29 -25 29h-34zM195 -122q22 0 29 24l59 169q11 29 -25 29h-34q-17 0 -23 -6q-7 -6 -9 -23l-31 -174q-1 -11 2.5 -15t14.5 -4h17z" />
    <glyph glyph-name="dagger" unicode="&#x2020;" horiz-adv-x="528" 
d="M499 489h-189v221h-91v-221h-189v-90h189v-499h91v499h189v90z" />
    <glyph glyph-name="daggerdbl" unicode="&#x2021;" horiz-adv-x="569" 
d="M330 399h189v90h-189v221h-91v-221h-189v-90h189v-189h-189v-90h189v-220h91v220h189v90h-189v189z" />
    <glyph glyph-name="bullet" unicode="&#x2022;" horiz-adv-x="332" 
d="M75 264q0 -39 26 -65.5t65 -26.5q40 0 65 26.5t25 65.5q0 38 -25.5 64t-64.5 26t-65 -26t-26 -64z" />
    <glyph glyph-name="ellipsis" unicode="&#x2026;" horiz-adv-x="651" 
d="M48 49q0 -23 15.5 -39t38.5 -16t39 16t16 39t-16 38.5t-39 15.5t-38.5 -15.5t-15.5 -38.5zM495 49q0 -23 15.5 -39t38.5 -16t39 16t16 39t-16 38.5t-39 15.5t-38.5 -15.5t-15.5 -38.5zM380 49q0 23 -16 38.5t-39 15.5t-38.5 -15.5t-15.5 -38.5t15.5 -39t38.5 -16t39 16
t16 39z" />
    <glyph glyph-name="perthousand" unicode="&#x2030;" horiz-adv-x="1185" 
d="M991 351q-78 0 -120 -39.5t-42 -108.5v-72q0 -69 42 -108t120 -39t120 39t42 108v72q0 69 -42 108.5t-120 39.5zM457 131q0 -69 42 -108t120 -39t120 39t42 108v72q0 69 -42 108.5t-120 39.5t-120 -39.5t-42 -108.5v-72zM34 505q0 -69 42 -107.5t120 -38.5t120 38.5
t42 107.5v73q0 69 -42 108.5t-120 39.5t-120 -39.5t-42 -108.5v-73zM195 0l522 710h-98l-522 -710h98zM109 574q0 80 87 80q42 0 64 -21t22 -59v-64q0 -38 -22 -59t-64 -21t-64.5 21t-22.5 59v64zM619 279q87 0 87 -80v-63q0 -80 -87 -80q-42 0 -64 21t-22 59v63q0 38 22 59
t64 21zM991 279q87 0 87 -80v-63q0 -80 -87 -80q-42 0 -64 21t-22 59v63q0 38 22 59t64 21z" />
    <glyph glyph-name="guilsinglleft" unicode="&#x2039;" horiz-adv-x="344" 
d="M304 98l-165 166l166 169l-56 56l-225 -226l222 -223z" />
    <glyph glyph-name="guilsinglright" unicode="&#x203a;" horiz-adv-x="344" 
d="M40 98l58 -58l223 223l-226 226l-56 -56l166 -169z" />
    <glyph glyph-name="fraction" unicode="&#x2044;" horiz-adv-x="176" 
d="M-224 0h98l522 710h-98z" />
    <glyph glyph-name="uni2070" unicode="&#x2070;" horiz-adv-x="376" 
d="M188 819q-70 0 -109.5 -37t-39.5 -101v-136q0 -64 38.5 -101t110.5 -37t110.5 37t38.5 101v136q0 64 -39.5 101t-109.5 37zM188 479q-35 0 -54 17.5t-19 48.5v136q0 30 19 47.5t54 17.5q34 0 53.5 -17.5t19.5 -47.5v-136q0 -31 -19.5 -48.5t-53.5 -17.5z" />
    <glyph glyph-name="uni2074" unicode="&#x2074;" horiz-adv-x="370" 
d="M291 508h53v64h-53v240l-73 -1l-198 -246v-57h203v-93h68v93zM223 572h-118l118 145v-145z" />
    <glyph glyph-name="uni2075" unicode="&#x2075;" horiz-adv-x="356" 
d="M88 558l-65 -24l8 -25q33 -102 151 -102q69 0 106 38.5t37 95.5t-35.5 91t-107.5 34h-66l8 80h186v65h-248l-20 -207h138q73 0 73 -64q0 -30 -19 -48.5t-55 -18.5q-60 0 -83 63z" />
    <glyph glyph-name="uni2076" unicode="&#x2076;" horiz-adv-x="376" 
d="M207 659q-46 0 -93 -18v30q0 78 80 78q48 0 70 -37l9 -14l67 33q-2 4 -4 7l-4 8q-16 31 -51 52t-87 21q-76 0 -116 -39.5t-40 -111.5v-113q0 -148 151 -148q75 0 114.5 32.5t39.5 95.5q0 58 -33.5 91t-102.5 33zM114 572q44 18 81 18q72 0 72 -56q0 -58 -78 -58
q-75 0 -75 77v19z" />
    <glyph glyph-name="uni2077" unicode="&#x2077;" horiz-adv-x="320" 
d="M22 811v-70h195l-144 -326h80l151 343v53h-282z" />
    <glyph glyph-name="uni2078" unicode="&#x2078;" horiz-adv-x="382" 
d="M276 623q60 29 60 92q0 31 -13 51t-33.5 32t-46.5 16.5t-52 4.5q-69 0 -107.5 -29.5t-38.5 -83.5q0 -65 62 -94q-74 -32 -74 -99q0 -51 40 -78.5t118 -27.5t118 31t40 89q0 68 -73 96zM152 575q5 2 14.5 6t10.5 4q51 -9 71.5 -21.5t20.5 -38.5q0 -58 -77 -58
q-79 0 -79 55q0 22 12.5 33.5t26.5 19.5zM206 646q-48 9 -67 21.5t-19 37.5q0 54 70 54q71 0 71 -53q0 -39 -55 -60z" />
    <glyph glyph-name="uni2079" unicode="&#x2079;" horiz-adv-x="376" 
d="M262 555q0 -79 -80 -79q-50 0 -70 38l-8 15l-68 -34l8 -16q16 -31 51 -51.5t87 -20.5q76 0 115.5 39t39.5 112v112q0 149 -151 149q-73 0 -113 -32.5t-40 -95.5q0 -60 33.5 -92.5t102.5 -32.5q36 0 93 18v-29zM262 654q-36 -18 -82 -18q-71 0 -71 56q0 57 77 57
q76 0 76 -77v-18z" />
    <glyph glyph-name="uni2080" unicode="&#x2080;" horiz-adv-x="376" 
d="M188 285q-70 0 -109.5 -37.5t-39.5 -101.5v-135q0 -64 38.5 -101t110.5 -37t110.5 37t38.5 101v135q0 64 -39.5 101.5t-109.5 37.5zM188 -55q-35 0 -54 17.5t-19 48.5v135q0 31 19 48.5t54 17.5q34 0 53.5 -17.5t19.5 -48.5v-135q0 -31 -19.5 -48.5t-53.5 -17.5z" />
    <glyph glyph-name="uni2081" unicode="&#x2081;" horiz-adv-x="283" 
d="M171 277l-163 -92l34 -65l111 62v-301h76v396h-58z" />
    <glyph glyph-name="uni2082" unicode="&#x2082;" horiz-adv-x="359" 
d="M246 157q0 -22 -12 -37q-11 -12 -59 -31l-57 -23q-46 -18 -64 -46.5t-18 -79.5v-59h282v69h-209v17q0 33 44 47l56 17q60 20 87 48t27 81q0 55 -36.5 90t-102.5 35q-108 0 -145 -103l-10 -26l72 -22q4 9 7 16q4 8 5 12q1 2 2 5q3 6 7.5 14t12.5 15t20 12t28 5
q30 0 46.5 -15.5t16.5 -40.5z" />
    <glyph glyph-name="uni2083" unicode="&#x2083;" horiz-adv-x="366" 
d="M188 285q-119 0 -152 -104l-8 -24l68 -26l10 29q10 30 29.5 43.5t54.5 13.5q28 0 43.5 -14t15.5 -39q0 -49 -47 -49h-69v-68h74q24 0 37 -14.5t13 -38.5q0 -53 -69 -53q-38 0 -57 13.5t-28 43.5l-7 25l-71 -23l9 -27q34 -100 154 -100q72 0 108 29.5t36 83.5
q0 73 -57 101q45 24 45 85q0 52 -34.5 82.5t-97.5 30.5z" />
    <glyph glyph-name="uni2084" unicode="&#x2084;" horiz-adv-x="372" 
d="M294 -26h52v64h-52v239l-76 -1l-198 -245v-57h203v-93h71v93zM223 183v-145h-118z" />
    <glyph glyph-name="uni2085" unicode="&#x2085;" horiz-adv-x="357" 
d="M88 24l-65 -25l8 -24q33 -102 151 -102q69 0 106 38.5t37 95.5t-35.5 91t-107.5 34h-66l8 80h186v65h-248l-20 -207h138q73 0 73 -64q0 -30 -19 -48.5t-55 -18.5q-60 0 -83 63z" />
    <glyph glyph-name="uni2086" unicode="&#x2086;" horiz-adv-x="376" 
d="M207 125q-46 0 -93 -18v30q0 78 80 78q48 0 70 -37l9 -14l67 33q-2 4 -4 7l-4 8q-16 31 -51 52t-87 21q-76 0 -116 -39.5t-40 -111.5v-113q0 -148 151 -148q75 0 114.5 32.5t39.5 95.5q0 58 -33.5 91t-102.5 33zM114 38q44 18 81 18q72 0 72 -56q0 -58 -78 -58
q-75 0 -75 77v19z" />
    <glyph glyph-name="uni2087" unicode="&#x2087;" horiz-adv-x="320" 
d="M22 277v-70h195l-144 -326h80l151 343v53h-282z" />
    <glyph glyph-name="uni2088" unicode="&#x2088;" horiz-adv-x="382" 
d="M276 89q60 29 60 92q0 31 -13 51t-33.5 32t-46.5 16.5t-52 4.5q-69 0 -107.5 -29.5t-38.5 -83.5q0 -65 62 -94q-74 -30 -74 -99q0 -51 40 -78.5t118 -27.5t118 31t40 89q0 68 -73 96zM152 41q5 2 14.5 6t10.5 4q51 -9 71.5 -21.5t20.5 -38.5q0 -57 -77 -57q-79 0 -79 54
q0 22 12.5 33.5t26.5 19.5zM206 112q-48 9 -67 22t-19 38q0 53 70 53q71 0 71 -52q0 -40 -55 -61z" />
    <glyph glyph-name="uni2089" unicode="&#x2089;" horiz-adv-x="376" 
d="M262 21q0 -79 -80 -79q-50 0 -70 38l-8 15l-68 -34l8 -16q16 -31 51 -51.5t87 -20.5q76 0 115.5 39t39.5 112v112q0 149 -151 149q-73 0 -113 -32.5t-40 -95.5q0 -60 33.5 -92.5t102.5 -32.5q36 0 93 18v-29zM262 120q-36 -18 -82 -18q-71 0 -71 56q0 57 77 57
q76 0 76 -77v-18z" />
    <glyph glyph-name="Euro" unicode="&#x20ac;" horiz-adv-x="731" 
d="M487 240l20 70h-267v80h291l21 70h-309v27q0 69 48.5 108.5t133.5 39.5q124 0 161 -75l14 -27l90 45l-18 32q-64 115 -247 115q-66 0 -118 -16.5t-88 -48t-55 -76t-19 -100.5v-24h-60l-20 -70h81v-80h-103l-19 -70h122v-20q4 -115 75.5 -175t203.5 -60q184 0 250 119
l17 31l-92 47l-12 -28q-13 -30 -52 -54.5t-111 -24.5q-85 0 -132 37.5t-50 107.5v20h244z" />
    <glyph glyph-name="uni20BD" unicode="&#x20bd;" horiz-adv-x="658" 
d="M626 493q0 103 -59.5 160t-164.5 57h-299v-516h-67v-70h67v-124h97v124h347v70h-347v84h202q105 0 164.5 56.5t59.5 158.5zM393 620q63 0 97.5 -33.5t34.5 -93.5q0 -58 -34.5 -91.5t-97.5 -33.5h-193v252h193z" />
    <glyph glyph-name="uni2113" unicode="&#x2113;" horiz-adv-x="428" 
d="M264 732q-31 0 -58 -11t-46.5 -34t-30.5 -58.5t-11 -85.5v-258l-103 -73l45 -70l59 42v-37q0 -153 153 -153q65 0 115 43l14 12l-49 56l-13 -10q-8 -6 -23 -13.5t-39 -7.5q-43 0 -61 24t-18 75v72q200 167 200 336q0 72 -35 111.5t-99 39.5zM198 542q0 116 65 116
q25 0 40 -19t15 -56q0 -113 -120 -226v185z" />
    <glyph glyph-name="uni2116" unicode="&#x2116;" horiz-adv-x="1043" 
d="M159 0v529l363 -529h88v710h-93v-530l-365 530h-87v-710h94zM669 505q0 -69 41.5 -108t119.5 -39t120 39t42 108v72q0 69 -42 108.5t-120 39.5t-119.5 -39.5t-41.5 -108.5v-72zM744 573q0 38 22 59t64 21q87 0 87 -80v-63q0 -80 -87 -80q-42 0 -64 21t-22 59v63zM667 310
v-81h327v81h-327z" />
    <glyph glyph-name="uni2117" unicode="&#x2117;" horiz-adv-x="804" 
d="M403 710q-76 0 -141.5 -27.5t-114 -76t-76.5 -114t-28 -141.5q0 -75 28 -140.5t76.5 -114t114.5 -76.5t141 -28q76 0 141.5 27.5t113.5 76t75.5 114t27.5 141.5t-27.5 141.5t-75.5 114t-113.5 76t-141.5 27.5zM403 54q-63 0 -117.5 23t-94 62.5t-62.5 94t-23 117.5
t22.5 117.5t62.5 94t94.5 62t117.5 22.5t117 -22.5t93.5 -62.5t62 -94t22.5 -117t-22.5 -117t-62.5 -94t-93.5 -63t-116.5 -23zM431 271q63 0 100 35t37 98t-37 98.5t-100 35.5h-152v-380h60v113h92zM339 481h89q36 0 57 -20.5t21 -56.5q0 -35 -21 -55.5t-57 -20.5h-89v153z
" />
    <glyph glyph-name="trademark" unicode="&#x2122;" horiz-adv-x="625" 
d="M506 595v-152h51v252h-41l-89 -135l-89 135h-41v-252h50v150l64 -92h31zM41 645h91v-202h52v202h90v50h-233v-50z" />
    <glyph glyph-name="Omega" unicode="&#x2126;" horiz-adv-x="766" 
d="M427 70v-70h291v94h-148q142 100 142 285q0 74 -23.5 137t-66.5 109.5t-104 73t-137 26.5q-75 0 -135.5 -27t-103 -74t-65 -110.5t-22.5 -136.5q0 -183 139 -283h-147v-94h290v69l-16 8q-84 42 -128.5 117t-44.5 169q0 54 14.5 103t43.5 86t72.5 59t102.5 22
q57 0 101.5 -20t74.5 -55.5t46 -85.5t16 -110q0 -45 -12.5 -88t-35.5 -80t-55.5 -66.5t-72.5 -49.5z" />
    <glyph glyph-name="estimated" unicode="&#x212e;" horiz-adv-x="816" 
d="M783 315v40q0 77 -29 144.5t-79 117.5t-117.5 79t-144.5 29t-144.5 -29t-117.5 -79t-79 -117.5t-29 -144.5t29 -144.5t79 -117.5t117.5 -79t144.5 -29q56 0 108 16t96 45.5t79 71t57 93.5l8 19h-77l-10 -18q-47 -78 -117 -116t-144 -38q-103 0 -186 65v192h556zM600 388
h-373v200q80 66 186 66q107 0 187 -67v-199z" />
    <glyph glyph-name="onethird" unicode="&#x2153;" horiz-adv-x="856" 
d="M676 -8q72 0 108 29.5t36 83.5q0 73 -57 101q45 24 45 85q0 52 -34.5 82.5t-97.5 30.5q-119 0 -152 -104l-8 -24l68 -26l10 29q10 30 29.5 43.5t54.5 13.5q28 0 43.5 -14t15.5 -39q0 -49 -47 -49h-69v-68h74q24 0 37 -14.5t13 -38.5q0 -53 -69 -53q-38 0 -57 13.5
t-28 43.5l-7 25l-71 -23l9 -27q34 -100 154 -100zM94 0h98l522 710h-98zM166 619v-301h76v396h-58l-163 -92l34 -65z" />
    <glyph glyph-name="twothirds" unicode="&#x2154;" horiz-adv-x="891" 
d="M732 166q24 0 37 -14.5t13 -38.5q0 -53 -69 -53q-38 0 -57 13.5t-28 43.5l-7 25l-71 -23l9 -27q34 -100 154 -100q72 0 108 29.5t36 83.5q0 73 -57 101q45 24 45 85q0 52 -34.5 82.5t-97.5 30.5q-119 0 -152 -104l-8 -24l68 -26l10 29q10 30 29.5 43.5t54.5 13.5
q28 0 43.5 -14t15.5 -39q0 -49 -47 -49h-69v-68h74zM325 321v69h-209v17q0 33 44 47l56 17q60 20 87 48t27 81q0 55 -36.5 90t-102.5 35q-108 0 -145 -103l-10 -26l72 -22q4 9 7 16q4 8 5 12q1 2 2 5q3 6 7.5 14t12.5 15t20 12t28 5q30 0 46.5 -15.5t16.5 -40.5
q0 -22 -12 -37q-11 -12 -59 -31l-57 -23q-46 -18 -64 -46.5t-18 -79.5v-59h282zM147 0h98l522 710h-98z" />
    <glyph glyph-name="oneeighth" unicode="&#x215b;" horiz-adv-x="863" 
d="M669 404q-69 0 -107.5 -29.5t-38.5 -83.5q0 -65 63 -94q-74 -29 -74 -99q0 -51 39.5 -78.5t117.5 -27.5q158 0 158 120q0 69 -73 96q61 27 61 92q0 49 -38 76.5t-108 27.5zM94 0h98l522 710h-98zM56 560l111 62v-301h76v396h-58l-163 -92zM631 160q5 2 14.5 5.5t10.5 4.5
q51 -9 71.5 -21.5t20.5 -38.5q0 -57 -77 -57q-80 0 -80 54q0 20 11.5 32.5t28.5 20.5zM598 291q0 53 71 53t71 -52q0 -39 -55 -61q-49 9 -67 22q-20 14 -20 38z" />
    <glyph glyph-name="threeeighths" unicode="&#x215c;" horiz-adv-x="888" 
d="M696 404q-69 0 -107.5 -29.5t-38.5 -83.5q0 -65 63 -94q-74 -29 -74 -99q0 -51 39.5 -78.5t117.5 -27.5q158 0 158 120q0 69 -72 96q60 29 60 92q0 31 -13 51t-34 32t-47 16.5t-52 4.5zM193 313q72 0 108 29.5t36 83.5q0 73 -57 101q45 24 45 85q0 52 -34.5 82.5
t-97.5 30.5q-119 0 -152 -104l-8 -24l68 -26l10 29q10 30 29.5 43.5t54.5 13.5q28 0 43.5 -14t15.5 -39q0 -49 -47 -49h-69v-68h74q24 0 37 -14.5t13 -38.5q0 -53 -69 -53q-38 0 -57 13.5t-28 43.5l-7 25l-71 -23l9 -27q34 -100 154 -100zM131 0h98l522 710h-98zM658 160
q5 2 14.5 5.5t10.5 4.5q51 -9 71.5 -21.5t20.5 -38.5q0 -57 -77 -57q-80 0 -80 54q0 20 11.5 32t28.5 21zM626 291q0 53 70 53q71 0 71 -52q0 -40 -55 -61q-48 9 -66 22q-20 14 -20 38z" />
    <glyph glyph-name="fiveeighths" unicode="&#x215d;" horiz-adv-x="887" 
d="M780 208q61 28 61 92q0 49 -38 76.5t-108 27.5q-69 0 -107.5 -29.5t-38.5 -83.5q0 -65 63 -94q-74 -29 -74 -99q0 -51 39.5 -78.5t117.5 -27.5t118 31t40 89q0 69 -73 96zM740 710h-98l-522 -710h98zM183 510q73 0 73 -64q0 -30 -19 -48.5t-55 -18.5q-60 0 -83 63l-8 22
l-65 -24l8 -25q33 -102 151 -102q69 0 106 38.5t37 95.5t-35.5 91t-107.5 34h-66l8 80h186v65h-248l-20 -207h138zM697 53q-80 0 -80 54q0 16 7.5 26.5t18.5 18.5q8 4 14 8q5 2 14.5 5.5t10.5 4.5q51 -9 71.5 -21.5t20.5 -38.5q0 -57 -77 -57zM711 231q-48 9 -67.5 22
t-19.5 38q0 53 71 53t71 -52q0 -39 -55 -61z" />
    <glyph glyph-name="seveneighths" unicode="&#x215e;" horiz-adv-x="847" 
d="M655 404q-69 0 -107.5 -29.5t-38.5 -83.5q0 -65 63 -94q-75 -30 -75 -99q0 -51 40 -78.5t118 -27.5t118 31t40 89q0 69 -73 96q61 28 61 92q0 49 -38 76.5t-108 27.5zM61 0h98l522 710h-98zM227 647l-144 -326h80l151 343v53h-282v-70h195zM577 107q0 10 5 22
q10 15 21 22.5t25 13.5l13 5q51 -9 72 -21.5t21 -38.5q0 -57 -78 -57q-79 0 -79 54zM584 291q0 53 71 53t71 -52q0 -38 -56 -61q-48 9 -66 22q-20 14 -20 38z" />
    <glyph glyph-name="arrowleft" unicode="&#x2190;" horiz-adv-x="745" 
d="M165 297h537v73h-538l176 177l-51 52l-265 -265l265 -265l50 52z" />
    <glyph glyph-name="arrowup" unicode="&#x2191;" horiz-adv-x="745" 
d="M586 361l52 50l-266 266l-265 -265l53 -52l175 175v-537h76v537z" />
    <glyph glyph-name="arrowright" unicode="&#x2192;" horiz-adv-x="745" 
d="M405 547l176 -177h-538v-73h537l-174 -176l50 -52l265 265l-265 265z" />
    <glyph glyph-name="arrowdown" unicode="&#x2193;" horiz-adv-x="745" 
d="M335 663v-537l-175 175l-53 -52l265 -265l266 266l-52 50l-175 -174v537h-76z" />
    <glyph glyph-name="uni2196" unicode="&#x2196;" horiz-adv-x="745" 
d="M608 202v374h-374v-73h248l-381 -381l54 -52l380 379v-247h73z" />
    <glyph glyph-name="uni2197" unicode="&#x2197;" horiz-adv-x="745" 
d="M137 576v-374h73v247l380 -379l54 52l-381 381h248v73h-374z" />
    <glyph glyph-name="uni2198" unicode="&#x2198;" horiz-adv-x="745" 
d="M155 580l-54 -52l381 -381h-248v-73h374v374h-73v-247z" />
    <glyph glyph-name="uni2199" unicode="&#x2199;" horiz-adv-x="745" 
d="M263 147l381 381l-54 52l-380 -379v247h-73v-374h374v73h-248z" />
    <glyph glyph-name="partialdiff" unicode="&#x2202;" horiz-adv-x="552" 
d="M122 742v-82h26q137 0 197 -54.5t65 -168.5q-41 68 -158 68q-97 0 -152 -53t-55 -146v-123q0 -94 57 -146t168 -52t168 52t57 146v215q0 90 -19 155t-61 107t-108.5 62t-161.5 20h-23zM135 306q0 57 34.5 87.5t100.5 30.5t100.5 -30t34.5 -87v-123q0 -57 -34.5 -87.5
t-100.5 -30.5t-100.5 30.5t-34.5 87.5v122z" />
    <glyph glyph-name="Delta" unicode="&#x2206;" horiz-adv-x="629" 
d="M266 710l-238 -638v-72h574v73l-240 637h-96zM314 598l185 -518h-368z" />
    <glyph glyph-name="product" unicode="&#x220f;" horiz-adv-x="679" 
d="M565 -100v720h84v90h-619v-90h86v-720h97v720h255v-720h97z" />
    <glyph glyph-name="summation" unicode="&#x2211;" horiz-adv-x="583" 
d="M157 620h379v90h-496v-77l201 -324l-205 -332v-77h505v90h-387l196 319z" />
    <glyph glyph-name="minus" unicode="&#x2212;" horiz-adv-x="593" 
d="M533 283v87h-472v-87h472z" />
    <glyph glyph-name="uni2215" unicode="&#x2215;" horiz-adv-x="596" 
d="M-13 0h98l522 710h-98z" />
    <glyph glyph-name="uni2219" unicode="&#x2219;" horiz-adv-x="225" 
d="M167 242q0 23 -16 38.5t-39 15.5t-38.5 -15.5t-15.5 -38.5t15.5 -39t38.5 -16t39 16t16 39z" />
    <glyph glyph-name="radical" unicode="&#x221a;" horiz-adv-x="699" 
d="M601 751l-211 -724l-140 413h-227v-87h157l163 -459h90l266 857h-98z" />
    <glyph glyph-name="infinity" unicode="&#x221e;" horiz-adv-x="711" 
d="M506 125q34 0 63 12.5t50 34t33 50.5t12 63q0 35 -11 64.5t-31.5 51t-49 33.5t-64.5 12q-92 0 -151 -101q-59 101 -150 101q-36 0 -65 -12t-50 -34t-32.5 -52t-11.5 -65q0 -33 11.5 -62t32.5 -50t49.5 -33.5t61.5 -12.5q98 0 153 97q22 -40 60 -68.5t90 -28.5zM416 306
q16 24 37 42.5t53 18.5q37 0 59.5 -23.5t22.5 -58.5q0 -33 -22.5 -57t-57.5 -24t-56.5 20.5t-39.5 46.5l-10 15zM205 204q-35 0 -57.5 23.5t-22.5 57.5q0 38 22 60t60 22q17 0 32.5 -7.5t28.5 -19t24 -26t18 -28.5q-8 -15 -18.5 -29.5t-23.5 -26.5t-28.5 -19t-34.5 -7z" />
    <glyph glyph-name="integral" unicode="&#x222b;" horiz-adv-x="377" 
d="M368 657v83h-24q-108 0 -154 -48t-46 -148v-566q0 -31 -5 -53t-17.5 -35.5t-34 -20t-53.5 -6.5h-24v-83h24q109 0 154.5 48t45.5 148v566q0 30 5 52t17.5 36t34 20.5t53.5 6.5h24z" />
    <glyph glyph-name="approxequal" unicode="&#x2248;" horiz-adv-x="563" 
d="M280 283q-52 18 -90 18q-35 0 -65 -13t-55 -36l-19 -18l63 -61l17 15q35 29 72 29q29 0 83 -19q50 -19 90 -19q34 0 64 13t55 36l19 18l-62 62l-18 -16q-32 -29 -72 -29q-25 0 -82 20zM280 465q-51 19 -89 19q-36 0 -66 -12t-56 -36l-21 -18l65 -62l17 16q30 27 71 29
q25 0 82 -20q50 -18 89 -18q35 0 65.5 13t56.5 36l21 18l-66 61l-17 -16q-15 -14 -33 -21.5t-38 -7.5q-28 0 -81 19z" />
    <glyph glyph-name="notequal" unicode="&#x2260;" horiz-adv-x="598" 
d="M534 469h-138l59 114h-55l-58 -114h-280v-87h235l-57 -111h-178v-86h134l-60 -116h56l59 116h283v86h-239l57 111h182v87z" />
    <glyph glyph-name="lessequal" unicode="&#x2264;" horiz-adv-x="548" 
d="M473 643l-407 -187v-71l407 -187v101l-297 123l297 123v98zM66 152v-84h408v84h-408z" />
    <glyph glyph-name="greaterequal" unicode="&#x2265;" horiz-adv-x="547" 
d="M75 299v-101l407 187v71l-407 187v-98l297 -123zM483 68v84h-408v-84h408z" />
    <glyph glyph-name="lozenge" unicode="&#x25ca;" horiz-adv-x="538" 
d="M303 710h-66l-212 -355l212 -355h66l211 355zM413 355l-141 -247h-4l-139 247l140 247h4z" />
    <glyph glyph-name="zero.denom" horiz-adv-x="376" 
d="M188 404q-70 0 -109.5 -37.5t-39.5 -101.5v-135q0 -64 38.5 -101t110.5 -37t110.5 37t38.5 101v135q0 64 -39.5 101.5t-109.5 37.5zM188 64q-35 0 -54 17.5t-19 48.5v135q0 31 19 48.5t54 17.5q34 0 53.5 -17.5t19.5 -48.5v-135q0 -31 -19.5 -48.5t-53.5 -17.5z" />
    <glyph glyph-name="one.denom" horiz-adv-x="283" 
d="M171 396l-163 -92l34 -65l111 62v-301h76v396h-58z" />
    <glyph glyph-name="two.denom" horiz-adv-x="359" 
d="M246 276q0 -22 -12 -37q-11 -12 -59 -31l-57 -23q-46 -18 -64 -46.5t-18 -79.5v-59h282v69h-209v17q0 33 44 47l56 17q60 20 87 48t27 81q0 55 -36.5 90t-102.5 35q-108 0 -145 -103l-10 -26l72 -22q4 9 7 16q4 8 5 12q1 2 2 5q3 6 7.5 14t12.5 15t20 12t28 5
q30 0 46.5 -15.5t16.5 -40.5z" />
    <glyph glyph-name="three.denom" horiz-adv-x="366" 
d="M188 404q-119 0 -152 -104l-8 -24l68 -26l10 29q10 30 29.5 43.5t54.5 13.5q28 0 43.5 -14t15.5 -39q0 -49 -47 -49h-69v-68h74q24 0 37 -14.5t13 -38.5q0 -53 -69 -53q-38 0 -57 13.5t-28 43.5l-7 25l-71 -23l9 -27q34 -100 154 -100q72 0 108 29.5t36 83.5
q0 73 -57 101q45 24 45 85q0 52 -34.5 82.5t-97.5 30.5z" />
    <glyph glyph-name="four.denom" horiz-adv-x="373" 
d="M294 93h52v64h-52v239l-76 -1l-198 -245v-57h203v-93h71v93zM223 302v-145h-118z" />
    <glyph glyph-name="five.denom" horiz-adv-x="357" 
d="M88 143l-65 -24l8 -25q33 -102 151 -102q69 0 106 38.5t37 95.5t-35.5 91t-107.5 34h-66l8 80h186v65h-248l-20 -207h138q73 0 73 -64q0 -30 -19 -48.5t-55 -18.5q-60 0 -83 63z" />
    <glyph glyph-name="six.denom" horiz-adv-x="375" 
d="M207 244q-46 0 -93 -18v30q0 78 80 78q48 0 70 -37l9 -14l67 33q-2 4 -4 7l-4 8q-16 31 -51 52t-87 21q-76 0 -116 -39.5t-40 -111.5v-113q0 -148 151 -148q75 0 114.5 32.5t39.5 95.5q0 58 -33.5 91t-102.5 33zM114 157q44 18 81 18q72 0 72 -56q0 -58 -78 -58
q-75 0 -75 77v19z" />
    <glyph glyph-name="seven.denom" horiz-adv-x="319" 
d="M21 396v-70h195l-144 -326h80l151 343v53h-282z" />
    <glyph glyph-name="eight.denom" horiz-adv-x="382" 
d="M276 208q60 29 60 92q0 31 -13 51t-33.5 32t-46.5 16.5t-52 4.5q-69 0 -107.5 -29.5t-38.5 -83.5q0 -65 62 -94q-74 -30 -74 -99q0 -51 40 -78.5t118 -27.5t118 31t40 89q0 68 -73 96zM152 160q5 2 14.5 6t10.5 4q51 -9 71.5 -21.5t20.5 -38.5q0 -57 -77 -57
q-79 0 -79 54q0 22 12.5 33.5t26.5 19.5zM206 231q-48 9 -67 22t-19 38q0 53 70 53q71 0 71 -52q0 -40 -55 -61z" />
    <glyph glyph-name="nine.denom" horiz-adv-x="376" 
d="M262 140q0 -79 -80 -79q-50 0 -70 38q-6 8 -15 8q-5 0 -13 -3l-30 -15q-19 -9 -10 -25q16 -31 51 -51.5t87 -20.5q76 0 115.5 39t39.5 112v112q0 149 -151 149q-73 0 -113 -32.5t-40 -95.5q0 -60 33.5 -92t102.5 -32q37 0 93 17v-29zM262 239q-36 -18 -82 -18
q-71 0 -71 56q0 58 77 58q76 0 76 -78v-18z" />
    <glyph glyph-name="zero.num" horiz-adv-x="376" 
d="M188 725q-70 0 -109.5 -37.5t-39.5 -101.5v-135q0 -64 38.5 -101t110.5 -37t110.5 37t38.5 101v135q0 64 -39.5 101.5t-109.5 37.5zM188 384q-35 0 -54 18t-19 49v135q0 31 19 48.5t54 17.5q34 0 53.5 -17.5t19.5 -48.5v-135q0 -31 -19.5 -49t-53.5 -18z" />
    <glyph glyph-name="one.num" horiz-adv-x="283" 
d="M171 717l-163 -92l34 -65l111 62v-301h76v396h-58z" />
    <glyph glyph-name="two.num" horiz-adv-x="359" 
d="M246 597q0 -22 -12 -37q-11 -12 -59 -31l-57 -23q-46 -18 -64 -46.5t-18 -79.5v-59h282v69h-209v17q0 33 44 47l56 17q60 20 87 48t27 81q0 55 -36.5 90t-102.5 35q-108 0 -145 -103l-10 -26l72 -22q4 9 7 16q4 8 5 12q1 2 2 5q3 6 7.5 14t12.5 15t20 12t28 5
q30 0 46.5 -15.5t16.5 -40.5z" />
    <glyph glyph-name="three.num" horiz-adv-x="366" 
d="M188 725q-119 0 -152 -104l-8 -24l68 -26l10 29q10 30 29.5 43.5t54.5 13.5q28 0 43.5 -14t15.5 -39q0 -49 -47 -49h-69v-68h74q24 0 37 -14.5t13 -38.5q0 -53 -69 -53q-38 0 -57 13.5t-28 43.5l-7 25l-71 -23l9 -27q34 -100 154 -100q72 0 108 29.5t36 83.5
q0 73 -57 101q45 24 45 85q0 52 -34.5 82.5t-97.5 30.5z" />
    <glyph glyph-name="four.num" horiz-adv-x="373" 
d="M294 414h52v64h-52v239l-76 -1l-198 -245v-57h203v-93h71v93zM223 623v-145h-118z" />
    <glyph glyph-name="five.num" horiz-adv-x="357" 
d="M88 464l-65 -24l8 -25q33 -102 151 -102q69 0 106 38.5t37 95.5t-35.5 91t-107.5 34h-66l8 80h186v65h-248l-20 -207h138q73 0 73 -64q0 -30 -19 -48.5t-55 -18.5q-60 0 -83 63z" />
    <glyph glyph-name="six.num" horiz-adv-x="376" 
d="M207 565q-46 0 -93 -18v30q0 78 80 78q48 0 70 -37l9 -14l67 33q-2 4 -4 7l-4 8q-16 31 -51 52t-87 21q-76 0 -116 -39.5t-40 -111.5v-113q0 -148 151 -148q75 0 114.5 32.5t39.5 95.5q0 58 -33.5 91t-102.5 33zM114 478q44 18 81 18q72 0 72 -56q0 -58 -78 -58
q-75 0 -75 77v19z" />
    <glyph glyph-name="seven.num" horiz-adv-x="319" 
d="M22 717v-70h195l-144 -326h80l151 343v53h-282z" />
    <glyph glyph-name="eight.num" horiz-adv-x="382" 
d="M276 529q60 29 60 92q0 31 -13 51t-33.5 32t-46.5 16.5t-52 4.5q-69 0 -107.5 -29.5t-38.5 -83.5q0 -65 62 -94q-74 -32 -74 -99q0 -51 40 -78.5t118 -27.5t118 31t40 89q0 68 -73 96zM152 481q5 2 14.5 6t10.5 4q51 -9 71.5 -21.5t20.5 -38.5q0 -58 -77 -58
q-79 0 -79 55q0 22 12.5 33.5t26.5 19.5zM206 552q-48 9 -67 21.5t-19 37.5q0 54 70 54q71 0 71 -53q0 -42 -55 -60z" />
    <glyph glyph-name="nine.num" horiz-adv-x="376" 
d="M262 461q0 -79 -80 -79q-49 0 -70 37q-7 9 -16 9q-6 0 -12 -3l-30 -15q-19 -9 -10 -25q16 -31 51 -51.5t87 -20.5q76 0 115.5 39t39.5 112v112q0 149 -151 149q-73 0 -113 -32.5t-40 -95.5q0 -60 33.5 -92.5t102.5 -32.5q36 0 93 18v-29zM262 560q-36 -18 -82 -18
q-71 0 -71 55q0 58 77 58q76 0 76 -77v-18z" />
    <glyph glyph-name="nonmarkingreturn" horiz-adv-x="322" 
 />
    <glyph glyph-name="acute.case" horiz-adv-x="257" 
d="M10 796l32 -43l217 102l-51 62z" />
    <glyph glyph-name="breve.case" horiz-adv-x="287" 
d="M225 893q-19 -66 -87 -66t-86 66l-5 17l-66 -26l5 -17q17 -51 55.5 -78t96.5 -27q118 0 154 105l6 17l-69 23z" />
    <glyph glyph-name="caron.case" horiz-adv-x="332" 
d="M164 819l-93 85h-93l158 -144h55l157 144h-87z" />
    <glyph glyph-name="cedilla.case" horiz-adv-x="251" 
d="M110 -109q52 -1 52 -36q0 -47 -60 -47q-35 0 -67 20l-14 9l3 -59l13 -7q28 -16 77 -16q54 0 87.5 22.5t37.5 73.5q3 37 -20.5 61t-63.5 24q-4 0 -9 -0.5t-11 -1.5l25 66h-54l-47 -117l22 5q14 3 29 3z" />
    <glyph glyph-name="circumflex.case" horiz-adv-x="385" 
d="M218 904h-54l-154 -140h86l94 82l90 -82h91z" />
    <glyph glyph-name="dieresis.case" horiz-adv-x="439" 
d="M73 830q0 -20 13 -33t32 -13t32.5 13t13.5 33q0 19 -13.5 32t-32.5 13t-32 -13t-13 -32zM315 875q-19 0 -32 -13t-13 -32q0 -20 13 -33t32 -13t32.5 13t13.5 33q0 19 -13.5 32t-32.5 13z" />
    <glyph glyph-name="dotaccent.case" horiz-adv-x="216" 
d="M155 828q0 19 -13.5 32.5t-33.5 13.5t-33 -13.5t-13 -32.5q0 -20 13 -33.5t33 -13.5t33.5 13.5t13.5 33.5z" />
    <glyph glyph-name="grave.case" horiz-adv-x="257" 
d="M58 914l-51 -61l217 -101l32 44z" />
    <glyph glyph-name="hungarumlaut.case" horiz-adv-x="395" 
d="M208 772l48 -17l149 136l-80 24zM230 891l-76 24l-113 -140l49 -17z" />
    <glyph glyph-name="macron.case" horiz-adv-x="352" 
d="M316 794v65h-279v-65h279z" />
    <glyph glyph-name="ogonek.case" horiz-adv-x="252" 
d="M188 -163q-16 -16 -40 -16q-25 0 -33 24t12 65.5t65 89.5h-60q-55 -48 -80 -99.5t-14 -91.5q12 -55 82 -55q56 0 92 36q1 0 4 3l3 3l-22 50z" />
    <glyph glyph-name="ring.case" horiz-adv-x="240" 
d="M225 852q0 47 -28 74.5t-75 27.5t-76.5 -27t-29.5 -75q0 -47 30.5 -74t75.5 -27q46 0 74.5 27t28.5 74zM122 795q-27 0 -43.5 15.5t-16.5 41.5t16.5 41.5t43.5 15.5q26 0 42 -15q15 -16 15 -42t-15 -41q-16 -16 -42 -16z" />
    <glyph glyph-name="tilde.case" horiz-adv-x="305" 
d="M225 768q42 0 61.5 25t19.5 80v15h-55v-15q0 -48 -32 -48q-20 0 -61 32q-40 31 -79 31q-80 0 -80 -105v-15h55v15q0 48 33 48q23 0 63 -31q41 -32 75 -32z" />
    <glyph glyph-name="uni0326.alt" horiz-adv-x="0" 
d="M159 584l41 185h-69l-67 -185h95z" />
    <glyph glyph-name="_375" horiz-adv-x="664" 
d="M281 710l-239 -638v-72h574v73l-240 637h-95zM328 598l185 -518h-368z" />
    <glyph glyph-name="_376" horiz-adv-x="744" 
d="M416 70v-70h295v90h-157q69 46 107 119.5t38 167.5q0 72 -24 133t-67 105.5t-103 69.5t-133 25t-133 -25t-103 -69.5t-67 -105.5t-24 -133q0 -93 37.5 -167t107.5 -120h-157v-90h295v69l-14 7q-85 42 -130.5 119t-45.5 173q0 53 16 100t46 82t73.5 55.5t98.5 20.5
q56 0 99.5 -20.5t73.5 -55.5t45.5 -82t15.5 -100q0 -100 -46.5 -176t-130.5 -116z" />
    </font>
</defs>
</svg>
