<?xml version="1.0" standalone="no"?>
<!DOCTYPE svg PUBLIC "-//W3C//DTD SVG 1.1//EN" "http://www.w3.org/Graphics/SVG/1.1/DTD/svg11.dtd" >
<svg xmlns="http://www.w3.org/2000/svg" xmlns:xlink="http://www.w3.org/1999/xlink" version="1.1">
<metadata>
Created by FontForge 20170731 at Sat Aug 10 20:32:40 2019
 By Aleksey,,,
Moh'd M. Khatib.2019
</metadata>
<defs>
<font id="Sahar-Regular" horiz-adv-x="549" >
  <font-face 
    font-family="Sahar"
    font-weight="400"
    font-stretch="normal"
    units-per-em="1000"
    panose-1="0 0 0 0 0 0 0 0 0 0"
    ascent="800"
    descent="-200"
    x-height="514"
    cap-height="710"
    bbox="-219 -254 1148 968"
    underline-thickness="50"
    underline-position="-250"
    unicode-range="U+0020-FB02"
  />
<missing-glyph horiz-adv-x="686" 
d="M86 710v-710h519v710h-519zM533 68h-375v574h375v-574z" />
    <glyph glyph-name="fi" unicode="fi" horiz-adv-x="568" 
d="M435 452v-452h67v514h-320v26q0 39 7 65.5t24 42.5t44.5 23t67.5 7h177v62h-177q-56 0 -95.5 -11t-65 -35t-37.5 -62t-12 -92v-26h-107v-62h107v-452h67v452h253z" />
    <glyph glyph-name="fl" unicode="fl" horiz-adv-x="538" 
d="M325 678h76v-678h67v740h-143q-112 0 -161 -46.5t-49 -152.5v-27h-107v-62h107v-452h67v452h134v62h-134v26q0 39 7.5 65.5t24 42.5t44 23t67.5 7z" />
    <glyph glyph-name=".notdef" horiz-adv-x="686" 
d="M86 710v-710h519v710h-519zM533 68h-375v574h375v-574z" />
    <glyph glyph-name=".null" horiz-adv-x="262" 
 />
    <glyph glyph-name="nonmarkingreturn" horiz-adv-x="333" 
 />
    <glyph glyph-name="space" unicode=" " horiz-adv-x="236" 
 />
    <glyph glyph-name="exclam" unicode="!" horiz-adv-x="207" 
d="M130 168l9 572h-71l8 -572h54zM104 80q-18 0 -30.5 -12.5t-12.5 -29.5q0 -18 12.5 -30.5t30.5 -12.5q17 0 29.5 12.5t12.5 30.5q0 17 -12.5 29.5t-29.5 12.5z" />
    <glyph glyph-name="quotedbl" unicode="&#x22;" horiz-adv-x="295" 
d="M127 710h-63v-236h52zM226 474l12 236h-63v-236h51z" />
    <glyph glyph-name="numbersign" unicode="#" horiz-adv-x="680" 
d="M237 480h-121l-19 -62h122l-49 -165h-122l-18 -62h121l-56 -191h66l56 191h158l-57 -191h66l57 191h123l19 62h-124l49 165h124l18 62h-123l51 174h-66l-51 -174h-157l51 174h-66zM393 253h-157l49 165h157z" />
    <glyph glyph-name="dollar" unicode="$" horiz-adv-x="590" 
d="M472 204q0 -40 -15.5 -65t-41 -39t-57.5 -19.5t-65 -5.5q-71 0 -113 30t-70 97q-2 6 -5 11.5t-6 11.5l-65 -30q5 -10 8 -19q61 -154 217 -167v-82h67v83q109 7 164 57.5t55 138.5q0 53 -18 86.5t-48 54t-69.5 30t-83.5 13.5q-5 1 -10.5 1t-10.5 1q-14 2 -25.5 2.5
t-20.5 2.5q-25 3 -49 9t-43 18.5t-30 32.5t-11 50q0 38 13 62.5t35 39t51 20.5t61 6q11 0 20.5 -0.5t19.5 -1.5q52 -8 83.5 -35.5t58.5 -79.5v-1q2 -5 4.5 -8.5t4.5 -8.5l67 31q-3 5 -5.5 9t-4.5 9q-18 36 -37.5 63t-44.5 46t-56 30t-70 14v81h-67v-81q-104 -7 -155.5 -57.5
t-51.5 -138.5q0 -55 21 -89t55 -54t77 -28.5t87 -11.5q30 -2 62 -6.5t58 -17t43 -35t17 -60.5z" />
    <glyph glyph-name="percent" unicode="%" horiz-adv-x="812" 
d="M459 204v-74q0 -69 41 -107t117 -38q78 0 118.5 38t40.5 107v74q0 69 -40.5 108t-118.5 39q-76 0 -117 -39t-41 -108zM353 505v73q0 69 -40.5 108t-118.5 39q-76 0 -117 -39t-41 -108v-73q0 -69 41 -107.5t117 -38.5q78 0 118.5 38.5t40.5 107.5zM704 710h-73l-524 -710
h75zM93 576q0 45 26.5 69.5t74.5 24.5q49 0 75.5 -24.5t26.5 -69.5v-68q0 -45 -26.5 -69.5t-75.5 -24.5q-48 0 -74.5 24.5t-26.5 69.5v68zM617 39q-49 0 -75 25t-26 70v67q0 45 26 70t75 25t75 -25t26 -70v-67q0 -45 -26 -70t-75 -25z" />
    <glyph glyph-name="ampersand" unicode="&#x26;" horiz-adv-x="661" 
d="M287 724q-41 0 -74.5 -13.5t-57 -37t-36.5 -54.5t-13 -66q0 -82 88 -170q-72 -34 -112 -80.5t-40 -121.5q0 -42 15 -78t41.5 -62t62.5 -40.5t78 -14.5q38 0 69.5 8.5t59.5 24t54 36.5t53 46l103 -101h85l-144 143l81 80l-44 46l-81 -79l-179 175l9 4q42 18 72 37t49.5 41
t28.5 49t9 61q0 37 -14.5 67.5t-38.5 52.5t-56 34.5t-68 12.5zM111 180q0 57 31 92.5t96 64.5l193 -189q-31 -28 -56 -47t-46.5 -30.5t-42.5 -16t-44 -4.5q-28 0 -52 10t-41.5 27t-27.5 41t-10 52zM252 411q-30 29 -56 63t-26 78q0 23 8.5 43.5t23.5 36t36.5 24.5t48.5 9
q24 0 45 -9t36 -24t24 -34.5t9 -40.5q0 -26 -7.5 -44.5t-22.5 -33.5t-38.5 -28t-55.5 -27z" />
    <glyph glyph-name="quotesingle" unicode="'" horiz-adv-x="184" 
d="M64 474h52l10 236h-62v-236z" />
    <glyph glyph-name="parenleft" unicode="(" horiz-adv-x="256" 
d="M200 -131l16 -7l29 58l-18 9q-52 25 -76.5 62.5t-24.5 103.5v520q0 66 24.5 103.5t76.5 62.5l18 9l-29 58q-5 -2 -8.5 -3.5t-7.5 -3.5q-71 -32 -105.5 -86t-34.5 -144v-512q0 -90 34.5 -144t105.5 -86z" />
    <glyph glyph-name="parenright" unicode=")" horiz-adv-x="256" 
d="M29 -71l-18 -9l29 -58l16 7q71 32 105.5 86t34.5 144v512q0 90 -34.5 144t-105.5 86q-4 2 -7.5 3.5t-8.5 3.5l-29 -58l18 -9q52 -25 76.5 -62.5t24.5 -103.5v-520q0 -66 -24.5 -103.5t-76.5 -62.5z" />
    <glyph glyph-name="asterisk" unicode="*" horiz-adv-x="379" 
d="M211 673h-43l8 -117l-110 45l-13 -43l114 -28l-77 -90l36 -28l64 100l60 -99l38 25l-76 92l115 27l-13 43l-111 -44z" />
    <glyph glyph-name="plus" unicode="+" horiz-adv-x="567" 
d="M519 359h-204v204h-64v-204h-204v-63h204v-205h64v205h204v63z" />
    <glyph glyph-name="comma" unicode="," horiz-adv-x="181" 
d="M65 -121l71 202h-73l-42 -202h44z" />
    <glyph glyph-name="hyphen" unicode="-" horiz-adv-x="422" 
d="M62 233h298v65h-298v-65z" />
    <glyph glyph-name="period" unicode="." horiz-adv-x="186" 
d="M135 38q0 17 -12.5 29.5t-29.5 12.5q-18 0 -30.5 -12.5t-12.5 -29.5q0 -18 12.5 -30.5t30.5 -12.5q17 0 29.5 12.5t12.5 30.5z" />
    <glyph glyph-name="slash" unicode="/" horiz-adv-x="408" 
d="M382 710h-70l-285 -770h69z" />
    <glyph glyph-name="zero" unicode="0" horiz-adv-x="626" 
d="M568 492q0 108 -67 170t-188 62t-188 -62t-67 -170v-274q0 -108 67 -170t188 -62t188 62t67 170v274zM495 218q0 -78 -47.5 -121.5t-134.5 -43.5t-135 43.5t-48 121.5v274q0 78 48 121.5t135 43.5t134.5 -43.5t47.5 -121.5v-274z" />
    <glyph glyph-name="one" unicode="1" horiz-adv-x="444" 
d="M356 0v710h-61l-276 -155l33 -61l231 128v-622h73z" />
    <glyph glyph-name="two" unicode="2" horiz-adv-x="590" 
d="M395 376q-34 -24 -137 -64q-40 -15 -78 -33t-66.5 -43t-46 -59.5t-17.5 -83.5v-93h484v68h-408v39q0 29 12 51t39 39q13 9 23.5 14.5t21.5 11t24.5 10.5t32.5 12q36 14 62.5 25.5t48.5 22.5t41 23.5t38 27.5q38 30 54.5 70.5t16.5 95.5q0 49 -18 88.5t-49 67.5t-73 43
t-89 15q-188 0 -257 -162l-7 -17l67 -26l8 19q29 61 72.5 90t114.5 29q35 0 63.5 -11.5t48.5 -32t31.5 -47.5t11.5 -59q-1 -81 -69 -131z" />
    <glyph glyph-name="three" unicode="3" horiz-adv-x="599" 
d="M308 -13q122 0 182.5 55t60.5 155q0 132 -112 173q90 39 90 157q0 94 -56 146t-165 52t-168 -42t-86 -128l-6 -20l69 -24l6 19q11 34 25 58.5t35.5 40t51.5 22.5t71 7q75 0 113 -35.5t38 -102.5q0 -54 -32 -88.5t-92 -34.5h-156v-66h165q65 0 99.5 -35t34.5 -98
q0 -69 -41.5 -106.5t-126.5 -37.5q-43 0 -74.5 7.5t-54 23.5t-37 41t-25.5 59l-7 20l-69 -24l7 -20q27 -87 88 -130.5t172 -43.5z" />
    <glyph glyph-name="four" unicode="4" horiz-adv-x="610" 
d="M470 718h-69l-376 -469v-56h376v-193h69v193h112v65h-112v460zM111 258l290 360v-360h-290z" />
    <glyph glyph-name="five" unicode="5" horiz-adv-x="585" 
d="M302 53q-149 0 -191 113l-8 20l-68 -25l7 -18q57 -158 260 -158q51 0 95 15.5t77 45t51.5 71.5t18.5 95q0 47 -15 87t-44.5 69t-73 45t-99.5 16h-165l21 213h349v68h-414l-36 -348h241q76 0 117.5 -41.5t41.5 -108.5q0 -35 -11.5 -64.5t-33.5 -50.5t-52 -32.5t-68 -11.5z
" />
    <glyph glyph-name="six" unicode="6" horiz-adv-x="621" 
d="M325 420q-100 0 -196 -31v83q0 91 47.5 138t138.5 47q135 0 180 -109l6 -15l67 24l-5 14q-58 153 -248 153q-127 0 -192.5 -64.5t-65.5 -187.5v-234q0 -120 66 -186t192 -66q121 0 189.5 57t68.5 160q0 109 -60.5 163t-187.5 54zM129 318q77 34 191 34q94 0 137.5 -36.5
t43.5 -112.5q0 -72 -48 -111t-138 -39q-91 0 -138.5 47.5t-47.5 137.5v80z" />
    <glyph glyph-name="seven" unicode="7" horiz-adv-x="519" 
d="M506 653v57h-479v-68h396l-287 -642h80z" />
    <glyph glyph-name="eight" unicode="8" horiz-adv-x="616" 
d="M547 543q0 89 -61 135t-179 46q-111 0 -174.5 -48.5t-63.5 -137.5q0 -69 37.5 -109.5t103.5 -67.5q-162 -59 -162 -192q0 -183 259 -183q135 0 198 51.5t63 142.5q0 77 -42.5 117.5t-118.5 67.5q140 53 140 178zM487 223q5 -20 5 -44q0 -130 -184 -130q-187 0 -187 127
q0 117 158 159q4 -1 9 -2.5t8 -2t9 -2.5q37 -10 50.5 -14t42.5 -14t40.5 -19.5t27 -24t21.5 -33.5zM476 537q0 -39 -16 -68t-45 -46t-43 -22.5t-37 -12.5l-23 7q-42 11 -66 19.5t-51.5 24.5t-40 40t-12.5 58q0 60 43.5 92t122.5 32q82 0 125 -31.5t43 -92.5z" />
    <glyph glyph-name="nine" unicode="9" horiz-adv-x="621" 
d="M563 472q0 120 -66 186t-192 66q-121 0 -189.5 -57t-68.5 -160q0 -109 60.5 -163t187.5 -54q100 0 196 31v-83q0 -91 -47.5 -138t-138.5 -47q-135 0 -180 109l-6 15l-67 -24l5 -14q59 -153 248 -153q127 0 192.5 64.5t65.5 187.5v234zM491 392q-77 -34 -191 -34
q-94 0 -137.5 36.5t-43.5 112.5q0 72 48 111t138 39q91 0 138.5 -47.5t47.5 -137.5v-80z" />
    <glyph glyph-name="colon" unicode=":" horiz-adv-x="209" 
d="M58 444q0 -18 12.5 -30.5t30.5 -12.5q17 0 29.5 12.5t12.5 30.5q0 17 -12.5 29.5t-29.5 12.5q-18 0 -30.5 -12.5t-12.5 -29.5zM105 -6q17 0 29.5 12.5t12.5 30.5q0 17 -12.5 29.5t-29.5 12.5q-18 0 -30.5 -12.5t-12.5 -29.5q0 -18 12.5 -30.5t30.5 -12.5z" />
    <glyph glyph-name="semicolon" unicode=";" horiz-adv-x="237" 
d="M91 81l-41 -202h44l71 202h-74zM128 401q17 0 29.5 12.5t12.5 30.5q0 17 -12.5 29.5t-29.5 12.5q-18 0 -30.5 -12.5t-12.5 -29.5q0 -18 12.5 -30.5t30.5 -12.5z" />
    <glyph glyph-name="less" unicode="&#x3c;" horiz-adv-x="497" 
d="M436 83v77l-317 168l317 165v76l-400 -217v-52z" />
    <glyph glyph-name="equal" unicode="=" horiz-adv-x="598" 
d="M535 195v66h-472v-66h472zM535 458h-472v-65h472v65z" />
    <glyph glyph-name="greater" unicode="&#x3e;" horiz-adv-x="497" 
d="M461 300v52l-400 217v-76l317 -165l-317 -168v-77z" />
    <glyph glyph-name="question" unicode="?" horiz-adv-x="558" 
d="M224 155h61v19q0 46 22 74.5t67 57.5q29 14 54.5 36t47.5 45q48 52 48 147q0 44 -16.5 81.5t-47.5 65.5t-75 43.5t-99 15.5q-189 0 -254 -165l-8 -20l67 -21l7 18q48 123 186 123q79 0 124 -40.5t45 -103.5q0 -35 -8.5 -60.5t-24.5 -45.5t-38 -37t-49 -35t-47 -35
t-34 -38t-21 -46.5t-7 -59.5v-19zM212 37q0 -18 12.5 -30.5t30.5 -12.5q17 0 29.5 12.5t12.5 30.5q0 17 -12.5 29.5t-29.5 12.5q-18 0 -30.5 -12.5t-12.5 -29.5z" />
    <glyph glyph-name="at" unicode="@" horiz-adv-x="901" 
d="M674 -54l-9 -1l-6 -2q-128 -26 -211 -26q-166 0 -256 87t-90 251v73q0 81 23.5 145.5t68 109.5t108.5 69t146 24q83 0 148 -24t109 -69t67 -109.5t23 -145.5v-73q0 -80 -34.5 -119.5t-84.5 -39.5q-42 0 -42 40v353l-34 14h-1q-70 30 -177 30q-88 0 -130.5 -43t-42.5 -122
v-153q0 -79 42.5 -122t130.5 -43q96 0 183 36q11 -22 26.5 -31.5t44.5 -9.5q36 0 68 14t55 41t36.5 66t13.5 90v72q0 91 -26.5 164.5t-77.5 125t-126 79t-171 27.5q-93 0 -167.5 -26.5t-126 -77.5t-79 -124.5t-27.5 -167.5v-72q0 -186 104 -287t296 -101q121 0 214 27h1
l11 3v48zM307 366q0 114 122 114q76 0 130 -19l17 -6v-320q-62 -31 -147 -31q-122 0 -122 112v150z" />
    <glyph glyph-name="A" unicode="A" horiz-adv-x="641" 
d="M287 713l-282 -713h75l82 208h315l80 -208h80l-282 713h-68zM185 268l135 346l134 -346h-269z" />
    <glyph glyph-name="B" unicode="B" horiz-adv-x="643" 
d="M598 191q0 143 -119 175v2q94 40 94 160q0 88 -50 135t-143 47h-302v-710h313q96 0 151.5 50t55.5 141zM388 68h-238v261h238q66 0 100 -33.5t34 -97.5q0 -66 -34.5 -98t-99.5 -32zM150 642h221q128 0 128 -123q0 -63 -32.5 -94t-95.5 -31h-221v248z" />
    <glyph glyph-name="C" unicode="C" horiz-adv-x="636" 
d="M331 -14q114 0 177.5 43.5t90.5 131.5l6 18l-69 27l-6 -21q-21 -68 -67 -100t-132 -32q-97 0 -149 48t-52 135v238q0 88 51 135.5t150 47.5q85 0 130.5 -31t66.5 -98l6 -19l69 24l-7 23q-27 85 -90.5 126.5t-174.5 41.5q-134 0 -204 -66.5t-70 -184.5v-236
q0 -118 71 -184.5t203 -66.5z" />
    <glyph glyph-name="D" unicode="D" horiz-adv-x="653" 
d="M599 446q0 124 -75.5 194t-214.5 70h-231v-710h231q139 0 214.5 70t75.5 194v182zM526 264q0 -94 -55.5 -145t-161.5 -51h-159v574h159q106 0 161.5 -51t55.5 -145v-182z" />
    <glyph glyph-name="E" unicode="E" horiz-adv-x="573" 
d="M150 642h372v68h-444v-710h457v68h-385v258h327v68h-327v248z" />
    <glyph glyph-name="F" unicode="F" horiz-adv-x="555" 
d="M150 316h323v67h-323v259h372v68h-444v-710h72v316z" />
    <glyph glyph-name="G" unicode="G" horiz-adv-x="655" 
d="M533 509l70 24l-6 20q-27 87 -90.5 129t-175.5 42q-134 0 -204 -66.5t-70 -184.5v-235q0 -118 70.5 -185t204.5 -67q131 0 202 64t72 174v144h-284v-68h213v-75q0 -79 -53 -125.5t-150 -46.5q-99 0 -151 48.5t-52 136.5v236q0 88 51 135.5t151 47.5q85 0 130.5 -31
t66.5 -98z" />
    <glyph glyph-name="H" unicode="H" horiz-adv-x="681" 
d="M603 710h-72v-316h-381v316h-72v-710h72v326h381v-326h72v710z" />
    <glyph glyph-name="I" unicode="I" horiz-adv-x="228" 
d="M78 0h73v710h-73v-710z" />
    <glyph glyph-name="J" unicode="J" horiz-adv-x="570" 
d="M256 -15q116 0 179 62.5t63 175.5v487h-73v-488q0 -81 -43.5 -125t-125.5 -44q-72 0 -111.5 35.5t-55.5 106.5l-5 21l-69 -24q1 -5 2 -9q2 -10 2 -11h1q45 -187 236 -187z" />
    <glyph glyph-name="K" unicode="K" horiz-adv-x="609" 
d="M252 327q53 0 83 -16.5t52 -56.5l128 -254h84l-137 267q-46 91 -121 112l251 331h-87l-237 -317h-118v317h-72v-710h72v327h102z" />
    <glyph glyph-name="L" unicode="L" horiz-adv-x="521" 
d="M78 710v-710h430v68h-358v642h-72z" />
    <glyph glyph-name="M" unicode="M" horiz-adv-x="800" 
d="M655 710l-255 -455l-258 455h-64v-710h68v568l228 -402h50l229 403v-569h70v710h-68z" />
    <glyph glyph-name="N" unicode="N" horiz-adv-x="691" 
d="M542 710v-574l-398 574h-66v-710h70v574l399 -574h66v710h-71z" />
    <glyph glyph-name="O" unicode="O" horiz-adv-x="663" 
d="M606 473q0 118 -70.5 184.5t-203.5 66.5q-134 0 -204.5 -66.5t-70.5 -184.5v-236q0 -118 70.5 -184.5t204.5 -66.5q133 0 203.5 66.5t70.5 184.5v236zM534 237q0 -88 -51.5 -136t-150.5 -48t-151 48t-52 136v236q0 88 52 136t151 48t150.5 -48t51.5 -136v-236z" />
    <glyph glyph-name="P" unicode="P" horiz-adv-x="622" 
d="M365 267q106 0 166 58t60 163t-60 163.5t-166 58.5h-287v-710h72v267h215zM516 488q0 -72 -42 -113t-115 -41h-209v308h209q73 0 115 -41t42 -113z" />
    <glyph glyph-name="Q" unicode="Q" horiz-adv-x="675" 
d="M332 724q-134 0 -204.5 -66.5t-70.5 -184.5v-236q0 -119 70.5 -185t204.5 -66q100 0 161 40l84 -100l53 43l-82 97q58 65 58 171v236q0 118 -70.5 184.5t-203.5 66.5zM332 53q-99 0 -151 47.5t-52 136.5v236q0 88 52 136t151 48t150.5 -48t51.5 -136v-236
q0 -89 -51.5 -136.5t-150.5 -47.5z" />
    <glyph glyph-name="R" unicode="R" horiz-adv-x="644" 
d="M456 313q64 17 99.5 66t35.5 124q0 99 -55 153t-155 54h-303v-710h72v298h135q57 0 87.5 -18.5t53.5 -65.5l108 -214h83l-122 238q-27 52 -65 69q14 2 26 6zM374 642q68 0 105 -36t37 -103q0 -52 -23.5 -85t-67.5 -45q-21 -7 -51 -7h-224v276h224z" />
    <glyph glyph-name="S" unicode="S" horiz-adv-x="626" 
d="M310 655q74 0 119.5 -28t75.5 -88l8 -17l68 31q-3 5 -5 10q-2 3 -3 6t-2 3q-19 39 -43.5 68t-56 47.5t-71.5 27.5t-90 9q-123 0 -190.5 -55.5t-67.5 -149.5q0 -60 23.5 -96.5t61 -57t85 -29.5t94.5 -14q32 -3 66 -8.5t63 -18.5t47.5 -36.5t18.5 -64.5q0 -140 -199 -140
q-148 0 -202 130l-8 18l-69 -24l9 -23q35 -87 99 -128t171 -41q133 0 202.5 55t69.5 155q0 59 -21.5 95t-57 56.5t-80.5 29.5t-92 15q-32 3 -68.5 8.5t-67 19t-51 38t-20.5 65.5q0 64 47 98t137 34z" />
    <glyph glyph-name="T" unicode="T" horiz-adv-x="543" 
d="M530 642v68h-517v-68h222v-642h73v642h222z" />
    <glyph glyph-name="U" unicode="U" horiz-adv-x="682" 
d="M537 710v-469q0 -90 -49.5 -139t-146.5 -49t-146.5 49t-49.5 139v469h-73v-468q0 -121 68.5 -189t200.5 -68t200.5 68t68.5 189v468h-73z" />
    <glyph glyph-name="V" unicode="V" horiz-adv-x="622" 
d="M617 710h-78l-227 -610l-228 610h-79l271 -710h69z" />
    <glyph glyph-name="W" unicode="W" horiz-adv-x="881" 
d="M441 580l159 -580h75l187 710h-74l-148 -586l-159 575h-75l-161 -570l-147 581h-80l188 -710h73z" />
    <glyph glyph-name="X" unicode="X" horiz-adv-x="617" 
d="M516 710l-210 -289l-210 289h-87l254 -349l-262 -361h87l218 301l219 -301h87l-262 361l254 349h-88z" />
    <glyph glyph-name="Y" unicode="Y" horiz-adv-x="627" 
d="M350 0v288l273 422h-87l-222 -347l-221 347h-91l275 -421v-289h73z" />
    <glyph glyph-name="Z" unicode="Z" horiz-adv-x="566" 
d="M536 68h-413l403 583v59h-489v-68h398l-402 -582v-60h503v68z" />
    <glyph glyph-name="bracketleft" unicode="[" horiz-adv-x="272" 
d="M256 -146v61h-124v880h124v61h-189v-1002h189z" />
    <glyph glyph-name="backslash" unicode="\" horiz-adv-x="408" 
d="M312 -60h69l-285 770h-70z" />
    <glyph glyph-name="bracketright" unicode="]" horiz-adv-x="272" 
d="M205 -146v1002h-189v-61h124v-880h-124v-61h189z" />
    <glyph glyph-name="asciicircum" unicode="^" horiz-adv-x="592" 
d="M473 520h82l-240 290h-42l-237 -290h79l178 223z" />
    <glyph glyph-name="underscore" unicode="_" horiz-adv-x="506" 
d="M27 -65h452v65h-452v-65z" />
    <glyph glyph-name="grave" unicode="`" horiz-adv-x="257" 
d="M219 584l28 34l-195 121l-38 -46z" />
    <glyph glyph-name="a" unicode="a" horiz-adv-x="512" 
d="M257 296q-60 0 -101.5 -8.5t-68 -27t-38.5 -48t-12 -71.5q0 -40 10.5 -69.5t35.5 -48.5t66.5 -28t103.5 -9q108 0 166 26l36 15v304q0 45 -10.5 82t-34 62.5t-61.5 39.5t-94 14q-144 0 -201 -105l-10 -18l61 -25l8 15q41 73 140 73q76 0 105.5 -36t29.5 -101v-46
q-45 5 -78 7.5t-53 2.5zM369 58q-44 -16 -121 -16q-42 0 -69 6t-43.5 18.5t-23 31.5t-6.5 44q0 52 32.5 75t111.5 23q48 0 138 -9v-167z" />
    <glyph glyph-name="b" unicode="b" horiz-adv-x="537" 
d="M132 740h-68v-706l39 -18q66 -30 169 -30q215 0 215 205v142q0 196 -197 196q-66 0 -158 -31v242zM132 435q78 32 149 32q139 0 139 -136v-139q0 -145 -153 -145q-68 0 -117 20l-18 7v361z" />
    <glyph glyph-name="c" unicode="c" horiz-adv-x="515" 
d="M414 147q-31 -102 -149 -102q-72 0 -110.5 35.5t-38.5 100.5v153q0 64 38 99.5t111 35.5q63 0 97.5 -23.5t50.5 -74.5l6 -19l63 22l-6 20q-40 135 -209 135q-109 0 -163.5 -51.5t-54.5 -145.5v-149q0 -94 54 -145.5t160 -51.5q169 0 215 140l7 20l-65 20z" />
    <glyph glyph-name="d" unicode="d" horiz-adv-x="537" 
d="M472 32v708h-67v-240q-85 29 -158 29q-100 0 -148.5 -51.5t-48.5 -148.5v-143q0 -200 210 -200q103 0 173 30zM405 73l-19 -7q-53 -19 -120 -19q-149 0 -149 140v140q0 140 142 140q70 0 146 -30v-364z" />
    <glyph glyph-name="e" unicode="e" horiz-adv-x="530" 
d="M420 126q-45 -82 -156 -82q-74 0 -112 35.5t-38 101.5v58h376v83q0 94 -56.5 150.5t-165.5 56.5t-165 -55.5t-56 -155.5v-130q0 -95 53.5 -148.5t163.5 -53.5q154 0 213 107l11 20l-58 31zM114 291v35q0 68 39.5 106.5t114.5 38.5q76 0 115.5 -38.5t39.5 -106.5v-35h-309
z" />
    <glyph glyph-name="f" unicode="f" horiz-adv-x="353" 
d="M182 539q0 40 7 66.5t23.5 42.5t44 22.5t68.5 6.5h18v63h-26q-108 -2 -155 -48t-47 -153v-25h-107v-62h107v-452h67v452h163v62h-163v25z" />
    <glyph glyph-name="g" unicode="g" horiz-adv-x="536" 
d="M472 483l-38 16q-72 30 -169 30q-216 0 -216 -205v-131q0 -195 198 -195q77 0 158 30v-62q0 -152 -146 -152q-96 0 -138 80l-10 17l-60 -30l12 -21q57 -107 198 -107q211 0 211 216v514zM405 89q-79 -29 -150 -29q-138 0 -138 135v128q0 144 152 144q67 0 117 -19l19 -7
v-352z" />
    <glyph glyph-name="h" unicode="h" horiz-adv-x="551" 
d="M282 467q140 0 140 -136v-331h68v333q0 196 -199 196q-97 0 -157 -28v239h-67v-740h67v438q58 29 148 29z" />
    <glyph glyph-name="i" unicode="i" horiz-adv-x="200" 
d="M66 514v-514h68v514h-68zM101 617q17 0 28.5 12t11.5 29t-11.5 28.5t-28.5 11.5t-29 -11.5t-12 -28.5t12 -29t29 -12z" />
    <glyph glyph-name="j" unicode="j" horiz-adv-x="201" 
d="M67 514v-522q0 -81 -31.5 -120t-109.5 -39h-18v-63h18q110 0 159 56t49 165v523h-67zM141 658q0 17 -11.5 28.5t-28.5 11.5t-29 -11.5t-12 -28.5t12 -29t29 -12t28.5 12t11.5 29z" />
    <glyph glyph-name="k" unicode="k" horiz-adv-x="507" 
d="M238 233q35 0 57 -13.5t37 -42.5l4 -8t10 -20.5t13.5 -28t15.5 -32.5q19 -39 43 -88h75l-103 205q-32 63 -84 77l185 232h-81l-171 -219h-105v445h-67v-740h67v233h104z" />
    <glyph glyph-name="l" unicode="l" horiz-adv-x="207" 
d="M70 0h67v740h-67v-740z" />
    <glyph glyph-name="m" unicode="m" horiz-adv-x="817" 
d="M428 433q66 34 136 34q124 0 124 -131v-336h67v339q0 190 -183 190q-44 0 -88.5 -11t-92.5 -32q-46 43 -129 43q-87 0 -160 -32l-38 -17v-480h68v440l16 7q46 20 105 20q127 0 127 -131v-336h67v339q0 29 -5 52t-14 42z" />
    <glyph glyph-name="n" unicode="n" 
d="M280 467q140 0 140 -136v-331h67v333q0 196 -199 196q-101 0 -186 -34l-38 -16v-479h68v439l15 6q31 11 64 16.5t69 5.5z" />
    <glyph glyph-name="o" unicode="o" horiz-adv-x="539" 
d="M490 345q0 87 -59 135.5t-162 48.5t-161 -48.5t-58 -135.5v-176q0 -85 58 -134t161 -49t162 48t59 135v176zM422 169q0 -57 -40.5 -89.5t-112.5 -32.5q-69 0 -110.5 32.5t-41.5 89.5v176q0 57 41 90t111 33q72 0 112.5 -33t40.5 -90v-176z" />
    <glyph glyph-name="p" unicode="p" horiz-adv-x="537" 
d="M279 529q-102 0 -175 -29l-40 -16v-704h68v240q83 -34 150 -34q205 0 205 199v144q0 200 -208 200zM132 441l19 7q55 19 120 19q149 0 149 -140v-140q0 -140 -143 -140q-36 0 -72.5 8.5t-72.5 26.5v359z" />
    <glyph glyph-name="q" unicode="q" horiz-adv-x="537" 
d="M472 -220v702l-38 16v1q-70 30 -169 30q-215 0 -215 -205v-143q0 -195 197 -195q36 0 75.5 8.5t82.5 26.5v-241h67zM117 323q0 144 152 144q63 0 115 -19l21 -8v-358q-74 -35 -149 -35q-139 0 -139 135v141z" />
    <glyph glyph-name="r" unicode="r" horiz-adv-x="342" 
d="M281 467h51v62h-49q-106 -3 -181 -31q-22 -11 -30 -22t-8 -34v-442h68v420q0 18 17 26q57 21 132 21z" />
    <glyph glyph-name="s" unicode="s" horiz-adv-x="496" 
d="M252 45q-120 0 -153 86v1l-8 20l-60 -26l5 -13q1 -1 1 -1.5t1 -1.5q48 -124 216 -124q101 0 153 40.5t52 112.5q0 45 -17 72t-44.5 43t-62.5 22.5t-71 10.5q-16 2 -28.5 3t-22.5 2.5t-19.5 3.5t-20.5 5q-30 8 -45 27.5t-15 52.5q0 87 131 87q62 0 94 -19t49 -57h1l7 -17
l60 26l-8 19h-1q-48 109 -203 109q-97 0 -147 -40t-50 -110q0 -48 17.5 -76t46 -43.5t64.5 -21.5t74 -10t65.5 -10t45 -16t26 -26t8.5 -40q0 -91 -141 -91z" />
    <glyph glyph-name="t" unicode="t" horiz-adv-x="359" 
d="M307 -14h39v64h-18q-42 0 -70 6.5t-44 22.5t-22.5 43.5t-6.5 69.5v260h163v62h-163v120h-67v-120h-113v-62h113v-262q0 -54 9 -92t31 -63t58 -36.5t91 -12.5z" />
    <glyph glyph-name="u" unicode="u" 
d="M417 76l-18 -7q-54 -22 -130 -22q-140 0 -140 137v330h-67v-333q0 -195 198 -195q107 0 186 33l39 16v479h-68v-438z" />
    <glyph glyph-name="v" unicode="v" horiz-adv-x="504" 
d="M495 514h-71l-172 -419l-173 419h-71l216 -517h56z" />
    <glyph glyph-name="w" unicode="w" horiz-adv-x="731" 
d="M365 408l130 -411h60l159 517h-68l-120 -410l-128 399h-62l-128 -398l-120 409h-70l158 -517h59z" />
    <glyph glyph-name="x" unicode="x" horiz-adv-x="487" 
d="M395 514l-151 -199l-151 199h-79l191 -251l-199 -263h77l160 212l161 -212h79l-200 264l189 250h-77z" />
    <glyph glyph-name="y" unicode="y" horiz-adv-x="551" 
d="M485 514h-68v-427q-84 -27 -148 -27q-140 0 -140 137v317h-67v-320q0 -195 198 -195q35 0 73.5 6t83.5 20v-59q0 -152 -146 -152q-97 0 -140 79l-9 17l-60 -30l11 -21q58 -106 199 -106q213 0 213 216v545z" />
    <glyph glyph-name="z" unicode="z" horiz-adv-x="455" 
d="M425 61h-309l304 398v55h-385v-61h299l-303 -398v-55h394v61z" />
    <glyph glyph-name="braceleft" unicode="{" horiz-adv-x="320" 
d="M178 475v249q0 70 65 70h63v62h-65q-69 0 -98.5 -31t-29.5 -98v-243q0 -96 -82 -96h-25v-69h25q82 0 82 -96v-242q0 -68 29.5 -98t99.5 -30h64v62h-63q-65 0 -65 70v247q0 96 -68 122q68 29 68 121z" />
    <glyph glyph-name="bar" unicode="|" horiz-adv-x="199" 
d="M67 -147h64v1003h-64v-1003z" />
    <glyph glyph-name="braceright" unicode="}" horiz-adv-x="320" 
d="M207 223q0 96 82 96h25v69h-25q-82 0 -82 96v243q0 67 -29.5 98t-98.5 31h-65v-62h63q65 0 65 -70v-249q0 -92 68 -121q-68 -26 -68 -122v-247q0 -70 -65 -70h-63v-62h64q70 0 99.5 30t29.5 98v242z" />
    <glyph glyph-name="asciitilde" unicode="~" horiz-adv-x="560" 
d="M280 293q26 -10 49.5 -15.5t44.5 -5.5q62 0 118 47l17 16l-48 43l-13 -11q-35 -34 -81 -34q-15 0 -36 5.5t-48 15.5q-27 11 -50.5 15.5t-43.5 4.5q-66 0 -119 -49l-16 -14l48 -43l13 11q38 34 82 34q15 0 35.5 -4.5t47.5 -15.5z" />
    <glyph glyph-name="exclamdown" unicode="&#xa1;" horiz-adv-x="196" 
d="M134 -228l-9 572h-54l-8 -572h71zM56 474q0 -17 12.5 -29.5t30.5 -12.5q17 0 29.5 12.5t12.5 29.5q0 18 -12.5 30.5t-29.5 12.5q-18 0 -30.5 -12.5t-12.5 -30.5z" />
    <glyph glyph-name="cent" unicode="&#xa2;" horiz-adv-x="534" 
d="M305 526v84h-68v-84q-91 -8 -137 -58.5t-46 -135.5v-149q0 -87 46.5 -137.5t136.5 -57.5v-72h68v73q138 11 179 137l6 21l-65 19l-6 -18q-31 -103 -149 -103q-72 0 -110 36t-38 100v153q0 64 37 99.5t111 35.5q63 0 98 -23.5t50 -74.5l5 -19l65 22l-6 20
q-37 122 -177 132z" />
    <glyph glyph-name="sterling" unicode="&#xa3;" horiz-adv-x="635" 
d="M214 171v136h277v63h-277v160q0 57 35 92t107 35q61 0 98 -25t60 -86l7 -19l68 25l-6 18q-29 81 -84 117.5t-145 36.5q-53 0 -93.5 -14t-67.5 -39.5t-41 -60.5t-14 -77v-163h-90v-63h90v-137q0 -42 -16.5 -71.5t-53.5 -33.5h-29v-65h542v68h-288q-29 0 -61 -1.5t-67 -5.5
h-6l5 3q50 35 50 107z" />
    <glyph glyph-name="currency" unicode="&#xa4;" horiz-adv-x="601" 
d="M301 109q77 0 134 47l66 -66l49 46l-67 67q45 57 45 133q0 74 -46 135l65 66l-48 48l-66 -67q-57 45 -132 45q-74 0 -134 -46l-67 66l-48 -48l68 -66q-46 -56 -46 -133t47 -133l-67 -68l48 -48l66 67q59 -45 133 -45zM301 171q-37 0 -64 11.5t-52 36.5q-25 22 -37 54
t-12 64q0 35 12.5 63.5t36.5 52.5q27 23 52.5 35.5t63.5 12.5q34 0 64 -13t52.5 -35t35.5 -52t13 -64t-13 -64.5t-35 -53t-52 -35.5t-65 -13z" />
    <glyph glyph-name="yen" unicode="&#xa5;" horiz-adv-x="638" 
d="M355 0v151h168v54h-168v91h168v54h-140l237 360h-83l-216 -336l-217 336h-85l238 -360h-143v-54h169v-91h-169v-54h169v-151h72z" />
    <glyph glyph-name="brokenbar" unicode="&#xa6;" horiz-adv-x="208" 
d="M136 856h-64v-425h64v425zM136 -146v425h-64v-425h64z" />
    <glyph glyph-name="section" unicode="&#xa7;" horiz-adv-x="596" 
d="M449 111q89 56 89 146q0 52 -20.5 84t-53.5 50t-74 26.5t-82 13.5q-13 2 -33 4.5t-40 6.5t-38.5 10.5t-28.5 15.5q-14 11 -24 30.5t-10 46.5q0 115 161 115q129 0 174 -121l7 -21l67 31l-8 20q-60 160 -240 160q-117 0 -176 -50.5t-59 -133.5q0 -110 97 -149
q-104 -51 -104 -151q0 -53 22 -85.5t57.5 -50.5t78.5 -25.5t85 -10.5q28 -2 59 -6t57.5 -15.5t43.5 -32.5t17 -58q0 -54 -42.5 -84.5t-130.5 -30.5q-139 0 -181 121l-7 19l-68 -23l7 -20q57 -165 249 -165q121 0 183 50t62 134q0 110 -96 149zM223 373q6 -2 23.5 -4.5
t46.5 -5.5q39 -5 64 -10t53 -17q55 -24 55 -85q0 -80 -85 -119q-3 0 -74 9q-33 3 -55 6t-48 10q-35 11 -55.5 34.5t-20.5 62.5q0 83 96 119z" />
    <glyph glyph-name="dieresis" unicode="&#xa8;" horiz-adv-x="439" 
d="M120 687q-15 0 -25.5 -11t-10.5 -25q0 -15 10.5 -25.5t25.5 -10.5q14 0 25 10.5t11 25.5q0 14 -11 25t-25 11zM313 615q14 0 25 10.5t11 25.5q0 14 -11 25t-25 11q-15 0 -25.5 -11t-10.5 -25q0 -15 10.5 -25.5t25.5 -10.5z" />
    <glyph glyph-name="copyright" unicode="&#xa9;" horiz-adv-x="807" 
d="M405 -8q76 0 141 28t113 76.5t75.5 114t27.5 140.5t-27.5 140.5t-75.5 114t-113 76.5t-141 28t-142 -27.5t-114.5 -75.5t-76 -113.5t-27.5 -142.5q0 -76 28 -141.5t76.5 -114t114 -76t141.5 -27.5zM405 662q66 0 122.5 -24t98 -66t65 -98.5t23.5 -122.5q0 -65 -23.5 -122
t-65 -99t-98 -66t-122.5 -24t-123 23.5t-99 65.5t-65.5 99t-23.5 123q0 67 23.5 124t65 98.5t98.5 65t124 23.5zM401 502q47 0 70.5 -16t34.5 -53l5 -14l44 15l-4 15q-30 98 -150 98q-75 0 -115 -37.5t-40 -104.5v-115q0 -66 40 -104t115 -38q119 0 152 102l4 13l-45 18
l-4 -15q-11 -38 -36.5 -55.5t-70.5 -17.5q-54 0 -80.5 25.5t-26.5 71.5v115q0 97 107 97z" />
    <glyph glyph-name="ordfeminine" unicode="&#xaa;" horiz-adv-x="368" 
d="M310 384v162q0 60 -28.5 92t-96.5 32q-81 0 -121 -58q-2 -2 -2 -3l-7 -10l43 -24l8 10q31 40 78 40q40 0 56.5 -18.5t16.5 -56.5v-19q-12 2 -30.5 3t-43.5 1q-72 0 -101 -23t-29 -69q0 -45 28.5 -66.5t99.5 -21.5q64 0 97 15zM105 445q0 25 16.5 38t58.5 13
q23 0 41.5 -1.5t35.5 -3.5v-78l-13 -6q-1 0 -1.5 -0.5t-1.5 -0.5q-21 -9 -63 -9q-73 0 -73 48z" />
    <glyph glyph-name="guillemotleft" unicode="&#xab;" horiz-adv-x="564" 
d="M251 487l-224 -224l222 -222l44 45l-178 178l178 179zM480 487l-224 -224l222 -222l44 45l-178 178l178 179z" />
    <glyph glyph-name="logicalnot" unicode="&#xac;" horiz-adv-x="580" 
d="M63 326h385v-186h68v249h-453v-63z" />
    <glyph glyph-name="registered" unicode="&#xae;" horiz-adv-x="481" 
d="M435 516q0 40 -15 75.5t-41.5 61.5t-61.5 41.5t-75 15.5t-75.5 -15.5t-62 -41.5t-42 -61.5t-15.5 -75.5t15.5 -75.5t42 -61.5t62 -41.5t75.5 -15.5q41 0 76 15t61 41.5t41 62t15 75.5zM243 353q-34 0 -64 12.5t-52 34.5t-34.5 52t-12.5 64t12.5 63.5t34.5 51.5t52 34.5
t64 12.5t63 -13t50.5 -35t34 -51.5t12.5 -62.5t-12.5 -63t-34 -52t-50.5 -35t-63 -13zM193 487h61l41 -72h37l-45 75q45 11 45 61q0 31 -18.5 48.5t-51.5 17.5h-99v-202h30v72zM261 588q40 0 40 -37t-40 -37h-68v74h68z" />
    <glyph glyph-name="macron" unicode="&#xaf;" horiz-adv-x="352" 
d="M40 627h270v49h-270v-49z" />
    <glyph glyph-name="degree" unicode="&#xb0;" horiz-adv-x="387" 
d="M194 403q62 0 106.5 45t44.5 107q0 64 -44 107.5t-107 43.5t-107.5 -44t-44.5 -107t44.5 -107.5t107.5 -44.5zM126 623q28 28 68 28t68.5 -28t28.5 -68t-28.5 -68.5t-68.5 -28.5t-68.5 28.5t-28.5 68.5t29 68z" />
    <glyph glyph-name="plusminus" unicode="&#xb1;" horiz-adv-x="638" 
d="M288 561v-136h-205v-59h205v-132h62v132h205v59h-205v136h-62zM555 122v59h-472v-59h472z" />
    <glyph glyph-name="twosuperior" unicode="&#xb2;" horiz-adv-x="355" 
d="M142 554l59 19q30 10 52 21t36.5 25.5t21.5 33t7 44.5q0 54 -35 87.5t-101 33.5q-35 0 -67 -14t-51 -45q-9 -14 -13 -20.5t-6 -13.5l-14 -33l56 -16l15 39q8 16 26 32.5t53 16.5q38 0 58 -19t20 -50q0 -19 -7 -31.5t-18.5 -21t-26.5 -14t-32 -11.5l-58 -23
q-43 -16 -61.5 -45t-18.5 -77v-58h277v53h-222v25q0 42 50 62z" />
    <glyph glyph-name="threesuperior" unicode="&#xb3;" horiz-adv-x="363" 
d="M270 525q0 -31 -21 -49t-62 -18q-45 0 -66.5 16.5t-33.5 54.5l-7 19l-53 -17l7 -20q17 -54 53.5 -79.5t99.5 -25.5q69 0 104.5 30.5t35.5 82.5q0 73 -59 100q48 26 48 87q0 51 -34 81.5t-94 30.5q-121 0 -152 -106l-6 -19l53 -22l7 25q20 71 98 71q35 0 54.5 -18
t19.5 -49q0 -26 -14.5 -42.5t-41.5 -16.5h-73v-52h77q28 0 44 -18t16 -46z" />
    <glyph glyph-name="acute" unicode="&#xb4;" horiz-adv-x="257" 
d="M250 693l-38 46l-195 -121l28 -34z" />
    <glyph glyph-name="mu" unicode="&#xb5;" horiz-adv-x="548" 
d="M401 68q-59 -22 -131 -22q-140 0 -140 137v331h-67v-734h67v274q39 -69 146 -69q88 0 172 33q22 10 30 21.5t8 34.5v440h-67v-418q0 -20 -18 -28z" />
    <glyph glyph-name="paragraph" unicode="&#xb6;" horiz-adv-x="430" 
d="M294 642v-731h63v799h-175q-63 0 -100.5 -38t-37.5 -99q0 -60 36.5 -97t96.5 -39v-526h63v731h54z" />
    <glyph glyph-name="periodcentered" unicode="&#xb7;" horiz-adv-x="212" 
d="M148 273q0 17 -12.5 29.5t-29.5 12.5q-18 0 -30.5 -12.5t-12.5 -29.5q0 -18 12.5 -30.5t30.5 -12.5q17 0 29.5 12.5t12.5 30.5z" />
    <glyph glyph-name="cedilla" unicode="&#xb8;" horiz-adv-x="251" 
d="M111 0l-45 -116l20 6q11 4 33 4q60 0 60 -42q0 -26 -18 -41t-51 -15q-40 0 -74 23l-10 7v-46l12 -7q31 -19 80 -19q51 0 83.5 23.5t35.5 71.5q2 36 -21.5 58t-63.5 22q-16 0 -25 -3l26 74h-42z" />
    <glyph glyph-name="onesuperior" unicode="&#xb9;" horiz-adv-x="281" 
d="M224 414v396h-47l-167 -96l27 -47l129 71v-324h58z" />
    <glyph glyph-name="ordmasculine" unicode="&#xba;" horiz-adv-x="373" 
d="M320 550q0 56 -34.5 88t-99.5 32q-64 0 -98.5 -32t-34.5 -88v-75q0 -56 34.5 -87.5t98.5 -31.5q65 0 99.5 31.5t34.5 87.5v75zM265 473q0 -32 -20.5 -50t-58.5 -18t-58 18t-20 50v80q0 32 20 50t58 18t58.5 -18t20.5 -50v-80z" />
    <glyph glyph-name="guillemotright" unicode="&#xbb;" horiz-adv-x="564" 
d="M42 86l44 -45l222 222l-224 224l-42 -44l178 -179zM449 264l-178 -178l44 -45l222 222l-224 224l-42 -44z" />
    <glyph glyph-name="onequarter" unicode="&#xbc;" horiz-adv-x="786" 
d="M433 147v-45h208v-102h54v102h57v49h-57v245h-58zM697 710h-74l-522 -710h75zM25 619l26 -48l128 71v-324h58v396h-44zM641 151h-142l142 173v-173z" />
    <glyph glyph-name="onehalf" unicode="&#xbd;" horiz-adv-x="841" 
d="M518 58v-58h277v53h-222v25q0 42 50 62l59 19q30 10 52 21t36.5 25.5t21.5 33t7 44.5q0 54 -35 87.5t-101 33.5q-35 0 -67 -14t-51 -45q-9 -14 -13 -20.5t-6 -13.5l-14 -33l56 -16l15 39q8 16 26 32.5t53 16.5q38 0 58 -19t20 -50q0 -19 -7 -31.5t-18.5 -21t-26.5 -14
t-32 -11.5l-58 -23q-43 -16 -61.5 -45t-18.5 -77zM697 713h-74l-522 -710h75zM25 622l26 -48l128 71v-324h58v396h-44z" />
    <glyph glyph-name="threequarters" unicode="&#xbe;" horiz-adv-x="823" 
d="M675 396l-204 -249v-45h208v-102h54v102h57v49h-57v245h-58zM198 726q-121 0 -152 -106l-6 -19l53 -22l7 25q20 71 98 71q35 0 54.5 -18t19.5 -49q0 -26 -14.5 -42.5t-41.5 -16.5h-73v-52h77q28 0 44 -18t16 -46q0 -31 -21 -49t-62 -18q-45 0 -66.5 16.5t-33.5 54.5
l-7 19l-53 -17l7 -20q17 -54 53.5 -79.5t99.5 -25.5q69 0 104.5 30.5t35.5 82.5q0 73 -59 100q48 26 48 87q0 51 -34 81.5t-94 30.5zM661 710l-522 -710h75l521 710h-74zM537 151l142 173v-173h-142z" />
    <glyph glyph-name="questiondown" unicode="&#xbf;" horiz-adv-x="553" 
d="M458 -40q-48 -123 -186 -123q-79 0 -124 40.5t-45 103.5q0 35 8.5 60.5t24.5 45.5t38 37t49 35t47 35t34 38t21 46.5t7 59.5v19h-61v-19q0 -46 -22 -74.5t-67 -57.5q-29 -14 -54.5 -36t-47.5 -45q-48 -52 -48 -147q0 -44 16.5 -81.5t47.5 -65.5t75 -43.5t99 -15.5
q190 0 254 165l8 20l-67 21zM344 475q0 18 -12.5 30.5t-30.5 12.5q-17 0 -29.5 -12.5t-12.5 -30.5q0 -17 12.5 -29.5t29.5 -12.5q18 0 30.5 12.5t12.5 29.5z" />
    <glyph glyph-name="Agrave" unicode="&#xc0;" horiz-adv-x="641" 
d="M287 713l-282 -713h75l82 208h315l80 -208h80l-282 713h-68zM185 268l135 346l134 -346h-269zM203 859l209 -104l27 32l-198 118z" />
    <glyph glyph-name="Aacute" unicode="&#xc1;" horiz-adv-x="641" 
d="M287 713l-282 -713h75l82 208h315l80 -208h80l-282 713h-68zM185 268l135 346l134 -346h-269zM204 790l27 -32l209 104l-38 46z" />
    <glyph glyph-name="Acircumflex" unicode="&#xc2;" horiz-adv-x="641" 
d="M287 713l-282 -713h75l82 208h315l80 -208h80l-282 713h-68zM320 614l134 -346h-269zM427 763h70l-156 138h-41l-157 -138h68l109 92z" />
    <glyph glyph-name="Atilde" unicode="&#xc3;" horiz-adv-x="641" 
d="M287 713l-282 -713h75l82 208h315l80 -208h80l-282 713h-68zM185 268l135 346l134 -346h-269zM315 804q43 -34 79 -34q78 0 78 100v12h-44v-14q0 -53 -39 -53q-16 0 -33 10.5t-35 23t-37.5 23t-42.5 10.5q-78 0 -78 -100v-12h44v12q0 55 40 55q26 0 68 -33z" />
    <glyph glyph-name="Adieresis" unicode="&#xc4;" horiz-adv-x="641" 
d="M637 0l-282 713h-68l-282 -713h75l82 208h315l80 -208h80zM454 268h-269l135 346zM188 828q0 -15 10.5 -25.5t25.5 -10.5q14 0 25 10.5t11 25.5q0 14 -11 25t-25 11q-15 0 -25.5 -11t-10.5 -25zM381 828q0 -15 10.5 -25.5t25.5 -10.5q14 0 25 10.5t11 25.5q0 14 -11 25
t-25 11q-15 0 -25.5 -11t-10.5 -25z" />
    <glyph glyph-name="Aring" unicode="&#xc5;" horiz-adv-x="641" 
d="M428 779q0 48 -29.5 77t-77.5 29q-51 0 -80.5 -29t-29.5 -77q0 -71 64 -92v-1l-272 -686h75l82 208h315l80 -208h80l-271 686q30 9 47 33.5t17 59.5zM318 614l134 -346h-269zM321 714q-32 0 -50 18t-18 47t18 47t50 18q29 0 47 -18t18 -47t-18 -47t-47 -18z" />
    <glyph glyph-name="AE" unicode="&#xc6;" horiz-adv-x="831" 
d="M735 325v68h-242v249h288v68h-359l-436 -710h81l105 175h250v-175h371v68h-300v257h242zM422 589v-354h-214z" />
    <glyph glyph-name="Ccedilla" unicode="&#xc7;" horiz-adv-x="636" 
d="M283 -111q11 4 33 4q60 0 60 -42q0 -26 -18 -41t-51 -15q-40 0 -74 23l-10 7v-46l12 -7q31 -19 80 -19q51 0 83.5 23.5t35.5 71.5q2 36 -21.5 58t-63.5 22q-16 0 -25 -3l21 60q107 3 167.5 46.5t86.5 128.5l6 18l-69 27l-6 -21q-21 -68 -67 -100t-132 -32q-97 0 -149 48
t-52 135v238q0 88 51 135.5t150 47.5q74 0 124 -27.5t73 -101.5l6 -19l69 24l-6 20q-27 87 -90.5 129t-175.5 42q-134 0 -204 -66.5t-70 -184.5v-236q0 -112 63.5 -177.5t182.5 -72.5l-40 -103z" />
    <glyph glyph-name="Egrave" unicode="&#xc8;" horiz-adv-x="573" 
d="M150 68v258h327v68h-327v248h372v68h-444v-710h457v68h-385zM183 859l209 -104l27 32l-198 118z" />
    <glyph glyph-name="Eacute" unicode="&#xc9;" horiz-adv-x="573" 
d="M150 642h372v68h-444v-710h457v68h-385v258h327v68h-327v248zM379 911l-195 -122l28 -34l206 109z" />
    <glyph glyph-name="Ecircumflex" unicode="&#xca;" horiz-adv-x="573" 
d="M477 326v68h-327v248h372v68h-444v-710h457v68h-385v258h327zM478 763l-156 138h-41l-157 -138h68l109 92l107 -92h70z" />
    <glyph glyph-name="Edieresis" unicode="&#xcb;" horiz-adv-x="573" 
d="M477 326v68h-327v248h372v68h-444v-710h457v68h-385v258h327zM168 828q0 -15 10.5 -25.5t25.5 -10.5q14 0 25 10.5t11 25.5q0 14 -11 25t-25 11q-15 0 -25.5 -11t-10.5 -25zM361 828q0 -15 10.5 -25.5t25.5 -10.5q14 0 25 10.5t11 25.5q0 14 -11 25t-25 11
q-15 0 -25.5 -11t-10.5 -25z" />
    <glyph glyph-name="Igrave" unicode="&#xcc;" horiz-adv-x="228" 
d="M150 710h-72v-710h72v710zM206 756l27 32l-198 118l-38 -46z" />
    <glyph glyph-name="Iacute" unicode="&#xcd;" horiz-adv-x="228" 
d="M78 710v-710h72v710h-72zM232 864l-39 47l-195 -122l28 -34z" />
    <glyph glyph-name="Icircumflex" unicode="&#xce;" horiz-adv-x="228" 
d="M150 0v710h-72v-710h72zM114 855l107 -92h70l-156 138h-41l-157 -138h68z" />
    <glyph glyph-name="Idieresis" unicode="&#xcf;" horiz-adv-x="228" 
d="M150 0v710h-72v-710h72zM-18 828q0 -15 10.5 -25.5t25.5 -10.5q14 0 25 10.5t11 25.5q0 14 -11 25t-25 11q-15 0 -25.5 -11t-10.5 -25zM211 864q-15 0 -25.5 -11t-10.5 -25q0 -15 10.5 -25.5t25.5 -10.5q14 0 25 10.5t11 25.5q0 14 -11 25t-25 11z" />
    <glyph glyph-name="Eth" unicode="&#xd0;" horiz-adv-x="664" 
d="M89 710v-325h-87v-49h87v-336h231q139 0 214.5 70t75.5 194v182q0 124 -75.5 194t-214.5 70h-231zM162 68v268h185v49h-185v257h159q106 0 161.5 -51t55.5 -145v-182q0 -94 -56 -145t-161 -51h-159z" />
    <glyph glyph-name="Ntilde" unicode="&#xd1;" horiz-adv-x="691" 
d="M542 710v-574l-398 574h-66v-710h70v574l399 -574h66v710h-71zM454 868q0 -53 -39 -53q-16 0 -33 10.5t-35 23t-37.5 23t-42.5 10.5q-78 0 -78 -100v-12h44v12q0 55 40 55q26 0 68 -33q43 -34 79 -34q78 0 78 100v12h-44v-14z" />
    <glyph glyph-name="Ograve" unicode="&#xd2;" horiz-adv-x="663" 
d="M332 -14q133 0 203.5 66.5t70.5 184.5v236q0 118 -70.5 184.5t-203.5 66.5q-134 0 -204.5 -66.5t-70.5 -184.5v-236q0 -118 70.5 -184.5t204.5 -66.5zM332 657q98 0 150 -48t52 -136v-236q0 -88 -52 -136t-150 -48q-99 0 -151 48t-52 136v236q0 88 52 136t151 48z
M215 869l209 -104l27 32l-198 118z" />
    <glyph glyph-name="Oacute" unicode="&#xd3;" horiz-adv-x="663" 
d="M606 473q0 118 -70.5 184.5t-203.5 66.5q-134 0 -204.5 -66.5t-70.5 -184.5v-236q0 -118 70.5 -184.5t204.5 -66.5q133 0 203.5 66.5t70.5 184.5v236zM332 657q98 0 150 -48t52 -136v-236q0 -88 -52 -136t-150 -48q-99 0 -151 48t-52 136v236q0 88 52 136t151 48z
M412 922l-195 -122l28 -34l206 109z" />
    <glyph glyph-name="Ocircumflex" unicode="&#xd4;" horiz-adv-x="663" 
d="M606 237v236q0 118 -70.5 184.5t-203.5 66.5q-134 0 -204.5 -66.5t-70.5 -184.5v-236q0 -118 70.5 -184.5t204.5 -66.5q133 0 203.5 66.5t70.5 184.5zM534 237q0 -88 -52 -136t-150 -48q-99 0 -151 48t-52 136v236q0 88 52 136t151 48q98 0 150 -48t52 -136v-236z
M332 865l107 -92h70l-156 138h-41l-157 -138h68z" />
    <glyph glyph-name="Otilde" unicode="&#xd5;" horiz-adv-x="663" 
d="M606 473q0 118 -70.5 184.5t-203.5 66.5q-134 0 -204.5 -66.5t-70.5 -184.5v-236q0 -118 70.5 -184.5t204.5 -66.5q133 0 203.5 66.5t70.5 184.5v236zM332 657q98 0 150 -48t52 -136v-236q0 -88 -52 -136t-150 -48q-99 0 -151 48t-52 136v236q0 88 52 136t151 48z
M440 878q0 -53 -39 -53q-16 0 -33 10.5t-35 23t-37.5 23t-42.5 10.5q-78 0 -78 -100v-12h44v12q0 55 40 55q26 0 68 -33q43 -34 79 -34q78 0 78 100v12h-44v-14z" />
    <glyph glyph-name="Odieresis" unicode="&#xd6;" horiz-adv-x="663" 
d="M606 237v236q0 118 -70.5 184.5t-203.5 66.5q-134 0 -204.5 -66.5t-70.5 -184.5v-236q0 -118 70.5 -184.5t204.5 -66.5q133 0 203.5 66.5t70.5 184.5zM534 237q0 -88 -52 -136t-150 -48q-99 0 -151 48t-52 136v236q0 88 52 136t151 48q98 0 150 -48t52 -136v-236z
M199 838q0 -15 10.5 -25.5t25.5 -10.5q14 0 25 10.5t11 25.5q0 14 -11 25t-25 11q-15 0 -25.5 -11t-10.5 -25zM393 838q0 -15 10.5 -25.5t25.5 -10.5q14 0 25 10.5t11 25.5q0 14 -11 25t-25 11q-15 0 -25.5 -11t-10.5 -25z" />
    <glyph glyph-name="multiply" unicode="&#xd7;" horiz-adv-x="507" 
d="M411 527l-158 -159l-159 159l-42 -45l158 -158l-158 -158l42 -44l159 159l158 -160l45 45l-159 159l158 158z" />
    <glyph glyph-name="Oslash" unicode="&#xd8;" horiz-adv-x="663" 
d="M606 473q0 106 -57 169l69 109h-58l-48 -77q-68 50 -180 50q-134 0 -204.5 -66.5t-70.5 -184.5v-236q0 -112 62 -176l-64 -103h57l46 72q68 -44 167 -44q62 0 113.5 14.5t89 45.5t58 78t20.5 113v236zM165 131q-36 41 -36 106v236q0 88 52 136t151 48q89 0 141 -43z
M332 53q-87 0 -135 38l307 480q30 -36 30 -98v-236q0 -89 -51.5 -136.5t-150.5 -47.5z" />
    <glyph glyph-name="Ugrave" unicode="&#xd9;" horiz-adv-x="682" 
d="M610 710h-73v-469q0 -90 -49.5 -139t-146.5 -49t-146.5 49t-49.5 139v469h-73v-468q0 -121 68.5 -189t200.5 -68t200.5 68t68.5 189v468zM460 788l-198 118l-38 -46l209 -104z" />
    <glyph glyph-name="Uacute" unicode="&#xda;" horiz-adv-x="682" 
d="M610 710h-73v-469q0 -90 -49.5 -139t-146.5 -49t-146.5 49t-49.5 139v469h-73v-468q0 -121 68.5 -189t200.5 -68t200.5 68t68.5 189v468zM252 755l206 109l-39 47l-195 -122z" />
    <glyph glyph-name="Ucircumflex" unicode="&#xdb;" horiz-adv-x="682" 
d="M341 -15q132 0 200.5 68t68.5 189v468h-73v-469q0 -90 -49.5 -139t-146.5 -49t-146.5 49t-49.5 139v469h-73v-468q0 -121 68.5 -189t200.5 -68zM232 763l109 92l107 -92h70l-156 138h-41l-157 -138h68z" />
    <glyph glyph-name="Udieresis" unicode="&#xdc;" horiz-adv-x="682" 
d="M537 710v-469q0 -90 -49.5 -139t-146.5 -49t-146.5 49t-49.5 139v469h-73v-468q0 -121 68.5 -189t200.5 -68t200.5 68t68.5 189v468h-73zM244 864q-15 0 -25.5 -11t-10.5 -25q0 -15 10.5 -25.5t25.5 -10.5q14 0 25 10.5t11 25.5q0 14 -11 25t-25 11zM474 828q0 14 -11 25
t-25 11q-15 0 -25.5 -11t-10.5 -25q0 -15 10.5 -25.5t25.5 -10.5q14 0 25 10.5t11 25.5z" />
    <glyph glyph-name="Yacute" unicode="&#xdd;" horiz-adv-x="627" 
d="M277 0h73v288l273 422h-87l-222 -347l-221 347h-91l275 -421v-289zM433 864l-39 47l-195 -122l28 -34z" />
    <glyph glyph-name="Thorn" unicode="&#xde;" horiz-adv-x="620" 
d="M150 591v119h-72v-710h72v128h205q54 0 98 16t74.5 46t47 72.5t16.5 96.5t-16.5 97t-47.5 73t-74.5 46t-97.5 16h-205zM150 524h199q76 0 121.5 -45t45.5 -120t-45 -119t-122 -44h-199v328z" />
    <glyph glyph-name="germandbls" unicode="&#xdf;" 
d="M411 543q0 -25 -7.5 -48.5t-21.5 -40.5t-35.5 -27.5t-50.5 -10.5h-92v-66h97q63 0 98.5 -37t35.5 -101q0 -72 -36 -108.5t-104 -36.5h-94v-67h101q100 0 153 52.5t53 152.5q0 146 -117 182v3q47 20 69 64t22 95q0 97 -53 149t-157 52q-99 0 -152 -60t-53 -162v-528h67
v528q0 72 36 113.5t102 41.5q139 0 139 -140z" />
    <glyph glyph-name="agrave" unicode="&#xe0;" horiz-adv-x="512" 
d="M388 286q-45 5 -78 7.5t-53 2.5q-60 0 -101.5 -8.5t-68 -27t-38.5 -48t-12 -71.5q0 -40 10.5 -69.5t35.5 -48.5t66.5 -28t103.5 -9q108 0 166 26l36 15v304q0 45 -10.5 82t-34 62.5t-61.5 39.5t-94 14q-144 0 -201 -105l-10 -18l61 -25l8 15q41 73 140 73q76 0 105.5 -36
t29.5 -101v-46zM369 58q-44 -16 -121 -16q-42 0 -69 6t-43.5 18.5t-23 31.5t-6.5 44q0 52 32.5 75t111.5 23q48 0 138 -9v-167zM342 578l28 34l-196 121l-38 -47z" />
    <glyph glyph-name="aacute" unicode="&#xe1;" horiz-adv-x="512" 
d="M388 286q-45 5 -78 7.5t-53 2.5q-60 0 -101.5 -8.5t-68 -27t-38.5 -48t-12 -71.5q0 -40 10.5 -69.5t35.5 -48.5t66.5 -28t103.5 -9q108 0 166 26l36 15v304q0 45 -10.5 82t-34 62.5t-61.5 39.5t-94 14q-144 0 -201 -105l-10 -18l61 -25l8 15q41 73 140 73q76 0 105.5 -36
t29.5 -101v-46zM369 58q-44 -16 -121 -16q-42 0 -69 6t-43.5 18.5t-23 31.5t-6.5 44q0 52 32.5 75t111.5 23q48 0 138 -9v-167zM370 686l-39 47l-195 -122l28 -34z" />
    <glyph glyph-name="acircumflex" unicode="&#xe2;" horiz-adv-x="512" 
d="M388 286q-45 5 -78 7.5t-53 2.5q-60 0 -101.5 -8.5t-68 -27t-38.5 -48t-12 -71.5q0 -40 10.5 -69.5t35.5 -48.5t66.5 -28t103.5 -9q108 0 166 26l36 15v304q0 45 -10.5 82t-34 62.5t-61.5 39.5t-94 14q-144 0 -201 -105l-10 -18l61 -25l8 15q41 73 140 73q76 0 105.5 -36
t29.5 -101v-46zM388 64l-19 -6q-44 -16 -121 -16q-42 0 -69 6t-43.5 18.5t-23 31.5t-6.5 44q0 52 32.5 75t111.5 23q48 0 138 -9v-167zM252 673l106 -91h70l-155 136h-40l-155 -136h67z" />
    <glyph glyph-name="atilde" unicode="&#xe3;" horiz-adv-x="512" 
d="M257 296q-60 0 -101.5 -8.5t-68 -27t-38.5 -48t-12 -71.5q0 -40 10.5 -69.5t35.5 -48.5t66.5 -28t103.5 -9q108 0 166 26l36 15v304q0 45 -10.5 82t-34 62.5t-61.5 39.5t-94 14q-144 0 -201 -105l-10 -18l61 -25l8 15q41 73 140 73q76 0 105.5 -36t29.5 -101v-46
q-45 5 -78 7.5t-53 2.5zM248 42q-42 0 -69 6t-43.5 18.5t-23 31.5t-6.5 44q0 52 32.5 75t111.5 23q48 0 138 -9v-167l-19 -6q-44 -16 -121 -16zM180 661q26 0 68 -33q43 -34 79 -34q78 0 78 100v12h-44v-14q0 -53 -39 -53q-16 0 -33 10.5t-35 23t-37.5 23t-42.5 10.5
q-78 0 -78 -100v-12h44v12q0 55 40 55z" />
    <glyph glyph-name="adieresis" unicode="&#xe4;" horiz-adv-x="512" 
d="M455 27v304q0 45 -10.5 82t-34 62.5t-61.5 39.5t-94 14q-144 0 -201 -105l-10 -18l61 -25l8 15q41 73 140 73q76 0 105.5 -36t29.5 -101v-46q-45 5 -78 7.5t-53 2.5q-60 0 -101.5 -8.5t-68 -27t-38.5 -48t-12 -71.5q0 -40 10.5 -69.5t35.5 -48.5t66.5 -28t103.5 -9
q108 0 166 26zM388 64l-19 -6q-44 -16 -121 -16q-42 0 -69 6t-43.5 18.5t-23 31.5t-6.5 44q0 52 32.5 75t111.5 23q48 0 138 -9v-167zM156 687q-15 0 -25.5 -11t-10.5 -25q0 -15 10.5 -25.5t25.5 -10.5q14 0 25 10.5t11 25.5q0 14 -11 25t-25 11zM313 651q0 -15 10.5 -25.5
t25.5 -10.5q14 0 25 10.5t11 25.5q0 14 -11 25t-25 11q-15 0 -25.5 -11t-10.5 -25z" />
    <glyph glyph-name="aring" unicode="&#xe5;" horiz-adv-x="512" 
d="M105 381l8 15q41 73 140 73q76 0 105.5 -36t29.5 -101v-46q-45 5 -78 7.5t-53 2.5q-60 0 -101.5 -8.5t-68 -27t-38.5 -48t-12 -71.5q0 -40 10.5 -69.5t35.5 -48.5t66.5 -28t103.5 -9q108 0 166 26l36 15v304q0 45 -10.5 82t-34 62.5t-61.5 39.5t-94 14q-144 0 -201 -105
l-10 -18zM369 58q-44 -16 -121 -16q-42 0 -69 6t-43.5 18.5t-23 31.5t-6.5 44q0 52 32.5 75t111.5 23q48 0 138 -9v-167zM328 752q-27 27 -72 27q-46 0 -74 -27t-28 -71t28 -71t74 -27q45 0 72 27t27 71t-27 71zM256 744q28 0 45.5 -17t17.5 -46t-17 -46q-18 -17 -46 -17
q-31 0 -48.5 17t-17.5 46t17.5 46t48.5 17z" />
    <glyph glyph-name="ae" unicode="&#xe6;" horiz-adv-x="788" 
d="M237 529q-126 0 -182 -105l-9 -18l59 -25l9 16q41 72 121 72q68 0 91.5 -33.5t23.5 -95.5v-55q-54 9 -110 9q-55 0 -93.5 -8t-62.5 -26.5t-35 -48t-11 -72.5q0 -40 9.5 -69t32.5 -47.5t61 -27.5t95 -9q114 0 166 60q44 -60 144 -60q75 0 117.5 26.5t71.5 79.5l10 18
l-56 34l-11 -18q-24 -42 -52 -62t-80 -20q-128 0 -128 136v59h329v84q0 95 -48.5 150.5t-149.5 55.5q-117 0 -161 -87q-36 87 -151 87zM350 163q0 -41 7 -66q-2 -5 -8 -14.5t-20 -18.5t-37.5 -15.5t-61.5 -6.5q-72 0 -98 23.5t-26 74.5q0 53 27.5 76t98.5 23q26 0 55 -2.5
t63 -7.5v-66zM549 471q131 0 131 -144v-36h-262v36q0 144 131 144z" />
    <glyph glyph-name="ccedilla" unicode="&#xe7;" horiz-adv-x="514" 
d="M224 -110q11 4 33 4q60 0 60 -42q0 -26 -18 -41t-51 -15q-40 0 -74 23l-10 7v-46l12 -7q31 -19 80 -19q51 0 83.5 23.5t35.5 71.5q2 36 -21.5 58t-63.5 22q-16 0 -25 -3l21 60q72 5 120 37.5t72 102.5l7 20l-65 20l-6 -19q-31 -102 -149 -102q-72 0 -110.5 35.5
t-38.5 100.5v153q0 64 38 99.5t111 35.5q63 0 97.5 -23.5t50.5 -74.5l6 -19l63 22l-6 20q-40 135 -209 135q-109 0 -163.5 -51.5t-54.5 -145.5v-149q0 -90 49 -141t146 -56l-40 -102z" />
    <glyph glyph-name="egrave" unicode="&#xe8;" horiz-adv-x="530" 
d="M268 529q-109 0 -165 -55.5t-56 -155.5v-130q0 -95 53.5 -148.5t163.5 -53.5q154 0 213 107l11 20l-58 31l-10 -18q-45 -82 -156 -82q-74 0 -112 35.5t-38 101.5v58h376v83q0 94 -56.5 150.5t-165.5 56.5zM423 291h-309v35q0 68 39.5 106.5t114.5 38.5q76 0 115.5 -38.5
t39.5 -106.5v-35zM358 578l28 34l-196 121l-38 -47z" />
    <glyph glyph-name="eacute" unicode="&#xe9;" horiz-adv-x="530" 
d="M268 529q-109 0 -165 -55.5t-56 -155.5v-130q0 -95 53.5 -148.5t163.5 -53.5q154 0 213 107l11 20l-58 31l-10 -18q-45 -82 -156 -82q-74 0 -112 35.5t-38 101.5v58h376v83q0 94 -56.5 150.5t-165.5 56.5zM423 291h-309v35q0 68 39.5 106.5t114.5 38.5q76 0 115.5 -38.5
t39.5 -106.5v-35zM387 687l-39 47l-195 -122l28 -34z" />
    <glyph glyph-name="ecircumflex" unicode="&#xea;" horiz-adv-x="530" 
d="M264 44q-74 0 -112 35.5t-38 101.5v58h376v83q0 94 -56.5 150.5t-165.5 56.5t-165 -55.5t-56 -155.5v-130q0 -95 53.5 -148.5t163.5 -53.5q154 0 213 107l11 20l-58 31l-10 -18q-45 -82 -156 -82zM423 291h-309v35q0 68 39.5 106.5t114.5 38.5q76 0 115.5 -38.5
t39.5 -106.5v-35zM268 670l106 -91h70l-155 136h-40l-155 -136h67z" />
    <glyph glyph-name="edieresis" unicode="&#xeb;" horiz-adv-x="530" 
d="M488 113l-58 31l-10 -18q-45 -82 -156 -82q-74 0 -112 35.5t-38 101.5v58h376v83q0 94 -56.5 150.5t-165.5 56.5t-165 -55.5t-56 -155.5v-130q0 -95 53.5 -148.5t163.5 -53.5q154 0 213 107zM423 291h-309v35q0 68 39.5 106.5t114.5 38.5q76 0 115.5 -38.5t39.5 -106.5
v-35zM172 688q-15 0 -25.5 -11t-10.5 -25q0 -15 10.5 -25.5t25.5 -10.5q14 0 25 10.5t11 25.5q0 14 -11 25t-25 11zM365 688q-15 0 -25.5 -11t-10.5 -25q0 -15 10.5 -25.5t25.5 -10.5q14 0 25 10.5t11 25.5q0 14 -11 25t-25 11z" />
    <glyph glyph-name="igrave" unicode="&#xec;" horiz-adv-x="199" 
d="M133 514h-67v-514h67v514zM176 578l26 33l-160 121l-40 -47z" />
    <glyph glyph-name="iacute" unicode="&#xed;" horiz-adv-x="199" 
d="M66 0h67v514h-67v-514zM199 684l-40 47l-160 -121l26 -33z" />
    <glyph glyph-name="icircumflex" unicode="&#xee;" horiz-adv-x="199" 
d="M133 0v514h-67v-514h67zM99 672l75 -87h67l-119 131h-46l-120 -131h65z" />
    <glyph glyph-name="idieresis" unicode="&#xef;" horiz-adv-x="199" 
d="M133 0v514h-67v-514h67zM-12 662q0 -15 10.5 -25.5t25.5 -10.5q14 0 25 10.5t11 25.5q0 14 -11 25t-25 11q-15 0 -25.5 -11t-10.5 -25zM175 698q-15 0 -25.5 -11t-10.5 -25q0 -15 10.5 -25.5t25.5 -10.5q14 0 25 10.5t11 25.5q0 14 -11 25t-25 11z" />
    <glyph glyph-name="eth" unicode="&#xf0;" horiz-adv-x="551" 
d="M490 399q0 190 -88 269l56 60l-36 25l-57 -60q-80 49 -221 49h-17v-62h19q113 0 175 -38l-70 -74l34 -26l73 77q65 -59 68 -193q-40 79 -169 79q-100 0 -154.5 -52t-54.5 -143v-131q0 -93 56.5 -143t165.5 -50q108 0 164 50t56 143v220zM270 47q-76 0 -115 34.5t-39 98.5
v130q0 64 39 99t115 35q75 0 114 -34.5t39 -98.5v-131q0 -64 -39 -98.5t-114 -34.5z" />
    <glyph glyph-name="ntilde" unicode="&#xf1;" 
d="M280 467q140 0 140 -136v-331h67v333q0 196 -199 196q-104 0 -185 -34h-1l-38 -16v-479h68v440l15 5q60 22 133 22zM201 662q26 0 68 -33q43 -34 79 -34q78 0 78 100v12h-44v-14q0 -53 -39 -53q-16 0 -33 10.5t-35 23t-37.5 23t-42.5 10.5q-78 0 -78 -100v-12h44v12
q0 55 40 55z" />
    <glyph glyph-name="ograve" unicode="&#xf2;" horiz-adv-x="539" 
d="M269 -14q103 0 162 48t59 135v176q0 87 -59 135.5t-162 48.5t-161 -48.5t-58 -135.5v-176q0 -85 58 -134t161 -49zM269 468q72 0 112.5 -33t40.5 -90v-176q0 -57 -40.5 -89.5t-112.5 -32.5q-69 0 -110.5 32.5t-41.5 89.5v176q0 57 41 90t111 33zM153 686l206 -108l28 34
l-196 121z" />
    <glyph glyph-name="oacute" unicode="&#xf3;" horiz-adv-x="539" 
d="M490 345q0 87 -59 135.5t-162 48.5t-161 -48.5t-58 -135.5v-176q0 -85 58 -134t161 -49t162 48t59 135v176zM269 468q72 0 112.5 -33t40.5 -90v-176q0 -57 -40.5 -89.5t-112.5 -32.5q-69 0 -110.5 32.5t-41.5 89.5v176q0 57 41 90t111 33zM349 734l-195 -122l28 -34
l206 109z" />
    <glyph glyph-name="ocircumflex" unicode="&#xf4;" horiz-adv-x="539" 
d="M490 169v176q0 87 -59 135.5t-162 48.5t-161 -48.5t-58 -135.5v-176q0 -85 58 -134t161 -49t162 48t59 135zM269 468q72 0 112.5 -33t40.5 -90v-176q0 -57 -40.5 -89.5t-112.5 -32.5q-69 0 -110.5 32.5t-41.5 89.5v176q0 57 41 90t111 33zM445 578l-155 136h-40
l-155 -136h67l107 91l106 -91h70z" />
    <glyph glyph-name="otilde" unicode="&#xf5;" horiz-adv-x="539" 
d="M490 345q0 87 -59 135.5t-162 48.5t-161 -48.5t-58 -135.5v-176q0 -85 58 -134t161 -49t162 48t59 135v176zM269 468q72 0 112.5 -33t40.5 -90v-176q0 -57 -40.5 -89.5t-112.5 -32.5q-69 0 -110.5 32.5t-41.5 89.5v176q0 57 41 90t111 33zM377 692q0 -53 -39 -53
q-16 0 -33 10.5t-35 23t-37.5 23t-42.5 10.5q-78 0 -78 -100v-12h44v12q0 55 40 55q26 0 68 -33q43 -34 79 -34q78 0 78 100v12h-44v-14z" />
    <glyph glyph-name="odieresis" unicode="&#xf6;" horiz-adv-x="539" 
d="M490 169v176q0 87 -59 135.5t-162 48.5t-161 -48.5t-58 -135.5v-176q0 -85 58 -134t161 -49t162 48t59 135zM422 169q0 -57 -40.5 -89.5t-112.5 -32.5q-69 0 -110.5 32.5t-41.5 89.5v176q0 57 41 90t111 33q72 0 112.5 -33t40.5 -90v-176zM136 651q0 -15 10.5 -25.5
t25.5 -10.5q14 0 25 10.5t11 25.5q0 14 -11 25t-25 11q-15 0 -25.5 -11t-10.5 -25zM330 651q0 -15 10.5 -25.5t25.5 -10.5q14 0 25 10.5t11 25.5q0 14 -11 25t-25 11q-15 0 -25.5 -11t-10.5 -25z" />
    <glyph glyph-name="divide" unicode="&#xf7;" horiz-adv-x="578" 
d="M524 292v65h-470v-65h470zM332 129q0 17 -12.5 30t-29.5 13q-18 0 -30.5 -13t-12.5 -30t12.5 -29.5t30.5 -12.5q17 0 29.5 12.5t12.5 29.5zM290 479q17 0 29.5 12.5t12.5 29.5t-12.5 30t-29.5 13q-18 0 -30.5 -13t-12.5 -30t12.5 -29.5t30.5 -12.5z" />
    <glyph glyph-name="oslash" unicode="&#xf8;" horiz-adv-x="539" 
d="M269 529q-103 0 -161 -49t-58 -135v-176q0 -85 57 -133l-44 -71h45l32 49q52 -28 129 -28q103 0 162 48t59 135v176q0 84 -57 133l46 74h-45l-34 -53q-54 30 -131 30zM147 99q-30 27 -30 70v176q0 57 41 90t111 33q56 0 97 -23zM422 169q0 -57 -40.5 -89.5t-112.5 -32.5
q-57 0 -95 22l219 346q29 -27 29 -70v-176z" />
    <glyph glyph-name="ugrave" unicode="&#xf9;" 
d="M260 -14q107 0 186 33l39 16v479h-68v-438l-18 -7q-54 -22 -130 -22q-140 0 -140 137v330h-67v-333q0 -195 198 -195zM391 612l-196 121l-38 -47l206 -108z" />
    <glyph glyph-name="uacute" unicode="&#xfa;" 
d="M260 -14q107 0 186 33l39 16v479h-68v-438l-18 -7q-54 -22 -130 -22q-140 0 -140 137v330h-67v-333q0 -195 198 -195zM185 577l206 109l-39 47l-195 -122z" />
    <glyph glyph-name="ucircumflex" unicode="&#xfb;" 
d="M417 76l-18 -7q-54 -22 -130 -22q-140 0 -140 137v330h-67v-333q0 -195 198 -195q107 0 186 33l39 16v479h-68v-438zM99 582h67l107 91l106 -91h70l-155 136h-40z" />
    <glyph glyph-name="udieresis" unicode="&#xfc;" 
d="M417 76l-18 -7q-54 -22 -130 -22q-140 0 -140 137v330h-67v-333q0 -195 198 -195q107 0 186 33l39 16v479h-68v-438zM140 651q0 -15 10.5 -25.5t25.5 -10.5q14 0 25 10.5t11 25.5q0 14 -11 25t-25 11q-15 0 -25.5 -11t-10.5 -25zM406 651q0 14 -11 25t-25 11
q-15 0 -25.5 -11t-10.5 -25q0 -15 10.5 -25.5t25.5 -10.5q14 0 25 10.5t11 25.5z" />
    <glyph glyph-name="yacute" unicode="&#xfd;" horiz-adv-x="551" 
d="M417 87q-84 -27 -148 -27q-140 0 -140 137v317h-67v-320q0 -195 198 -195q35 0 73.5 6t83.5 20v-59q0 -152 -146 -152q-97 0 -140 79l-9 17l-60 -30l11 -21q58 -106 199 -106q213 0 213 216v545h-68v-427zM391 686l-39 47l-195 -122l28 -34z" />
    <glyph glyph-name="thorn" unicode="&#xfe;" horiz-adv-x="539" 
d="M134 740h-67v-960h67v240q81 -35 150 -35q206 0 206 199v140q0 200 -208 200q-71 0 -148 -28v244zM134 432q77 30 139 30q149 0 149 -140v-136q0 -140 -142 -140q-61 0 -146 35v351z" />
    <glyph glyph-name="ydieresis" unicode="&#xff;" horiz-adv-x="551" 
d="M260 -1q35 0 73.5 6t83.5 20v-59q0 -152 -146 -152q-97 0 -140 79l-9 17l-60 -30l11 -21q58 -106 199 -106q213 0 213 216v545h-68v-427q-84 -27 -148 -27q-140 0 -140 137v317h-67v-320q0 -195 198 -195zM176 687q-15 0 -25.5 -11t-10.5 -25q0 -15 10.5 -25.5
t25.5 -10.5q14 0 25 10.5t11 25.5q0 14 -11 25t-25 11zM334 651q0 -15 10.5 -25.5t25.5 -10.5q14 0 25 10.5t11 25.5q0 14 -11 25t-25 11q-15 0 -25.5 -11t-10.5 -25z" />
    <glyph glyph-name="Amacron" unicode="&#x100;" horiz-adv-x="641" 
d="M287 713l-282 -713h75l82 208h315l80 -208h80l-282 713h-68zM454 268h-269l135 346zM455 800v50h-270v-50h270z" />
    <glyph glyph-name="amacron" unicode="&#x101;" horiz-adv-x="512" 
d="M455 27v304q0 45 -10.5 82t-34 62.5t-61.5 39.5t-94 14q-144 0 -201 -105l-10 -18l61 -25l8 15q41 73 140 73q76 0 105.5 -36t29.5 -101v-46q-45 5 -78 7.5t-53 2.5q-60 0 -101.5 -8.5t-68 -27t-38.5 -48t-12 -71.5q0 -40 10.5 -69.5t35.5 -48.5t66.5 -28t103.5 -9
q108 0 166 26zM369 58q-44 -16 -121 -16q-42 0 -69 6t-43.5 18.5t-23 31.5t-6.5 44q0 52 32.5 75t111.5 23q48 0 138 -9v-167zM387 621v50h-269v-50h269z" />
    <glyph glyph-name="Abreve" unicode="&#x102;" horiz-adv-x="641" 
d="M287 713l-282 -713h75l82 208h315l80 -208h80l-282 713h-68zM185 268l135 346l134 -346h-269zM472 871l4 13l-52 18l-4 -12q-21 -77 -100 -77t-100 78l-4 12l-51 -19l4 -14q30 -107 151 -107q119 0 152 108z" />
    <glyph glyph-name="abreve" unicode="&#x103;" horiz-adv-x="512" 
d="M388 286q-45 5 -78 7.5t-53 2.5q-60 0 -101.5 -8.5t-68 -27t-38.5 -48t-12 -71.5q0 -40 10.5 -69.5t35.5 -48.5t66.5 -28t103.5 -9q108 0 166 26l36 15v304q0 45 -10.5 82t-34 62.5t-61.5 39.5t-94 14q-144 0 -201 -105l-10 -18l61 -25l8 15q41 73 140 73q76 0 105.5 -36
t29.5 -101v-46zM248 42q-42 0 -69 6t-43.5 18.5t-23 31.5t-6.5 44q0 52 32.5 75t111.5 23q48 0 138 -9v-167l-19 -6q-44 -16 -121 -16zM253 583q119 0 152 108l4 13l-52 18l-4 -12q-21 -77 -100 -77t-100 78l-4 12l-51 -19l4 -14q30 -107 151 -107z" />
    <glyph glyph-name="Aogonek" unicode="&#x104;" horiz-adv-x="640" 
d="M542 -167q-4 13 0.5 33t16.5 42.5t31.5 46.5t44.5 45h1l-281 713h-68l-282 -713h77l81 213h313l82 -213h23q-59 -50 -83.5 -102t-13.5 -93q13 -52 76 -52q49 0 81 28l-15 39q-19 -16 -46 -16t-38 29zM320 623l133 -349h-267z" />
    <glyph glyph-name="aogonek" unicode="&#x105;" horiz-adv-x="515" 
d="M257 296q-60 0 -101.5 -8.5t-68 -27t-38.5 -48t-12 -71.5q0 -40 10.5 -69.5t35.5 -48.5t66.5 -28t103.5 -9q70 0 116 10q-48 -47 -70 -100t-10 -91q12 -52 77 -52q52 0 89 36l5 5l-15 41l-8 -8q-22 -22 -51 -22t-39 28q-4 13 -0.5 34.5t15 46.5t31 52.5t45.5 53.5l17 17
v294q0 45 -10.5 82t-34 62.5t-61.5 39.5t-94 14q-144 0 -201 -105l-10 -18l61 -25l8 15q41 73 140 73q76 0 105.5 -36t29.5 -101v-46q-45 5 -78 7.5t-53 2.5zM369 58q-44 -16 -121 -16q-42 0 -69 6t-43.5 18.5t-23 31.5t-6.5 44q0 52 32.5 75t111.5 23q48 0 138 -9v-167z
" />
    <glyph glyph-name="Cacute" unicode="&#x106;" horiz-adv-x="636" 
d="M528 528l6 -19l69 24l-7 23q-27 85 -90.5 126.5t-174.5 41.5q-134 0 -204 -66.5t-70 -184.5v-236q0 -118 71 -184.5t203 -66.5q114 0 177.5 43.5t90.5 131.5l6 18l-69 27l-6 -21q-21 -68 -67 -100t-132 -32q-97 0 -149 48t-52 135v238q0 88 51 135.5t150 47.5
q85 0 130.5 -31t66.5 -98zM218 790l28 -34l206 109l-39 47z" />
    <glyph glyph-name="cacute" unicode="&#x107;" horiz-adv-x="515" 
d="M413 371l6 -19l63 22l-6 20q-40 135 -209 135q-109 0 -163.5 -51.5t-54.5 -145.5v-149q0 -94 54 -145.5t160 -51.5q169 0 215 140l7 20l-65 20l-6 -19q-31 -102 -149 -102q-72 0 -110.5 35.5t-38.5 100.5v153q0 64 38 99.5t111 35.5q63 0 97.5 -23.5t50.5 -74.5zM346 733
l-195 -122l28 -34l206 109z" />
    <glyph glyph-name="Ccircumflex" unicode="&#x108;" horiz-adv-x="636" 
d="M534 509l69 24l-7 23q-27 85 -90.5 126.5t-174.5 41.5q-134 0 -204 -66.5t-70 -184.5v-236q0 -118 71 -184.5t203 -66.5q114 0 177.5 43.5t90.5 131.5l6 18l-69 27l-6 -21q-21 -68 -67 -100t-132 -32q-97 0 -149 48t-52 135v238q0 88 51 135.5t150 47.5q85 0 130.5 -31
t66.5 -98zM334 855l107 -92h70l-156 138h-41l-157 -138h68z" />
    <glyph glyph-name="ccircumflex" unicode="&#x109;" horiz-adv-x="515" 
d="M419 352l63 22l-6 20q-40 135 -209 135q-109 0 -163.5 -51.5t-54.5 -145.5v-149q0 -94 54 -145.5t160 -51.5q169 0 215 140l7 20l-65 20l-6 -19q-31 -102 -149 -102q-72 0 -110.5 35.5t-38.5 100.5v153q0 64 38 99.5t111 35.5q63 0 97.5 -23.5t50.5 -74.5zM267 669
l107 -92h70l-156 138h-41l-157 -138h68z" />
    <glyph glyph-name="Cdotaccent" unicode="&#x10a;" horiz-adv-x="636" 
d="M528 528l6 -19l69 24l-7 23q-27 85 -90.5 126.5t-174.5 41.5q-134 0 -204 -66.5t-70 -184.5v-236q0 -118 71 -184.5t203 -66.5q114 0 177.5 43.5t90.5 131.5l6 18l-69 27l-6 -21q-21 -68 -67 -100t-132 -32q-97 0 -149 48t-52 135v238q0 88 51 135.5t150 47.5
q85 0 130.5 -31t66.5 -98zM298 826q0 -15 10.5 -25.5t25.5 -10.5t25.5 10.5t10.5 25.5q0 14 -10.5 25t-25.5 11t-25.5 -11t-10.5 -25z" />
    <glyph glyph-name="cdotaccent" unicode="&#x10b;" horiz-adv-x="515" 
d="M413 371l6 -19l63 22l-6 20q-40 135 -209 135q-109 0 -163.5 -51.5t-54.5 -145.5v-149q0 -94 54 -145.5t160 -51.5q169 0 215 140l7 20l-65 20l-6 -19q-31 -102 -149 -102q-72 0 -110.5 35.5t-38.5 100.5v153q0 64 38 99.5t111 35.5q63 0 97.5 -23.5t50.5 -74.5zM267 683
q-15 0 -25.5 -11t-10.5 -26t10.5 -25.5t25.5 -10.5t26 10.5t11 25.5t-11 26t-26 11z" />
    <glyph glyph-name="Ccaron" unicode="&#x10c;" horiz-adv-x="636" 
d="M534 509l69 24l-7 23q-27 85 -90.5 126.5t-174.5 41.5q-134 0 -204 -66.5t-70 -184.5v-236q0 -118 71 -184.5t203 -66.5q114 0 177.5 43.5t90.5 131.5l6 18l-69 27l-6 -21q-21 -68 -67 -100t-132 -32q-97 0 -149 48t-52 135v238q0 88 51 135.5t150 47.5q85 0 130.5 -31
t66.5 -98zM439 900l-107 -92l-109 92h-68l157 -138h41l156 138h-70z" />
    <glyph glyph-name="ccaron" unicode="&#x10d;" horiz-adv-x="515" 
d="M476 394q-40 135 -209 135q-109 0 -163.5 -51.5t-54.5 -145.5v-149q0 -94 54 -145.5t160 -51.5q169 0 215 140l7 20l-65 20l-6 -19q-31 -102 -149 -102q-72 0 -110.5 35.5t-38.5 100.5v153q0 64 38 99.5t111 35.5q63 0 97.5 -23.5t50.5 -74.5l6 -19l63 22zM285 574
l145 129h-66l-98 -86l-101 86h-63l145 -129h38z" />
    <glyph glyph-name="Dcaron" unicode="&#x10e;" horiz-adv-x="653" 
d="M599 446q0 124 -75.5 194t-214.5 70h-231v-710h231q139 0 214.5 70t75.5 194v182zM150 68v574h159q106 0 161.5 -51t55.5 -145v-182q0 -94 -55.5 -145t-161.5 -51h-159zM330 762l156 138h-70l-107 -92l-109 92h-68l157 -138h41z" />
    <glyph glyph-name="dcaron" unicode="&#x10f;" horiz-adv-x="575" 
d="M472 740h-67v-240q-85 29 -158 29q-100 0 -148.5 -51.5t-48.5 -148.5v-143q0 -200 210 -200q103 0 173 30l39 16v708zM117 327q0 140 142 140q70 0 146 -30v-364l-19 -7q-53 -19 -120 -19q-149 0 -149 140v140zM587 740l-44 -231h47l61 231h-64z" />
    <glyph glyph-name="Dcroat" unicode="&#x110;" horiz-adv-x="664" 
d="M89 710v-325h-87v-49h87v-336h231q139 0 214.5 70t75.5 194v182q0 124 -75.5 194t-214.5 70h-231zM162 68v268h185v49h-185v257h159q106 0 161.5 -51t55.5 -145v-182q0 -94 -56 -145t-161 -51h-159z" />
    <glyph glyph-name="dcroat" unicode="&#x111;" horiz-adv-x="538" 
d="M406 654h-165v-44h165v-110q-77 28 -157 28q-100 0 -149 -51t-49 -148v-143q0 -200 210 -200q101 0 173 30l40 17v577h80v44h-80v86h-68v-86zM387 66q-51 -19 -120 -19q-149 0 -149 140v140q0 140 142 140q68 0 146 -30v-365z" />
    <glyph glyph-name="Emacron" unicode="&#x112;" horiz-adv-x="573" 
d="M477 394h-327v248h372v68h-444v-710h457v68h-385v258h327v68zM166 850v-50h270v50h-270z" />
    <glyph glyph-name="emacron" unicode="&#x113;" horiz-adv-x="530" 
d="M268 529q-109 0 -165 -55.5t-56 -155.5v-130q0 -95 53.5 -148.5t163.5 -53.5q154 0 213 107l11 20l-58 31l-10 -18q-45 -82 -156 -82q-74 0 -112 35.5t-38 101.5v58h376v83q0 94 -56.5 150.5t-165.5 56.5zM423 291h-309v35q0 68 39.5 106.5t114.5 38.5q76 0 115.5 -38.5
t39.5 -106.5v-35zM392 617v48h-247v-48h247z" />
    <glyph glyph-name="Ebreve" unicode="&#x114;" horiz-adv-x="573" 
d="M477 326v68h-327v248h372v68h-444v-710h457v68h-385v258h327zM301 763q119 0 152 108l4 13l-52 18l-4 -12q-21 -77 -100 -77t-100 78l-4 12l-51 -19l4 -14q30 -107 151 -107z" />
    <glyph glyph-name="ebreve" unicode="&#x115;" horiz-adv-x="530" 
d="M488 113l-58 31l-10 -18q-45 -82 -156 -82q-74 0 -112 35.5t-38 101.5v58h376v83q0 94 -56.5 150.5t-165.5 56.5t-165 -55.5t-56 -155.5v-130q0 -95 53.5 -148.5t163.5 -53.5q154 0 213 107zM423 291h-309v35q0 68 39.5 106.5t114.5 38.5q76 0 115.5 -38.5t39.5 -106.5
v-35zM268 584q119 0 152 108l4 13l-52 18l-4 -12q-21 -77 -100 -77t-100 78l-4 12l-51 -19l4 -14q30 -107 151 -107z" />
    <glyph glyph-name="Edotaccent" unicode="&#x116;" horiz-adv-x="573" 
d="M150 394v248h372v68h-444v-710h457v68h-385v258h327v68h-327zM264 825q0 -15 10.5 -25.5t25.5 -10.5t26 10.5t11 25.5t-11 26t-26 11t-25.5 -11t-10.5 -26z" />
    <glyph glyph-name="edotaccent" unicode="&#x117;" horiz-adv-x="530" 
d="M268 529q-109 0 -165 -55.5t-56 -155.5v-130q0 -95 53.5 -148.5t163.5 -53.5q154 0 213 107l11 20l-58 31l-10 -18q-45 -82 -156 -82q-74 0 -112 35.5t-38 101.5v58h376v83q0 94 -56.5 150.5t-165.5 56.5zM423 291h-309v35q0 68 39.5 106.5t114.5 38.5q76 0 115.5 -38.5
t39.5 -106.5v-35zM305 647q0 15 -11 26t-26 11t-25.5 -11t-10.5 -26t10.5 -25.5t25.5 -10.5t26 10.5t11 25.5z" />
    <glyph glyph-name="Eogonek" unicode="&#x118;" horiz-adv-x="573" 
d="M150 393v249h353q19 0 19 20v28q0 20 -19 20h-405q-11 0 -15.5 -4.5t-4.5 -15.5v-670q0 -11 4.5 -15.5t15.5 -4.5h376q-62 -48 -90 -101t-15 -93q7 -24 28 -37.5t49 -13.5q53 0 89 36q5 4 1 13l-8 21q-3 9 -12 3q-20 -21 -49 -21t-39 27q-10 28 16 74t85 95q6 6 6 17v28
q0 20 -19 20h-366v257h308q19 0 19 20v28q0 20 -19 20h-308z" />
    <glyph glyph-name="eogonek" unicode="&#x119;" horiz-adv-x="530" 
d="M101 40q54 -54 163 -54q56 0 99 16q-48 -53 -70 -106.5t-11 -90.5q14 -52 77 -52q51 0 90 36q5 5 1 14l-8 21q-3 9 -11 3q-23 -23 -51 -23q-31 0 -40 29q-10 28 18 90t81 120q24 23 39 51q12 19 -7 29l-21 11q-17 9 -29 -7q-46 -83 -157 -83q-73 0 -111.5 36t-38.5 101
v58h346q30 0 30 28v55q0 94 -56.5 150.5t-165.5 56.5q-108 0 -164.5 -55.5t-56.5 -155.5v-130q0 -94 54 -148zM423 291h-309v35q0 68 39.5 106.5t114.5 38.5q76 0 115.5 -38.5t39.5 -106.5v-35z" />
    <glyph glyph-name="Ecaron" unicode="&#x11a;" horiz-adv-x="573" 
d="M477 326v68h-327v248h372v68h-444v-710h457v68h-385v258h327zM320 762l156 138h-70l-107 -92l-109 92h-68l157 -138h41z" />
    <glyph glyph-name="ecaron" unicode="&#x11b;" horiz-adv-x="530" 
d="M264 44q-74 0 -112 35.5t-38 101.5v58h376v83q0 94 -56.5 150.5t-165.5 56.5t-165 -55.5t-56 -155.5v-130q0 -95 53.5 -148.5t163.5 -53.5q154 0 213 107l11 20l-58 31l-10 -18q-45 -82 -156 -82zM423 291h-309v35q0 68 39.5 106.5t114.5 38.5q76 0 115.5 -38.5
t39.5 -106.5v-35zM364 703l-97 -86l-100 86h-64l146 -128h37l144 128h-66z" />
    <glyph glyph-name="Gcircumflex" unicode="&#x11c;" horiz-adv-x="655" 
d="M331 657q85 0 130.5 -31t66.5 -98l5 -19l70 24l-6 20q-27 87 -90.5 129t-175.5 42q-134 0 -204 -66.5t-70 -184.5v-235q0 -118 70.5 -185t204.5 -67q131 0 202 64t72 174v144h-284v-68h213v-75q0 -79 -53 -125.5t-150 -46.5q-99 0 -151 48.5t-52 136.5v236q0 88 51 135.5
t151 47.5zM331 865l107 -92h70l-156 138h-41l-157 -138h68z" />
    <glyph glyph-name="gcircumflex" unicode="&#x11d;" horiz-adv-x="536" 
d="M405 -34q0 -152 -146 -152q-96 0 -138 80l-10 17l-60 -30l12 -21q57 -107 198 -107q211 0 211 216v514l-38 16q-72 30 -169 30q-216 0 -216 -205v-131q0 -195 198 -195q77 0 158 30v-62zM255 60q-138 0 -138 135v128q0 144 152 144q67 0 117 -19l19 -7v-352
q-79 -29 -150 -29zM296 715h-41l-157 -138h68l109 92l107 -92h70z" />
    <glyph glyph-name="Gbreve" unicode="&#x11e;" horiz-adv-x="655" 
d="M331 657q85 0 130.5 -31t66.5 -98l5 -19l70 24l-6 20q-27 87 -90.5 129t-175.5 42q-134 0 -204 -66.5t-70 -184.5v-235q0 -118 70.5 -185t204.5 -67q131 0 202 64t72 174v144h-284v-68h213v-75q0 -79 -53 -125.5t-150 -46.5q-99 0 -151 48.5t-52 136.5v236q0 88 51 135.5
t151 47.5zM431 900q-21 -77 -100 -77t-100 78l-4 12l-51 -19l4 -14q30 -107 151 -107q119 0 152 108l4 13l-52 18z" />
    <glyph glyph-name="gbreve" unicode="&#x11f;" horiz-adv-x="536" 
d="M405 -34q0 -152 -146 -152q-96 0 -138 80l-10 17l-60 -30l12 -21q57 -107 198 -107q211 0 211 216v514l-38 16q-72 30 -169 30q-216 0 -216 -205v-131q0 -195 198 -195q77 0 158 30v-62zM255 60q-138 0 -138 135v128q0 144 152 144q67 0 117 -19l19 -7v-352
q-79 -29 -150 -29zM175 712l-4 12l-51 -19l4 -14q30 -107 151 -107q119 0 152 108l4 13l-52 18l-4 -12q-21 -77 -100 -77t-100 78z" />
    <glyph glyph-name="Gdotaccent" unicode="&#x120;" horiz-adv-x="655" 
d="M331 657q85 0 130.5 -31t66.5 -98l5 -19l70 24l-6 20q-27 87 -90.5 129t-175.5 42q-134 0 -204 -66.5t-70 -184.5v-235q0 -118 70.5 -185t204.5 -67q131 0 202 64t72 174v144h-284v-68h213v-75q0 -79 -53 -125.5t-150 -46.5q-99 0 -151 48.5t-52 136.5v236q0 88 51 135.5
t151 47.5zM295 835q0 -15 10.5 -25.5t25.5 -10.5t26 10.5t11 25.5t-11 26t-26 11t-25.5 -11t-10.5 -26z" />
    <glyph glyph-name="gdotaccent" unicode="&#x121;" horiz-adv-x="536" 
d="M259 -186q-96 0 -138 80l-10 17l-60 -30l12 -21q57 -107 198 -107q211 0 211 216v514l-38 16q-72 30 -169 30q-216 0 -216 -205v-131q0 -195 198 -195q77 0 158 30v-62q0 -152 -146 -152zM255 60q-138 0 -138 135v128q0 144 152 144q67 0 117 -19l19 -7v-352
q-79 -29 -150 -29zM311 646q0 15 -11 26t-26 11t-25.5 -11t-10.5 -26t10.5 -25.5t25.5 -10.5t26 10.5t11 25.5z" />
    <glyph glyph-name="uni0122" unicode="&#x122;" horiz-adv-x="655" 
d="M332 -14q131 0 202 64t72 174v144h-284v-68h213v-75q0 -79 -53 -125.5t-150 -46.5q-99 0 -151 48.5t-52 136.5v236q0 88 51 135.5t151 47.5q85 0 130.5 -31t66.5 -98l5 -19l70 24l-6 20q-27 87 -90.5 129t-175.5 42q-134 0 -204 -66.5t-70 -184.5v-235q0 -118 70.5 -185
t204.5 -67zM333 -249l59 177h-71l-40 -177h52z" />
    <glyph glyph-name="uni0123" unicode="&#x123;" horiz-adv-x="537" 
d="M259 -186q-96 0 -138 80l-10 17l-60 -30l12 -21q57 -107 198 -107q211 0 211 216v514l-38 16q-72 30 -169 30q-216 0 -216 -205v-131q0 -195 198 -195q77 0 158 30v-62q0 -152 -146 -152zM255 60q-138 0 -138 135v128q0 144 152 144q67 0 117 -19l19 -7v-352
q-79 -29 -150 -29zM336 735h-51l-64 -161h67z" />
    <glyph glyph-name="Hcircumflex" unicode="&#x124;" horiz-adv-x="681" 
d="M531 0h72v710h-72v-316h-381v316h-72v-710h72v326h381v-326zM320 901l-156 -138h67l110 92l107 -92h70l-156 138h-42z" />
    <glyph glyph-name="hcircumflex" unicode="&#x125;" horiz-adv-x="551" 
d="M282 467q140 0 140 -136v-331h68v333q0 196 -199 196q-97 0 -157 -28v239h-67v-740h67v438q58 29 148 29zM80 922l-152 -134h65l107 90l105 -90h67l-151 134h-41z" />
    <glyph glyph-name="Hbar" unicode="&#x126;" horiz-adv-x="690" 
d="M608 547h73v45h-73v118h-73v-118h-380v118h-73v-118h-73v-45h73v-547h73v326h380v-326h73v547zM155 394v153h380v-153h-380z" />
    <glyph glyph-name="hbar" unicode="&#x127;" horiz-adv-x="551" 
d="M282 467q140 0 140 -136v-331h67v333q0 196 -199 196q-97 0 -156 -28v114h169v42h-169v83h-68v-83h-65v-42h65v-615h68v438q60 29 148 29z" />
    <glyph glyph-name="Itilde" unicode="&#x128;" horiz-adv-x="228" 
d="M78 710v-710h72v710h-72zM109 804q43 -34 79 -34q78 0 78 100v12h-44v-14q0 -53 -39 -53q-16 0 -33 10.5t-35 23t-37.5 23t-42.5 10.5q-78 0 -78 -100v-12h44v12q0 55 40 55q26 0 68 -33z" />
    <glyph glyph-name="itilde" unicode="&#x129;" horiz-adv-x="199" 
d="M66 0h67v514h-67v-514zM148 647q-20 0 -47 33q-27 32 -58 32q-63 0 -63 -98v-13h37v13q0 51 32 51q14 0 25 -10t23 -22t25 -22t31 -10q32 0 46.5 22.5t14.5 76.5v12h-36v-12q0 -53 -30 -53z" />
    <glyph glyph-name="Imacron" unicode="&#x12a;" horiz-adv-x="228" 
d="M78 0h72v710h-72v-710zM249 800v50h-270v-50h270z" />
    <glyph glyph-name="imacron" unicode="&#x12b;" horiz-adv-x="199" 
d="M66 0h67v514h-67v-514zM183 622v48h-168v-48h168z" />
    <glyph glyph-name="Ibreve" unicode="&#x12c;" horiz-adv-x="228" 
d="M150 710h-72v-710h72v710zM218 902l-4 -12q-21 -77 -100 -77t-100 78l-4 12l-51 -19l4 -13q31 -108 151 -108q119 0 152 108l4 13z" />
    <glyph glyph-name="ibreve" unicode="&#x12d;" horiz-adv-x="199" 
d="M133 514h-67v-514h67v514zM180 722l-2 -13q-13 -72 -79 -72q-64 0 -78 72l-2 13l-51 -18l3 -13q12 -51 44.5 -78t83.5 -27q105 0 130 105l3 13z" />
    <glyph glyph-name="Iogonek" unicode="&#x12e;" horiz-adv-x="228" 
d="M106 -247q51 0 90 36l4 4l-16 42l-7 -8q-10 -11 -23 -17t-26 -6q-14 0 -24.5 7t-15.5 22q-11 27 4 71.5t54 98.5l4 5v702h-72v-709h20q-93 -120 -69 -196q13 -52 77 -52z" />
    <glyph glyph-name="iogonek" unicode="&#x12f;" horiz-adv-x="200" 
d="M116 514h-32q-18 0 -18 -18v-478q0 -16 15 -17q-24 -34 -43.5 -88t-14.5 -99q4 -29 24.5 -44.5t50.5 -15.5q48 0 75 38q5 5 1 13l-8 18q-5 8 -13 3q-13 -22 -37 -22q-12 0 -22.5 9.5t-12.5 24.5q-3 36 13 84.5t36 81.5q4 4 4 14v478q0 18 -18 18zM103 698h-6
q-21 0 -29 -8t-8 -29v-7q0 -21 8 -29t29 -8h6q21 0 29 8t8 29v7q0 21 -8 29t-29 8z" />
    <glyph glyph-name="Idotaccent" unicode="&#x130;" horiz-adv-x="228" 
d="M150 0v710h-72v-710h72zM114 862q-15 0 -25.5 -11t-10.5 -25q0 -15 10.5 -25.5t25.5 -10.5t25.5 10.5t10.5 25.5q0 14 -10.5 25t-25.5 11z" />
    <glyph glyph-name="dotlessi" unicode="&#x131;" horiz-adv-x="200" 
d="M66 0h67v514h-67v-514z" />
    <glyph glyph-name="IJ" unicode="&#x132;" horiz-adv-x="801" 
d="M251 172q45 -187 236 -187q116 0 179 62.5t63 175.5v487h-73v-488q0 -81 -43.5 -125t-125.5 -44q-72 0 -111.5 35.5t-55.5 106.5l-5 21l-69 -24q1 -5 2 -9q2 -10 2 -11h1zM78 710v-710h72v710h-72z" />
    <glyph glyph-name="ij" unicode="&#x133;" horiz-adv-x="444" 
d="M377 514h-67v-522q0 -81 -31.5 -120t-109.5 -39h-18v-63h18q110 0 159 56t49 165v523zM66 514v-514h68v514h-68zM101 698q-17 0 -29 -11.5t-12 -28.5t12 -29t29 -12t28.5 12t11.5 29t-11.5 28.5t-28.5 11.5zM344 698q-17 0 -29 -11.5t-12 -28.5t12 -29t29 -12t28.5 12
t11.5 29t-11.5 28.5t-28.5 11.5z" />
    <glyph glyph-name="Jcircumflex" unicode="&#x134;" horiz-adv-x="570" 
d="M498 223v487h-73v-488q0 -81 -43.5 -125t-125.5 -44q-72 0 -111.5 35.5t-55.5 106.5l-5 21l-69 -24q1 -5 2 -9q2 -10 2 -11h1q45 -187 236 -187q116 0 179 62.5t63 175.5zM461 855l107 -92h70l-156 138h-41l-157 -138h68z" />
    <glyph glyph-name="jcircumflex" unicode="&#x135;" horiz-adv-x="200" 
d="M134 514h-67v-522q0 -81 -31.5 -120t-109.5 -39h-18v-63h18q110 0 159 56t49 165v523zM12 578l88 92l85 -92h71l-133 136h-45l-134 -136h68z" />
    <glyph glyph-name="uni0136" unicode="&#x136;" horiz-adv-x="609" 
d="M341 379l251 331h-87l-237 -317h-118v317h-72v-710h72v327h102q53 0 83 -16.5t52 -56.5l128 -254h84l-137 267q-46 91 -121 112zM299 -72l-40 -177h52l59 177h-71z" />
    <glyph glyph-name="uni0137" unicode="&#x137;" horiz-adv-x="507" 
d="M390 205q-32 63 -84 77l185 232h-81l-171 -219h-105v445h-67v-740h67v233h104q35 0 57 -13.5t37 -42.5l4 -8t10 -20.5t13.5 -28t15.5 -32.5q19 -39 43 -88h75zM213 -228h52l51 175h-67z" />
    <glyph glyph-name="kgreenlandic" unicode="&#x138;" horiz-adv-x="474" 
d="M215 239l170 -239h83l-207 290l202 224h-82l-247 -271v271h-68v-514h68v149z" />
    <glyph glyph-name="Lacute" unicode="&#x139;" horiz-adv-x="521" 
d="M508 68h-358v642h-72v-710h430v68zM233 865l-39 47l-195 -122l28 -34z" />
    <glyph glyph-name="lacute" unicode="&#x13a;" horiz-adv-x="207" 
d="M137 18v704q0 18 -18 18h-32q-10 0 -13.5 -4t-3.5 -14v-704q0 -10 3.5 -14t13.5 -4h32q18 0 18 18zM176 885q-12 14 -30 4l-135 -79q-11 -6 -2 -21l10 -13q6 -9 24 -1l146 69q16 5 4 21z" />
    <glyph glyph-name="uni013B" unicode="&#x13b;" horiz-adv-x="521" 
d="M508 0v68h-358v642h-72v-710h430zM336 -72h-71l-40 -177h52z" />
    <glyph glyph-name="uni013C" unicode="&#x13c;" horiz-adv-x="207" 
d="M137 0v740h-67v-740h67zM41 -220h51l50 181h-65z" />
    <glyph glyph-name="Lcaron" unicode="&#x13d;" horiz-adv-x="522" 
d="M508 0v68h-358v642h-72v-710h430zM427 710h-68l-39 -224h46z" />
    <glyph glyph-name="lcaron" unicode="&#x13e;" horiz-adv-x="214" 
d="M70 740v-740h67v740h-67zM263 537l56 203h-68l-35 -203h47z" />
    <glyph glyph-name="Ldot" unicode="&#x13f;" horiz-adv-x="522" 
d="M508 0v68h-358v642h-72v-710h430zM348 321q17 0 30 12.5t13 30.5q0 17 -13 29.5t-30 12.5t-29.5 -12.5t-12.5 -29.5q0 -18 12.5 -30.5t29.5 -12.5z" />
    <glyph glyph-name="ldot" unicode="&#x140;" horiz-adv-x="327" 
d="M137 740h-67v-740h67v740zM311 376q0 17 -13 29.5t-30 12.5t-29.5 -12.5t-12.5 -29.5q0 -18 12.5 -30.5t29.5 -12.5t30 12.5t13 30.5z" />
    <glyph glyph-name="Lslash" unicode="&#x141;" horiz-adv-x="550" 
d="M178 318l246 118l-24 47l-222 -106v333h-72v-367l-115 -54l23 -47l92 43v-285h430v68h-358v250z" />
    <glyph glyph-name="lslash" unicode="&#x142;" horiz-adv-x="285" 
d="M257 470l-83 -47v318h-68v-357l-103 -59l26 -43l77 44v-325h68v364l108 62z" />
    <glyph glyph-name="Nacute" unicode="&#x143;" horiz-adv-x="691" 
d="M613 710h-71v-574l-398 574h-66v-710h70v574l399 -574h66v710zM230 789l28 -34l206 109l-39 47z" />
    <glyph glyph-name="nacute" unicode="&#x144;" 
d="M280 467q140 0 140 -136v-331h67v333q0 196 -199 196q-101 0 -186 -34l-38 -16v-479h68v439l15 6q31 11 64 16.5t69 5.5zM158 612l28 -34l206 109l-39 47z" />
    <glyph glyph-name="uni0145" unicode="&#x145;" horiz-adv-x="691" 
d="M613 710h-71v-574l-398 574h-66v-710h70v574l399 -574h66v710zM282 -249h52l59 177h-71z" />
    <glyph glyph-name="uni0146" unicode="&#x146;" 
d="M280 467q140 0 140 -136v-331h67v333q0 196 -199 196q-101 0 -186 -34l-38 -16v-479h68v439l15 6q31 11 64 16.5t69 5.5zM256 -39l-37 -179h52l50 179h-65z" />
    <glyph glyph-name="Ncaron" unicode="&#x147;" horiz-adv-x="691" 
d="M613 710h-71v-574l-398 574h-66v-710h70v574l399 -574h66v710zM235 901h-69l159 -139h39l159 139h-72l-107 -93z" />
    <glyph glyph-name="ncaron" unicode="&#x148;" 
d="M420 0h67v333q0 196 -199 196q-101 0 -186 -34l-38 -16v-479h68v439l15 6q31 11 64 16.5t69 5.5q140 0 140 -136v-331zM291 575l144 128h-65l-98 -86l-100 86h-63l144 -128h38z" />
    <glyph glyph-name="napostrophe" unicode="&#x149;" 
d="M132 0v439l15 6q31 11 64 16.5t69 5.5q140 0 140 -136v-331h67v333q0 196 -199 196q-101 0 -186 -34l-38 -16v-479h68zM190 740h-69l-84 -201h47z" />
    <glyph glyph-name="Eng" unicode="&#x14a;" horiz-adv-x="691" 
d="M369 -230h18q110 0 168 57.5t58 160.5v722h-71v-574l-398 574h-66v-710h70v574l394 -567v-16q0 -75 -39 -116.5t-116 -41.5h-18v-63z" />
    <glyph glyph-name="eng" unicode="&#x14b;" 
d="M266 -170h-17v-60h17q109 0 165 55.5t56 158.5v349q0 196 -199 196q-101 0 -186 -34l-38 -16v-479h68v439l15 6q31 11 64 16.5t69 5.5q140 0 140 -136v-345q0 -75 -39 -115.5t-115 -40.5z" />
    <glyph glyph-name="Omacron" unicode="&#x14c;" horiz-adv-x="663" 
d="M332 -14q133 0 203.5 66.5t70.5 184.5v236q0 118 -70.5 184.5t-203.5 66.5q-134 0 -204.5 -66.5t-70.5 -184.5v-236q0 -118 70.5 -184.5t204.5 -66.5zM332 657q98 0 150 -48t52 -136v-236q0 -88 -52 -136t-150 -48q-99 0 -151 48t-52 136v236q0 88 52 136t151 48z
M467 860h-270v-50h270v50z" />
    <glyph glyph-name="omacron" unicode="&#x14d;" horiz-adv-x="539" 
d="M269 -14q103 0 162 48t59 135v176q0 87 -59 135.5t-162 48.5t-161 -48.5t-58 -135.5v-176q0 -85 58 -134t161 -49zM422 169q0 -57 -40.5 -89.5t-112.5 -32.5q-69 0 -110.5 32.5t-41.5 89.5v176q0 57 41 90t111 33q72 0 112.5 -33t40.5 -90v-176zM145 617h248v47h-248v-47
z" />
    <glyph glyph-name="Obreve" unicode="&#x14e;" horiz-adv-x="663" 
d="M332 -14q133 0 203.5 66.5t70.5 184.5v236q0 118 -70.5 184.5t-203.5 66.5q-134 0 -204.5 -66.5t-70.5 -184.5v-236q0 -118 70.5 -184.5t204.5 -66.5zM534 237q0 -88 -52 -136t-150 -48q-99 0 -151 48t-52 136v236q0 88 52 136t151 48q98 0 150 -48t52 -136v-236z
M433 900q-21 -77 -100 -77t-100 77l-4 13l-51 -19l4 -13q30 -108 151 -108q118 0 151 107l5 14l-52 18z" />
    <glyph glyph-name="obreve" unicode="&#x14f;" horiz-adv-x="539" 
d="M269 -14q103 0 162 48t59 135v176q0 87 -59 135.5t-162 48.5t-161 -48.5t-58 -135.5v-176q0 -85 58 -134t161 -49zM422 169q0 -57 -40.5 -89.5t-112.5 -32.5q-69 0 -110.5 32.5t-41.5 89.5v176q0 57 41 90t111 33q72 0 112.5 -33t40.5 -90v-176zM270 583q118 0 151 107
l5 14l-52 18l-4 -12q-21 -77 -100 -77t-100 77l-4 13l-51 -19l4 -13q30 -108 151 -108z" />
    <glyph glyph-name="Ohungarumlaut" unicode="&#x150;" horiz-adv-x="663" 
d="M606 237v236q0 118 -70.5 184.5t-203.5 66.5q-134 0 -204.5 -66.5t-70.5 -184.5v-236q0 -118 70.5 -184.5t204.5 -66.5q133 0 203.5 66.5t70.5 184.5zM534 237q0 -88 -52 -136t-150 -48q-99 0 -151 48t-52 136v236q0 88 52 136t151 48q98 0 150 -48t52 -136v-236z
M352 781l39 -14l141 135l-61 16zM180 780l42 -10l134 131l-58 16z" />
    <glyph glyph-name="ohungarumlaut" unicode="&#x151;" horiz-adv-x="539" 
d="M490 169v176q0 87 -59 135.5t-162 48.5t-161 -48.5t-58 -135.5v-176q0 -85 58 -134t161 -49t162 48t59 135zM422 169q0 -57 -40.5 -89.5t-112.5 -32.5q-69 0 -110.5 32.5t-41.5 89.5v176q0 57 41 90t111 33q72 0 112.5 -33t40.5 -90v-176zM131 582l36 -13l125 122l-54 16
zM398 705l-112 -124l34 -12l134 121z" />
    <glyph glyph-name="OE" unicode="&#x152;" horiz-adv-x="845" 
d="M495 325h254v68h-254v249h299v68h-351q-52 15 -111 15q-134 0 -204.5 -67t-70.5 -185v-236q0 -118 70.5 -185t204.5 -67q56 0 111 15h364v68h-312v257zM129 473q0 88 52 136t151 48q52 0 91 -13v-578q-36 -13 -91 -13q-99 0 -151 48t-52 136v236z" />
    <glyph glyph-name="oe" unicode="&#x153;" horiz-adv-x="817" 
d="M776 239v84q0 95 -48.5 150.5t-149.5 55.5q-121 0 -163 -88q-20 41 -63.5 64.5t-102.5 23.5q-93 0 -145 -49t-52 -135v-177q0 -86 52 -134t145 -48q58 0 101.5 21.5t63.5 63.5q40 -85 161 -85q74 0 117 27t71 79l11 19l-57 32l-10 -17q-24 -42 -52 -62t-80 -20
q-128 0 -128 136v59h329zM119 346q0 57 35 89.5t95 32.5t95.5 -32.5t35.5 -89.5v-178q0 -57 -35.5 -89t-95.5 -32t-95 32t-35 89v178zM447 327q0 144 131 144t131 -144v-36h-262v36z" />
    <glyph glyph-name="Racute" unicode="&#x154;" horiz-adv-x="644" 
d="M78 710v-710h72v298h135q57 0 87.5 -18.5t53.5 -65.5l108 -214h83l-122 238q-27 52 -65 69q14 2 26 6q64 17 99.5 66t35.5 124q0 99 -55 153t-155 54h-303zM425 373q-21 -7 -51 -7h-224v276h224q68 0 105 -36t37 -103q0 -52 -23.5 -85t-67.5 -45zM434 864l-39 47
l-195 -122l28 -34z" />
    <glyph glyph-name="racute" unicode="&#x155;" horiz-adv-x="342" 
d="M132 0v420q0 18 17 26q57 21 132 21h51v62h-49q-106 -3 -181 -31q-22 -11 -30 -22t-8 -34v-442h68zM321 686l-39 47l-195 -122l28 -34z" />
    <glyph glyph-name="uni0156" unicode="&#x156;" horiz-adv-x="644" 
d="M78 710v-710h72v298h135q57 0 87.5 -18.5t53.5 -65.5l108 -214h83l-122 238q-27 52 -65 69q14 2 26 6q64 17 99.5 66t35.5 124q0 99 -55 153t-155 54h-303zM150 366v276h224q68 0 105 -36t37 -103q0 -52 -23.5 -85t-67.5 -45q-21 -7 -51 -7h-224zM313 -72l-40 -177h52
l59 177h-71z" />
    <glyph glyph-name="uni0157" unicode="&#x157;" horiz-adv-x="342" 
d="M283 529q-106 -3 -181 -31q-22 -11 -30 -22t-8 -34v-442h68v420q0 18 17 26q57 21 132 21h51v62h-49zM36 -223h52l49 181h-66z" />
    <glyph glyph-name="Rcaron" unicode="&#x158;" horiz-adv-x="644" 
d="M78 710v-710h72v298h135q57 0 87.5 -18.5t53.5 -65.5l108 -214h83l-122 238q-27 52 -65 69q14 2 26 6q64 17 99.5 66t35.5 124q0 99 -55 153t-155 54h-303zM516 503q0 -52 -23.5 -85t-67.5 -45q-21 -7 -51 -7h-224v276h224q68 0 105 -36t37 -103zM334 762l159 139h-72
l-107 -93l-109 93h-69l159 -139h39z" />
    <glyph glyph-name="rcaron" unicode="&#x159;" horiz-adv-x="342" 
d="M132 420q0 18 17 26q57 21 132 21h51v62h-49q-106 -3 -181 -31q-22 -11 -30 -22t-8 -34v-442h68v420zM183 575h38l144 128h-65l-98 -86l-100 86h-63z" />
    <glyph glyph-name="Sacute" unicode="&#x15a;" horiz-adv-x="626" 
d="M333 392q-32 3 -68.5 8.5t-67 19t-51 38t-20.5 65.5q0 64 47 98t137 34q74 0 119.5 -28t75.5 -88l8 -17l68 31q-3 5 -5 10q-2 3 -3 6t-2 3q-19 39 -43.5 68t-56 47.5t-71.5 27.5t-90 9q-123 0 -190.5 -55.5t-67.5 -149.5q0 -60 23.5 -96.5t61 -57t85 -29.5t94.5 -14
q32 -3 66 -8.5t63 -18.5t47.5 -36.5t18.5 -64.5q0 -140 -199 -140q-148 0 -202 130l-8 18l-69 -24l9 -23q35 -87 99 -128t171 -41q133 0 202.5 55t69.5 155q0 59 -21.5 95t-57 56.5t-80.5 29.5t-92 15zM228 766l206 109l-39 47l-195 -122z" />
    <glyph glyph-name="sacute" unicode="&#x15b;" horiz-adv-x="496" 
d="M264 287q-16 2 -28.5 3t-22.5 2.5t-19.5 3.5t-20.5 5q-30 8 -45 27.5t-15 52.5q0 87 131 87q62 0 94.5 -19t49.5 -57l7 -17l60 26l-8 19q-48 109 -204 109q-97 0 -147 -40t-50 -110q0 -48 17.5 -76t46 -43.5t64.5 -21.5t74 -10t65.5 -10t45 -16t26 -26t8.5 -40
q0 -91 -141 -91q-120 0 -153 86l-7 18l-61 -22l7 -18q47 -123 216 -123q101 0 153 40.5t52 112.5q0 45 -17 72t-44.5 43t-62.5 22.5t-71 10.5zM367 687l-39 47l-195 -122l28 -34z" />
    <glyph glyph-name="Scircumflex" unicode="&#x15c;" horiz-adv-x="626" 
d="M333 392q-32 3 -68.5 8.5t-67 19t-51 38t-20.5 65.5q0 64 47 98t137 34q74 0 119.5 -28t75.5 -88l8 -17l68 31q-3 5 -5 10q-2 3 -3 6t-2 3q-19 39 -43.5 68t-56 47.5t-71.5 27.5t-90 9q-123 0 -190.5 -55.5t-67.5 -149.5q0 -60 23.5 -96.5t61 -57t85 -29.5t94.5 -14
q32 -3 66 -8.5t63 -18.5t47.5 -36.5t18.5 -64.5q0 -140 -199 -140q-148 0 -202 130l-8 18l-69 -24l9 -23q35 -87 99 -128t171 -41q133 0 202.5 55t69.5 155q0 59 -21.5 95t-57 56.5t-80.5 29.5t-92 15zM207 773l109 92l107 -92h70l-156 138h-41l-157 -138h68z" />
    <glyph glyph-name="scircumflex" unicode="&#x15d;" horiz-adv-x="496" 
d="M264 287q-16 2 -28.5 3t-22.5 2.5t-19.5 3.5t-20.5 5q-30 8 -45 27.5t-15 52.5q0 87 131 87q62 0 94.5 -19t49.5 -57l7 -17l60 26l-8 19q-48 109 -204 109q-97 0 -147 -40t-50 -110q0 -48 17.5 -76t46 -43.5t64.5 -21.5t74 -10t65.5 -10t45 -16t26 -26t8.5 -40
q0 -91 -141 -91q-120 0 -153 86l-7 18l-61 -22l7 -18q47 -123 216 -123q101 0 153 40.5t52 112.5q0 45 -17 72t-44.5 43t-62.5 22.5t-71 10.5zM268 715h-39l-156 -136h69l107 91l104 -91h71z" />
    <glyph glyph-name="Scedilla" unicode="&#x15e;" horiz-adv-x="625" 
d="M505 539l8 -17l67 30q-3 5 -5 10q-4 10 -5 10q-38 79 -99 115.5t-161 36.5q-124 0 -191.5 -55.5t-67.5 -149.5q0 -59 23.5 -95.5t61.5 -58t85.5 -30.5t94.5 -13q18 -2 32.5 -4t27 -4t24.5 -4.5t26 -7.5t25.5 -10.5t19.5 -11.5q16 -14 27.5 -35t11.5 -51q0 -140 -198 -140
q-146 0 -203 129l-8 19l-68 -25l8 -19q34 -86 95.5 -128.5t163.5 -43.5l-38 -94h50q60 0 60 -42q0 -26 -18 -41t-51 -15q-42 0 -74 22l-10 7v-44l12 -8q32 -18 80 -18q51 0 83.5 23t35.5 71q2 36 -21.5 58.5t-63.5 22.5q-5 0 -26 -3l23 62q118 7 179.5 60.5t61.5 148.5
q0 58 -22 94t-57 56.5t-80 30t-91 15.5q-32 3 -68.5 8t-67 18.5t-51 38t-20.5 66.5q0 64 47 98t137 34q74 0 119.5 -28t75.5 -88z" />
    <glyph glyph-name="scedilla" unicode="&#x15f;" horiz-adv-x="496" 
d="M151 -176v-42l11 -6q30 -18 79 -18q50 0 82 21.5t34 68.5q2 34 -21 55.5t-62 21.5q-17 0 -25 -2l24 63q92 5 139 44.5t47 108.5q0 45 -17 72t-44.5 43t-62.5 22.5t-71 10.5q-16 2 -28.5 3t-22.5 2.5t-19.5 3.5t-20.5 5q-30 8 -45 27.5t-15 52.5q0 87 131 87q62 0 94 -19
t49 -57l8 -17l60 26l-9 19q-48 109 -203 109q-97 0 -147 -40t-50 -110q0 -48 17.5 -76t46 -43.5t64.5 -21.5t74 -10t65.5 -10t45 -16t26 -26t8.5 -40q0 -91 -141 -91q-120 0 -153 86l-7 18l-61 -22l7 -17q42 -116 194 -124l-38 -94h48q58 -3 58 -41q0 -26 -17.5 -40
t-49.5 -14q-41 0 -73 22z" />
    <glyph glyph-name="Scaron" unicode="&#x160;" horiz-adv-x="626" 
d="M333 392q-32 3 -68.5 8.5t-67 19t-51 38t-20.5 65.5q0 64 47 98t137 34q74 0 119.5 -28t75.5 -88l8 -17l68 31q-3 5 -5 10q-2 3 -3 6t-2 3q-19 39 -43.5 68t-56 47.5t-71.5 27.5t-90 9q-123 0 -190.5 -55.5t-67.5 -149.5q0 -60 23.5 -96.5t61 -57t85 -29.5t94.5 -14
q32 -3 66 -8.5t63 -18.5t47.5 -36.5t18.5 -64.5q0 -140 -199 -140q-148 0 -202 130l-8 18l-69 -24l9 -23q35 -87 99 -128t171 -41q133 0 202.5 55t69.5 155q0 59 -21.5 95t-57 56.5t-80.5 29.5t-92 15zM314 817l-109 93h-68l157 -138h42l157 138h-71z" />
    <glyph glyph-name="scaron" unicode="&#x161;" horiz-adv-x="496" 
d="M264 287q-16 2 -28.5 3t-22.5 2.5t-19.5 3.5t-20.5 5q-30 8 -45 27.5t-15 52.5q0 87 131 87q62 0 94.5 -19t49.5 -57l7 -17l60 26l-8 19q-48 109 -204 109q-97 0 -147 -40t-50 -110q0 -48 17.5 -76t46 -43.5t64.5 -21.5t74 -10t65.5 -10t45 -16t26 -26t8.5 -40
q0 -91 -141 -91q-120 0 -153 86l-7 18l-61 -22l7 -18q47 -123 216 -123q101 0 153 40.5t52 112.5q0 45 -17 72t-44.5 43t-62.5 22.5t-71 10.5zM230 574h35l145 126h-65l-98 -85l-100 85h-62z" />
    <glyph glyph-name="Tcaron" unicode="&#x164;" horiz-adv-x="543" 
d="M235 642v-642h73v642h222v68h-517v-68h222zM250 763h42l157 138h-71l-108 -93l-109 93h-68z" />
    <glyph glyph-name="tcaron" unicode="&#x165;" horiz-adv-x="359" 
d="M346 50h-18q-42 0 -70 6.5t-44 22.5t-22.5 43.5t-6.5 69.5v260h163v62h-163v120h-67v-120h-113v-62h113v-262q0 -54 9 -92t31 -63t58 -36.5t91 -12.5h39v64zM304 740l-32 -185h46l54 185h-68z" />
    <glyph glyph-name="Tbar" unicode="&#x166;" horiz-adv-x="565" 
d="M246 0h73v303h153v53h-153v286h222v68h-517v-68h222v-286h-153v-53h153v-303z" />
    <glyph glyph-name="tbar" unicode="&#x167;" horiz-adv-x="366" 
d="M192 191v49h129v49h-129v163h162v63h-162v120h-67v-120h-113v-63h113v-163h-99v-49h99v-49q0 -55 9 -93.5t30.5 -63t58.5 -36t92 -12.5q3 -1 10 -1t10 1h19v64h-19q-42 0 -69.5 6t-44 22t-23 43.5t-6.5 69.5z" />
    <glyph glyph-name="Utilde" unicode="&#x168;" horiz-adv-x="682" 
d="M341 -15q132 0 200.5 68t68.5 189v468h-73v-469q0 -90 -49.5 -139t-146.5 -49t-146.5 49t-49.5 139v469h-73v-468q0 -121 68.5 -189t200.5 -68zM449 868q0 -53 -39 -53q-16 0 -33 10.5t-35 23t-37.5 23t-42.5 10.5q-78 0 -78 -100v-12h44v12q0 55 40 55q26 0 68 -33
q43 -34 79 -34q78 0 78 100v12h-44v-14z" />
    <glyph glyph-name="utilde" unicode="&#x169;" 
d="M399 69q-54 -22 -130 -22q-140 0 -140 137v330h-67v-333q0 -195 198 -195q107 0 186 33l39 16v479h-68v-438zM381 692q0 -53 -39 -53q-16 0 -33 10.5t-35 23t-37.5 23t-42.5 10.5q-78 0 -78 -100v-12h44v12q0 55 40 55q26 0 68 -33q43 -34 79 -34q78 0 78 100v12h-44v-14
z" />
    <glyph glyph-name="Umacron" unicode="&#x16a;" horiz-adv-x="682" 
d="M610 710h-73v-469q0 -90 -49.5 -139t-146.5 -49t-146.5 49t-49.5 139v469h-73v-468q0 -121 68.5 -189t200.5 -68t200.5 68t68.5 189v468zM476 850h-270v-50h270v50z" />
    <glyph glyph-name="umacron" unicode="&#x16b;" 
d="M260 -14q107 0 186 33l39 16v479h-68v-438l-18 -7q-54 -22 -130 -22q-140 0 -140 137v330h-67v-333q0 -195 198 -195zM138 621h270v50h-270v-50z" />
    <glyph glyph-name="Ubreve" unicode="&#x16c;" horiz-adv-x="682" 
d="M610 710h-73v-469q0 -90 -49.5 -139t-146.5 -49t-146.5 49t-49.5 139v469h-73v-468q0 -121 68.5 -189t200.5 -68t200.5 68t68.5 189v468zM445 902l-4 -12q-21 -77 -100 -77t-100 77l-4 13l-51 -19l4 -13q30 -108 151 -108q118 0 151 107l5 14z" />
    <glyph glyph-name="ubreve" unicode="&#x16d;" 
d="M485 514h-68v-438l-18 -7q-54 -22 -130 -22q-140 0 -140 137v330h-67v-333q0 -195 198 -195q107 0 186 33l39 16v479zM377 722l-4 -12q-21 -77 -100 -77t-100 77l-4 13l-51 -19l4 -13q30 -108 151 -108q118 0 151 107l5 14z" />
    <glyph glyph-name="Uring" unicode="&#x16e;" horiz-adv-x="682" 
d="M537 241q0 -90 -49.5 -139t-146.5 -49t-146.5 49t-49.5 139v469h-73v-468q0 -121 68.5 -189t200.5 -68t200.5 68t68.5 189v468h-73v-469zM416 913q-27 27 -72 27q-46 0 -74 -27.5t-28 -71.5t28 -71t74 -27q45 0 72 27t27 71t-27 72zM344 904q29 0 46 -17t17 -46t-17 -46
t-46 -17q-30 0 -48 17t-18 46t18 46t48 17z" />
    <glyph glyph-name="uring" unicode="&#x16f;" 
d="M399 69q-54 -22 -130 -22q-140 0 -140 137v330h-67v-333q0 -195 198 -195q107 0 186 33l39 16v479h-68v-438zM278 549q45 0 72 27t27 71t-27 71t-72 27q-47 0 -75 -27t-28 -71t28 -71t75 -27zM278 710q28 0 45.5 -17t17.5 -46t-17 -46q-18 -17 -46 -17q-31 0 -49 17
t-18 46t18 46t49 17z" />
    <glyph glyph-name="Uhungarumlaut" unicode="&#x170;" horiz-adv-x="682" 
d="M610 710h-73v-469q0 -90 -49.5 -139t-146.5 -49t-146.5 49t-49.5 139v469h-73v-468q0 -121 68.5 -189t200.5 -68t200.5 68t68.5 189v468zM541 892l-61 16l-119 -137l39 -14zM189 770l42 -10l134 131l-58 16z" />
    <glyph glyph-name="uhungarumlaut" unicode="&#x171;" 
d="M417 76l-18 -7q-54 -22 -130 -22q-140 0 -140 137v330h-67v-333q0 -195 198 -195q107 0 186 33l39 16v479h-68v-438zM473 704l-59 18l-123 -135l39 -14zM239 723l-117 -136l40 -13l136 133z" />
    <glyph glyph-name="Uogonek" unicode="&#x172;" horiz-adv-x="682" 
d="M493 -166l-8 -7q-22 -22 -51 -22t-39 28q-9 26 26 87q37 61 100 117q89 66 89 205v468h-73v-469q0 -90 -49.5 -139t-146.5 -49t-146.5 49t-49.5 139v469h-73v-468q0 -121 68.5 -189t200.5 -68q51 0 88 12q-51 -51 -77 -103t-16 -89q13 -52 77 -52q53 0 90 36l5 5z" />
    <glyph glyph-name="uogonek" unicode="&#x173;" 
d="M485 514h-68v-438l-19 -8q-54 -21 -129 -21q-140 0 -140 137v330h-67v-333q0 -195 198 -195q78 0 139 18q-25 -24 -43 -51t-29 -53.5t-14.5 -51t2.5 -43.5q12 -52 77 -52q51 0 90 36l4 4l-16 41l-7 -7q-23 -23 -50 -23q-14 0 -24.5 7t-15.5 22q-11 29 16 88t79 110l17 16
v467z" />
    <glyph glyph-name="Wcircumflex" unicode="&#x174;" horiz-adv-x="881" 
d="M640 124l-159 575h-75l-161 -570l-147 581h-80l188 -710h73l162 580l159 -580h75l187 710h-74zM551 763h70l-156 138h-41l-157 -138h68l109 92z" />
    <glyph glyph-name="wcircumflex" unicode="&#x175;" horiz-adv-x="731" 
d="M526 104l-128 399h-62l-128 -398l-120 409h-70l158 -517h59l130 411l130 -411h60l159 517h-68zM474 577h70l-156 138h-41l-157 -138h68l109 92z" />
    <glyph glyph-name="Ycircumflex" unicode="&#x176;" horiz-adv-x="627" 
d="M277 0h73v288l273 422h-87l-222 -347l-221 347h-91l275 -421v-289zM336 901h-41l-157 -138h68l109 92l107 -92h70z" />
    <glyph glyph-name="ycircumflex" unicode="&#x177;" horiz-adv-x="551" 
d="M260 -1q35 0 73.5 6t83.5 20v-59q0 -152 -146 -152q-97 0 -140 79l-9 17l-60 -30l11 -21q58 -106 199 -106q213 0 213 216v545h-68v-427q-84 -27 -148 -27q-140 0 -140 137v317h-67v-320q0 -195 198 -195zM273 669l105 -90h68l-153 135h-39l-154 -135h66z" />
    <glyph glyph-name="Ydieresis" unicode="&#x178;" horiz-adv-x="627" 
d="M277 289v-289h73v288l273 422h-87l-222 -347l-221 347h-91zM182 828q0 -15 10.5 -25.5t25.5 -10.5q14 0 25 10.5t11 25.5q0 14 -11 25t-25 11q-15 0 -25.5 -11t-10.5 -25zM376 828q0 -15 10.5 -25.5t25.5 -10.5q14 0 25 10.5t11 25.5q0 14 -11 25t-25 11q-15 0 -25.5 -11
t-10.5 -25z" />
    <glyph glyph-name="Zacute" unicode="&#x179;" horiz-adv-x="566" 
d="M123 68l403 583v59h-489v-68h398l-402 -582v-60h503v68h-413zM199 756l206 109l-39 47l-195 -122z" />
    <glyph glyph-name="zacute" unicode="&#x17a;" horiz-adv-x="455" 
d="M420 459v55h-385v-61h299l-303 -398v-55h394v61h-309zM112 611l28 -34l206 109l-39 47z" />
    <glyph glyph-name="Zdotaccent" unicode="&#x17b;" horiz-adv-x="566" 
d="M536 68h-413l403 583v59h-489v-68h398l-402 -582v-60h503v68zM287 789q15 0 26 10.5t11 25.5t-11 26t-26 11t-25.5 -11t-10.5 -26t10.5 -25.5t25.5 -10.5z" />
    <glyph glyph-name="zdotaccent" unicode="&#x17c;" horiz-adv-x="455" 
d="M425 61h-309l304 398v55h-385v-61h299l-303 -398v-55h394v61zM227 610q15 0 26 10.5t11 25.5t-11 26t-26 11t-25.5 -11t-10.5 -26t10.5 -25.5t25.5 -10.5z" />
    <glyph glyph-name="Zcaron" unicode="&#x17d;" horiz-adv-x="566" 
d="M536 68h-413l403 583v59h-489v-68h398l-402 -582v-60h503v68zM108 901l159 -139h39l159 139h-72l-107 -93l-109 93h-69z" />
    <glyph glyph-name="zcaron" unicode="&#x17e;" horiz-adv-x="455" 
d="M116 61l304 398v55h-385v-61h299l-303 -398v-55h394v61h-309zM126 700h-63l144 -128h38l144 128h-65l-98 -86z" />
    <glyph glyph-name="longs" unicode="&#x17f;" horiz-adv-x="260" 
d="M173 535q0 40 7 67.5t24 44t44.5 23.5t67.5 7h18v63h-18q-56 0 -95.5 -11t-65 -35t-37.5 -62t-12 -92v-26h-96v-62h96v-452h67v535z" />
    <glyph glyph-name="florin" unicode="&#x192;" horiz-adv-x="445" 
d="M252 389l16 144q7 72 40.5 108t107.5 36h18v63h-18q-105 0 -155.5 -52.5t-60.5 -151.5l-15 -147h-154v-63h147l-36 -338q-8 -72 -42 -108.5t-107 -36.5h-18v-63h18q195 0 216 206l37 340h161v63h-155z" />
    <glyph glyph-name="Aringacute" unicode="&#x1fa;" horiz-adv-x="640" 
d="M321 850q-45 0 -74 -27t-29 -70q0 -57 57 -75l-272 -678h77l82 213h312l81 -213h80l-270 678q26 8 41 28t15 47q0 43 -28 70t-72 27zM451 274h-266l133 345zM321 700q-29 0 -46.5 15.5t-17.5 39.5q0 26 17.5 42.5t46.5 16.5q26 0 43.5 -16.5t17.5 -42.5
q0 -24 -17.5 -39.5t-43.5 -15.5zM433 931l-32 37l-187 -88l26 -26z" />
    <glyph glyph-name="aringacute" unicode="&#x1fb;" horiz-adv-x="512" 
d="M388 286q-45 5 -78 7.5t-53 2.5q-60 0 -101.5 -8.5t-68 -27t-38.5 -48t-12 -71.5q0 -40 10.5 -69.5t35.5 -48.5t66.5 -28t103.5 -9q108 0 166 26l36 15v304q0 45 -10.5 82t-34 62.5t-61.5 39.5t-94 14q-144 0 -201 -105l-10 -18l61 -25l8 15q41 73 140 73q76 0 105.5 -36
t29.5 -101v-46zM369 58q-44 -16 -121 -16q-42 0 -69 6t-43.5 18.5t-23 31.5t-6.5 44q0 52 32.5 75t111.5 23q48 0 138 -9v-167zM329 600q27 27 27 71t-27 71.5t-72 27.5q-46 0 -74 -27.5t-28 -71.5t28 -71t74 -27q45 0 72 27zM191 671q0 29 18 46t48 17q29 0 46 -17t17 -46
t-17 -46t-46 -17q-30 0 -48 17t-18 46zM365 866l-37 34l-183 -89l26 -26z" />
    <glyph glyph-name="AEacute" unicode="&#x1fc;" horiz-adv-x="831" 
d="M735 393h-242v249h288v68h-359l-436 -710h81l105 175h250v-175h371v68h-300v257h242v68zM422 235h-214l214 354v-354zM717 864l-39 47l-195 -122l28 -34z" />
    <glyph glyph-name="aeacute" unicode="&#x1fd;" horiz-adv-x="788" 
d="M114 397q41 72 121 72q68 0 91.5 -33.5t23.5 -95.5v-55q-54 9 -110 9q-55 0 -93.5 -8t-62.5 -26.5t-35 -48t-11 -72.5q0 -40 9.5 -69t32.5 -47.5t61 -27.5t95 -9q114 0 166 60q44 -60 144 -60q75 0 117.5 26.5t71.5 79.5l10 18l-56 34l-11 -18q-24 -42 -52 -62t-80 -20
q-128 0 -128 136v59h329v84q0 95 -48.5 150.5t-149.5 55.5q-117 0 -161 -87q-36 87 -151 87q-126 0 -182 -105l-9 -18l59 -25zM106 140q0 53 27.5 76t98.5 23q26 0 55 -2.5t63 -7.5v-66q0 -41 7 -66q-2 -5 -8 -14.5t-20 -18.5t-37.5 -15.5t-61.5 -6.5q-72 0 -98 23.5
t-26 74.5zM418 291v36q0 144 131 144t131 -144v-36h-262zM275 617l28 -34l206 109l-39 47z" />
    <glyph glyph-name="Oslashacute" unicode="&#x1fe;" horiz-adv-x="663" 
d="M606 473q0 106 -57 169l69 109h-58l-48 -77q-68 50 -180 50q-134 0 -204.5 -66.5t-70.5 -184.5v-236q0 -112 62 -176l-64 -103h57l46 72q68 -44 167 -44q62 0 113.5 14.5t89 45.5t58 78t20.5 113v236zM165 131q-36 41 -36 106v236q0 88 52 136t151 48q89 0 141 -43z
M332 53q-87 0 -135 38l307 480q30 -36 30 -98v-236q0 -89 -51.5 -136.5t-150.5 -47.5zM220 800l28 -34l206 109l-39 47z" />
    <glyph glyph-name="oslashacute" unicode="&#x1ff;" horiz-adv-x="539" 
d="M269 529q-103 0 -161 -49t-58 -135v-176q0 -85 57 -133l-44 -71h45l32 49q52 -28 129 -28q103 0 162 48t59 135v176q0 84 -57 133l46 74h-45l-34 -53q-54 30 -131 30zM147 99q-30 27 -30 70v176q0 57 41 90t111 33q56 0 97 -23zM393 415q29 -27 29 -70v-176
q0 -57 -40.5 -89.5t-112.5 -32.5q-57 0 -95 22zM181 578l206 109l-39 47l-195 -122z" />
    <glyph glyph-name="uni0218" unicode="&#x218;" horiz-adv-x="626" 
d="M310 655q74 0 119.5 -28t75.5 -88l8 -17l68 31q-3 5 -5 10q-2 3 -3 6t-2 3q-19 39 -43.5 68t-56 47.5t-71.5 27.5t-90 9q-123 0 -190.5 -55.5t-67.5 -149.5q0 -60 23.5 -96.5t61 -57t85 -29.5t94.5 -14q32 -3 66 -8.5t63 -18.5t47.5 -36.5t18.5 -64.5q0 -140 -199 -140
q-148 0 -202 130l-8 18l-69 -24l9 -23q35 -87 99 -128t171 -41q133 0 202.5 55t69.5 155q0 59 -21.5 95t-57 56.5t-80.5 29.5t-92 15q-32 3 -68.5 8.5t-67 19t-51 38t-20.5 65.5q0 64 47 98t137 34zM261 -254h52l59 177h-71z" />
    <glyph glyph-name="uni0219" unicode="&#x219;" horiz-adv-x="496" 
d="M447 420q-48 109 -204 109q-97 0 -147 -40t-50 -110q0 -48 17.5 -76t46 -43.5t64.5 -21.5t74 -10t65.5 -10t45 -16t26 -26t8.5 -40q0 -91 -141 -91q-120 0 -153 86l-7 18l-61 -22l7 -18q47 -123 216 -123q101 0 153 40.5t52 112.5q0 45 -17 72t-44.5 43t-62.5 22.5
t-71 10.5q-16 2 -28.5 3t-22.5 2.5t-19.5 3.5t-20.5 5q-30 8 -45 27.5t-15 52.5q0 87 131 87q62 0 94.5 -19t49.5 -57l7 -17l60 26zM302 -50h-66l-36 -171h51z" />
    <glyph glyph-name="uni021A" unicode="&#x21a;" horiz-adv-x="543" 
d="M308 642h222v68h-517v-68h222v-642h73v642zM318 -72h-71l-40 -177h52z" />
    <glyph glyph-name="uni021B" unicode="&#x21b;" horiz-adv-x="359" 
d="M185 192v260h163v62h-163v120h-67v-120h-113v-62h113v-262q0 -54 9 -92t31 -63t58 -36.5t91 -12.5h39v64h-18q-42 0 -70 6.5t-44 22.5t-22.5 43.5t-6.5 69.5zM266 -72h-71l-40 -177h52z" />
    <glyph glyph-name="uni0237" unicode="&#x237;" horiz-adv-x="201" 
d="M134 -9v523h-67v-522q0 -81 -31.5 -120t-109.5 -39h-18v-63h18q110 0 159 56t49 165z" />
    <glyph glyph-name="circumflex" unicode="&#x2c6;" horiz-adv-x="378" 
d="M294 586h72l-159 138h-40l-159 -138h70l109 93z" />
    <glyph glyph-name="caron" unicode="&#x2c7;" horiz-adv-x="332" 
d="M165 631l-109 93h-70l159 -138h40l159 138h-72z" />
    <glyph glyph-name="breve" unicode="&#x2d8;" horiz-adv-x="287" 
d="M242 728l-4 -12q-21 -77 -100 -77t-100 77l-4 13l-51 -19l4 -13q30 -108 151 -108q118 0 151 107l5 14z" />
    <glyph glyph-name="dotaccent" unicode="&#x2d9;" horiz-adv-x="216" 
d="M144 653q0 15 -10.5 25.5t-25.5 10.5t-25.5 -10.5t-10.5 -25.5t10.5 -25.5t25.5 -10.5t25.5 10.5t10.5 25.5z" />
    <glyph glyph-name="ring" unicode="&#x2da;" horiz-adv-x="240" 
d="M194 718q-27 27 -72 27q-46 0 -74 -27t-28 -71t28 -71t74 -27q45 0 72 27t27 71t-27 71zM122 584q-31 0 -48.5 17t-17.5 46t17.5 46t48.5 17q29 0 46 -17t17 -46t-17 -46t-46 -17z" />
    <glyph glyph-name="ogonek" unicode="&#x2db;" horiz-adv-x="252" 
d="M199 -166l-7 -7q-22 -22 -51 -22q-30 0 -39 28q-9 27 14 73t74 94h-48q-59 -48 -85 -101t-14 -94q13 -52 78 -52q52 0 88 35l6 6z" />
    <glyph glyph-name="tilde" unicode="&#x2dc;" horiz-adv-x="305" 
d="M150 634q43 -34 79 -34q78 0 78 100v12h-44v-14q0 -53 -39 -53q-16 0 -33 10.5t-35 23t-37.5 23t-42.5 10.5q-78 0 -78 -100v-12h44v12q0 55 40 55q26 0 68 -33z" />
    <glyph glyph-name="hungarumlaut" unicode="&#x2dd;" horiz-adv-x="395" 
d="M395 710l-59 18l-122 -135l38 -14zM161 730l-115 -137l38 -13l134 131z" />
    <glyph glyph-name="uni0326" unicode="&#x326;" horiz-adv-x="0" 
d="M103 -72l-40 -177h52l59 177h-71z" />
    <glyph glyph-name="pi" unicode="&#x3c0;" horiz-adv-x="617" 
d="M522 452h75v62h-432q-87 0 -147 -33l-16 -9l25 -57l18 10q45 26 95 27v-452h67v452h248v-303q0 -84 31 -140l8 -16l63 26l-10 19q-25 43 -25 108v306z" />
    <glyph glyph-name="uni0401" unicode="&#x401;" horiz-adv-x="573" 
d="M477 326v68h-327v248h372v68h-444v-710h457v68h-385v258h327zM205 855q-15 0 -25.5 -10.5t-10.5 -25.5t10.5 -25.5t25.5 -10.5t25.5 10.5t10.5 25.5t-10.5 25.5t-25.5 10.5zM399 855q-15 0 -25.5 -10.5t-10.5 -25.5t10.5 -25.5t25.5 -10.5t25.5 10.5t10.5 25.5
t-10.5 25.5t-25.5 10.5z" />
    <glyph glyph-name="uni0410" unicode="&#x410;" horiz-adv-x="641" 
d="M287 713l-282 -713h75l82 208h315l80 -208h80l-282 713h-68zM185 268l135 346l134 -346h-269z" />
    <glyph glyph-name="uni0411" unicode="&#x411;" horiz-adv-x="628" 
d="M150 410v232h394v68h-466v-710h308q97 0 153 54t56 151t-56 151t-153 54h-236zM379 343q66 0 103 -36t37 -102t-37 -101.5t-103 -35.5h-229v275h229z" />
    <glyph glyph-name="uni0412" unicode="&#x412;" horiz-adv-x="643" 
d="M523 663q-51 47 -143 47h-282q-11 0 -15.5 -4.5t-4.5 -15.5v-670q0 -11 4.5 -15.5t15.5 -4.5h293q95 0 151 50t56 141q0 144 -119 175v2q94 41 94 160q0 88 -50 135zM388 329q65 0 99.5 -33.5t34.5 -97.5t-34 -97q-35 -33 -100 -33h-238v261h238zM466 426
q-33 -32 -95 -32h-221v248h221q128 0 128 -123q0 -62 -33 -93z" />
    <glyph glyph-name="uni0413" unicode="&#x413;" horiz-adv-x="512" 
d="M78 0h72v642h346v68h-418v-710z" />
    <glyph glyph-name="uni0414" unicode="&#x414;" horiz-adv-x="712" 
d="M174 710v-223q0 -117 -9.5 -197.5t-26.5 -124.5q-9 -22 -16.5 -37t-15.5 -26.5t-16.5 -19t-19.5 -14.5h-55v-221h71v153h535v-153h71v221h-83v642h-435zM158 68q31 35 48.5 88.5t25.5 112.5t10 117t2 101v155h292v-574h-378z" />
    <glyph glyph-name="uni0415" unicode="&#x415;" horiz-adv-x="573" 
d="M150 642h372v68h-444v-710h457v68h-385v258h327v68h-327v248z" />
    <glyph glyph-name="uni0416" unicode="&#x416;" horiz-adv-x="917" 
d="M422 710v-317h-64q-14 0 -24.5 -0.5t-16.5 -1.5l-211 319h-87l228 -340q-61 -24 -99 -101l-138 -269h84l120 240q12 24 25.5 40.5t30 27t38 15t50.5 4.5h64v-327h73v327h65q29 0 50.5 -4.5t38 -15t29.5 -27t25 -40.5l120 -240h83l-138 269q-38 76 -98 101l227 340h-87
l-210 -319q-6 1 -16 1.5t-24 0.5h-65v317h-73z" />
    <glyph glyph-name="uni0417" unicode="&#x417;" horiz-adv-x="620" 
d="M321 -14q128 0 191 54t63 154q0 135 -113 174q91 37 91 157q0 96 -58.5 147.5t-173.5 51.5q-118 0 -183.5 -42t-92.5 -129l-6 -19l69 -24l6 19q21 67 67 97.5t136 30.5q81 0 122 -35.5t41 -102.5q0 -54 -29.5 -88.5t-89.5 -34.5h-184v-66h192q63 0 96.5 -36t33.5 -97
q0 -69 -43.5 -106.5t-134.5 -37.5q-95 0 -143.5 32t-69.5 99l-6 20l-69 -24l6 -20q27 -86 94.5 -130t187.5 -44z" />
    <glyph glyph-name="uni0418" unicode="&#x418;" horiz-adv-x="694" 
d="M543 580v-580h73v710h-67l-399 -580v580h-72v-710h66z" />
    <glyph glyph-name="uni0419" unicode="&#x419;" horiz-adv-x="694" 
d="M543 0h73v710h-67l-399 -580v580h-72v-710h66l399 580v-580zM505 892l-29 10q-13 3 -17 -8q-25 -77 -109 -77t-108 77q-5 11 -20 7l-26 -9q-13 -4 -9 -17q36 -108 163 -108q128 0 164 108q3 11 -9 17z" />
    <glyph glyph-name="uni041A" unicode="&#x41a;" horiz-adv-x="609" 
d="M252 327q53 0 83 -16.5t52 -56.5l128 -254h84l-137 267q-46 91 -121 112l251 331h-87l-237 -317h-118v317h-72v-710h72v327h102z" />
    <glyph glyph-name="uni041B" unicode="&#x41b;" horiz-adv-x="656" 
d="M185 145q14 47 23.5 127.5t9.5 192.5v177h288v-642h72v710h-431v-246q0 -32 -1 -80t-6.5 -98.5t-16.5 -96.5t-32 -74q-9 -12 -16 -20t-14 -14t-14.5 -10.5t-17.5 -9.5l-32 -17l32 -63q8 3 14 6q5 2 9.5 4t4.5 3q51 25 81.5 61t46.5 90z" />
    <glyph glyph-name="uni041C" unicode="&#x41c;" horiz-adv-x="800" 
d="M655 710l-255 -455l-258 455h-64v-710h68v568l228 -402h50l229 403v-569h70v710h-68z" />
    <glyph glyph-name="uni041D" unicode="&#x41d;" horiz-adv-x="681" 
d="M603 710h-72v-316h-381v316h-72v-710h72v326h381v-326h72v710z" />
    <glyph glyph-name="uni041E" unicode="&#x41e;" horiz-adv-x="663" 
d="M606 473q0 118 -71 184.5t-203 66.5q-133 0 -204 -66.5t-71 -184.5v-236q0 -118 71 -184.5t204 -66.5q132 0 203 66.5t71 184.5v236zM534 237q0 -88 -52 -136t-150 -48t-150.5 48t-52.5 136v236q0 88 52.5 136t150.5 48t150 -48t52 -136v-236z" />
    <glyph glyph-name="uni041F" unicode="&#x41f;" horiz-adv-x="675" 
d="M597 0v710h-519v-710h72v642h375v-642h72z" />
    <glyph glyph-name="uni0420" unicode="&#x420;" horiz-adv-x="622" 
d="M365 267q106 0 166 58t60 163t-60 163.5t-166 58.5h-287v-710h72v267h215zM516 488q0 -72 -42 -113t-115 -41h-209v308h209q73 0 115 -41t42 -113z" />
    <glyph glyph-name="uni0421" unicode="&#x421;" horiz-adv-x="636" 
d="M331 -14q114 0 177.5 43.5t90.5 131.5l6 18l-69 27l-6 -21q-21 -68 -67 -100t-132 -32q-97 0 -149 48t-52 135v238q0 88 51 135.5t150 47.5q85 0 130.5 -31t66.5 -98l6 -19l69 24l-7 23q-27 85 -90.5 126.5t-174.5 41.5q-134 0 -204 -66.5t-70 -184.5v-236
q0 -118 71 -184.5t203 -66.5z" />
    <glyph glyph-name="uni0422" unicode="&#x422;" horiz-adv-x="543" 
d="M530 642v68h-517v-68h222v-642h73v642h222z" />
    <glyph glyph-name="uni0423" unicode="&#x423;" horiz-adv-x="593" 
d="M591 710h-80l-210 -425l-221 425h-84l266 -504l-102 -206h83z" />
    <glyph glyph-name="uni0424" unicode="&#x424;" horiz-adv-x="828" 
d="M378 650h-64q-132 0 -201 -66.5t-69 -187.5v-77q0 -121 69 -187.5t201 -66.5h64v-85h72v85h63q131 0 200.5 66.5t69.5 187.5v77q0 121 -69.5 187.5t-200.5 66.5h-63v85h-72v-85zM378 585v-455h-64q-97 0 -147 48t-50 138v83q0 89 50 137.5t147 48.5h64zM513 585
q97 0 147 -48.5t50 -137.5v-83q0 -90 -50 -138t-147 -48h-63v455h63z" />
    <glyph glyph-name="uni0425" unicode="&#x425;" horiz-adv-x="617" 
d="M517 710l-209 -288l-208 288h-90l253 -350l-261 -360h87l218 300l217 -300h90l-262 362l253 348h-88z" />
    <glyph glyph-name="uni0426" unicode="&#x426;" horiz-adv-x="696" 
d="M675 68h-82v642h-72v-642h-371v642h-72v-710h527v-153h70v221z" />
    <glyph glyph-name="uni0427" unicode="&#x427;" horiz-adv-x="629" 
d="M551 710h-72v-354q-67 -21 -183 -21q-99 0 -141 43.5t-42 133.5v198h-73v-198q0 -122 59.5 -183.5t193.5 -61.5q98 0 186 20v-287h72v710z" />
    <glyph glyph-name="uni0428" unicode="&#x428;" horiz-adv-x="912" 
d="M761 68h-269v642h-73v-642h-269v642h-72v-710h756v710h-73v-642z" />
    <glyph glyph-name="uni0429" unicode="&#x429;" horiz-adv-x="937" 
d="M492 68v642h-73v-642h-269v642h-72v-710h769v-153h69v221h-82v642h-73v-642h-269z" />
    <glyph glyph-name="uni042A" unicode="&#x42a;" horiz-adv-x="729" 
d="M257 443v267h-244v-68h172v-642h287q106 0 166 58.5t60 163.5t-60 163t-166 58h-215zM465 376q74 0 115.5 -40.5t41.5 -113.5t-41.5 -113.5t-115.5 -40.5h-208v308h208z" />
    <glyph glyph-name="uni042B" unicode="&#x42b;" horiz-adv-x="863" 
d="M591 222q0 105 -60 163t-166 58h-215v267h-72v-710h287q106 0 166 58.5t60 163.5zM359 376q73 0 115 -41t42 -113t-42 -113t-115 -41h-209v308h209zM785 710h-73v-710h73v710z" />
    <glyph glyph-name="uni042C" unicode="&#x42c;" horiz-adv-x="622" 
d="M150 443v267h-72v-710h287q106 0 166 58.5t60 163.5t-60 163t-166 58h-215zM150 376h209q73 0 115 -41t42 -113t-42 -113t-115 -41h-209v308z" />
    <glyph glyph-name="uni042D" unicode="&#x42d;" horiz-adv-x="640" 
d="M584 474q0 118 -70.5 184t-204.5 66q-113 0 -176 -42t-90 -129l-6 -19l69 -24l6 19q21 67 66 97.5t131 30.5q100 0 150.5 -47t50.5 -135v-82h-319v-68h319v-89q0 -87 -52 -135t-149 -48q-86 0 -131.5 32t-67.5 99l-7 20l-69 -25l7 -19q27 -87 90.5 -130.5t177.5 -43.5
q133 0 204 66.5t71 184.5v237z" />
    <glyph glyph-name="uni042E" unicode="&#x42e;" horiz-adv-x="921" 
d="M864 474q0 118 -69 184t-200 66q-132 0 -201.5 -66t-69.5 -184v-80h-174v316h-72v-710h72v326h174v-90q0 -118 69.5 -184t201.5 -66q131 0 200 66t69 184v238zM595 53q-97 0 -147.5 47.5t-50.5 135.5v238q0 88 50.5 135.5t147.5 47.5q96 0 146.5 -47.5t50.5 -135.5v-238
q0 -88 -50.5 -135.5t-146.5 -47.5z" />
    <glyph glyph-name="uni042F" unicode="&#x42f;" horiz-adv-x="642" 
d="M492 0h72v710h-303q-100 0 -155 -54t-55 -153q0 -75 35.5 -124t99.5 -66q12 -4 26 -6q-38 -17 -65 -69l-122 -238h83l108 214q23 47 53.5 65.5t87.5 18.5h135v-298zM268 366q-30 0 -51 7q-44 12 -67.5 45t-23.5 85q0 67 37 103t105 36h224v-276h-224z" />
    <glyph glyph-name="uni0430" unicode="&#x430;" horiz-adv-x="512" 
d="M257 296q-60 0 -101.5 -8.5t-68 -27t-38.5 -48t-12 -71.5q0 -40 10.5 -69.5t35.5 -48.5t66.5 -28t103.5 -9q108 0 166 26l36 15v304q0 45 -10.5 82t-34 62.5t-61.5 39.5t-94 14q-144 0 -201 -105l-10 -18l61 -25l8 15q41 73 140 73q76 0 105.5 -36t29.5 -101v-46
q-45 5 -78 7.5t-53 2.5zM369 58q-44 -16 -121 -16q-42 0 -69 6t-43.5 18.5t-23 31.5t-6.5 44q0 52 32.5 75t111.5 23q48 0 138 -9v-167z" />
    <glyph glyph-name="uni0431" unicode="&#x431;" horiz-adv-x="553" 
d="M296 504q-120 0 -171 -79v21q0 60 9 102.5t32.5 69.5t64 39t103.5 12h36q68 0 99 16l16 9l-21 61l-18 -10q-23 -13 -78 -13h-35q-81 0 -133.5 -18.5t-83 -56.5t-42.5 -94.5t-12 -133.5v-248q0 -93 56.5 -144t164.5 -51q109 0 165.5 51t56.5 144v128q0 91 -54.5 143
t-154.5 52zM437 181q0 -64 -39 -99t-115 -35q-75 0 -114 35t-39 99v163q3 17 14.5 34.5t31 32t46.5 23.5t61 9q76 0 115 -35t39 -99v-128z" />
    <glyph glyph-name="uni0432" unicode="&#x432;" horiz-adv-x="533" 
d="M66 514v-514h277q69 0 108.5 38t39.5 104q0 92 -79 127q61 32 61 111q0 63 -37.5 98.5t-105.5 35.5h-264zM421 148q0 -43 -23.5 -66.5t-66.5 -23.5h-197v179h195q44 0 68 -23.5t24 -65.5zM134 457h185q86 0 86 -82q0 -38 -22.5 -60t-59.5 -22h-189v164z" />
    <glyph glyph-name="uni0433" unicode="&#x433;" horiz-adv-x="425" 
d="M66 0h68v452h276v62h-344v-514z" />
    <glyph glyph-name="uni0434" unicode="&#x434;" horiz-adv-x="594" 
d="M135 514v-173q0 -31 -1 -70t-8 -78.5t-21 -74t-41 -56.5h-48v-201h66v139h428v-139h65v201h-73v452h-367zM200 452h234v-390h-291q57 71 57 275v115z" />
    <glyph glyph-name="uni0435" unicode="&#x435;" horiz-adv-x="530" 
d="M420 126q-45 -82 -156 -82q-74 0 -112 35.5t-38 101.5v58h376v83q0 94 -56.5 150.5t-165.5 56.5t-165 -55.5t-56 -155.5v-130q0 -95 53.5 -148.5t163.5 -53.5q154 0 213 107l11 20l-58 31zM114 291v35q0 68 39.5 106.5t114.5 38.5q76 0 115.5 -38.5t39.5 -106.5v-35h-309
z" />
    <glyph glyph-name="uni0436" unicode="&#x436;" horiz-adv-x="745" 
d="M339 233v-233h67v233h68q37 0 59 -13.5t37 -42.5l4 -8t10 -20.5t13.5 -28t15.5 -32.5q19 -39 43 -88h74l-101 201q-30 59 -72 75l169 238h-80l-152 -220q-4 1 -19 1h-69v219h-67v-219h-69q-15 0 -19 -1l-152 220h-80l169 -238q-42 -16 -72 -75l-100 -201h73l86 177
q15 29 37 42.5t59 13.5h68z" />
    <glyph glyph-name="uni0437" unicode="&#x437;" horiz-adv-x="513" 
d="M173 234h127q101 0 101 -90q0 -47 -33.5 -73t-105.5 -26q-122 0 -164 99l-8 19l-65 -23l8 -17q30 -72 91.5 -104.5t137.5 -32.5q108 0 158 40.5t50 111.5q0 99 -82 126v4q72 26 72 112q0 67 -49.5 108t-152.5 41q-56 0 -95.5 -16t-65 -37.5t-38.5 -43.5t-18 -34l-7 -20
l64 -22l8 21q4 11 10.5 21.5t23.5 28.5q17 19 48 30.5t71 11.5q69 0 100.5 -26t31.5 -69q0 -39 -25 -61t-71 -22h-122v-57z" />
    <glyph glyph-name="uni0438" unicode="&#x438;" horiz-adv-x="562" 
d="M428 399v-399h68v514h-60l-302 -399v399h-68v-514h60z" />
    <glyph glyph-name="uni0439" unicode="&#x439;" horiz-adv-x="562" 
d="M428 0h68v514h-60l-302 -399v399h-68v-514h60l302 399v-399zM440 710l-52 18l-4 -12q-21 -77 -100 -77t-100 78l-4 12l-51 -19l4 -14q30 -107 151 -107q119 0 152 108z" />
    <glyph glyph-name="uni043A" unicode="&#x43a;" horiz-adv-x="517" 
d="M249 233q35 0 57 -13.5t37 -42.5l86 -177h75l-102 203q-31 65 -85 79l185 232h-82l-170 -219h-116v219h-68v-514h68v233h115z" />
    <glyph glyph-name="uni043B" unicode="&#x43b;" horiz-adv-x="537" 
d="M471 514h-359v-182q0 -52 -3 -92t-9 -69t-14.5 -48.5t-19.5 -32.5q-15 -20 -24.5 -26.5t-25.5 -14.5q-1 -1 -3 -2q-4 -2 -7 -3q-4 -2 -9 -4l30 -60q4 2 8 3l8 4q49 23 76 61.5t40 84.5t15.5 96.5t2.5 98.5v123h226v-451h68v514z" />
    <glyph glyph-name="uni043C" unicode="&#x43c;" horiz-adv-x="638" 
d="M511 514l-191 -341l-192 341h-62v-514h63v390l168 -292h46l166 294v-392h63v514h-61z" />
    <glyph glyph-name="uni043D" unicode="&#x43d;" horiz-adv-x="557" 
d="M491 514h-68v-219h-289v219h-68v-514h68v233h289v-233h68v514z" />
    <glyph glyph-name="uni043E" unicode="&#x43e;" horiz-adv-x="539" 
d="M431 35q59 48 59 134v176q0 86 -59 135t-162 49q-102 0 -160.5 -49t-58.5 -135v-176q0 -85 58.5 -134t160.5 -49q103 0 162 49zM422 169q0 -57 -41 -89.5t-112 -32.5q-69 0 -110.5 32.5t-41.5 89.5v176q0 57 41 90t111 33q71 0 112 -33t41 -90v-176z" />
    <glyph glyph-name="uni043F" unicode="&#x43f;" horiz-adv-x="552" 
d="M486 0v514h-420v-514h68v452h285v-452h67z" />
    <glyph glyph-name="uni0440" unicode="&#x440;" horiz-adv-x="537" 
d="M279 529q-102 0 -175 -29l-40 -16v-704h68v240q83 -34 150 -34q205 0 205 199v144q0 200 -208 200zM132 441l19 7q55 19 120 19q149 0 149 -140v-140q0 -140 -143 -140q-36 0 -72.5 8.5t-72.5 26.5v359z" />
    <glyph glyph-name="uni0441" unicode="&#x441;" horiz-adv-x="515" 
d="M414 147q-31 -102 -149 -102q-72 0 -110.5 35.5t-38.5 100.5v153q0 64 38 99.5t111 35.5q63 0 97.5 -23.5t50.5 -74.5l6 -19l63 22l-6 20q-40 135 -209 135q-109 0 -163.5 -51.5t-54.5 -145.5v-149q0 -94 54 -145.5t160 -51.5q169 0 215 139l7 21l-65 20z" />
    <glyph glyph-name="uni0442" unicode="&#x442;" horiz-adv-x="449" 
d="M435 452v62h-421v-62h178v-452h67v452h176z" />
    <glyph glyph-name="uni0443" unicode="&#x443;" horiz-adv-x="551" 
d="M485 514h-68v-427q-84 -27 -148 -27q-140 0 -140 137v317h-67v-320q0 -195 198 -195q35 0 73.5 6t83.5 20v-59q0 -152 -146 -152q-97 0 -140 79l-9 17l-60 -30l11 -21q58 -106 199 -106q213 0 213 216v545z" />
    <glyph glyph-name="uni0444" unicode="&#x444;" horiz-adv-x="739" 
d="M403 -220v211q21 -2 39 -3.5t34 -1.5q215 0 215 207v128q0 56 -15.5 95.5t-44 64.5t-68 36.5t-87.5 11.5q-24 -1 -42 -2t-31 -3v216h-67v-216q-14 2 -32 3t-42 2q-48 0 -87 -12.5t-67.5 -38.5t-44 -66t-15.5 -96v-123q0 -207 214 -207q17 0 35.5 1.5t38.5 3.5v-211h67z
M266 467q11 0 29 -1t41 -3v-411q-16 -2 -33.5 -3t-36.5 -1q-150 0 -150 147v119q0 46 13.5 75.5t35 47t48.5 24t53 6.5zM403 463q23 2 40.5 3t28.5 1q151 0 151 -147v-125q0 -147 -151 -147q-19 0 -36 1t-33 3v411z" />
    <glyph glyph-name="uni0445" unicode="&#x445;" horiz-adv-x="487" 
d="M395 514l-151 -199l-151 199h-79l191 -251l-199 -263h77l160 212l161 -212h79l-200 264l189 250h-77z" />
    <glyph glyph-name="uni0446" unicode="&#x446;" horiz-adv-x="572" 
d="M553 62h-73v452h-67v-452h-279v452h-68v-514h422v-139h65v201z" />
    <glyph glyph-name="uni0447" unicode="&#x447;" horiz-adv-x="509" 
d="M443 514h-67v-245q-84 -21 -132 -21q-75 0 -108.5 30t-33.5 94v142h-68v-144q0 -93 48.5 -138t152.5 -45q66 0 141 19v-206h67v514z" />
    <glyph glyph-name="uni0448" unicode="&#x448;" horiz-adv-x="763" 
d="M629 62h-214v452h-67v-452h-214v452h-68v-514h630v514h-67v-452z" />
    <glyph glyph-name="uni0449" unicode="&#x449;" horiz-adv-x="788" 
d="M415 62v452h-67v-452h-214v452h-68v-514h637v-139h66v201h-73v452h-67v-452h-214z" />
    <glyph glyph-name="uni044A" unicode="&#x44a;" horiz-adv-x="610" 
d="M228 352v162h-214v-62h147v-452h241q85 0 132 46t47 131q0 84 -47 129.5t-132 45.5h-174zM394 291q56 0 86.5 -29.5t30.5 -84.5t-31 -85.5t-86 -30.5h-166v230h166z" />
    <glyph glyph-name="uni044B" unicode="&#x44b;" horiz-adv-x="701" 
d="M307 0q85 0 132.5 46t47.5 131q0 84 -47.5 129.5t-132.5 45.5h-173v162h-68v-514h241zM134 291h165q56 0 87 -30t31 -84q0 -55 -31 -85.5t-87 -30.5h-165v230zM567 0h68v514h-68v-514z" />
    <glyph glyph-name="uni044C" unicode="&#x44c;" horiz-adv-x="516" 
d="M134 352v162h-68v-514h241q85 0 132.5 46t47.5 131q0 84 -47.5 129.5t-132.5 45.5h-173zM134 291h165q56 0 87 -30t31 -84q0 -55 -31 -85.5t-87 -30.5h-165v230z" />
    <glyph glyph-name="uni044D" unicode="&#x44d;" horiz-adv-x="512" 
d="M395 181q0 -65 -37.5 -100t-109.5 -35q-119 0 -149 101l-6 18l-65 -19l7 -20q45 -140 215 -140q106 0 159.5 51.5t53.5 146.5v148q0 94 -54.5 145.5t-163.5 51.5q-167 0 -208 -135l-7 -20l65 -22l6 19q16 51 50 74.5t97 23.5q73 0 110 -35.5t37 -99.5v-42h-221v-60h221
v-51z" />
    <glyph glyph-name="uni044E" unicode="&#x44e;" horiz-adv-x="746" 
d="M695 347q0 85 -56.5 133.5t-159.5 48.5q-101 0 -157.5 -48.5t-56.5 -133.5v-55h-131v222h-68v-514h68v230h131v-63q0 -86 56.5 -133.5t157.5 -47.5q103 0 159.5 47.5t56.5 133.5v180zM479 47q-68 0 -107 31.5t-39 88.5v180q0 57 39 89t107 32q69 0 108.5 -32t39.5 -89
v-180q0 -57 -39.5 -88.5t-108.5 -31.5z" />
    <glyph glyph-name="uni044F" unicode="&#x44f;" horiz-adv-x="526" 
d="M211 514q-78 0 -123 -43.5t-45 -121.5q0 -63 31.5 -103.5t86.5 -51.5l-132 -194h79l122 185h163v-185h67v514h-249zM219 246q-49 0 -77.5 27.5t-28.5 75.5t28.5 76.5t77.5 28.5h174v-208h-174z" />
    <glyph glyph-name="uni0451" unicode="&#x451;" horiz-adv-x="530" 
d="M488 113l-58 31l-10 -18q-45 -82 -156 -82q-74 0 -112 35.5t-38 101.5v58h376v83q0 94 -56.5 150.5t-165.5 56.5t-165 -55.5t-56 -155.5v-130q0 -95 53.5 -148.5t163.5 -53.5q154 0 213 107zM423 291h-309v35q0 68 39.5 106.5t114.5 38.5q76 0 115.5 -38.5t39.5 -106.5
v-35zM136 652q0 -15 10.5 -25.5t25.5 -10.5q14 0 25 10.5t11 25.5q0 14 -11 25t-25 11q-15 0 -25.5 -11t-10.5 -25zM329 652q0 -15 10.5 -25.5t25.5 -10.5q14 0 25 10.5t11 25.5q0 14 -11 25t-25 11q-15 0 -25.5 -11t-10.5 -25z" />
    <glyph glyph-name="Wgrave" unicode="&#x1e80;" horiz-adv-x="881" 
d="M481 699h-75l-161 -570l-147 581h-80l188 -710h73l162 580l159 -580h75l187 710h-74l-148 -586zM327 859l209 -104l27 33l-198 117z" />
    <glyph glyph-name="wgrave" unicode="&#x1e81;" horiz-adv-x="731" 
d="M398 503h-62l-128 -398l-120 409h-70l158 -517h59l130 411l130 -411h60l159 517h-68l-120 -410zM251 687l206 -109l28 34l-195 122z" />
    <glyph glyph-name="Wacute" unicode="&#x1e82;" horiz-adv-x="881" 
d="M481 699h-75l-161 -570l-147 581h-80l188 -710h73l162 580l159 -580h75l187 710h-74l-148 -586zM524 912l-197 -123l30 -32l204 107z" />
    <glyph glyph-name="wacute" unicode="&#x1e83;" horiz-adv-x="731" 
d="M398 503h-62l-128 -398l-120 409h-70l158 -517h59l130 411l130 -411h60l159 517h-68l-120 -410zM448 734l-197 -123l30 -32l204 107z" />
    <glyph glyph-name="Wdieresis" unicode="&#x1e84;" horiz-adv-x="881" 
d="M788 710l-148 -586l-159 575h-75l-161 -570l-147 581h-80l188 -710h73l162 580l159 -580h75l187 710h-74zM311 827q0 -15 10.5 -25.5t25.5 -10.5t25.5 10.5t10.5 25.5t-10.5 26t-25.5 11t-25.5 -11t-10.5 -26zM541 864q-15 0 -25.5 -11t-10.5 -26t10.5 -25.5t25.5 -10.5
t25.5 10.5t10.5 25.5t-10.5 26t-25.5 11z" />
    <glyph glyph-name="wdieresis" unicode="&#x1e85;" horiz-adv-x="731" 
d="M646 514l-120 -410l-128 399h-62l-128 -398l-120 409h-70l158 -517h59l130 411l130 -411h60l159 517h-68zM234 650q0 -15 10.5 -25.5t25.5 -10.5t25.5 10.5t10.5 25.5t-10.5 26t-25.5 11t-25.5 -11t-10.5 -26zM464 687q-15 0 -25.5 -11t-10.5 -26t10.5 -25.5t25.5 -10.5
t25.5 10.5t10.5 25.5t-10.5 26t-25.5 11z" />
    <glyph glyph-name="Ygrave" unicode="&#x1ef2;" horiz-adv-x="627" 
d="M277 0h73v288l273 422h-87l-222 -347l-221 347h-91l275 -421v-289zM407 755l27 33l-198 117l-38 -46z" />
    <glyph glyph-name="ygrave" unicode="&#x1ef3;" horiz-adv-x="551" 
d="M417 87q-84 -27 -148 -27q-140 0 -140 137v317h-67v-320q0 -195 198 -195q35 0 73.5 6t83.5 20v-59q0 -152 -146 -152q-97 0 -140 79l-9 17l-60 -30l11 -21q58 -106 199 -106q213 0 213 216v545h-68v-427zM363 578l28 34l-195 122l-39 -47z" />
    <glyph glyph-name="endash" unicode="&#x2013;" horiz-adv-x="575" 
d="M62 235h452v65h-452v-65z" />
    <glyph glyph-name="emdash" unicode="&#x2014;" horiz-adv-x="774" 
d="M61 234h652v66h-652v-66z" />
    <glyph glyph-name="quoteleft" unicode="&#x2018;" horiz-adv-x="198" 
d="M114 710l-70 -202h73l42 202h-45z" />
    <glyph glyph-name="quoteright" unicode="&#x2019;" horiz-adv-x="193" 
d="M93 710l-42 -202h45l70 202h-73z" />
    <glyph glyph-name="quotesinglbase" unicode="&#x201a;" horiz-adv-x="171" 
d="M54 -126h52l14 236h-66v-236z" />
    <glyph glyph-name="quotedblleft" unicode="&#x201c;" horiz-adv-x="319" 
d="M43 508h74l40 202h-43zM237 508l41 202h-43l-71 -202h73z" />
    <glyph glyph-name="quotedblright" unicode="&#x201d;" horiz-adv-x="314" 
d="M216 508l71 202h-74l-40 -202h43zM93 710l-41 -202h43l71 202h-73z" />
    <glyph glyph-name="quotedblbase" unicode="&#x201e;" horiz-adv-x="302" 
d="M185 -121l71 202h-74l-40 -202h43zM62 81l-41 -202h43l71 202h-73z" />
    <glyph glyph-name="dagger" unicode="&#x2020;" horiz-adv-x="532" 
d="M501 478h-200v232h-68v-232h-201v-68h201v-510h68v510h200v68z" />
    <glyph glyph-name="daggerdbl" unicode="&#x2021;" horiz-adv-x="578" 
d="M323 410h201v68h-201v232h-68v-232h-200v-68h200v-212h-200v-67h200v-231h68v231h201v67h-201v212z" />
    <glyph glyph-name="bullet" unicode="&#x2022;" horiz-adv-x="304" 
d="M203 213q20 20 20 50q0 31 -20 51.5t-51 20.5t-51 -20.5t-20 -51.5q0 -30 20 -50.5t51 -20.5t51 21z" />
    <glyph glyph-name="ellipsis" unicode="&#x2026;" horiz-adv-x="607" 
d="M50 37q0 -18 12.5 -30.5t30.5 -12.5q17 0 29.5 12.5t12.5 30.5q0 17 -12.5 29.5t-29.5 12.5q-18 0 -30.5 -12.5t-12.5 -29.5zM471 37q0 -18 12.5 -30.5t30.5 -12.5q17 0 29.5 12.5t12.5 30.5q0 17 -12.5 29.5t-29.5 12.5q-18 0 -30.5 -12.5t-12.5 -29.5zM346 37
q0 17 -12.5 29.5t-29.5 12.5q-18 0 -30.5 -12.5t-12.5 -29.5q0 -18 12.5 -30.5t30.5 -12.5q17 0 29.5 12.5t12.5 30.5z" />
    <glyph glyph-name="perthousand" unicode="&#x2030;" horiz-adv-x="1181" 
d="M776 130v74q0 69 -41 108t-118 39q-76 0 -117 -39t-41 -108v-74q0 -68 41 -106.5t117 -38.5q77 0 118 39l41 38v68zM872 23.5q41 -38.5 117 -38.5q77 0 118 38.5t41 106.5v74q0 69 -41 108t-118 39q-76 0 -117 -39t-41 -108v-74v-68zM77 397.5q41 -38.5 117 -38.5
q77 0 118 38.5t41 107.5v73q0 69 -41 108t-118 39q-76 0 -117 -39t-41 -108v-73v-69zM107 0h75l522 710h-73zM119.5 645.5q26.5 24.5 74.5 24.5q49 0 75.5 -24.5t26.5 -69.5v-68q0 -45 -26.5 -69.5t-75.5 -24.5q-48 0 -74.5 24.5t-26.5 69.5v68v45zM617 296q49 0 75 -25
t26 -70v-67q0 -45 -26 -70t-75 -25t-75 25t-26 70v67q0 45 26 70l26 25h49zM888 201q0 45 26 70t75 25t75 -25t26 -70v-67q0 -45 -26 -70t-75 -25t-75 25t-26 70v67z" />
    <glyph glyph-name="guilsinglleft" unicode="&#x2039;" horiz-adv-x="336" 
d="M252 487l-224 -224l221 -222l45 45l-179 178l180 180z" />
    <glyph glyph-name="guilsinglright" unicode="&#x203a;" horiz-adv-x="336" 
d="M40 444l180 -180l-179 -178l45 -45l221 222l-224 224z" />
    <glyph glyph-name="fraction" unicode="&#x2044;" horiz-adv-x="159" 
d="M379 710h-75l-523 -710h76z" />
    <glyph glyph-name="uni2070" unicode="&#x2070;" horiz-adv-x="374" 
d="M334 683q0 62 -39 98.5t-107 36.5q-70 0 -108.5 -36.5t-38.5 -98.5v-141q0 -64 38.5 -100t108.5 -36q69 0 107.5 36.5t38.5 99.5v141zM276 542q0 -38 -23 -59.5t-65 -21.5q-43 0 -66.5 21.5t-23.5 59.5v141q0 37 23.5 59t66.5 22q42 0 65 -22t23 -59v-141z" />
    <glyph glyph-name="uni2074" unicode="&#x2074;" horiz-adv-x="362" 
d="M282 810h-59l-203 -249v-45h207v-102h55v102h58v49h-58v245zM85 565l142 174v-174h-142z" />
    <glyph glyph-name="uni2075" unicode="&#x2075;" horiz-adv-x="352" 
d="M178 457q-74 0 -97 74l-5 17l-51 -18l6 -19q32 -105 149 -105q69 0 104.5 37t35.5 94t-35 90t-107 33h-77l11 100h193v50h-241l-20 -199h132q89 0 89 -75q0 -35 -22.5 -57t-64.5 -22z" />
    <glyph glyph-name="uni2076" unicode="&#x2076;" horiz-adv-x="374" 
d="M205 653q-49 0 -108 -22v38q0 97 95 97q59 0 85 -47l6 -11l51 24l-6 13q-34 73 -136 73q-75 0 -113.5 -39.5t-38.5 -112.5v-110q0 -150 148 -150q73 0 112.5 31t39.5 94q0 122 -135 122zM97 577q48 23 100 23q85 0 85 -69q0 -72 -94 -72q-91 0 -91 96v22z" />
    <glyph glyph-name="uni2077" unicode="&#x2077;" horiz-adv-x="315" 
d="M300 771v39h-277v-53h210l-150 -343h61z" />
    <glyph glyph-name="uni2078" unicode="&#x2078;" horiz-adv-x="377" 
d="M189 406q75 0 114.5 30t39.5 88q0 38 -20 60.5t-60 34.5q67 30 67 97q0 47 -37 74.5t-104 27.5t-105 -29t-38 -81q0 -68 68 -95q-79 -30 -79 -101q0 -50 39.5 -78t114.5 -28zM135 578q9 4 14.5 6t13.5 5t9 3q62 -9 86.5 -23.5t24.5 -46.5q0 -69 -93 -69q-95 0 -95 65
q0 11 3 20.5t9.5 16.5t12.5 12.5t15 10.5zM205 637q-56 9 -79 24.5t-23 45.5q0 31 22.5 48t62.5 17q42 0 63.5 -17t21.5 -45q0 -53 -68 -73z" />
    <glyph glyph-name="uni2079" unicode="&#x2079;" horiz-adv-x="374" 
d="M277 556q0 -97 -96 -97q-61 0 -84 47l-6 12l-50 -26l5 -12q35 -74 135 -74q76 0 114.5 39.5t38.5 112.5v110q0 150 -148 150q-73 0 -112.5 -31t-39.5 -94q0 -121 135 -121q54 0 108 22v-38zM277 647q-57 -23 -100 -23q-86 0 -86 70q0 72 95 72q91 0 91 -97v-22z" />
    <glyph glyph-name="uni2080" unicode="&#x2080;" horiz-adv-x="374" 
d="M334 149q0 62 -39 99t-107 37q-70 0 -108.5 -37t-38.5 -99v-140q0 -64 38.5 -100t108.5 -36q69 0 107.5 36.5t38.5 99.5v140zM276 9q0 -38 -23 -60t-65 -22q-43 0 -66.5 21.5t-23.5 60.5v140q0 38 23.5 59.5t66.5 21.5q42 0 65 -21.5t23 -59.5v-140z" />
    <glyph glyph-name="uni2081" unicode="&#x2081;" horiz-adv-x="281" 
d="M224 -119v396h-44l-169 -95l27 -48l128 71v-324h58z" />
    <glyph glyph-name="uni2082" unicode="&#x2082;" horiz-adv-x="355" 
d="M142 20l59 20q30 10 52 21t36.5 25.5t21.5 33t7 44.5q0 54 -35.5 87.5t-100.5 33.5q-59 0 -91 -28.5t-52 -78.5l-7 -18l56 -20l10 30q2 8 7.5 18.5t15 20t24.5 16t36 6.5q38 0 58 -19t20 -50q0 -19 -7 -31.5t-18.5 -21t-26.5 -14t-32 -11.5l-58 -23q-44 -16 -62 -45
t-18 -77v-58h277v53h-222v24q0 46 50 62z" />
    <glyph glyph-name="uni2083" unicode="&#x2083;" horiz-adv-x="363" 
d="M270 -8q0 -31 -21 -49t-62 -18q-45 0 -66.5 16.5t-33.5 54.5l-7 19l-53 -18l7 -20q33 -104 153 -104q69 0 104.5 30t35.5 82q0 74 -59 101q48 26 48 87q0 51 -34 81.5t-94 30.5q-121 0 -152 -106l-6 -19l52 -22l8 24q11 37 33.5 54.5t64.5 17.5q35 0 54.5 -18t19.5 -49
q0 -26 -14.5 -42.5t-41.5 -16.5h-73v-52h77q28 0 44 -18t16 -46z" />
    <glyph glyph-name="uni2084" unicode="&#x2084;" horiz-adv-x="363" 
d="M282 277h-59l-203 -249v-45h207v-102h55v102h58v49h-58v245zM85 32l142 174v-174h-142z" />
    <glyph glyph-name="uni2085" unicode="&#x2085;" horiz-adv-x="352" 
d="M178 -76q-74 0 -97 74l-5 17l-51 -18l6 -19q32 -105 149 -105q69 0 104.5 37t35.5 94t-35 90t-107 33h-77l11 100h193v50h-241l-20 -199h132q89 0 89 -75q0 -35 -22.5 -57t-64.5 -22z" />
    <glyph glyph-name="uni2086" unicode="&#x2086;" horiz-adv-x="374" 
d="M205 119q-49 0 -108 -22v38q0 97 95 97q59 0 85 -47l6 -11l51 24l-6 13q-34 73 -136 73q-75 0 -113.5 -39.5t-38.5 -112.5v-110q0 -150 148 -150q73 0 112.5 31t39.5 94q0 122 -135 122zM97 43q48 23 100 23q85 0 85 -69q0 -72 -94 -72q-91 0 -91 96v22z" />
    <glyph glyph-name="uni2087" unicode="&#x2087;" horiz-adv-x="314" 
d="M300 238v39h-277v-53h210l-150 -343h61z" />
    <glyph glyph-name="uni2088" unicode="&#x2088;" horiz-adv-x="377" 
d="M293 258q-37 27 -104 27t-105 -29t-38 -82q0 -68 68 -94q-79 -30 -79 -102q0 -50 39 -77.5t115 -27.5q154 0 154 118q0 38 -20 60.5t-60 34.5q67 28 67 96q0 48 -37 76zM136 45l13.5 6t13.5 5l9 3q63 -10 87 -24.5t24 -45.5q0 -69 -93 -69q-95 0 -95 65q0 11 3 20.5
t9.5 16.5t12.5 12.5t16 10.5zM205 104q-56 9 -79 24.5t-23 45.5q0 31 22.5 48t62.5 17q42 0 63.5 -17t21.5 -46q0 -52 -68 -72z" />
    <glyph glyph-name="uni2089" unicode="&#x2089;" horiz-adv-x="374" 
d="M277 22q0 -97 -96 -97q-61 0 -84 47l-6 12l-50 -26l5 -12q35 -74 135 -74q76 0 114.5 39.5t38.5 112.5v110q0 150 -148 150q-73 0 -112.5 -31t-39.5 -94q0 -121 135 -121q54 0 108 22v-38zM277 113q-57 -23 -100 -23q-86 0 -86 70q0 72 95 72q91 0 91 -97v-22z" />
    <glyph glyph-name="Euro" unicode="&#x20ac;" horiz-adv-x="727" 
d="M470 248q19 0 24 17l6 20q3 10 0 13.5t-14 3.5h-267v96h295q19 0 24 17l6 20q5 17 -13 17h-310v34q0 81 52.5 126t148.5 45q139 0 180 -86q14 -20 34 -9l23 11q22 12 8 34q-63 118 -245 118q-130 0 -202.5 -64.5t-72.5 -176.5v-32h-47q-19 0 -24 -17l-6 -19
q-4 -18 14 -18h64v-96h-87q-19 0 -24 -17l-6 -19q-4 -18 14 -18h103v-26q3 -114 74 -175.5t200 -61.5q185 0 249 124q13 23 -9 34l-24 12q-12 6 -18.5 4t-13.5 -13q-42 -93 -184 -93q-94 0 -146.5 44t-54.5 125v26h249z" />
    <glyph glyph-name="uni20BD" unicode="&#x20bd;" horiz-adv-x="649" 
d="M102 710v-521h-66v-53h66v-136h73v136h363v53h-363v98h219q103 0 162 55.5t59 155.5t-59 156t-162 56h-292zM387 642q71 0 112 -38.5t41 -105.5t-41 -105.5t-112 -38.5h-212v288h212z" />
    <glyph glyph-name="uni2113" unicode="&#x2113;" horiz-adv-x="424" 
d="M262 732q-61 0 -100 -42t-39 -135v-277l-104 -75l33 -52l71 51v-53q0 -155 147 -155q62 0 114 42l11 9l-37 44l-16 -12q-8 -5 -25.5 -13.5t-42.5 -8.5q-51 0 -71 27.5t-20 85.5v81q210 170 210 332q0 75 -35 113t-96 38zM183 554q0 122 78 122q32 0 51.5 -23t19.5 -71
q0 -119 -149 -250v222z" />
    <glyph glyph-name="uni2116" unicode="&#x2116;" horiz-adv-x="1040" 
d="M532 710v-574l-398 574h-66v-710h70v574l399 -574h66v710h-71zM670 578v-74q0 -68 41 -106.5t117 -38.5t117.5 38.5t41.5 106.5v74q0 69 -41.5 108t-117.5 39t-117 -39t-41 -108zM828 413q-49 0 -75 25t-26 70v67q0 45 26 70t75 25t75 -25t26 -70v-67q0 -45 -26 -70
t-75 -25zM669 299v-61h319v61h-319z" />
    <glyph glyph-name="uni2117" unicode="&#x2117;" horiz-adv-x="808" 
d="M405 710q-76 0 -141.5 -27.5t-114 -76t-76.5 -114t-28 -141.5q0 -75 28 -140.5t77 -114t114.5 -76.5t140.5 -28q76 0 141.5 27.5t113.5 76t75.5 114t27.5 141.5q0 75 -27.5 140.5t-75.5 114t-113.5 76.5t-141.5 28zM405 40q-66 0 -123 24t-98.5 65.5t-65.5 98.5t-24 123
t23.5 123t65.5 99t99 65.5t123 23.5t123 -24t98 -65.5t64.5 -98.5t23.5 -123t-23.5 -122.5t-65 -98.5t-98 -66t-122.5 -24zM433 270q63 0 100.5 36t37.5 99t-37.5 99.5t-100.5 36.5h-152v-387h47v116h105zM430 496q43 0 68.5 -24.5t25.5 -66.5t-25.5 -66.5t-68.5 -24.5h-102
v182h102z" />
    <glyph glyph-name="trademark" unicode="&#x2122;" horiz-adv-x="626" 
d="M413 502h26l76 114v-173h40v252h-32l-97 -147l-96 147h-33v-252h40v171zM43 656h94v-213h42v213h93v39h-229v-39z" />
    <glyph glyph-name="Omega" unicode="&#x2126;" horiz-adv-x="755" 
d="M428 54v-54h280v70h-170q76 51 119 129t43 181q0 72 -22.5 135t-64.5 109.5t-102 73t-135 26.5t-134 -27t-100.5 -74t-63.5 -110t-22 -135q0 -200 160 -308h-170v-70h280v52l-14 7q-5 3 -9.5 5.5t-9.5 5.5q-81 49 -124 125.5t-43 172.5q0 57 16 109.5t47.5 92t78 63
t108.5 23.5q64 0 111.5 -23t79 -62.5t47 -92t15.5 -111.5q0 -100 -50 -181t-139 -126z" />
    <glyph glyph-name="estimated" unicode="&#x212e;" horiz-adv-x="820" 
d="M764 231h-70l-7 -14q-22 -40 -52 -71.5t-65.5 -52.5t-74.5 -32t-80 -11q-106 0 -191 67v203h561v35q0 78 -28.5 145.5t-78.5 117.5t-117.5 78.5t-145.5 28.5q-77 0 -144.5 -29t-117.5 -79t-79 -117.5t-29 -144.5q0 -76 29 -143.5t79.5 -118t118 -79.5t143.5 -29
q57 0 109 16t96.5 46t79.5 72t57 94zM224 384v212q83 67 191 67t191 -68v-211h-382z" />
    <glyph glyph-name="onethird" unicode="&#x2153;" horiz-adv-x="858" 
d="M527 96q33 -104 153 -104q69 0 104.5 30t35.5 82q0 74 -59 101q48 26 48 87q0 51 -34 81.5t-94 30.5q-121 0 -152 -106l-6 -19l52 -22l8 24q11 37 33.5 54.5t64.5 17.5q35 0 54.5 -18t19.5 -49q0 -26 -14.5 -42.5t-41.5 -16.5h-73v-52h77q28 0 44 -18t16 -46
q0 -31 -21 -49t-62 -18q-45 0 -66.5 16.5t-33.5 54.5l-7 19l-53 -18zM704 710h-75l-523 -710h76zM24 620l27 -48l128 71v-324h58v396h-44z" />
    <glyph glyph-name="twothirds" unicode="&#x2154;" horiz-adv-x="880" 
d="M607 281q11 37 33.5 54.5t64.5 17.5q35 0 54.5 -18t19.5 -49q0 -26 -14.5 -42.5t-41.5 -16.5h-73v-52h77q28 0 44 -18t16 -46q0 -31 -21 -49t-62 -18q-45 0 -66.5 16.5t-33.5 54.5l-7 19l-53 -18l7 -20q33 -104 153 -104q69 0 104.5 30t35.5 82q0 74 -59 101q48 26 48 87
q0 51 -34 81.5t-94 30.5q-121 0 -152 -106l-6 -19l52 -22zM48 618l-7 -18l56 -20l10 30q2 8 7.5 18.5t15 20t24.5 16t36 6.5q38 0 58 -19t20 -50q0 -19 -7 -31.5t-18.5 -21t-26.5 -14t-32 -11.5l-58 -23q-44 -16 -62 -45t-18 -77v-58h277v53h-222v24q0 46 50 62l59 20
q30 10 52 21t36.5 25.5t21.5 33t7 44.5q0 54 -35.5 87.5t-100.5 33.5q-59 0 -91 -28t-52 -79zM750 710h-75l-523 -710h76z" />
    <glyph glyph-name="oneeighth" unicode="&#x215b;" horiz-adv-x="857" 
d="M666 -8q154 0 154 118q0 38 -20 60.5t-60 34.5q67 28 67 96q0 48 -37 75.5t-104 27.5t-105 -29t-38 -82q0 -68 68 -94q-80 -31 -80 -102q0 -50 39.5 -77.5t115.5 -27.5zM624 710l-523 -710h76l522 710h-75zM193 715l-169 -95l27 -48l128 71v-324h58v396h-44zM760 108
q0 -69 -93 -69q-95 0 -95 65q0 11 3 20.5t9.5 16.5t12.5 12.5t15.5 10t14 6.5t13.5 5l9 3q63 -10 87 -24.5t24 -45.5zM750 295q0 -52 -68 -72q-56 9 -79 24.5t-23 45.5q0 31 22.5 48t62.5 17q42 0 63.5 -17t21.5 -46z" />
    <glyph glyph-name="threeeighths" unicode="&#x215c;" horiz-adv-x="885" 
d="M696 -8q154 0 154 118q0 38 -20 60.5t-60 34.5q67 28 67 96q0 48 -37 75.5t-104 27.5t-105 -29t-38 -82q0 -68 68 -94q-80 -31 -80 -102q0 -50 39.5 -77.5t115.5 -27.5zM194 726q-121 0 -152 -106l-6 -19l52 -22l8 24q11 37 33.5 54.5t64.5 17.5q35 0 54.5 -18t19.5 -49
q0 -26 -14.5 -42.5t-41.5 -16.5h-73v-52h77q28 0 44 -18t16 -46q0 -31 -21 -49t-62 -18q-45 0 -66.5 16.5t-33.5 54.5l-7 19l-53 -18l7 -20q33 -104 153 -104q69 0 104.5 30t35.5 82q0 74 -59 101q48 26 48 87q0 51 -34 81.5t-94 30.5zM737 710h-75l-523 -710h76zM605 125
q3 9 9.5 16t12.5 12.5t15.5 10t14 6.5t13.5 5l9 3q63 -10 87 -24.5t24 -45.5q0 -69 -93 -69q-95 0 -95 65q0 11 3 21zM610 293q0 31 22.5 48t62.5 17q42 0 63.5 -17t21.5 -46q0 -52 -68 -72q-56 9 -79 24.5t-23 45.5z" />
    <glyph glyph-name="fiveeighths" unicode="&#x215d;" horiz-adv-x="876" 
d="M686 -8q155 0 155 118q0 70 -80 95q67 28 67 96q0 48 -37 75.5t-105 27.5q-66 0 -104 -29t-38 -82q0 -68 67 -94q-79 -30 -79 -102q0 -50 39.5 -77.5t114.5 -27.5zM86 437l-5 17l-51 -18l6 -19q32 -105 149 -105q69 0 104.5 37t35.5 94t-35 90t-107 33h-77l11 100h193v50
h-241l-20 -199h132q89 0 89 -75q0 -35 -22.5 -57t-64.5 -22q-74 0 -97 74zM721 710h-75l-523 -710h76zM625 159q5 3 13.5 7t12 5.5t11.5 4.5l8 2q62 -10 86 -24.5t24 -45.5q0 -69 -93 -69q-95 0 -95 65q0 10 3 18.5t7 14.5t10.5 12t12.5 10zM624 341q22 17 62 17
q41 0 63 -17t22 -46q0 -51 -68 -72q-56 9 -79 24.5t-23 45.5q0 31 23 48z" />
    <glyph glyph-name="seveneighths" unicode="&#x215e;" horiz-adv-x="842" 
d="M652 -8q154 0 154 118q0 38 -20 60.5t-60 34.5q67 27 67 96q0 48 -37 75.5t-104 27.5t-105 -29t-38 -82q0 -68 68 -94q-79 -30 -79 -102q0 -50 39 -77.5t115 -27.5zM66 0h76l522 710h-75zM33 664h210l-150 -343h61l156 357v39h-277v-53zM746 108q0 -69 -93 -69
q-95 0 -95 65q0 11 3 20.5t9.5 16.5t12.5 12.5t15.5 10t14 6.5t13.5 5l9 3q63 -10 87 -24.5t24 -45.5zM736 295q0 -52 -68 -72q-56 9 -79 24.5t-23 45.5q0 31 22.5 48t62.5 17q42 0 63.5 -17t21.5 -46z" />
    <glyph glyph-name="arrowleft" unicode="&#x2190;" horiz-adv-x="745" 
d="M327 559l-39 40l-265 -265l264 -265l39 39l-195 197h570v57h-570z" />
    <glyph glyph-name="arrowup" unicode="&#x2191;" horiz-adv-x="745" 
d="M401 567l198 -196l39 39l-265 265l-265 -264l39 -39l197 195v-570h57v570z" />
    <glyph glyph-name="arrowright" unicode="&#x2192;" horiz-adv-x="745" 
d="M723 334l-265 265l-39 -40l196 -197h-570v-57h570l-195 -197l39 -39z" />
    <glyph glyph-name="arrowdown" unicode="&#x2193;" horiz-adv-x="745" 
d="M598 291l-197 -195v570h-57v-570l-197 196l-39 -39l265 -265l264 264z" />
    <glyph glyph-name="uni2196" unicode="&#x2196;" horiz-adv-x="745" 
d="M550 201h55v375h-374v-57h278l-404 -404l42 -39l403 403v-278z" />
    <glyph glyph-name="uni2197" unicode="&#x2197;" horiz-adv-x="745" 
d="M514 519v57h-374v-375h55v278l403 -403l42 39l-404 404h278z" />
    <glyph glyph-name="uni2198" unicode="&#x2198;" horiz-adv-x="745" 
d="M551 175l-403 403l-42 -39l404 -404h-278v-57h374v375h-55v-278z" />
    <glyph glyph-name="uni2199" unicode="&#x2199;" horiz-adv-x="745" 
d="M235 135l404 404l-42 39l-403 -403v278h-55v-375h374v57h-278z" />
    <glyph glyph-name="partialdiff" unicode="&#x2202;" horiz-adv-x="551" 
d="M146 680q74 0 126.5 -15.5t86 -47t50 -79t17.5 -112.5q-41 79 -169 79q-100 0 -154.5 -52t-54.5 -143v-131q0 -93 56.5 -143.5t165.5 -50.5q108 0 164 50.5t56 143.5v220q0 89 -19 153.5t-60.5 106.5t-107.5 62.5t-159 20.5h-18v-62h20zM270 46q-76 0 -115 34.5t-39 99.5
v130q0 64 39 99t115 35q75 0 114 -34.5t39 -98.5v-131q0 -65 -39 -99.5t-114 -34.5z" />
    <glyph glyph-name="Delta" unicode="&#x2206;" horiz-adv-x="619" 
d="M273 710l-244 -656v-54h563v54l-245 656h-74zM515 61h-409l204 563z" />
    <glyph glyph-name="product" unicode="&#x220f;" horiz-adv-x="669" 
d="M483 -100h72v742h82v68h-606v-68h84v-742h73v742h295v-742z" />
    <glyph glyph-name="summation" unicode="&#x2211;" horiz-adv-x="574" 
d="M530 -32h-406l206 342l-203 332h398v68h-486v-59l210 -342l-214 -353v-56h495v68z" />
    <glyph glyph-name="minus" unicode="&#x2212;" horiz-adv-x="598" 
d="M63 293h472v65h-472v-65z" />
    <glyph glyph-name="uni2215" unicode="&#x2215;" horiz-adv-x="581" 
d="M589 710h-75l-523 -710h76z" />
    <glyph glyph-name="uni2219" unicode="&#x2219;" horiz-adv-x="207" 
d="M146 231q0 17 -13 29.5t-30 12.5t-29.5 -12.5t-12.5 -29.5q0 -18 12.5 -30.5t29.5 -12.5t30 12.5t13 30.5z" />
    <glyph glyph-name="radical" unicode="&#x221a;" horiz-adv-x="686" 
d="M420 -106l264 856h-74l-222 -757l-152 447h-209v-65h157l168 -481h68z" />
    <glyph glyph-name="infinity" unicode="&#x221e;" horiz-adv-x="716" 
d="M512 130q63 0 107.5 44t44.5 110q0 69 -42 113t-109 44q-97 0 -154 -108q-58 108 -153 108q-68 0 -111.5 -44.5t-43.5 -113.5q0 -65 44 -109t107 -44q58 0 96.5 32t59.5 72q22 -42 60.5 -73t93.5 -31zM203 190q-40 0 -66.5 27.5t-26.5 67.5q0 42 26.5 69t69.5 27
q26 0 48.5 -13.5t33 -27.5t23 -34t13.5 -21q-1 -2 -9.5 -16t-17 -25t-22 -25t-32 -21.5t-40.5 -7.5zM472 374q18 7 39 7q43 0 69 -27.5t26 -68.5q0 -40 -26 -67.5t-66 -27.5q-18 0 -34.5 6t-27.5 14t-22 20.5t-16.5 21t-12.5 20t-8 13.5l9 15q8 16 16 26.5t21.5 25
t32.5 22.5z" />
    <glyph glyph-name="integral" unicode="&#x222b;" horiz-adv-x="369" 
d="M218 -32v583q0 66 26 96t97 30h19v63h-19q-103 0 -147 -45.5t-44 -142.5v-583q0 -66 -26 -96t-97 -30h-19v-63h19q103 0 147 45.5t44 142.5z" />
    <glyph glyph-name="approxequal" unicode="&#x2248;" horiz-adv-x="563" 
d="M371 251q-30 0 -87 21q-29 11 -52.5 15.5t-42.5 4.5q-62 0 -117 -49l-15 -15l50 -45l12 12q38 34 80 35q29 0 87 -22q54 -20 91 -20q34 0 65 13.5t55 36.5l14 13l-47 46l-13 -12q-39 -34 -80 -34zM368 434q-30 0 -87 21q-29 11 -52.5 15.5t-42.5 4.5q-62 0 -117 -49
l-15 -15l50 -45l12 12q38 34 80 35q29 0 87 -22q54 -20 91 -20q34 0 65 13.5t55 36.5l14 13l-47 46l-13 -12q-39 -34 -80 -34z" />
    <glyph glyph-name="notequal" unicode="&#x2260;" horiz-adv-x="608" 
d="M357 393h183v65h-149l64 125h-44l-64 -125h-279v-65h246l-67 -132h-179v-66h145l-65 -126h44l64 126h284v66h-250z" />
    <glyph glyph-name="lessequal" unicode="&#x2264;" horiz-adv-x="562" 
d="M480 282l-323 139l323 140v72l-407 -186v-54l407 -187v76zM480 78v64h-407v-64h407z" />
    <glyph glyph-name="greaterequal" unicode="&#x2265;" horiz-adv-x="562" 
d="M82 282v-76l407 187v54l-407 186v-72l322 -140zM82 142v-64h407v64h-407z" />
    <glyph glyph-name="lozenge" unicode="&#x25ca;" horiz-adv-x="527" 
d="M289 710h-51l-211 -355l211 -355h50l211 355zM264 79l-159 276l159 277l160 -277z" />
    <glyph glyph-name="zero.denom" horiz-adv-x="374" 
d="M334 268q0 62 -39 99t-107 37q-70 0 -108.5 -37t-38.5 -99v-140q0 -64 38.5 -100t108.5 -36q69 0 107.5 36.5t38.5 99.5v140zM276 128q0 -38 -23 -60t-65 -22q-43 0 -66.5 21.5t-23.5 60.5v140q0 38 23.5 59.5t66.5 21.5q42 0 65 -21.5t23 -59.5v-140z" />
    <glyph glyph-name="one.denom" horiz-adv-x="281" 
d="M224 0v396h-44l-169 -95l27 -48l128 71v-324h58z" />
    <glyph glyph-name="two.denom" horiz-adv-x="355" 
d="M143 139l59 20q30 10 52 21t36.5 25.5t21.5 33t7 44.5q0 54 -35.5 87.5t-100.5 33.5q-59 0 -91 -28.5t-52 -78.5l-7 -18l56 -20l10 30q2 8 7.5 18.5t15 20t24.5 16t36 6.5q38 0 58 -19t20 -50q0 -19 -7 -31.5t-18.5 -21t-26.5 -14t-32 -11.5l-58 -23q-44 -16 -62 -45
t-18 -77v-58h277v53h-222v24q0 46 50 62z" />
    <glyph glyph-name="three.denom" horiz-adv-x="363" 
d="M270 111q0 -31 -21 -49t-62 -18q-45 0 -66.5 16.5t-33.5 54.5l-7 19l-53 -18l7 -20q33 -104 153 -104q69 0 104.5 30t35.5 82q0 74 -59 101q48 26 48 87q0 51 -34 81.5t-94 30.5q-121 0 -152 -106l-6 -19l52 -22l8 24q11 37 33.5 54.5t64.5 17.5q35 0 54.5 -18t19.5 -49
q0 -26 -14.5 -42.5t-41.5 -16.5h-73v-52h77q28 0 44 -18t16 -46z" />
    <glyph glyph-name="four.denom" horiz-adv-x="363" 
d="M282 396h-59l-203 -249v-45h207v-102h55v102h58v49h-58v245zM85 151l142 174v-174h-142z" />
    <glyph glyph-name="five.denom" horiz-adv-x="352" 
d="M178 43q-74 0 -97 74l-5 17l-51 -18l6 -19q32 -105 149 -105q69 0 104.5 37t35.5 94t-35 90t-107 33h-77l11 100h193v50h-241l-20 -199h132q89 0 89 -75q0 -35 -22.5 -57t-64.5 -22z" />
    <glyph glyph-name="six.denom" horiz-adv-x="373" 
d="M205 239q-49 0 -108 -22v38q0 97 95 97q59 0 85 -47l6 -11l51 24l-6 13q-34 73 -136 73q-75 0 -113.5 -39.5t-38.5 -112.5v-110q0 -150 148 -150q73 0 112.5 31t39.5 94q0 122 -135 122zM97 163q48 23 100 23q85 0 85 -69q0 -72 -94 -72q-91 0 -91 96v22z" />
    <glyph glyph-name="seven.denom" horiz-adv-x="313" 
d="M299 357v39h-277v-53h210l-150 -343h61z" />
    <glyph glyph-name="eight.denom" horiz-adv-x="377" 
d="M293 377q-37 27 -104 27t-105 -29t-38 -82q0 -68 68 -94q-79 -30 -79 -102q0 -50 39 -77.5t115 -27.5q154 0 154 118q0 38 -20 60.5t-60 34.5q67 28 67 96q0 48 -37 76zM136 164l13.5 6t13.5 5l9 3q63 -10 87 -24.5t24 -45.5q0 -69 -93 -69q-95 0 -95 65q0 11 3 20.5
t9.5 16.5t12.5 12.5t16 10.5zM205 223q-56 9 -79 24.5t-23 45.5q0 31 22.5 48t62.5 17q42 0 63.5 -17t21.5 -46q0 -52 -68 -72z" />
    <glyph glyph-name="nine.denom" horiz-adv-x="374" 
d="M277 142q0 -97 -96 -97q-61 0 -84 47l-6 12l-50 -26l5 -12q35 -74 135 -74q76 0 114.5 39.5t38.5 112.5v110q0 150 -148 150q-73 0 -112.5 -31t-39.5 -94q0 -121 135 -121q54 0 108 22v-38zM277 233q-57 -23 -100 -23q-86 0 -86 70q0 72 95 72q91 0 91 -97v-22z" />
    <glyph glyph-name="zero.num" horiz-adv-x="374" 
d="M334 590q0 62 -39 98.5t-107 36.5q-70 0 -108.5 -36.5t-38.5 -98.5v-141q0 -64 38.5 -100t108.5 -36q69 0 107.5 36.5t38.5 99.5v141zM276 449q0 -38 -23 -59.5t-65 -21.5q-43 0 -66.5 21.5t-23.5 59.5v141q0 37 23.5 58.5t66.5 21.5q42 0 65 -21.5t23 -58.5v-141z" />
    <glyph glyph-name="one.num" horiz-adv-x="281" 
d="M224 321v396h-44l-169 -95l27 -48l128 71v-324h58z" />
    <glyph glyph-name="two.num" horiz-adv-x="355" 
d="M142 460l59 20q30 10 52 21t36.5 25.5t21.5 33t7 44.5q0 54 -35.5 87.5t-100.5 33.5q-59 0 -91 -28.5t-52 -78.5l-7 -18l56 -20l10 30q2 8 7.5 18.5t15 20t24.5 16t36 6.5q38 0 58 -19t20 -50q0 -19 -7 -31.5t-18.5 -21t-26.5 -14t-32 -11.5l-58 -23q-44 -16 -62 -45
t-18 -77v-58h277v53h-222v24q0 46 50 62z" />
    <glyph glyph-name="three.num" horiz-adv-x="364" 
d="M271 432q0 -31 -21 -49t-62 -18q-45 0 -66.5 16.5t-33.5 54.5l-7 19l-53 -18l7 -20q33 -104 153 -104q69 0 104.5 30t35.5 82q0 74 -59 101q48 26 48 87q0 51 -34 81.5t-94 30.5q-121 0 -152 -106l-6 -19l52 -22l8 24q11 37 33.5 54.5t64.5 17.5q35 0 54.5 -18t19.5 -49
q0 -26 -14.5 -42.5t-41.5 -16.5h-73v-52h77q28 0 44 -18t16 -46z" />
    <glyph glyph-name="four.num" horiz-adv-x="364" 
d="M282 717h-59l-203 -249v-45h207v-102h55v102h58v49h-58v245zM85 472l142 174v-174h-142z" />
    <glyph glyph-name="five.num" horiz-adv-x="352" 
d="M178 364q-74 0 -97 74l-5 17l-51 -18l6 -19q32 -105 149 -105q69 0 104.5 37t35.5 94t-35 90t-107 33h-77l11 100h193v50h-241l-20 -199h132q89 0 89 -75q0 -35 -22.5 -57t-64.5 -22z" />
    <glyph glyph-name="six.num" horiz-adv-x="374" 
d="M205 560q-49 0 -108 -22v38q0 97 95 97q59 0 85 -47l6 -11l51 24l-6 13q-34 73 -136 73q-75 0 -113.5 -39.5t-38.5 -112.5v-110q0 -150 148 -150q73 0 112.5 31t39.5 94q0 122 -135 122zM97 484q48 23 100 23q85 0 85 -69q0 -72 -94 -72q-91 0 -91 96v22z" />
    <glyph glyph-name="seven.num" horiz-adv-x="313" 
d="M299 678v39h-277v-53h210l-150 -343h61z" />
    <glyph glyph-name="eight.num" horiz-adv-x="377" 
d="M293 698q-37 27 -104 27t-105 -29t-38 -82q0 -67 68 -94q-79 -30 -79 -102q0 -50 39 -77.5t115 -27.5q154 0 154 118q0 38 -20 60.5t-60 34.5q67 28 67 97q0 47 -37 75zM135 485q9 4 14.5 6t13.5 5t9 3q62 -9 86.5 -24t24.5 -46q0 -69 -93 -69q-95 0 -95 65q0 11 3 20.5
t9.5 16.5t12.5 12.5t15 10.5zM205 544q-56 9 -79 24.5t-23 45.5q0 31 22.5 48t62.5 17q42 0 63.5 -17t21.5 -46q0 -52 -68 -72z" />
    <glyph glyph-name="nine.num" horiz-adv-x="374" 
d="M277 463q0 -97 -96 -97q-61 0 -84 47l-6 12l-50 -26l5 -12q35 -74 135 -74q76 0 114.5 39.5t38.5 112.5v110q0 150 -148 150q-73 0 -112.5 -31t-39.5 -94q0 -121 135 -121q54 0 108 22v-38zM277 554q-57 -23 -100 -23q-86 0 -86 70q0 72 95 72q91 0 91 -97v-22z" />
    <glyph glyph-name="CR.1" horiz-adv-x="322" 
 />
    <glyph glyph-name="acute.case" horiz-adv-x="257" 
d="M250 864l-39 47l-195 -122l28 -34z" />
    <glyph glyph-name="breve.case" horiz-adv-x="287" 
d="M242 902l-4 -12q-21 -77 -100 -77t-100 78l-4 12l-51 -19l4 -14q30 -107 151 -107q119 0 152 108l4 13z" />
    <glyph glyph-name="caron.case" horiz-adv-x="332" 
d="M342 900h-70l-107 -92l-109 92h-68l157 -138h40z" />
    <glyph glyph-name="cedilla.case" horiz-adv-x="251" 
d="M111 0l-45 -116l20 6q11 4 33 4q60 0 60 -42q0 -26 -18 -41t-51 -15q-40 0 -74 23l-10 7v-46l12 -7q31 -19 80 -19q51 0 83.5 23.5t35.5 71.5q2 36 -21.5 58t-63.5 22q-16 0 -25 -3l26 74h-42z" />
    <glyph glyph-name="circumflex.case" horiz-adv-x="378" 
d="M294 763h70l-157 138h-40l-157 -138h68l109 92z" />
    <glyph glyph-name="dieresis.case" horiz-adv-x="439" 
d="M120 864q-15 0 -25.5 -11t-10.5 -25q0 -15 10.5 -25.5t25.5 -10.5q14 0 25 10.5t11 25.5q0 14 -11 25t-25 11zM313 792q14 0 25 10.5t11 25.5q0 14 -11 25t-25 11q-15 0 -25.5 -11t-10.5 -25q0 -15 10.5 -25.5t25.5 -10.5z" />
    <glyph glyph-name="dotaccent.case" horiz-adv-x="216" 
d="M144 826q0 14 -11 25t-25 11q-15 0 -25.5 -11t-10.5 -25q0 -15 10.5 -25.5t25.5 -10.5q14 0 25 10.5t11 25.5z" />
    <glyph glyph-name="grave.case" horiz-adv-x="257" 
d="M222 755l27 33l-199 118l-37 -47z" />
    <glyph glyph-name="hungarumlaut.case" horiz-adv-x="395" 
d="M395 891l-61 16l-119 -137l39 -13zM161 908l-116 -138l41 -10l133 131z" />
    <glyph glyph-name="macron.case" horiz-adv-x="352" 
d="M40 800h270v50h-270v-50z" />
    <glyph glyph-name="ogonek.case" horiz-adv-x="252" 
d="M199 -166l-7 -7q-22 -22 -51 -22q-30 0 -39 28q-9 27 14 73t74 94h-48q-59 -48 -85 -101t-14 -94q13 -52 78 -52q50 0 89 36l5 5z" />
    <glyph glyph-name="ring.case" horiz-adv-x="240" 
d="M194 922q-27 27 -72 27q-46 0 -74 -27.5t-28 -71.5t28 -71t74 -27q45 0 72 27t27 71t-27 72zM122 787q-31 0 -48.5 17t-17.5 46t17.5 46t48.5 17q29 0 46 -17t17 -46t-17 -46t-46 -17z" />
    <glyph glyph-name="tilde.case" horiz-adv-x="305" 
d="M150 804q43 -34 79 -34q78 0 78 100v12h-44v-14q0 -53 -39 -53q-16 0 -33 10.5t-35 23t-37.5 23t-42.5 10.5q-78 0 -78 -100v-12h44v12q0 55 40 55q26 0 68 -33z" />
    <glyph glyph-name="uni0326.alt" horiz-adv-x="0" 
d="M169 760h-21q-16 0 -21 -17l-53 -140q-8 -20 17 -20h30q11 0 15.5 4t6.5 15l39 145q3 13 -13 13z" />
    <glyph glyph-name="_375" horiz-adv-x="664" 
d="M291 710l-244 -656v-54h563v54l-245 656h-74zM533 61h-409l204 563z" />
    <glyph glyph-name="_376" horiz-adv-x="744" 
d="M422 0h283v68h-176q76 49 119.5 128t43.5 182q0 71 -23 131.5t-65 105t-101 70t-131 25.5t-131 -25.5t-101 -70t-65 -105t-23 -131.5q0 -100 42.5 -180.5t121.5 -129.5h-177v-68h283v52q-7 4 -12 7t-10 5.5l-7 3.5q-84 48 -127.5 127t-43.5 176q0 57 16.5 107t48.5 87.5
t78.5 59.5t106.5 22t107 -21.5t78.5 -59t48 -88t16.5 -107.5q0 -102 -45 -179.5t-125 -123.5l-7 -3.5t-10 -5.5q-6 -3 -13 -7v-52z" />
    </font>
</defs>
</svg>
