<?xml version="1.0" standalone="no"?>
<!DOCTYPE svg PUBLIC "-//W3C//DTD SVG 1.1//EN" "http://www.w3.org/Graphics/SVG/1.1/DTD/svg11.dtd" >
<svg xmlns="http://www.w3.org/2000/svg" xmlns:xlink="http://www.w3.org/1999/xlink" version="1.1">
<metadata>
Created by FontForge 20170731 at Sat Aug 10 19:25:38 2019
 By Aleksey,,,
Moh'd M. Khatib.2019
</metadata>
<defs>
<font id="Sahar-ExtraBold" horiz-adv-x="555" >
  <font-face 
    font-family="Sahar ExtraBold"
    font-weight="800"
    font-stretch="normal"
    units-per-em="1000"
    panose-1="0 0 0 0 0 0 0 0 0 0"
    ascent="800"
    descent="-200"
    x-height="520"
    cap-height="710"
    bbox="-231 -259 1193 989"
    underline-thickness="50"
    underline-position="-250"
    unicode-range="U+0020-FB02"
  />
<missing-glyph horiz-adv-x="686" 
d="M65 710v-710h561v710h-561zM464 562v-413h-237v413h237z" />
    <glyph glyph-name="fi" unicode="fi" horiz-adv-x="609" 
d="M407 386v-386h151v520h-313v5q0 81 90 81h223v134h-227q-118 0 -178 -55t-60 -161v-4h-80v-134h80v-386h152v386h162z" />
    <glyph glyph-name="fl" unicode="fl" horiz-adv-x="594" 
d="M337 386v134h-92v5q0 81 90 81h55v-606h151v740h-210q-117 0 -177.5 -55t-60.5 -160v-5h-80v-134h80v-386h152v386h92z" />
    <glyph glyph-name=".notdef" horiz-adv-x="686" 
d="M65 710v-710h561v710h-561zM464 562v-413h-237v413h237z" />
    <glyph glyph-name=".null" horiz-adv-x="600" 
 />
    <glyph glyph-name="glyph2" horiz-adv-x="333" 
 />
    <glyph glyph-name="space" unicode=" " horiz-adv-x="202" 
 />
    <glyph glyph-name="exclam" unicode="!" horiz-adv-x="264" 
d="M193 223l19 517h-158l18 -517h121zM132 160q-35 0 -59.5 -24.5t-24.5 -59.5t24.5 -59.5t59.5 -24.5t59.5 24.5t24.5 59.5t-24.5 59.5t-59.5 24.5z" />
    <glyph glyph-name="quotedbl" unicode="&#x22;" horiz-adv-x="382" 
d="M50 446h113l21 264h-134v-264zM323 446l21 264h-134v-264h113z" />
    <glyph glyph-name="numbersign" unicode="#" horiz-adv-x="736" 
d="M460 0l45 151h106l40 134h-106l30 101h106l39 133h-105l45 154h-141l-46 -154h-100l45 154h-141l-46 -154h-104l-39 -133h104l-31 -101h-103l-40 -134h103l-45 -151h142l45 151h100l-45 -151h142zM333 386h101l-31 -101h-100z" />
    <glyph glyph-name="dollar" unicode="$" horiz-adv-x="601" 
d="M291 285q60 -6 89 -18.5t29 -42.5q0 -64 -114 -64q-86 0 -110 61l-12 29l-150 -53l11 -30q47 -124 193 -146v-78h150v80q94 17 144 70t50 134q0 61 -21 99t-55.5 60.5t-80 32.5t-95.5 15q-58 6 -88.5 18.5t-30.5 40.5q0 32 23.5 45t77.5 13q42 0 64 -14.5t37 -43.5
l15 -29l146 66l-10 22q-1 4 -4 8q-51 109 -172 130v77h-150v-77q-94 -15 -142.5 -66.5t-48.5 -130.5q3 -62 24 -100t55 -60t79.5 -32t96.5 -16z" />
    <glyph glyph-name="percent" unicode="%" horiz-adv-x="847" 
d="M81 0h164l521 710h-161zM519 317q-45 -40 -45 -111v-72q0 -71 44.5 -110.5t127.5 -39.5t127.5 39.5t44.5 110.5v72q0 71 -44.5 111t-127.5 40t-127 -40zM73 686q-45 -41 -45 -112v-72q0 -70 44.5 -109.5t127.5 -39.5t127.5 39.5t44.5 109.5v72q0 71 -44.5 111.5
t-127.5 40.5t-127 -40zM200 466q-52 0 -52 45v57q0 43 52 43t52 -43v-57q0 -45 -52 -45zM698 142q0 -44 -52 -44t-52 44v57q0 44 52 44t52 -44v-57z" />
    <glyph glyph-name="ampersand" unicode="&#x26;" horiz-adv-x="688" 
d="M379 366q117 62 117 179q0 41 -15.5 74t-42 56.5t-61.5 36.5t-74 13q-48 0 -85.5 -15t-64 -40.5t-40 -60.5t-13.5 -74q0 -74 54 -137q-122 -68 -122 -192q0 -49 16.5 -90t46 -70t71 -45t92.5 -16q29 0 53.5 4.5t48.5 14t47.5 26t50.5 40.5l66 -70h183l-153 163l83 83
l-98 98l-81 -78l-88 95zM364 173q-22 -23 -42 -35.5t-56 -15.5q-37 0 -60.5 22.5t-23.5 58.5q0 62 65 95zM277 460q-23 25 -30.5 41t-7.5 36q0 26 17 44t47 18q23 0 39.5 -15.5t16.5 -38.5q0 -41 -48 -67z" />
    <glyph glyph-name="quotesingle" unicode="'" horiz-adv-x="223" 
d="M50 710v-264h113l21 264h-134z" />
    <glyph glyph-name="parenleft" unicode="(" horiz-adv-x="305" 
d="M196 612q0 80 60 111l36 19l-67 133l-31 -14q-72 -33 -108.5 -94t-36.5 -161v-501q0 -100 36.5 -161.5t108.5 -94.5l31 -14l67 133l-36 19q-60 32 -60 112v513z" />
    <glyph glyph-name="parenright" unicode=")" horiz-adv-x="305" 
d="M79 -165l31 14q72 33 108.5 94.5t36.5 161.5v501q0 100 -36.5 161t-108.5 94l-31 14l-67 -133l36 -19q60 -31 60 -111v-513q0 -80 -60 -112l-36 -19z" />
    <glyph glyph-name="asterisk" unicode="*" horiz-adv-x="354" 
d="M221 675h-87l16 -100l-89 47l-31 -85l103 -15l-74 -72l73 -52l46 89l45 -89l73 52l-74 72l104 15l-30 85l-91 -47z" />
    <glyph glyph-name="plus" unicode="+" horiz-adv-x="539" 
d="M510 397h-172v170h-138v-170h-171v-139h171v-171h138v171h172v139z" />
    <glyph glyph-name="comma" unicode="," horiz-adv-x="243" 
d="M55 154l-31 -276h97l95 276h-161z" />
    <glyph glyph-name="hyphen" unicode="-" horiz-adv-x="406" 
d="M51 193h304v143h-304v-143z" />
    <glyph glyph-name="period" unicode="." horiz-adv-x="250" 
d="M210 77q0 35 -25 60t-60 25t-60 -25t-25 -60t25 -60t60 -25t60 25t25 60z" />
    <glyph glyph-name="slash" unicode="/" horiz-adv-x="465" 
d="M452 711h-153l-287 -771h153z" />
    <glyph glyph-name="zero" unicode="0" horiz-adv-x="640" 
d="M593 476q0 57 -18.5 103.5t-53.5 78.5t-85.5 49.5t-114.5 17.5t-115 -17.5t-86.5 -49.5t-54 -78.5t-18.5 -103.5v-240q0 -117 72 -184t202 -67t201 66.5t71 184.5v240zM431 233q0 -48 -29 -73.5t-81 -25.5q-54 0 -83 25.5t-29 73.5v245q0 48 29 73t83 25q52 0 81 -25
t29 -73v-245z" />
    <glyph glyph-name="one" unicode="1" horiz-adv-x="442" 
d="M373 0v710h-128l-247 -143l75 -135l137 78v-510h163z" />
    <glyph glyph-name="two" unicode="2" horiz-adv-x="605" 
d="M309 576q42 0 66.5 -25t24.5 -62q-2 -53 -44 -88q-29 -23 -124 -61q-40 -16 -75 -35t-61 -44.5t-41 -60.5t-15 -83v-117h514v147h-345v8q0 11 9 19t23.5 14.5t30.5 11.5t29 10q152 60 210 119q57 59 57 167q0 54 -20.5 97t-55 72t-80.5 44.5t-97 15.5q-201 0 -269 -168
l-15 -37l152 -56l17 39q31 73 109 73z" />
    <glyph glyph-name="three" unicode="3" horiz-adv-x="621" 
d="M397 504q0 -36 -24.5 -54.5t-63.5 -18.5h-100v-143h120q84 0 84 -78t-100 -78q-55 0 -82 17.5t-42 56.5l-11 29l-151 -54l10 -28q62 -168 281 -168q132 0 198.5 58.5t66.5 161.5q0 118 -97 167q75 48 75 148q0 96 -64 150.5t-179 54.5q-112 0 -178.5 -41.5t-97.5 -126.5
l-10 -27l151 -55l11 29q15 40 39 57t76 17q88 0 88 -74z" />
    <glyph glyph-name="four" unicode="4" horiz-adv-x="645" 
d="M623 149v138h-97v423h-150l-357 -438v-123h355v-149h152v149h97zM201 287l173 211v-211h-173z" />
    <glyph glyph-name="five" unicode="5" horiz-adv-x="604" 
d="M308 134q-51 0 -79.5 17.5t-42.5 53.5l-11 29l-154 -55l11 -29q62 -165 280 -165q54 0 101.5 16.5t82.5 47t55 75t20 101.5q0 51 -16 93.5t-47.5 73.5t-78.5 48t-109 17h-92l10 105h304v148h-450l-41 -397h256q42 0 68 -22.5t26 -62.5q0 -46 -25.5 -70t-67.5 -24z" />
    <glyph glyph-name="six" unicode="6" horiz-adv-x="643" 
d="M335 451q-74 0 -127 -12v21q0 116 118 116q89 0 117 -63l13 -32l147 55l-11 29q-60 160 -267 160q-135 0 -207 -69.5t-72 -196.5v-208q0 -127 71.5 -196.5t207.5 -69.5q66 0 117.5 16t87.5 46.5t55 74t19 97.5q0 232 -269 232zM208 288q39 16 117 16q63 0 90 -20.5
t27 -65.5q0 -86 -117 -86t-117 111v45z" />
    <glyph glyph-name="seven" unicode="7" horiz-adv-x="553" 
d="M538 591v119h-517v-148h329l-259 -562h177z" />
    <glyph glyph-name="eight" unicode="8" horiz-adv-x="637" 
d="M510 674q-66 51 -193 51q-120 0 -188.5 -55t-68.5 -153q0 -109 81 -165q-104 -61 -104 -168q0 -199 280 -199q145 0 214 58t69 159q0 118 -105 174q81 57 81 153q0 94 -66 145zM404 143q-26 -20 -86 -20q-117 0 -117 77q0 66 69 97q11 -3 32.5 -8t31 -7t26.5 -7t24.5 -9
t18 -11t15.5 -14.5t8.5 -17.5t3.5 -23q0 -38 -26 -57zM319 587q47 0 73 -18.5t26 -54.5q0 -61 -61 -91l-42 11q-47 13 -69 29.5t-22 50.5q0 73 95 73z" />
    <glyph glyph-name="nine" unicode="9" horiz-adv-x="643" 
d="M597 459q0 127 -71.5 196.5t-207.5 69.5q-66 0 -117.5 -16t-87.5 -46.5t-55 -74t-19 -97.5q0 -232 269 -232q75 0 127 12v-21q0 -116 -118 -116q-88 0 -117 63l-13 32l-147 -55l11 -29q60 -160 267 -160q135 0 207 69.5t72 196.5v208zM435 422q-39 -16 -117 -16
q-63 0 -90 20.5t-27 65.5q0 86 117 86t117 -111v-45z" />
    <glyph glyph-name="colon" unicode=":" horiz-adv-x="271" 
d="M51 77q0 -35 25 -60t60 -25t60 25t25 60t-25 60t-60 25t-60 -25t-25 -60zM136 342q35 0 60 25t25 60t-25 60t-60 25t-60 -25t-25 -60t25 -60t60 -25z" />
    <glyph glyph-name="semicolon" unicode=";" horiz-adv-x="275" 
d="M65 154l-34 -276h100l94 276h-160zM145 342q35 0 60 25t25 60t-25 60t-60 25t-60 -25t-25 -60t25 -60t60 -25z" />
    <glyph glyph-name="less" unicode="&#x3c;" horiz-adv-x="482" 
d="M432 47v170l-226 111l226 111v165l-407 -220v-115z" />
    <glyph glyph-name="equal" unicode="=" horiz-adv-x="588" 
d="M534 501h-481v-144h481v144zM534 152v144h-481v-144h481z" />
    <glyph glyph-name="greater" unicode="&#x3e;" horiz-adv-x="482" 
d="M457 269v115l-407 220v-165l226 -111l-226 -111v-170z" />
    <glyph glyph-name="question" unicode="?" horiz-adv-x="579" 
d="M551 532q0 45 -17.5 83t-50.5 65.5t-80 43t-106 15.5q-202 0 -268 -168l-15 -37l143 -53l17 39q19 43 46 63t75 20t72 -21t24 -56q0 -22 -6.5 -38t-17.5 -28t-25.5 -22t-31.5 -20q-28 -17 -50 -33t-36 -35.5t-21.5 -45.5t-7.5 -62v-39h137v39q0 36 48 64q4 3 13.5 8
t20 11.5t21.5 13t18 10.5q51 31 74.5 77t23.5 106zM181 76q0 -35 24.5 -59.5t59.5 -24.5t59.5 24.5t24.5 59.5t-24.5 59.5t-59.5 24.5t-59.5 -24.5t-24.5 -59.5z" />
    <glyph glyph-name="at" unicode="@" horiz-adv-x="903" 
d="M596 75q11 -9 19 -15.5t17.5 -10.5t22 -6.5t33.5 -3.5q38 0 69.5 15t54.5 42.5t36 67.5t13 90v77q0 91 -27 164t-79.5 124t-129.5 78.5t-176 27.5t-175.5 -27.5t-128.5 -78.5t-79 -124t-27 -164v-77q0 -90 27 -162t79 -121.5t128.5 -76t175.5 -26.5q122 0 218 24l24 6v97
l-28 -5q-69 -11 -122.5 -16.5t-91.5 -5.5q-147 0 -222.5 72.5t-75.5 211.5v81q0 139 76 215.5t222 76.5q148 0 224 -76t76 -216v-81q0 -109 -60 -109q-44 0 -44 38v309l-34 13q-76 30 -190 30q-181 0 -181 -172v-138q0 -172 181 -172q100 0 175 24zM525 414v-245
q-30 -8 -88 -8q-42 0 -59.5 15t-17.5 50v132q0 35 17.5 50.5t59.5 15.5q49 0 81 -8z" />
    <glyph glyph-name="A" unicode="A" horiz-adv-x="672" 
d="M260 710l-267 -710h172l43 131h248l43 -131h179l-266 710h-152zM252 263l81 243l80 -243h-161z" />
    <glyph glyph-name="B" unicode="B" horiz-adv-x="655" 
d="M623 197q0 132 -96 172v4q69 48 69 148q0 91 -56.5 140t-156.5 49h-322v-710h326q53 0 96 13.5t74.5 38.5t48.5 62t17 83zM377 289q75 0 75 -73q0 -72 -75 -72h-153v145h153zM358 566q73 0 73 -68t-73 -68h-134v136h134z" />
    <glyph glyph-name="C" unicode="C" horiz-adv-x="644" 
d="M337 -15q219 0 280 168l14 38l-153 54q-4 -10 -7 -18q-3 -7 -5 -13t-3 -7q-28 -73 -126 -73q-132 0 -132 119v204q0 119 132 119q98 0 126 -73q1 0 3 -6t5 -13q3 -9 7 -19l153 54l-14 38q-61 168 -280 168q-141 0 -218 -71t-77 -198v-202q0 -127 77 -198t218 -71z" />
    <glyph glyph-name="D" unicode="D" horiz-adv-x="673" 
d="M61 710v-710h275q142 0 218.5 71t76.5 198v172q0 127 -76.5 198t-218.5 71h-275zM469 269q0 -120 -134 -120h-111v413h111q134 0 134 -121v-172z" />
    <glyph glyph-name="E" unicode="E" horiz-adv-x="584" 
d="M224 562h321v148h-484v-710h494v149h-331v136h271v148h-271v129z" />
    <glyph glyph-name="F" unicode="F" horiz-adv-x="570" 
d="M495 419h-271v143h321v148h-484v-710h163v271h271v148z" />
    <glyph glyph-name="G" unicode="G" horiz-adv-x="669" 
d="M471 257v-36q0 -38 -35.5 -62.5t-98.5 -24.5q-132 0 -132 119v204q0 119 132 119q98 0 126 -73l15 -38l153 54l-14 38q-61 168 -280 168q-141 0 -218 -71t-77 -198v-202q0 -127 77 -198t218 -71q69 0 124 17.5t93.5 49t58.5 75.5t20 96v178h-324v-144h162z" />
    <glyph glyph-name="H" unicode="H" horiz-adv-x="689" 
d="M627 710h-162v-276h-241v276h-163v-710h163v285h241v-285h162v710z" />
    <glyph glyph-name="I" unicode="I" horiz-adv-x="285" 
d="M61 710v-710h163v710h-163z" />
    <glyph glyph-name="J" unicode="J" horiz-adv-x="582" 
d="M363 710v-470q0 -107 -101 -107q-37 0 -59 16.5t-37 51.5l-16 38l-153 -54l14 -38q60 -162 250 -162q130 0 197.5 67.5t67.5 188.5v469h-163z" />
    <glyph glyph-name="K" unicode="K" horiz-adv-x="641" 
d="M451 710l-202 -277h-25v277h-163v-710h163v287h26q20 0 34 -2.5t24.5 -8.5t18.5 -16.5t16 -25.5l5.5 -10.5t13.5 -27t18.5 -37.5l21.5 -43q26 -51 58 -116h188l-151 287q-41 77 -91 105l237 318h-192z" />
    <glyph glyph-name="L" unicode="L" horiz-adv-x="534" 
d="M61 710v-710h462v149h-299v561h-163z" />
    <glyph glyph-name="M" unicode="M" horiz-adv-x="818" 
d="M608 710l-201 -368l-199 368h-147v-710h152v400l141 -250h105l142 254v-404h156v710h-149z" />
    <glyph glyph-name="N" unicode="N" horiz-adv-x="699" 
d="M482 711v-410l-271 410h-150v-710h156v412l271 -412h149v710h-155z" />
    <glyph glyph-name="O" unicode="O" horiz-adv-x="675" 
d="M633 456q0 127 -77 198t-219 71q-141 0 -218 -71t-77 -198v-202q0 -127 77 -198t218 -71q142 0 219 71t77 198v202zM470 251q0 -117 -133 -117q-64 0 -98 29.5t-34 87.5v208q0 58 34 87.5t98 29.5q133 0 133 -117v-208z" />
    <glyph glyph-name="P" unicode="P" horiz-adv-x="639" 
d="M370 231q57 0 102.5 16.5t77 47t48.5 75t17 100.5t-17 100.5t-49 75.5t-77 47.5t-102 16.5h-309v-710h163v231h146zM446 470q0 -43 -24 -66.5t-69 -23.5h-129v182h129q45 0 69 -24.5t24 -67.5z" />
    <glyph glyph-name="Q" unicode="Q" horiz-adv-x="689" 
d="M337 725q-141 0 -218 -71t-77 -198v-202q0 -127 77 -198t218 -71q76 0 127 19l89 -104l115 93l-82 98q47 65 47 163v202q0 127 -77 198t-219 71zM470 251q0 -117 -133 -117q-64 0 -98 29.5t-34 87.5v208q0 58 34 87.5t98 29.5q133 0 133 -117v-208z" />
    <glyph glyph-name="R" unicode="R" horiz-adv-x="656" 
d="M520 240q-9 16 -14 24.5t-7 10.5q32 14 54 35t36 48t20 58t6 64q0 54 -16.5 96.5t-47 72.5t-74.5 45.5t-98 15.5h-318v-710h163v252h41q21 0 36 -2.5t26 -9.5t19.5 -18t17.5 -29l93 -193h189zM363 562q40 0 61.5 -21.5t21.5 -60.5q0 -40 -21.5 -61t-61.5 -21h-139v164
h139z" />
    <glyph glyph-name="S" unicode="S" horiz-adv-x="639" 
d="M321 577q85 0 118 -66l13 -26l150 65l-13 28q-35 75 -98 111t-170 36q-68 0 -121 -16.5t-89.5 -46t-55.5 -70.5t-19 -91q4 -67 27 -107t60 -62.5t86 -32t104 -16.5q66 -7 100.5 -22.5t34.5 -49.5q0 -79 -133 -79q-97 0 -129 69q0 2 -3 7.5t-6 12.5q-4 7 -8 17l-149 -53
l14 -38q60 -162 281 -162q69 0 124 16t93.5 46t59 72.5t20.5 94.5q0 62 -21 102t-57 64t-83 36t-98 18q-18 2 -32.5 4t-26.5 4t-22.5 5t-22.5 7q-46 16 -46 54q0 36 27.5 52.5t90.5 16.5z" />
    <glyph glyph-name="T" unicode="T" horiz-adv-x="583" 
d="M570 562v148h-557v-148h198v-562h162v562h197z" />
    <glyph glyph-name="U" unicode="U" horiz-adv-x="691" 
d="M472 710v-464q0 -113 -127 -113q-63 0 -95 29t-32 84v464h-162v-460q0 -61 19 -110.5t56 -83.5t91 -52.5t123 -18.5q70 0 124 18.5t91 52.5t56 83.5t19 110.5v460h-163z" />
    <glyph glyph-name="V" unicode="V" horiz-adv-x="657" 
d="M662 710h-175l-155 -504l-158 504h-179l255 -710h158z" />
    <glyph glyph-name="W" unicode="W" horiz-adv-x="919" 
d="M459 437l110 -437h163l178 710h-167l-82 -444l-112 444h-166l-114 -438l-82 438h-178l176 -710h163z" />
    <glyph glyph-name="X" unicode="X" horiz-adv-x="652" 
d="M460 710l-134 -202l-134 202h-193l229 -349l-240 -361h193l143 214l140 -214h200l-242 363l230 347h-192z" />
    <glyph glyph-name="Y" unicode="Y" horiz-adv-x="658" 
d="M410 0v276l260 434h-193l-147 -269l-144 269h-199l260 -432v-278h163z" />
    <glyph glyph-name="Z" unicode="Z" horiz-adv-x="601" 
d="M569 149h-329l324 440v121h-527v-148h319l-324 -440v-122h537v149z" />
    <glyph glyph-name="bracketleft" unicode="[" horiz-adv-x="327" 
d="M305 -146v128h-104v746h104v128h-248v-1002h248z" />
    <glyph glyph-name="backslash" unicode="\" horiz-adv-x="465" 
d="M300 -60h153l-287 771h-153z" />
    <glyph glyph-name="bracketright" unicode="]" horiz-adv-x="327" 
d="M270 -146v1002h-248v-128h104v-746h-104v-128h248z" />
    <glyph glyph-name="asciicircum" unicode="^" horiz-adv-x="601" 
d="M414 520h178l-242 290h-100l-241 -290h172l117 150z" />
    <glyph glyph-name="underscore" unicode="_" horiz-adv-x="496" 
d="M18 0v-143h460v143h-460z" />
    <glyph glyph-name="grave" unicode="`" horiz-adv-x="257" 
d="M227 571l53 63l-205 123l-86 -99z" />
    <glyph glyph-name="a" unicode="a" horiz-adv-x="524" 
d="M260 314q-63 0 -107.5 -8.5t-72 -27.5t-40.5 -50.5t-13 -77.5q0 -42 11.5 -73.5t38 -51.5t70.5 -30t109 -10q129 0 189 27q2 1 7.5 3.5t12.5 5.5q8 4 17 8v295q0 211 -223 211q-158 0 -214 -104l-15 -29l125 -52l16 21q28 37 83 37q77 0 77 -74v-22q-16 1 -33.5 1.5
t-37.5 0.5zM322 106q-13 -2 -32 -3t-45 -1q-39 0 -53 12.5t-14 36.5q0 23 14.5 35.5t54.5 12.5q6 0 18.5 -0.5t26 -0.5t25 -0.5t14.5 -0.5v-90z" />
    <glyph glyph-name="b" unicode="b" horiz-adv-x="545" 
d="M200 740h-151v-705l37 -17q72 -33 189 -33q235 0 235 218v125q0 100 -53.5 153.5t-162.5 53.5q-23 0 -47 -2.5t-47 -7.5v215zM200 389q39 11 74 11q84 0 84 -73v-124q0 -83 -91 -83q-37 0 -64 8l-3 1v260z" />
    <glyph glyph-name="c" unicode="c" horiz-adv-x="519" 
d="M349 166q-21 -51 -82 -51q-81 0 -81 75v140q0 75 81 75q61 0 82 -51q1 -1 3 -7t5 -13t7 -17l142 46l-14 39q-21 60 -76.5 96.5t-142.5 36.5q-121 0 -179.5 -55t-58.5 -157v-126q0 -212 228 -212q175 0 230 132l17 40l-146 45q-4 -10 -7 -17t-5 -12.5t-3 -6.5z" />
    <glyph glyph-name="d" unicode="d" horiz-adv-x="545" 
d="M496 36v704h-151v-211q-52 6 -92 6q-108 0 -162.5 -55.5t-54.5 -161.5v-126q0 -207 223 -207q116 0 197 34zM271 120q-40 0 -62 19t-22 54v125q0 82 91 82q30 0 67 -6v-266l-3 -1q-27 -7 -71 -7z" />
    <glyph glyph-name="e" unicode="e" horiz-adv-x="543" 
d="M370 149q-30 -40 -95 -40q-90 0 -90 79v25h330v111q0 46 -15.5 85t-45.5 67t-75 43.5t-105 15.5q-117 0 -178.5 -56.5t-61.5 -165.5v-106q0 -51 14.5 -92t43.5 -70t74.5 -44.5t106.5 -15.5q162 0 220 93l16 26l-125 64zM185 338q0 77 89 77t89 -77v-16h-178v16z" />
    <glyph glyph-name="f" unicode="f" horiz-adv-x="380" 
d="M245 386h129v134h-129v3q0 45 21 64t70 19h38v134h-51q-229 -3 -229 -217v-3h-80v-134h80v-386h151v386z" />
    <glyph glyph-name="g" unicode="g" horiz-adv-x="544" 
d="M269 535q-234 0 -234 -217v-97q0 -207 216 -207q49 0 93 10v-43q0 -81 -80 -81q-55 0 -82 38l-14 20l-133 -69l17 -26q60 -93 215 -93q117 0 172.5 59t55.5 163v492l-37 18q-67 33 -189 33zM270 149q-40 0 -62 19t-22 54v96q0 82 91 82q34 0 63 -7l4 -1v-236
q-35 -7 -74 -7z" />
    <glyph glyph-name="h" unicode="h" horiz-adv-x="557" 
d="M206 391q8 2 27.5 4.5t41.5 2.5q85 0 85 -75v-323h151v328q0 207 -216 207q-21 0 -43 -1.5t-36 -3.5l-14 -2v212h-151v-740h151v390z" />
    <glyph glyph-name="i" unicode="i" horiz-adv-x="252" 
d="M201 0v520h-151v-520h151zM125 719q-32 0 -54 -22t-22 -54t22 -54t54 -22t54 22t22 54t-22 54t-54 22z" />
    <glyph glyph-name="j" unicode="j" horiz-adv-x="253" 
d="M51 520v-521q0 -92 -91 -92h-38v-137h38q242 0 242 222v528h-151zM127 567q32 0 54 22t22 54t-22 54t-54 22t-54 -22t-22 -54t22 -54t54 -22z" />
    <glyph glyph-name="k" unicode="k" horiz-adv-x="536" 
d="M363 520l-134 -189h-27v409h-151v-740h151v197h35q48 0 64 -40l68 -157h167l-109 221q-25 50 -56 72l166 227h-174z" />
    <glyph glyph-name="l" unicode="l" horiz-adv-x="256" 
d="M53 740v-740h151v740h-151z" />
    <glyph glyph-name="m" unicode="m" horiz-adv-x="826" 
d="M490 0v327q0 34 -6 61q33 10 69 10q76 0 76 -74v-324h151v328q0 207 -206 207q-96 0 -168 -28q-47 28 -122 28q-108 0 -195 -36l-40 -16v-483h151v389l4 1q17 4 31 6t28 2q76 0 76 -74v-324h151z" />
    <glyph glyph-name="n" unicode="n" 
d="M273 398q85 0 85 -75v-323h151v328q0 207 -216 207q-117 0 -204 -36l-40 -16v-483h151v388l3 1q32 9 70 9z" />
    <glyph glyph-name="o" unicode="o" horiz-adv-x="547" 
d="M512 324q0 100 -60.5 155.5t-178.5 55.5q-117 0 -177.5 -55.5t-60.5 -155.5v-129q0 -100 60.5 -155t177.5 -55q118 0 178.5 55t60.5 155v129zM361 194q0 -75 -88 -75q-87 0 -87 75v132q0 75 87 75q88 0 88 -75v-132z" />
    <glyph glyph-name="p" unicode="p" horiz-adv-x="545" 
d="M200 -6q45 -9 79 -9q115 0 173 55.5t58 161.5v126q0 100 -53.5 153.5t-164.5 53.5q-122 0 -202 -31l-41 -15v-709h151v214zM206 393q17 4 34 5.5t34 1.5q84 0 84 -73v-125q0 -82 -91 -82q-29 0 -67 6v266z" />
    <glyph glyph-name="q" unicode="q" horiz-adv-x="545" 
d="M345 -220h151v709l-41 15q-80 31 -202 31q-111 0 -164.5 -53.5t-53.5 -153.5v-126q0 -106 58 -161.5t173 -55.5q34 0 79 9v-214zM345 392v-266q-37 -6 -67 -6q-91 0 -91 82v125q0 73 84 73q35 0 69 -7z" />
    <glyph glyph-name="r" unicode="r" horiz-adv-x="358" 
d="M277 400h74v135h-70q-126 -5 -192 -31q-24 -10 -32 -21.5t-8 -36.5v-446h151v386q0 6 6 7q29 7 71 7z" />
    <glyph glyph-name="s" unicode="s" horiz-adv-x="510" 
d="M261 -15q108 0 166.5 47.5t58.5 126.5q0 42 -12.5 71t-39 48t-66.5 29.5t-94 15.5q-55 5 -76 14t-21 31q0 36 74 36q60 0 87 -38l14 -20l131 55l-15 27q-57 107 -222 107q-105 0 -160 -45.5t-55 -121.5q0 -47 17 -77t45.5 -48t65.5 -26.5t77 -12.5q31 -3 51.5 -6.5
t32.5 -8.5t17 -13t5 -20q0 -41 -86 -41q-73 0 -91 38l-11 24l-135 -44l12 -29q48 -119 230 -119z" />
    <glyph glyph-name="t" unicode="t" horiz-adv-x="401" 
d="M379 520h-129v120h-151v-120h-90v-134h90v-174q0 -68 14 -111.5t43 -69t75.5 -35.5t110.5 -10h37v139h-37q-26 0 -43.5 4t-28.5 14.5t-15.5 28.5t-4.5 46v168h129v134z" />
    <glyph glyph-name="u" unicode="u" 
d="M355 131l-7 -2q-29 -7 -66 -7q-85 0 -85 75v323h-151v-328q0 -207 216 -207q117 0 205 36l39 16v483h-151v-389z" />
    <glyph glyph-name="v" unicode="v" horiz-adv-x="528" 
d="M534 520h-161l-108 -313l-109 313h-159l200 -520h134z" />
    <glyph glyph-name="w" unicode="w" horiz-adv-x="748" 
d="M372 311l83 -311h140l146 520h-154l-60 -292l-81 292h-139l-79 -289l-62 289h-159l146 -520h136z" />
    <glyph glyph-name="x" unicode="x" horiz-adv-x="527" 
d="M359 520l-95 -135l-97 135h-171l182 -255l-188 -265h171l102 145l103 -145h172l-189 266l179 254h-169z" />
    <glyph glyph-name="y" unicode="y" horiz-adv-x="557" 
d="M506 520h-151v-361q-20 -4 -38 -5.5t-35 -1.5q-85 0 -85 75v293h-151v-298q0 -207 216 -207q59 0 93 7v-41q0 -81 -80 -81q-54 0 -81 38l-22 31l-132 -67l24 -39q59 -93 214 -93q117 0 172.5 59t55.5 163v528z" />
    <glyph glyph-name="z" unicode="z" horiz-adv-x="483" 
d="M454 134h-236l231 267v119h-415v-134h220l-225 -267v-119h425v134z" />
    <glyph glyph-name="braceleft" unicode="{" horiz-adv-x="375" 
d="M249 701q0 8 6 14.5t15 6.5h84v134h-103q-79 0 -112 -32.5t-33 -105.5v-211q0 -80 -60 -80h-37v-151h37q60 0 60 -80v-206q0 -73 32.5 -105t114.5 -32h101v134h-85q-8 0 -14 6.5t-6 14.5v213q0 99 -74 131q74 45 74 130v219z" />
    <glyph glyph-name="bar" unicode="|" horiz-adv-x="259" 
d="M57 856v-1003h145v1003h-145z" />
    <glyph glyph-name="braceright" unicode="}" horiz-adv-x="375" 
d="M269 -10v206q0 80 60 80h37v151h-37q-60 0 -60 80v211q0 73 -33 105.5t-112 32.5h-103v-134h84q9 0 15 -6.5t6 -14.5v-219q0 -85 74 -130q-74 -32 -74 -131v-213q0 -8 -6 -14.5t-14 -6.5h-85v-134h101q82 0 114.5 32t32.5 105z" />
    <glyph glyph-name="asciitilde" unicode="~" horiz-adv-x="559" 
d="M346 376q-20 0 -68 17q-45 16 -90 16q-74 0 -127 -49l-31 -28l102 -95q7 6 13 10q5 5 9 8t5 4q23 19 54 19q24 0 69 -16q48 -17 89 -17q70 0 125 48l33 28l-102 98l-27 -23q-23 -20 -54 -20z" />
    <glyph glyph-name="exclamdown" unicode="&#xa1;" horiz-adv-x="256" 
d="M208 -220l-18 517h-121l-19 -517h158zM130 528q-18 0 -33 -6.5t-26.5 -18t-18 -27t-6.5 -32.5t6.5 -32.5t18 -27t26.5 -18t33 -6.5q35 0 59.5 24.5t24.5 59.5t-24.5 59.5t-59.5 24.5z" />
    <glyph glyph-name="cent" unicode="&#xa2;" horiz-adv-x="539" 
d="M351 -7q109 25 150 124l17 40l-146 45l-15 -36q-21 -51 -82 -51q-81 0 -81 75v140q0 75 81 75q61 0 82 -51q1 -3 3 -6l2 -6t3 -7q3 -8 7 -18l142 46l-14 39q-16 46 -54 79.5t-95 46.5v82h-145v-82q-163 -31 -163 -205v-126q0 -179 163 -206v-75h145v77z" />
    <glyph glyph-name="sterling" unicode="&#xa3;" horiz-adv-x="657" 
d="M281 233v35h234v132h-233v97q0 34 22.5 56.5t60.5 22.5q37 0 60 -14.5t41 -47.5l20 -37l149 55l-15 37q-64 156 -261 156q-49 0 -93.5 -14.5t-78.5 -43t-53.5 -69t-19.5 -93.5v-105h-74v-132h73v-38q-1 -37 -11.5 -58.5t-36.5 -30.5h-26v-141h574v147h-218
q-82 0 -162 -17v6q47 33 48 97z" />
    <glyph glyph-name="currency" unicode="&#xa4;" horiz-adv-x="626" 
d="M415 544q-45 24 -101 24t-103 -24l-75 75l-105 -105l76 -76q-24 -45 -24 -101t24 -101l-76 -76l105 -105l75 75q47 -24 103 -24t101 24l75 -75l105 105l-74 74q24 46 24 103t-24 103l74 74l-105 105zM384 407q23 -21 27 -49.5t-6 -55t-32.5 -45t-52.5 -18.5
q-44 0 -74 26.5t-31 71.5q-1 22 7.5 40t23.5 31t34 20t38 7q18 0 35 -7t31 -21z" />
    <glyph glyph-name="yen" unicode="&#xa5;" horiz-adv-x="675" 
d="M419 274h144v110h-93l201 326h-184l-146 -269l-145 269h-191l201 -326h-94v-110h145v-43h-145v-110h145v-121h162v121h144v110h-144v43z" />
    <glyph glyph-name="brokenbar" unicode="&#xa6;" horiz-adv-x="266" 
d="M61 -146h145v430h-145v-430zM206 426v430h-145v-430h145z" />
    <glyph glyph-name="section" unicode="&#xa7;" horiz-adv-x="615" 
d="M313 579q72 0 100 -58l14 -27l144 63l-14 29q-33 70 -91.5 104.5t-152.5 34.5q-127 0 -192.5 -56t-65.5 -152q0 -98 63 -146q-77 -50 -77 -137q0 -57 21.5 -91.5t56 -54t78 -28t88.5 -13.5q17 -1 24 -3q51 -6 76 -17.5t25 -36.5q0 -65 -106 -65q-91 0 -113 61l-12 31
l-147 -54l11 -30q27 -73 94.5 -112t167.5 -39q64 0 114 15t84 42t52 65t18 85q0 102 -63 148q58 46 58 126q0 57 -21.5 92t-56.5 55t-78.5 30t-88.5 17q-54 9 -79 21t-25 38q0 63 94 63zM291 314q58 -9 86 -22t29 -43q0 -44 -35 -68q-15 1 -26 2t-18 2q-60 6 -90 18.5
t-30 49.5q-1 40 40 69q7 -1 22 -3.5t22 -4.5z" />
    <glyph glyph-name="dieresis" unicode="&#xa8;" horiz-adv-x="439" 
d="M320 585q29 0 49 20t20 49t-20 49t-49 20t-49 -20t-20 -49t20 -49t49 -20zM114 723q-29 0 -49 -20t-20 -49t20 -49t49 -20t49 20t20 49t-20 49t-49 20z" />
    <glyph glyph-name="copyright" unicode="&#xa9;" horiz-adv-x="790" 
d="M396 -8q150 0 254 104t104 255q0 150 -104 254.5t-254 104.5q-151 0 -255.5 -104.5t-104.5 -254.5q0 -149 105 -254t255 -105zM396 611q110 0 184.5 -74.5t74.5 -185.5q0 -110 -75 -185.5t-184 -75.5q-111 0 -186 75.5t-75 185.5q0 111 75 185.5t186 74.5zM448 281
q-13 -30 -53 -30q-55 0 -55 47v103q0 46 55 46q42 0 54 -29l12 -29l90 32l-11 30q-31 90 -145 90q-72 0 -112 -37.5t-40 -103.5v-102q0 -64 40 -101.5t112 -37.5q110 0 145 89l11 28l-90 35z" />
    <glyph glyph-name="ordfeminine" unicode="&#xaa;" horiz-adv-x="355" 
d="M200 544q-4 1 -9.5 1h-12.5q-76 0 -107 -24t-31 -72t30 -71.5t106 -23.5q68 0 102 15l32 14v163q0 125 -132 125q-85 0 -126 -53l-14 -19l90 -43l5 4q2 1 4 3l2 2q22 18 38 18q12 0 17.5 -8t5.5 -18v-13zM172 434q-14 0 -19 4t-5 15q0 18 24 18h16t12 -1v-34z" />
    <glyph glyph-name="guillemotleft" unicode="&#xab;" horiz-adv-x="612" 
d="M13 262l230 -230l92 94l-140 139l141 143l-88 92zM494 500l-235 -238l230 -230l92 94l-140 139l141 143z" />
    <glyph glyph-name="logicalnot" unicode="&#xac;" horiz-adv-x="593" 
d="M44 283h343v-148h150v286h-493v-138z" />
    <glyph glyph-name="registered" unicode="&#xae;" horiz-adv-x="460" 
d="M231 320q80 0 137.5 57.5t57.5 138.5q0 80 -57.5 138t-137.5 58q-81 0 -139 -58t-58 -138q0 -81 58 -138.5t139 -57.5zM328 419q-40 -41 -96 -41q-58 0 -98 40.5t-40 97.5t40 97t98 40q56 0 96 -40t40 -97t-40 -97zM258 419h68l-43 67q36 14 36 59q0 31 -19 49.5
t-51 18.5h-95v-194h54v60h14zM208 561h37q17 0 17 -16q0 -17 -17 -17h-37v33z" />
    <glyph glyph-name="macron" unicode="&#xaf;" horiz-adv-x="352" 
d="M26 706v-102h304v102h-304z" />
    <glyph glyph-name="degree" unicode="&#xb0;" horiz-adv-x="407" 
d="M204 380q72 0 123 51.5t51 123.5q0 74 -50.5 124t-123.5 50q-74 0 -125 -50t-51 -124q0 -73 51 -124t125 -51zM162 597q18 19 42 19t42 -19t18 -43t-17.5 -42t-42.5 -18t-43 18t-18 42t19 43z" />
    <glyph glyph-name="plusminus" unicode="&#xb1;" horiz-adv-x="581" 
d="M222 574v-106h-172v-129h172v-102h135v102h174v129h-174v106h-135zM531 82v131h-481v-131h481z" />
    <glyph glyph-name="twosuperior" unicode="&#xb2;" horiz-adv-x="370" 
d="M187 704q13 0 20.5 -7.5t7.5 -19.5q0 -19 -8.5 -27.5t-33.5 -18.5l-53 -20q-25 -9 -42 -21t-27.5 -28t-14.5 -37t-4 -49v-63h300v108h-174v2q0 5 27 12l50 13q59 18 81.5 49.5t22.5 87.5q0 58 -39.5 94.5t-108.5 36.5q-119 0 -155 -94l-11 -29l109 -41l14 29q12 23 39 23
z" />
    <glyph glyph-name="threesuperior" unicode="&#xb3;" horiz-adv-x="373" 
d="M188 715q31 0 31 -25q0 -24 -31 -24h-51v-105h58q30 0 30 -26q0 -24 -38 -24q-40 0 -54 27l-13 28l-103 -35l11 -31q32 -93 161 -93q78 0 117 30t39 85q0 72 -52 100q23 15 31.5 32.5t8.5 48.5q0 54 -37.5 84.5t-106.5 30.5q-124 0 -159 -96l-9 -25l101 -39l14 29
q13 28 52 28z" />
    <glyph glyph-name="acute" unicode="&#xb4;" horiz-adv-x="257" 
d="M284 659l-86 99l-205 -123l53 -63z" />
    <glyph glyph-name="mu" unicode="&#xb5;" horiz-adv-x="566" 
d="M290 122q-85 0 -85 75v323h-151v-740h151v227q40 -22 106 -22q86 0 166 37q22 10 29.5 22t7.5 35v441h-151v-381q0 -6 -9.5 -9.5t-22.5 -5t-24.5 -2t-16.5 -0.5z" />
    <glyph glyph-name="paragraph" unicode="&#xb6;" horiz-adv-x="652" 
d="M453 562v-651h137v799h-324q-53 0 -97.5 -17.5t-76 -49.5t-49 -76t-17.5 -98q0 -53 17 -96.5t47.5 -75t73.5 -49.5t95 -20v-317h137v651h57z" />
    <glyph glyph-name="periodcentered" unicode="&#xb7;" horiz-adv-x="272" 
d="M221 295q0 35 -25 60t-60 25t-60 -25t-25 -60t25 -60t60 -25t60 25t25 60z" />
    <glyph glyph-name="cedilla" unicode="&#xb8;" horiz-adv-x="251" 
d="M33 -234q25 -11 71 -11q131 0 143 99q5 42 -18.5 69t-63.5 27h-9l20 50h-84l-51 -116h47q38 -2 38 -22q0 -27 -39 -27q-28 0 -54 14l-21 11v-84z" />
    <glyph glyph-name="onesuperior" unicode="&#xb9;" horiz-adv-x="289" 
d="M245 415v395h-93l-156 -89l59 -98l68 37v-245h122z" />
    <glyph glyph-name="ordmasculine" unicode="&#xba;" horiz-adv-x="358" 
d="M319 546q0 60 -35.5 92.5t-104.5 32.5q-67 0 -103.5 -32.5t-36.5 -92.5v-67q0 -58 35.5 -91t104.5 -33t104.5 32t35.5 92v67zM207 476q0 -22 -28 -22q-27 0 -27 22v74q0 22 27 22q28 0 28 -22v-74z" />
    <glyph glyph-name="guillemotright" unicode="&#xbb;" horiz-adv-x="612" 
d="M276 408l141 -143l-140 -139l92 -94l230 230l-235 238zM30 408l141 -143l-140 -139l92 -94l230 230l-235 238z" />
    <glyph glyph-name="onequarter" unicode="&#xbc;" horiz-adv-x="825" 
d="M752 710h-155l-523 -710h156zM441 160v-87h195v-73h113v73h44v99h-44v223h-118zM12 619l59 -98l68 37v-245h122v395h-93zM636 250v-78h-64z" />
    <glyph glyph-name="onehalf" unicode="&#xbd;" horiz-adv-x="845" 
d="M741 710h-155l-523 -710h156zM590 198q-25 -9 -42 -21t-27.5 -28t-14.5 -37t-4 -49v-63h300v108h-174v2q0 5 27 12l50 13q59 18 81.5 49.5t22.5 87.5q0 58 -39.5 94.5t-108.5 36.5q-119 0 -155 -94l-11 -29l109 -41l14 29q12 23 39 23q13 0 20.5 -7.5t7.5 -19.5
q0 -19 -8.5 -27.5t-33.5 -18.5zM12 625l59 -98l68 37v-245h122v395h-93z" />
    <glyph glyph-name="threequarters" unicode="&#xbe;" horiz-adv-x="851" 
d="M626 710l-523 -710h156l522 710h-155zM194 724q-124 0 -159 -96l-9 -25l101 -39l14 29q13 28 52 28q31 0 31 -25q0 -24 -31 -24h-51v-105h58q30 0 30 -26q0 -24 -38 -24q-40 0 -54 27l-13 28l-103 -35l11 -31q32 -93 161 -93q78 0 117 30t39 85q0 72 -52 100
q23 15 31.5 32.5t8.5 48.5q0 54 -37.5 84.5t-106.5 30.5zM822 73v99h-44v223h-118l-190 -235v-87h195v-73h113v73h44zM665 250v-78h-64z" />
    <glyph glyph-name="questiondown" unicode="&#xbf;" horiz-adv-x="574" 
d="M403 -1q-19 -43 -46 -63t-75 -20t-72 21t-24 56q0 22 6.5 38t17.5 28t26 22t32 20q28 17 49.5 33t35.5 35.5t21.5 45.5t7.5 62v39h-137v-39q0 -34 -48 -64q-37 -20 -68.5 -39.5t-54.5 -44.5t-35.5 -59t-12.5 -83q0 -45 17.5 -83t50.5 -65.5t80 -43t106 -15.5
q202 0 268 168l15 37l-143 53zM396 443q0 35 -24.5 59.5t-59.5 24.5t-59.5 -24.5t-24.5 -59.5t24.5 -59.5t59.5 -24.5t59.5 24.5t24.5 59.5z" />
    <glyph glyph-name="Agrave" unicode="&#xc0;" horiz-adv-x="672" 
d="M260 710l-267 -710h172l43 131h248l43 -131h179l-266 710h-152zM431 749l53 63l-205 123l-86 -99zM413 263h-161l81 243z" />
    <glyph glyph-name="Aacute" unicode="&#xc1;" horiz-adv-x="672" 
d="M260 710l-267 -710h172l43 131h248l43 -131h179l-266 710h-152zM481 836l-86 99l-205 -123l53 -63zM413 263h-161l81 243z" />
    <glyph glyph-name="Acircumflex" unicode="&#xc2;" horiz-adv-x="672" 
d="M260 710l-267 -710h172l43 131h248l43 -131h179l-266 710h-152zM391 757h151l-156 157h-97l-156 -157h143l60 64zM413 263h-161l81 243z" />
    <glyph glyph-name="Atilde" unicode="&#xc3;" horiz-adv-x="672" 
d="M260 710l-267 -710h172l43 131h248l43 -131h179l-266 710h-152zM326 788q37 -25 74 -25q48 0 69 26t21 92v23h-87v-22q0 -28 -16 -28q-14 0 -51 25t-77 25q-45 0 -67 -26.5t-22 -92.5v-22h88v21q0 29 17 29q14 0 51 -25zM252 263l81 243l80 -243h-161z" />
    <glyph glyph-name="Adieresis" unicode="&#xc4;" horiz-adv-x="672" 
d="M260 710l-267 -710h172l43 131h248l43 -131h179l-266 710h-152zM333 506l80 -243h-161zM438 902q-29 0 -49 -20t-20 -49t20 -49t49 -20t49 20t20 49t-20 49t-49 20zM233 764q29 0 49 20t20 49t-20 49t-49 20t-49 -20t-20 -49t20 -49t49 -20z" />
    <glyph glyph-name="Aring" unicode="&#xc5;" horiz-adv-x="672" 
d="M470 760q0 29 -10 52.5t-27.5 40.5t-41.5 26.5t-53 9.5q-60 0 -97.5 -36t-37.5 -93q0 -58 41 -93l-251 -667h172l44 131h247l43 -131h179l-250 665q42 35 42 95zM413 263h-161l81 243zM338 806q20 0 32.5 -13t12.5 -34q0 -19 -12.5 -32t-32.5 -13q-22 0 -35.5 12.5
t-13.5 32.5q0 21 13.5 34t35.5 13z" />
    <glyph glyph-name="AE" unicode="&#xc6;" horiz-adv-x="880" 
d="M792 285v148h-209v129h259v148h-413l-455 -710h180l78 129h196v-129h423v149h-268v136h209zM428 258h-116l116 191v-191z" />
    <glyph glyph-name="Ccedilla" unicode="&#xc7;" horiz-adv-x="644" 
d="M247 -116h47q38 -2 38 -22q0 -27 -39 -27q-28 0 -54 14l-21 11v-84l21 -10q25 -11 71 -11q131 0 143 99q5 42 -18.5 69t-63.5 27h-9l15 36q184 15 240 167l14 38l-153 54q-4 -10 -7 -18q-3 -7 -5 -13t-3 -7q-28 -73 -126 -73q-132 0 -132 119v204q0 119 132 119
q98 0 126 -73q1 0 3 -6t5 -13q3 -9 7 -19l153 54l-14 38q-61 168 -280 168q-141 0 -218 -71t-77 -198v-202q0 -116 65 -186t185 -81z" />
    <glyph glyph-name="Egrave" unicode="&#xc8;" horiz-adv-x="584" 
d="M495 433h-271v129h321v148h-484v-710h494v149h-331v136h271v148zM454 812l-205 123l-86 -99l238 -87z" />
    <glyph glyph-name="Eacute" unicode="&#xc9;" horiz-adv-x="584" 
d="M224 149v136h271v148h-271v129h321v148h-484v-710h494v149h-331zM454 836l-86 99l-205 -123l53 -63z" />
    <glyph glyph-name="Ecircumflex" unicode="&#xca;" horiz-adv-x="584" 
d="M495 285v148h-271v129h321v148h-484v-710h494v149h-331v136h271zM510 757l-156 157h-97l-156 -157h143l60 64l55 -64h151z" />
    <glyph glyph-name="Edieresis" unicode="&#xcb;" horiz-adv-x="584" 
d="M495 285v148h-271v129h321v148h-484v-710h494v149h-331v136h271zM337 833q0 -29 20 -49t49 -20t49 20t20 49t-20 49t-49 20t-49 -20t-20 -49zM201 902q-29 0 -49 -20t-20 -49t20 -49t49 -20t49 20t20 49t-20 49t-49 20z" />
    <glyph glyph-name="Igrave" unicode="&#xcc;" horiz-adv-x="285" 
d="M61 0h163v710h-163v-710zM240 749l53 63l-205 123l-86 -99z" />
    <glyph glyph-name="Iacute" unicode="&#xcd;" horiz-adv-x="285" 
d="M224 0v710h-163v-710h163zM-1 812l53 -63l238 87l-86 99z" />
    <glyph glyph-name="Icircumflex" unicode="&#xce;" horiz-adv-x="285" 
d="M224 0v710h-163v-710h163zM143 821l55 -64h151l-156 157h-97l-156 -157h143z" />
    <glyph glyph-name="Idieresis" unicode="&#xcf;" horiz-adv-x="285" 
d="M224 0v710h-163v-710h163zM40 902q-29 0 -49 -20t-20 -49t20 -49t49 -20t49 20t20 49t-20 49t-49 20zM176 833q0 -29 20 -49t49 -20t49 20t20 49t-20 49t-49 20t-49 -20t-20 -49z" />
    <glyph glyph-name="Eth" unicode="&#xd0;" horiz-adv-x="694" 
d="M652 441q0 127 -77 198t-218 71h-275v-292h-74v-104h74v-314h275q141 0 218 71t77 198v172zM490 269q0 -120 -134 -120h-112v165h130v104h-130v144h112q134 0 134 -121v-172z" />
    <glyph glyph-name="Ntilde" unicode="&#xd1;" horiz-adv-x="699" 
d="M637 711h-155v-410l-271 410h-150v-710h156v412l271 -412h149v710zM402 854q-14 0 -51 25t-77 25q-45 0 -67 -26.5t-22 -92.5v-22h88v21q0 29 17 29q14 0 51 -25t74 -25q48 0 69 26t21 92v23h-87v-22q0 -28 -16 -28z" />
    <glyph glyph-name="Ograve" unicode="&#xd2;" horiz-adv-x="675" 
d="M633 456q0 127 -77 198t-219 71q-141 0 -218 -71t-77 -198v-202q0 -127 77 -198t218 -71q142 0 219 71t77 198v202zM205 459q0 58 34 87.5t98 29.5q133 0 133 -117v-208q0 -117 -133 -117q-64 0 -98 29.5t-34 87.5v208zM487 822l-204 123l-86 -100l238 -86z" />
    <glyph glyph-name="Oacute" unicode="&#xd3;" horiz-adv-x="675" 
d="M633 456q0 127 -77 198t-219 71q-141 0 -218 -71t-77 -198v-202q0 -127 77 -198t218 -71q142 0 219 71t77 198v202zM205 459q0 58 34 87.5t98 29.5q133 0 133 -117v-208q0 -117 -133 -117q-64 0 -98 29.5t-34 87.5v208zM250 759l237 86l-85 100l-205 -123z" />
    <glyph glyph-name="Ocircumflex" unicode="&#xd4;" horiz-adv-x="675" 
d="M633 254v202q0 127 -77 198t-219 71q-141 0 -218 -71t-77 -198v-202q0 -127 77 -198t218 -71q142 0 219 71t77 198zM337 576q133 0 133 -117v-208q0 -117 -133 -117q-64 0 -98 29.5t-34 87.5v208q0 58 34 87.5t98 29.5zM543 767l-156 157h-97l-156 -157h143l60 64l55 -64
h151z" />
    <glyph glyph-name="Otilde" unicode="&#xd5;" horiz-adv-x="675" 
d="M633 456q0 127 -77 198t-219 71q-141 0 -218 -71t-77 -198v-202q0 -127 77 -198t218 -71q142 0 219 71t77 198v202zM337 576q133 0 133 -117v-208q0 -117 -133 -117q-64 0 -98 29.5t-34 87.5v208q0 58 34 87.5t98 29.5zM389 864q-14 0 -51 25t-77 25q-45 0 -67 -26.5
t-22 -92.5v-22h88v21q0 29 17 29q14 0 51 -25t74 -25q48 0 69 26t21 92v23h-87v-22q0 -28 -16 -28z" />
    <glyph glyph-name="Odieresis" unicode="&#xd6;" horiz-adv-x="675" 
d="M633 254v202q0 127 -77 198t-219 71q-141 0 -218 -71t-77 -198v-202q0 -127 77 -198t218 -71q142 0 219 71t77 198zM470 251q0 -117 -133 -117q-64 0 -98 29.5t-34 87.5v208q0 58 34 87.5t98 29.5q133 0 133 -117v-208zM234 912q-29 0 -49 -20t-20 -49t20 -49t49 -20
t49 20t20 49t-20 49t-49 20zM439 912q-29 0 -49 -20t-20 -49t20 -49t49 -20t49 20t20 49t-20 49t-49 20z" />
    <glyph glyph-name="multiply" unicode="&#xd7;" horiz-adv-x="521" 
d="M397 557l-137 -137l-135 136l-95 -95l135 -136l-135 -135l95 -95l135 135l137 -136l95 95l-137 136l137 137z" />
    <glyph glyph-name="Oslash" unicode="&#xd8;" horiz-adv-x="675" 
d="M633 456q0 107 -57 176l79 122h-118l-39 -62q-66 33 -161 33q-141 0 -218 -71t-77 -198v-202q0 -111 58 -179l-73 -114h118l35 54q65 -30 153 -30q65 0 120 16t95 49.5t62.5 84t22.5 119.5v202zM206 239q0 5 -0.5 12t-0.5 15v193q0 58 34 87.5t98 29.5q46 0 76 -15z
M470 251q0 -117 -133 -117q-46 0 -72 13l204 318q1 -4 1 -9.5v-12.5v-192z" />
    <glyph glyph-name="Ugrave" unicode="&#xd9;" horiz-adv-x="691" 
d="M472 710v-464q0 -113 -127 -113q-63 0 -95 29t-32 84v464h-162v-460q0 -61 19 -110.5t56 -83.5t91 -52.5t123 -18.5q70 0 124 18.5t91 52.5t56 83.5t19 110.5v460h-163zM496 812l-205 123l-86 -99l238 -87z" />
    <glyph glyph-name="Uacute" unicode="&#xda;" horiz-adv-x="691" 
d="M635 710h-163v-464q0 -113 -127 -113q-63 0 -95 29t-32 84v464h-162v-460q0 -61 19 -110.5t56 -83.5t91 -52.5t123 -18.5q70 0 124 18.5t91 52.5t56 83.5t19 110.5v460zM258 749l238 87l-86 99l-205 -123z" />
    <glyph glyph-name="Ucircumflex" unicode="&#xdb;" horiz-adv-x="691" 
d="M345 -15q70 0 124 18.5t91 52.5t56 83.5t19 110.5v460h-163v-464q0 -113 -127 -113q-63 0 -95 29t-32 84v464h-162v-460q0 -61 19 -110.5t56 -83.5t91 -52.5t123 -18.5zM285 757l60 64l55 -64h151l-156 157h-97l-156 -157h143z" />
    <glyph glyph-name="Udieresis" unicode="&#xdc;" horiz-adv-x="691" 
d="M472 710v-464q0 -113 -127 -113q-63 0 -95 29t-32 84v464h-162v-460q0 -61 19 -110.5t56 -83.5t91 -52.5t123 -18.5q70 0 124 18.5t91 52.5t56 83.5t19 110.5v460h-163zM242 902q-29 0 -49 -20t-20 -49t20 -49t49 -20t49 20t20 49t-20 49t-49 20zM516 833q0 29 -20 49
t-49 20t-49 -20t-20 -49t20 -49t49 -20t49 20t20 49z" />
    <glyph glyph-name="Yacute" unicode="&#xdd;" horiz-adv-x="658" 
d="M247 0h163v276l260 434h-193l-147 -269l-144 269h-199l260 -432v-278zM480 835l-86 100l-205 -123l53 -64z" />
    <glyph glyph-name="Thorn" unicode="&#xde;" horiz-adv-x="635" 
d="M224 611v100h-162v-710h162v110h136q58 0 105 17t80 49.5t51 78.5t18 104t-18 104.5t-51 79t-80 50t-105 17.5h-136zM224 462h118q48 0 75.5 -28.5t27.5 -73.5t-27.5 -73t-75.5 -28h-118v203z" />
    <glyph glyph-name="germandbls" unicode="&#xdf;" horiz-adv-x="564" 
d="M371 227q0 -78 -75 -78h-62v-149h81q105 0 163 53.5t58 153.5q0 142 -96 182v4q69 48 69 151q0 97 -59 151.5t-173 54.5q-54 0 -95.5 -16t-70.5 -45t-44 -70t-15 -91v-528h151v526q0 34 19 55t54 21t54.5 -19.5t19.5 -56.5q0 -35 -18 -54.5t-49 -19.5h-49v-145h62
q36 0 55.5 -21t19.5 -59z" />
    <glyph glyph-name="agrave" unicode="&#xe0;" horiz-adv-x="524" 
d="M331 312q-16 1 -33.5 1.5t-37.5 0.5q-63 0 -107.5 -8.5t-72 -27.5t-40.5 -50.5t-13 -77.5q0 -42 11.5 -73.5t38 -51.5t70.5 -30t109 -10q129 0 189 27q2 1 7.5 3.5t12.5 5.5q8 4 17 8v295q0 211 -223 211q-158 0 -214 -104l-15 -29l125 -52l16 21q28 37 83 37
q77 0 77 -74v-22zM355 572l53 63l-205 123l-86 -99zM322 106q-13 -2 -32 -3t-45 -1q-39 0 -53 12.5t-14 36.5q0 23 14.5 35.5t54.5 12.5q6 0 18.5 -0.5t26 -0.5t25 -0.5t14.5 -0.5v-90z" />
    <glyph glyph-name="aacute" unicode="&#xe1;" horiz-adv-x="524" 
d="M331 312q-16 1 -33.5 1.5t-37.5 0.5q-63 0 -107.5 -8.5t-72 -27.5t-40.5 -50.5t-13 -77.5q0 -42 11.5 -73.5t38 -51.5t70.5 -30t109 -10q129 0 189 27q2 1 7.5 3.5t12.5 5.5q8 4 17 8v295q0 211 -223 211q-158 0 -214 -104l-15 -29l125 -52l16 21q28 37 83 37
q77 0 77 -74v-22zM408 659l-86 99l-205 -123l53 -63zM322 106q-13 -2 -32 -3t-45 -1q-39 0 -53 12.5t-14 36.5q0 23 14.5 35.5t54.5 12.5q6 0 18.5 -0.5t26 -0.5t25 -0.5t14.5 -0.5v-90z" />
    <glyph glyph-name="acircumflex" unicode="&#xe2;" horiz-adv-x="524" 
d="M331 312q-16 1 -33.5 1.5t-37.5 0.5q-63 0 -107.5 -8.5t-72 -27.5t-40.5 -50.5t-13 -77.5q0 -42 11.5 -73.5t38 -51.5t70.5 -30t109 -10q129 0 189 27q2 1 7.5 3.5t12.5 5.5q8 4 17 8v295q0 211 -223 211q-158 0 -214 -104l-15 -29l125 -52l16 21q28 37 83 37
q77 0 77 -74v-22zM259 645l55 -64h151l-156 157h-97l-156 -157h143zM331 107l-9 -1q-13 -2 -32 -3t-45 -1q-39 0 -53 12.5t-14 36.5q0 23 14.5 35.5t54.5 12.5q6 0 18.5 -0.5t26 -0.5t25 -0.5t14.5 -0.5v-90z" />
    <glyph glyph-name="atilde" unicode="&#xe3;" horiz-adv-x="524" 
d="M259 535q-158 0 -214 -104l-15 -29l125 -52l16 21q28 37 83 37q77 0 77 -74v-22q-16 1 -33.5 1.5t-37.5 0.5q-63 0 -107.5 -8.5t-72 -27.5t-40.5 -50.5t-13 -77.5q0 -42 11.5 -73.5t38 -51.5t70.5 -30t109 -10q129 0 189 27q2 1 7.5 3.5t12.5 5.5q8 4 17 8v295
q0 211 -223 211zM181 611q0 29 17 29q14 0 51 -25t74 -25q48 0 69 26t21 92v23h-87v-22q0 -28 -16 -28q-14 0 -51 25t-77 25q-45 0 -67 -26.5t-22 -92.5v-22h88v21zM245 102q-39 0 -53 12.5t-14 36.5q0 23 14.5 35.5t54.5 12.5q6 0 18.5 -0.5t26 -0.5t25 -0.5t14.5 -0.5v-90
l-9 -1q-13 -2 -32 -3t-45 -1z" />
    <glyph glyph-name="adieresis" unicode="&#xe4;" horiz-adv-x="524" 
d="M331 312q-16 1 -33.5 1.5t-37.5 0.5q-63 0 -107.5 -8.5t-72 -27.5t-40.5 -50.5t-13 -77.5q0 -42 11.5 -73.5t38 -51.5t70.5 -30t109 -10q129 0 189 27q2 1 7.5 3.5t12.5 5.5q8 4 17 8v295q0 211 -223 211q-158 0 -214 -104l-15 -29l125 -52l16 21q28 37 83 37
q77 0 77 -74v-22zM292 654q0 -29 20 -49t49 -20t49 20t20 49t-20 49t-49 20t-49 -20t-20 -49zM156 723q-29 0 -49 -20t-20 -49t20 -49t49 -20t49 20t20 49t-20 49t-49 20zM331 107l-9 -1q-13 -2 -32 -3t-45 -1q-39 0 -53 12.5t-14 36.5q0 23 14.5 35.5t54.5 12.5
q6 0 18.5 -0.5t26 -0.5t25 -0.5t14.5 -0.5v-90z" />
    <glyph glyph-name="aring" unicode="&#xe5;" horiz-adv-x="524" 
d="M30 402l125 -52l16 21q28 37 83 37q77 0 77 -74v-22q-16 1 -33.5 1.5t-37.5 0.5q-63 0 -107.5 -8.5t-72 -27.5t-40.5 -50.5t-13 -77.5q0 -42 11.5 -73.5t38 -51.5t70.5 -30t109 -10q129 0 189 27q2 1 7.5 3.5t12.5 5.5q8 4 17 8v295q0 211 -223 211q-158 0 -214 -104z
M346 761q-33 31 -83 31q-52 0 -85 -31.5t-33 -81.5q0 -49 33 -79.5t85 -30.5q50 0 82.5 30.5t32.5 79.5q0 50 -32 82zM178 151q0 23 14.5 35.5t54.5 12.5q6 0 18.5 -0.5t26 -0.5t25 -0.5t14.5 -0.5v-90l-9 -1q-13 -2 -32 -3t-45 -1q-39 0 -53 12.5t-14 36.5zM292 710
q11 -12 11 -31q0 -18 -11.5 -29t-28.5 -11q-19 0 -31.5 11.5t-12.5 28.5q0 19 12 30.5t32 11.5q17 0 29 -11z" />
    <glyph glyph-name="ae" unicode="&#xe6;" horiz-adv-x="797" 
d="M248 535q-147 0 -203 -104l-14 -27l127 -53l13 19q26 38 73 38q37 0 52 -15.5t15 -45.5v-35q-14 1 -29.5 1.5t-32.5 0.5q-61 0 -103.5 -8.5t-68.5 -27.5t-38 -50.5t-12 -77.5q0 -43 10.5 -74t35.5 -51.5t67 -30t105 -9.5q96 0 165 28q53 -28 127 -28q153 0 210 93l17 28
l-125 64l-15 -21q-28 -40 -85 -40q-80 0 -80 77v27h310v111q0 47 -14.5 85.5t-43.5 66.5t-72.5 43.5t-100.5 15.5q-91 0 -147 -41q-53 41 -143 41zM459 338q0 77 79 77q80 0 80 -77v-16h-159v16zM305 106q-7 -1 -26.5 -2.5t-43.5 -1.5q-35 0 -46 12t-11 37q0 24 12 36t47 12
q6 0 17 -0.5t22.5 -0.5t21.5 -0.5t14 -0.5v-89z" />
    <glyph glyph-name="ccedilla" unicode="&#xe7;" horiz-adv-x="519" 
d="M232 -14l-45 -102h47q38 -2 38 -22q0 -27 -39 -27q-28 0 -54 14l-21 11v-84l21 -10q25 -11 71 -11q131 0 143 99q5 42 -18.5 69t-63.5 27h-9l16 39q128 18 175 128l17 40l-146 45q-4 -10 -7 -17t-5 -12.5t-3 -6.5q-21 -51 -82 -51q-81 0 -81 75v140q0 75 81 75
q61 0 82 -51q1 -1 3 -7t5 -13t7 -17l142 46l-14 39q-21 60 -76.5 96.5t-142.5 36.5q-121 0 -179.5 -55t-58.5 -157v-126q0 -197 197 -211z" />
    <glyph glyph-name="egrave" unicode="&#xe8;" horiz-adv-x="543" 
d="M275 109q-90 0 -90 79v25h330v111q0 46 -15.5 85t-45.5 67t-75 43.5t-105 15.5q-117 0 -178.5 -56.5t-61.5 -165.5v-106q0 -51 14.5 -92t43.5 -70t74.5 -44.5t106.5 -15.5q162 0 220 93l16 26l-125 64l-14 -19q-30 -40 -95 -40zM370 572l53 63l-205 123l-86 -99zM363 322
h-178v16q0 77 89 77t89 -77v-16z" />
    <glyph glyph-name="eacute" unicode="&#xe9;" horiz-adv-x="543" 
d="M275 109q-90 0 -90 79v25h330v111q0 46 -15.5 85t-45.5 67t-75 43.5t-105 15.5q-117 0 -178.5 -56.5t-61.5 -165.5v-106q0 -51 14.5 -92t43.5 -70t74.5 -44.5t106.5 -15.5q162 0 220 93l16 26l-125 64l-14 -19q-30 -40 -95 -40zM423 659l-86 99l-205 -123l53 -63z
M363 322h-178v16q0 77 89 77t89 -77v-16z" />
    <glyph glyph-name="ecircumflex" unicode="&#xea;" horiz-adv-x="543" 
d="M274 535q-117 0 -178.5 -56.5t-61.5 -165.5v-106q0 -51 14.5 -92t43.5 -70t74.5 -44.5t106.5 -15.5q162 0 220 93l16 26l-125 64l-14 -19q-30 -40 -95 -40q-90 0 -90 79v25h330v111q0 46 -15.5 85t-45.5 67t-75 43.5t-105 15.5zM274 642l55 -62h147l-154 154h-92
l-153 -154h138zM363 322h-178v16q0 77 89 77t89 -77v-16z" />
    <glyph glyph-name="edieresis" unicode="&#xeb;" horiz-adv-x="543" 
d="M274 535q-117 0 -178.5 -56.5t-61.5 -165.5v-106q0 -51 14.5 -92t43.5 -70t74.5 -44.5t106.5 -15.5q162 0 220 93l16 26l-125 64l-14 -19q-30 -40 -95 -40q-90 0 -90 79v25h330v111q0 46 -15.5 85t-45.5 67t-75 43.5t-105 15.5zM376 723q-29 0 -49 -20t-20 -49t20 -49
t49 -20t49 20t20 49t-20 49t-49 20zM102 654q0 -29 20 -49t49 -20t49 20t20 49t-20 49t-49 20t-49 -20t-20 -49zM363 322h-178v16q0 77 89 77t89 -77v-16z" />
    <glyph glyph-name="igrave" unicode="&#xec;" horiz-adv-x="252" 
d="M201 520h-151v-520h151v520zM212 570l53 61l-183 130l-90 -99z" />
    <glyph glyph-name="iacute" unicode="&#xed;" horiz-adv-x="252" 
d="M201 0v520h-151v-520h151zM172 761l-184 -130l54 -61l219 92z" />
    <glyph glyph-name="icircumflex" unicode="&#xee;" horiz-adv-x="252" 
d="M201 0v520h-151v-520h151zM125 642l39 -62h146l-133 154h-100l-134 -154h138z" />
    <glyph glyph-name="idieresis" unicode="&#xef;" horiz-adv-x="252" 
d="M201 0v520h-151v-520h151zM150 654q0 -29 20 -49t49 -20t49 20t20 49t-20 49t-49 20t-49 -20t-20 -49zM32 723q-29 0 -49 -20t-20 -49t20 -49t49 -20t49 20t20 49t-20 49t-49 20z" />
    <glyph glyph-name="eth" unicode="&#xf0;" horiz-adv-x="556" 
d="M511 394q0 195 -85 274l41 46l-70 49l-41 -49q-41 15 -93.5 23t-118.5 8h-36v-133h40q68 0 112 -11l-37 -44l64 -44l44 49q36 -36 42 -99q-39 39 -129 39q-47 0 -86 -14.5t-66.5 -41t-42.5 -64.5t-15 -85v-103q0 -100 60.5 -154.5t178.5 -54.5q116 0 177 55.5t61 155.5
v198zM273 120q-87 0 -87 75v102q0 75 87 75q86 0 86 -75v-102q0 -75 -86 -75z" />
    <glyph glyph-name="ntilde" unicode="&#xf1;" 
d="M273 398q85 0 85 -75v-323h151v328q0 207 -216 207q-117 0 -204 -36l-40 -16v-483h151v388l3 1q32 9 70 9zM269 615q37 -25 74 -25q48 0 69 26t21 92v23h-87v-22q0 -28 -16 -28q-14 0 -51 25t-77 25q-45 0 -67 -26.5t-22 -92.5v-22h88v21q0 29 17 29q14 0 51 -25z" />
    <glyph glyph-name="ograve" unicode="&#xf2;" horiz-adv-x="547" 
d="M512 324q0 100 -60.5 155.5t-178.5 55.5q-117 0 -177.5 -55.5t-60.5 -155.5v-129q0 -100 60.5 -155t177.5 -55q118 0 178.5 55t60.5 155v129zM186 326q0 75 87 75q88 0 88 -75v-132q0 -75 -88 -75q-87 0 -87 75v132zM422 635l-205 123l-86 -99l238 -87z" />
    <glyph glyph-name="oacute" unicode="&#xf3;" horiz-adv-x="547" 
d="M512 324q0 100 -60.5 155.5t-178.5 55.5q-117 0 -177.5 -55.5t-60.5 -155.5v-129q0 -100 60.5 -155t177.5 -55q118 0 178.5 55t60.5 155v129zM186 326q0 75 87 75q88 0 88 -75v-132q0 -75 -88 -75q-87 0 -87 75v132zM422 659l-86 99l-205 -123l53 -63z" />
    <glyph glyph-name="ocircumflex" unicode="&#xf4;" horiz-adv-x="547" 
d="M512 195v129q0 100 -60.5 155.5t-178.5 55.5q-117 0 -177.5 -55.5t-60.5 -155.5v-129q0 -100 60.5 -155t177.5 -55q118 0 178.5 55t60.5 155zM361 194q0 -75 -88 -75q-87 0 -87 75v132q0 75 87 75q88 0 88 -75v-132zM274 642l55 -62h147l-154 154h-92l-153 -154h138z" />
    <glyph glyph-name="otilde" unicode="&#xf5;" horiz-adv-x="547" 
d="M512 324q0 100 -60.5 155.5t-178.5 55.5q-117 0 -177.5 -55.5t-60.5 -155.5v-129q0 -100 60.5 -155t177.5 -55q118 0 178.5 55t60.5 155v129zM273 401q88 0 88 -75v-132q0 -75 -88 -75q-87 0 -87 75v132q0 75 87 75zM324 681q-14 0 -51 25t-77 25q-45 0 -67 -26.5
t-22 -92.5v-22h88v21q0 29 17 29q14 0 51 -25t74 -25q48 0 69 26t21 92v23h-87v-22q0 -28 -16 -28z" />
    <glyph glyph-name="odieresis" unicode="&#xf6;" horiz-adv-x="547" 
d="M512 195v129q0 100 -60.5 155.5t-178.5 55.5q-117 0 -177.5 -55.5t-60.5 -155.5v-129q0 -100 60.5 -155t177.5 -55q118 0 178.5 55t60.5 155zM361 194q0 -75 -88 -75q-87 0 -87 75v132q0 75 87 75q88 0 88 -75v-132zM306 654q0 -29 20 -49t49 -20t49 20t20 49t-20 49
t-49 20t-49 -20t-20 -49zM170 723q-29 0 -49 -20t-20 -49t20 -49t49 -20t49 20t20 49t-20 49t-49 20z" />
    <glyph glyph-name="divide" unicode="&#xf7;" horiz-adv-x="546" 
d="M513 254v143h-480v-143h480zM273 432q33 0 56.5 23.5t23.5 56.5q0 32 -23.5 55.5t-56.5 23.5t-56 -23.5t-23 -55.5q0 -33 23 -56.5t56 -23.5zM273 60q33 0 56.5 23.5t23.5 56.5q0 32 -23.5 55.5t-56.5 23.5t-56 -23.5t-23 -55.5q0 -33 23 -56.5t56 -23.5z" />
    <glyph glyph-name="oslash" unicode="&#xf8;" horiz-adv-x="547" 
d="M512 324q0 98 -57 152l48 76h-87l-24 -37q-52 20 -119 20q-117 0 -177.5 -55.5t-60.5 -155.5v-129q0 -96 58 -151l-50 -79h88l26 40q51 -20 116 -20q118 0 178.5 55t60.5 155v129zM186 333q0 75 87 75q27 0 46 -8l-132 -207q-1 5 -1 8v6v126zM273 112q-23 0 -44 8
l131 207q1 -4 1 -8v-6v-126q0 -75 -88 -75z" />
    <glyph glyph-name="ugrave" unicode="&#xf9;" 
d="M262 -15q117 0 205 36l39 16v483h-151v-389l-7 -2q-29 -7 -66 -7q-85 0 -85 75v323h-151v-328q0 -207 216 -207zM425 635l-205 123l-86 -99l238 -87z" />
    <glyph glyph-name="uacute" unicode="&#xfa;" 
d="M282 122q-85 0 -85 75v323h-151v-328q0 -207 216 -207q117 0 205 36l39 16v483h-151v-389l-7 -2q-29 -7 -66 -7zM425 659l-86 99l-205 -123l53 -63z" />
    <glyph glyph-name="ucircumflex" unicode="&#xfb;" 
d="M355 131l-7 -2q-29 -7 -66 -7q-85 0 -85 75v323h-151v-328q0 -207 216 -207q117 0 205 36l39 16v483h-151v-389zM232 737l-153 -154h138l59 62l55 -62h147l-154 154h-92z" />
    <glyph glyph-name="udieresis" unicode="&#xfc;" 
d="M355 520v-389l-7 -2q-29 -7 -66 -7q-85 0 -85 75v323h-151v-328q0 -207 216 -207q117 0 205 36l39 16v483h-151zM378 585q29 0 49 20t20 49t-20 49t-49 20t-49 -20t-20 -49t20 -49t49 -20zM104 654q0 -29 20 -49t49 -20t49 20t20 49t-20 49t-49 20t-49 -20t-20 -49z" />
    <glyph glyph-name="yacute" unicode="&#xfd;" horiz-adv-x="557" 
d="M355 -19q0 -81 -80 -81q-54 0 -81 38l-22 31l-132 -67l24 -39q59 -93 214 -93q117 0 172.5 59t55.5 163v528h-151v-361q-20 -4 -38 -5.5t-35 -1.5q-85 0 -85 75v293h-151v-298q0 -207 216 -207q59 0 93 7v-41zM423 659l-86 99l-205 -123l53 -63z" />
    <glyph glyph-name="thorn" unicode="&#xfe;" horiz-adv-x="547" 
d="M51 739v-959h151v214q45 -9 79 -9q115 0 173 55.5t58 161.5v126q0 100 -53.5 153.5t-164.5 53.5q-25 0 -47.5 -1.5t-43.5 -3.5v209h-152zM202 392q46 8 74 8q84 0 84 -73v-125q0 -82 -91 -82q-29 0 -67 6v266z" />
    <glyph glyph-name="ydieresis" unicode="&#xff;" horiz-adv-x="557" 
d="M262 15q59 0 93 7v-41q0 -81 -80 -81q-54 0 -81 38l-22 31l-132 -67l24 -39q59 -93 214 -93q117 0 172.5 59t55.5 163v528h-151v-361q-20 -4 -38 -5.5t-35 -1.5q-85 0 -85 75v293h-151v-298q0 -207 216 -207zM309 654q0 -29 20 -49t49 -20t49 20t20 49t-20 49t-49 20
t-49 -20t-20 -49zM104 654q0 -29 20 -49t49 -20t49 20t20 49t-20 49t-49 20t-49 -20t-20 -49z" />
    <glyph glyph-name="Amacron" unicode="&#x100;" horiz-adv-x="672" 
d="M260 710l-267 -710h172l43 131h248l43 -131h179l-266 710h-152zM486 782v102h-303v-102h303zM413 263h-161l81 243z" />
    <glyph glyph-name="amacron" unicode="&#x101;" horiz-adv-x="524" 
d="M331 312q-16 1 -33.5 1.5t-37.5 0.5q-63 0 -107.5 -8.5t-72 -27.5t-40.5 -50.5t-13 -77.5q0 -42 11.5 -73.5t38 -51.5t70.5 -30t109 -10q129 0 189 27q2 1 7.5 3.5t12.5 5.5q8 4 17 8v295q0 211 -223 211q-158 0 -214 -104l-15 -29l125 -52l16 21q28 37 83 37
q77 0 77 -74v-22zM410 604v102h-303v-102h303zM322 106q-13 -2 -32 -3t-45 -1q-39 0 -53 12.5t-14 36.5q0 23 14.5 35.5t54.5 12.5q6 0 18.5 -0.5t26 -0.5t25 -0.5t14.5 -0.5v-90z" />
    <glyph glyph-name="Abreve" unicode="&#x102;" horiz-adv-x="672" 
d="M678 0l-266 710h-152l-267 -710h172l43 131h248l43 -131h179zM393 901q-16 -39 -57 -39q-40 0 -57 39l-9 22l-105 -40l9 -24q17 -48 59.5 -74.5t102.5 -26.5t102.5 26.5t60.5 74.5l9 25l-106 38zM413 263h-161l81 243z" />
    <glyph glyph-name="abreve" unicode="&#x103;" horiz-adv-x="524" 
d="M331 312q-16 1 -33.5 1.5t-37.5 0.5q-63 0 -107.5 -8.5t-72 -27.5t-40.5 -50.5t-13 -77.5q0 -42 11.5 -73.5t38 -51.5t70.5 -30t109 -10q129 0 189 27q2 1 7.5 3.5t12.5 5.5q8 4 17 8v295q0 211 -223 211q-158 0 -214 -104l-15 -29l125 -52l16 21q28 37 83 37
q77 0 77 -74v-22zM259 581q60 0 102.5 26.5t60.5 74.5l9 25l-106 38l-9 -21q-16 -39 -57 -39q-40 0 -57 39l-9 22l-105 -40l9 -24q17 -48 59.5 -74.5t102.5 -26.5zM245 102q-39 0 -53 12.5t-14 36.5q0 23 14.5 35.5t54.5 12.5q6 0 18.5 -0.5t26 -0.5t25 -0.5t14.5 -0.5v-90
l-9 -1q-13 -2 -32 -3t-45 -1z" />
    <glyph glyph-name="Aogonek" unicode="&#x104;" horiz-adv-x="672" 
d="M548 0q-43 -45 -63.5 -92.5t-12.5 -87.5q11 -65 98 -65q60 0 101 35l9 8l-31 76l-16 -11q-8 -5 -17 -5q-17 0 -20 18q-2 9 1.5 23t11.5 31t21 36.5t31 37.5l2.5 2.5l3.5 3.5l5 6l-259 694h-152l-267 -710h172l44 131h247l43 -131h48zM334 505l79 -242h-160z" />
    <glyph glyph-name="aogonek" unicode="&#x105;" horiz-adv-x="527" 
d="M260 314q-63 0 -107.5 -8.5t-72 -27.5t-40.5 -50.5t-13 -77.5q0 -42 11.5 -73.5t38 -51.5t70.5 -30t109 -10q25 0 48 1.5t46 3.5q-84 -91 -70 -170q12 -65 98 -65q60 0 101 35l9 8l-30 74l-16 -9q-10 -5 -18 -5q-15 0 -20 18q-11 47 65 148l13 18v282q0 211 -223 211
q-158 0 -214 -104l-14 -27l125 -52l15 19q28 37 83 37q77 0 77 -74v-22q-16 1 -33.5 1.5t-37.5 0.5zM322 106q-13 -2 -32 -3t-45 -1q-39 0 -53 12.5t-14 36.5q0 23 14.5 35.5t54.5 12.5q6 0 18.5 -0.5t26 -0.5t25 -0.5t14.5 -0.5v-90z" />
    <glyph glyph-name="Cacute" unicode="&#x106;" horiz-adv-x="644" 
d="M478 245q-4 -10 -7 -18q-3 -7 -5 -13t-3 -7q-28 -73 -126 -73q-132 0 -132 119v204q0 119 132 119q98 0 126 -73q1 0 3 -6t5 -13q3 -9 7 -19l153 54l-14 38q-61 168 -280 168q-141 0 -218 -71t-77 -198v-202q0 -127 77 -198t218 -71q219 0 280 168l14 38zM401 935
l-205 -123l53 -63l238 87z" />
    <glyph glyph-name="cacute" unicode="&#x107;" horiz-adv-x="519" 
d="M349 354q1 -1 3 -7t5 -13t7 -17l142 46l-14 39q-21 60 -76.5 96.5t-142.5 36.5q-121 0 -179.5 -55t-58.5 -157v-126q0 -212 228 -212q175 0 230 132l17 40l-146 45q-4 -10 -7 -17t-5 -12.5t-3 -6.5q-21 -51 -82 -51q-81 0 -81 75v140q0 75 81 75q61 0 82 -51zM130 636
l53 -64l237 87l-86 100z" />
    <glyph glyph-name="Ccircumflex" unicode="&#x108;" horiz-adv-x="644" 
d="M478 465l153 54l-14 38q-61 168 -280 168q-141 0 -218 -71t-77 -198v-202q0 -127 77 -198t218 -71q219 0 280 168l14 38l-153 54q-4 -10 -7 -18q-3 -7 -5 -13t-3 -7q-28 -73 -126 -73q-132 0 -132 119v204q0 119 132 119q98 0 126 -73q1 0 3 -6t5 -13q3 -9 7 -19z
M342 821l55 -64h151l-156 157h-97l-156 -157h143z" />
    <glyph glyph-name="ccircumflex" unicode="&#x109;" horiz-adv-x="519" 
d="M492 402q-21 60 -76.5 96.5t-142.5 36.5q-121 0 -179.5 -55t-58.5 -157v-126q0 -212 228 -212q175 0 230 132l17 40l-146 45q-4 -10 -7 -17t-5 -12.5t-3 -6.5q-21 -51 -82 -51q-81 0 -81 75v140q0 75 81 75q61 0 82 -51q1 -1 3 -7t5 -13t7 -17l142 46zM474 580l-154 154
h-92l-153 -154h138l59 62l55 -62h147z" />
    <glyph glyph-name="Cdotaccent" unicode="&#x10a;" horiz-adv-x="644" 
d="M463 503q1 0 3 -6t5 -13q3 -9 7 -19l153 54l-14 38q-61 168 -280 168q-141 0 -218 -71t-77 -198v-202q0 -127 77 -198t218 -71q219 0 280 168l14 38l-153 54q-4 -10 -7 -18q-3 -7 -5 -13t-3 -7q-28 -73 -126 -73q-132 0 -132 119v204q0 119 132 119q98 0 126 -73z
M272 833q0 -29 20.5 -49.5t49.5 -20.5t49.5 20.5t20.5 49.5t-20.5 49.5t-49.5 20.5t-49.5 -20.5t-20.5 -49.5z" />
    <glyph glyph-name="cdotaccent" unicode="&#x10b;" horiz-adv-x="519" 
d="M349 166q-21 -51 -82 -51q-81 0 -81 75v140q0 75 81 75q61 0 82 -51q1 -1 3 -7t5 -13t7 -17l142 46l-14 39q-21 60 -76.5 96.5t-142.5 36.5q-121 0 -179.5 -55t-58.5 -157v-126q0 -212 228 -212q175 0 230 132l17 40l-146 45q-4 -10 -7 -17t-5 -12.5t-3 -6.5zM272 726
q-29 0 -49.5 -20.5t-20.5 -49.5t20.5 -49.5t49.5 -20.5t49.5 20.5t20.5 49.5t-20.5 49.5t-49.5 20.5z" />
    <glyph glyph-name="Ccaron" unicode="&#x10c;" horiz-adv-x="644" 
d="M631 191l-153 54q-4 -10 -7 -18q-3 -7 -5 -13t-3 -7q-28 -73 -126 -73q-132 0 -132 119v204q0 119 132 119q98 0 126 -73q1 0 3 -6t5 -13q3 -9 7 -19l153 54l-14 38q-61 168 -280 168q-141 0 -218 -71t-77 -198v-202q0 -127 77 -198t218 -71q219 0 280 168zM401 913
l-60 -64l-55 64h-151l156 -157h97l156 157h-143z" />
    <glyph glyph-name="ccaron" unicode="&#x10d;" horiz-adv-x="519" 
d="M492 402q-21 60 -76.5 96.5t-142.5 36.5q-121 0 -179.5 -55t-58.5 -157v-126q0 -212 228 -212q175 0 230 132l17 40l-146 45q-4 -10 -7 -17t-5 -12.5t-3 -6.5q-21 -51 -82 -51q-81 0 -81 75v140q0 75 81 75q61 0 82 -51q1 -1 3 -7t5 -13t7 -17l142 46zM315 575l142 146
h-134l-52 -59l-55 59h-133l145 -146h87z" />
    <glyph glyph-name="Dcaron" unicode="&#x10e;" horiz-adv-x="673" 
d="M631 441q0 127 -76.5 198t-218.5 71h-275v-710h275q142 0 218.5 71t76.5 198v172zM469 269q0 -120 -134 -120h-111v413h111q134 0 134 -121v-172zM362 756l156 157h-143l-60 -64l-55 64h-151l156 -157h97z" />
    <glyph glyph-name="dcaron" unicode="&#x10f;" horiz-adv-x="626" 
d="M496 740h-151v-211q-52 6 -92 6q-108 0 -162.5 -55.5t-54.5 -161.5v-126q0 -207 223 -207q116 0 197 34l40 17v704zM187 318q0 82 91 82q30 0 67 -6v-266l-3 -1q-27 -7 -71 -7q-40 0 -62 19t-22 54v125zM565 740l-27 -231h97l74 231h-144z" />
    <glyph glyph-name="Dcroat" unicode="&#x110;" horiz-adv-x="694" 
d="M652 441q0 127 -77 198t-218 71h-275v-292h-74v-104h74v-314h275q141 0 218 71t77 198v172zM490 269q0 -120 -134 -120h-112v165h130v104h-130v144h112q134 0 134 -121v-172z" />
    <glyph glyph-name="dcroat" unicode="&#x111;" horiz-adv-x="545" 
d="M345 676h-125v-89h125v-58q-52 6 -92 6q-108 0 -162.5 -55.5t-54.5 -161.5v-126q0 -207 223 -207q116 0 197 34l40 17v551h70v89h-70v64h-151v-64zM342 127q-27 -7 -71 -7q-40 0 -62 19t-22 54v125q0 82 91 82q30 0 67 -6v-266z" />
    <glyph glyph-name="Emacron" unicode="&#x112;" horiz-adv-x="584" 
d="M224 433v129h321v148h-484v-710h494v149h-331v136h271v148h-271zM455 782v102h-303v-102h303z" />
    <glyph glyph-name="emacron" unicode="&#x113;" horiz-adv-x="543" 
d="M274 535q-117 0 -178.5 -56.5t-61.5 -165.5v-106q0 -51 14.5 -92t43.5 -70t74.5 -44.5t106.5 -15.5q162 0 220 93l16 26l-125 64l-14 -19q-30 -40 -95 -40q-90 0 -90 79v25h330v111q0 46 -15.5 85t-45.5 67t-75 43.5t-105 15.5zM414 601v98h-279v-98h279zM185 322v16
q0 77 89 77t89 -77v-16h-178z" />
    <glyph glyph-name="Ebreve" unicode="&#x114;" horiz-adv-x="584" 
d="M495 285v148h-271v129h321v148h-484v-710h494v149h-331v136h271zM304 758q60 0 102.5 26.5t60.5 74.5l9 25l-106 38l-9 -21q-16 -39 -57 -39q-40 0 -57 39l-9 22l-105 -40l9 -24q17 -48 59.5 -74.5t102.5 -26.5z" />
    <glyph glyph-name="ebreve" unicode="&#x115;" horiz-adv-x="543" 
d="M509 104l-125 64l-14 -19q-30 -40 -95 -40q-90 0 -90 79v25h330v111q0 46 -15.5 85t-45.5 67t-75 43.5t-105 15.5q-117 0 -178.5 -56.5t-61.5 -165.5v-106q0 -51 14.5 -92t43.5 -70t74.5 -44.5t106.5 -15.5q162 0 220 93zM274 581q60 0 102.5 26.5t60.5 74.5l9 25
l-106 38l-9 -21q-16 -39 -57 -39q-40 0 -57 39l-9 22l-105 -40l9 -24q17 -48 59.5 -74.5t102.5 -26.5zM363 322h-178v16q0 77 89 77t89 -77v-16z" />
    <glyph glyph-name="Edotaccent" unicode="&#x116;" horiz-adv-x="584" 
d="M224 433v129h321v148h-484v-710h494v149h-331v136h271v148h-271zM233 833q0 -29 20.5 -49.5t49.5 -20.5t49.5 20.5t20.5 49.5t-20.5 49.5t-49.5 20.5t-49.5 -20.5t-20.5 -49.5z" />
    <glyph glyph-name="edotaccent" unicode="&#x117;" horiz-adv-x="543" 
d="M274 535q-117 0 -178.5 -56.5t-61.5 -165.5v-106q0 -51 14.5 -92t43.5 -70t74.5 -44.5t106.5 -15.5q162 0 220 93l16 26l-125 64l-14 -19q-30 -40 -95 -40q-90 0 -90 79v25h330v111q0 46 -15.5 85t-45.5 67t-75 43.5t-105 15.5zM274 586q29 0 49.5 20.5t20.5 49.5
t-20.5 49.5t-49.5 20.5t-49.5 -20.5t-20.5 -49.5t20.5 -49.5t49.5 -20.5zM185 322v16q0 77 89 77t89 -77v-16h-178z" />
    <glyph glyph-name="Eogonek" unicode="&#x118;" horiz-adv-x="584" 
d="M495 285v148h-271v129h321v148h-484v-710h372q-45 -40 -67.5 -89t-14.5 -89q7 -32 33 -48.5t64 -16.5q61 0 101 36l9 8l-31 73l-7 -4q-3 -2 -5.5 -3.5t-3.5 -1.5q-7 -4 -14 -4q-14 0 -20 17q-4 20 12 54.5t53 73.5l13 14v129h-331v136h271z" />
    <glyph glyph-name="eogonek" unicode="&#x119;" horiz-adv-x="543" 
d="M275 109q-90 0 -90 79v25h330v111q0 46 -15.5 85t-45.5 67t-75 43.5t-105 15.5q-117 0 -178.5 -56.5t-61.5 -165.5v-106q0 -51 14.5 -92t43.5 -70t74.5 -44.5t106.5 -15.5q17 0 33.5 1.5t33.5 3.5q-88 -93 -73 -170q11 -65 98 -65q60 0 101 35l9 8l-30 74l-7 -4
q-3 -2 -5.5 -3.5t-3.5 -1.5q-10 -5 -18 -5q-15 0 -20 18q-2 10 1.5 27.5t13 40.5t25 49.5t38.5 54.5l44 54l-129 66q-4 -5 -7 -9l-4 -6t-3 -4q-30 -40 -95 -40zM185 322v16q0 77 89 77t89 -77v-16h-178z" />
    <glyph glyph-name="Ecaron" unicode="&#x11a;" horiz-adv-x="584" 
d="M495 285v148h-271v129h321v148h-484v-710h494v149h-331v136h271zM349 756l156 157h-143l-60 -64l-55 64h-151l156 -157h97z" />
    <glyph glyph-name="ecaron" unicode="&#x11b;" horiz-adv-x="543" 
d="M509 104l-125 64l-14 -19q-30 -40 -95 -40q-90 0 -90 79v25h330v111q0 46 -15.5 85t-45.5 67t-75 43.5t-105 15.5q-117 0 -178.5 -56.5t-61.5 -165.5v-106q0 -51 14.5 -92t43.5 -70t74.5 -44.5t106.5 -15.5q162 0 220 93zM315 575l142 146h-134l-52 -59l-55 59h-133
l145 -146h87zM363 322h-178v16q0 77 89 77t89 -77v-16z" />
    <glyph glyph-name="Gcircumflex" unicode="&#x11c;" horiz-adv-x="669" 
d="M337 576q98 0 126 -73l15 -38l153 54l-14 38q-61 168 -280 168q-141 0 -218 -71t-77 -198v-202q0 -127 77 -198t218 -71q69 0 124 17.5t93.5 49t58.5 75.5t20 96v178h-324v-144h162v-36q0 -38 -35.5 -62.5t-98.5 -24.5q-132 0 -132 119v204q0 119 132 119zM337 831
l55 -64h151l-156 157h-97l-156 -157h143z" />
    <glyph glyph-name="gcircumflex" unicode="&#x11d;" horiz-adv-x="544" 
d="M251 14q49 0 93 10v-43q0 -81 -80 -81q-55 0 -82 38l-14 20l-133 -69l17 -26q60 -93 215 -93q117 0 172.5 59t55.5 163v492l-37 18q-67 33 -189 33q-234 0 -234 -217v-97q0 -207 216 -207zM344 156q-35 -7 -74 -7q-40 0 -62 19t-22 54v96q0 82 91 82q34 0 63 -7l4 -1
v-236zM326 734h-92l-153 -154h138l59 62l55 -62h147z" />
    <glyph glyph-name="Gbreve" unicode="&#x11e;" horiz-adv-x="669" 
d="M617 557q-61 168 -280 168q-141 0 -218 -71t-77 -198v-202q0 -127 77 -198t218 -71q69 0 124 17.5t93.5 49t58.5 75.5t20 96v178h-324v-144h162v-36q0 -38 -35.5 -62.5t-98.5 -24.5q-132 0 -132 119v204q0 119 132 119q98 0 126 -73l15 -38l153 54zM394 910
q-16 -39 -57 -39q-40 0 -57 39l-9 22l-105 -40l9 -24q17 -48 59.5 -74.5t102.5 -26.5t102.5 26.5t60.5 74.5l9 24l-106 39z" />
    <glyph glyph-name="gbreve" unicode="&#x11f;" horiz-adv-x="544" 
d="M251 14q49 0 93 10v-43q0 -81 -80 -81q-55 0 -82 38l-14 20l-133 -69l17 -26q60 -93 215 -93q117 0 172.5 59t55.5 163v492l-37 18q-67 33 -189 33q-234 0 -234 -217v-97q0 -207 216 -207zM344 156q-35 -7 -74 -7q-40 0 -62 19t-22 54v96q0 82 91 82q34 0 63 -7l4 -1
v-236zM221 724l-9 22l-105 -40l9 -24q17 -48 59.5 -74.5t102.5 -26.5t102.5 26.5t60.5 74.5l9 25l-106 38l-9 -21q-16 -39 -57 -39q-40 0 -57 39z" />
    <glyph glyph-name="Gdotaccent" unicode="&#x120;" horiz-adv-x="669" 
d="M471 221q0 -38 -35.5 -62.5t-98.5 -24.5q-132 0 -132 119v204q0 119 132 119q98 0 126 -73l15 -38l153 54l-14 38q-61 168 -280 168q-141 0 -218 -71t-77 -198v-202q0 -127 77 -198t218 -71q69 0 124 17.5t93.5 49t58.5 75.5t20 96v178h-324v-144h162v-36zM337 773
q29 0 49.5 20.5t20.5 49.5t-20.5 49.5t-49.5 20.5t-49.5 -20.5t-20.5 -49.5t20.5 -49.5t49.5 -20.5z" />
    <glyph glyph-name="gdotaccent" unicode="&#x121;" horiz-adv-x="544" 
d="M264 -100q-55 0 -82 38l-14 20l-133 -69l17 -26q60 -93 215 -93q117 0 172.5 59t55.5 163v492l-37 18q-67 33 -189 33q-234 0 -234 -217v-97q0 -207 216 -207q49 0 93 10v-43q0 -81 -80 -81zM270 149q-40 0 -62 19t-22 54v96q0 82 91 82q34 0 63 -7l4 -1v-236
q-35 -7 -74 -7zM278 586q29 0 49.5 20.5t20.5 49.5t-20.5 49.5t-49.5 20.5t-49.5 -20.5t-20.5 -49.5t20.5 -49.5t49.5 -20.5z" />
    <glyph glyph-name="uni0122" unicode="&#x122;" horiz-adv-x="669" 
d="M337 576q98 0 126 -73l15 -38l153 54l-14 38q-61 168 -280 168q-141 0 -218 -71t-77 -198v-202q0 -127 77 -198t218 -71q69 0 124 17.5t93.5 49t58.5 75.5t20 96v178h-324v-144h162v-36q0 -38 -35.5 -62.5t-98.5 -24.5q-132 0 -132 119v204q0 119 132 119zM367 -259
l71 206h-156l-23 -206h108z" />
    <glyph glyph-name="uni0123" unicode="&#x123;" horiz-adv-x="545" 
d="M264 -100q-55 0 -82 38l-14 20l-133 -69l17 -26q60 -93 215 -93q117 0 172.5 59t55.5 163v492l-37 18q-67 33 -189 33q-234 0 -234 -217v-97q0 -207 216 -207q49 0 93 10v-43q0 -81 -80 -81zM270 149q-40 0 -62 19t-22 54v96q0 82 91 82q34 0 63 -7l4 -1v-236
q-35 -7 -74 -7zM358 742h-103l-69 -172h153z" />
    <glyph glyph-name="Hcircumflex" unicode="&#x124;" horiz-adv-x="689" 
d="M465 0h162v710h-162v-276h-241v276h-163v-710h163v285h241v-285zM297 914l-156 -157h143l60 64l55 -64h151l-156 157h-97z" />
    <glyph glyph-name="hcircumflex" unicode="&#x125;" horiz-adv-x="557" 
d="M206 391q8 2 27.5 4.5t41.5 2.5q85 0 85 -75v-323h151v328q0 207 -216 207q-21 0 -43 -1.5t-36 -3.5l-14 -2v212h-151v-740h151v390zM84 938l-151 -152h135l58 62l53 -62h145l-151 152h-89z" />
    <glyph glyph-name="Hbar" unicode="&#x126;" horiz-adv-x="708" 
d="M475 619h-242v91h-162v-91h-62v-90h62v-529h162v285h242v-285h162v529h63v90h-63v91h-162v-91zM233 434v95h242v-95h-242z" />
    <glyph glyph-name="hbar" unicode="&#x127;" horiz-adv-x="558" 
d="M206 391q9 2 27.5 4.5t41.5 2.5q85 0 85 -75v-323h152v328q0 100 -53.5 153.5t-162.5 53.5q-21 0 -43.5 -1.5t-36.5 -3.5l-14 -2v60h139v86h-139v66h-151v-66h-49v-86h49v-588h151v390z" />
    <glyph glyph-name="Itilde" unicode="&#x128;" horiz-adv-x="285" 
d="M224 0v710h-163v-710h163zM210 904v-22q0 -28 -16 -28q-14 0 -51 25t-77 25q-45 0 -67 -26.5t-22 -92.5v-22h88v21q0 29 17 29q14 0 51 -25t74 -25q48 0 69 26t21 92v23h-87z" />
    <glyph glyph-name="itilde" unicode="&#x129;" horiz-adv-x="252" 
d="M201 0v520h-151v-520h151zM62 617q0 24 17 24q8 0 17.5 -7t21.5 -16t26 -16t32 -7q39 0 58 26.5t19 93.5v23h-74v-21q0 -28 -16 -28q-12 0 -40 25q-28 24 -61 24q-37 0 -56 -26.5t-19 -93.5v-23h75v22z" />
    <glyph glyph-name="Imacron" unicode="&#x12a;" horiz-adv-x="285" 
d="M61 0h163v710h-163v-710zM295 781v102h-304v-102h304z" />
    <glyph glyph-name="imacron" unicode="&#x12b;" horiz-adv-x="252" 
d="M50 0h151v520h-151v-520zM224 601v99h-198v-99h198z" />
    <glyph glyph-name="Ibreve" unicode="&#x12c;" horiz-adv-x="285" 
d="M224 0v710h-163v-710h163zM143 862q-42 0 -57 39l-10 22l-104 -40l8 -24q17 -48 60 -74.5t103 -26.5q59 0 102 26.5t61 74.5l9 25l-106 38l-9 -21q-18 -39 -57 -39z" />
    <glyph glyph-name="ibreve" unicode="&#x12d;" horiz-adv-x="252" 
d="M201 0v520h-151v-520h151zM126 687q-35 0 -48 37l-9 23l-105 -40l9 -24q38 -102 153 -102q118 0 155 102l9 24l-106 38l-9 -21q-16 -37 -49 -37z" />
    <glyph glyph-name="Iogonek" unicode="&#x12e;" horiz-adv-x="285" 
d="M178 -142q-17 0 -20 18q-4 19 8.5 54.5t46.5 74.5l11 13v692h-163v-710h49q-43 -45 -63.5 -92.5t-12.5 -87.5q11 -65 98 -65q60 0 101 35l9 8l-31 76l-16 -11q-8 -5 -17 -5z" />
    <glyph glyph-name="iogonek" unicode="&#x12f;" horiz-adv-x="252" 
d="M193 8l8 12v500h-151v-520h38q-77 -100 -61 -180q11 -65 98 -65q56 0 97 35l10 8l-28 75l-17 -11q-5 -4 -15 -4q-16 0 -21 18q-9 55 42 132zM126 719q-32 0 -54 -22t-22 -54t22 -54t54 -22t54 22t22 54t-22 54t-54 22z" />
    <glyph glyph-name="Idotaccent" unicode="&#x130;" horiz-adv-x="285" 
d="M224 0v710h-163v-710h163zM143 903q-29 0 -49.5 -20.5t-20.5 -49.5t20.5 -49.5t49.5 -20.5t49.5 20.5t20.5 49.5t-20.5 49.5t-49.5 20.5z" />
    <glyph glyph-name="dotlessi" unicode="&#x131;" horiz-adv-x="252" 
d="M50 520v-520h151v520h-151z" />
    <glyph glyph-name="IJ" unicode="&#x132;" horiz-adv-x="868" 
d="M452 201l-16 38l-153 -54l14 -38q60 -162 250 -162q130 0 197.5 67.5t67.5 188.5v469h-163v-470q0 -107 -101 -107q-37 0 -59 16.5t-37 51.5zM224 710h-163v-710h163v710z" />
    <glyph glyph-name="ij" unicode="&#x133;" horiz-adv-x="501" 
d="M299 520v-521q0 -92 -91 -92h-38v-137h38q242 0 242 222v528h-151zM50 0h151v520h-151v-520zM51 643q0 -32 22 -54t54 -22t54 22t22 54t-22 54t-54 22t-54 -22t-22 -54zM375 719q-32 0 -54 -22t-22 -54t22 -54t54 -22t54 22t22 54t-22 54t-54 22z" />
    <glyph glyph-name="Jcircumflex" unicode="&#x134;" horiz-adv-x="582" 
d="M261 -15q130 0 197.5 67.5t67.5 188.5v469h-163v-470q0 -107 -101 -107q-37 0 -59 16.5t-37 51.5l-16 38l-153 -54l14 -38q60 -162 250 -162zM385 757l60 64l55 -64h151l-156 157h-97l-156 -157h143z" />
    <glyph glyph-name="jcircumflex" unicode="&#x135;" horiz-adv-x="253" 
d="M202 520h-151v-521q0 -92 -91 -92h-38v-137h38q242 0 242 222v528zM126 642l55 -62h147l-153 154h-93l-153 -154h139z" />
    <glyph glyph-name="uni0136" unicode="&#x136;" horiz-adv-x="641" 
d="M406 392l237 318h-192l-202 -277h-25v277h-163v-710h163v287h26q20 0 34 -2.5t24.5 -8.5t18.5 -16.5t16 -25.5l5.5 -10.5t13.5 -27t18.5 -37.5l21.5 -43q26 -51 58 -116h188l-151 287q-41 77 -91 105zM238 -259h108l71 206h-156z" />
    <glyph glyph-name="uni0137" unicode="&#x137;" horiz-adv-x="536" 
d="M537 520h-174l-134 -189h-27v409h-151v-740h151v197h35q48 0 64 -40l68 -157h167l-109 221q-25 50 -56 72zM205 -230h106l64 183h-152z" />
    <glyph glyph-name="kgreenlandic" unicode="&#x138;" horiz-adv-x="526" 
d="M242 169l111 -169h181l-192 289l191 231h-181l-151 -189v189h-151v-520h151v119z" />
    <glyph glyph-name="Lacute" unicode="&#x139;" horiz-adv-x="534" 
d="M523 149h-299v561h-163v-710h462v149zM206 934l-205 -120l49 -65l240 85z" />
    <glyph glyph-name="lacute" unicode="&#x13a;" horiz-adv-x="256" 
d="M204 0v740h-151v-740h151zM-11 827l52 -68l223 73l-85 105z" />
    <glyph glyph-name="uni013B" unicode="&#x13b;" horiz-adv-x="534" 
d="M224 149v561h-163v-710h462v149h-299zM305 -259l71 206h-156l-23 -206h108z" />
    <glyph glyph-name="uni013C" unicode="&#x13c;" horiz-adv-x="256" 
d="M204 0v740h-151v-740h151zM38 -221h106l64 183h-152z" />
    <glyph glyph-name="Lcaron" unicode="&#x13d;" horiz-adv-x="536" 
d="M523 0v149h-299v561h-163v-710h462zM485 710h-151l-26 -231h96z" />
    <glyph glyph-name="lcaron" unicode="&#x13e;" horiz-adv-x="282" 
d="M53 0h151v740h-151v-740zM342 532l79 208h-151l-23 -208h95z" />
    <glyph glyph-name="Ldot" unicode="&#x13f;" horiz-adv-x="536" 
d="M523 0v149h-299v561h-163v-710h462zM385 312q17 0 32.5 6.5t26.5 18t17.5 26.5t6.5 33q0 35 -24 59t-59 24q-18 0 -33 -6.5t-26.5 -17.5t-18 -26.5t-6.5 -32.5q0 -35 24.5 -59.5t59.5 -24.5z" />
    <glyph glyph-name="ldot" unicode="&#x140;" horiz-adv-x="430" 
d="M53 0h151v740h-151v-740zM431 377q0 35 -25 60t-60 25t-60 -25t-25 -60t25 -60t60 -25t60 25t25 60z" />
    <glyph glyph-name="Lslash" unicode="&#x141;" horiz-adv-x="574" 
d="M262 322l198 89l-45 93l-153 -68v274h-163v-347l-116 -52l46 -93l70 31v-249h462v149h-299v173z" />
    <glyph glyph-name="lslash" unicode="&#x142;" horiz-adv-x="360" 
d="M317 504l-63 -34v270h-151v-351l-109 -58l51 -88l58 31v-274h151v355l113 61z" />
    <glyph glyph-name="Nacute" unicode="&#x143;" horiz-adv-x="699" 
d="M217 1v412l271 -412h149v710h-155v-410l-271 410h-150v-710h156zM258 748l237 87l-84 99l-206 -123z" />
    <glyph glyph-name="nacute" unicode="&#x144;" 
d="M200 388l3 1q32 9 70 9q85 0 85 -75v-323h151v328q0 207 -216 207q-117 0 -204 -36l-40 -16v-483h151v388zM425 659l-83 100l-207 -123l53 -64z" />
    <glyph glyph-name="uni0145" unicode="&#x145;" horiz-adv-x="699" 
d="M482 711v-410l-271 410h-150v-710h156v412l271 -412h149v710h-155zM289 -53l-23 -206h108l71 206h-156z" />
    <glyph glyph-name="uni0146" unicode="&#x146;" 
d="M200 0v388l3 1q32 9 70 9q85 0 85 -75v-323h151v328q0 207 -216 207q-117 0 -204 -36l-40 -16v-483h151zM368 -37h-152l-17 -183h105z" />
    <glyph glyph-name="Ncaron" unicode="&#x147;" horiz-adv-x="699" 
d="M217 1v412l271 -412h149v710h-155v-410l-271 410h-150v-710h156zM349 849l-55 64h-151l156 -157h97l156 157h-143z" />
    <glyph glyph-name="ncaron" unicode="&#x148;" 
d="M358 323v-323h151v328q0 207 -216 207q-117 0 -204 -36l-40 -16v-483h151v388l3 1q32 9 70 9q85 0 85 -75zM322 575l142 146h-134l-52 -59l-55 59h-133l145 -146h87z" />
    <glyph glyph-name="napostrophe" unicode="&#x149;" 
d="M200 0v388l3 1q32 9 70 9q85 0 85 -75v-323h151v328q0 207 -216 207q-117 0 -204 -36l-40 -16v-483h151zM121 539l129 201h-158l-70 -201h99z" />
    <glyph glyph-name="Eng" unicode="&#x14a;" horiz-adv-x="699" 
d="M395 -93h-38v-137h38q242 0 242 222v718h-155v-410l-270 410h-151v-710h156v413l264 -401v-14q0 -45 -19 -68t-67 -23z" />
    <glyph glyph-name="eng" unicode="&#x14b;" horiz-adv-x="556" 
d="M275 -98h-36v-132h36q234 0 234 214v344q0 207 -216 207q-117 0 -204 -36l-40 -16v-483h151v385q0 4 3 4q32 9 70 9q85 0 85 -75v-333q0 -43 -18.5 -65.5t-64.5 -22.5z" />
    <glyph glyph-name="Omacron" unicode="&#x14c;" horiz-adv-x="675" 
d="M633 456q0 127 -77 198t-219 71q-141 0 -218 -71t-77 -198v-202q0 -127 77 -198t218 -71q142 0 219 71t77 198v202zM205 459q0 58 34 87.5t98 29.5q133 0 133 -117v-208q0 -117 -133 -117q-64 0 -98 29.5t-34 87.5v208zM489 791v102h-303v-102h303z" />
    <glyph glyph-name="omacron" unicode="&#x14d;" horiz-adv-x="547" 
d="M512 324q0 100 -60.5 155.5t-178.5 55.5q-117 0 -177.5 -55.5t-60.5 -155.5v-129q0 -100 60.5 -155t177.5 -55q118 0 178.5 55t60.5 155v129zM186 326q0 75 87 75q88 0 88 -75v-132q0 -75 -88 -75q-87 0 -87 75v132zM412 601v98h-278v-98h278z" />
    <glyph glyph-name="Obreve" unicode="&#x14e;" horiz-adv-x="675" 
d="M337 -15q142 0 219 71t77 198v202q0 127 -77 198t-219 71q-141 0 -218 -71t-77 -198v-202q0 -127 77 -198t218 -71zM470 251q0 -117 -133 -117q-64 0 -98 29.5t-34 87.5v208q0 58 34 87.5t98 29.5q133 0 133 -117v-208zM337 767q60 0 102.5 26.5t60.5 74.5l9 24l-106 39
l-9 -21q-16 -39 -57 -39q-40 0 -57 39l-9 22l-105 -40l9 -24q17 -48 59.5 -74.5t102.5 -26.5z" />
    <glyph glyph-name="obreve" unicode="&#x14f;" horiz-adv-x="547" 
d="M273 -15q118 0 178.5 55t60.5 155v129q0 100 -60.5 155.5t-178.5 55.5q-117 0 -177.5 -55.5t-60.5 -155.5v-129q0 -100 60.5 -155t177.5 -55zM361 194q0 -75 -88 -75q-87 0 -87 75v132q0 75 87 75q88 0 88 -75v-132zM273 581q60 0 102.5 26.5t60.5 74.5l9 25l-106 38
l-9 -21q-16 -39 -57 -39q-40 0 -57 39l-9 22l-105 -40l9 -24q17 -48 59.5 -74.5t102.5 -26.5z" />
    <glyph glyph-name="Ohungarumlaut" unicode="&#x150;" horiz-adv-x="675" 
d="M633 456q0 127 -77 198t-219 71q-141 0 -218 -71t-77 -198v-202q0 -127 77 -198t218 -71q142 0 219 71t77 198v202zM337 576q133 0 133 -117v-208q0 -117 -133 -117q-64 0 -98 29.5t-34 87.5v208q0 58 34 87.5t98 29.5zM405 762l172 138l-133 39l-117 -157zM159 786
l77 -21l159 138l-129 37z" />
    <glyph glyph-name="ohungarumlaut" unicode="&#x151;" horiz-adv-x="547" 
d="M512 324q0 100 -60.5 155.5t-178.5 55.5q-117 0 -177.5 -55.5t-60.5 -155.5v-129q0 -100 60.5 -155t177.5 -55q118 0 178.5 55t60.5 155v129zM273 401q88 0 88 -75v-132q0 -75 -88 -75q-87 0 -87 75v132q0 75 87 75zM335 564l159 127l-122 36l-107 -144zM208 728
l-100 -143l73 -17l147 125z" />
    <glyph glyph-name="OE" unicode="&#x152;" horiz-adv-x="871" 
d="M569 285h213v148h-213v129h263v148h-380q-51 15 -115 15q-141 0 -218 -71t-77 -198v-202q0 -127 77 -198t218 -71q68 0 117 15h388v149h-273v136zM205 459q0 58 34 87.5t98 29.5q39 0 69 -11v-420q-30 -11 -69 -11q-64 0 -98 29.5t-34 87.5v208z" />
    <glyph glyph-name="oe" unicode="&#x153;" horiz-adv-x="825" 
d="M797 213v111q0 47 -14.5 85.5t-43.5 66.5t-72.5 43.5t-100.5 15.5q-95 0 -151 -45q-57 45 -153 45q-112 0 -169.5 -55.5t-57.5 -155.5v-129q0 -100 57.5 -155t169.5 -55q97 0 152 45q59 -45 151 -45q153 0 210 93l17 28l-125 64q-4 -6 -7 -10t-5.5 -7.5t-3.5 -4.5
q-28 -39 -84 -39q-81 0 -81 79v25h311zM262 401q78 0 78 -74v-134q0 -74 -78 -74q-76 0 -76 74v134q0 74 76 74zM487 338q0 77 79 77t79 -77v-16h-158v16z" />
    <glyph glyph-name="Racute" unicode="&#x154;" horiz-adv-x="656" 
d="M646 0l-126 240q-9 16 -14 24.5t-7 10.5q32 14 54 35t36 48t20 58t6 64q0 54 -16.5 96.5t-47 72.5t-74.5 45.5t-98 15.5h-318v-710h163v252h41q21 0 36 -2.5t26 -9.5t19.5 -18t17.5 -29l93 -193h189zM363 398h-139v164h139q40 0 61.5 -21.5t21.5 -60.5q0 -40 -21.5 -61
t-61.5 -21zM472 834l-83 100l-206 -123l52 -64z" />
    <glyph glyph-name="racute" unicode="&#x155;" horiz-adv-x="358" 
d="M200 386q0 6 6 7q29 7 71 7h74v135h-70q-126 -5 -192 -31q-24 -10 -32 -21.5t-8 -36.5v-446h151v386zM351 657l-83 100l-207 -123l53 -64z" />
    <glyph glyph-name="uni0156" unicode="&#x156;" horiz-adv-x="656" 
d="M646 0l-126 240q-9 16 -14 24.5t-7 10.5q32 14 54 35t36 48t20 58t6 64q0 54 -16.5 96.5t-47 72.5t-74.5 45.5t-98 15.5h-318v-710h163v252h41q21 0 36 -2.5t26 -9.5t19.5 -18t17.5 -29l93 -193h189zM224 398v164h139q40 0 61.5 -21.5t21.5 -60.5q0 -40 -21.5 -61
t-61.5 -21h-139zM273 -53l-23 -206h108l71 206h-156z" />
    <glyph glyph-name="uni0157" unicode="&#x157;" horiz-adv-x="358" 
d="M206 393q29 7 71 7h74v135h-70q-126 -5 -192 -31q-24 -10 -32 -21.5t-8 -36.5v-446h151v386q0 6 6 7zM142 -223l64 183h-152l-18 -183h106z" />
    <glyph glyph-name="Rcaron" unicode="&#x158;" horiz-adv-x="656" 
d="M646 0l-126 240q-9 16 -14 24.5t-7 10.5q32 14 54 35t36 48t20 58t6 64q0 54 -16.5 96.5t-47 72.5t-74.5 45.5t-98 15.5h-318v-710h163v252h41q21 0 36 -2.5t26 -9.5t19.5 -18t17.5 -29l93 -193h189zM371 756l156 157h-143l-60 -64l-55 64h-151l156 -157h97zM446 480
q0 -40 -21.5 -61t-61.5 -21h-139v164h139q40 0 61.5 -21.5t21.5 -60.5z" />
    <glyph glyph-name="rcaron" unicode="&#x159;" horiz-adv-x="358" 
d="M200 386q0 6 6 7q29 7 71 7h74v135h-70q-126 -5 -192 -31q-24 -10 -32 -21.5t-8 -36.5v-446h151v386zM162 575h87l142 146h-134l-52 -59l-55 59h-133z" />
    <glyph glyph-name="Sacute" unicode="&#x15a;" horiz-adv-x="639" 
d="M313 283q66 -7 100.5 -22.5t34.5 -49.5q0 -79 -133 -79q-97 0 -129 69q0 2 -3 7.5t-6 12.5q-4 7 -8 17l-149 -53l14 -38q60 -162 281 -162q69 0 124 16t93.5 46t59 72.5t20.5 94.5q0 62 -21 102t-57 64t-83 36t-98 18q-18 2 -32.5 4t-26.5 4t-22.5 5t-22.5 7
q-46 16 -46 54q0 36 27.5 52.5t90.5 16.5q85 0 118 -66l13 -26l150 65l-13 28q-35 75 -98 111t-170 36q-68 0 -121 -16.5t-89.5 -46t-55.5 -70.5t-19 -91q4 -67 27 -107t60 -62.5t86 -32t104 -16.5zM467 843l-84 101l-205 -121l49 -64z" />
    <glyph glyph-name="sacute" unicode="&#x15b;" horiz-adv-x="510" 
d="M468 428q-57 107 -222 107q-105 0 -160 -45.5t-55 -121.5q0 -47 17 -77t45.5 -48t65.5 -26.5t77 -12.5q31 -3 51.5 -6.5t32.5 -8.5t17 -13t5 -20q0 -41 -86 -41q-73 0 -91 38l-11 24l-135 -44l12 -29q48 -119 230 -119q108 0 166.5 47.5t58.5 126.5q0 42 -12.5 71t-39 48
t-66.5 29.5t-94 15.5q-55 5 -76 14t-21 31q0 36 74 36q60 0 87 -38l14 -20l131 55zM401 658l-84 100l-205 -121l49 -64z" />
    <glyph glyph-name="Scircumflex" unicode="&#x15c;" horiz-adv-x="639" 
d="M313 283q66 -7 100.5 -22.5t34.5 -49.5q0 -79 -133 -79q-97 0 -129 69q0 2 -3 7.5t-6 12.5q-4 7 -8 17l-149 -53l14 -38q60 -162 281 -162q69 0 124 16t93.5 46t59 72.5t20.5 94.5q0 62 -21 102t-57 64t-83 36t-98 18q-18 2 -32.5 4t-26.5 4t-22.5 5t-22.5 7
q-46 16 -46 54q0 36 27.5 52.5t90.5 16.5q85 0 118 -66l13 -26l150 65l-13 28q-35 75 -98 111t-170 36q-68 0 -121 -16.5t-89.5 -46t-55.5 -70.5t-19 -91q4 -67 27 -107t60 -62.5t86 -32t104 -16.5zM371 924h-97l-156 -157h143l60 64l55 -64h151z" />
    <glyph glyph-name="scircumflex" unicode="&#x15d;" horiz-adv-x="510" 
d="M236 204q31 -3 51.5 -6.5t32.5 -8.5t17 -13t5 -20q0 -41 -86 -41q-73 0 -91 38l-11 24l-135 -44l12 -29q48 -119 230 -119q108 0 166.5 47.5t58.5 126.5q0 42 -12.5 71t-39 48t-66.5 29.5t-94 15.5q-55 5 -76 14t-21 31q0 36 74 36q60 0 87 -38l14 -20l131 55l-15 27
q-57 107 -222 107q-105 0 -160 -45.5t-55 -121.5q0 -47 17 -77t45.5 -48t65.5 -26.5t77 -12.5zM254 642l55 -62h147l-154 154h-92l-154 -154h139z" />
    <glyph glyph-name="Scedilla" unicode="&#x15e;" horiz-adv-x="638" 
d="M34 147q57 -152 255 -161l-45 -102h47q38 -2 38 -22q0 -27 -39 -27q-28 0 -54 14l-21 11v-84l21 -10q25 -11 71 -11q131 0 143 99q5 42 -18.5 69t-63.5 27h-9l15 38q112 14 175 73.5t63 152.5q0 62 -21 102t-57 64t-83 36t-98 18q-18 2 -32.5 4t-26.5 4t-22.5 5t-22.5 7
q-46 16 -46 54q0 36 27.5 52.5t90.5 16.5q85 0 118 -66l13 -26l150 65l-13 28q-35 75 -98 111t-170 36q-68 0 -121 -16.5t-89.5 -46t-55.5 -70.5t-19 -91q4 -67 27 -107t60 -62.5t86 -32t104 -16.5q66 -7 100.5 -22.5t34.5 -49.5q0 -79 -133 -79q-97 0 -129 69q0 2 -3 7.5
t-6 12.5q-4 7 -8 17l-149 -53z" />
    <glyph glyph-name="scedilla" unicode="&#x15f;" horiz-adv-x="510" 
d="M167 -241q25 -11 71 -11q131 0 143 99q5 42 -18.5 69t-63.5 27h-9l18 45q86 10 132 55.5t46 115.5q0 42 -12.5 71t-39 48t-66.5 29.5t-94 15.5q-55 5 -76 14t-21 31q0 36 74 36q60 0 87 -38l14 -20l131 55l-15 27q-57 107 -222 107q-105 0 -160 -45.5t-55 -121.5
q0 -47 17 -77t45.5 -48t65.5 -26.5t77 -12.5q31 -3 51.5 -6.5t32.5 -8.5t17 -13t5 -20q0 -41 -86 -41q-73 0 -91 38l-11 24l-135 -44l12 -29q43 -106 192 -118l-48 -109h47q38 -2 38 -22q0 -27 -39 -27q-28 0 -54 14l-21 11v-84z" />
    <glyph glyph-name="Scaron" unicode="&#x160;" horiz-adv-x="639" 
d="M313 283q66 -7 100.5 -22.5t34.5 -49.5q0 -79 -133 -79q-97 0 -129 69q0 2 -3 7.5t-6 12.5q-4 7 -8 17l-149 -53l14 -38q60 -162 281 -162q69 0 124 16t93.5 46t59 72.5t20.5 94.5q0 62 -21 102t-57 64t-83 36t-98 18q-18 2 -32.5 4t-26.5 4t-22.5 5t-22.5 7
q-46 16 -46 54q0 36 27.5 52.5t90.5 16.5q85 0 118 -66l13 -26l150 65l-13 28q-35 75 -98 111t-170 36q-68 0 -121 -16.5t-89.5 -46t-55.5 -70.5t-19 -91q4 -67 27 -107t60 -62.5t86 -32t104 -16.5zM270 766h97l156 157h-143l-60 -64l-55 64h-151z" />
    <glyph glyph-name="scaron" unicode="&#x161;" horiz-adv-x="510" 
d="M236 204q31 -3 51.5 -6.5t32.5 -8.5t17 -13t5 -20q0 -41 -86 -41q-73 0 -91 38l-11 24l-135 -44l12 -29q48 -119 230 -119q108 0 166.5 47.5t58.5 126.5q0 42 -12.5 71t-39 48t-66.5 29.5t-94 15.5q-55 5 -76 14t-21 31q0 36 74 36q60 0 87 -38l14 -20l131 55l-15 27
q-57 107 -222 107q-105 0 -160 -45.5t-55 -121.5q0 -47 17 -77t45.5 -48t65.5 -26.5t77 -12.5zM305 718l-52 -59l-55 59h-133l145 -146h87l142 146h-134z" />
    <glyph glyph-name="Tcaron" unicode="&#x164;" horiz-adv-x="583" 
d="M373 562h197v148h-557v-148h198v-562h162v562zM291 849l-55 64h-151l156 -157h97l156 157h-143z" />
    <glyph glyph-name="tcaron" unicode="&#x165;" horiz-adv-x="401" 
d="M342 -14h37v139h-37q-26 0 -43.5 4t-28.5 14.5t-15.5 28.5t-4.5 46v168h129v134h-129v120h-151v-120h-90v-134h90v-174q0 -68 14 -111.5t43 -69t75.5 -35.5t110.5 -10zM455 740h-153l-13 -185h94z" />
    <glyph glyph-name="Tbar" unicode="&#x166;" horiz-adv-x="598" 
d="M218 562v-186h-129v-108h129v-268h162v268h129v108h-129v186h197v148h-556v-148h197z" />
    <glyph glyph-name="tbar" unicode="&#x167;" horiz-adv-x="402" 
d="M251 387h129v134h-129v120h-151v-120h-90v-134h90v-72h-73v-95h73v-8q0 -67 14 -111t43 -69t75 -35t110 -10h38v139h-38q-26 0 -43.5 3.5t-28 13t-15 27t-4.5 44.5v6h99v95h-99v72z" />
    <glyph glyph-name="Utilde" unicode="&#x168;" horiz-adv-x="691" 
d="M345 -15q70 0 124 18.5t91 52.5t56 83.5t19 110.5v460h-163v-464q0 -113 -127 -113q-63 0 -95 29t-32 84v464h-162v-460q0 -61 19 -110.5t56 -83.5t91 -52.5t123 -18.5zM412 882q0 -28 -16 -28q-14 0 -51 25t-77 25q-45 0 -67 -26.5t-22 -92.5v-22h88v21q0 29 17 29
q14 0 51 -25t74 -25q48 0 69 26t21 92v23h-87v-22z" />
    <glyph glyph-name="utilde" unicode="&#x169;" 
d="M348 129q-29 -7 -66 -7q-85 0 -85 75v323h-151v-328q0 -207 216 -207q117 0 205 36l39 16v483h-151v-389zM327 681q-14 0 -51 25t-77 25q-45 0 -67 -26.5t-22 -92.5v-22h88v21q0 29 17 29q14 0 51 -25t74 -25q48 0 69 26t21 92v23h-87v-22q0 -28 -16 -28z" />
    <glyph glyph-name="Umacron" unicode="&#x16a;" horiz-adv-x="691" 
d="M345 133q-63 0 -95 29t-32 84v464h-162v-460q0 -61 19 -110.5t56 -83.5t91 -52.5t123 -18.5q70 0 124 18.5t91 52.5t56 83.5t19 110.5v460h-163v-464q0 -113 -127 -113zM497 781v102h-303v-102h303z" />
    <glyph glyph-name="umacron" unicode="&#x16b;" 
d="M197 197v323h-151v-328q0 -207 216 -207q117 0 205 36l39 16v483h-151v-389l-7 -2q-29 -7 -66 -7q-85 0 -85 75zM428 604v102h-303v-102h303z" />
    <glyph glyph-name="Ubreve" unicode="&#x16c;" horiz-adv-x="691" 
d="M635 710h-163v-464q0 -113 -127 -113q-63 0 -95 29t-32 84v464h-162v-460q0 -61 19 -110.5t56 -83.5t91 -52.5t123 -18.5q70 0 124 18.5t91 52.5t56 83.5t19 110.5v460zM411 922l-9 -21q-16 -39 -57 -39q-40 0 -57 39l-9 22l-105 -40l9 -24q17 -48 59.5 -74.5
t102.5 -26.5t102.5 26.5t60.5 74.5l9 25z" />
    <glyph glyph-name="ubreve" unicode="&#x16d;" 
d="M355 520v-389l-7 -2q-29 -7 -66 -7q-85 0 -85 75v323h-151v-328q0 -207 216 -207q117 0 205 36l39 16v483h-151zM342 745l-9 -21q-16 -39 -57 -39q-40 0 -57 39l-9 22l-105 -40l9 -24q17 -48 59.5 -74.5t102.5 -26.5t102.5 26.5t60.5 74.5l9 25z" />
    <glyph glyph-name="Uring" unicode="&#x16e;" horiz-adv-x="691" 
d="M472 246q0 -113 -127 -113q-63 0 -95 29t-32 84v464h-162v-460q0 -61 19 -110.5t56 -83.5t91 -52.5t123 -18.5q70 0 124 18.5t91 52.5t56 83.5t19 110.5v460h-163v-464zM351 742q50 0 82.5 30.5t32.5 79.5q0 50 -32 81t-83 31q-52 0 -85 -31t-33 -81q0 -49 33 -79.5
t85 -30.5zM351 894q17 0 28.5 -11.5t11.5 -30.5q0 -18 -11.5 -29t-28.5 -11q-19 0 -31.5 11.5t-12.5 28.5q0 19 12 30.5t32 11.5z" />
    <glyph glyph-name="uring" unicode="&#x16f;" 
d="M348 129q-29 -7 -66 -7q-85 0 -85 75v323h-151v-328q0 -207 216 -207q117 0 205 36l39 16v483h-151v-389zM276 539q50 0 82.5 31t32.5 80t-32.5 80.5t-82.5 31.5q-52 0 -85 -31t-33 -81t33 -80q33 -31 85 -31zM276 691q17 0 28.5 -11.5t11.5 -29.5t-11 -29
q-12 -12 -29 -12q-19 0 -31.5 11.5t-12.5 29.5t12.5 29.5t31.5 11.5z" />
    <glyph glyph-name="Uhungarumlaut" unicode="&#x170;" horiz-adv-x="691" 
d="M472 710v-464q0 -113 -127 -113q-63 0 -95 29t-32 84v464h-162v-460q0 -61 19 -110.5t56 -83.5t91 -52.5t123 -18.5q70 0 124 18.5t91 52.5t56 83.5t19 110.5v460h-163zM586 889l-133 39l-117 -157l78 -20zM168 775l77 -21l159 138l-129 37z" />
    <glyph glyph-name="uhungarumlaut" unicode="&#x171;" 
d="M355 131l-7 -2q-29 -7 -66 -7q-85 0 -85 75v323h-151v-328q0 -207 216 -207q117 0 205 36l39 16v483h-151v-389zM513 706l-132 39l-117 -157l78 -20zM203 747l-107 -155l77 -20l159 137z" />
    <glyph glyph-name="Uogonek" unicode="&#x172;" horiz-adv-x="691" 
d="M472 710v-464q0 -113 -127 -113q-63 0 -95 29t-32 84v464h-162v-460q0 -61 19 -110.5t56 -83.5t91 -52.5t123 -18.5q27 0 49 3q-84 -91 -70 -169q12 -64 96 -64q60 0 101 35l10 9l-32 73l-15 -9q-8 -5 -17 -5q-16 0 -21 18q-3 19 22 66t84 107q83 71 83 201v460h-163z
" />
    <glyph glyph-name="uogonek" unicode="&#x173;" horiz-adv-x="556" 
d="M448 -142q-16 0 -21 18q-3 19 13.5 64.5t56.5 99.5l9 12v468h-151v-380q0 -8 -7 -11q-29 -7 -66 -7q-85 0 -85 75v323h-151v-328q0 -207 216 -207q61 0 111 10q-84 -95 -70 -175q12 -65 98 -65q63 0 101 35l10 9l-32 75l-15 -10q-9 -6 -17 -6z" />
    <glyph glyph-name="Wcircumflex" unicode="&#x174;" horiz-adv-x="919" 
d="M661 266l-112 444h-166l-114 -438l-82 438h-178l176 -710h163l111 437l110 -437h163l178 710h-167zM521 757h151l-156 157h-97l-156 -157h143l60 64z" />
    <glyph glyph-name="wcircumflex" unicode="&#x175;" horiz-adv-x="748" 
d="M527 228l-81 292h-139l-79 -289l-62 289h-159l146 -520h136l83 311l83 -311h140l146 520h-154zM431 580h147l-154 154h-92l-154 -154h139l59 62z" />
    <glyph glyph-name="Ycircumflex" unicode="&#x176;" horiz-adv-x="658" 
d="M477 710l-147 -269l-144 269h-199l260 -432v-278h163v276l260 434h-193zM273 759l59 62l55 -62h147l-154 154h-92l-154 -154h139z" />
    <glyph glyph-name="ycircumflex" unicode="&#x177;" horiz-adv-x="557" 
d="M262 15q59 0 93 7v-41q0 -81 -80 -81q-54 0 -81 38l-22 31l-132 -67l24 -39q59 -93 214 -93q117 0 172.5 59t55.5 163v528h-151v-361q-20 -4 -38 -5.5t-35 -1.5q-85 0 -85 75v293h-151v-298q0 -207 216 -207zM276 642l55 -62h147l-154 154h-92l-154 -154h139z" />
    <glyph glyph-name="Ydieresis" unicode="&#x178;" horiz-adv-x="658" 
d="M247 0h163v276l260 434h-193l-147 -269l-144 269h-199l260 -432v-278zM229 902q-29 0 -49 -20t-20 -49t20 -49t49 -20t49 20t20 49t-20 49t-49 20zM365 833q0 -29 20 -49t49 -20t49 20t20 49t-20 49t-49 20t-49 -20t-20 -49z" />
    <glyph glyph-name="Zacute" unicode="&#x179;" horiz-adv-x="601" 
d="M569 149h-329l324 440v121h-527v-148h319l-324 -440v-122h537v149zM164 811l52 -64l237 87l-83 100z" />
    <glyph glyph-name="zacute" unicode="&#x17a;" horiz-adv-x="483" 
d="M454 134h-236l231 267v119h-415v-134h220l-225 -267v-119h425v134zM98 635l53 -64l237 87l-83 100z" />
    <glyph glyph-name="Zdotaccent" unicode="&#x17b;" horiz-adv-x="601" 
d="M564 589v121h-527v-148h319l-324 -440v-122h537v149h-329zM307 903q-29 0 -49.5 -20.5t-20.5 -49.5t20.5 -49.5t49.5 -20.5t49.5 20.5t20.5 49.5t-20.5 49.5t-49.5 20.5z" />
    <glyph glyph-name="zdotaccent" unicode="&#x17c;" horiz-adv-x="483" 
d="M449 401v119h-415v-134h220l-225 -267v-119h425v134h-236zM241 726q-29 0 -49.5 -20.5t-20.5 -49.5t20.5 -49.5t49.5 -20.5t49.5 20.5t20.5 49.5t-20.5 49.5t-49.5 20.5z" />
    <glyph glyph-name="Zcaron" unicode="&#x17d;" horiz-adv-x="601" 
d="M569 149h-329l324 440v121h-527v-148h319l-324 -440v-122h537v149zM99 913l156 -157h97l156 157h-143l-60 -64l-55 64h-151z" />
    <glyph glyph-name="zcaron" unicode="&#x17e;" horiz-adv-x="483" 
d="M218 134l231 267v119h-415v-134h220l-225 -267v-119h425v134h-236zM186 716h-128l139 -143h86l138 143h-131l-50 -57z" />
    <glyph glyph-name="longs" unicode="&#x17f;" horiz-adv-x="316" 
d="M245 515q0 91 91 91h37v134h-37q-121 0 -182 -55t-61 -161v-4h-80v-134h80v-386h152v515z" />
    <glyph glyph-name="florin" unicode="&#x192;" horiz-adv-x="472" 
d="M311 421l10 88q5 48 26 71t71 23h37v137h-37q-119 0 -178 -58t-70 -169l-10 -92h-130v-137h116l-28 -273q-5 -48 -26 -71t-71 -23h-37v-137h37q119 0 177.5 58t70.5 169l28 277h137v137h-123z" />
    <glyph glyph-name="Aringacute" unicode="&#x1fa;" horiz-adv-x="671" 
d="M428 652q33 29 33 75q0 54 -35 86.5t-89 32.5q-57 0 -92 -32.5t-35 -86.5q0 -47 34 -75l-253 -652h173l44 131h247l43 -131h179zM251 263l81 243l80 -243h-161zM478 915l-74 74l-197 -89l51 -48zM337 774q14 0 24 -8t14.5 -19t3 -24t-11.5 -23q-12 -12 -30 -12
q-22 0 -33 13.5t-11 29.5t11 29.5t33 13.5z" />
    <glyph glyph-name="aringacute" unicode="&#x1fb;" horiz-adv-x="524" 
d="M331 334v-22q-16 1 -33.5 1.5t-37.5 0.5q-63 0 -107.5 -8.5t-72 -27.5t-40.5 -50.5t-13 -77.5q0 -42 11.5 -73.5t38 -51.5t70.5 -30t109 -10q129 0 189 27q2 1 7.5 3.5t12.5 5.5q8 4 17 8v295q0 211 -223 211q-158 0 -214 -104l-15 -29l125 -52l16 21q28 37 83 37
q77 0 77 -74zM342 592q32 30 32 79t-32 80t-82 31q-51 0 -84 -31t-33 -80q0 -48 33 -78.5t84 -30.5q50 0 82 30zM397 852l-75 74l-196 -89l51 -48zM331 107l-9 -1q-13 -2 -32 -3t-45 -1q-39 0 -53 12.5t-14 36.5q0 23 14.5 35.5t54.5 12.5q6 0 18.5 -0.5t26 -0.5t25 -0.5
t14.5 -0.5v-90zM217 671q0 19 12 30t31 11q18 0 29 -11t11 -30q0 -18 -11 -29t-29 -11q-19 0 -31 11.5t-12 28.5z" />
    <glyph glyph-name="AEacute" unicode="&#x1fc;" horiz-adv-x="880" 
d="M792 285v148h-209v129h259v148h-413l-455 -710h180l78 129h196v-129h423v149h-268v136h209zM775 832l-84 101l-205 -121l49 -64zM428 449v-191h-116z" />
    <glyph glyph-name="aeacute" unicode="&#x1fd;" horiz-adv-x="797" 
d="M624 149q-28 -40 -85 -40q-80 0 -80 77v27h310v111q0 47 -14.5 85.5t-43.5 66.5t-72.5 43.5t-100.5 15.5q-91 0 -147 -41q-53 41 -143 41q-147 0 -203 -104l-14 -27l127 -53l13 19q26 38 73 38q37 0 52 -15.5t15 -45.5v-35q-14 1 -29.5 1.5t-32.5 0.5q-61 0 -103.5 -8.5
t-68.5 -27.5t-38 -50.5t-12 -77.5q0 -43 10.5 -74t35.5 -51.5t67 -30t105 -9.5q96 0 165 28q53 -28 127 -28q153 0 210 93l17 28l-125 64zM247 637l49 -65l240 85l-84 100zM459 322v16q0 77 79 77q80 0 80 -77v-16h-159zM237 199q6 0 17 -0.5t22.5 -0.5t21.5 -0.5t14 -0.5
v-89l-7 -2q-7 -1 -26.5 -2.5t-43.5 -1.5q-35 0 -46 12t-11 37q0 24 12 36t47 12z" />
    <glyph glyph-name="Oslashacute" unicode="&#x1fe;" horiz-adv-x="675" 
d="M633 456q0 107 -57 176l79 122h-118l-39 -62q-66 33 -161 33q-141 0 -218 -71t-77 -198v-202q0 -111 58 -179l-73 -114h118l35 54q65 -30 153 -30q65 0 120 16t95 49.5t62.5 84t22.5 119.5v202zM206 239q0 5 -0.5 12t-0.5 15v193q0 58 34 87.5t98 29.5q46 0 76 -15z
M469 465q1 -4 1 -9.5v-12.5v-192q0 -117 -133 -117q-46 0 -72 13zM483 844l-84 100l-205 -120l49 -65z" />
    <glyph glyph-name="oslashacute" unicode="&#x1ff;" horiz-adv-x="547" 
d="M512 324q0 98 -57 152l48 76h-87l-24 -37q-52 20 -119 20q-117 0 -177.5 -55.5t-60.5 -155.5v-129q0 -96 58 -151l-50 -79h88l26 40q51 -20 116 -20q118 0 178.5 55t60.5 155v129zM420 658l-84 101l-205 -121l49 -65zM187 193q-1 5 -1 8v6v126q0 75 87 75q27 0 46 -8z
M360 327q1 -4 1 -8v-6v-126q0 -75 -88 -75q-23 0 -44 8z" />
    <glyph glyph-name="uni0218" unicode="&#x218;" horiz-adv-x="639" 
d="M313 283q66 -7 100.5 -22.5t34.5 -49.5q0 -79 -133 -79q-97 0 -129 69q0 2 -3 7.5t-6 12.5q-4 7 -8 17l-149 -53l14 -38q60 -162 281 -162q69 0 124 16t93.5 46t59 72.5t20.5 94.5q0 62 -21 102t-57 64t-83 36t-98 18q-18 2 -32.5 4t-26.5 4t-22.5 5t-22.5 7
q-46 16 -46 54q0 36 27.5 52.5t90.5 16.5q85 0 118 -66l13 -26l150 65l-13 28q-35 75 -98 111t-170 36q-68 0 -121 -16.5t-89.5 -46t-55.5 -70.5t-19 -91q4 -67 27 -107t60 -62.5t86 -32t104 -16.5zM345 -259l71 206h-156l-23 -206h108z" />
    <glyph glyph-name="uni0219" unicode="&#x219;" horiz-adv-x="510" 
d="M468 428q-57 107 -222 107q-105 0 -160 -45.5t-55 -121.5q0 -47 17 -77t45.5 -48t65.5 -26.5t77 -12.5q31 -3 51.5 -6.5t32.5 -8.5t17 -13t5 -20q0 -41 -86 -41q-73 0 -91 38l-11 24l-135 -44l12 -29q48 -119 230 -119q108 0 166.5 47.5t58.5 126.5q0 42 -12.5 71t-39 48
t-66.5 29.5t-94 15.5q-55 5 -76 14t-21 31q0 36 74 36q60 0 87 -38l14 -20l131 55zM282 -224l64 183h-152l-18 -183h106z" />
    <glyph glyph-name="uni021A" unicode="&#x21a;" horiz-adv-x="583" 
d="M373 562h197v148h-557v-148h198v-562h162v562zM377 -53h-156l-23 -206h108z" />
    <glyph glyph-name="uni021B" unicode="&#x21b;" horiz-adv-x="401" 
d="M250 520v120h-151v-120h-90v-134h90v-174q0 -68 14 -111.5t43 -69t75.5 -35.5t110.5 -10h37v139h-37q-26 0 -43.5 4t-28.5 14.5t-15.5 28.5t-4.5 46v168h129v134h-129zM162 -53l-23 -206h108l71 206h-156z" />
    <glyph glyph-name="uni0237" unicode="&#x237;" horiz-adv-x="253" 
d="M202 -8v528h-151v-521q0 -92 -91 -92h-38v-137h38q242 0 242 222z" />
    <glyph glyph-name="circumflex" unicode="&#x2c6;" horiz-adv-x="401" 
d="M250 581h151l-156 157h-97l-156 -157h143l60 64z" />
    <glyph glyph-name="caron" unicode="&#x2c7;" horiz-adv-x="358" 
d="M380 737h-143l-60 -64l-55 64h-151l156 -157h97z" />
    <glyph glyph-name="breve" unicode="&#x2d8;" horiz-adv-x="287" 
d="M204 745l-9 -21q-16 -39 -57 -39q-40 0 -57 39l-9 22l-105 -40l9 -24q17 -48 59.5 -74.5t102.5 -26.5t102.5 26.5t60.5 74.5l9 25z" />
    <glyph glyph-name="dotaccent" unicode="&#x2d9;" horiz-adv-x="217" 
d="M179 656q0 29 -20.5 49.5t-49.5 20.5t-49.5 -20.5t-20.5 -49.5t20.5 -49.5t49.5 -20.5t49.5 20.5t20.5 49.5z" />
    <glyph glyph-name="ring" unicode="&#x2da;" horiz-adv-x="240" 
d="M122 555q51 0 83 30.5t32 79.5t-32.5 80.5t-82.5 31.5q-52 0 -85 -31t-33 -81q0 -49 33 -79.5t85 -30.5zM122 625q-19 0 -31.5 11.5t-12.5 28.5q0 19 12 30.5t32 11.5q17 0 28.5 -11.5t11.5 -30.5q0 -18 -11.5 -29t-28.5 -11z" />
    <glyph glyph-name="ogonek" unicode="&#x2db;" horiz-adv-x="252" 
d="M200 -128l-7 -4q-3 -2 -5.5 -3.5t-3.5 -1.5q-10 -5 -18 -5q-15 0 -20 18q-9 40 56 125l-97 -1q-98 -98 -83 -180q12 -65 98 -65q60 0 101 35l9 8z" />
    <glyph glyph-name="tilde" unicode="&#x2dc;" horiz-adv-x="305" 
d="M148 615q37 -25 74 -25q48 0 69 26t21 92v23h-87v-22q0 -28 -16 -28q-14 0 -51 25t-77 25q-45 0 -67 -26.5t-22 -92.5v-22h88v21q0 29 17 29q14 0 51 -25z" />
    <glyph glyph-name="hungarumlaut" unicode="&#x2dd;" horiz-adv-x="395" 
d="M440 707l-133 39l-117 -157l78 -20zM129 748l-107 -155l77 -21l159 138z" />
    <glyph glyph-name="uni0326" unicode="&#x326;" horiz-adv-x="0" 
d="M76 -53l-23 -206h108l71 206h-156z" />
    <glyph glyph-name="pi" unicode="&#x3c0;" horiz-adv-x="661" 
d="M578 159v225h57v136h-466q-83 0 -146 -26l-33 -14l52 -122l38 14q30 11 45 12v-384h151v384h151v-224q0 -78 27 -140l15 -33l141 54l-17 40q-15 36 -15 78z" />
    <glyph glyph-name="uni0401" unicode="&#x401;" horiz-adv-x="584" 
d="M495 285v148h-271v129h321v148h-484v-710h494v149h-331v136h271zM201 896q-29 0 -49 -20t-20 -49t20 -49t49 -20t49 20t20 49t-20 49t-49 20zM337 827q0 -29 20 -49t49 -20t49 20t20 49t-20 49t-49 20t-49 -20t-20 -49z" />
    <glyph glyph-name="uni0410" unicode="&#x410;" horiz-adv-x="672" 
d="M260 710l-267 -710h172l43 131h248l43 -131h179l-266 710h-152zM252 263l81 243l80 -243h-161z" />
    <glyph glyph-name="uni0411" unicode="&#x411;" horiz-adv-x="638" 
d="M224 449v116h342v145h-505v-710h325q52 0 94 15.5t72 45t46 71t16 92.5q0 52 -16 93.5t-46 71t-72 45t-94 15.5h-162zM363 304q39 0 61 -21.5t22 -58.5q0 -36 -22 -57.5t-61 -21.5h-139v159h139z" />
    <glyph glyph-name="uni0412" unicode="&#x412;" horiz-adv-x="655" 
d="M623 197q0 132 -96 172v4q69 48 69 148q0 91 -56.5 140t-156.5 49h-322v-710h326q53 0 96 13.5t74.5 38.5t48.5 62t17 83zM377 289q75 0 75 -73q0 -72 -75 -72h-153v145h153zM358 566q73 0 73 -68t-73 -68h-134v136h134z" />
    <glyph glyph-name="uni0413" unicode="&#x413;" horiz-adv-x="525" 
d="M61 0h163v562h288v148h-451v-710z" />
    <glyph glyph-name="uni0414" unicode="&#x414;" horiz-adv-x="762" 
d="M745 149h-89v561h-492v-255q0 -33 -1.5 -77t-10 -87.5t-25.5 -81.5t-48 -60h-60v-302h159v153h408v-153h159v302zM321 561h173v-412h-227q54 101 54 307v105z" />
    <glyph glyph-name="uni0415" unicode="&#x415;" horiz-adv-x="584" 
d="M224 562h321v148h-484v-710h494v149h-331v136h271v148h-271v129z" />
    <glyph glyph-name="uni0416" unicode="&#x416;" horiz-adv-x="959" 
d="M292 229q9 17 17 28t19 18t25.5 9.5t35.5 2.5h9v-287h163v287h9q21 0 35.5 -2.5t25.5 -9.5t19 -18t17 -28l110 -229h188l-149 288q-13 25 -29.5 49t-38.5 41l208 332h-192l-166 -278q-5 1 -11.5 1h-16.5h-9v277h-163v-277h-9h-15.5t-12.5 -1l-165 278h-193l208 -332
q-35 -29 -64 -83l-153 -295h189z" />
    <glyph glyph-name="uni0417" unicode="&#x417;" horiz-adv-x="644" 
d="M438 210q0 -78 -105 -78q-67 0 -102.5 18t-50.5 56l-12 30l-150 -54l11 -29q62 -168 309 -168q138 0 205 56.5t67 159.5q0 124 -100 170q77 47 77 147t-63.5 153.5t-186.5 53.5q-241 0 -303 -168l-9 -26l149 -54l11 28q17 38 48.5 55.5t91.5 17.5q96 0 96 -74
q0 -73 -77 -73h-131v-143h148q77 0 77 -78z" />
    <glyph glyph-name="uni0418" unicode="&#x418;" horiz-adv-x="703" 
d="M484 1h156v710h-151l-270 -410v410h-155v-710h148l272 412v-412z" />
    <glyph glyph-name="uni0419" unicode="&#x419;" horiz-adv-x="703" 
d="M484 413v-412h156v710h-151l-270 -410v410h-155v-710h148zM551 888l-120 39q-3 -6 -5 -11l-3.5 -7t-2.5 -4q-20 -41 -65 -41q-46 0 -64 41l-10 24l-119 -42l10 -26q20 -51 68 -79t115 -28t116 28t69 79z" />
    <glyph glyph-name="uni041A" unicode="&#x41a;" horiz-adv-x="641" 
d="M451 710l-202 -277h-25v277h-163v-710h163v287h26q20 0 34 -2.5t24.5 -8.5t18.5 -16.5t16 -25.5l5.5 -10.5t13.5 -27t18.5 -37.5l21.5 -43q26 -51 58 -116h188l-151 287q-41 77 -91 105l237 318h-192z" />
    <glyph glyph-name="uni041B" unicode="&#x41b;" horiz-adv-x="688" 
d="M626 710h-484v-255q0 -40 -2 -86.5t-13 -90.5t-33.5 -81t-63.5 -58l-41 -21l78 -143l37 18q68 34 107 84.5t59 112t25.5 129.5t5.5 137v105h163v-561h162v710z" />
    <glyph glyph-name="uni041C" unicode="&#x41c;" horiz-adv-x="818" 
d="M608 710l-201 -368l-199 368h-147v-710h152v400l141 -250h105l142 254v-404h156v710h-149z" />
    <glyph glyph-name="uni041D" unicode="&#x41d;" horiz-adv-x="689" 
d="M627 710h-162v-276h-241v276h-163v-710h163v285h241v-285h162v710z" />
    <glyph glyph-name="uni041E" unicode="&#x41e;" horiz-adv-x="675" 
d="M633 456q0 127 -77 198t-219 71q-141 0 -218 -71t-77 -198v-202q0 -127 77 -198t218 -71q142 0 219 71t77 198v202zM470 251q0 -117 -133 -117q-64 0 -98 29.5t-34 87.5v208q0 58 34 87.5t98 29.5q133 0 133 -117v-208z" />
    <glyph glyph-name="uni041F" unicode="&#x41f;" horiz-adv-x="684" 
d="M622 0v710h-561v-710h163v562h236v-562h162z" />
    <glyph glyph-name="uni0420" unicode="&#x420;" horiz-adv-x="639" 
d="M370 231q57 0 102.5 16.5t77 47t48.5 75t17 100.5t-17 100.5t-49 75.5t-77 47.5t-102 16.5h-309v-710h163v231h146zM446 470q0 -43 -24 -66.5t-69 -23.5h-129v182h129q45 0 69 -24.5t24 -67.5z" />
    <glyph glyph-name="uni0421" unicode="&#x421;" horiz-adv-x="644" 
d="M337 -15q219 0 280 168l14 38l-153 54q-4 -10 -7 -18q-3 -7 -5 -13t-3 -7q-28 -73 -126 -73q-132 0 -132 119v204q0 119 132 119q98 0 126 -73q1 0 3 -6t5 -13q3 -9 7 -19l153 54l-14 38q-61 168 -280 168q-141 0 -218 -71t-77 -198v-202q0 -127 77 -198t218 -71z" />
    <glyph glyph-name="uni0422" unicode="&#x422;" horiz-adv-x="583" 
d="M570 562v148h-557v-148h198v-562h162v562h197z" />
    <glyph glyph-name="uni0423" unicode="&#x423;" horiz-adv-x="624" 
d="M631 710h-176l-135 -313l-148 313h-187l250 -500l-101 -210h184z" />
    <glyph glyph-name="uni0424" unicode="&#x424;" horiz-adv-x="846" 
d="M342 650h-43q-134 0 -204.5 -67.5t-70.5 -190.5v-70q0 -121 70.5 -189t204.5 -68h43v-85h162v85h43q134 0 204 68t70 189v70q0 123 -70 190.5t-204 67.5h-43v85h-162v-85zM189 399q0 108 113 108h40v-299h-40q-113 0 -113 108v83zM544 507q113 0 113 -108v-83
q0 -108 -113 -108h-40v299h40z" />
    <glyph glyph-name="uni0425" unicode="&#x425;" horiz-adv-x="652" 
d="M460 710l-134 -202l-134 202h-193l229 -349l-240 -361h193l143 214l140 -214h200l-242 363l230 347h-192z" />
    <glyph glyph-name="uni0426" unicode="&#x426;" horiz-adv-x="721" 
d="M548 -153h155v302h-85v561h-162v-561h-232v561h-163v-710h487v-153z" />
    <glyph glyph-name="uni0427" unicode="&#x427;" horiz-adv-x="650" 
d="M589 710h-162v-299q-48 -12 -112 -12q-120 0 -120 104v207h-162v-207q0 -127 63.5 -191t204.5 -64q66 0 126 9v-257h162v710z" />
    <glyph glyph-name="uni0428" unicode="&#x428;" horiz-adv-x="938" 
d="M715 149h-165v561h-162v-561h-164v561h-163v-710h816v710h-162v-561z" />
    <glyph glyph-name="uni0429" unicode="&#x429;" horiz-adv-x="980" 
d="M715 149h-165v561h-162v-561h-164v561h-163v-710h745v-153h155v302h-84v561h-162v-561z" />
    <glyph glyph-name="uni042A" unicode="&#x42a;" horiz-adv-x="759" 
d="M344 479v231h-330v-149h167v-561h309q56 0 101 16.5t77 47.5t49.5 75.5t17.5 100.5t-17 100.5t-48.5 75t-77 47t-102.5 16.5h-146zM473 330q45 0 69 -23.5t24 -66.5t-24 -67.5t-69 -24.5h-129v182h129z" />
    <glyph glyph-name="uni042B" unicode="&#x42b;" horiz-adv-x="928" 
d="M615 240q0 56 -17 100.5t-48.5 75t-77 47t-102.5 16.5h-146v231h-163v-710h309q57 0 102 16.5t77 47.5t49 75.5t17 100.5zM704 710v-710h162v710h-162zM353 330q45 0 69 -23.5t24 -66.5t-24 -67.5t-69 -24.5h-129v182h129z" />
    <glyph glyph-name="uni042C" unicode="&#x42c;" horiz-adv-x="639" 
d="M224 479v231h-163v-710h309q57 0 102 16.5t77 47.5t49 75.5t17 100.5t-17 100.5t-48.5 75t-77 47t-102.5 16.5h-146zM224 330h129q45 0 69 -23.5t24 -66.5t-24 -67.5t-69 -24.5h-129v182z" />
    <glyph glyph-name="uni042D" unicode="&#x42d;" horiz-adv-x="649" 
d="M606 456q0 127 -76.5 198t-218.5 71q-217 0 -280 -167l-10 -28l151 -55q3 8 5 14q2 5 4 9.5t2 5.5q29 74 128 74q64 0 98.5 -29.5t34.5 -86.5v-29h-245v-147h245v-37q0 -57 -33.5 -87t-99.5 -30q-98 0 -128 74l-12 30l-150 -55l10 -28q62 -168 280 -168q142 0 218.5 71
t76.5 198v202z" />
    <glyph glyph-name="uni042E" unicode="&#x42e;" horiz-adv-x="953" 
d="M910 456q0 127 -74 198t-213 71q-137 0 -211.5 -69t-74.5 -193v-29h-113v276h-163v-710h163v285h112v-36q0 -124 75 -194t212 -70q139 0 213 71t74 198v202zM748 250q0 -116 -125 -116t-125 116v210q0 116 125 116t125 -116v-210z" />
    <glyph glyph-name="uni042F" unicode="&#x42f;" horiz-adv-x="655" 
d="M431 1h163v710h-318q-54 0 -98 -15.5t-74.5 -45.5t-47 -72.5t-16.5 -96.5q0 -33 6 -64t20 -58t36 -48t54 -35q-2 -2 -7 -10.5t-14 -24.5l-125 -240h188l93 193q9 18 17.5 29t19.5 18t26 9.5t36 2.5h41v-252zM292 399q-40 0 -61.5 21t-21.5 61q0 39 21.5 60.5t61.5 21.5
h139v-164h-139z" />
    <glyph glyph-name="uni0430" unicode="&#x430;" horiz-adv-x="524" 
d="M260 314q-63 0 -107.5 -8.5t-72 -27.5t-40.5 -50.5t-13 -77.5q0 -42 11.5 -73.5t38 -51.5t70.5 -30t109 -10q129 0 189 27q2 1 7.5 3.5t12.5 5.5q8 4 17 8v295q0 211 -223 211q-158 0 -214 -104l-15 -29l125 -52l16 21q28 37 83 37q77 0 77 -74v-22q-16 1 -33.5 1.5
t-37.5 0.5zM322 106q-13 -2 -32 -3t-45 -1q-39 0 -53 12.5t-14 36.5q0 23 14.5 35.5t54.5 12.5q6 0 18.5 -0.5t26 -0.5t25 -0.5t14.5 -0.5v-90z" />
    <glyph glyph-name="uni0431" unicode="&#x431;" horiz-adv-x="557" 
d="M363 593q80 0 111 16l36 18l-45 130l-38 -17q-25 -11 -70 -11h-30q-76 0 -129.5 -18t-87.5 -56t-49 -97t-15 -141v-222q0 -100 60.5 -155t177.5 -55q118 0 178.5 55t60.5 155v99q0 99 -56.5 155t-153.5 56q-88 0 -124 -46v11q0 35 7 58.5t23 37.5t43 20.5t66 6.5h35z
M371 194q0 -75 -87 -75q-86 0 -86 75v102q0 75 86 75q87 0 87 -75v-102z" />
    <glyph glyph-name="uni0432" unicode="&#x432;" horiz-adv-x="538" 
d="M50 520v-520h293q76 0 121.5 40t45.5 109q0 82 -63 122q42 38 42 102q0 67 -42 107t-118 40h-279zM307 208q22 0 34.5 -12t12.5 -32q0 -21 -12.5 -33.5t-34.5 -12.5h-107v90h107zM200 321v81h97q42 0 42 -41q0 -18 -11 -29t-31 -11h-97z" />
    <glyph glyph-name="uni0433" unicode="&#x433;" horiz-adv-x="432" 
d="M50 0h151v383h220v137h-371v-520z" />
    <glyph glyph-name="uni0434" unicode="&#x434;" horiz-adv-x="635" 
d="M620 -112v10v198v11v27h-77v386h-412v-186q0 -153 -54 -200h-54v-273h147v136h303v-136h147v27zM276 383h116v-249h-148q32 72 32 193v56z" />
    <glyph glyph-name="uni0435" unicode="&#x435;" horiz-adv-x="543" 
d="M370 149q-30 -40 -95 -40q-90 0 -90 79v25h330v111q0 46 -15.5 85t-45.5 67t-75 43.5t-105 15.5q-117 0 -178.5 -56.5t-61.5 -165.5v-106q0 -51 14.5 -92t43.5 -70t74.5 -44.5t106.5 -15.5q162 0 220 93l16 26l-125 64zM185 338q0 77 89 77t89 -77v-16h-178v16z" />
    <glyph glyph-name="uni0436" unicode="&#x436;" horiz-adv-x="765" 
d="M479 331h-21v189h-151v-189h-20l-109 189h-174l149 -236q-21 -19 -45 -63l-107 -221h169l65 157q16 40 61 40h11v-197h151v197h11q46 -2 62 -40l65 -157h168l-107 221q-19 40 -44 63l148 236h-174z" />
    <glyph glyph-name="uni0437" unicode="&#x437;" horiz-adv-x="519" 
d="M263 112q-81 0 -104 53l-11 27l-139 -42l14 -33q56 -132 243 -132q223 0 223 160q0 89 -66 120v6q54 24 54 103q0 161 -215 161q-91 0 -150.5 -36t-80.5 -96l-10 -29l134 -44l11 26q24 53 97 53q38 0 52.5 -12.5t14.5 -37.5q0 -39 -47 -39h-100v-117h108q46 0 46 -42
q0 -24 -15.5 -36.5t-58.5 -12.5z" />
    <glyph glyph-name="uni0438" unicode="&#x438;" horiz-adv-x="563" 
d="M361 268v-268h152v520h-139l-173 -270v270h-151v-520h139z" />
    <glyph glyph-name="uni0439" unicode="&#x439;" horiz-adv-x="563" 
d="M361 0h152v520h-139l-173 -270v270h-151v-520h139l172 268v-268zM460 707l-106 38l-9 -21q-16 -39 -57 -39q-40 0 -57 39l-9 22l-105 -40l9 -24q17 -48 59.5 -74.5t102.5 -26.5t102.5 26.5t60.5 74.5z" />
    <glyph glyph-name="uni043A" unicode="&#x43a;" horiz-adv-x="535" 
d="M362 520l-133 -189h-28v189h-151v-520h151v197h36q47 0 63 -40l68 -157h167l-108 221q-25 50 -56 72l166 227h-175z" />
    <glyph glyph-name="uni043B" unicode="&#x43b;" horiz-adv-x="550" 
d="M500 520h-402v-175q0 -64 -6.5 -107t-20.5 -66q-13 -22 -23 -31t-27 -19l-31 -17l69 -129l30 14q51 24 81.5 61t46 82t20.5 95t5 101v54h107v-383h151v520z" />
    <glyph glyph-name="uni043C" unicode="&#x43c;" horiz-adv-x="650" 
d="M462 520l-138 -252l-138 252h-136v-520h137v259l88 -154h95l90 155v-260h140v520h-138z" />
    <glyph glyph-name="uni043D" unicode="&#x43d;" horiz-adv-x="557" 
d="M507 520h-151v-187h-155v187h-151v-520h151v195h155v-195h151v520z" />
    <glyph glyph-name="uni043E" unicode="&#x43e;" horiz-adv-x="547" 
d="M273 -15q117 0 178 55t61 155v129q0 100 -61 155.5t-178 55.5q-116 0 -177 -55.5t-61 -155.5v-129q0 -99 61 -154.5t177 -55.5zM186 194v132q0 75 87 75q88 0 88 -75v-132q0 -75 -88 -75q-87 0 -87 75z" />
    <glyph glyph-name="uni043F" unicode="&#x43f;" horiz-adv-x="553" 
d="M503 0v520h-453v-520h151v383h151v-383h151z" />
    <glyph glyph-name="uni0440" unicode="&#x440;" horiz-adv-x="545" 
d="M200 -6q45 -9 79 -9q115 0 173 55.5t58 161.5v126q0 100 -53.5 153.5t-164.5 53.5q-122 0 -202 -31l-41 -15v-709h151v214zM206 393q17 4 34 5.5t34 1.5q84 0 84 -73v-125q0 -82 -91 -82q-29 0 -67 6v266z" />
    <glyph glyph-name="uni0441" unicode="&#x441;" horiz-adv-x="519" 
d="M349 166q-21 -51 -82 -51q-81 0 -81 75v140q0 75 81 75q61 0 82 -51q1 -1 3 -7t5 -13t7 -17l142 46l-14 39q-21 60 -76.5 96.5t-142.5 36.5q-121 0 -179.5 -55t-58.5 -157v-126q0 -212 228 -212q175 0 230 132l17 40l-146 45q-4 -10 -7 -17t-5 -12.5t-3 -6.5z" />
    <glyph glyph-name="uni0442" unicode="&#x442;" horiz-adv-x="479" 
d="M467 383v137h-454v-137h151v-383h151v383h152z" />
    <glyph glyph-name="uni0443" unicode="&#x443;" horiz-adv-x="557" 
d="M506 520h-151v-361q-20 -4 -38 -5.5t-35 -1.5q-85 0 -85 75v293h-151v-298q0 -207 216 -207q59 0 93 7v-41q0 -81 -80 -81q-54 0 -81 38l-22 31l-132 -67l24 -39q59 -93 214 -93q117 0 172.5 59t55.5 163v528z" />
    <glyph glyph-name="uni0444" unicode="&#x444;" horiz-adv-x="748" 
d="M298 739v-206q-12 1 -21.5 1.5t-16.5 0.5q-226 0 -226 -229v-92q0 -229 226 -229q7 0 16.5 0.5t21.5 1.5v-207h151v207q13 -1 22.5 -1.5t16.5 -0.5q226 0 226 229v92q0 229 -226 229q-7 0 -16.5 -0.5t-22.5 -1.5v206h-151zM478 400q85 0 85 -94v-92q0 -48 -20 -71
t-65 -23q-5 0 -13.5 0.5t-19.5 1.5v276q11 1 19.5 1.5t13.5 0.5zM303 122q-11 -1 -19.5 -1.5t-14.5 -0.5q-84 0 -84 94v92q0 94 84 94q6 0 14.5 -0.5t19.5 -1.5v-276z" />
    <glyph glyph-name="uni0445" unicode="&#x445;" horiz-adv-x="527" 
d="M359 520l-95 -135l-97 135h-171l182 -255l-188 -265h171l102 145l103 -145h172l-189 266l179 254h-169z" />
    <glyph glyph-name="uni0446" unicode="&#x446;" horiz-adv-x="590" 
d="M428 -139h147v276h-76v383h-151v-383h-147v383h-151v-520h378v-139z" />
    <glyph glyph-name="uni0447" unicode="&#x447;" horiz-adv-x="524" 
d="M323 306l-7 -2q-8 -2 -25 -4.5t-36 -2.5q-78 0 -78 73v150h-151v-158q0 -201 204 -201q66 0 93 7v-168h151v520h-151v-214z" />
    <glyph glyph-name="uni0448" unicode="&#x448;" horiz-adv-x="778" 
d="M577 137h-112v383h-151v-383h-113v383h-151v-520h678v520h-151v-383z" />
    <glyph glyph-name="uni0449" unicode="&#x449;" horiz-adv-x="819" 
d="M577 137h-112v383h-151v-383h-113v383h-151v-520h607v-139h147v276h-76v383h-151v-383z" />
    <glyph glyph-name="uni044A" unicode="&#x44a;" horiz-adv-x="617" 
d="M294 380v140h-281v-136h130v-384h258q91 0 143 50t52 141q0 88 -52 138.5t-143 50.5h-107zM379 249q28 0 45 -16t17 -42q0 -27 -17 -44t-45 -17h-85v119h85z" />
    <glyph glyph-name="uni044B" unicode="&#x44b;" horiz-adv-x="735" 
d="M503 191q0 88 -52 138.5t-143 50.5h-107v140h-151v-520h259q90 0 142 50t52 141zM534 0h151v520h-151v-520zM201 249h85q28 0 45 -16t17 -42q0 -27 -17 -44t-45 -17h-85v119z" />
    <glyph glyph-name="uni044C" unicode="&#x44c;" horiz-adv-x="524" 
d="M308 380h-107v140h-151v-520h259q90 0 142 50t52 141q0 88 -52 138.5t-143 50.5zM348 191q0 -27 -17 -44t-45 -17h-85v119h85q28 0 45 -16t17 -42z" />
    <glyph glyph-name="uni044D" unicode="&#x44d;" horiz-adv-x="516" 
d="M481 323q0 102 -58 157t-179 55q-85 0 -141 -36t-77 -96l-11 -30l135 -44l12 26q26 54 86 54q83 0 83 -75v-10h-146v-123h28l118 -1v-12q0 -76 -83 -76q-61 0 -86 55l-11 25l-138 -43l13 -31q55 -133 229 -133q226 0 226 213v125z" />
    <glyph glyph-name="uni044E" unicode="&#x44e;" horiz-adv-x="769" 
d="M734 324q0 100 -60 155.5t-175 55.5q-111 0 -169.5 -51.5t-61.5 -147.5l-1 -3h-66v187h-151v-520h151v195h66v-9q3 -97 62 -149t170 -52q115 0 175 55t60 155v129zM499 119q-81 0 -81 75v132q0 75 81 75q83 0 83 -75v-132q0 -75 -83 -75z" />
    <glyph glyph-name="uni044F" unicode="&#x44f;" horiz-adv-x="536" 
d="M219 520q-85 0 -135 -48t-50 -133q0 -111 86 -158l-110 -181h174l83 158h68v-158h151v520h-267zM242 288q-24 0 -38 14t-14 37q0 22 14.5 37.5t37.5 15.5h93v-104h-93z" />
    <glyph glyph-name="uni0451" unicode="&#x451;" horiz-adv-x="543" 
d="M515 324q0 46 -15.5 85t-45.5 67t-75 43.5t-105 15.5q-117 0 -178.5 -56.5t-61.5 -165.5v-106q0 -51 14.5 -92t43.5 -70t74.5 -44.5t106.5 -15.5q162 0 220 93l16 26l-125 64l-14 -19q-30 -40 -95 -40q-90 0 -90 79v25h330v111zM172 723q-29 0 -49 -20t-20 -49t20 -49
t49 -20t49 20t20 49t-20 49t-49 20zM377 723q-29 0 -49 -20t-20 -49t20 -49t49 -20t49 20t20 49t-20 49t-49 20zM274 415q89 0 89 -77v-16h-178v16q0 77 89 77z" />
    <glyph glyph-name="Wgrave" unicode="&#x1e80;" horiz-adv-x="919" 
d="M348 0l111 437l110 -437h163l178 710h-167l-82 -444l-112 444h-166l-114 -438l-82 438h-178l176 -710h163zM614 815l-206 121l-84 -100l240 -86z" />
    <glyph glyph-name="wgrave" unicode="&#x1e81;" horiz-adv-x="748" 
d="M289 0l83 311l83 -311h140l146 520h-154l-60 -292l-81 292h-139l-79 -289l-62 289h-159l146 -520h136zM524 636l-205 121l-84 -100l240 -86z" />
    <glyph glyph-name="Wacute" unicode="&#x1e82;" horiz-adv-x="919" 
d="M348 0l111 437l110 -437h163l178 710h-167l-82 -444l-112 444h-166l-114 -438l-82 438h-178l176 -710h163zM373 750l241 86l-85 100l-205 -121z" />
    <glyph glyph-name="wacute" unicode="&#x1e83;" horiz-adv-x="748" 
d="M289 0l83 311l83 -311h140l146 520h-154l-60 -292l-81 292h-139l-79 -289l-62 289h-159l146 -520h136zM284 571l240 86l-84 100l-205 -121z" />
    <glyph glyph-name="Wdieresis" unicode="&#x1e84;" horiz-adv-x="919" 
d="M661 266l-112 444h-166l-114 -438l-82 438h-178l176 -710h163l111 437l110 -437h163l178 710h-167zM295 833q0 -29 20 -49t49 -20t49 20t20 49t-20 49t-49 20t-49 -20t-20 -49zM569 764q29 0 49 20t20 49t-20 49t-49 20t-49 -20t-20 -49t20 -49t49 -20z" />
    <glyph glyph-name="wdieresis" unicode="&#x1e85;" horiz-adv-x="748" 
d="M527 228l-81 292h-139l-79 -289l-62 289h-159l146 -520h136l83 311l83 -311h140l146 520h-154zM207 654q0 -29 20 -49t49 -20t49 20t20 49t-20 49t-49 20t-49 -20t-20 -49zM550 654q0 29 -20 49t-49 20t-49 -20t-20 -49t20 -49t49 -20t49 20t20 49z" />
    <glyph glyph-name="Ygrave" unicode="&#x1ef2;" horiz-adv-x="658" 
d="M410 0v276l260 434h-193l-147 -269l-144 269h-199l260 -432v-278h163zM478 814l-205 121l-85 -101l241 -85z" />
    <glyph glyph-name="ygrave" unicode="&#x1ef3;" horiz-adv-x="557" 
d="M355 -19q0 -81 -80 -81q-54 0 -81 38l-22 31l-132 -67l24 -39q59 -93 214 -93q117 0 172.5 59t55.5 163v528h-151v-361q-20 -4 -38 -5.5t-35 -1.5q-85 0 -85 75v293h-151v-298q0 -207 216 -207q59 0 93 7v-41zM375 573l49 65l-205 121l-85 -101z" />
    <glyph glyph-name="endash" unicode="&#x2013;" horiz-adv-x="565" 
d="M52 338v-143h461v143h-461z" />
    <glyph glyph-name="emdash" unicode="&#x2014;" horiz-adv-x="767" 
d="M52 338v-143h663v143h-663z" />
    <glyph glyph-name="quoteleft" unicode="&#x2018;" horiz-adv-x="244" 
d="M111 710l-94 -276h160l33 276h-99z" />
    <glyph glyph-name="quoteright" unicode="&#x2019;" horiz-adv-x="238" 
d="M69 709l-33 -276h99l94 276h-160z" />
    <glyph glyph-name="quotesinglbase" unicode="&#x201a;" horiz-adv-x="225" 
d="M45 -154h112l29 264h-141v-264z" />
    <glyph glyph-name="quotedblleft" unicode="&#x201c;" horiz-adv-x="423" 
d="M112 710l-94 -276h160l33 276h-99zM358 434l31 276h-98l-94 -276h161z" />
    <glyph glyph-name="quotedblright" unicode="&#x201d;" horiz-adv-x="416" 
d="M314 434l94 276h-160l-33 -276h99zM69 710l-31 -276h97l94 276h-160z" />
    <glyph glyph-name="quotedblbase" unicode="&#x201e;" horiz-adv-x="422" 
d="M300 -123l94 276h-160l-33 -276h99zM23 -123h98l94 276h-160z" />
    <glyph glyph-name="dagger" unicode="&#x2020;" horiz-adv-x="527" 
d="M502 518h-162v192h-152v-192h-163v-148h163v-470h152v470h162v148z" />
    <glyph glyph-name="daggerdbl" unicode="&#x2021;" horiz-adv-x="556" 
d="M354 370h162v148h-162v192h-152v-192h-163v-148h163v-130h-163v-148h163v-192h152v192h162v148h-162v130z" />
    <glyph glyph-name="bullet" unicode="&#x2022;" horiz-adv-x="393" 
d="M333 264q0 59 -39 98t-97 39q-59 0 -98 -39t-39 -98t39 -98.5t98 -39.5q58 0 97 39.5t39 98.5z" />
    <glyph glyph-name="ellipsis" unicode="&#x2026;" horiz-adv-x="761" 
d="M39 77q0 -35 25 -60t60 -25t60 25t25 60t-25 60t-60 25t-60 -25t-25 -60zM550 77q0 -35 25 -60t60 -25t60 25t25 60t-25 60t-60 25t-60 -25t-25 -60zM464 77q0 35 -25 60t-60 25t-60 -25t-25 -60t25 -60t60 -25t60 25t25 60z" />
    <glyph glyph-name="perthousand" unicode="&#x2030;" horiz-adv-x="1220" 
d="M604 710l-523 -710h164l521 710h-162zM774 24q44 39 44 110v72q0 71 -44.5 111t-127.5 40t-127.5 -40t-44.5 -111v-72q0 -71 44.5 -110.5t127.5 -39.5t128 40zM200 726q-83 0 -127.5 -40.5t-44.5 -111.5v-72q0 -70 44.5 -109.5t127.5 -39.5t127.5 39.5t44.5 109.5v72
q0 71 -44.5 111.5t-127.5 40.5zM850 134q0 -71 44.5 -110.5t126.5 -39.5q83 0 127.5 39.5t44.5 110.5v72q0 71 -44.5 111t-127.5 40q-82 0 -126.5 -40t-44.5 -111v-72zM148 568q0 43 52 43t52 -43v-57q0 -45 -52 -45t-52 45v57zM698 199v-57q0 -44 -52 -44t-52 44v57
q0 44 52 44t52 -44zM970 199q0 44 52 44t52 -44v-57q0 -44 -52 -44t-52 44v57z" />
    <glyph glyph-name="guilsinglleft" unicode="&#x2039;" horiz-adv-x="365" 
d="M248 500l-235 -238l230 -230l92 94l-140 139l141 143z" />
    <glyph glyph-name="guilsinglright" unicode="&#x203a;" horiz-adv-x="365" 
d="M117 500l-88 -92l141 -143l-140 -139l92 -94l230 230z" />
    <glyph glyph-name="fraction" unicode="&#x2044;" horiz-adv-x="226" 
d="M454 710h-161l-524 -710h164z" />
    <glyph glyph-name="uni2070" unicode="&#x2070;" horiz-adv-x="382" 
d="M191 407q75 0 116.5 38.5t41.5 105.5v122q0 67 -41.5 106t-116.5 39t-116.5 -39t-41.5 -106v-122q0 -67 41.5 -105.5t116.5 -38.5zM154 551v122q0 32 37 32t37 -32v-122q0 -33 -37 -33t-37 33z" />
    <glyph glyph-name="uni2074" unicode="&#x2074;" horiz-adv-x="390" 
d="M324 414v73h44v99h-44v223h-118l-190 -235v-87h195v-73h113zM147 586l64 78v-78h-64z" />
    <glyph glyph-name="uni2075" unicode="&#x2075;" horiz-adv-x="368" 
d="M184 509q-36 0 -52 37l-10 23l-104 -40l11 -28q37 -94 160 -94q36 0 64 11t47.5 30t30 45t10.5 56q0 60 -37.5 95t-110.5 35h-40l4 32h169v99h-268l-23 -223h152q40 0 40 -39t-43 -39z" />
    <glyph glyph-name="uni2076" unicode="&#x2076;" horiz-adv-x="382" 
d="M211 669q-29 0 -58 -8v13q0 21 11 29.5t35 8.5q22 0 41 -19l13 -13l101 50l-10 18q-39 70 -146 70q-81 0 -123 -38.5t-42 -110.5v-117q0 -145 160 -145q75 0 118 34.5t43 97.5q0 130 -143 130zM153 558q20 7 40 7q40 0 40 -26q0 -27 -40 -27t-40 36v10z" />
    <glyph glyph-name="uni2077" unicode="&#x2077;" horiz-adv-x="335" 
d="M320 729v81h-301v-109h162l-132 -286h128z" />
    <glyph glyph-name="uni2078" unicode="&#x2078;" horiz-adv-x="392" 
d="M196 406q86 0 127 33.5t41 92.5q0 61 -56 96q44 28 44 84q0 50 -40.5 78t-115.5 28q-73 0 -114.5 -31t-41.5 -86q0 -56 50 -92q-62 -33 -62 -95q0 -49 41 -78.5t127 -29.5zM239 528q0 -29 -41 -29q-45 0 -45 29q0 20 35 38q27 -9 39 -16.5t12 -21.5zM195 726q39 0 39 -28
q0 -19 -27 -34q-15 6 -19.5 7.5t-14 6.5t-12.5 10t-3 12q0 26 37 26z" />
    <glyph glyph-name="uni2079" unicode="&#x2079;" horiz-adv-x="382" 
d="M189 818q-75 0 -118 -34.5t-43 -97.5q0 -130 143 -130q29 0 58 8v-13q0 -21 -11 -29.5t-35 -8.5q-22 0 -41 19l-13 13l-101 -50l10 -18q39 -70 146 -70q81 0 123 38.5t42 110.5v117q0 145 -160 145zM229 667q-20 -7 -40 -7q-40 0 -40 26q0 27 40 27t40 -36v-10z" />
    <glyph glyph-name="uni2080" unicode="&#x2080;" horiz-adv-x="382" 
d="M191 -127q75 0 116.5 39t41.5 106v121q0 67 -41.5 106t-116.5 39t-116.5 -39t-41.5 -106v-121q0 -67 41.5 -106t116.5 -39zM154 17v123q0 31 37 31t37 -31v-123q0 -33 -37 -33t-37 33z" />
    <glyph glyph-name="uni2081" unicode="&#x2081;" horiz-adv-x="289" 
d="M245 -118v395h-93l-156 -89l59 -98l68 37v-245h122z" />
    <glyph glyph-name="uni2082" unicode="&#x2082;" horiz-adv-x="370" 
d="M187 172q13 0 20.5 -7.5t7.5 -19.5q0 -19 -8.5 -27.5t-33.5 -18.5l-53 -20q-25 -9 -42 -21t-27.5 -28t-14.5 -37t-4 -49v-63h300v108h-174v2q0 4 27 12l50 13q59 18 81.5 49.5t22.5 87.5q0 58 -39.5 94.5t-108.5 36.5q-119 0 -155 -94l-11 -29l109 -41l14 29q12 23 39 23
z" />
    <glyph glyph-name="uni2083" unicode="&#x2083;" horiz-adv-x="374" 
d="M189 181q31 0 31 -25q0 -24 -31 -24h-51v-105h58q30 0 30 -26q0 -24 -38 -24q-40 0 -54 27l-13 28l-103 -35l11 -31q32 -93 161 -93q78 0 117 30t39 85q0 72 -52 100q23 15 31.5 32.5t8.5 48.5q0 54 -37.5 84.5t-106.5 30.5q-124 0 -159 -96l-9 -25l101 -39l14 29
q13 28 52 28z" />
    <glyph glyph-name="uni2084" unicode="&#x2084;" horiz-adv-x="394" 
d="M324 -119v73h44v99h-44v223h-118l-190 -235v-87h195v-73h113zM147 53l64 78v-78h-64z" />
    <glyph glyph-name="uni2085" unicode="&#x2085;" horiz-adv-x="369" 
d="M184 -24q-36 0 -52 37l-10 23l-104 -41l11 -27q37 -94 160 -94q36 0 64 11t47.5 30t30 45t10.5 56q0 60 -37.5 95t-110.5 35h-40l4 32h169v99h-268l-23 -223h152q40 0 40 -39t-43 -39z" />
    <glyph glyph-name="uni2086" unicode="&#x2086;" horiz-adv-x="382" 
d="M211 135q-29 0 -58 -8v13q0 21 11 29.5t35 8.5q22 0 41 -19l13 -13l101 50l-10 18q-39 70 -146 70q-81 0 -123 -38.5t-42 -110.5v-117q0 -145 160 -145q75 0 118 34.5t43 97.5q0 130 -143 130zM153 24q20 7 40 7q40 0 40 -26q0 -27 -40 -27t-40 36v10z" />
    <glyph glyph-name="uni2087" unicode="&#x2087;" horiz-adv-x="335" 
d="M319 195v81h-301v-109h162l-132 -286h128z" />
    <glyph glyph-name="uni2088" unicode="&#x2088;" horiz-adv-x="392" 
d="M364 -2q0 63 -56 96q44 28 44 84q0 50 -40 78t-116 28q-73 0 -114.5 -31t-41.5 -86q0 -56 50 -92q-62 -33 -62 -95q0 -49 41 -78t127 -29q168 0 168 125zM239 -6q0 -29 -41 -29q-45 0 -45 30q0 19 35 37q26 -8 38.5 -16t12.5 -22zM234 165q0 -21 -27 -34q-49 16 -49 35
q0 26 37 26q39 0 39 -27z" />
    <glyph glyph-name="uni2089" unicode="&#x2089;" horiz-adv-x="382" 
d="M229 17q0 -21 -11 -29.5t-35 -8.5q-22 0 -41 19l-13 13l-101 -50l10 -18q39 -70 146 -70q81 0 123 38.5t42 110.5v117q0 145 -160 145q-75 0 -118 -34.5t-43 -97.5q0 -130 143 -130q29 0 58 8v-13zM229 133q-20 -7 -40 -7q-40 0 -40 26q0 27 40 27t40 -36v-10z" />
    <glyph glyph-name="Euro" unicode="&#x20ac;" horiz-adv-x="746" 
d="M553 479h-246v9q0 42 35.5 65t93.5 23q27 0 46.5 -5t33.5 -12t21.5 -14t10.5 -11l18 -27l151 68l-22 35q-70 115 -258 115q-67 0 -121.5 -17t-93 -48t-59.5 -75.5t-21 -99.5v-6h-49l-32 -107h82v-43h-95l-32 -107h127v-8q10 -115 85 -172t209 -57q189 0 258 114l28 47
l-152 68l-24 -36q-3 -4 -11 -12t-21.5 -15t-33.5 -12.5t-46 -5.5q-120 0 -128 83v6h170l31 107h-207v43h220z" />
    <glyph glyph-name="uni20BD" unicode="&#x20bd;" horiz-adv-x="684" 
d="M266 254h157q109 0 171.5 59.5t62.5 167.5q0 109 -62.5 169t-171.5 60h-319v-506h-72v-112h72v-92h162v92h308v112h-308v50zM488 482q0 -38 -21 -60t-63 -22h-138v163h137q42 0 63.5 -21.5t21.5 -59.5z" />
    <glyph glyph-name="uni2113" unicode="&#x2113;" horiz-adv-x="453" 
d="M278 732q-36 0 -66.5 -12t-53 -37.5t-35 -66t-12.5 -97.5v-218q-10 -7 -27.5 -19t-34.5 -24q-20 -13 -43 -28l72 -113l36 24l1 -6q4 -70 49.5 -105.5t121.5 -35.5q70 0 125 46l23 18l-78 93l-23 -14q-19 -12 -38 -12q-53 0 -53 62v47q53 44 88 86t57 83t31 83t9 86
q0 73 -38 116.5t-111 43.5zM242 518q0 93 34 93q21 0 21 -36q0 -91 -55 -159v102z" />
    <glyph glyph-name="uni2116" unicode="&#x2116;" horiz-adv-x="1057" 
d="M57 711v-710h156v412l271 -412h149v710h-155v-410l-271 410h-150zM716 685q-45 -40 -45 -111v-73q0 -70 44.5 -109.5t126.5 -39.5q83 0 127.5 39.5t44.5 109.5v73q0 71 -44.5 111t-127.5 40q-82 0 -126 -40zM1016 194v130h-347v-130h347zM790 510v57q0 44 52 44t52 -44
v-57q0 -44 -52 -44t-52 44z" />
    <glyph glyph-name="uni2117" unicode="&#x2117;" horiz-adv-x="790" 
d="M650 606q-104 104 -254 104q-151 0 -255.5 -104.5t-104.5 -254.5q0 -149 105 -254t255 -105t254 104t104 255q0 150 -104 255zM580 166q-75 -76 -184 -76q-111 0 -186 75.5t-75 185.5q0 111 75 185.5t186 74.5q110 0 184.5 -74.5t74.5 -185.5q0 -110 -75 -185zM426 273
q63 0 99 35t36 96q0 60 -36 95.5t-99 35.5h-155v-369h92v107h63zM419 446q22 0 33 -13.5t11 -29t-11 -29t-33 -13.5h-56v85h56z" />
    <glyph glyph-name="trademark" unicode="&#x2122;" horiz-adv-x="624" 
d="M407 500h49l34 48v-105h77v252h-67l-68 -108l-70 108h-66v-252h77v100zM279 695h-245v-77h82v-175h83v175h80v77z" />
    <glyph glyph-name="Omega" unicode="&#x2126;" horiz-adv-x="797" 
d="M450 128l-23 -11v-117h325v153h-108q104 84 104 231q0 77 -26.5 140t-73.5 107.5t-111.5 69t-140.5 24.5t-139.5 -25t-109.5 -70.5t-71.5 -109t-25.5 -139.5q0 -138 99 -228h-105v-153h324v117l-23 10q-67 31 -103 93.5t-36 135.5q0 48 12.5 89t36.5 70t59.5 45.5
t81.5 16.5q49 0 85.5 -16.5t61 -45.5t36.5 -70t12 -90q0 -35 -10 -69t-29 -64t-44.5 -54.5t-57.5 -39.5z" />
    <glyph glyph-name="estimated" unicode="&#x212e;" horiz-adv-x="804" 
d="M646 208q-87 -133 -240 -133q-100 0 -177 62v169h547v49q0 77 -29 144.5t-79 117.5t-117.5 79t-144.5 29t-144.5 -29t-117.5 -79t-79 -117.5t-29 -144.5t29 -144.5t79 -117.5t117.5 -79t144.5 -29q56 0 107 15.5t95 44t78.5 69t56.5 89.5l11 24h-96q-3 -5 -6 -9
q-4 -8 -6 -10zM229 396v175q76 64 177 64t177 -64v-175h-354z" />
    <glyph glyph-name="onethird" unicode="&#x2153;" horiz-adv-x="859" 
d="M744 710h-155l-523 -710h156zM511 85q32 -93 161 -93q78 0 117 30t39 85q0 72 -52 100q23 15 31.5 32.5t8.5 48.5q0 54 -37.5 84.5t-106.5 30.5q-124 0 -159 -96l-9 -25l101 -39l14 29q13 28 52 28q31 0 31 -25q0 -24 -31 -24h-51v-105h58q30 0 30 -26q0 -24 -38 -24
q-40 0 -54 27l-13 28l-103 -35zM12 620l59 -98l68 37v-245h122v395h-93z" />
    <glyph glyph-name="twothirds" unicode="&#x2154;" horiz-adv-x="919" 
d="M657 710l-523 -710h156l522 710h-155zM35 383v-63h300v108h-174v2q0 5 27 12l50 13q59 18 81.5 49.5t22.5 87.5q0 58 -39.5 94.5t-108.5 36.5q-119 0 -155 -94l-11 -29l109 -41l14 29q12 23 39 23q13 0 20.5 -7.5t7.5 -19.5q0 -19 -8.5 -27.5t-33.5 -18.5l-53 -20
q-25 -9 -42 -21t-27.5 -28t-14.5 -37t-4 -49zM684 251v-105h58q30 0 30 -26q0 -24 -38 -24q-40 0 -54 27l-13 28l-103 -35l11 -31q32 -93 161 -93q78 0 117 30t39 85q0 72 -52 100q23 15 31.5 32.5t8.5 48.5q0 54 -37.5 84.5t-106.5 30.5q-124 0 -159 -96l-9 -25l101 -39
l14 29q13 28 52 28q31 0 31 -25q0 -24 -31 -24h-51z" />
    <glyph glyph-name="oneeighth" unicode="&#x215b;" horiz-adv-x="881" 
d="M554 21q41 -29 127 -29q168 0 168 125q0 63 -56 96q44 27 44 84q0 50 -40 78t-116 28q-73 0 -114.5 -31t-41.5 -86q0 -56 50 -92q-62 -33 -62 -95q0 -49 41 -78zM752 710h-155l-523 -710h156zM12 625l59 -98l68 37v-245h122v395h-93zM683 84q-45 0 -45 30q0 19 35 37
q27 -8 39 -15.5t12 -22.5q0 -29 -41 -29zM643 285q0 26 37 26q39 0 39 -27q0 -20 -26 -34q-26 8 -38 15.5t-12 19.5z" />
    <glyph glyph-name="threeeighths" unicode="&#x215c;" horiz-adv-x="904" 
d="M707 -8q86 0 127.5 33t41.5 92q0 62 -57 96q45 28 45 84q0 50 -40.5 78t-116.5 28q-73 0 -114.5 -31t-41.5 -86q0 -56 50 -92q-62 -33 -62 -95q0 -49 41 -78t127 -29zM113 0h156l522 710h-155zM194 724q-124 0 -159 -96l-9 -25l101 -39l14 29q13 28 52 28q31 0 31 -25
q0 -24 -31 -24h-51v-105h58q30 0 30 -26q0 -24 -38 -24q-40 0 -54 27l-13 28l-103 -35l11 -31q32 -93 161 -93q78 0 117 30t39 85q0 72 -52 100q23 15 31.5 32.5t8.5 48.5q0 54 -37.5 84.5t-106.5 30.5zM709 84q-44 0 -44 30q0 19 34 37q27 -8 39 -15.5t12 -22.5
q0 -29 -41 -29zM670 285q0 26 36 26q39 0 39 -27q0 -20 -26 -34q-25 8 -37 15.5t-12 19.5z" />
    <glyph glyph-name="fiveeighths" unicode="&#x215d;" horiz-adv-x="915" 
d="M834 375q-41 28 -117 28q-72 0 -114 -31t-42 -86q0 -56 50 -92q-62 -34 -62 -95q0 -49 41 -78t127 -29q169 0 169 125q0 62 -57 96q45 28 45 84q0 50 -40 78zM633 710l-523 -710h156l522 710h-155zM123 474l-104 -40l11 -28q37 -94 160 -94q36 0 64 11t47.5 30t30 45
t10.5 56q0 60 -37.5 95t-110.5 35h-40l4 32h169v99h-268l-23 -223h152q40 0 40 -39t-43 -39q-36 0 -52 37zM760 113q0 -29 -41 -29q-44 0 -44 30q0 18 34 37q27 -8 39 -15.5t12 -22.5zM716 311q39 0 39 -27q0 -20 -26 -34q-25 8 -37 15.5t-12 19.5q0 26 36 26z" />
    <glyph glyph-name="seveneighths" unicode="&#x215e;" horiz-adv-x="859" 
d="M536 21q41 -29 127 -29q169 0 169 125q0 63 -57 96q45 27 45 84q0 50 -40.5 78t-116.5 28q-72 0 -114 -31t-42 -86q0 -56 50 -92q-62 -34 -62 -95q0 -49 41 -78zM723 710h-155l-523 -710h156zM28 715v-109h162l-132 -286h128l143 314v81h-301zM665 84q-44 0 -44 30
q0 18 34 37q27 -8 39 -15.5t12 -22.5q0 -29 -41 -29zM638 266q-12 7 -12 19q0 26 36 26q39 0 39 -27q0 -20 -26 -34q-25 8 -37 16z" />
    <glyph glyph-name="arrowleft" unicode="&#x2190;" horiz-adv-x="745" 
d="M292 64l83 83l-124 124h451v122h-451l124 125l-83 84l-270 -269z" />
    <glyph glyph-name="arrowup" unicode="&#x2191;" horiz-adv-x="745" 
d="M434 450l125 -124l83 84l-268 269l-269 -269l83 -84l124 124v-451h122v451z" />
    <glyph glyph-name="arrowright" unicode="&#x2192;" horiz-adv-x="745" 
d="M454 63l269 268l-269 270l-84 -84l124 -124h-451v-122h451l-124 -125z" />
    <glyph glyph-name="arrowdown" unicode="&#x2193;" horiz-adv-x="745" 
d="M558 332l-124 -124v451h-122v-451l-125 124l-83 -83l268 -270l270 270z" />
    <glyph glyph-name="uni2196" unicode="&#x2196;" horiz-adv-x="745" 
d="M498 203h118l1 380h-382v-118h176l-319 -319l86 -86l319 319z" />
    <glyph glyph-name="uni2197" unicode="&#x2197;" horiz-adv-x="745" 
d="M510 466v118l-380 1v-382h118v176l319 -319l86 86l-319 319z" />
    <glyph glyph-name="uni2198" unicode="&#x2198;" horiz-adv-x="745" 
d="M614 448h-118v-175l-319 319l-86 -86l319 -319l-176 -1v-118l380 -1v381z" />
    <glyph glyph-name="uni2199" unicode="&#x2199;" horiz-adv-x="745" 
d="M510 69v118h-175l319 319l-86 86l-319 -319l-1 176h-118l-1 -380h381z" />
    <glyph glyph-name="partialdiff" unicode="&#x2202;" horiz-adv-x="556" 
d="M144 744h-36v-137h40q113 0 163 -34t58 -110q-38 38 -125 38q-47 0 -85.5 -14.5t-66.5 -41t-43 -65t-15 -86.5v-99q0 -100 60.5 -155t178.5 -55q117 0 177.5 55t60.5 155v198q0 98 -21.5 165t-66.5 108t-114.5 59.5t-164.5 18.5zM273 119q-87 0 -87 75v102q0 75 87 75
q86 0 86 -75v-102q0 -75 -86 -75z" />
    <glyph glyph-name="Delta" unicode="&#x2206;" horiz-adv-x="658" 
d="M257 710l-231 -598v-112h607v112l-231 598h-145zM463 131h-268l134 391z" />
    <glyph glyph-name="product" unicode="&#x220f;" horiz-adv-x="711" 
d="M432 -100h162v662h90v148h-657v-148h89v-662h163v662h153v-662z" />
    <glyph glyph-name="summation" unicode="&#x2211;" horiz-adv-x="607" 
d="M571 49h-331l168 259l-163 254h321v148h-527v-120l186 -282l-191 -288v-120h537v149z" />
    <glyph glyph-name="minus" unicode="&#x2212;" horiz-adv-x="586" 
d="M53 398v-144h480v144h-480z" />
    <glyph glyph-name="uni2215" unicode="&#x2215;" horiz-adv-x="639" 
d="M662 710h-162l-523 -710h164z" />
    <glyph glyph-name="uni2219" unicode="&#x2219;" horiz-adv-x="266" 
d="M218 270q0 35 -25 60t-60 25t-60 -25t-25 -60t25 -60t60 -25t60 25t25 60z" />
    <glyph glyph-name="radical" unicode="&#x221a;" horiz-adv-x="737" 
d="M472 -106l272 857h-167l-179 -638l-110 329h-273v-143h156l148 -405h153z" />
    <glyph glyph-name="infinity" unicode="&#x221e;" horiz-adv-x="720" 
d="M514 463q-91 0 -152 -91q-57 91 -148 91q-77 0 -127 -51t-50 -129q0 -74 50 -124.5t122 -50.5q96 0 152 84q50 -84 147 -84q70 0 122.5 50t52.5 128t-47 127.5t-122 49.5zM160 287q0 21 13.5 34.5t37.5 13.5q12 0 24 -5q15 -7 48 -43q-39 -51 -73 -51q-23 0 -36.5 14.5
t-13.5 36.5zM478 248q-16 11 -37 39q37 48 71 48q25 0 38 -14t13 -34t-13 -35q-14 -16 -37 -16q-20 0 -35 12z" />
    <glyph glyph-name="integral" unicode="&#x222b;" horiz-adv-x="400" 
d="M275 -3v520q0 48 14.5 67t61.5 19h38v137h-38q-120 0 -173.5 -53.5t-53.5 -163.5v-521q0 -47 -14.5 -66t-61.5 -19h-38v-137h38q120 0 173.5 53.5t53.5 163.5z" />
    <glyph glyph-name="approxequal" unicode="&#x2248;" horiz-adv-x="566" 
d="M355 482q-11 0 -30.5 4t-45.5 13q-54 16 -89 16q-73 0 -127 -49l-29 -27l94 -108l30 26q22 19 53 19q19 0 75 -17q47 -16 86 -16q73 0 128 49l31 27l-95 106l-30 -24q-24 -19 -51 -19zM356 287q-20 0 -76 17q-51 16 -90 16q-73 0 -126 -50l-27 -25l93 -109l30 26
q21 18 53 20q22 0 79 -17q47 -16 86 -16q73 0 126 50l28 27l-95 107l-29 -26q-20 -18 -52 -20z" />
    <glyph glyph-name="notequal" unicode="&#x2260;" horiz-adv-x="579" 
d="M346 357h183v144h-109l44 86h-87l-44 -86h-284v-144h210l-31 -61h-179v-144h105l-45 -87h88l44 87h288v144h-214z" />
    <glyph glyph-name="lessequal" unicode="&#x2264;" horiz-adv-x="517" 
d="M461 343l-232 82l232 85v153l-414 -182v-115l414 -183v160zM461 42v134h-414v-134h414z" />
    <glyph glyph-name="greaterequal" unicode="&#x2265;" horiz-adv-x="517" 
d="M471 481l-414 182v-153l232 -85l-232 -82v-160l414 183v115zM471 42v134h-414v-134h414z" />
    <glyph glyph-name="lozenge" unicode="&#x25ca;" horiz-adv-x="575" 
d="M341 710h-107l-218 -355l218 -355h107l217 355zM390 355l-98 -175h-6l-97 175l97 176h6z" />
    <glyph glyph-name="zero.denom" horiz-adv-x="382" 
d="M191 -8q75 0 116.5 39t41.5 106v121q0 67 -41.5 106t-116.5 39t-116.5 -39t-41.5 -106v-121q0 -67 41.5 -106t116.5 -39zM154 136v123q0 31 37 31t37 -31v-123q0 -32 -37 -32t-37 32z" />
    <glyph glyph-name="one.denom" horiz-adv-x="289" 
d="M245 1v395h-93l-156 -89l59 -98l68 37v-245h122z" />
    <glyph glyph-name="two.denom" horiz-adv-x="370" 
d="M187 291q13 0 20.5 -7.5t7.5 -19.5q0 -19 -8.5 -27.5t-33.5 -18.5l-53 -20q-25 -9 -42 -21t-27.5 -28t-14.5 -37t-4 -49v-63h300v108h-174v2q0 5 27 12l50 13q59 18 81.5 49.5t22.5 87.5q0 58 -39.5 94.5t-108.5 36.5q-119 0 -155 -94l-11 -29l109 -41l14 29q12 23 39 23
z" />
    <glyph glyph-name="three.denom" horiz-adv-x="374" 
d="M189 300q31 0 31 -25q0 -24 -31 -24h-51v-105h58q30 0 30 -26q0 -24 -38 -24q-40 0 -54 27l-13 28l-103 -35l11 -31q32 -93 161 -93q78 0 117 30t39 85q0 72 -52 100q23 15 31.5 32.5t8.5 48.5q0 54 -37.5 84.5t-106.5 30.5q-124 0 -159 -96l-9 -25l101 -39l14 29
q13 28 52 28z" />
    <glyph glyph-name="four.denom" horiz-adv-x="394" 
d="M324 0v73h44v99h-44v223h-118l-190 -235v-87h195v-73h113zM147 172l64 78v-78h-64z" />
    <glyph glyph-name="five.denom" horiz-adv-x="369" 
d="M184 95q-36 0 -52 37l-10 23l-104 -40l11 -28q37 -94 160 -94q36 0 64 11t47.5 30t30 45t10.5 56q0 60 -37.5 95t-110.5 35h-40l4 32h169v99h-268l-23 -223h152q40 0 40 -39t-43 -39z" />
    <glyph glyph-name="six.denom" horiz-adv-x="382" 
d="M211 254q-29 0 -58 -8v13q0 21 11 29.5t35 8.5q22 0 41 -19l13 -13l101 50l-10 18q-39 70 -146 70q-81 0 -123 -38.5t-42 -110.5v-117q0 -145 160 -145q75 0 118 34.5t43 97.5q0 130 -143 130zM153 143q20 7 40 7q40 0 40 -26q0 -27 -40 -27t-40 36v10z" />
    <glyph glyph-name="seven.denom" horiz-adv-x="335" 
d="M320 314v81h-301v-109h162l-132 -286h128z" />
    <glyph glyph-name="eight.denom" horiz-adv-x="392" 
d="M364 117q0 63 -56 96q44 27 44 84q0 50 -40 78t-116 28q-73 0 -114.5 -31t-41.5 -86q0 -56 50 -92q-62 -33 -62 -95q0 -49 41 -78t127 -29q168 0 168 125zM239 113q0 -29 -41 -29q-45 0 -45 30q0 19 35 37q26 -8 38.5 -16t12.5 -22zM234 284q0 -20 -27 -34q-49 16 -49 35
q0 26 37 26q39 0 39 -27z" />
    <glyph glyph-name="nine.denom" horiz-adv-x="382" 
d="M189 403q-75 0 -118 -34.5t-43 -97.5q0 -130 143 -130q29 0 58 8v-13q0 -21 -11 -29.5t-35 -8.5q-22 0 -41 19l-13 13l-101 -50l10 -18q39 -70 146 -70q81 0 123 38.5t42 110.5v117q0 145 -160 145zM229 252q-20 -7 -40 -7q-40 0 -40 26q0 27 40 27t40 -36v-10z" />
    <glyph glyph-name="zero.num" horiz-adv-x="382" 
d="M191 312q75 0 116.5 39t41.5 106v121q0 67 -41.5 106t-116.5 39t-116.5 -39t-41.5 -106v-121q0 -67 41.5 -106t116.5 -39zM154 456v123q0 31 37 31t37 -31v-123q0 -32 -37 -32t-37 32z" />
    <glyph glyph-name="one.num" horiz-adv-x="289" 
d="M245 321v395h-93l-156 -89l59 -98l68 37v-245h122z" />
    <glyph glyph-name="two.num" horiz-adv-x="370" 
d="M187 611q13 0 20.5 -7.5t7.5 -19.5q0 -19 -8.5 -27.5t-33.5 -18.5l-53 -20q-25 -9 -42 -21t-27.5 -28t-14.5 -37t-4 -49v-63h300v108h-174v2q0 5 27 12l50 13q59 18 81.5 49.5t22.5 87.5q0 58 -39.5 94.5t-108.5 36.5q-119 0 -155 -94l-11 -29l109 -41l14 29q12 23 39 23
z" />
    <glyph glyph-name="three.num" horiz-adv-x="374" 
d="M189 620q31 0 31 -25q0 -24 -31 -24h-51v-105h58q30 0 30 -26q0 -24 -38 -24q-40 0 -54 27l-13 28l-103 -35l11 -31q32 -93 161 -93q78 0 117 30t39 85q0 72 -52 100q23 15 31.5 32.5t8.5 48.5q0 54 -37.5 84.5t-106.5 30.5q-124 0 -159 -96l-9 -25l101 -39l14 29
q13 28 52 28z" />
    <glyph glyph-name="four.num" horiz-adv-x="394" 
d="M324 320v73h44v99h-44v223h-118l-190 -235v-87h195v-73h113zM147 492l64 78v-78h-64z" />
    <glyph glyph-name="five.num" horiz-adv-x="369" 
d="M184 415q-36 0 -52 37l-10 23l-104 -40l11 -28q37 -94 160 -94q36 0 64 11t47.5 30t30 45t10.5 56q0 60 -37.5 95t-110.5 35h-40l4 32h169v99h-268l-23 -223h152q40 0 40 -39t-43 -39z" />
    <glyph glyph-name="six.num" horiz-adv-x="382" 
d="M211 574q-29 0 -58 -8v13q0 21 11 29.5t35 8.5q22 0 41 -19l13 -13l101 50l-10 18q-39 70 -146 70q-81 0 -123 -38.5t-42 -110.5v-117q0 -145 160 -145q75 0 118 34.5t43 97.5q0 130 -143 130zM153 463q20 7 40 7q40 0 40 -26q0 -27 -40 -27t-40 36v10z" />
    <glyph glyph-name="seven.num" horiz-adv-x="335" 
d="M320 634v81h-301v-109h162l-132 -286h128z" />
    <glyph glyph-name="eight.num" horiz-adv-x="392" 
d="M364 437q0 63 -56 96q44 27 44 84q0 50 -40 78t-116 28q-73 0 -114.5 -31t-41.5 -86q0 -56 50 -92q-62 -33 -62 -95q0 -49 41 -78t127 -29q168 0 168 125zM239 433q0 -29 -41 -29q-45 0 -45 30q0 19 35 37q26 -8 38.5 -16t12.5 -22zM234 604q0 -20 -27 -34q-49 16 -49 35
q0 26 37 26q39 0 39 -27z" />
    <glyph glyph-name="nine.num" horiz-adv-x="382" 
d="M189 723q-75 0 -118 -34.5t-43 -97.5q0 -130 143 -130q29 0 58 8v-13q0 -21 -11 -29.5t-35 -8.5q-22 0 -41 19l-13 13l-101 -50l10 -18q39 -70 146 -70q81 0 123 38.5t42 110.5v117q0 145 -160 145zM229 572q-20 -7 -40 -7q-40 0 -40 26q0 27 40 27t40 -36v-10z" />
    <glyph glyph-name="nonmarkingreturn" horiz-adv-x="322" 
 />
    <glyph glyph-name="acute.case" horiz-adv-x="257" 
d="M284 834l-84 101l-205 -121l49 -64z" />
    <glyph glyph-name="breve.case" horiz-adv-x="287" 
d="M205 922l-9 -21q-16 -39 -57 -39q-39 0 -56 39l-9 23l-105 -40l9 -25q17 -48 59 -74.5t102 -26.5t102.5 26.5t60.5 74.5l9 25z" />
    <glyph glyph-name="caron.case" horiz-adv-x="358" 
d="M380 913h-143l-60 -64l-55 64h-151l156 -157h97z" />
    <glyph glyph-name="cedilla.case" horiz-adv-x="251" 
d="M33 -234q25 -11 71 -11q131 0 143 99q5 42 -18.5 69t-63.5 27h-9l20 50h-84l-51 -116h47q38 -2 38 -22q0 -27 -39 -27q-28 0 -54 14l-21 11v-84z" />
    <glyph glyph-name="circumflex.case" horiz-adv-x="401" 
d="M250 757h151l-156 157h-97l-156 -157h143l60 64z" />
    <glyph glyph-name="dieresis.case" horiz-adv-x="439" 
d="M114 902q-29 0 -49 -20t-20 -49t20 -49t49 -20t49 20t20 49t-20 49t-49 20zM320 764q29 0 49 20t20 49t-20 49t-49 20t-49 -20t-20 -49t20 -49t49 -20z" />
    <glyph glyph-name="dotaccent.case" horiz-adv-x="217" 
d="M179 833q0 29 -20.5 49.5t-49.5 20.5t-49.5 -20.5t-20.5 -49.5t20.5 -49.5t49.5 -20.5t49.5 20.5t20.5 49.5z" />
    <glyph glyph-name="grave.case" horiz-adv-x="257" 
d="M230 748l49 65l-206 121l-83 -101z" />
    <glyph glyph-name="hungarumlaut.case" horiz-adv-x="395" 
d="M439 890l-132 39l-118 -157l78 -20zM22 776l76 -21l159 138l-128 37z" />
    <glyph glyph-name="macron.case" horiz-adv-x="352" 
d="M330 883h-304v-102h304v102z" />
    <glyph glyph-name="ogonek.case" horiz-adv-x="252" 
d="M200 -128l-7 -4q-3 -2 -5.5 -3.5t-3.5 -1.5q-10 -5 -18 -5q-15 0 -20 18q-9 40 56 125l-97 -1q-98 -98 -83 -180q12 -65 98 -65q60 0 101 35l9 8z" />
    <glyph glyph-name="ring.case" horiz-adv-x="240" 
d="M205 939q-33 31 -83 31q-52 0 -85 -31t-33 -81q0 -49 33 -80t85 -31q50 0 82.5 31t32.5 80t-32 81zM122 817q-19 0 -31.5 11.5t-12.5 29.5q0 19 12 30t32 11q18 0 29 -11.5t11 -29.5t-11 -29q-12 -12 -29 -12z" />
    <glyph glyph-name="tilde.case" horiz-adv-x="305" 
d="M148 788q37 -25 74 -25q48 0 69 26t21 92v23h-87v-22q0 -28 -16 -28q-14 0 -51 25t-77 25q-45 0 -67 -26.5t-22 -92.5v-22h88v21q0 29 17 29q14 0 51 -25z" />
    <glyph glyph-name="uni0326.alt" horiz-adv-x="0" 
d="M52 581h156l23 206h-107z" />
    <glyph glyph-name="_375" horiz-adv-x="666" 
d="M257 710l-231 -598v-112h607v112l-231 598h-145zM463 131h-268l134 391z" />
    <glyph glyph-name="_376" horiz-adv-x="753" 
d="M431 128l-23 -11v-117h325v153h-108q104 84 104 231q0 77 -26.5 140t-73.5 107.5t-111.5 69t-140.5 24.5t-139.5 -25t-109.5 -70.5t-71.5 -109t-25.5 -139.5q0 -138 99 -228h-105v-153h324v117l-23 10q-67 31 -103 93.5t-36 135.5q0 48 12.5 89t36.5 70t59.5 45.5
t81.5 16.5q49 0 85.5 -16.5t61 -45.5t36.5 -70t12 -90q0 -35 -10 -69t-29 -64t-44.5 -54.5t-57.5 -39.5z" />
    </font>
</defs>
</svg>
