<?xml version="1.0" standalone="no"?>
<!DOCTYPE svg PUBLIC "-//W3C//DTD SVG 1.1//EN" "http://www.w3.org/Graphics/SVG/1.1/DTD/svg11.dtd" >
<svg xmlns="http://www.w3.org/2000/svg" xmlns:xlink="http://www.w3.org/1999/xlink" version="1.1">
<metadata>
Created by FontForge 20170731 at Thu Sep 19 23:00:37 2019
 By Aleksey,,,
Moh'd M. Khatib.2019
</metadata>
<defs>
<font id="Sahar-ExtraLightItalic" horiz-adv-x="544" >
  <font-face 
    font-family="Sahar ExtraLight Italic"
    font-weight="250"
    font-style="italic"
    font-stretch="normal"
    units-per-em="1000"
    panose-1="0 0 0 0 0 0 0 0 0 0"
    ascent="800"
    descent="-200"
    x-height="511"
    cap-height="710"
    bbox="-203 -257 1123.31 958"
    underline-thickness="50"
    underline-position="-250"
    unicode-range="U+0020-FB02"
  />
<missing-glyph horiz-adv-x="686" 
d="M596 710h-501v-710h501v710zM567 683v-656h-443v656h443z" />
    <glyph glyph-name="fi" unicode="fi" horiz-adv-x="527" 
d="M71 0h27l86 486h276l-85 -486h27l89 511h-303l6 38q9 48 22.5 80t36 51t56 27t82.5 8h137l5 25h-137q-55 0 -94 -9.5t-65.5 -32t-43 -59t-26.5 -90.5l-6 -38h-121l-4 -25h121z" />
    <glyph glyph-name="fl" unicode="fl" horiz-adv-x="527" 
d="M71 0h27l86 486h153l4 25h-153l6 38q9 48 22.5 80t36 51t56 27t82.5 8h105l-126 -715h28l129 740h-131q-55 0 -94 -9.5t-65.5 -32t-43 -59t-26.5 -90.5l-6 -38h-121l-4 -25h121z" />
    <glyph glyph-name=".notdef" horiz-adv-x="686" 
d="M596 710h-501v-710h501v710zM567 683v-656h-443v656h443z" />
    <glyph glyph-name=".null" horiz-adv-x="65" 
 />
    <glyph glyph-name="glyph2" horiz-adv-x="333" 
 />
    <glyph glyph-name="space" unicode=" " horiz-adv-x="252" 
 />
    <glyph glyph-name="exclam" unicode="!" horiz-adv-x="177" 
d="M151 740l-100 -600h21l110 600h-31zM18 18q-2 -9 4 -15.5t15 -6.5t16 6.5t9 15.5t-3.5 15.5t-14.5 6.5q-10 0 -17 -6.5t-9 -15.5z" />
    <glyph glyph-name="quotedbl" unicode="&#x22;" horiz-adv-x="250" 
d="M188 491h22l45 219h-28zM140 710l-39 -219h21l46 219h-28z" />
    <glyph glyph-name="numbersign" unicode="#" horiz-adv-x="659" 
d="M397 209h132l13 26h-133l95 201h133l13 26h-133l86 181h-29l-86 -181h-187l86 181h-28l-86 -181h-130l-13 -26h130l-95 -201h-130l-13 -26h130l-99 -209h29l98 209h187l-98 -209h29zM380 235h-187l95 201h187z" />
    <glyph glyph-name="dollar" unicode="$" horiz-adv-x="591" 
d="M211 -80h27l15 83q233 3 266 186q9 67 -10.5 102.5t-66.5 52.5q-16 6 -30.5 10t-28.5 7t-30.5 5t-37.5 4h-4q-39 3 -75 9t-62 21t-39 42t-5 72q30 167 220 167q48 -1 80 -10t54 -26.5t36.5 -42.5t27.5 -60l2 -6l28 10l-3 8q-13 37 -29.5 65t-39.5 47t-54.5 29.5
t-74.5 12.5l14 82h-27l-14 -82q-216 -3 -248 -191q-12 -65 10.5 -99.5t66.5 -50.5q16 -6 30 -10t28.5 -6.5t30.5 -4.5t37 -4q45 -5 75.5 -10.5t47.5 -11.5q79 -30 62 -128q-28 -163 -240 -163q-45 0 -77 9.5t-55 29.5t-37.5 50.5t-25.5 72.5l-2 8l-29 -10l2 -9
q20 -85 64.5 -129.5t134.5 -48.5z" />
    <glyph glyph-name="percent" unicode="%" horiz-adv-x="803" 
d="M444 209l-13 -74q-12 -69 20.5 -109.5t105.5 -40.5q75 0 120 36.5t57 105.5l13 75q12 69 -20.5 109t-107.5 40t-119 -36.5t-56 -105.5zM263 725q-73 0 -118 -37.5t-57 -106.5l-13 -74q-12 -69 20 -108.5t107 -39.5t119 37t56 106l13 74q12 69 -20 109t-107 40zM561 9
q-61 0 -88.5 32t-17.5 90l13 73q11 58 49 90.5t99 32.5q63 0 90 -32.5t16 -90.5l-12 -73q-10 -57 -49 -89.5t-100 -32.5zM353 505q-11 -58 -49 -90t-99 -32q-63 0 -90 32t-16 90l13 73q11 58 49 90.5t99 32.5q63 0 90 -32.5t16 -90.5zM104 0l647 710h-33l-647 -710h33z" />
    <glyph glyph-name="ampersand" unicode="&#x26;" horiz-adv-x="643" 
d="M282 369q107 44 154 82q47 39 60 109q12 66 -28 115t-113 49q-39 0 -73 -12.5t-60 -34t-43 -51t-23 -62.5q-16 -88 73 -190q-45 -18 -79.5 -37t-60 -43t-42 -54t-23.5 -71q-14 -77 31 -129q44 -54 119 -54q42 0 79 11t71 29t66 41t63 48l101 -115h36l-117 132l96 77
l-16 20l-96 -77l-185 213zM179 12q-33 0 -58.5 12t-42.5 33t-24 49t-2 61q6 36 21 63.5t39 49t57.5 39t76.5 34.5l190 -218q-28 -22 -57.5 -44t-61.5 -39.5t-66 -28.5t-72 -11zM255 386q-14 16 -24 28t-17.5 23.5t-13.5 24.5t-12 30q-12 35 -6 69q5 28 20 53t37.5 44t51 30
t59.5 11t55.5 -11t40 -30t22 -44t1.5 -52q-12 -66 -64 -105q-30 -23 -132 -64z" />
    <glyph glyph-name="quotesingle" unicode="'" horiz-adv-x="162" 
d="M140 710l-39 -219h21l47 219h-29z" />
    <glyph glyph-name="parenleft" unicode="(" horiz-adv-x="229" 
d="M28 99q-15 -86 10 -136.5t90 -82.5l6 -3l17 22l-7 4q-58 29 -80.5 73.5t-9.5 120.5l92 514q13 76 50.5 120.5t106.5 73.5l7 3l-7 25l-8 -3q-38 -16 -67.5 -36.5t-51 -46.5t-35.5 -59.5t-22 -76.5z" />
    <glyph glyph-name="parenright" unicode=")" horiz-adv-x="229" 
d="M-53 -95l-9 -4l8 -25l8 3q76 32 118.5 83t56.5 137l91 512q15 86 -10 136.5t-90 82.5l-4 2l-19 -21l8 -4q59 -29 80.5 -73t7.5 -121l-91 -514q-13 -76 -50 -120.5t-105 -73.5z" />
    <glyph glyph-name="asterisk" unicode="*" horiz-adv-x="391" 
d="M106 568l115 -34l-96 -100l16 -15l90 106l53 -106l22 14l-62 101l128 33v24l-129 -44l26 126h-23l-18 -126l-110 44z" />
    <glyph glyph-name="plus" unicode="+" horiz-adv-x="584" 
d="M57 314h224l-39 -223h26l39 223h222l6 26h-223l39 223h-26l-39 -223h-223z" />
    <glyph glyph-name="comma" unicode="," horiz-adv-x="146" 
d="M23 46l-70 -167h20l83 167h-33z" />
    <glyph glyph-name="hyphen" unicode="-" horiz-adv-x="429" 
d="M62 279l-5 -27h298l5 27h-298z" />
    <glyph glyph-name="period" unicode="." horiz-adv-x="149" 
d="M10 18q-2 -9 3 -15.5t14 -6.5t17 6.5t10 15.5t-3.5 15.5t-14.5 6.5t-16.5 -6.5t-9.5 -15.5z" />
    <glyph glyph-name="slash" unicode="/" horiz-adv-x="388" 
d="M394 710l-422 -770h30l421 770h-29z" />
    <glyph glyph-name="zero" unicode="0" horiz-adv-x="618" 
d="M47 213q-18 -106 36 -166.5t172 -60.5t192 58t92 163l51 289q9 52 -0.5 94t-36 72t-70 46t-101.5 16q-118 0 -191.5 -58.5t-92.5 -163.5zM259 13q-106 0 -153 52t-30 146l51 289q16 93 81.5 145t170.5 52q103 0 151 -52t32 -145l-51 -289q-17 -94 -83 -146t-169 -52z" />
    <glyph glyph-name="one" unicode="1" horiz-adv-x="412" 
d="M235 0h29l125 710h-23l-296 -149l11 -24l273 138z" />
    <glyph glyph-name="two" unicode="2" horiz-adv-x="579" 
d="M48 84q13 51 38 82t71 54q32 17 65.5 31t68.5 24q50 18 95.5 36.5t82 44.5t62 64t35.5 95q17 97 -32 153t-152 56q-95 0 -161 -39.5t-117 -121.5l-4 -6l25 -13l5 8q46 75 105 110t144 35q88 0 130.5 -47.5t27.5 -132.5q-16 -96 -105 -152q-42 -27 -159 -68
q-43 -15 -83 -32.5t-78 -41.5q-42 -26 -64 -60.5t-31 -82.5l-13 -80h471l5 27h-441z" />
    <glyph glyph-name="three" unicode="3" horiz-adv-x="587" 
d="M103 553l-4 -9l27 -8l3 7q20 42 42.5 71t51 47.5t65.5 27t85 8.5q88 0 127.5 -44.5t25.5 -125.5q-6 -32 -19.5 -59t-34.5 -47t-49 -31.5t-64 -11.5h-184l-5 -27h187q75 0 108.5 -43.5t20.5 -116.5q-31 -178 -233 -178q-51 0 -86.5 9.5t-58 29t-34 50.5t-16.5 73l-1 8
l-29 -8l1 -10q5 -45 19.5 -79t40.5 -56t65.5 -33t95.5 -11q229 0 265 204q12 66 -11 111t-78 65q54 17 85.5 59.5t41.5 99.5q17 94 -28.5 146.5t-145.5 52.5q-54 0 -96.5 -10t-75.5 -31t-58 -53t-46 -77z" />
    <glyph glyph-name="four" unicode="4" horiz-adv-x="594" 
d="M364 0h28l38 216h121l3 27h-119l84 479h-29l-470 -481l-6 -25h388zM484 680l-78 -437h-351z" />
    <glyph glyph-name="five" unicode="5" horiz-adv-x="581" 
d="M16 147l1 -8q28 -154 226 -154q57 0 103 15.5t80.5 44t57 67.5t30.5 86q18 103 -33 160t-162 57h-193l74 268h372l7 27h-399l-91 -323h227q96 0 140 -47.5t28 -137.5q-7 -42 -27 -76.5t-50.5 -60t-71 -39.5t-88.5 -14q-175 0 -201 137l-1 8z" />
    <glyph glyph-name="six" unicode="6" horiz-adv-x="611" 
d="M123 478q18 109 83 164t174 55q161 0 190 -131l2 -8l27 10l-1 7q-32 149 -213 149q-124 0 -197.5 -62t-94.5 -183l-43 -246q-21 -117 32.5 -182t174.5 -65q118 0 192 52t91 151q18 108 -30.5 160.5t-171.5 52.5q-138 0 -236 -42zM331 375q109 0 153 -44t28 -137
q-16 -88 -81 -134.5t-171 -46.5q-108 0 -154 58t-27 161l17 99q105 44 235 44z" />
    <glyph glyph-name="seven" unicode="7" horiz-adv-x="501" 
d="M517 683l-420 -683h32l422 686l6 24h-464l-7 -27h431z" />
    <glyph glyph-name="eight" unicode="8" horiz-adv-x="604" 
d="M372 360q180 42 205 187q14 87 -36 132t-164 45q-109 0 -177 -43.5t-83 -128.5q-14 -81 32 -124q23 -22 48 -35.5t62 -26.5q-40 -9 -78.5 -26t-70 -42t-53.5 -59t-30 -77q-15 -85 37 -130.5t183 -45.5q250 0 281 180q15 88 -35 132q-25 22 -52 35.5t-69 26.5zM315 348
q30 -9 51 -15.5t32 -10.5q23 -9 57 -30q34 -22 43 -51.5t1 -72.5q-27 -156 -248 -156q-117 0 -162 39t-32 112q11 45 34 77.5t54.5 55t70 37t80.5 21.5q4 -1 19 -6zM213 415q-31 15 -44 31t-21 42.5t-2 60.5q13 72 71.5 110.5t154.5 38.5q100 0 145 -38t32 -111
q-9 -41 -29.5 -71.5t-49 -51.5t-63 -34t-73.5 -20l-10 3q-20 6 -34 10t-26 8.5t-24 9.5t-27 12z" />
    <glyph glyph-name="nine" unicode="9" horiz-adv-x="611" 
d="M90 521q-18 -108 31 -160.5t172 -52.5q136 0 236 42l-21 -118q-37 -219 -258 -219q-162 0 -189 131l-2 9l-28 -11l1 -7q32 -149 214 -149q124 0 197 62t94 183l43 246q21 117 -32.5 182t-174.5 65q-118 0 -191.5 -52t-91.5 -151zM119 516q16 88 81 134.5t170 46.5
q108 0 154 -58t27 -161l-17 -99q-100 -44 -235 -44q-109 0 -152.5 44t-27.5 137z" />
    <glyph glyph-name="colon" unicode=":" horiz-adv-x="186" 
d="M32 56q-2 -9 3 -15.5t14 -6.5t17 6.5t10 15.5t-3.5 15.5t-14.5 6.5t-16.5 -6.5t-9.5 -15.5zM88 418q-2 -9 3.5 -15.5t13.5 -6.5q9 0 16.5 6.5t9.5 15.5t-3 15.5t-14 6.5q-8 0 -16 -6.5t-10 -15.5z" />
    <glyph glyph-name="semicolon" unicode=";" horiz-adv-x="189" 
d="M-30 -121h20l88 167h-33zM87 457q-2 -9 3 -15.5t14 -6.5t16.5 6.5t9.5 15.5t-3.5 15.5t-14.5 6.5t-16 -6.5t-9 -15.5z" />
    <glyph glyph-name="less" unicode="&#x3c;" horiz-adv-x="507" 
d="M408 130l-328 195l397 194l8 35l-438 -216l-5 -23l363 -217z" />
    <glyph glyph-name="equal" unicode="=" horiz-adv-x="609" 
d="M87 412h472l4 27h-471zM56 241l-4 -26h472l4 26h-472z" />
    <glyph glyph-name="greater" unicode="&#x3e;" horiz-adv-x="506" 
d="M111 553l-6 -30l330 -196l-396 -193l-11 -37l440 218l6 22z" />
    <glyph glyph-name="question" unicode="?" horiz-adv-x="552" 
d="M375 307q36 23 66 44.5t52.5 47.5t37.5 58.5t23 76.5t-2 81.5t-35.5 65.5t-66 43.5t-94.5 15.5q-182 0 -274 -165l-4 -7l25 -9l4 7q81 147 248 147q47 0 82 -13.5t56.5 -37.5t30 -56.5t1.5 -71.5q-7 -41 -21 -70.5t-34.5 -53t-47.5 -43t-60 -39.5q-30 -18 -55.5 -36
t-45 -39.5t-33 -49t-20.5 -64.5l-1 -8h26l1 8q4 22 13 42t20 36.5t23 29t23 20.5t26.5 17.5t35.5 22.5zM179 18q-2 -9 3.5 -15.5t14.5 -6.5t16 6.5t9 15.5t-4 15.5t-14 6.5q-9 0 -16 -6.5t-9 -15.5z" />
    <glyph glyph-name="at" unicode="@" horiz-adv-x="899" 
d="M45 258q-16 -93 -2.5 -166t55.5 -122.5t111 -75.5t162 -26q108 0 219 28l6 2l4 24l-14 -4q-9 -3 -29 -7.5t-48 -9t-62 -7.5t-72 -3q-87 0 -151.5 24t-103.5 70.5t-52 115t2 156.5l11 69q15 86 52 155.5t93 118t130 75t162 26.5q90 0 154.5 -26t103.5 -74.5t51 -118
t-3 -156.5l-11 -69q-9 -45 -27 -80t-42.5 -58.5t-54 -35.5t-61.5 -12q-39 0 -32 39l66 381l-31 13q-69 30 -168 30q-85 0 -134.5 -42.5t-62.5 -120.5l-29 -161q-14 -78 21 -119.5t120 -41.5q105 0 197 43q0 -44 49 -44q36 0 70.5 13.5t63 40.5t49.5 66t30 90l12 68
q16 91 2.5 164.5t-55 125.5t-110.5 80t-164 28q-94 0 -172 -28t-138 -79.5t-99.5 -125t-56.5 -165.5zM383 73q-144 0 -120 138l28 160q24 139 170 139q94 0 151 -26l22 -10l-62 -357q-40 -23 -91.5 -33.5t-97.5 -10.5z" />
    <glyph glyph-name="A" unicode="A" horiz-adv-x="625" 
d="M-11 0l143 248h344l57 -248h31l-165 715h-28l-416 -715h34zM472 273h-326l234 402z" />
    <glyph glyph-name="B" unicode="B" horiz-adv-x="638" 
d="M32 0h308q93 0 151.5 46.5t75.5 137.5q14 72 -13.5 119.5t-88.5 61.5v1q116 33 138 166q15 85 -25.5 131.5t-128.5 46.5h-292zM401 349q78 0 114 -42t22 -118q-14 -79 -64 -120.5t-129 -41.5h-277l56 322h278zM182 683h261q78 0 110.5 -39t19.5 -114t-60.5 -114.5
t-123.5 -39.5h-262z" />
    <glyph glyph-name="C" unicode="C" horiz-adv-x="632" 
d="M51 231q-20 -115 38.5 -180t187.5 -65q59 0 104 11t80 33.5t61 56.5t47 80l4 9l-26 9l-5 -11q-19 -41 -43.5 -71t-56 -49.5t-72 -29t-92.5 -9.5q-115 0 -165 57t-32 160l43 250q18 102 88 158.5t187 56.5q102 0 149 -37.5t56 -119.5l1 -9l27 8l-1 10q-9 89 -62.5 132
t-167.5 43q-130 0 -208 -64t-98 -179z" />
    <glyph glyph-name="D" unicode="D" horiz-adv-x="642" 
d="M241 0q139 0 226 68.5t109 192.5l32 182q22 124 -41.5 195.5t-201.5 71.5h-208l-125 -710h209zM182 683h179q127 0 183 -62.5t36 -174.5l-32 -182q-20 -112 -99 -174.5t-203 -62.5h-179z" />
    <glyph glyph-name="E" unicode="E" horiz-adv-x="567" 
d="M157 710l-125 -710h442l5 27h-412l55 319h356l3 28h-354l55 309h396l7 27h-428z" />
    <glyph glyph-name="F" unicode="F" horiz-adv-x="556" 
d="M32 0h30l58 335h349l4 28h-348l57 320h396l7 27h-428z" />
    <glyph glyph-name="G" unicode="G" horiz-adv-x="649" 
d="M277 -14q128 0 206.5 63.5t97.5 177.5l23 124h-265l-4 -28h234l-16 -94q-17 -102 -88 -159t-186 -57q-118 0 -167 57t-31 162l43 250q18 102 87.5 158.5t187.5 56.5q51 0 87.5 -9.5t61 -29t38 -49t18.5 -70.5l1 -7l28 7l-1 9q-9 89 -63 132.5t-168 43.5
q-130 0 -208 -63.5t-98 -178.5l-44 -250q-21 -115 37 -180.5t189 -65.5z" />
    <glyph glyph-name="H" unicode="H" horiz-adv-x="679" 
d="M157 710l-125 -710h30l60 346h449l-60 -346h29l125 710h-29l-59 -336h-450l59 336h-29z" />
    <glyph glyph-name="I" unicode="I" horiz-adv-x="201" 
d="M157 710l-125 -710h30l124 710h-29z" />
    <glyph glyph-name="J" unicode="J" horiz-adv-x="564" 
d="M2 188q-2 -203 196 -203q112 0 181.5 59t87.5 165l88 501h-29l-88 -497q-17 -94 -78.5 -147t-158.5 -53q-91 0 -131 47t-39 138v10l-29 -11v-9z" />
    <glyph glyph-name="K" unicode="K" horiz-adv-x="593" 
d="M157 710l-125 -710h30l60 346h148q32 0 54 -5.5t38.5 -17.5t28 -31t20.5 -46l80 -246h32l-85 259q-15 46 -40.5 72t-71.5 35l315 344h-37l-307 -337q-5 1 -11.5 1h-16.5h-142l59 336h-29z" />
    <glyph glyph-name="L" unicode="L" horiz-adv-x="506" 
d="M455 27h-388l119 683h-29l-125 -710h418z" />
    <glyph glyph-name="M" unicode="M" horiz-adv-x="794" 
d="M157 710l-125 -710h30l114 653l187 -481h24l354 480l-115 -652h29l124 710h-28l-371 -502l-197 502h-26z" />
    <glyph glyph-name="N" unicode="N" horiz-adv-x="687" 
d="M157 710l-125 -710h30l115 655l343 -655h28l124 710h-29l-116 -656l-345 656h-25z" />
    <glyph glyph-name="O" unicode="O" horiz-adv-x="661" 
d="M52 234q-21 -115 37.5 -181.5t189.5 -66.5q129 0 207 62.5t98 177.5l44 250q21 115 -37 181.5t-187 66.5q-130 0 -209 -63t-99 -178zM281 13q-115 0 -166 57.5t-33 160.5l44 248q18 105 89 161.5t186 56.5t165.5 -57.5t32.5 -160.5l-44 -248q-18 -103 -89 -160.5
t-185 -57.5z" />
    <glyph glyph-name="P" unicode="P" horiz-adv-x="615" 
d="M62 0l49 283h249q102 0 168.5 53.5t85.5 153.5q10 50 2 90.5t-31 69.5t-61 44.5t-89 15.5h-278l-125 -710h30zM182 683h246q90 0 132 -49t25 -139q-16 -88 -75.5 -136.5t-147.5 -48.5h-246z" />
    <glyph glyph-name="Q" unicode="Q" horiz-adv-x="672" 
d="M279 -14q114 0 185 49l65 -95l25 17l-64 96q75 62 94 173l44 250q21 115 -37 181.5t-187 66.5q-130 0 -209 -63t-99 -178l-44 -249q-21 -115 37.5 -181.5t189.5 -66.5zM126 479q18 105 89 161.5t186 56.5t165.5 -57.5t32.5 -160.5l-44 -248q-18 -103 -89 -160.5
t-185 -57.5q-115 0 -166 57.5t-33 160.5z" />
    <glyph glyph-name="R" unicode="R" horiz-adv-x="635" 
d="M118 320h185q32 0 55 -5.5t40 -17.5t28.5 -31t20.5 -46l72 -220h34l-77 233q-24 69 -77 90q88 4 145 52t73 136q16 94 -26.5 146.5t-136.5 52.5h-297l-125 -710h30zM447 683q82 0 118.5 -44t22.5 -125t-66.5 -123.5t-133.5 -42.5h-266l60 335h265z" />
    <glyph glyph-name="S" unicode="S" horiz-adv-x="611" 
d="M546 177q20 109 -53 149q-18 10 -35.5 17t-36 12t-40 8.5t-48.5 6.5q-54 6 -99 18t-77 40q-18 17 -27 45t-2 65q13 76 76.5 116.5t166.5 40.5q87 0 134.5 -34t68.5 -103l2 -7l27 13l-2 7q-24 75 -77 114t-148 39q-118 0 -189.5 -46t-87.5 -136q-10 -57 6 -93t49 -58
t77 -33t90 -16q17 -2 41 -5.5t49 -9.5t46.5 -15t34.5 -22q15 -16 23.5 -43.5t1.5 -64.5q-30 -168 -259 -168q-91 0 -141 38t-72 123l-2 7l-29 -10l2 -9q21 -91 79 -134t161 -43q257 0 290 191z" />
    <glyph glyph-name="T" unicode="T" horiz-adv-x="522" 
d="M83 710l-5 -27h235l-120 -683h29l120 683h233l7 27h-499z" />
    <glyph glyph-name="U" unicode="U" horiz-adv-x="679" 
d="M69 243q-21 -119 33.5 -188.5t183.5 -69.5t205 66t97 184l84 475h-30l-83 -470q-18 -106 -86.5 -167t-183.5 -61t-162.5 60t-28.5 168l83 470h-29z" />
    <glyph glyph-name="V" unicode="V" horiz-adv-x="606" 
d="M235 0h29l405 710h-33l-381 -671l-142 671h-32z" />
    <glyph glyph-name="W" unicode="W" horiz-adv-x="862" 
d="M94 710l69 -710h31l298 644l70 -644h31l320 710h-32l-296 -657l-69 639h-31l-297 -642l-63 660h-31z" />
    <glyph glyph-name="X" unicode="X" horiz-adv-x="600" 
d="M293 361l-336 -361h39l311 336l196 -336h35l-208 359l325 351h-37l-303 -326l-188 326h-36z" />
    <glyph glyph-name="Y" unicode="Y" horiz-adv-x="610" 
d="M289 295l-51 -295h29l51 294l356 416h-38l-327 -385l-191 385h-36z" />
    <glyph glyph-name="Z" unicode="Z" horiz-adv-x="540" 
d="M-20 28l-6 -28h490l4 28h-453l557 659l5 23h-473l-7 -27h437z" />
    <glyph glyph-name="bracketleft" unicode="[" horiz-adv-x="245" 
d="M169 856l-176 -1002h164l5 26h-137l168 950h136l4 26h-164z" />
    <glyph glyph-name="backslash" unicode="\" horiz-adv-x="380" 
d="M135 710h-30l148 -770h30z" />
    <glyph glyph-name="bracketright" unicode="]" horiz-adv-x="244" 
d="M-70 -146h165l175 1002h-164l-4 -26h137l-167 -950h-138z" />
    <glyph glyph-name="asciicircum" unicode="^" horiz-adv-x="593" 
d="M397 809h-19l-286 -290h36l256 260l166 -260h36z" />
    <glyph glyph-name="underscore" unicode="_" horiz-adv-x="513" 
d="M-23 0l-4 -27h452l5 27h-453z" />
    <glyph glyph-name="grave" unicode="`" horiz-adv-x="257" 
d="M123 727l-18 -18l170 -117l14 14z" />
    <glyph glyph-name="a" unicode="a" horiz-adv-x="528" 
d="M189 -14q115 0 211 34l13 4l79 456l-37 17q-60 28 -154 28q-108 0 -165 -44t-73 -141l-27 -149q-17 -94 20 -149.5t133 -55.5zM89 338q16 86 65.5 124t143.5 38q80 0 137 -26l27 -12l-74 -418q-90 -33 -193 -33q-84 0 -115.5 47.5t-16.5 131.5z" />
    <glyph glyph-name="b" unicode="b" horiz-adv-x="532" 
d="M60 14q60 -28 154 -28q206 0 241 197l26 148q36 194 -155 194q-90 0 -197 -42l46 257h-28l-125 -709zM125 456q96 44 195 44q164 0 134 -166l-26 -148q-30 -175 -211 -175q-75 0 -138 26l-27 11z" />
    <glyph glyph-name="c" unicode="c" horiz-adv-x="510" 
d="M33 181q-16 -91 29 -143t147 -52q167 0 234 147l4 9l-26 6l-3 -7q-30 -67 -79 -98.5t-127 -31.5q-88 0 -127 44t-25 122l28 158q14 78 68 121.5t142 43.5q78 0 114.5 -30t45.5 -93l1 -6l25 6l-1 9q-9 67 -50.5 103t-130.5 36q-103 0 -164 -48.5t-77 -139.5z" />
    <glyph glyph-name="d" unicode="d" horiz-adv-x="531" 
d="M34 186q-35 -200 171 -200q92 0 166 28l42 16l125 710h-27l-46 -256q-84 41 -182 41q-189 0 -222 -191zM282 500q100 0 179 -43l-73 -409l-29 -11q-70 -26 -148 -26q-178 0 -150 174l27 147q30 168 194 168z" />
    <glyph glyph-name="e" unicode="e" horiz-adv-x="516" 
d="M203 -14q147 0 228 112l6 8l-21 13l-6 -8q-36 -49 -83.5 -75t-119.5 -26q-88 0 -125.5 43.5t-23.5 124.5l12 63q88 -20 186 -20q194 0 227 134q20 81 -27.5 125.5t-150.5 44.5q-100 0 -165.5 -53.5t-82.5 -150.5l-25 -140q-17 -91 26 -143t145 -52zM83 320
q15 85 72.5 133t145.5 48q91 0 132 -36.5t23 -105.5q-28 -115 -195 -115q-105 0 -188 21z" />
    <glyph glyph-name="f" unicode="f" horiz-adv-x="335" 
d="M167 549l-6 -38h-121l-4 -25h121l-86 -486h27l86 486h177l4 25h-177l6 38q9 48 22 80t35.5 51t56.5 27t83 8h7l6 25h-16q-54 0 -91.5 -10.5t-63 -33t-41.5 -58.5t-25 -89z" />
    <glyph glyph-name="g" unicode="g" horiz-adv-x="532" 
d="M456 497q-60 28 -154 28q-208 0 -241 -195l-26 -146q-16 -93 21.5 -144t134.5 -51q102 0 195 41l-12 -72q-34 -189 -211 -189q-66 0 -99.5 26t-49.5 78l-2 6l-26 -10l3 -9q38 -117 170 -117q204 0 242 215l92 522zM391 57q-92 -43 -195 -43q-164 0 -134 169l26 145
q31 172 211 172q74 0 137 -26l27 -11z" />
    <glyph glyph-name="h" unicode="h" horiz-adv-x="546" 
d="M150 740l-130 -740h28l80 459q91 41 193 41q165 0 136 -168l-58 -332h27l58 333q33 192 -157 192q-102 0 -194 -39l44 254h-27z" />
    <glyph glyph-name="i" unicode="i" horiz-adv-x="173" 
d="M20 0h28l89 511h-28zM130 667q-1 -9 4 -15t14 -6q8 0 14.5 6t8.5 15q2 8 -3.5 14t-14.5 6q-8 0 -14.5 -6t-8.5 -14z" />
    <glyph glyph-name="j" unicode="j" horiz-adv-x="173" 
d="M-188 -204l-5 -26h8q53 0 91.5 13.5t66 40.5t45 68.5t27.5 97.5l92 521h-28l-91 -521q-9 -50 -23.5 -86.5t-38 -60.5t-56.5 -35.5t-79 -11.5h-9zM130 667q-2 -9 3.5 -15t14.5 -6q8 0 14.5 6t8.5 15q2 8 -3.5 14t-14.5 6q-8 0 -14.5 -6t-8.5 -14z" />
    <glyph glyph-name="k" unicode="k" horiz-adv-x="492" 
d="M150 740l-130 -740h28l43 252h143q42 0 64 -16t34 -54l58 -182h30l-62 193q-12 35 -31 54t-53 24l232 240h-35l-227 -235h-148l81 464h-27z" />
    <glyph glyph-name="l" unicode="l" horiz-adv-x="180" 
d="M154 740l-130 -740h27l130 740h-27z" />
    <glyph glyph-name="m" unicode="m" horiz-adv-x="808" 
d="M125 461l26 12q59 27 130 27q78 0 108 -38.5t16 -120.5l-60 -341h27l60 343q12 70 -7 110q77 47 175 47q76 0 104.5 -38.5t14.5 -120.5l-60 -341h28l60 342q32 183 -140 183q-92 0 -194 -50q-33 50 -126 50q-77 0 -146 -29l-40 -17l-84 -479h28z" />
    <glyph glyph-name="n" unicode="n" horiz-adv-x="543" 
d="M101 478l-84 -478h28l79 460l26 10q75 30 168 30q165 0 136 -168l-58 -332h27l58 333q35 192 -157 192q-96 0 -183 -32z" />
    <glyph glyph-name="o" unicode="o" horiz-adv-x="536" 
d="M31 157q-6 -39 4 -71t34 -54t61 -34t85 -12t88.5 11.5t71.5 33.5t51.5 53.5t27.5 70.5l35 199q13 79 -36.5 125t-146.5 46q-48 0 -89 -12t-72 -34t-51.5 -53.5t-27.5 -70.5zM217 11q-41 0 -73 10t-53 29t-29.5 45.5t-2.5 59.5l34 201q13 66 70.5 105t139.5 39
q42 0 74 -10t53 -29t29.5 -45.5t2.5 -59.5l-35 -201q-6 -33 -24 -59.5t-45.5 -45.5t-63 -29t-77.5 -10z" />
    <glyph glyph-name="p" unicode="p" horiz-adv-x="531" 
d="M6 -220l44 254q86 -48 180 -48q189 0 224 191l26 149q34 199 -170 199q-45 0 -86.5 -7t-78.5 -21l-43 -16l-123 -701h27zM156 474q66 26 148 26q179 0 149 -174l-26 -148q-30 -167 -194 -167q-98 0 -178 51l71 400z" />
    <glyph glyph-name="q" unicode="q" horiz-adv-x="533" 
d="M190 -14q98 0 198 48l-44 -254h27l123 700l-37 17q-60 28 -154 28q-206 0 -241 -198l-27 -150q-35 -191 155 -191zM89 325q30 175 211 175q80 0 137 -26l27 -12l-71 -400q-97 -51 -196 -51q-165 0 -135 166z" />
    <glyph glyph-name="r" unicode="r" horiz-adv-x="333" 
d="M94 439l-76 -439h27l75 433q5 27 31 38q73 29 167 29h38l5 25h-38q-50 0 -95 -7.5t-87 -24.5q-24 -10 -33 -20.5t-14 -33.5z" />
    <glyph glyph-name="s" unicode="s" horiz-adv-x="487" 
d="M67 386q-14 -83 42 -116q34 -20 134 -29q41 -4 70.5 -10.5t48 -19t25.5 -33t1 -51.5q-21 -116 -190 -116q-72 0 -113 26t-53 86l-1 6l-27 -7l2 -9q14 -69 61 -98t128 -29q196 0 220 139q15 79 -38 109q-26 14 -54 21t-70 11q-2 0 -4.5 0.5t-6.5 0.5q-35 4 -64.5 8
t-50 15.5t-29.5 33t-3 60.5q20 116 182 116q75 0 110 -24t46 -72l2 -7l24 11l-2 8q-22 109 -177 109q-186 0 -213 -139z" />
    <glyph glyph-name="t" unicode="t" horiz-adv-x="327" 
d="M140 45q-29 33 -11 133l54 308h176l4 25h-176l20 120h-27l-20 -120h-124l-4 -25h124l-55 -309q-19 -112 15 -152q33 -39 136 -39h17l4 26h-7q-97 0 -126 33z" />
    <glyph glyph-name="u" unicode="u" 
d="M47 178q-34 -192 157 -192q98 0 183 32l40 15l84 478h-27l-81 -462l-25 -9q-78 -29 -168 -29q-164 0 -136 168l59 332h-28z" />
    <glyph glyph-name="v" unicode="v" horiz-adv-x="490" 
d="M180 -4h25l310 515h-30l-287 -479l-120 479h-28z" />
    <glyph glyph-name="w" unicode="w" horiz-adv-x="725" 
d="M59 511l72 -516h25l234 458l70 -458h26l255 516h-29l-232 -472l-71 454h-25l-233 -452l-65 470h-27z" />
    <glyph glyph-name="x" unicode="x" horiz-adv-x="466" 
d="M-41 0h33l232 243l148 -243h30l-160 262l240 249h-34l-219 -229l-141 229h-30l152 -248z" />
    <glyph glyph-name="y" unicode="y" horiz-adv-x="547" 
d="M105 511l-57 -329q-34 -193 157 -193q83 0 194 38l-12 -69q-34 -189 -213 -189q-66 0 -100 26.5t-50 77.5l-2 7l-27 -12l3 -8q38 -117 172 -117q207 0 244 216l97 552h-27l-81 -458q-103 -39 -192 -39q-88 0 -119.5 41.5t-16.5 126.5l57 329h-27z" />
    <glyph glyph-name="z" unicode="z" horiz-adv-x="434" 
d="M-25 0h380l4 25h-346l422 461l5 25h-372l-5 -25h339l-423 -462z" />
    <glyph glyph-name="braceleft" unicode="{" horiz-adv-x="293" 
d="M59 -23q-11 -64 11 -94t86 -30h51l5 26h-50q-51 0 -67.5 24t-7.5 75l45 259q17 95 -44 117q69 23 86 118l45 259q9 51 34 75t76 24h50l4 26h-50q-64 0 -97 -30t-44 -94l-45 -258q-10 -54 -36.5 -80t-78.5 -26h-19l-4 -27h17q54 0 71.5 -24.5t6.5 -81.5z" />
    <glyph glyph-name="bar" unicode="|" horiz-adv-x="168" 
d="M169 856l-176 -1003h26l176 1003h-26z" />
    <glyph glyph-name="braceright" unicode="}" horiz-adv-x="293" 
d="M139 237l-46 -259q-8 -51 -33 -75t-76 -24h-51l-4 -26h50q65 0 97 29.5t44 94.5l46 258q9 54 35.5 80t78.5 26h19l4 27h-17q-52 0 -70 26t-8 80l45 258q12 66 -9.5 95t-87.5 29h-51l-4 -26h51q51 0 67 -24t7 -75l-46 -259q-17 -93 44 -116q-69 -23 -85 -119z" />
    <glyph glyph-name="asciitilde" unicode="~" horiz-adv-x="562" 
d="M70 307l-6 -5l14 -19l7 5q53 43 106 43q34 0 89 -23t94 -23q60 0 124 50l7 5l-16 19l-6 -5q-52 -43 -107 -43q-35 0 -89 23q-55 23 -94 23q-59 0 -123 -50z" />
    <glyph glyph-name="exclamdown" unicode="&#xa1;" horiz-adv-x="166" 
d="M-27 -232h31l100 600h-20zM93 490q-2 -9 4 -15.5t15 -6.5t16 6.5t9 15.5t-4 15.5t-15 6.5t-16 -6.5t-9 -15.5z" />
    <glyph glyph-name="cent" unicode="&#xa2;" horiz-adv-x="529" 
d="M447 133l4 8l-26 7l-3 -7q-30 -67 -79 -98.5t-127 -31.5q-88 0 -127 44t-25 122l28 158q14 78 67 121.5t143 43.5q79 0 115 -28.5t44 -94.5l1 -6l27 7l-1 9q-8 65 -46.5 100t-121.5 38l15 85h-28l-15 -85q-97 -4 -154.5 -51.5t-72.5 -134.5l-27 -157q-15 -88 25.5 -140
t134.5 -56l-13 -70h29l12 71q155 5 221 146z" />
    <glyph glyph-name="sterling" unicode="&#xa3;" horiz-adv-x="625" 
d="M526 27h-329h-23.5t-32 -0.5t-31.5 -0.5h-21v1q56 36 69 109l33 190h296l6 26h-297l34 195q12 69 61 109.5t137 40.5q72 0 110.5 -30.5t51.5 -107.5l2 -11l27 14l-1 7q-14 84 -59 119.5t-127 35.5q-103 0 -160.5 -48t-70.5 -127l-36 -197h-100l-6 -26h102l-34 -190
q-3 -21 -11.5 -40.5t-21.5 -34.5t-30 -24.5t-38 -9.5h-31l-4 -27h530z" />
    <glyph glyph-name="currency" unicode="&#xa4;" horiz-adv-x="589" 
d="M106 548l51 -62q-68 -64 -83 -150t34 -150l-76 -65l17 -18l74 63q56 -57 140 -57q85 0 161 58l52 -63l22 21l-51 61q66 66 81 150q15 88 -33 152l74 62l-15 21l-75 -64q-56 56 -140 56q-85 0 -159 -57l-52 63zM135 195q-49 59 -34 142q7 42 29 78t53.5 63t71 42.5
t81.5 15.5q83 0 131 -57q48 -58 33 -142q-7 -41 -28.5 -77.5t-53 -64t-71 -43.5t-81.5 -16q-84 0 -131 59z" />
    <glyph glyph-name="yen" unicode="&#xa5;" horiz-adv-x="629" 
d="M343 332l326 378h-37l-315 -368l-184 368h-36l192 -378h-171l-3 -23h182l-21 -119h-183l-3 -23h182l-29 -167h30l28 167h180l6 23h-181l20 119h182l3 23h-168z" />
    <glyph glyph-name="brokenbar" unicode="&#xa6;" horiz-adv-x="180" 
d="M101 431h26l74 425h-26zM74 279l-75 -425h26l74 425h-25z" />
    <glyph glyph-name="section" unicode="&#xa7;" horiz-adv-x="586" 
d="M322 418q-25 3 -43.5 5t-34 5.5t-29 8t-30.5 11.5q-33 14 -44 42t-3 71q25 142 220 142q157 0 184 -148l2 -9l27 12l-1 7q-30 166 -208 166q-115 0 -177 -43.5t-76 -121.5q-21 -120 90 -153q-128 -46 -148 -159q-10 -59 11.5 -92.5t63.5 -48.5q31 -12 58.5 -16.5
t67.5 -8.5q12 0 36.5 -3t50.5 -9t48.5 -14t30.5 -18q10 -13 19.5 -38.5t3.5 -60.5q-12 -66 -69.5 -104t-160.5 -38q-164 0 -190 156l-1 7l-29 -9l1 -8q29 -174 217 -174q118 0 183.5 44t77.5 122q22 118 -89 153q116 52 136 158q8 45 -4.5 77.5t-44.5 49.5t-65 25.5
t-81 13.5zM347 104q-17 4 -38.5 6.5t-47.5 4.5q-16 2 -38 4.5t-44 7.5t-42 13t-32 20q-15 14 -23 38t-2 56q5 31 19 55t34.5 42t46 30.5t52.5 20.5q13 -2 33 -5t47 -6q37 -3 71 -10t59.5 -22t38 -40.5t6.5 -66.5q-18 -98 -140 -148z" />
    <glyph glyph-name="dieresis" unicode="&#xa8;" horiz-adv-x="439" 
d="M360 650q-1 -8 4 -14t13 -6t14.5 6t8.5 14q1 8 -4 13.5t-13 5.5t-14.5 -5.5t-8.5 -13.5zM172 650q-2 -8 3 -14t13 -6t14.5 6t8.5 14q1 8 -4 13.5t-13 5.5t-14.5 -5.5t-7.5 -13.5z" />
    <glyph glyph-name="copyright" unicode="&#xa9;" horiz-adv-x="814" 
d="M774 351q27 153 -58 256t-236 103q-78 0 -148.5 -27.5t-126.5 -76t-94.5 -114t-52.5 -141.5q-27 -151 59 -255t237 -104q77 0 147.5 28t126.5 76.5t94.5 114t51.5 140.5zM357 13q-143 0 -223 98q-80 99 -55 240q12 72 48.5 133.5t90 107t120 71.5t139.5 26q143 0 222 -97
t54 -241q-12 -70 -48.5 -132t-89.5 -107.5t-119.5 -72t-138.5 -26.5zM375 141q128 0 177 111l3 7l-21 6l-3 -6q-24 -51 -59.5 -74t-93.5 -23q-66 0 -94 32t-18 92l22 121q23 123 155 123q61 0 87 -20.5t32 -70.5l1 -5l22 7l-1 7q-6 51 -37.5 77.5t-98.5 26.5
q-78 0 -124.5 -36.5t-58.5 -105.5l-21 -122q-12 -69 22 -108t109 -39z" />
    <glyph glyph-name="ordfeminine" unicode="&#xaa;" horiz-adv-x="372" 
d="M138 597q44 51 110 51q54 0 71.5 -25t8.5 -76l-4 -23q-78 6 -102 6q-127 0 -142 -90q-8 -42 18 -63.5t92 -21.5q63 0 97 15l37 16l28 160q10 59 -12.5 91.5t-87.5 32.5q-79 0 -132 -60l-6 -7l20 -11zM277 389q-33 -13 -84 -13q-54 0 -74.5 15.5t-15.5 46.5q12 72 116 72
q62 0 101 -6l-18 -106z" />
    <glyph glyph-name="guillemotleft" unicode="&#xab;" 
d="M290 483l-257 -221l178 -216l22 13l-166 201l236 200zM255 262l178 -216l22 13l-166 201l236 200l-13 23z" />
    <glyph glyph-name="logicalnot" unicode="&#xac;" horiz-adv-x="573" 
d="M517 371h-433l-4 -26h405l-36 -205h28z" />
    <glyph glyph-name="registered" unicode="&#xae;" horiz-adv-x="491" 
d="M443 653q-48 57 -127 57q-42 0 -80.5 -14.5t-69 -40.5t-51 -61.5t-27.5 -77.5q-13 -79 35 -137q48 -57 128 -57q43 0 80.5 14.5t67.5 40.5t50 61.5t27 77.5q14 80 -33 137zM460 516q-7 -38 -25.5 -70.5t-45.5 -56.5t-62 -37.5t-74 -13.5q-74 0 -117 52q-43 53 -30 126
q7 38 25.5 70.5t46 56t63 37t75.5 13.5q72 0 115 -52q41 -51 29 -125zM186 412h18l15 78h78l30 -78h20l-32 80q51 11 60 62q5 31 -10.5 48.5t-47.5 17.5h-94zM221 507l17 96h75q25 0 37.5 -12.5t7.5 -35.5q-9 -48 -61 -48h-76z" />
    <glyph glyph-name="macron" unicode="&#xaf;" horiz-adv-x="352" 
d="M118 660l-3 -23h253l3 23h-253z" />
    <glyph glyph-name="degree" unicode="&#xb0;" horiz-adv-x="377" 
d="M90 559q-11 -59 25 -102q35 -44 93 -44q29 0 56.5 11t50 29.5t38 44t20.5 54.5q5 30 -2 56.5t-23 46t-40 30.5t-53 11q-30 0 -57.5 -10.5t-49.5 -28.5t-37.5 -43t-20.5 -55zM211 438q-24 0 -44 9t-33 25t-18.5 37.5t-1.5 45.5q5 24 17.5 45.5t31.5 37t42 24.5t47 9t44 -9
t32.5 -24.5t18 -37t1.5 -45.5t-17 -45t-31.5 -37t-41.5 -25.5t-47 -9.5z" />
    <glyph glyph-name="plusminus" unicode="&#xb1;" horiz-adv-x="669" 
d="M119 408l-3 -25h224l-27 -149h26l27 149h222l3 25h-221l26 153h-26l-26 -153h-225zM73 139h472l3 25h-472z" />
    <glyph glyph-name="twosuperior" unicode="&#xb2;" horiz-adv-x="343" 
d="M266 795q51 0 73.5 -25.5t15.5 -67.5q-3 -20 -13 -34t-23.5 -24t-30 -16.5t-33.5 -12.5q-10 -3 -16 -5t-8 -3l-67 -23q-80 -29 -96 -115l-10 -56h269l3 23h-244l7 38q10 67 77 90l67 23q23 6 50.5 17.5t47.5 23.5q17 12 28.5 29.5t16.5 43.5q9 52 -19.5 84.5t-91.5 32.5
q-38 0 -65 -13t-45 -30t-29 -35t-16 -28l-6 -15l21 -8q12 24 23.5 43.5t27 33.5t36.5 21.5t50 7.5z" />
    <glyph glyph-name="threesuperior" unicode="&#xb3;" horiz-adv-x="356" 
d="M109 705l-3 -8l21 -8l4 9q44 98 144 98q45 0 66.5 -24.5t14.5 -66.5q-7 -33 -27.5 -55.5t-54.5 -22.5h-85l-3 -23h86q34 0 51 -25t10 -61q-8 -40 -40 -65t-84 -25q-55 0 -80 22.5t-31 73.5l-1 8l-24 -7l1 -9q6 -57 37 -84t95 -27q66 0 104.5 30t47.5 81q12 72 -46 100
q56 23 67 89q8 51 -18 82t-83 31q-63 0 -103 -26.5t-66 -86.5z" />
    <glyph glyph-name="acute" unicode="&#xb4;" horiz-adv-x="257" 
d="M300 727l-210 -120l12 -17l212 117z" />
    <glyph glyph-name="mu" unicode="&#xb5;" horiz-adv-x="538" 
d="M-25 -220h28l53 305q22 -100 152 -100q93 0 177 32l40 16l84 478h-27l-81 -461l-26 -10q-76 -30 -166 -30q-165 0 -137 168l59 333h-28z" />
    <glyph glyph-name="paragraph" unicode="&#xb6;" horiz-adv-x="317" 
d="M177 555l-113 -644h26l135 770h51l-135 -770h27l141 799h-102q-36 0 -61.5 -21t-31.5 -56q-6 -34 11.5 -56t51.5 -22z" />
    <glyph glyph-name="periodcentered" unicode="&#xb7;" horiz-adv-x="180" 
d="M62 263q-2 -9 3 -15.5t14 -6.5t17 6.5t10 15.5t-3.5 15.5t-14.5 6.5t-16.5 -6.5t-9.5 -15.5z" />
    <glyph glyph-name="cedilla" unicode="&#xb8;" horiz-adv-x="251" 
d="M-50 -217l6 -5q31 -24 82 -24q49 0 82 23t41 68q6 34 -13 53t-61 19q-19 0 -37 -5l47 88h-20l-61 -112l16 6q17 6 41 6q73 0 65 -53q-7 -35 -33 -54t-65 -19q-50 0 -82 29l-5 5z" />
    <glyph glyph-name="onesuperior" unicode="&#xb9;" horiz-adv-x="259" 
d="M195 413h24l69 397h-18l-181 -93l6 -20l164 81z" />
    <glyph glyph-name="ordmasculine" unicode="&#xba;" horiz-adv-x="377" 
d="M86 478q-11 -57 18 -89.5t92 -32.5q132 0 151 114l15 79q10 55 -18.5 88t-92.5 33q-63 0 -102 -29.5t-48 -83.5zM200 379q-51 0 -74.5 24.5t-15.5 69.5l14 80q8 45 40 69.5t83 24.5q54 0 76.5 -24.5t14.5 -69.5l-14 -80q-8 -45 -40 -69.5t-84 -24.5z" />
    <glyph glyph-name="guillemotright" unicode="&#xbb;" horiz-adv-x="546" 
d="M464 265l-235 -200l17 -21l256 219l-180 218l-23 -15zM7 65l17 -21l256 219l-180 218l-23 -15l165 -201z" />
    <glyph glyph-name="onequarter" unicode="&#xbc;" horiz-adv-x="813" 
d="M638 0h24l21 118h65l3 22h-64l44 257h-26l-258 -259l-3 -20h215zM707 710h-33l-523 -710h33zM702 365l-40 -225h-184zM267 719l-181 -93l6 -20l164 81l-64 -365h24l69 397h-18z" />
    <glyph glyph-name="onehalf" unicode="&#xbd;" horiz-adv-x="886" 
d="M790 23h-244l7 38q10 67 77 90l67 23q23 6 50.5 17.5t47.5 23.5q17 12 28.5 29.5t16.5 43.5q9 52 -19.5 84.5t-91.5 32.5q-38 0 -65 -13t-45 -30t-29 -35t-16 -28l-6 -15l21 -8q12 24 23.5 43.5t27 33.5t36.5 21.5t50 7.5q51 0 73.5 -25.5t15.5 -67.5q-3 -20 -13 -34
t-23.5 -24t-30 -16.5t-33.5 -12.5q-10 -3 -16 -5t-8 -3l-67 -23q-80 -29 -96 -115l-10 -56h269zM709 710h-33l-522 -710h32zM92 606l164 81l-64 -365h24l69 397h-18l-181 -93z" />
    <glyph glyph-name="threequarters" unicode="&#xbe;" horiz-adv-x="869" 
d="M502 118h215l-21 -118h24l21 118h65l3 22h-64l44 257h-26l-258 -259zM101 614l-3 -8l21 -8l4 9q44 98 144 98q45 0 66.5 -24.5t14.5 -66.5q-7 -33 -27.5 -55.5t-54.5 -22.5h-85l-3 -23h86q34 0 51 -25t10 -61q-8 -40 -40 -65t-84 -25q-55 0 -80 22.5t-31 73.5l-1 8
l-24 -7l1 -9q6 -57 37 -84t95 -27q66 0 104.5 30t47.5 81q12 72 -46 100q56 23 67 89q8 51 -18 82t-83 31q-63 0 -103 -26.5t-66 -86.5zM766 710h-33l-523 -710h33zM720 140h-184l224 225z" />
    <glyph glyph-name="questiondown" unicode="&#xbf;" horiz-adv-x="546" 
d="M429 -51l-4 -7q-81 -147 -248 -147q-48 0 -83 13.5t-56.5 37.5t-29.5 56.5t-1 71.5q7 41 21 71t34.5 53t47.5 42.5t60 39.5q31 19 56.5 37t45 39.5t32.5 49t20 64.5l1 7h-26l-1 -7q-6 -33 -19 -58t-31.5 -44.5t-41.5 -35.5t-49 -31q-37 -22 -66.5 -43.5t-52 -47.5
t-37.5 -58.5t-23 -77.5q-8 -44 2 -81.5t35.5 -65.5t66 -43.5t94.5 -15.5q183 0 274 165l4 7zM354 491q1 9 -4.5 15.5t-14.5 6.5t-16 -6.5t-9 -15.5q-1 -9 4.5 -15.5t14.5 -6.5t16 6.5t9 15.5z" />
    <glyph glyph-name="Agrave" unicode="&#xc0;" horiz-adv-x="625" 
d="M-11 0l143 248h344l57 -248h31l-165 715h-28l-416 -715h34zM472 273h-326l234 402zM306 870l177 -111l15 15l-172 116z" />
    <glyph glyph-name="Aacute" unicode="&#xc1;" horiz-adv-x="625" 
d="M-11 0l143 248h344l57 -248h31l-165 715h-28l-416 -715h34zM472 273h-326l234 402zM294 778l11 -16l214 116l-15 21z" />
    <glyph glyph-name="Acircumflex" unicode="&#xc2;" horiz-adv-x="625" 
d="M-11 0l143 248h344l57 -248h31l-165 715h-28l-416 -715h34zM472 273h-326l234 402zM227 765h36l153 108l113 -108h32l-134 130h-18z" />
    <glyph glyph-name="Atilde" unicode="&#xc3;" horiz-adv-x="625" 
d="M564 0l-165 715h-28l-416 -715h34l143 248h344l57 -248h31zM472 273h-326l234 402zM479 795q-29 0 -70 38t-78 38q-35 0 -58 -24t-31 -66l-1 -6h21l1 6q5 31 23 50t43 19q24 0 40 -11.5t31 -26t32.5 -26t44.5 -11.5q72 0 88 90l1 6h-21l-1 -6q-6 -31 -22.5 -50.5
t-42.5 -19.5z" />
    <glyph glyph-name="Adieresis" unicode="&#xc4;" horiz-adv-x="625" 
d="M371 715l-416 -715h34l143 248h344l57 -248h31l-165 715h-28zM472 273h-326l234 402zM496 806q8 0 15 6t9 14q1 8 -4 13.5t-13 5.5t-15 -5.5t-8 -13.5q-2 -8 3 -14t13 -6zM313 845q-8 0 -14.5 -5.5t-8.5 -13.5q-1 -8 4 -14t13 -6t14.5 6t8.5 14q1 8 -4 13.5t-13 5.5z" />
    <glyph glyph-name="Aring" unicode="&#xc5;" horiz-adv-x="625" 
d="M-45 0h34l143 248h344l57 -248h31l-161 701q36 5 60 28t31 61q8 45 -13 70.5t-66 25.5q-46 0 -77 -24t-39 -69q-6 -38 10.5 -63t52.5 -30zM472 273h-326l234 402zM474 791q-6 -34 -30 -54.5t-59 -20.5q-37 0 -54.5 20t-11.5 55q7 36 31.5 56t61.5 20q35 0 52 -20.5
t10 -55.5z" />
    <glyph glyph-name="AE" unicode="&#xc6;" horiz-adv-x="808" 
d="M717 0l4 27h-313l56 318h257l4 28h-256l55 310h299l4 27h-332l-553 -710h34l151 195h282l-34 -195h342zM493 665l-80 -444h-266z" />
    <glyph glyph-name="Ccedilla" unicode="&#xc7;" horiz-adv-x="632" 
d="M160 -198l-5 5l-3 -25l6 -5q32 -24 82 -24q49 0 82 23t41 68q6 34 -13 53t-61 19q-19 0 -37 -5l40 75q55 1 97.5 13t75.5 34.5t58.5 55.5t45.5 78l4 9l-26 9l-5 -11q-19 -41 -43.5 -71t-56 -49.5t-72 -29t-92.5 -9.5q-115 0 -165 57t-32 160l43 250q18 102 88 158.5
t187 56.5q102 0 149 -37.5t56 -119.5l1 -9l27 8l-1 10q-9 89 -62.5 132t-167.5 43q-130 0 -208 -64t-98 -179l-44 -250q-20 -113 37.5 -178t183.5 -67l-54 -99l16 6q17 6 41 6q73 0 65 -53q-7 -35 -33 -54t-65 -19q-50 0 -82 29z" />
    <glyph glyph-name="Egrave" unicode="&#xc8;" horiz-adv-x="567" 
d="M157 710l-125 -710h442l5 27h-412l55 319h356l3 28h-354l55 309h396l7 27h-428zM294 870l177 -112l13 17l-171 115z" />
    <glyph glyph-name="Eacute" unicode="&#xc9;" horiz-adv-x="567" 
d="M157 710l-125 -710h442l5 27h-412l55 319h356l3 28h-354l55 309h396l7 27h-428zM280 778l12 -17l212 117l-12 21z" />
    <glyph glyph-name="Ecircumflex" unicode="&#xca;" horiz-adv-x="567" 
d="M585 710h-428l-125 -710h442l5 27h-412l55 319h356l3 28h-354l55 309h396zM516 765h31l-134 130h-18l-182 -130h36l153 108z" />
    <glyph glyph-name="Edieresis" unicode="&#xcb;" horiz-adv-x="567" 
d="M122 346h356l3 28h-354l55 309h396l7 27h-428l-125 -710h442l5 27h-412zM482 806q8 0 15 6t9 14t-3.5 13.5t-13.5 5.5t-14.5 -5.5t-8.5 -13.5t3 -14t13 -6zM317 826q1 8 -3.5 13.5t-12.5 5.5t-14.5 -5.5t-8.5 -13.5t2.5 -14t12.5 -6t15 6t9 14z" />
    <glyph glyph-name="Igrave" unicode="&#xcc;" horiz-adv-x="201" 
d="M157 710l-125 -710h30l124 710h-29zM93 870l177 -111l15 15l-172 116z" />
    <glyph glyph-name="Iacute" unicode="&#xcd;" horiz-adv-x="201" 
d="M157 710l-125 -710h30l124 710h-29zM292 899l-211 -120l12 -17l211 116z" />
    <glyph glyph-name="Icircumflex" unicode="&#xce;" horiz-adv-x="201" 
d="M157 710l-125 -710h30l124 710h-29zM195 895l-181 -130h36l152 108l114 -108h32l-134 130h-19z" />
    <glyph glyph-name="Idieresis" unicode="&#xcf;" horiz-adv-x="201" 
d="M32 0h30l124 710h-29zM266 826q-1 -8 4 -14t13 -6t14.5 6t8.5 14q1 8 -4 13.5t-13 5.5t-14.5 -5.5t-8.5 -13.5zM77 826q-1 -8 4 -14t13 -6t14.5 6t7.5 14q2 8 -3 13.5t-13 5.5t-14.5 -5.5t-8.5 -13.5z" />
    <glyph glyph-name="Eth" unicode="&#xd0;" horiz-adv-x="650" 
d="M248 0q140 0 227 68.5t109 192.5l32 182q22 124 -41.5 195.5t-201.5 71.5h-208l-60 -343h-94l-3 -23h92l-60 -344h208zM340 344l6 23h-212l56 316h179q127 0 183 -62.5t36 -174.5l-32 -182q-20 -112 -99 -174.5t-203 -62.5h-180l56 317h210z" />
    <glyph glyph-name="Ntilde" unicode="&#xd1;" horiz-adv-x="687" 
d="M520 0h28l124 710h-29l-116 -656l-345 656h-25l-125 -710h30l115 655zM574 865q-6 -31 -22.5 -50.5t-42.5 -19.5q-29 0 -70 38t-78 38q-36 0 -59 -24t-30 -66l-1 -6h21l1 6q5 32 23 50.5t43 18.5q31 0 71 -37q41 -38 76 -38q73 0 89 90l1 6h-21z" />
    <glyph glyph-name="Ograve" unicode="&#xd2;" horiz-adv-x="661" 
d="M52 234q-21 -115 37.5 -181.5t189.5 -66.5q129 0 207 62.5t98 177.5l44 250q21 115 -37 181.5t-187 66.5q-130 0 -209 -63t-99 -178zM281 13q-115 0 -166 57.5t-33 160.5l44 248q18 105 89 161.5t186 56.5t165.5 -57.5t32.5 -160.5l-44 -248q-18 -103 -89 -160.5
t-185 -57.5zM504 769l15 15l-171 116l-20 -20z" />
    <glyph glyph-name="Oacute" unicode="&#xd3;" horiz-adv-x="661" 
d="M279 -14q129 0 207 62.5t98 177.5l44 250q21 115 -37 181.5t-187 66.5q-130 0 -209 -63t-99 -178l-44 -249q-21 -115 37.5 -181.5t189.5 -66.5zM126 479q18 105 89 161.5t186 56.5t165.5 -57.5t32.5 -160.5l-44 -248q-18 -103 -89 -160.5t-185 -57.5q-115 0 -166 57.5
t-33 160.5zM316 788l10 -16l213 116l-12 22z" />
    <glyph glyph-name="Ocircumflex" unicode="&#xd4;" horiz-adv-x="661" 
d="M404 724q-130 0 -209 -63t-99 -178l-44 -249q-21 -115 37.5 -181.5t189.5 -66.5q129 0 207 62.5t98 177.5l44 250q21 115 -37 181.5t-187 66.5zM555 231q-18 -103 -89 -160.5t-185 -57.5q-115 0 -166 57.5t-33 160.5l44 248q18 105 89 161.5t186 56.5t165.5 -57.5
t32.5 -160.5zM430 905l-182 -130h36l153 108l114 -108h31l-134 130h-18z" />
    <glyph glyph-name="Otilde" unicode="&#xd5;" horiz-adv-x="661" 
d="M628 476q21 115 -37 181.5t-187 66.5q-130 0 -209 -63t-99 -178l-44 -249q-21 -115 37.5 -181.5t189.5 -66.5q129 0 207 62.5t98 177.5zM555 231q-18 -103 -89 -160.5t-185 -57.5q-115 0 -166 57.5t-33 160.5l44 248q18 105 89 161.5t186 56.5t165.5 -57.5t32.5 -160.5z
M430 843q-41 38 -78 38q-35 0 -58 -24t-31 -66l-1 -6h22l1 6q5 31 22.5 50t42.5 19q24 0 40 -11.5t31 -26t32.5 -26t44.5 -11.5q73 0 88 90l1 6h-21l-1 -6q-6 -31 -22.5 -50.5t-42.5 -19.5q-29 0 -70 38z" />
    <glyph glyph-name="Odieresis" unicode="&#xd6;" horiz-adv-x="661" 
d="M404 724q-130 0 -209 -63t-99 -178l-44 -249q-21 -115 37.5 -181.5t189.5 -66.5q129 0 207 62.5t98 177.5l44 250q21 115 -37 181.5t-187 66.5zM126 479q18 105 89 161.5t186 56.5t165.5 -57.5t32.5 -160.5l-44 -248q-18 -103 -89 -160.5t-185 -57.5q-115 0 -166 57.5
t-33 160.5zM517 816q8 0 15 6t8 14q2 8 -3 13.5t-13 5.5t-15 -5.5t-8 -13.5q-2 -8 3 -14t13 -6zM312 836q-1 -8 4 -14t13 -6t14 6t8 14q1 8 -3.5 13.5t-12.5 5.5t-14.5 -5.5t-8.5 -13.5z" />
    <glyph glyph-name="multiply" unicode="&#xd7;" horiz-adv-x="501" 
d="M36 154l15 -19l201 172l141 -172l20 17l-141 171l201 172l-15 18l-201 -171l-141 171l-19 -19l140 -169z" />
    <glyph glyph-name="Oslash" unicode="&#xd8;" horiz-adv-x="661" 
d="M404 724q-130 0 -209 -63t-99 -178l-44 -249q-20 -116 37 -180l-78 -98h25l68 84q59 -54 175 -54q129 0 207 62.5t98 177.5l44 250q20 108 -29 171l83 102h-26l-71 -88q-58 63 -181 63zM126 479q18 105 89 161.5t186 56.5q113 0 165 -58l-455 -560q-46 54 -29 152z
M555 231q-18 -103 -89 -160.5t-185 -57.5q-105 0 -157 49l454 558q36 -52 21 -141z" />
    <glyph glyph-name="Ugrave" unicode="&#xd9;" horiz-adv-x="679" 
d="M69 243q-21 -119 33.5 -188.5t183.5 -69.5t205 66t97 184l84 475h-30l-83 -470q-18 -106 -86.5 -167t-183.5 -61t-162.5 60t-28.5 168l83 470h-29zM334 870l176 -111l15 15l-171 116z" />
    <glyph glyph-name="Uacute" unicode="&#xda;" horiz-adv-x="679" 
d="M69 243q-21 -119 33.5 -188.5t183.5 -69.5t205 66t97 184l84 475h-30l-83 -470q-18 -106 -86.5 -167t-183.5 -61t-162.5 60t-28.5 168l83 470h-29zM322 778l10 -16l213 116l-12 22z" />
    <glyph glyph-name="Ucircumflex" unicode="&#xdb;" horiz-adv-x="679" 
d="M152 710l-83 -467q-21 -119 33.5 -188.5t183.5 -69.5t205 66t97 184l84 475h-30l-83 -470q-18 -106 -86.5 -167t-183.5 -61t-162.5 60t-28.5 168l83 470h-29zM436 895l-182 -130h36l153 108l114 -108h31l-134 130h-18z" />
    <glyph glyph-name="Udieresis" unicode="&#xdc;" horiz-adv-x="679" 
d="M559 240q-18 -106 -86.5 -167t-183.5 -61t-162.5 60t-28.5 168l83 470h-29l-83 -467q-21 -119 33.5 -188.5t183.5 -69.5t205 66t97 184l84 475h-30zM546 826q2 8 -3 13.5t-13 5.5t-15 -5.5t-8 -13.5q-2 -8 3 -14t13 -6t15 6t8 14zM318 826q-1 -8 3.5 -14t12.5 -6t14.5 6
t8.5 14t-3 13.5t-13 5.5t-14.5 -5.5t-8.5 -13.5z" />
    <glyph glyph-name="Yacute" unicode="&#xdd;" horiz-adv-x="610" 
d="M118 710h-36l207 -415l-51 -295h29l51 294l356 416h-38l-327 -385zM499 900l-211 -122l10 -16l213 116z" />
    <glyph glyph-name="Thorn" unicode="&#xde;" horiz-adv-x="612" 
d="M62 0l24 136h238q53 0 97.5 15t79 43t57.5 68.5t32 91.5q9 53 0.5 95.5t-32.5 72.5t-63.5 46t-91.5 16h-239l22 126h-29l-125 -710h30zM159 556h237q93 0 137 -52t28 -145q-16 -91 -78.5 -143t-156.5 -52h-236z" />
    <glyph glyph-name="germandbls" unicode="&#xdf;" 
d="M134 0h112q200 0 236 202q13 72 -12 119.5t-85 63.5v2q28 9 50.5 25.5t39 38t27 46.5t15.5 51q34 202 -167 202q-97 0 -158 -59t-79 -162l-93 -529h28l92 528q16 91 68.5 143t136.5 52q177 0 145 -173q-6 -31 -20 -58.5t-36 -48.5t-50 -33t-61 -12h-116l-3 -26h116
q76 0 111.5 -44.5t21.5 -122.5q-16 -88 -67.5 -133t-136.5 -45h-110z" />
    <glyph glyph-name="agrave" unicode="&#xe0;" horiz-adv-x="528" 
d="M36 191q-17 -94 20 -149.5t133 -55.5q115 0 211 34l13 4l79 456l-37 17q-60 28 -154 28q-108 0 -165 -44t-73 -141zM195 11q-84 0 -115.5 47.5t-16.5 131.5l26 148q16 86 65.5 124t143.5 38q80 0 137 -26l27 -12l-74 -418q-90 -33 -193 -33zM415 584l14 14l-167 121
l-18 -18z" />
    <glyph glyph-name="aacute" unicode="&#xe1;" horiz-adv-x="528" 
d="M36 191q-17 -94 20 -149.5t133 -55.5q115 0 211 34l13 4l79 456l-37 17q-60 28 -154 28q-108 0 -165 -44t-73 -141zM195 11q-84 0 -115.5 47.5t-16.5 131.5l26 148q16 86 65.5 124t143.5 38q80 0 137 -26l27 -12l-74 -418q-90 -33 -193 -33zM449 699l-12 20l-211 -120
l12 -17z" />
    <glyph glyph-name="acircumflex" unicode="&#xe2;" horiz-adv-x="528" 
d="M455 497q-60 28 -154 28q-108 0 -165 -44t-73 -141l-27 -149q-17 -94 20 -149.5t133 -55.5q115 0 211 34l13 4l79 456zM388 44q-90 -33 -193 -33q-84 0 -115.5 47.5t-16.5 131.5l26 148q16 86 65.5 124t143.5 38q80 0 137 -26l27 -12zM460 579h30l-133 130h-18l-180 -130
h34l153 109z" />
    <glyph glyph-name="atilde" unicode="&#xe3;" horiz-adv-x="528" 
d="M301 525q-108 0 -165 -44t-73 -141l-27 -149q-17 -94 20 -149.5t133 -55.5q115 0 211 34l13 4l79 456l-37 17q-60 28 -154 28zM388 44q-90 -33 -193 -33q-84 0 -115.5 47.5t-16.5 131.5l26 148q16 86 65.5 124t143.5 38q80 0 137 -26l27 -12zM193 596l1 6q6 31 23.5 50
t42.5 19q24 0 40 -11.5t31.5 -26t33.5 -26t45 -11.5q71 0 87 90l1 6h-21l-1 -6q-5 -31 -22 -50t-43 -19q-30 0 -71 38q-41 37 -79 37q-35 0 -57.5 -24t-30.5 -66l-1 -6h21z" />
    <glyph glyph-name="adieresis" unicode="&#xe4;" horiz-adv-x="528" 
d="M413 24l79 456l-37 17q-60 28 -154 28q-108 0 -165 -44t-73 -141l-27 -149q-17 -94 20 -149.5t133 -55.5q115 0 211 34zM89 338q16 86 65.5 124t143.5 38q80 0 137 -26l27 -12l-74 -418q-90 -33 -193 -33q-84 0 -115.5 47.5t-16.5 131.5zM428 631q8 0 15 6t9 14
q1 8 -4 13.5t-13 5.5t-15 -5.5t-8 -13.5q-2 -8 3 -14t13 -6zM263 651q1 8 -4 13.5t-13 5.5t-14.5 -5.5t-7.5 -13.5q-2 -8 3 -14t13 -6t14.5 6t8.5 14z" />
    <glyph glyph-name="aring" unicode="&#xe5;" horiz-adv-x="528" 
d="M492 480l-37 17q-60 28 -154 28q-108 0 -165 -44t-73 -141l-27 -149q-17 -94 20 -149.5t133 -55.5q115 0 211 34l13 4zM298 500q80 0 137 -26l27 -12l-74 -418q-90 -33 -193 -33q-84 0 -115.5 47.5t-16.5 131.5l26 148q16 86 65.5 124t143.5 38zM434 667q8 42 -13 67.5
t-64 25.5q-45 0 -75 -24t-38 -66q-8 -43 13.5 -68.5t66.5 -25.5q43 0 72.5 24t37.5 67zM362 743q24 0 37.5 -14.5t16.5 -34.5t-4.5 -42.5t-25.5 -37.5q-25 -20 -59 -20q-36 0 -53 20t-12 54q8 43 33 59t67 16z" />
    <glyph glyph-name="ae" unicode="&#xe6;" horiz-adv-x="780" 
d="M361 271q-42 7 -74.5 10t-57.5 3q-100 0 -152 -35t-65 -110q-14 -78 25.5 -115.5t136.5 -37.5q123 0 178 81q29 -81 140 -81q130 0 203 112l5 8l-21 11l-4 -6q-33 -51 -74.5 -76t-104.5 -25q-155 0 -127 168l11 65q81 -22 163 -22q81 0 134 34.5t69 101.5
q19 81 -22 124.5t-131 43.5q-64 0 -114 -32t-79 -90q-1 58 -30 90t-102 32q-117 0 -188 -98l-6 -8l25 -10l4 6q61 85 160 85q48 0 73.5 -14t35 -38t7.5 -55t-8 -65zM394 320q15 85 66 133t129 48t113 -36.5t18 -105.5q-28 -115 -173 -115q-85 0 -162 21zM39 136
q12 66 55.5 95t128.5 29q71 0 134 -12l-13 -71q-9 -45 -2 -84q-53 -83 -166 -83q-81 0 -114.5 31t-22.5 95z" />
    <glyph glyph-name="ccedilla" unicode="&#xe7;" horiz-adv-x="510" 
d="M85 -222q32 -24 82 -24q49 0 82 23t41 68q6 34 -13 53t-61 19q-19 0 -37 -5l40 74q159 4 225 147l4 9l-26 6l-3 -7q-30 -67 -79 -98.5t-127 -31.5q-88 0 -127 44t-25 122l28 158q14 78 68 121.5t142 43.5q78 0 114.5 -30t45.5 -93l1 -6l25 6l-1 9q-9 67 -50.5 103
t-130.5 36q-103 0 -164 -48.5t-77 -139.5l-28 -156q-16 -89 26.5 -140.5t137.5 -54.5l-53 -98l16 6q17 6 41 6q73 0 65 -53q-7 -35 -33 -54t-65 -19q-50 0 -82 29l-5 5l-3 -25z" />
    <glyph glyph-name="egrave" unicode="&#xe8;" horiz-adv-x="516" 
d="M410 111q-36 -49 -83.5 -75t-119.5 -26q-88 0 -125.5 43.5t-23.5 124.5l12 63q88 -20 186 -20q194 0 227 134q20 81 -27.5 125.5t-150.5 44.5q-100 0 -165.5 -53.5t-82.5 -150.5l-25 -140q-17 -91 26 -143t145 -52q147 0 228 112l6 8l-21 13zM456 359q-28 -115 -195 -115
q-105 0 -188 21l10 55q15 85 72.5 133t145.5 48q91 0 132 -36.5t23 -105.5zM405 584l14 14l-166 121l-18 -18z" />
    <glyph glyph-name="eacute" unicode="&#xe9;" horiz-adv-x="516" 
d="M410 111q-36 -49 -83.5 -75t-119.5 -26q-88 0 -125.5 43.5t-23.5 124.5l12 63q88 -20 186 -20q194 0 227 134q20 81 -27.5 125.5t-150.5 44.5q-100 0 -165.5 -53.5t-82.5 -150.5l-25 -140q-17 -91 26 -143t145 -52q147 0 228 112l6 8l-21 13zM456 359q-28 -115 -195 -115
q-105 0 -188 21l10 55q15 85 72.5 133t145.5 48q91 0 132 -36.5t23 -105.5zM440 699l-12 21l-212 -121l11 -17z" />
    <glyph glyph-name="ecircumflex" unicode="&#xea;" horiz-adv-x="516" 
d="M305 525q-100 0 -165.5 -53.5t-82.5 -150.5l-25 -140q-17 -91 26 -143t145 -52q147 0 228 112l6 8l-21 13l-6 -8q-36 -49 -83.5 -75t-119.5 -26q-88 0 -125.5 43.5t-23.5 124.5l12 63q88 -20 186 -20q194 0 227 134q20 81 -27.5 125.5t-150.5 44.5zM456 359
q-28 -115 -195 -115q-105 0 -188 21l10 55q15 85 72.5 133t145.5 48q91 0 132 -36.5t23 -105.5zM348 709h-19l-180 -130h35l152 109l114 -109h30z" />
    <glyph glyph-name="edieresis" unicode="&#xeb;" horiz-adv-x="516" 
d="M483 355q20 81 -27.5 125.5t-150.5 44.5q-100 0 -165.5 -53.5t-82.5 -150.5l-25 -140q-17 -91 26 -143t145 -52q147 0 228 112l6 8l-21 13l-6 -8q-36 -49 -83.5 -75t-119.5 -26q-88 0 -125.5 43.5t-23.5 124.5l12 63q88 -20 186 -20q194 0 227 134zM456 359
q-28 -115 -195 -115q-105 0 -188 21l10 55q15 85 72.5 133t145.5 48q91 0 132 -36.5t23 -105.5zM403 651q-2 -8 3 -14t13 -6t15 6t9 14t-3.5 13.5t-13.5 5.5t-14.5 -5.5t-8.5 -13.5zM253 651q1 8 -3.5 13.5t-12.5 5.5t-15 -5.5t-8 -13.5q-2 -8 3 -14t13 -6t14.5 6t8.5 14z
" />
    <glyph glyph-name="igrave" unicode="&#xec;" horiz-adv-x="173" 
d="M109 511l-89 -511h28l89 511h-28zM68 710l-22 -14l133 -114l16 12z" />
    <glyph glyph-name="iacute" unicode="&#xed;" horiz-adv-x="173" 
d="M20 0h28l89 511h-28zM55 597l9 -17l180 120l-13 19z" />
    <glyph glyph-name="icircumflex" unicode="&#xee;" horiz-adv-x="173" 
d="M20 0h28l89 511h-28zM6 586h33l111 99l77 -99h28l-93 120h-20z" />
    <glyph glyph-name="idieresis" unicode="&#xef;" horiz-adv-x="173" 
d="M20 0h28l89 511h-28zM193 668q-2 -8 3 -14t13 -6t15 6t9 14t-2.5 13.5t-12.5 5.5t-15.5 -5.5t-9.5 -13.5zM60 668q-2 -8 2.5 -14t12.5 -6t15 6t9 14t-2.5 13.5t-12.5 5.5t-15 -5.5t-9 -13.5z" />
    <glyph glyph-name="eth" unicode="&#xf0;" horiz-adv-x="548" 
d="M419 662l-105 -91l14 -14l106 93q36 -38 45 -97.5t-6 -150.5q-12 48 -56 75.5t-116 27.5q-103 0 -165 -49t-78 -137l-26 -145q-15 -90 30.5 -139t150.5 -49t167.5 49t77.5 137l41 229q33 189 -44 269l77 67l-13 13l-79 -68q-67 58 -220 58h-8l-5 -25h8q139 0 204 -53z
M431 172q-14 -78 -68 -119.5t-145 -41.5t-131.5 41.5t-26.5 119.5l25 146q14 78 69 120t146 42t131 -42t26 -120z" />
    <glyph glyph-name="ntilde" unicode="&#xf1;" horiz-adv-x="543" 
d="M396 0h27l58 333q35 192 -157 192q-96 0 -183 -32l-40 -15l-84 -478h28l79 460l26 10q75 30 168 30q165 0 136 -168zM403 617q-30 0 -71 38q-41 37 -79 37q-35 0 -57.5 -24t-30.5 -66l-1 -6h21l1 6q6 32 23.5 50.5t42.5 18.5q24 0 40 -11.5t32 -26t33.5 -26t44.5 -11.5
q70 0 87 89l1 7h-21l-1 -6q-5 -31 -22 -50t-43 -19z" />
    <glyph glyph-name="ograve" unicode="&#xf2;" horiz-adv-x="536" 
d="M31 157q-6 -39 4 -71t34 -54t61 -34t85 -12t88.5 11.5t71.5 33.5t51.5 53.5t27.5 70.5l35 199q13 79 -36.5 125t-146.5 46q-48 0 -89 -12t-72 -34t-51.5 -53.5t-27.5 -70.5zM217 11q-41 0 -73 10t-53 29t-29.5 45.5t-2.5 59.5l34 201q13 66 70.5 105t139.5 39
q42 0 74 -10t53 -29t29.5 -45.5t2.5 -59.5l-35 -201q-6 -33 -24 -59.5t-45.5 -45.5t-63 -29t-77.5 -10zM236 700l170 -117l14 14l-166 121z" />
    <glyph glyph-name="oacute" unicode="&#xf3;" horiz-adv-x="536" 
d="M31 157q-6 -39 4 -71t34 -54t61 -34t85 -12t88.5 11.5t71.5 33.5t51.5 53.5t27.5 70.5l35 199q13 79 -36.5 125t-146.5 46q-48 0 -89 -12t-72 -34t-51.5 -53.5t-27.5 -70.5zM217 11q-41 0 -73 10t-53 29t-29.5 45.5t-2.5 59.5l34 201q13 66 70.5 105t139.5 39
q42 0 74 -10t53 -29t29.5 -45.5t2.5 -59.5l-35 -201q-6 -33 -24 -59.5t-45.5 -45.5t-63 -29t-77.5 -10zM428 718l-211 -120l12 -17l213 117z" />
    <glyph glyph-name="ocircumflex" unicode="&#xf4;" horiz-adv-x="536" 
d="M306 525q-48 0 -89 -12t-72 -34t-51.5 -53.5t-27.5 -70.5l-35 -198q-6 -39 4 -71t34 -54t61 -34t85 -12t88.5 11.5t71.5 33.5t51.5 53.5t27.5 70.5l35 199q13 79 -36.5 125t-146.5 46zM427 155q-6 -33 -24 -59.5t-45.5 -45.5t-63 -29t-77.5 -10q-41 0 -73 10t-53 29
t-29.5 45.5t-2.5 59.5l34 201q13 66 70.5 105t139.5 39q42 0 74 -10t53 -29t29.5 -45.5t2.5 -59.5zM330 708l-180 -130h35l152 110l114 -110h30l-132 130h-19z" />
    <glyph glyph-name="otilde" unicode="&#xf5;" horiz-adv-x="536" 
d="M489 354q13 79 -36.5 125t-146.5 46q-48 0 -89 -12t-72 -34t-51.5 -53.5t-27.5 -70.5l-35 -198q-6 -39 4 -71t34 -54t61 -34t85 -12t88.5 11.5t71.5 33.5t51.5 53.5t27.5 70.5zM427 155q-6 -33 -24 -59.5t-45.5 -45.5t-63 -29t-77.5 -10q-41 0 -73 10t-53 29t-29.5 45.5
t-2.5 59.5l34 201q13 66 70.5 105t139.5 39q42 0 74 -10t53 -29t29.5 -45.5t2.5 -59.5zM324 633q41 -38 78 -38q71 0 86 90l1 6h-21l-1 -6q-5 -31 -22 -50t-43 -19q-23 0 -39 11.5t-32 26t-34 26t-44 11.5q-35 0 -57.5 -23.5t-30.5 -65.5l-1 -7h21l1 6q5 32 22.5 50.5
t43.5 18.5q31 0 72 -37z" />
    <glyph glyph-name="odieresis" unicode="&#xf6;" horiz-adv-x="536" 
d="M306 525q-48 0 -89 -12t-72 -34t-51.5 -53.5t-27.5 -70.5l-35 -198q-6 -39 4 -71t34 -54t61 -34t85 -12t88.5 11.5t71.5 33.5t51.5 53.5t27.5 70.5l35 199q13 79 -36.5 125t-146.5 46zM93 356q13 66 70.5 105t139.5 39q42 0 74 -10t53 -29t29.5 -45.5t2.5 -59.5l-35 -201
q-6 -33 -24 -59.5t-45.5 -45.5t-63 -29t-77.5 -10q-41 0 -73 10t-53 29t-29.5 45.5t-2.5 59.5zM420 630q8 0 15 6t9 14q1 8 -4 13.5t-13 5.5t-15 -5.5t-9 -13.5q-1 -8 4 -14t13 -6zM215 650q-2 -8 3 -14t13 -6t14.5 6t8.5 14q1 8 -4 13.5t-13 5.5t-14.5 -5.5t-7.5 -13.5z
" />
    <glyph glyph-name="divide" unicode="&#xf7;" horiz-adv-x="602" 
d="M72 338l-5 -27h470l5 27h-470zM318 529q-2 -9 3 -15.5t15 -6.5q9 0 16.5 6.5t9.5 15.5t-3.5 15.5t-15.5 6.5q-9 0 -16 -6.5t-9 -15.5zM246 122q-2 -9 3.5 -15.5t14.5 -6.5t16.5 6.5t9.5 15.5t-3.5 15.5t-14.5 6.5t-16.5 -6.5t-9.5 -15.5z" />
    <glyph glyph-name="oslash" unicode="&#xf8;" horiz-adv-x="536" 
d="M304 525q-48 0 -88.5 -12t-71.5 -34t-51.5 -53.5t-27.5 -70.5l-34 -198q-15 -79 35 -126l-53 -66h24l45 55q49 -34 131 -34q48 0 89.5 12t72.5 33.5t51.5 53t26.5 70.5l35 199q13 76 -36 124l60 74h-23l-52 -61q-47 34 -133 34zM93 356q6 33 24 59.5t45.5 45.5t63 29
t76.5 10q72 0 119 -32l-337 -413q-37 35 -26 100zM426 155q-6 -33 -24 -59.5t-45.5 -45.5t-63 -29t-77.5 -10q-77 0 -117 31l333 411q40 -38 29 -98z" />
    <glyph glyph-name="ugrave" unicode="&#xf9;" 
d="M47 178q-34 -192 157 -192q98 0 183 32l40 15l84 478h-27l-81 -462l-25 -9q-78 -29 -168 -29q-164 0 -136 168l59 332h-28zM258 718l-18 -18l170 -117l14 14z" />
    <glyph glyph-name="uacute" unicode="&#xfa;" 
d="M47 178q-34 -192 157 -192q98 0 183 32l40 15l84 478h-27l-81 -462l-25 -9q-78 -29 -168 -29q-164 0 -136 168l59 332h-28zM221 598l12 -17l213 117l-14 20z" />
    <glyph glyph-name="ucircumflex" unicode="&#xfb;" 
d="M133 511h-28l-58 -333q-34 -192 157 -192q98 0 183 32l40 15l84 478h-27l-81 -462l-25 -9q-78 -29 -168 -29q-164 0 -136 168zM189 578l152 110l114 -110h30l-132 130h-19l-180 -130h35z" />
    <glyph glyph-name="udieresis" unicode="&#xfc;" 
d="M133 511h-28l-58 -333q-34 -192 157 -192q98 0 183 32l40 15l84 478h-27l-81 -462l-25 -9q-78 -29 -168 -29q-164 0 -136 168zM424 630q8 0 15 6t9 14q1 8 -4 13.5t-13 5.5t-15 -5.5t-8 -13.5q-2 -8 3 -14t13 -6zM219 650q-2 -8 3 -14t13 -6t14.5 6t8.5 14q1 8 -4 13.5
t-13 5.5t-14.5 -5.5t-7.5 -13.5z" />
    <glyph glyph-name="yacute" unicode="&#xfd;" horiz-adv-x="547" 
d="M484 511l-81 -458q-103 -39 -192 -39q-88 0 -119.5 41.5t-16.5 126.5l57 329h-27l-57 -329q-34 -193 157 -193q83 0 194 38l-12 -69q-34 -189 -213 -189q-66 0 -100 26.5t-50 77.5l-2 7l-27 -12l3 -8q38 -117 172 -117q207 0 244 216l97 552h-27zM446 698l-14 20
l-211 -120l12 -17z" />
    <glyph glyph-name="thorn" unicode="&#xfe;" horiz-adv-x="535" 
d="M53 33q86 -48 179 -48q190 0 225 191l25 142q36 199 -170 199q-94 0 -181 -41l46 264h-27l-169 -960h28zM126 449q85 43 180 43q178 0 148 -174l-24 -141q-30 -167 -194 -167q-101 0 -178 51z" />
    <glyph glyph-name="ydieresis" unicode="&#xff;" horiz-adv-x="547" 
d="M399 27l-12 -69q-34 -189 -213 -189q-66 0 -100 26.5t-50 77.5l-2 7l-27 -12l3 -8q38 -117 172 -117q207 0 244 216l97 552h-27l-81 -458q-103 -39 -192 -39q-88 0 -119.5 41.5t-16.5 126.5l57 329h-27l-57 -329q-34 -193 157 -193q83 0 194 38zM408 650q-2 -8 3 -14
t13 -6t15 6t9 14q1 8 -4 13.5t-13 5.5t-15 -5.5t-8 -13.5zM235 630q8 0 14.5 6t8.5 14q1 8 -4 13.5t-13 5.5t-14.5 -5.5t-7.5 -13.5q-2 -8 3 -14t13 -6z" />
    <glyph glyph-name="Amacron" unicode="&#x100;" horiz-adv-x="625" 
d="M-45 0h34l143 248h344l57 -248h31l-165 715h-28zM146 273l234 402l92 -402h-326zM279 833l-3 -22h252l6 22h-255z" />
    <glyph glyph-name="amacron" unicode="&#x101;" horiz-adv-x="528" 
d="M36 191q-17 -94 20 -149.5t133 -55.5q115 0 211 34l13 4l79 456l-37 17q-60 28 -154 28q-108 0 -165 -44t-73 -141zM195 11q-84 0 -115.5 47.5t-16.5 131.5l26 148q16 86 65.5 124t143.5 38q80 0 137 -26l27 -12l-74 -418q-90 -33 -193 -33zM461 629l3 23h-252l-6 -23
h255z" />
    <glyph glyph-name="Abreve" unicode="&#x102;" horiz-adv-x="625" 
d="M399 715h-28l-416 -715h34l143 248h344l57 -248h31zM472 273h-326l234 402zM544 893l-3 -7q-44 -98 -142 -98q-52 0 -79 23.5t-31 74.5v6l-25 -6l1 -7q12 -114 131 -114q116 0 167 114l3 6z" />
    <glyph glyph-name="abreve" unicode="&#x103;" horiz-adv-x="528" 
d="M492 480l-37 17q-60 28 -154 28q-108 0 -165 -44t-73 -141l-27 -149q-17 -94 20 -149.5t133 -55.5q115 0 211 34l13 4zM388 44q-90 -33 -193 -33q-84 0 -115.5 47.5t-16.5 131.5l26 148q16 86 65.5 124t143.5 38q80 0 137 -26l27 -12zM473 705q-44 -98 -143 -98
q-52 0 -79 23t-31 74v6l-24 -7l1 -6q11 -113 132 -113q115 0 166 113l3 6l-22 8z" />
    <glyph glyph-name="Aogonek" unicode="&#x104;" horiz-adv-x="625" 
d="M534 -191q-36 -33 -77 -33q-20 0 -29 7t-12 24q-7 35 30.5 88t112.5 106l4 3l-164 711h-28l-416 -715h34l143 248h344l56 -244h5q-79 -54 -117.5 -109.5t-30.5 -97.5q11 -45 59 -45t92 35l4 3l-5 23zM380 675l92 -402h-326z" />
    <glyph glyph-name="aogonek" unicode="&#x105;" horiz-adv-x="529" 
d="M372 -191q-36 -33 -77 -33q-21 0 -29.5 6.5t-12.5 24.5t5 43t29 53.5t51 59.5t71 62l4 3l79 452l-37 17q-60 28 -154 28q-108 0 -165 -44t-73 -141l-27 -149q-17 -94 20 -149.5t133 -55.5q89 0 177 24q-75 -60 -111 -116.5t-28 -96.5q9 -45 59 -45q48 0 92 35l4 3l-5 23z
M388 44q-90 -33 -193 -33q-84 0 -115.5 47.5t-16.5 131.5l26 148q16 86 65.5 124t143.5 38q80 0 137 -26l27 -12z" />
    <glyph glyph-name="Cacute" unicode="&#x106;" horiz-adv-x="632" 
d="M401 724q-130 0 -208 -64t-98 -179l-44 -250q-20 -115 38.5 -180t187.5 -65q59 0 104 11t80 33.5t61 56.5t47 80l4 9l-26 9l-5 -11q-19 -41 -43.5 -71t-56 -49.5t-72 -29t-92.5 -9.5q-115 0 -165 57t-32 160l43 250q18 102 88 158.5t187 56.5q102 0 149 -37.5t56 -119.5
l1 -9l27 8l-1 10q-9 89 -62.5 132t-167.5 43zM535 878l-12 22l-211 -122l10 -16z" />
    <glyph glyph-name="cacute" unicode="&#x107;" horiz-adv-x="510" 
d="M302 525q-103 0 -164 -48.5t-77 -139.5l-28 -156q-16 -91 29 -143t147 -52q167 0 234 147l4 9l-26 6l-3 -7q-30 -67 -79 -98.5t-127 -31.5q-88 0 -127 44t-25 122l28 158q14 78 68 121.5t142 43.5q78 0 114.5 -30t45.5 -93l1 -6l25 6l-1 9q-9 67 -50.5 103t-130.5 36z
M208 598l11 -17l214 118l-15 19z" />
    <glyph glyph-name="Ccircumflex" unicode="&#x108;" horiz-adv-x="632" 
d="M569 167l4 9l-26 9l-5 -11q-19 -41 -43.5 -71t-56 -49.5t-72 -29t-92.5 -9.5q-115 0 -165 57t-32 160l43 250q18 102 88 158.5t187 56.5q102 0 149 -37.5t56 -119.5l1 -9l27 8l-1 10q-9 89 -62.5 132t-167.5 43q-130 0 -208 -64t-98 -179l-44 -250q-20 -115 38.5 -180
t187.5 -65q59 0 104 11t80 33.5t61 56.5t47 80zM547 765h31l-134 130h-18l-182 -130h36l153 108z" />
    <glyph glyph-name="ccircumflex" unicode="&#x109;" horiz-adv-x="510" 
d="M443 133l4 9l-26 6l-3 -7q-30 -67 -79 -98.5t-127 -31.5q-88 0 -127 44t-25 122l28 158q14 78 68 121.5t142 43.5q78 0 114.5 -30t45.5 -93l1 -6l25 6l-1 9q-9 67 -50.5 103t-130.5 36q-103 0 -164 -48.5t-77 -139.5l-28 -156q-16 -91 29 -143t147 -52q167 0 234 147z
M442 578h30l-133 130h-18l-180 -130h35l152 110z" />
    <glyph glyph-name="Cdotaccent" unicode="&#x10a;" horiz-adv-x="632" 
d="M401 724q-130 0 -208 -64t-98 -179l-44 -250q-20 -115 38.5 -180t187.5 -65q59 0 104 11t80 33.5t61 56.5t47 80l4 9l-26 9l-5 -11q-19 -41 -43.5 -71t-56 -49.5t-72 -29t-92.5 -9.5q-115 0 -165 57t-32 160l43 250q18 102 88 158.5t187 56.5q102 0 149 -37.5t56 -119.5
l1 -9l27 8l-1 10q-9 89 -62.5 132t-167.5 43zM418 802q8 0 14.5 6t8.5 14q1 8 -4 13.5t-13 5.5t-14.5 -5.5t-7.5 -13.5q-2 -8 3 -14t13 -6z" />
    <glyph glyph-name="cdotaccent" unicode="&#x10b;" horiz-adv-x="510" 
d="M302 525q-103 0 -164 -48.5t-77 -139.5l-28 -156q-16 -91 29 -143t147 -52q167 0 234 147l4 9l-26 6l-3 -7q-30 -67 -79 -98.5t-127 -31.5q-88 0 -127 44t-25 122l28 158q14 78 68 121.5t142 43.5q78 0 114.5 -30t45.5 -93l1 -6l25 6l-1 9q-9 67 -50.5 103t-130.5 36z
M314 621q8 0 15 6t9 14t-3 14t-13 6t-14.5 -6t-8.5 -14t2.5 -14t12.5 -6z" />
    <glyph glyph-name="Ccaron" unicode="&#x10c;" horiz-adv-x="632" 
d="M569 167l4 9l-26 9l-5 -11q-19 -41 -43.5 -71t-56 -49.5t-72 -29t-92.5 -9.5q-115 0 -165 57t-32 160l43 250q18 102 88 158.5t187 56.5q102 0 149 -37.5t56 -119.5l1 -9l27 8l-1 10q-9 89 -62.5 132t-167.5 43q-130 0 -208 -64t-98 -179l-44 -250q-20 -115 38.5 -180
t187.5 -65q59 0 104 11t80 33.5t61 56.5t47 80zM601 896h-34l-154 -108l-113 108h-33l135 -130h18z" />
    <glyph glyph-name="ccaron" unicode="&#x10d;" horiz-adv-x="510" 
d="M458 377l1 -6l25 6l-1 9q-9 67 -50.5 103t-130.5 36q-103 0 -164 -48.5t-77 -139.5l-28 -156q-16 -91 29 -143t147 -52q167 0 234 147l4 9l-26 6l-3 -7q-30 -67 -79 -98.5t-127 -31.5q-88 0 -127 44t-25 122l28 158q14 78 68 121.5t142 43.5q78 0 114.5 -30t45.5 -93z
M495 707h-34l-152 -107l-113 107h-31l133 -129h18z" />
    <glyph glyph-name="Dcaron" unicode="&#x10e;" horiz-adv-x="642" 
d="M32 0h209q139 0 226 68.5t109 192.5l32 182q22 124 -41.5 195.5t-201.5 71.5h-208zM548 264q-20 -112 -99 -174.5t-203 -62.5h-179l115 656h179q127 0 183 -62.5t36 -174.5zM245 896l135 -130h18l181 130h-35l-154 -108l-112 108h-33z" />
    <glyph glyph-name="dcaron" unicode="&#x10f;" horiz-adv-x="550" 
d="M34 186q-35 -200 171 -200q92 0 166 28l42 16l125 710h-27l-46 -256q-84 41 -182 41q-189 0 -222 -191zM282 500q100 0 179 -43l-73 -409l-29 -11q-70 -26 -148 -26q-178 0 -150 174l27 147q30 168 194 168zM572 509h22l87 231h-26z" />
    <glyph glyph-name="Dcroat" unicode="&#x110;" horiz-adv-x="650" 
d="M248 0q140 0 227 68.5t109 192.5l32 182q22 124 -41.5 195.5t-201.5 71.5h-208l-60 -343h-94l-3 -23h92l-60 -344h208zM340 344l6 23h-212l56 316h179q127 0 183 -62.5t36 -174.5l-32 -182q-20 -112 -99 -174.5t-203 -62.5h-180l56 317h210z" />
    <glyph glyph-name="dcroat" unicode="&#x111;" horiz-adv-x="532" 
d="M602 623l6 20h-86l17 97h-27l-17 -97h-186l-3 -20h185l-25 -139q-76 40 -182 40q-189 0 -222 -190l-27 -148q-35 -200 171 -200q92 0 166 28l42 16l105 593h83zM89 332q29 167 194 167q106 0 179 -41l-73 -410l-29 -11q-70 -26 -148 -26q-178 0 -150 174z" />
    <glyph glyph-name="Emacron" unicode="&#x112;" horiz-adv-x="567" 
d="M157 710l-125 -710h442l5 27h-412l55 319h356l3 28h-354l55 309h396l7 27h-428zM262 811h252l6 22h-255z" />
    <glyph glyph-name="emacron" unicode="&#x113;" horiz-adv-x="516" 
d="M410 111q-36 -49 -83.5 -75t-119.5 -26q-88 0 -125.5 43.5t-23.5 124.5l12 63q88 -20 186 -20q194 0 227 134q20 81 -27.5 125.5t-150.5 44.5q-100 0 -165.5 -53.5t-82.5 -150.5l-25 -140q-17 -91 26 -143t145 -52q147 0 228 112l6 8l-21 13zM456 359q-28 -115 -195 -115
q-105 0 -188 21l10 55q15 85 72.5 133t145.5 48q91 0 132 -36.5t23 -105.5zM450 629l6 23h-255l-3 -23h252z" />
    <glyph glyph-name="Ebreve" unicode="&#x114;" horiz-adv-x="567" 
d="M122 346h356l3 28h-354l55 309h396l7 27h-428l-125 -710h442l5 27h-412zM531 893l-3 -7q-44 -98 -143 -98q-52 0 -78.5 23.5t-31.5 74.5v6l-24 -6l1 -7q11 -114 130 -114q61 0 101 27t66 87l3 6z" />
    <glyph glyph-name="ebreve" unicode="&#x115;" horiz-adv-x="516" 
d="M483 355q20 81 -27.5 125.5t-150.5 44.5q-100 0 -165.5 -53.5t-82.5 -150.5l-25 -140q-17 -91 26 -143t145 -52q147 0 228 112l6 8l-21 13l-6 -8q-36 -49 -83.5 -75t-119.5 -26q-88 0 -125.5 43.5t-23.5 124.5l12 63q88 -20 186 -20q194 0 227 134zM261 244
q-105 0 -188 21l10 55q15 85 72.5 133t145.5 48q91 0 132 -36.5t23 -105.5q-28 -115 -195 -115zM211 710l-24 -7l1 -6q11 -113 132 -113q114 0 165 113l3 6l-21 8l-3 -6q-44 -98 -144 -98q-52 0 -78.5 23t-30.5 74v6z" />
    <glyph glyph-name="Edotaccent" unicode="&#x116;" horiz-adv-x="567" 
d="M157 710l-125 -710h442l5 27h-412l55 319h356l3 28h-354l55 309h396l7 27h-428zM371 822q-2 -8 3 -14t13 -6t15 6t9 14t-3 13.5t-13 5.5t-15 -5.5t-9 -13.5z" />
    <glyph glyph-name="edotaccent" unicode="&#x117;" horiz-adv-x="516" 
d="M410 111q-36 -49 -83.5 -75t-119.5 -26q-88 0 -125.5 43.5t-23.5 124.5l12 63q88 -20 186 -20q194 0 227 134q20 81 -27.5 125.5t-150.5 44.5q-100 0 -165.5 -53.5t-82.5 -150.5l-25 -140q-17 -91 26 -143t145 -52q147 0 228 112l6 8l-21 13zM261 244q-105 0 -188 21
l10 55q15 85 72.5 133t145.5 48q91 0 132 -36.5t23 -105.5q-28 -115 -195 -115zM346 642q1 8 -4 13.5t-13 5.5t-14.5 -5.5t-7.5 -13.5q-2 -8 3 -14t13 -6t14.5 6t8.5 14z" />
    <glyph glyph-name="Eogonek" unicode="&#x118;" horiz-adv-x="567" 
d="M471 1l3 2l5 24h-412l55 319h356l3 28h-354l55 309h396l7 27h-428l-125 -710h411q-75 -51 -114 -106t-31 -97q9 -45 59 -45q47 0 91 35l5 4l-5 22l-5 -4q-36 -33 -77 -33q-21 0 -30 7t-12 24q-7 37 32.5 89.5t114.5 104.5z" />
    <glyph glyph-name="eogonek" unicode="&#x119;" horiz-adv-x="516" 
d="M306 2q-31 -27 -55 -55.5t-39.5 -55.5t-22 -51t-3.5 -42q6 -46 58 -46q49 0 93 35l4 3l-5 23l-5 -4q-36 -33 -75 -33q-37 0 -43 33q-6 35 35 100q42 66 115 121q20 14 37 31t31 37l5 8l-20 13l-6 -8q-36 -49 -83.5 -75t-119.5 -26q-88 0 -125.5 43.5t-23.5 124.5l12 63
q88 -20 186 -20q194 0 227 134q20 81 -27.5 125.5t-150.5 44.5q-100 0 -165.5 -53.5t-82.5 -150.5l-25 -140q-17 -91 26 -143t145 -52q62 0 103 16zM301 501q91 0 132 -36.5t23 -105.5q-28 -115 -195 -115q-105 0 -188 21l10 55q15 85 72.5 133t145.5 48z" />
    <glyph glyph-name="Ecaron" unicode="&#x11a;" horiz-adv-x="567" 
d="M585 710h-428l-125 -710h442l5 27h-412l55 319h356l3 28h-354l55 309h396zM570 896h-34l-154 -108l-113 108h-33l135 -130h19z" />
    <glyph glyph-name="ecaron" unicode="&#x11b;" horiz-adv-x="516" 
d="M305 525q-100 0 -165.5 -53.5t-82.5 -150.5l-25 -140q-17 -91 26 -143t145 -52q147 0 228 112l6 8l-21 13l-6 -8q-36 -49 -83.5 -75t-119.5 -26q-88 0 -125.5 43.5t-23.5 124.5l12 63q88 -20 186 -20q194 0 227 134q20 81 -27.5 125.5t-150.5 44.5zM456 359
q-28 -115 -195 -115q-105 0 -188 21l10 55q15 85 72.5 133t145.5 48q91 0 132 -36.5t23 -105.5zM307 578h17l180 130h-35l-151 -108l-114 108h-31z" />
    <glyph glyph-name="Gcircumflex" unicode="&#x11c;" horiz-adv-x="649" 
d="M569 323l-16 -94q-17 -102 -88 -159t-186 -57q-118 0 -167 57t-31 162l43 250q18 102 87.5 158.5t187.5 56.5q51 0 87.5 -9.5t61 -29t38 -49t18.5 -70.5l1 -7l28 7l-1 9q-9 89 -63 132.5t-168 43.5q-130 0 -208 -63.5t-98 -178.5l-44 -250q-21 -115 37 -180.5t189 -65.5
q128 0 206.5 63.5t97.5 177.5l23 124h-265l-4 -28h234zM446 905h-19l-182 -130h36l153 108l114 -108h31z" />
    <glyph glyph-name="gcircumflex" unicode="&#x11d;" horiz-adv-x="532" 
d="M35 184q-16 -93 21.5 -144t134.5 -51q102 0 195 41l-12 -72q-34 -189 -211 -189q-66 0 -99.5 26t-49.5 78l-2 6l-26 -10l3 -9q38 -117 170 -117q204 0 242 215l92 522l-37 17q-60 28 -154 28q-208 0 -241 -195zM196 14q-164 0 -134 169l26 145q31 172 211 172
q74 0 137 -26l27 -11l-72 -406q-92 -43 -195 -43zM335 708l-180 -130h35l152 110l114 -110h30l-132 130h-19z" />
    <glyph glyph-name="Gbreve" unicode="&#x11e;" horiz-adv-x="649" 
d="M399 697q51 0 87.5 -9.5t61 -29t38 -49t18.5 -70.5l1 -7l28 7l-1 9q-9 89 -63 132.5t-168 43.5q-130 0 -208 -63.5t-98 -178.5l-44 -250q-21 -115 37 -180.5t189 -65.5q128 0 206.5 63.5t97.5 177.5l23 124h-265l-4 -28h234l-16 -94q-17 -102 -88 -159t-186 -57
q-118 0 -167 57t-31 162l43 250q18 102 87.5 158.5t187.5 56.5zM284 889q11 -114 131 -114q116 0 167 114l3 6l-22 8l-3 -7q-44 -98 -143 -98q-101 0 -109 98v6l-25 -6z" />
    <glyph glyph-name="gbreve" unicode="&#x11f;" horiz-adv-x="532" 
d="M302 525q-208 0 -241 -195l-26 -146q-16 -93 21.5 -144t134.5 -51q102 0 195 41l-12 -72q-34 -189 -211 -189q-66 0 -99.5 26t-49.5 78l-2 6l-26 -10l3 -9q38 -117 170 -117q204 0 242 215l92 522l-37 17q-60 28 -154 28zM196 14q-164 0 -134 169l26 145q31 172 211 172
q74 0 137 -26l27 -11l-72 -406q-92 -43 -195 -43zM217 709l-24 -5l1 -8q11 -113 132 -113q114 0 165 113l3 8l-22 6l-2 -6q-44 -98 -144 -98q-52 0 -78.5 23t-30.5 74v6z" />
    <glyph glyph-name="Gdotaccent" unicode="&#x120;" horiz-adv-x="649" 
d="M581 227l23 124h-265l-4 -28h234l-16 -94q-17 -102 -88 -159t-186 -57q-118 0 -167 57t-31 162l43 250q18 102 87.5 158.5t187.5 56.5q51 0 87.5 -9.5t61 -29t38 -49t18.5 -70.5l1 -7l28 7l-1 9q-9 89 -63 132.5t-168 43.5q-130 0 -208 -63.5t-98 -178.5l-44 -250
q-21 -115 37 -180.5t189 -65.5q128 0 206.5 63.5t97.5 177.5zM443 832q1 8 -4 13.5t-13 5.5t-14.5 -5.5t-7.5 -13.5q-2 -8 3 -14t13 -6t14.5 6t8.5 14z" />
    <glyph glyph-name="gdotaccent" unicode="&#x121;" horiz-adv-x="532" 
d="M302 525q-208 0 -241 -195l-26 -146q-16 -93 21.5 -144t134.5 -51q102 0 195 41l-12 -72q-34 -189 -211 -189q-66 0 -99.5 26t-49.5 78l-2 6l-26 -10l3 -9q38 -117 170 -117q204 0 242 215l92 522l-37 17q-60 28 -154 28zM391 57q-92 -43 -195 -43q-164 0 -134 169
l26 145q31 172 211 172q74 0 137 -26l27 -11zM329 621q8 0 14.5 6t8.5 14q1 8 -4 14t-13 6t-14.5 -6t-7.5 -14q-2 -8 3 -14t13 -6z" />
    <glyph glyph-name="uni0122" unicode="&#x122;" horiz-adv-x="649" 
d="M581 227l23 124h-265l-4 -28h234l-16 -94q-17 -102 -88 -159t-186 -57q-118 0 -167 57t-31 162l43 250q18 102 87.5 158.5t187.5 56.5q51 0 87.5 -9.5t61 -29t38 -49t18.5 -70.5l1 -7l28 7l-1 9q-9 89 -63 132.5t-168 43.5q-130 0 -208 -63.5t-98 -178.5l-44 -250
q-21 -115 37 -180.5t189 -65.5q128 0 206.5 63.5t97.5 177.5zM271 -82l-76 -161h23l82 161h-29z" />
    <glyph glyph-name="uni0123" unicode="&#x123;" horiz-adv-x="532" 
d="M302 525q-208 0 -241 -195l-26 -146q-16 -93 21.5 -144t134.5 -51q102 0 195 41l-12 -72q-34 -189 -211 -189q-66 0 -99.5 26t-49.5 78l-2 6l-26 -10l3 -9q38 -117 170 -117q204 0 242 215l92 522l-37 17q-60 28 -154 28zM463 463l-72 -406q-92 -43 -195 -43
q-164 0 -134 169l26 145q31 172 211 172q74 0 137 -26zM278 586h27l90 155h-24z" />
    <glyph glyph-name="Hcircumflex" unicode="&#x124;" horiz-adv-x="679" 
d="M577 374h-450l59 336h-29l-125 -710h30l60 346h449l-60 -346h29l125 710h-29zM253 765h36l153 108l114 -108h31l-134 130h-18z" />
    <glyph glyph-name="hcircumflex" unicode="&#x125;" horiz-adv-x="546" 
d="M327 525q-102 0 -194 -39l44 254h-27l-130 -740h28l80 459q91 41 193 41q165 0 136 -168l-58 -332h27l58 333q33 192 -157 192zM41 791l153 110l114 -110h31l-134 130h-18l-182 -130h36z" />
    <glyph glyph-name="Hbar" unicode="&#x126;" horiz-adv-x="684" 
d="M721 557l3 21h-79l23 132h-28l-25 -132h-449l24 132h-30l-23 -132h-80v-21h76l-97 -557h29l60 346h449l-60 -346h30l97 557h80zM131 374l32 183h449l-32 -183h-449z" />
    <glyph glyph-name="hbar" unicode="&#x127;" horiz-adv-x="546" 
d="M134 649h-78v-21h75l-111 -628h28l80 459q91 41 193 41q165 0 136 -168l-58 -332h27l58 333q33 192 -157 192q-102 0 -194 -39l25 142h184v21h-181l16 91h-27z" />
    <glyph glyph-name="Itilde" unicode="&#x128;" horiz-adv-x="201" 
d="M62 0l124 710h-29l-125 -710h30zM50 781q5 32 23 50.5t43 18.5q24 0 40 -11.5t31 -26t32.5 -26t44.5 -11.5q71 0 88 89l1 7h-21l-1 -6q-6 -31 -22.5 -50.5t-42.5 -19.5q-29 0 -70 38t-78 38q-36 0 -59 -24t-30 -66l-1 -6h21z" />
    <glyph glyph-name="itilde" unicode="&#x129;" horiz-adv-x="173" 
d="M109 511l-89 -511h28l89 511h-28zM28 609l-1 -6h19l1 8q13 64 55 64q18 0 27 -11t17 -24.5t18.5 -24.5t31.5 -11q55 0 70 87l1 6h-20l-1 -7q-11 -65 -48 -65q-18 0 -27 11.5t-17 25t-19 24.5t-34 11q-58 0 -73 -88z" />
    <glyph glyph-name="Imacron" unicode="&#x12a;" horiz-adv-x="201" 
d="M157 710l-125 -710h30l124 710h-29zM67 833l-6 -22h255l3 22h-252z" />
    <glyph glyph-name="imacron" unicode="&#x12b;" horiz-adv-x="173" 
d="M109 511l-89 -511h28l89 511h-28zM60 654l-6 -21h171l3 21h-168z" />
    <glyph glyph-name="Ibreve" unicode="&#x12c;" horiz-adv-x="201" 
d="M32 0h30l124 710h-29zM76 892l-25 -6l1 -7q11 -114 131 -114q116 0 167 114l3 6l-22 8l-3 -7q-44 -98 -142 -98q-52 0 -79 23.5t-31 74.5v6z" />
    <glyph glyph-name="ibreve" unicode="&#x12d;" horiz-adv-x="173" 
d="M20 0h28l89 511h-28zM57 708l-22 -6v-7q0 -52 26.5 -80t74.5 -28q99 0 138 108l2 6l-22 7l-2 -6q-28 -93 -114 -93q-82 0 -81 93v6z" />
    <glyph glyph-name="Iogonek" unicode="&#x12e;" horiz-adv-x="202" 
d="M38 4q-114 -129 -99 -207q9 -45 59 -45q49 0 92 36l5 4l-4 21l-5 -5q-35 -32 -80 -32q-33 0 -40 34q-14 68 94 191l4 4l123 705h-29l-125 -706h5z" />
    <glyph glyph-name="iogonek" unicode="&#x12f;" horiz-adv-x="173" 
d="M-14 -246q42 0 72 38l4 5l-8 14l-4 -4q-24 -31 -57 -31q-50 0 -44 51q1 19 9 39t19 39.5t23.5 37.5t24.5 33l24 31l88 504h-28l-89 -509h4q-94 -112 -100 -182q-6 -66 62 -66zM130 667q-1 -9 4 -15t14 -6q8 0 15 6t8 15q2 8 -3.5 14t-14.5 6q-8 0 -14.5 -6t-8.5 -14z" />
    <glyph glyph-name="Idotaccent" unicode="&#x130;" horiz-adv-x="201" 
d="M32 0h30l124 710h-29zM171 822q-1 -8 3.5 -14t12.5 -6t15 6t8 14q2 8 -2.5 13.5t-12.5 5.5t-15 -5.5t-9 -13.5z" />
    <glyph glyph-name="dotlessi" unicode="&#x131;" horiz-adv-x="173" 
d="M109 511l-89 -511h28l89 511h-28z" />
    <glyph glyph-name="IJ" unicode="&#x132;" horiz-adv-x="768" 
d="M206 188q-2 -203 196 -203q112 0 181.5 59t87.5 165l88 501h-29l-88 -497q-17 -94 -78.5 -147t-158.5 -53q-91 0 -131 47t-39 138v10l-29 -11v-9zM32 0h30l124 710h-29z" />
    <glyph glyph-name="ij" unicode="&#x133;" horiz-adv-x="418" 
d="M57 -204l-4 -26h7q53 0 91.5 13.5t66 40.5t45 68.5t27.5 97.5l92 521h-28l-91 -521q-9 -50 -23.5 -86.5t-38 -60.5t-56.5 -35.5t-79 -11.5h-9zM20 0h28l89 511h-28zM375 667q-2 -9 3.5 -15t14.5 -6q8 0 14.5 6t8.5 15q2 8 -3.5 14t-14.5 6q-8 0 -14.5 -6t-8.5 -14z
M171 667q2 8 -3.5 14t-14.5 6q-8 0 -14.5 -6t-8.5 -14q-1 -9 4 -15t14 -6q8 0 14.5 6t8.5 15z" />
    <glyph glyph-name="Jcircumflex" unicode="&#x134;" horiz-adv-x="564" 
d="M2 197v-9q-2 -203 196 -203q112 0 181.5 59t87.5 165l88 501h-29l-88 -497q-17 -94 -78.5 -147t-158.5 -53q-91 0 -131 47t-39 138v10zM685 765h31l-134 130h-18l-182 -130h36l153 108z" />
    <glyph glyph-name="jcircumflex" unicode="&#x135;" horiz-adv-x="173" 
d="M-193 -230h8q53 0 91.5 13.5t66 40.5t45 68.5t27.5 97.5l92 521h-28l-91 -521q-9 -50 -23.5 -86.5t-38 -60.5t-56.5 -35.5t-79 -11.5h-9zM0 576h31l123 108l82 -108h28l-99 128h-19z" />
    <glyph glyph-name="uni0136" unicode="&#x136;" horiz-adv-x="593" 
d="M127 374l59 336h-29l-125 -710h30l60 346h148q32 0 54 -5.5t38.5 -17.5t28 -31t20.5 -46l80 -246h32l-85 259q-15 46 -40.5 72t-71.5 35l315 344h-37l-307 -337q-5 1 -11.5 1h-16.5h-142zM176 -243h23l81 161h-28z" />
    <glyph glyph-name="uni0137" unicode="&#x137;" horiz-adv-x="492" 
d="M244 276h-148l81 464h-27l-130 -740h28l43 252h143q42 0 64 -16t34 -54l58 -182h30l-62 193q-12 35 -31 54t-53 24l232 240h-35zM196 -55l-72 -172h24l77 172h-29z" />
    <glyph glyph-name="kgreenlandic" unicode="&#x138;" horiz-adv-x="451" 
d="M116 511l-99 -511h28l30 164l129 114l144 -278h32l-154 297l245 214h-37l-349 -307l58 307h-27z" />
    <glyph glyph-name="Lacute" unicode="&#x139;" horiz-adv-x="506" 
d="M157 710l-125 -710h418l5 27h-388l119 683h-29zM293 899l-211 -120l12 -17l211 116z" />
    <glyph glyph-name="lacute" unicode="&#x13a;" horiz-adv-x="180" 
d="M24 0h27l130 740h-27zM90 791l9 -17l177 88l-15 21z" />
    <glyph glyph-name="uni013B" unicode="&#x13b;" horiz-adv-x="506" 
d="M157 710l-125 -710h418l5 27h-388l119 683h-29zM219 -82l-76 -161h23l82 161h-29z" />
    <glyph glyph-name="uni013C" unicode="&#x13c;" horiz-adv-x="180" 
d="M24 0h27l130 740h-27zM-50 -231h22l80 183h-28z" />
    <glyph glyph-name="Lcaron" unicode="&#x13d;" horiz-adv-x="506" 
d="M157 710l-125 -710h418l5 27h-388l119 683h-29zM359 490h24l91 220h-28z" />
    <glyph glyph-name="lcaron" unicode="&#x13e;" horiz-adv-x="187" 
d="M154 740l-130 -740h27l130 740h-27zM209 539h22l74 201h-27z" />
    <glyph glyph-name="Ldot" unicode="&#x13f;" horiz-adv-x="506" 
d="M157 710l-125 -710h418l5 27h-388l119 683h-29zM290 347q-2 -9 3.5 -15.5t14.5 -6.5t16.5 6.5t9.5 15.5t-3 15.5t-15 6.5q-9 0 -16.5 -6.5t-9.5 -15.5z" />
    <glyph glyph-name="ldot" unicode="&#x140;" horiz-adv-x="254" 
d="M24 0h27l130 740h-27zM208 373q-2 -9 3.5 -15.5t14.5 -6.5t16.5 6.5t9.5 15.5t-3.5 15.5t-14.5 6.5t-16.5 -6.5t-9.5 -15.5z" />
    <glyph glyph-name="Lslash" unicode="&#x141;" horiz-adv-x="525" 
d="M-14 277l7 -22l112 51l-54 -306h418l5 27h-389l52 293l268 122l-5 22l-258 -117l63 363h-29l-67 -376z" />
    <glyph glyph-name="lslash" unicode="&#x142;" horiz-adv-x="242" 
d="M116 378l-111 -60l11 -17l96 51l-62 -352h27l64 368l118 64l-11 16l-102 -55l61 347h-27z" />
    <glyph glyph-name="Nacute" unicode="&#x143;" horiz-adv-x="687" 
d="M157 710l-125 -710h30l115 655l343 -655h28l124 710h-29l-116 -656l-345 656h-25zM324 779l11 -17l212 116l-12 21z" />
    <glyph glyph-name="nacute" unicode="&#x144;" horiz-adv-x="543" 
d="M101 478l-84 -478h28l79 460l26 10q75 30 168 30q165 0 136 -168l-58 -332h27l58 333q35 192 -157 192q-96 0 -183 -32zM218 599l11 -17l213 117l-14 20z" />
    <glyph glyph-name="uni0145" unicode="&#x145;" horiz-adv-x="687" 
d="M157 710l-125 -710h30l115 655l343 -655h28l124 710h-29l-116 -656l-345 656h-25zM277 -82l-77 -161h24l81 161h-28z" />
    <glyph glyph-name="uni0146" unicode="&#x146;" horiz-adv-x="543" 
d="M101 478l-84 -478h28l79 460l26 10q75 30 168 30q165 0 136 -168l-58 -332h27l58 333q35 192 -157 192q-96 0 -183 -32zM157 -216h23l83 177h-27z" />
    <glyph glyph-name="Ncaron" unicode="&#x147;" horiz-adv-x="687" 
d="M32 0h30l115 655l343 -655h28l124 710h-29l-116 -656l-345 656h-25zM280 896l134 -130h19l181 130h-35l-154 -108l-112 108h-33z" />
    <glyph glyph-name="ncaron" unicode="&#x148;" horiz-adv-x="543" 
d="M124 460l26 10q75 30 168 30q165 0 136 -168l-58 -332h27l58 333q35 192 -157 192q-96 0 -183 -32l-40 -15l-84 -478h28zM206 708h-31l134 -130h16l180 130h-35l-151 -108z" />
    <glyph glyph-name="napostrophe" unicode="&#x149;" horiz-adv-x="543" 
d="M101 478l-84 -478h28l79 460l26 10q75 30 168 30q165 0 136 -168l-58 -332h27l58 333q35 192 -157 192q-96 0 -183 -32zM148 740l-113 -201h23l119 201h-29z" />
    <glyph glyph-name="Eng" unicode="&#x14a;" horiz-adv-x="688" 
d="M157 710l-125 -710h30l116 655l342 -652l-2 -16q-17 -91 -75 -141t-149 -50h-8l-4 -26h7q105 0 172.5 57t84.5 159l128 724h-29l-114 -664l-348 664h-26z" />
    <glyph glyph-name="eng" unicode="&#x14b;" horiz-adv-x="543" 
d="M17 0h28l79 460l26 10q75 30 168 30q165 0 136 -168l-61 -346q-17 -91 -75 -140.5t-149 -49.5h-8l-3 -26h6q105 0 171.5 56.5t83.5 158.5l62 348q35 192 -157 192q-96 0 -183 -32l-40 -15z" />
    <glyph glyph-name="Omacron" unicode="&#x14c;" horiz-adv-x="661" 
d="M52 234q-21 -115 37.5 -181.5t189.5 -66.5q129 0 207 62.5t98 177.5l44 250q21 115 -37 181.5t-187 66.5q-130 0 -209 -63t-99 -178zM281 13q-115 0 -166 57.5t-33 160.5l44 248q18 105 89 161.5t186 56.5t165.5 -57.5t32.5 -160.5l-44 -248q-18 -103 -89 -160.5
t-185 -57.5zM297 821h252l6 22h-255z" />
    <glyph glyph-name="omacron" unicode="&#x14d;" horiz-adv-x="536" 
d="M31 157q-6 -39 4 -71t34 -54t61 -34t85 -12t88.5 11.5t71.5 33.5t51.5 53.5t27.5 70.5l35 199q13 79 -36.5 125t-146.5 46q-48 0 -89 -12t-72 -34t-51.5 -53.5t-27.5 -70.5zM217 11q-41 0 -73 10t-53 29t-29.5 45.5t-2.5 59.5l34 201q13 66 70.5 105t139.5 39
q42 0 74 -10t53 -29t29.5 -45.5t2.5 -59.5l-35 -201q-6 -33 -24 -59.5t-45.5 -45.5t-63 -29t-77.5 -10zM199 628h252l6 23h-255z" />
    <glyph glyph-name="Obreve" unicode="&#x14e;" horiz-adv-x="661" 
d="M404 724q-130 0 -209 -63t-99 -178l-44 -249q-21 -115 37.5 -181.5t189.5 -66.5q129 0 207 62.5t98 177.5l44 250q21 115 -37 181.5t-187 66.5zM126 479q18 105 89 161.5t186 56.5t165.5 -57.5t32.5 -160.5l-44 -248q-18 -103 -89 -160.5t-185 -57.5q-115 0 -166 57.5
t-33 160.5zM566 903l-3 -7q-45 -98 -143 -98q-52 0 -79 23.5t-31 74.5v6l-24 -6l1 -7q11 -114 130 -114q61 0 101 27t66 87l3 6z" />
    <glyph glyph-name="obreve" unicode="&#x14f;" horiz-adv-x="536" 
d="M454 155l35 199q13 79 -36.5 125t-146.5 46q-48 0 -89 -12t-72 -34t-51.5 -53.5t-27.5 -70.5l-35 -198q-6 -39 4 -71t34 -54t61 -34t85 -12t88.5 11.5t71.5 33.5t51.5 53.5t27.5 70.5zM93 356q13 66 70.5 105t139.5 39q42 0 74 -10t53 -29t29.5 -45.5t2.5 -59.5l-35 -201
q-6 -33 -24 -59.5t-45.5 -45.5t-63 -29t-77.5 -10q-41 0 -73 10t-53 29t-29.5 45.5t-2.5 59.5zM467 710l-2 -6q-44 -98 -144 -98q-52 0 -78 23t-31 74v6l-24 -5l1 -8q11 -113 132 -113q114 0 165 113l3 8z" />
    <glyph glyph-name="Ohungarumlaut" unicode="&#x150;" horiz-adv-x="661" 
d="M404 724q-130 0 -209 -63t-99 -178l-44 -249q-21 -115 37.5 -181.5t189.5 -66.5q129 0 207 62.5t98 177.5l44 250q21 115 -37 181.5t-187 66.5zM126 479q18 105 89 161.5t186 56.5t165.5 -57.5t32.5 -160.5l-44 -248q-18 -103 -89 -160.5t-185 -57.5q-115 0 -166 57.5
t-33 160.5zM278 777l21 -6l148 129l-25 7zM472 770l152 131l-26 6l-144 -129z" />
    <glyph glyph-name="ohungarumlaut" unicode="&#x151;" horiz-adv-x="536" 
d="M306 525q-48 0 -89 -12t-72 -34t-51.5 -53.5t-27.5 -70.5l-35 -198q-6 -39 4 -71t34 -54t61 -34t85 -12t88.5 11.5t71.5 33.5t51.5 53.5t27.5 70.5l35 199q13 79 -36.5 125t-146.5 46zM93 356q13 66 70.5 105t139.5 39q42 0 74 -10t53 -29t29.5 -45.5t2.5 -59.5l-35 -201
q-6 -33 -24 -59.5t-45.5 -45.5t-63 -29t-77.5 -10q-41 0 -73 10t-53 29t-29.5 45.5t-2.5 59.5zM372 577l156 127l-29 5l-147 -126zM322 711l-142 -128l18 -8l151 131z" />
    <glyph glyph-name="OE" unicode="&#x152;" horiz-adv-x="832" 
d="M852 710h-338q-52 15 -107 15q-131 0 -210.5 -63.5t-99.5 -178.5l-45 -249q-21 -117 36.5 -183t187.5 -66q58 0 113 15h352l5 27h-332l55 318h275l4 28h-273l54 310h316zM401 698q51 0 99 -15l-116 -657q-51 -14 -103 -14q-115 0 -166 58t-33 161l44 248q18 103 89 161
t186 58z" />
    <glyph glyph-name="oe" unicode="&#x153;" horiz-adv-x="802" 
d="M517 -14q131 0 200 108l5 8l-21 13l-5 -8q-32 -49 -72 -73t-103 -24q-78 0 -106.5 45t-14.5 123l11 64q80 -21 157 -21q81 0 132.5 35.5t67.5 102.5q19 81 -20.5 123.5t-129.5 42.5q-133 0 -190 -127q-2 61 -40.5 94t-107.5 33q-41 0 -76.5 -11.5t-63.5 -33.5t-46.5 -53
t-24.5 -70l-35 -201q-6 -39 1.5 -70.5t27.5 -53.5t51.5 -34t72.5 -12q63 0 111.5 31.5t76.5 88.5q11 -120 142 -120zM375 177q-7 -37 -23.5 -68t-40.5 -52.5t-54.5 -33.5t-65.5 -12q-69 0 -105.5 39t-24.5 105l36 202q6 33 21.5 59t39.5 45t54.5 29t64.5 10q72 0 106 -42
t21 -117zM425 320q15 87 64 134t125 47q78 0 111 -36.5t16 -105.5q-28 -115 -169 -115q-84 0 -156 22z" />
    <glyph glyph-name="Racute" unicode="&#x154;" horiz-adv-x="635" 
d="M553 0l-77 233q-24 69 -77 90q88 4 145 52t73 136q16 94 -26.5 146.5t-136.5 52.5h-297l-125 -710h30l56 320h185q32 0 55 -5.5t40 -17.5t28.5 -31t20.5 -46l72 -220h34zM122 348l60 335h265q82 0 118.5 -44t22.5 -125t-66.5 -123.5t-133.5 -42.5h-266zM516 878l-15 21
l-209 -121l10 -16z" />
    <glyph glyph-name="racute" unicode="&#x155;" horiz-adv-x="333" 
d="M94 439l-76 -439h27l75 433q5 27 31 38q73 29 167 29h38l5 25h-38q-50 0 -95 -7.5t-87 -24.5q-24 -10 -33 -20.5t-14 -33.5zM148 598l12 -17l213 118l-15 19z" />
    <glyph glyph-name="uni0156" unicode="&#x156;" horiz-adv-x="635" 
d="M157 710l-125 -710h30l56 320h185q32 0 55 -5.5t40 -17.5t28.5 -31t20.5 -46l72 -220h34l-77 233q-24 69 -77 90q88 4 145 52t73 136q16 94 -26.5 146.5t-136.5 52.5h-297zM182 683h265q82 0 118.5 -44t22.5 -125t-66.5 -123.5t-133.5 -42.5h-266zM212 -243l82 161h-29
l-76 -161h23z" />
    <glyph glyph-name="uni0157" unicode="&#x157;" horiz-adv-x="333" 
d="M18 0h27l75 433q5 27 31 38q73 29 167 29h38l5 25h-38q-50 0 -95 -7.5t-87 -24.5q-24 -10 -33 -20.5t-14 -33.5zM-47 -221h25l77 178h-29z" />
    <glyph glyph-name="Rcaron" unicode="&#x158;" horiz-adv-x="635" 
d="M617 511q16 94 -26.5 146.5t-136.5 52.5h-297l-125 -710h30l56 320h185q32 0 55 -5.5t40 -17.5t28.5 -31t20.5 -46l72 -220h34l-77 233q-24 69 -77 90q88 4 145 52t73 136zM588 514q-14 -81 -66.5 -123.5t-133.5 -42.5h-266l60 335h265q82 0 118.5 -44t22.5 -125z
M400 766l181 130h-34l-155 -108l-112 108h-33l135 -130h18z" />
    <glyph glyph-name="rcaron" unicode="&#x159;" horiz-adv-x="334" 
d="M18 0h27l75 433q5 27 31 38q73 29 167 29h38l5 25h-38q-50 0 -95 -7.5t-87 -24.5q-24 -10 -33 -20.5t-14 -33.5zM105 707l133 -129h18l179 129h-34l-152 -107l-113 107h-31z" />
    <glyph glyph-name="Sacute" unicode="&#x15a;" horiz-adv-x="611" 
d="M493 326q-18 10 -35.5 17t-36 12t-40 8.5t-48.5 6.5q-54 6 -99 18t-77 40q-18 17 -27 45t-2 65q13 76 76.5 116.5t166.5 40.5q87 0 134.5 -34t68.5 -103l2 -7l27 13l-2 7q-24 75 -77 114t-148 39q-118 0 -189.5 -46t-87.5 -136q-10 -57 6 -93t49 -58t77 -33t90 -16
q17 -2 41 -5.5t49 -9.5t46.5 -15t34.5 -22q15 -16 23.5 -43.5t1.5 -64.5q-30 -168 -259 -168q-91 0 -141 38t-72 123l-2 7l-29 -10l2 -9q21 -91 79 -134t161 -43q257 0 290 191q20 109 -53 149zM518 887l-12 21l-211 -121l11 -17z" />
    <glyph glyph-name="sacute" unicode="&#x15b;" horiz-adv-x="487" 
d="M243 241q41 -4 70.5 -10.5t48 -19t25.5 -33t1 -51.5q-21 -116 -190 -116q-72 0 -113 26t-53 86l-1 6l-27 -7l2 -9q14 -69 61 -98t128 -29q196 0 220 139q15 79 -38 109q-26 14 -54 21t-70 11q-2 0 -4.5 0.5t-6.5 0.5q-35 4 -64.5 8t-50 15.5t-29.5 33t-3 60.5
q20 116 182 116q75 0 110 -24t46 -72l2 -7l24 11l-2 8q-22 109 -177 109q-186 0 -213 -139q-14 -83 42 -116q34 -20 134 -29zM418 699l-12 20l-211 -120l11 -17z" />
    <glyph glyph-name="Scircumflex" unicode="&#x15c;" horiz-adv-x="611" 
d="M128 538q13 76 76.5 116.5t166.5 40.5q87 0 134.5 -34t68.5 -103l2 -7l27 13l-2 7q-24 75 -77 114t-148 39q-118 0 -189.5 -46t-87.5 -136q-10 -57 6 -93t49 -58t77 -33t90 -16q17 -2 41 -5.5t49 -9.5t46.5 -15t34.5 -22q15 -16 23.5 -43.5t1.5 -64.5q-30 -168 -259 -168
q-91 0 -141 38t-72 123l-2 7l-29 -10l2 -9q21 -91 79 -134t161 -43q257 0 290 191q20 109 -53 149q-18 10 -35.5 17t-36 12t-40 8.5t-48.5 6.5q-54 6 -99 18t-77 40q-18 17 -27 45t-2 65zM409 904l-182 -130h36l153 108l114 -108h31l-134 130h-18z" />
    <glyph glyph-name="scircumflex" unicode="&#x15d;" horiz-adv-x="487" 
d="M243 241q41 -4 70.5 -10.5t48 -19t25.5 -33t1 -51.5q-21 -116 -190 -116q-72 0 -113 26t-53 86l-1 6l-27 -7l2 -9q14 -69 61 -98t128 -29q196 0 220 139q15 79 -38 109q-26 14 -54 21t-70 11q-2 0 -4.5 0.5t-6.5 0.5q-35 4 -64.5 8t-50 15.5t-29.5 33t-3 60.5
q20 116 182 116q75 0 110 -24t46 -72l2 -7l24 11l-2 8q-22 109 -177 109q-186 0 -213 -139q-14 -83 42 -116q34 -20 134 -29zM128 579h34l153 109l114 -109h30l-133 130h-18z" />
    <glyph glyph-name="Scedilla" unicode="&#x15e;" horiz-adv-x="611" 
d="M45 175l-2 7l-29 -10l2 -9q21 -91 79 -134t161 -43h2l-56 -102l16 6q17 6 41 6q73 0 65 -53q-7 -35 -33 -54t-65 -19q-50 0 -82 29l-5 5l-3 -25l6 -5q32 -24 82 -24q49 0 82 23t41 68q6 34 -13 53t-61 19q-19 0 -37 -5l42 78q237 9 268 191q20 109 -53 149
q-18 10 -35.5 17t-36 12t-40 8.5t-48.5 6.5q-54 6 -99 18t-77 40q-18 17 -27 45t-2 65q13 76 76.5 116.5t166.5 40.5q87 0 134.5 -34t68.5 -103l2 -7l27 13l-2 7q-24 75 -77 114t-148 39q-118 0 -189.5 -46t-87.5 -136q-10 -57 6 -93t49 -58t77 -33t90 -16q17 -2 41 -5.5
t49 -9.5t46.5 -15t34.5 -22q15 -16 23.5 -43.5t1.5 -64.5q-30 -168 -259 -168q-91 0 -141 38t-72 123z" />
    <glyph glyph-name="scedilla" unicode="&#x15f;" horiz-adv-x="487" 
d="M95 384q20 116 182 116q75 0 110 -24t46 -72l2 -7l24 11l-2 8q-22 109 -177 109q-186 0 -213 -139q-14 -83 42 -116q34 -20 134 -29q41 -4 70.5 -10.5t48 -19t25.5 -33t1 -51.5q-21 -116 -190 -116q-72 0 -113 26t-53 86l-1 6l-27 -7l2 -9q14 -68 60 -97t126 -30
l-54 -100l16 6q17 6 41 6q73 0 65 -53q-7 -35 -33 -54t-65 -19q-50 0 -82 29l-5 5l-3 -25l6 -5q32 -24 82 -24q49 0 82 23t41 68q6 34 -13 53t-61 19q-19 0 -37 -5l41 76q178 6 202 139q15 79 -38 109q-26 14 -54 21t-70 11q-2 0 -4.5 0.5t-6.5 0.5q-35 4 -64.5 8t-50 15.5
t-29.5 33t-3 60.5z" />
    <glyph glyph-name="Scaron" unicode="&#x160;" horiz-adv-x="611" 
d="M128 538q13 76 76.5 116.5t166.5 40.5q87 0 134.5 -34t68.5 -103l2 -7l27 13l-2 7q-24 75 -77 114t-148 39q-118 0 -189.5 -46t-87.5 -136q-10 -57 6 -93t49 -58t77 -33t90 -16q17 -2 41 -5.5t49 -9.5t46.5 -15t34.5 -22q15 -16 23.5 -43.5t1.5 -64.5q-30 -168 -259 -168
q-91 0 -141 38t-72 123l-2 7l-29 -10l2 -9q21 -91 79 -134t161 -43q257 0 290 191q20 109 -53 149q-18 10 -35.5 17t-36 12t-40 8.5t-48.5 6.5q-54 6 -99 18t-77 40q-18 17 -27 45t-2 65zM283 905h-33l135 -130h19l180 130h-34l-154 -108z" />
    <glyph glyph-name="scaron" unicode="&#x161;" horiz-adv-x="487" 
d="M243 241q41 -4 70.5 -10.5t48 -19t25.5 -33t1 -51.5q-21 -116 -190 -116q-72 0 -113 26t-53 86l-1 6l-27 -7l2 -9q14 -69 61 -98t128 -29q196 0 220 139q15 79 -38 109q-26 14 -54 21t-70 11q-2 0 -4.5 0.5t-6.5 0.5q-35 4 -64.5 8t-50 15.5t-29.5 33t-3 60.5
q20 116 182 116q75 0 110 -24t46 -72l2 -7l24 11l-2 8q-22 109 -177 109q-186 0 -213 -139q-14 -83 42 -116q34 -20 134 -29zM152 708l133 -130h17l180 130h-35l-151 -108l-113 108h-31z" />
    <glyph glyph-name="Tcaron" unicode="&#x164;" horiz-adv-x="522" 
d="M83 710l-5 -27h235l-120 -683h29l120 683h233l7 27h-499zM231 896h-33l135 -130h18l181 130h-35l-154 -108z" />
    <glyph glyph-name="tcaron" unicode="&#x165;" horiz-adv-x="327" 
d="M156 486l-55 -309q-19 -112 15 -152q33 -39 136 -39h17l4 26h-7q-97 0 -126 33t-11 133l54 308h176l4 25h-176l20 120h-27l-20 -120h-124l-4 -25h124zM384 740l-71 -174h23l77 174h-29z" />
    <glyph glyph-name="Tbar" unicode="&#x166;" horiz-adv-x="549" 
d="M97 710l-7 -27h236l-60 -340h-164l-6 -24h165l-55 -319h29l56 319h164l6 24h-166l60 340h234l7 27h-499z" />
    <glyph glyph-name="tbar" unicode="&#x167;" horiz-adv-x="332" 
d="M185 631l-21 -120h-124l-4 -25h124l-38 -213h-104l-3 -22h103l-12 -74q-21 -111 14 -152q33 -39 136 -39h18l5 27h-9q-97 0 -126 33q-29 32 -11 132l13 73h147v22h-144l38 213h176l4 25h-175l20 120h-27z" />
    <glyph glyph-name="Utilde" unicode="&#x168;" horiz-adv-x="679" 
d="M588 235l84 475h-30l-83 -470q-18 -106 -86.5 -167t-183.5 -61t-162.5 60t-28.5 168l83 470h-29l-83 -467q-21 -119 33.5 -188.5t183.5 -69.5t205 66t97 184zM593 871h-21l-1 -6q-6 -31 -22.5 -50.5t-42.5 -19.5q-29 0 -70 38t-78 38q-35 0 -58 -24t-31 -66l-1 -6h22l1 6
q5 31 22.5 50t42.5 19q24 0 40 -11.5t31 -26t32.5 -26t44.5 -11.5q73 0 88 90z" />
    <glyph glyph-name="utilde" unicode="&#x169;" 
d="M387 18l40 15l84 478h-27l-81 -462l-25 -9q-78 -29 -168 -29q-164 0 -136 168l59 332h-28l-58 -333q-34 -192 157 -192q98 0 183 32zM406 595q71 0 86 90l1 6h-21l-1 -6q-5 -31 -22 -50t-43 -19q-23 0 -39 11.5t-32 26t-34 26t-44 11.5q-35 0 -58 -24t-30 -66l-1 -6h21
l1 6q5 31 22.5 50t43.5 19q31 0 72 -37q41 -38 78 -38z" />
    <glyph glyph-name="Umacron" unicode="&#x16a;" horiz-adv-x="679" 
d="M69 243q-21 -119 33.5 -188.5t183.5 -69.5t205 66t97 184l84 475h-30l-83 -470q-18 -106 -86.5 -167t-183.5 -61t-162.5 60t-28.5 168l83 470h-29zM303 811h252l6 22h-255z" />
    <glyph glyph-name="umacron" unicode="&#x16b;" 
d="M47 178q-34 -192 157 -192q98 0 183 32l40 15l84 478h-27l-81 -462l-25 -9q-78 -29 -168 -29q-164 0 -136 168l59 332h-28zM203 628h252l6 23h-255z" />
    <glyph glyph-name="Ubreve" unicode="&#x16c;" horiz-adv-x="679" 
d="M181 710h-29l-83 -467q-21 -119 33.5 -188.5t183.5 -69.5t205 66t97 184l84 475h-30l-83 -470q-18 -106 -86.5 -167t-183.5 -61t-162.5 60t-28.5 168zM292 886l1 -7q11 -114 130 -114q61 0 101 27t66 87l3 6l-21 8l-3 -7q-44 -98 -143 -98q-52 0 -79 23.5t-31 74.5v6z
" />
    <glyph glyph-name="ubreve" unicode="&#x16d;" 
d="M133 511h-28l-58 -333q-34 -192 157 -192q98 0 183 32l40 15l84 478h-27l-81 -462l-25 -9q-78 -29 -168 -29q-164 0 -136 168zM471 710l-2 -6q-44 -98 -144 -98q-52 0 -78.5 23t-30.5 74v6l-24 -5l1 -8q11 -113 132 -113q114 0 165 113l3 8z" />
    <glyph glyph-name="Uring" unicode="&#x16e;" horiz-adv-x="679" 
d="M559 240q-18 -106 -86.5 -167t-183.5 -61t-162.5 60t-28.5 168l83 470h-29l-83 -467q-21 -119 33.5 -188.5t183.5 -69.5t205 66t97 184l84 475h-30zM341 835q-8 -43 13 -67.5t66 -24.5t74 24.5t36 67.5q8 43 -13 67.5t-64 24.5q-45 0 -75 -24.5t-37 -67.5zM423 761
q-36 0 -52.5 19.5t-11.5 54.5q5 34 30 54t61 20q34 0 50.5 -19.5t11.5 -54.5q-6 -34 -30 -54t-59 -20z" />
    <glyph glyph-name="uring" unicode="&#x16f;" 
d="M133 511h-28l-58 -333q-34 -192 157 -192q98 0 183 32l40 15l84 478h-27l-81 -462l-25 -9q-78 -29 -168 -29q-164 0 -136 168zM241 647q-8 -43 13.5 -68.5t66.5 -25.5q43 0 72.5 24t37.5 67t-13 68.5t-64 25.5q-45 0 -75 -24.5t-38 -66.5zM383 591q-25 -20 -59 -20
q-36 0 -53 20t-12 54q8 43 33 59t67 16q24 0 37.5 -14.5t16.5 -34.5t-4.5 -42.5t-25.5 -37.5z" />
    <glyph glyph-name="Uhungarumlaut" unicode="&#x170;" horiz-adv-x="679" 
d="M286 -15q129 0 205 66t97 184l84 475h-30l-83 -470q-18 -106 -86.5 -167t-183.5 -61t-162.5 60t-28.5 168l83 470h-29l-83 -467q-21 -119 33.5 -188.5t183.5 -69.5zM428 897l-144 -129l21 -7l148 130zM630 891l-26 6l-144 -129l18 -8z" />
    <glyph glyph-name="uhungarumlaut" unicode="&#x171;" 
d="M133 511h-28l-58 -333q-34 -192 157 -192q98 0 183 32l40 15l84 478h-27l-81 -462l-25 -9q-78 -29 -168 -29q-164 0 -136 168zM532 704l-29 5l-147 -126l20 -6zM326 711l-142 -128l18 -8l151 131z" />
    <glyph glyph-name="Uogonek" unicode="&#x172;" horiz-adv-x="679" 
d="M469 34q93 64 119 201l84 475h-30l-83 -470q-18 -106 -86.5 -167t-183.5 -61t-162.5 60t-28.5 168l83 470h-29l-83 -467q-21 -119 33.5 -188.5t183.5 -69.5q61 0 114 17q-59 -48 -94 -110q-34 -58 -28 -95q9 -45 59 -45q47 0 91 35l4 3l-5 23l-4 -4q-36 -33 -77 -33
q-21 0 -30 7t-12 24q-8 38 42 107q48 69 123 120z" />
    <glyph glyph-name="uogonek" unicode="&#x173;" 
d="M484 511l-81 -462l-25 -9q-78 -29 -167 -29q-165 0 -137 168l59 332h-28l-58 -332q-16 -94 22 -143.5t135 -49.5q83 0 155 23q-63 -48 -100 -112q-37 -60 -29 -100q8 -45 59 -45q49 0 92 36l5 4l-4 21l-5 -5q-35 -32 -76 -32q-38 0 -44 32q-6 36 38 104t113 116l21 14
l82 469h-27z" />
    <glyph glyph-name="Wcircumflex" unicode="&#x174;" horiz-adv-x="862" 
d="M485 692l-297 -642l-63 660h-31l69 -710h31l298 644l70 -644h31l320 710h-32l-296 -657l-69 639h-31zM529 895l-182 -130h36l153 108l113 -108h32l-134 130h-18z" />
    <glyph glyph-name="wcircumflex" unicode="&#x175;" horiz-adv-x="725" 
d="M384 493l-233 -452l-65 470h-27l72 -516h25l234 458l70 -458h26l255 516h-29l-232 -472l-71 454h-25zM247 578h34l152 110l114 -110h31l-133 130h-19z" />
    <glyph glyph-name="Ycircumflex" unicode="&#x176;" horiz-adv-x="610" 
d="M238 0h29l51 294l356 416h-38l-327 -385l-191 385h-36l207 -415zM256 765l153 108l114 -108h31l-134 130h-18l-182 -130h36z" />
    <glyph glyph-name="ycircumflex" unicode="&#x177;" horiz-adv-x="547" 
d="M403 53q-103 -39 -192 -39q-88 0 -119.5 41.5t-16.5 126.5l57 329h-27l-57 -329q-34 -193 157 -193q83 0 194 38l-12 -69q-34 -189 -213 -189q-66 0 -100 26.5t-50 77.5l-2 7l-27 -12l3 -8q38 -117 172 -117q207 0 244 216l97 552h-27zM353 708h-19l-180 -130h35l152 110
l114 -110h30z" />
    <glyph glyph-name="Ydieresis" unicode="&#x178;" horiz-adv-x="610" 
d="M289 295l-51 -295h29l51 294l356 416h-38l-327 -385l-191 385h-36zM489 806q8 0 14.5 6t8.5 14t-3 13.5t-13 5.5t-15 -5.5t-9 -13.5t3 -14t14 -6zM307 845q-8 0 -14 -5.5t-8 -13.5t2.5 -14t12.5 -6t14.5 6t8.5 14t-3 13.5t-13 5.5z" />
    <glyph glyph-name="Zacute" unicode="&#x179;" horiz-adv-x="540" 
d="M-20 28l-6 -28h490l4 28h-453l557 659l5 23h-473l-7 -27h437zM266 762l212 116l-12 21l-211 -120z" />
    <glyph glyph-name="zacute" unicode="&#x17a;" horiz-adv-x="434" 
d="M-25 0h380l4 25h-346l422 461l5 25h-372l-5 -25h339l-423 -462zM178 581l214 117l-14 20l-211 -120z" />
    <glyph glyph-name="Zdotaccent" unicode="&#x17b;" horiz-adv-x="540" 
d="M-20 28l-6 -28h490l4 28h-453l557 659l5 23h-473l-7 -27h437zM360 802q8 0 15.5 6t9.5 14t-3 13.5t-13 5.5t-15 -5.5t-9 -13.5t2.5 -14t12.5 -6z" />
    <glyph glyph-name="zdotaccent" unicode="&#x17c;" horiz-adv-x="434" 
d="M-25 0h380l4 25h-346l422 461l5 25h-372l-5 -25h339l-423 -462zM274 621q8 0 15 6t9 14q1 8 -4 14t-13 6t-15 -6t-8 -14q-2 -8 3 -14t13 -6z" />
    <glyph glyph-name="Zcaron" unicode="&#x17d;" horiz-adv-x="540" 
d="M-20 28l-6 -28h490l4 28h-453l557 659l5 23h-473l-7 -27h437zM356 788l-112 108h-34l135 -130h19l180 130h-34z" />
    <glyph glyph-name="zcaron" unicode="&#x17e;" horiz-adv-x="434" 
d="M-21 24l-4 -24h380l4 25h-346l422 461l5 25h-372l-5 -25h339zM268 600l-113 107h-31l133 -129h19l179 129h-35z" />
    <glyph glyph-name="longs" unicode="&#x17f;" horiz-adv-x="229" 
d="M38 486h104l-85 -486h27l96 548q8 48 21.5 80t36 51t56 27t82.5 8h9l3 26h-7q-55 0 -94 -9.5t-65.5 -32t-43 -59t-25.5 -90.5l-7 -38h-104z" />
    <glyph glyph-name="florin" unicode="&#x192;" horiz-adv-x="416" 
d="M123 -22q-16 -84 -60.5 -128t-129.5 -44h-9v-26h6q184 0 221 195l73 370h174l3 26h-172l35 173q16 83 59.5 126.5t129.5 43.5h9v26h-7q-182 0 -220 -194l-35 -175h-164l-3 -26h163z" />
    <glyph glyph-name="Aringacute" unicode="&#x1fa;" horiz-adv-x="625" 
d="M486 766q7 39 -14.5 63.5t-61.5 24.5q-42 0 -71.5 -24.5t-36.5 -62.5q-5 -30 10.5 -50.5t46.5 -25.5l-404 -691h34l149 257h336l59 -257h31l-161 691q32 5 55.5 25.5t27.5 49.5zM469 282h-317l229 393zM407 835q31 0 47.5 -19t11.5 -49q-5 -27 -28.5 -44.5t-55.5 -17.5
t-49 17.5t-12 44.5q5 30 29.5 49t56.5 19zM320 874l8 -15l197 79l-10 20z" />
    <glyph glyph-name="aringacute" unicode="&#x1fb;" horiz-adv-x="528" 
d="M455 497q-60 28 -154 28q-108 0 -165 -44t-73 -141l-27 -149q-17 -94 20 -149.5t133 -55.5q115 0 211 34l13 4l79 456zM462 462l-74 -418q-90 -33 -193 -33q-84 0 -115.5 47.5t-16.5 131.5l26 148q16 86 65.5 124t143.5 38q80 0 137 -26zM237 671q-8 -43 14 -68.5
t65 -25.5q45 0 74 24t36 67q8 42 -13 68t-64 26q-45 0 -75 -24t-37 -67zM378 615q-25 -20 -59 -20q-36 0 -53 20t-11 54q7 42 33.5 58.5t65.5 16.5q24 0 37.5 -14.5t16.5 -34.5t-4.5 -42.5t-25.5 -37.5zM435 871l-13 16l-197 -90l12 -12z" />
    <glyph glyph-name="AEacute" unicode="&#x1fc;" horiz-adv-x="808" 
d="M408 27l56 318h257l4 28h-256l55 310h299l4 27h-332l-553 -710h34l151 195h282l-34 -195h342l4 27h-313zM413 221h-266l346 444zM571 778l11 -16l213 117l-15 20z" />
    <glyph glyph-name="aeacute" unicode="&#x1fd;" horiz-adv-x="780" 
d="M543 221q81 0 134 34.5t69 101.5q19 81 -22 124.5t-131 43.5q-64 0 -114 -32t-79 -90q-1 58 -30 90t-102 32q-117 0 -188 -98l-6 -8l25 -10l4 6q61 85 160 85q48 0 73.5 -14t35 -38t7.5 -55t-8 -65l-10 -57q-42 7 -74.5 10t-57.5 3q-100 0 -152 -35t-65 -110
q-14 -78 25.5 -115.5t136.5 -37.5q123 0 178 81q29 -81 140 -81q130 0 203 112l5 8l-21 11l-4 -6q-33 -51 -74.5 -76t-104.5 -25q-155 0 -127 168l11 65q81 -22 163 -22zM589 501q78 0 113 -36.5t18 -105.5q-28 -115 -173 -115q-85 0 -162 21l9 55q15 85 66 133t129 48z
M223 260q71 0 134 -12l-13 -71q-9 -45 -2 -84q-53 -83 -166 -83q-81 0 -114.5 31t-22.5 95q12 66 55.5 95t128.5 29zM560 698l-14 20l-210 -120l11 -17z" />
    <glyph glyph-name="Oslashacute" unicode="&#x1fe;" horiz-adv-x="661" 
d="M404 724q-130 0 -209 -63t-99 -178l-44 -249q-20 -116 37 -180l-78 -98h25l68 84q59 -54 175 -54q129 0 207 62.5t98 177.5l44 250q20 108 -29 171l83 102h-26l-71 -88q-58 63 -181 63zM111 79q-46 54 -29 152l44 248q18 105 89 161.5t186 56.5q113 0 165 -58zM578 620
q36 -52 21 -141l-44 -248q-18 -103 -89 -160.5t-185 -57.5q-105 0 -157 49zM316 788l10 -16l213 116l-12 22z" />
    <glyph glyph-name="oslashacute" unicode="&#x1ff;" horiz-adv-x="536" 
d="M304 525q-48 0 -88.5 -12t-71.5 -34t-51.5 -53.5t-27.5 -70.5l-34 -198q-15 -79 35 -126l-53 -66h24l45 55q49 -34 131 -34q48 0 89.5 12t72.5 33.5t51.5 53t26.5 70.5l35 199q13 76 -36 124l60 74h-23l-52 -61q-47 34 -133 34zM302 500q72 0 119 -32l-337 -413
q-37 35 -26 100l35 201q6 33 24 59.5t45.5 45.5t63 29t76.5 10zM432 453q40 -38 29 -98l-35 -200q-6 -33 -24 -59.5t-45.5 -45.5t-63 -29t-77.5 -10q-77 0 -117 31zM217 598l12 -17l212 117l-14 20z" />
    <glyph glyph-name="uni0218" unicode="&#x218;" horiz-adv-x="611" 
d="M321 342q17 -2 41 -5.5t49 -9.5t46.5 -15t34.5 -22q15 -16 23.5 -43.5t1.5 -64.5q-30 -168 -259 -168q-91 0 -141 38t-72 123l-2 7l-29 -10l2 -9q21 -91 79 -134t161 -43q257 0 290 191q20 109 -53 149q-18 10 -35.5 17t-36 12t-40 8.5t-48.5 6.5q-54 6 -99 18t-77 40
q-18 17 -27 45t-2 65q13 76 76.5 116.5t166.5 40.5q87 0 134.5 -34t68.5 -103l2 -7l27 13l-2 7q-24 75 -77 114t-148 39q-118 0 -189.5 -46t-87.5 -136q-10 -57 6 -93t49 -58t77 -33t90 -16zM198 -251l82 161h-29l-76 -161h23z" />
    <glyph glyph-name="uni0219" unicode="&#x219;" horiz-adv-x="487" 
d="M253 266q-2 0 -4.5 0.5t-6.5 0.5q-35 4 -64.5 8t-50 15.5t-29.5 33t-3 60.5q20 116 182 116q75 0 110 -24t46 -72l2 -7l24 11l-2 8q-22 109 -177 109q-186 0 -213 -139q-14 -83 42 -116q34 -20 134 -29q41 -4 70.5 -10.5t48 -19t25.5 -33t1 -51.5q-21 -116 -190 -116
q-72 0 -113 26t-53 86l-1 6l-27 -7l2 -9q14 -69 61 -98t128 -29q196 0 220 139q15 79 -38 109q-26 14 -54 21t-70 11zM225 -64h-27l-72 -166h23z" />
    <glyph glyph-name="uni021A" unicode="&#x21a;" horiz-adv-x="522" 
d="M83 710l-5 -27h235l-120 -683h29l120 683h233l7 27h-499zM199 -82l-77 -161h24l81 161h-28z" />
    <glyph glyph-name="uni021B" unicode="&#x21b;" horiz-adv-x="327" 
d="M252 -14h17l4 26h-7q-97 0 -126 33t-11 133l54 308h176l4 25h-176l20 120h-27l-20 -120h-124l-4 -25h124l-55 -309q-19 -112 15 -152q33 -39 136 -39zM74 -243h23l82 161h-29z" />
    <glyph glyph-name="uni0237" unicode="&#x237;" horiz-adv-x="173" 
d="M-188 -204l-5 -26h8q53 0 91.5 13.5t66 40.5t45 68.5t27.5 97.5l92 521h-28l-91 -521q-9 -50 -23.5 -86.5t-38 -60.5t-56.5 -35.5t-79 -11.5h-9z" />
    <glyph glyph-name="circumflex" unicode="&#x2c6;" horiz-adv-x="364" 
d="M273 717h-19l-180 -130h35l152 109l114 -109h30z" />
    <glyph glyph-name="caron" unicode="&#x2c7;" horiz-adv-x="332" 
d="M217 586h17l180 130h-35l-151 -108l-114 108h-31z" />
    <glyph glyph-name="breve" unicode="&#x2d8;" horiz-adv-x="287" 
d="M92 718l-24 -7l1 -6q11 -113 132 -113q115 0 165 113l3 6l-21 8l-3 -6q-44 -98 -144 -98q-51 0 -77.5 23t-31.5 74v6z" />
    <glyph glyph-name="dotaccent" unicode="&#x2d9;" horiz-adv-x="216" 
d="M158 650q-2 -8 3 -14t13 -6t14.5 6t8.5 14t-2.5 13.5t-12.5 5.5t-15 -5.5t-9 -13.5z" />
    <glyph glyph-name="ring" unicode="&#x2da;" horiz-adv-x="240" 
d="M93 636q-8 -43 13 -68.5t66 -25.5t73.5 24t36.5 66q8 43 -13 68.5t-64 25.5q-45 0 -74.5 -24t-37.5 -66zM175 560q-36 0 -53 20t-11 54q7 40 34.5 57.5t65.5 17.5q24 0 37.5 -14.5t16 -34.5t-5 -42.5t-25.5 -37.5q-25 -20 -59 -20z" />
    <glyph glyph-name="ogonek" unicode="&#x2db;" horiz-adv-x="252" 
d="M115 0q-37 -24 -65.5 -51t-47 -54t-26 -52t-2.5 -46q7 -45 59 -45q47 0 91 35l5 4l-5 22l-5 -4q-36 -33 -77 -33q-21 0 -29.5 6.5t-12.5 24.5t4 41t26 48.5t46 52t64 51.5h-25z" />
    <glyph glyph-name="tilde" unicode="&#x2dc;" horiz-adv-x="305" 
d="M60 610l-1 -6h22l1 6q5 31 22.5 50t42.5 19q24 0 40 -11.5t32 -26t34 -26t45 -11.5q70 0 86 90l1 6h-21l-1 -6q-5 -31 -22 -50t-43 -19q-30 0 -71 38q-41 37 -79 37q-35 0 -57.5 -24t-30.5 -66z" />
    <glyph glyph-name="hungarumlaut" unicode="&#x2dd;" horiz-adv-x="395" 
d="M255 720l-141 -128l18 -8l151 131zM433 718l-146 -126l18 -7l156 128z" />
    <glyph glyph-name="uni0326" unicode="&#x326;" horiz-adv-x="0" 
d="M57 -82l-77 -161h24l81 161h-28z" />
    <glyph glyph-name="pi" unicode="&#x3c0;" horiz-adv-x="591" 
d="M119 0l86 486h291l-61 -342q-8 -45 -6 -77.5t16 -63.5l3 -7l28 12l-4 8q-22 49 -9 127l60 343h85l4 25h-415q-89 0 -157 -38l-7 -4l7 -24l9 5q63 34 128 36l-85 -486h27z" />
    <glyph glyph-name="uni0401" unicode="&#x401;" horiz-adv-x="567" 
d="M122 346h356l3 28h-354l55 309h396l7 27h-428l-125 -710h442l5 27h-412zM491 796q8 0 15 6t9 14q1 8 -4 13.5t-13 5.5t-14.5 -5.5t-8.5 -13.5t3 -14t13 -6zM325 816q1 8 -4 13.5t-13 5.5t-14.5 -5.5t-7.5 -13.5q-2 -8 3 -14t13 -6t14.5 6t8.5 14z" />
    <glyph glyph-name="uni0410" unicode="&#x410;" horiz-adv-x="625" 
d="M-11 0l143 248h344l57 -248h31l-165 715h-28l-416 -715h34zM472 273h-326l234 402z" />
    <glyph glyph-name="uni0411" unicode="&#x411;" horiz-adv-x="624" 
d="M336 0q94 0 154.5 49t76.5 143q17 94 -27.5 146.5t-138.5 52.5h-271l52 292h419l7 27h-451l-125 -710h304zM125 363h271q81 0 118 -43.5t23 -124.5q-13 -81 -66 -124.5t-134 -43.5h-270z" />
    <glyph glyph-name="uni0412" unicode="&#x412;" horiz-adv-x="638" 
d="M32 0h308q93 0 151.5 46.5t75.5 137.5q14 72 -13.5 119.5t-88.5 61.5v1q116 33 138 166q15 85 -25.5 131.5t-128.5 46.5h-292zM401 349q78 0 114 -42t22 -118q-14 -79 -64 -120.5t-129 -41.5h-277l56 322h278zM182 683h261q78 0 110.5 -39t19.5 -114t-60.5 -114.5
t-123.5 -39.5h-262z" />
    <glyph glyph-name="uni0413" unicode="&#x413;" horiz-adv-x="513" 
d="M62 0l120 683h373l7 27h-405l-125 -710h30z" />
    <glyph glyph-name="uni0414" unicode="&#x414;" horiz-adv-x="694" 
d="M561 -153h29l31 180h-79l120 683h-409l-37 -209q-24 -136 -50 -228.5t-54 -140.5q-14 -24 -25 -40t-21.5 -27.5t-21.5 -20t-24 -17.5h-55l-31 -180h29l27 153h598zM244 501l33 182h351l-115 -656h-454q44 33 75 92.5t52.5 128t35 136.5t22.5 117z" />
    <glyph glyph-name="uni0415" unicode="&#x415;" horiz-adv-x="567" 
d="M157 710l-125 -710h442l5 27h-412l55 319h356l3 28h-354l55 309h396l7 27h-428z" />
    <glyph glyph-name="uni0416" unicode="&#x416;" horiz-adv-x="897" 
d="M446 374h-96q-29 0 -50 -3l-168 339h-34l174 -347q-76 -21 -132 -104l-176 -259h34l167 246q18 27 36.5 46t40 31t46.5 17.5t57 5.5h96l-60 -346h29l60 346h97q33 0 56.5 -5.5t40.5 -17.5t28.5 -31t20.5 -46l80 -246h33l-85 259q-29 83 -95 104l296 347h-36l-289 -339
q-18 3 -45 3h-96l59 336h-30z" />
    <glyph glyph-name="uni0417" unicode="&#x417;" horiz-adv-x="606" 
d="M91 550l-4 -10l26 -8l5 11q20 40 43.5 69t54.5 48t71 28t92 9q97 0 139.5 -44t27.5 -126q-6 -31 -19 -58.5t-34 -47.5t-49 -31.5t-63 -11.5h-204l-5 -27h206q75 0 108.5 -43.5t20.5 -116.5q-15 -85 -77.5 -131.5t-171.5 -46.5q-54 0 -92 9.5t-63.5 29t-38.5 50t-18 72.5
l-1 7l-29 -6l1 -9q9 -90 64 -135t174 -45q124 0 194 52.5t87 149.5q24 134 -91 178q54 16 86.5 59t42.5 100q17 94 -31.5 146.5t-159.5 52.5q-58 0 -103 -10.5t-80.5 -32t-62 -54.5t-46.5 -77z" />
    <glyph glyph-name="uni0418" unicode="&#x418;" horiz-adv-x="691" 
d="M158 710l-126 -710h27l579 657l-116 -657h30l125 710h-27l-581 -658l118 658h-29z" />
    <glyph glyph-name="uni0419" unicode="&#x419;" horiz-adv-x="691" 
d="M69 52l118 658h-29l-126 -710h27l579 657l-116 -657h30l125 710h-27zM294 886l1 -7q11 -114 130 -114q61 0 101 27t66 87l3 6l-21 8l-3 -7q-44 -98 -143 -98q-52 0 -78.5 23.5t-31.5 74.5v6z" />
    <glyph glyph-name="uni041A" unicode="&#x41a;" horiz-adv-x="593" 
d="M157 710l-125 -710h30l60 346h148q32 0 54 -5.5t38.5 -17.5t28 -31t20.5 -46l80 -246h32l-85 259q-15 46 -40.5 72t-71.5 35l315 344h-37l-307 -337q-5 1 -11.5 1h-16.5h-142l59 336h-29z" />
    <glyph glyph-name="uni041B" unicode="&#x41b;" horiz-adv-x="641" 
d="M-39 15l-13 -6l10 -25l14 7q24 11 40.5 20t29.5 19.5t25 25t28 36.5q33 47 59 138t51 236l38 217h350l-120 -683h29l125 710h-408l-43 -244q-23 -142 -50 -226t-50 -127q-18 -36 -49 -58.5t-66 -39.5z" />
    <glyph glyph-name="uni041C" unicode="&#x41c;" horiz-adv-x="794" 
d="M157 710l-125 -710h30l114 653l187 -481h24l354 480l-115 -652h29l124 710h-28l-371 -502l-197 502h-26z" />
    <glyph glyph-name="uni041D" unicode="&#x41d;" horiz-adv-x="679" 
d="M157 710l-125 -710h30l60 346h449l-60 -346h29l125 710h-29l-59 -336h-450l59 336h-29z" />
    <glyph glyph-name="uni041E" unicode="&#x41e;" horiz-adv-x="661" 
d="M52 234q-21 -115 37.5 -181.5t189.5 -66.5q129 0 207 62.5t98 177.5l44 250q21 115 -37 181.5t-187 66.5q-130 0 -209 -63t-99 -178zM281 13q-115 0 -166 57.5t-33 160.5l44 248q18 105 89 161.5t186 56.5t165.5 -57.5t32.5 -160.5l-44 -248q-18 -103 -89 -160.5
t-185 -57.5z" />
    <glyph glyph-name="uni041F" unicode="&#x41f;" horiz-adv-x="673" 
d="M157 710l-125 -710h30l120 683h442l-120 -683h30l124 710h-501z" />
    <glyph glyph-name="uni0420" unicode="&#x420;" horiz-adv-x="615" 
d="M62 0l49 283h249q102 0 168.5 53.5t85.5 153.5q10 50 2 90.5t-31 69.5t-61 44.5t-89 15.5h-278l-125 -710h30zM182 683h246q90 0 132 -49t25 -139q-16 -88 -75.5 -136.5t-147.5 -48.5h-246z" />
    <glyph glyph-name="uni0421" unicode="&#x421;" horiz-adv-x="632" 
d="M51 231q-20 -115 38.5 -180t187.5 -65q59 0 104 11t80 33.5t61 56.5t47 80l4 9l-26 9l-5 -11q-19 -41 -43.5 -71t-56 -49.5t-72 -29t-92.5 -9.5q-115 0 -165 57t-32 160l43 250q18 102 88 158.5t187 56.5q102 0 149 -37.5t56 -119.5l1 -9l27 8l-1 10q-9 89 -62.5 132
t-167.5 43q-130 0 -208 -64t-98 -179z" />
    <glyph glyph-name="uni0422" unicode="&#x422;" horiz-adv-x="522" 
d="M83 710l-5 -27h235l-120 -683h29l120 683h233l7 27h-499z" />
    <glyph glyph-name="uni0423" unicode="&#x423;" horiz-adv-x="574" 
d="M635 710l-490 -710h-34l139 200l-182 510h33l169 -481l332 481h33z" />
    <glyph glyph-name="uni0424" unicode="&#x424;" horiz-adv-x="820" 
d="M455 65q132 0 212.5 65t101.5 185l14 77q22 120 -36 189t-188 69h-72l16 85h-31l-14 -85h-72q-132 0 -212.5 -65t-101.5 -186l-14 -77q-22 -121 35.5 -189t188.5 -68h72l-14 -85h29l14 85h72zM554 623q120 0 170 -59t31 -167l-14 -79q-19 -108 -90.5 -167t-189.5 -59h-73
l94 531h72zM287 92q-118 0 -168.5 59t-32.5 167l14 79q19 108 90.5 167t189.5 59h72l-93 -531h-72z" />
    <glyph glyph-name="uni0425" unicode="&#x425;" horiz-adv-x="600" 
d="M293 361l-336 -361h39l311 336l196 -336h35l-208 359l325 351h-37l-303 -326l-188 326h-36z" />
    <glyph glyph-name="uni0426" unicode="&#x426;" horiz-adv-x="687" 
d="M157 710l-125 -710h549l-27 -153h29l31 180h-79l120 683h-29l-120 -683h-439l119 683h-29z" />
    <glyph glyph-name="uni0427" unicode="&#x427;" horiz-adv-x="618" 
d="M80 522q-22 -122 24.5 -185t178.5 -63q120 0 219 25l-52 -299h29l125 710h-30l-67 -383q-99 -25 -218 -25q-60 0 -99.5 13t-61 40t-25.5 68t6 97l33 190h-29z" />
    <glyph glyph-name="uni0428" unicode="&#x428;" horiz-adv-x="901" 
d="M157 710l-125 -710h730l125 710h-30l-120 -683h-320l120 683h-30l-120 -683h-320l119 683h-29z" />
    <glyph glyph-name="uni0429" unicode="&#x429;" horiz-adv-x="919" 
d="M157 710l-125 -710h782l-26 -153h29l31 180h-81l120 683h-30l-120 -683h-320l120 683h-30l-120 -683h-320l119 683h-29z" />
    <glyph glyph-name="uni042A" unicode="&#x42a;" horiz-adv-x="706" 
d="M125 0h279q101 0 168.5 55.5t84.5 155.5q9 50 0.5 89.5t-32.5 68t-62 43.5t-89 15h-246l52 283h-205l-5 -27h175zM224 400h246q90 0 131.5 -48.5t25.5 -136.5q-17 -90 -75.5 -139t-146.5 -49h-246z" />
    <glyph glyph-name="uni042B" unicode="&#x42b;" horiz-adv-x="830" 
d="M157 710l-125 -710h278q51 0 94 14.5t76 41.5t54.5 66.5t30.5 89.5t0.5 89.5t-32 67.5t-61.5 43t-88 15h-248l50 283h-29zM67 27l65 373h246q88 0 130.5 -48.5t26.5 -136.5q-17 -90 -76 -139t-147 -49h-245zM786 710l-125 -710h30l124 710h-29z" />
    <glyph glyph-name="uni042C" unicode="&#x42c;" horiz-adv-x="613" 
d="M310 0q51 0 94 14.5t76 41.5t54.5 66.5t30.5 89.5t0.5 89.5t-32 67.5t-61.5 43t-88 15h-248l50 283h-29l-125 -710h278zM378 400q88 0 130.5 -48.5t26.5 -136.5q-17 -90 -76 -139t-147 -49h-245l65 373h246z" />
    <glyph glyph-name="uni042D" unicode="&#x42d;" horiz-adv-x="634" 
d="M255 13q-104 0 -151.5 39.5t-56.5 123.5l-1 8l-29 -10l1 -9q9 -89 63.5 -134t171.5 -45q128 0 206 62.5t98 177.5l45 252q20 115 -36.5 180.5t-187.5 65.5q-57 0 -101.5 -10.5t-79.5 -32.5t-61.5 -54.5t-46.5 -77.5l-4 -9l26 -8l5 11q20 40 43.5 69t54.5 48t70.5 28
t90.5 9q117 0 166.5 -56t31.5 -159l-19 -109h-354l-4 -28h353l-21 -117q-18 -102 -88 -158.5t-185 -56.5z" />
    <glyph glyph-name="uni042E" unicode="&#x42e;" horiz-adv-x="910" 
d="M157 710l-125 -710h30l60 346h203l-20 -117q-20 -115 37 -179t186 -64t206 61.5t97 176.5l44 253q21 114 -36.5 180.5t-183.5 66.5q-129 0 -207 -63.5t-99 -178.5l-18 -108h-204l59 336h-29zM802 229q-19 -106 -87.5 -161t-183.5 -55t-165 56.5t-32 159.5l44 252
q18 103 88 159.5t185 56.5q114 0 163.5 -56.5t31.5 -159.5z" />
    <glyph glyph-name="uni042F" unicode="&#x42f;" horiz-adv-x="641" 
d="M160 220q34 54 75 77t105 23h187l-56 -320h30l124 710h-297q-94 0 -155 -48.5t-78 -142.5q-15 -87 24 -138t121 -57q-60 -22 -104 -91l-153 -233h35zM591 683l-59 -335h-266q-81 0 -118 43.5t-23 124.5t66.5 124t134.5 43h265z" />
    <glyph glyph-name="uni0430" unicode="&#x430;" horiz-adv-x="528" 
d="M189 -14q115 0 211 34l13 4l79 456l-37 17q-60 28 -154 28q-108 0 -165 -44t-73 -141l-27 -149q-17 -94 20 -149.5t133 -55.5zM89 338q16 86 65.5 124t143.5 38q80 0 137 -26l27 -12l-74 -418q-90 -33 -193 -33q-84 0 -115.5 47.5t-16.5 131.5z" />
    <glyph glyph-name="uni0431" unicode="&#x431;" horiz-adv-x="550" 
d="M447 707q63 0 96 16l9 4l-7 25l-8 -4q-28 -15 -86 -15h-38q-82 0 -137.5 -18t-92 -55.5t-57.5 -94t-35 -133.5l-45 -256q-16 -90 30.5 -140t151.5 -50q106 0 168 48t78 139l24 140q16 91 -30 141t-149 50q-36 0 -67.5 -8t-57 -21.5t-46 -30.5t-35.5 -35l5 26
q12 70 31 121t52 84.5t83 50t124 16.5h39zM447 175q-14 -78 -69 -121t-148 -43q-91 0 -131 43t-26 121l35 196q14 25 37 45t51 34t58.5 21.5t58.5 7.5q93 0 132.5 -43t25.5 -121z" />
    <glyph glyph-name="uni0432" unicode="&#x432;" horiz-adv-x="521" 
d="M213 -14q100 0 160.5 37.5t74.5 112.5q18 98 -76 131q87 27 100 109q13 72 -29 110.5t-141 38.5q-93 0 -156 -25l-48 -18l-80 -452l38 -17q62 -27 157 -27zM48 47l37 207h229q58 0 87 -31.5t19 -83.5q-11 -64 -64.5 -96.5t-141.5 -32.5q-76 0 -139 26zM89 277l34 185
l33 15q53 24 144 24q84 0 120 -32t25 -92q-9 -48 -45.5 -74t-85.5 -26h-225z" />
    <glyph glyph-name="uni0433" unicode="&#x433;" horiz-adv-x="490" 
d="M38 127q6 34 22.5 57t45.5 35t54.5 17t67.5 9t63.5 6.5t54.5 11.5t51 22t34.5 38t22.5 59q12 65 -27 104t-136 39q-145 0 -220 -118q-4 -9 2 -11l10 -5q7 -3 11 3q34 52 77.5 79.5t116.5 27.5q84 0 116.5 -30.5t22.5 -86.5q-6 -35 -22.5 -57.5t-48 -34t-56.5 -16
t-73 -8.5q-45 -4 -75 -10t-62 -20t-51.5 -41.5t-26.5 -68.5q-12 -68 30.5 -105t141.5 -37q82 0 139 29t95 96q3 8 -3 11l-10 4q-7 4 -10 -4q-61 -112 -208 -112q-87 0 -123 30t-26 87z" />
    <glyph glyph-name="uni0434" unicode="&#x434;" horiz-adv-x="547" 
d="M195 715q167 0 233 -60q41 -37 51 -99.5t-7 -158.5q-10 51 -55 79.5t-118 28.5q-103 0 -164 -47.5t-78 -137.5l-25 -145q-15 -90 30.5 -139.5t151.5 -49.5q103 0 165.5 48t77.5 138l41 229q34 199 -51 275q-39 35 -96.5 49.5t-150.5 14.5h-8l-5 -25h8zM84 318
q30 162 215 162q91 0 131 -42t26 -120l-26 -146q-14 -78 -68.5 -119.5t-145.5 -41.5t-131 41.5t-26 119.5z" />
    <glyph glyph-name="uni0435" unicode="&#x435;" horiz-adv-x="516" 
d="M203 -14q147 0 228 112l6 8l-21 13l-6 -8q-36 -49 -83.5 -75t-119.5 -26q-88 0 -125.5 43.5t-23.5 124.5l12 63q88 -20 186 -20q194 0 227 134q20 81 -27.5 125.5t-150.5 44.5q-100 0 -165.5 -53.5t-82.5 -150.5l-25 -140q-17 -91 26 -143t145 -52zM83 320
q15 85 72.5 133t145.5 48q91 0 132 -36.5t23 -105.5q-28 -115 -195 -115q-105 0 -188 21z" />
    <glyph glyph-name="uni0436" unicode="&#x436;" horiz-adv-x="736" 
d="M351 276h-101h-15.5t-10.5 -1l-128 236h-33l134 -241q-55 -14 -98 -77l-130 -193h31l121 181q26 37 53.5 53.5t70.5 16.5h101l-43 -251h27l43 251h102q43 0 65 -16.5t34 -53.5l59 -181h30l-64 195q-19 59 -69 72l218 244h-35l-210 -236q-5 1 -23 1h-101l40 235h-27z" />
    <glyph glyph-name="uni0437" unicode="&#x437;" horiz-adv-x="498" 
d="M198 -14q100 0 156.5 40t67.5 106q18 103 -69 131v1q88 29 103 116q6 33 -4 59.5t-33.5 45.5t-58 29.5t-78.5 10.5q-72 0 -130.5 -26.5t-91.5 -92.5l-4 -7l24 -11l11 21q14 26 34.5 43t45 28t52.5 15.5t55 4.5q38 0 67.5 -8.5t49.5 -24.5t29 -38t4 -49
q-19 -105 -142 -105h-124l-6 -24h126q69 0 96 -28.5t16 -86.5q-9 -57 -58 -91t-136 -34q-61 0 -94.5 19t-49.5 42.5t-19 43t-3 20.5v8l-30 -9l2 -11q2 -13 9 -31t25 -44q17 -27 58.5 -45t99.5 -18z" />
    <glyph glyph-name="uni0438" unicode="&#x438;" 
d="M47 178q-34 -192 157 -192q98 0 183 32l40 15l84 478h-27l-81 -462l-25 -9q-78 -29 -168 -29q-164 0 -136 168l59 332h-28z" />
    <glyph glyph-name="uni0439" unicode="&#x439;" 
d="M133 511h-28l-58 -333q-34 -192 157 -192q98 0 183 32l40 15l84 478h-27l-81 -462l-25 -9q-78 -29 -168 -29q-164 0 -136 168zM473 709l-3 -6q-43 -99 -144 -99q-52 0 -79 23.5t-31 74.5v6l-25 -7l1 -6q12 -114 133 -114q116 0 167 114l3 6z" />
    <glyph glyph-name="uni043A" unicode="&#x43a;" horiz-adv-x="509" 
d="M109 511l-89 -511h28l43 251h158q43 0 65 -16.5t34 -53.5l60 -181h30l-65 192q-21 67 -83 78l234 241h-35l-227 -235h-166l41 235h-28z" />
    <glyph glyph-name="uni043B" unicode="&#x43b;" horiz-adv-x="532" 
d="M-51 8l8 -24l6 2q6 2 8 3q16 6 28.5 11.5t23 12.5t21 17t22.5 25q25 29 46 85.5t42 146.5l46 198h264l-84 -485h27l89 511h-316l-53 -221q-14 -60 -27.5 -102t-27 -71t-27 -46.5t-27.5 -27.5q-11 -8 -17 -11l-14 -7z" />
    <glyph glyph-name="uni043C" unicode="&#x43c;" horiz-adv-x="633" 
d="M110 511l-90 -511h26l81 459l144 -366h22l268 362l-79 -455h26l91 511h-27l-285 -388l-153 388h-24z" />
    <glyph glyph-name="uni043D" unicode="&#x43d;" horiz-adv-x="555" 
d="M109 511l-89 -511h28l43 251h355l-43 -251h27l89 511h-27l-41 -235h-355l41 235h-28z" />
    <glyph glyph-name="uni043E" unicode="&#x43e;" horiz-adv-x="536" 
d="M31 157q-6 -39 4 -71t34 -54t61 -34t85 -12t88.5 11.5t71.5 33.5t51.5 53.5t27.5 70.5l35 199q13 79 -36.5 125t-146.5 46q-48 0 -89 -12t-72 -34t-51.5 -53.5t-27.5 -70.5zM217 11q-41 0 -73 10t-53 29t-29.5 45.5t-2.5 59.5l34 201q13 66 70.5 105t139.5 39
q42 0 74 -10t53 -29t29.5 -45.5t2.5 -59.5l-35 -201q-6 -33 -24 -59.5t-45.5 -45.5t-63 -29t-77.5 -10z" />
    <glyph glyph-name="uni043F" unicode="&#x43f;" horiz-adv-x="543" 
d="M101 478l-84 -478h28l79 460l26 10q75 30 168 30q165 0 136 -168l-58 -332h27l58 333q35 192 -157 192q-96 0 -183 -32z" />
    <glyph glyph-name="uni0440" unicode="&#x440;" horiz-adv-x="531" 
d="M6 -220l44 254q86 -48 180 -48q189 0 224 191l26 149q34 199 -170 199q-45 0 -86.5 -7t-78.5 -21l-43 -16l-123 -701h27zM156 474q66 26 148 26q179 0 149 -174l-26 -148q-30 -167 -194 -167q-98 0 -178 51l71 400z" />
    <glyph glyph-name="uni0441" unicode="&#x441;" horiz-adv-x="510" 
d="M33 181q-16 -91 29 -143t147 -52q167 0 234 147l4 9l-26 6l-3 -7q-30 -67 -79 -98.5t-127 -31.5q-88 0 -127 44t-25 122l28 158q14 78 68 121.5t142 43.5q78 0 114.5 -30t45.5 -93l1 -6l25 6l-1 9q-9 67 -50.5 103t-130.5 36q-103 0 -164 -48.5t-77 -139.5z" />
    <glyph glyph-name="uni0442" unicode="&#x442;" horiz-adv-x="808" 
d="M125 461l26 12q59 27 130 27q78 0 108 -38.5t16 -120.5l-60 -341h27l60 343q12 70 -7 110q77 47 175 47q76 0 104.5 -38.5t14.5 -120.5l-60 -341h28l60 342q32 183 -140 183q-92 0 -194 -50q-33 50 -126 50q-77 0 -146 -29l-40 -17l-84 -479h28z" />
    <glyph glyph-name="uni0443" unicode="&#x443;" horiz-adv-x="547" 
d="M105 511l-57 -329q-34 -193 157 -193q83 0 194 38l-12 -69q-34 -189 -213 -189q-66 0 -100 26.5t-50 77.5l-2 7l-27 -12l3 -8q38 -117 172 -117q207 0 244 216l97 552h-27l-81 -458q-103 -39 -192 -39q-88 0 -119.5 41.5t-16.5 126.5l57 329h-27z" />
    <glyph glyph-name="uni0444" unicode="&#x444;" horiz-adv-x="735" 
d="M262 -220h28l37 212q45 -5 88 -6q209 0 244 194l25 145q36 200 -174 200q-43 -1 -91 -6l39 221h-27l-39 -221q-58 6 -90 6q-35 0 -73.5 -8t-73 -30t-61 -61.5t-38.5 -102.5l-23 -136q-11 -60 0.5 -102t40.5 -62q29 -21 61 -29t72 -8q45 1 93 6zM415 494q26 2 48.5 3.5
t41.5 1.5q27 0 58 -5t55.5 -22.5t37 -51.5t1.5 -93l-25 -143q-30 -172 -213 -172q-20 0 -42 1.5t-46 3.5zM212 12q-33 0 -58.5 5.5t-53.5 21.5t-39 52.5t-1 93.5l23 134q10 56 34.5 91.5t55.5 55t64.5 26.5t60.5 7q20 0 42.5 -1.5t47.5 -3.5l-84 -477q-26 -2 -49 -3.5
t-43 -1.5z" />
    <glyph glyph-name="uni0445" unicode="&#x445;" horiz-adv-x="466" 
d="M-41 0h33l232 243l148 -243h30l-160 262l240 249h-34l-219 -229l-141 229h-30l152 -248z" />
    <glyph glyph-name="uni0446" unicode="&#x446;" horiz-adv-x="564" 
d="M47 178q-16 -93 22.5 -142.5t135.5 -49.5q30 0 63 4.5t70 12.5q36 8 57.5 13t28.5 6q4 1 11 1q24 0 32.5 -14t4.5 -37l-19 -111h26l19 113q6 42 -13.5 59.5t-55.5 12.5l82 465h-27l-82 -468q-13 -3 -32.5 -8t-43.5 -10.5t-50.5 -9.5t-53.5 -4h-11q-166 0 -137 167l59 333
h-28z" />
    <glyph glyph-name="uni0447" unicode="&#x447;" horiz-adv-x="498" 
d="M47 369q-14 -89 26 -130.5t142 -41.5q89 0 170 27l-39 -224h27l89 511h-27l-46 -261q-108 -27 -167 -27q-93 0 -127.5 33.5t-20.5 111.5l25 143h-27z" />
    <glyph glyph-name="uni0448" unicode="&#x448;" horiz-adv-x="802" 
d="M133 511h-28l-59 -339q-33 -186 139 -186q98 0 189 48q36 -48 125 -48q79 0 148 29l39 17l83 479h-27l-81 -461l-26 -12q-57 -27 -130 -27q-76 0 -107 37.5t-17 118.5l61 344h-27l-60 -343q-13 -68 7 -113q-85 -44 -170 -44q-76 0 -104.5 38.5t-14.5 120.5z" />
    <glyph glyph-name="uni0449" unicode="&#x449;" horiz-adv-x="821" 
d="M742 511l-83 -468q-30 -7 -66.5 -19.5t-76.5 -12.5h-11q-76 0 -107 37.5t-17 118.5l61 344h-27l-60 -343q-13 -68 7 -113q-85 -44 -170 -44q-76 0 -104.5 38.5t-14.5 120.5l60 341h-28l-59 -339q-33 -186 139 -186q98 0 189 48q36 -48 125 -48q43 0 106 17q31 8 50.5 13
t27.5 6q4 1 12 1q24 0 32 -14t4 -37l-19 -111h26l19 113q6 37 -9.5 55.5t-45.5 18.5q-10 0 -15 -1l82 464h-27z" />
    <glyph glyph-name="uni044A" unicode="&#x44a;" horiz-adv-x="597" 
d="M114 30l37 -16q62 -28 156 -28q105 0 162 43.5t73 137.5q16 85 -26.5 132.5t-133.5 47.5q-93 0 -192 -37l35 201h-183l-4 -25h157zM186 284q98 39 192 39q78 0 114.5 -40t22.5 -113q-15 -82 -64 -120.5t-142 -38.5q-81 0 -138 26l-26 12z" />
    <glyph glyph-name="uni044B" unicode="&#x44b;" horiz-adv-x="677" 
d="M98 310l36 201h-28l-84 -480l39 -17q60 -28 154 -28q105 0 162 43.5t73 137.5q16 85 -26.5 132.5t-133.5 47.5q-90 0 -192 -37zM94 284q98 39 191 39q78 0 114.5 -40t23.5 -113q-14 -82 -63.5 -120.5t-142.5 -38.5q-81 0 -138 26l-26 12zM551 0l89 511h-27l-89 -511h27z
" />
    <glyph glyph-name="uni044C" unicode="&#x44c;" horiz-adv-x="506" 
d="M22 31l39 -17q60 -28 154 -28q105 0 162 43.5t73 137.5q16 85 -26.5 132.5t-133.5 47.5q-90 0 -192 -37l36 201h-28zM53 49l41 235q98 39 191 39q78 0 114.5 -40t23.5 -113q-14 -82 -63.5 -120.5t-142.5 -38.5q-81 0 -138 26z" />
    <glyph glyph-name="uni044D" unicode="&#x44d;" horiz-adv-x="508" 
d="M195 11q-76 0 -114 31.5t-45 98.5l-1 9l-28 -9l1 -8q8 -75 51.5 -111t131.5 -36q102 0 163 48.5t77 139.5l28 156q16 91 -28.5 143t-147.5 52q-89 0 -142 -34t-85 -103l-4 -8l25 -10l3 7q16 33 34.5 56t42.5 38t54.5 22t69.5 7q90 0 128 -43.5t24 -121.5l-11 -60h-254
l-6 -26h256l-13 -72q-14 -78 -68 -122t-142 -44z" />
    <glyph glyph-name="uni044E" unicode="&#x44e;" horiz-adv-x="735" 
d="M109 511l-89 -511h28l42 246h164l-16 -92q-6 -39 3.5 -70t32.5 -53t59 -33.5t83 -11.5q97 0 159.5 42.5t75.5 120.5l37 204q13 79 -34.5 125.5t-143.5 46.5q-47 0 -87 -11.5t-71 -33t-51 -52.5t-26 -70l-16 -86h-164l42 239h-28zM625 153q-12 -66 -67.5 -104t-137.5 -38
q-81 0 -124 37t-31 103l36 206q6 33 23.5 59t44.5 45t62 29t75 10q82 0 124.5 -38t30.5 -104z" />
    <glyph glyph-name="uni044F" unicode="&#x44f;" horiz-adv-x="509" 
d="M16 0l174 200h201l-35 -200h28l88 511h-228q-75 0 -124.5 -40t-62.5 -113q-11 -66 17.5 -107.5t85.5 -47.5l-177 -203h33zM85 354q11 63 52 97.5t104 34.5h201l-47 -262h-204q-60 0 -88.5 34.5t-17.5 95.5z" />
    <glyph glyph-name="uni0451" unicode="&#x451;" horiz-adv-x="516" 
d="M483 355q20 81 -27.5 125.5t-150.5 44.5q-100 0 -165.5 -53.5t-82.5 -150.5l-25 -140q-17 -91 26 -143t145 -52q147 0 228 112l6 8l-21 13l-6 -8q-36 -49 -83.5 -75t-119.5 -26q-88 0 -125.5 43.5t-23.5 124.5l12 63q88 -20 186 -20q194 0 227 134zM456 359
q-28 -115 -195 -115q-105 0 -188 21l10 55q15 85 72.5 133t145.5 48q91 0 132 -36.5t23 -105.5zM403 651q-2 -8 3 -14t13 -6t15 6t9 14t-3.5 13.5t-13.5 5.5t-14.5 -5.5t-8.5 -13.5zM253 651q1 8 -3.5 13.5t-12.5 5.5t-15 -5.5t-8 -13.5q-2 -8 3 -14t13 -6t14.5 6t8.5 14z
" />
    <glyph glyph-name="Wgrave" unicode="&#x1e80;" horiz-adv-x="862" 
d="M125 710h-31l69 -710h31l298 644l70 -644h31l320 710h-32l-296 -657l-69 639h-31l-297 -642zM446 890l-20 -20l177 -111l15 15z" />
    <glyph glyph-name="wgrave" unicode="&#x1e81;" horiz-adv-x="725" 
d="M86 511h-27l72 -516h25l234 458l70 -458h26l255 516h-29l-232 -472l-71 454h-25l-233 -452zM350 718l-18 -18l170 -117l15 14z" />
    <glyph glyph-name="Wacute" unicode="&#x1e82;" horiz-adv-x="862" 
d="M94 710l69 -710h31l298 644l70 -644h31l320 710h-32l-296 -657l-69 639h-31l-297 -642l-63 660h-31zM414 778l11 -16l214 117l-15 20z" />
    <glyph glyph-name="wacute" unicode="&#x1e83;" horiz-adv-x="725" 
d="M59 511l72 -516h25l234 458l70 -458h26l255 516h-29l-232 -472l-71 454h-25l-233 -452l-65 470h-27zM313 598l12 -18l213 118l-14 20z" />
    <glyph glyph-name="Wdieresis" unicode="&#x1e84;" horiz-adv-x="862" 
d="M194 0l298 644l70 -644h31l320 710h-32l-296 -657l-69 639h-31l-297 -642l-63 660h-31l69 -710h31zM616 806q8 0 14.5 6t8.5 14t-3 13.5t-13 5.5t-15 -5.5t-9 -13.5t3.5 -14t13.5 -6zM434 845q-8 0 -15 -5.5t-9 -13.5t3 -14t13 -6t14.5 6t8.5 14t-2.5 13.5t-12.5 5.5z
" />
    <glyph glyph-name="wdieresis" unicode="&#x1e85;" horiz-adv-x="725" 
d="M409 493h-25l-233 -452l-65 470h-27l72 -516h25l234 458l70 -458h26l255 516h-29l-232 -472zM499 646q-2 -10 1 -13t14 -3h5q16 0 20 16l1 7q3 16 -14 16h-5q-18 0 -21 -16zM349 646l1 7q2 10 -0.5 13t-12.5 3h-6q-18 0 -19 -16l-2 -7q-1 -9 2 -12.5t12 -3.5h6
q10 0 13.5 3t5.5 13z" />
    <glyph glyph-name="Ygrave" unicode="&#x1ef2;" horiz-adv-x="610" 
d="M238 0h29l51 294l356 416h-38l-327 -385l-191 385h-36l207 -415zM476 759l15 15l-172 117l-18 -22z" />
    <glyph glyph-name="ygrave" unicode="&#x1ef3;" horiz-adv-x="547" 
d="M484 511l-81 -458q-103 -39 -192 -39q-88 0 -119.5 41.5t-16.5 126.5l57 329h-27l-57 -329q-34 -193 157 -193q83 0 194 38l-12 -69q-34 -189 -213 -189q-66 0 -100 26.5t-50 77.5l-2 7l-27 -12l3 -8q38 -117 172 -117q207 0 244 216l97 552h-27zM410 583l14 14l-166 121
l-18 -18z" />
    <glyph glyph-name="endash" unicode="&#x2013;" horiz-adv-x="581" 
d="M60 281l-4 -27h452l4 27h-452z" />
    <glyph glyph-name="emdash" unicode="&#x2014;" horiz-adv-x="781" 
d="M61 281l-5 -27h652l5 27h-652z" />
    <glyph glyph-name="quoteleft" unicode="&#x2018;" horiz-adv-x="178" 
d="M182 710l-84 -168h32l72 168h-20z" />
    <glyph glyph-name="quoteright" unicode="&#x2019;" horiz-adv-x="175" 
d="M172 710l-72 -168h20l86 168h-34z" />
    <glyph glyph-name="quotesinglbase" unicode="&#x201a;" horiz-adv-x="138" 
d="M30 110l-41 -219h24l47 219h-30z" />
    <glyph glyph-name="quotedblleft" unicode="&#x201c;" horiz-adv-x="273" 
d="M191 542h34l72 168h-20zM182 710l-84 -168h32l72 168h-20z" />
    <glyph glyph-name="quotedblright" unicode="&#x201d;" horiz-adv-x="270" 
d="M172 710l-72 -168h20l86 168h-34zM195 542h20l85 168h-33z" />
    <glyph glyph-name="quotedblbase" unicode="&#x201e;" horiz-adv-x="241" 
d="M48 -121h20l84 167h-34zM23 46l-70 -167h20l84 167h-34z" />
    <glyph glyph-name="dagger" unicode="&#x2020;" horiz-adv-x="540" 
d="M57 430h221l-93 -530h28l93 530h220l4 28h-218l44 252h-29l-44 -252h-222z" />
    <glyph glyph-name="daggerdbl" unicode="&#x2021;" horiz-adv-x="592" 
d="M89 458l-4 -28h220l-44 -252h-222l-4 -28h221l-44 -250h29l44 250h219l4 28h-219l45 252h220l4 28h-219l44 252h-28l-44 -252h-222z" />
    <glyph glyph-name="bullet" unicode="&#x2022;" horiz-adv-x="254" 
d="M85 263q-2 -15 7 -25.5t23 -10.5q15 0 27 10.5t14 25.5t-7 25.5t-24 10.5q-14 0 -26 -10.5t-14 -25.5z" />
    <glyph glyph-name="ellipsis" unicode="&#x2026;" horiz-adv-x="524" 
d="M198 18q-2 -9 3 -15.5t14 -6.5q10 0 17.5 6.5t9.5 15.5t-3.5 15.5t-14.5 6.5t-16.5 -6.5t-9.5 -15.5zM10 18q-2 -9 3 -15.5t15 -6.5q9 0 16.5 6.5t9.5 15.5t-3.5 15.5t-14.5 6.5t-16.5 -6.5t-9.5 -15.5zM386 18q-2 -9 3 -15.5t14 -6.5t16.5 6.5t9.5 15.5t-3.5 15.5
t-14.5 6.5t-16 -6.5t-9 -15.5z" />
    <glyph glyph-name="perthousand" unicode="&#x2030;" horiz-adv-x="1172" 
d="M748 205q12 69 -19.5 107.5t-106.5 38.5q-73 0 -119.5 -38.5t-58.5 -107.5l-13 -75q-12 -69 20.5 -107t105.5 -38q75 0 120.5 38t57.5 107zM803 130q-12 -69 20.5 -107t105.5 -38q75 0 120.5 38t57.5 107l13 75q12 69 -19.5 107.5t-106.5 38.5q-73 0 -119.5 -38.5
t-58.5 -107.5zM75 504q-12 -69 20.5 -107t105.5 -38t119.5 38t58.5 107l13 75q12 69 -20.5 107.5t-105.5 38.5t-119.5 -38.5t-58.5 -107.5zM934 9q-61 0 -88.5 32t-17.5 90l13 73q11 58 49 90.5t99 32.5q63 0 90 -32.5t16 -90.5l-12 -73q-10 -57 -49 -89.5t-100 -32.5z
M711 131q-10 -57 -49 -89.5t-100 -32.5t-88.5 32t-17.5 90l13 73q11 58 49 90.5t99 32.5q63 0 90 -32.5t16 -90.5zM206 383q-63 0 -90 32t-16 90l13 73q11 58 49 90.5t99 32.5q63 0 90 -32.5t16 -90.5l-13 -73q-11 -58 -49 -90t-99 -32zM752 710h-33l-647 -710h33z" />
    <glyph glyph-name="guilsinglleft" unicode="&#x2039;" horiz-adv-x="323" 
d="M68 261l237 201l-16 20l-256 -220l178 -217l22 17z" />
    <glyph glyph-name="guilsinglright" unicode="&#x203a;" horiz-adv-x="325" 
d="M23 44l257 219l-180 219l-23 -15l165 -201l-235 -200z" />
    <glyph glyph-name="fraction" unicode="&#x2044;" horiz-adv-x="130" 
d="M320 710l-523 -710h32l523 710h-32z" />
    <glyph glyph-name="uni2070" unicode="&#x2070;" horiz-adv-x="368" 
d="M84 540q-11 -63 20.5 -99t98.5 -36q66 0 109 34t55 95l25 149q11 61 -20 98t-97 37q-69 0 -111.5 -34.5t-53.5 -94.5zM207 429q-57 0 -82.5 28.5t-16.5 79.5l26 149q9 51 44.5 80t92.5 29q55 0 80.5 -30t16.5 -79l-25 -149q-9 -51 -45 -79.5t-91 -28.5z" />
    <glyph glyph-name="uni2074" unicode="&#x2074;" horiz-adv-x="344" 
d="M64 551l-3 -20h215l-21 -118h24l21 118h65l3 22h-64l44 257h-26zM279 553h-184l224 225z" />
    <glyph glyph-name="uni2075" unicode="&#x2075;" horiz-adv-x="344" 
d="M67 525l1 -10q11 -110 127 -110q69 0 107.5 34t47.5 88q10 57 -19.5 89t-101.5 32h-93l38 139h208l4 23h-231l-50 -185h121q117 0 100 -96q-7 -43 -40 -71.5t-88 -28.5q-102 0 -105 94v7z" />
    <glyph glyph-name="uni2076" unicode="&#x2076;" horiz-adv-x="366" 
d="M130 665q11 63 48 96.5t97 33.5q45 0 68.5 -18t31.5 -44l2 -6l23 9l-2 6q-21 76 -119 76q-147 0 -173 -150l-18 -106q-27 -157 115 -157q147 0 170 119q19 118 -112 118q-68 0 -140 -29zM116 588q66 31 138 31q57 0 79.5 -24t14.5 -69q-18 -98 -141 -98q-119 0 -95 130z
" />
    <glyph glyph-name="uni2077" unicode="&#x2077;" horiz-adv-x="298" 
d="M341 787l-226 -374h26l231 382l2 15h-268l-4 -23h239z" />
    <glyph glyph-name="uni2078" unicode="&#x2078;" horiz-adv-x="368" 
d="M73 512q-9 -51 25.5 -79t104.5 -28q147 0 167 113q13 71 -76 94q34 11 62.5 35.5t35.5 66.5q8 48 -23 76t-94 28t-104 -27t-50 -78q-13 -73 59 -97q-93 -29 -107 -104zM207 427q-58 0 -86.5 21t-21.5 63q14 75 118 94q39 -6 65 -12.5t41 -16.5t19.5 -24t1.5 -34
q-16 -91 -137 -91zM259 621q-72 10 -97 29.5t-17 59.5q7 42 40 64.5t87 22.5q52 0 77 -22.5t18 -59.5q-12 -70 -108 -94z" />
    <glyph glyph-name="uni2079" unicode="&#x2079;" horiz-adv-x="366" 
d="M104 702q-9 -57 18 -88.5t94 -31.5q61 0 139 29l-9 -53q-24 -130 -145 -130q-82 0 -100 64l-2 6l-22 -12l1 -5q21 -76 119 -76q148 0 173 150l18 106q27 157 -115 157q-148 0 -169 -116zM128 698q18 97 142 97q116 0 94 -130l-4 -29q-61 -31 -138 -31q-55 0 -78 24
t-16 69z" />
    <glyph glyph-name="uni2080" unicode="&#x2080;" horiz-adv-x="367" 
d="M-10 7q-11 -63 20.5 -99t98.5 -36q66 0 109 34t55 95l25 149q11 61 -20 98t-97 37q-69 0 -111.5 -34.5t-53.5 -94.5zM113 -104q-57 0 -82.5 28.5t-16.5 79.5l26 149q9 51 44.5 80t92.5 29q55 0 80.5 -30t16.5 -79l-25 -149q-9 -51 -45 -79.5t-91 -28.5z" />
    <glyph glyph-name="uni2081" unicode="&#x2081;" horiz-adv-x="258" 
d="M100 -119h24l69 397h-18l-181 -93l6 -20l164 81z" />
    <glyph glyph-name="uni2082" unicode="&#x2082;" horiz-adv-x="344" 
d="M172 263q51 0 73.5 -25.5t15.5 -67.5q-3 -20 -13 -34t-23.5 -24t-30 -16.5t-33.5 -12.5q-10 -3 -16 -5t-8 -3l-67 -23q-80 -29 -96 -115l-10 -56h269l3 23h-244l7 38q10 67 77 90l67 23q23 6 50.5 17.5t47.5 23.5q17 12 28.5 29.5t16.5 43.5q9 52 -19.5 84.5t-91.5 32.5
q-38 0 -65 -13t-45 -30t-29 -35t-16 -28l-6 -15l21 -8q12 24 23.5 43.5t27 33.5t36.5 21.5t50 7.5z" />
    <glyph glyph-name="uni2083" unicode="&#x2083;" horiz-adv-x="356" 
d="M15 173l-3 -8l21 -8l4 9q44 98 144 98q45 0 66.5 -24.5t14.5 -66.5q-7 -33 -27.5 -55.5t-54.5 -22.5h-85l-3 -23h86q34 0 51 -25t10 -61q-8 -40 -40 -65t-84 -25q-55 0 -80 22t-31 73l-1 9l-24 -7l1 -9q6 -57 37 -84t95 -27q66 0 104.5 30t47.5 81q12 72 -46 100
q56 23 67 89q8 51 -18 82t-83 31q-63 0 -103 -26.5t-66 -86.5z" />
    <glyph glyph-name="uni2084" unicode="&#x2084;" horiz-adv-x="344" 
d="M-30 19l-3 -20h215l-21 -118h24l21 118h65l3 22h-64l44 257h-26zM185 21h-184l224 225z" />
    <glyph glyph-name="uni2085" unicode="&#x2085;" horiz-adv-x="344" 
d="M-27 -8l1 -9q10 -110 127 -110q69 0 107.5 34t47.5 88q10 57 -19.5 89t-101.5 32h-93l38 139h208l4 23h-231l-50 -185h121q117 0 100 -96q-7 -43 -40 -71.5t-88 -28.5q-102 0 -105 94v7z" />
    <glyph glyph-name="uni2086" unicode="&#x2086;" horiz-adv-x="366" 
d="M36 132q11 63 48 96.5t97 33.5q45 0 68.5 -18t31.5 -44l2 -6l23 9l-2 6q-21 76 -119 76q-147 0 -173 -150l-18 -106q-27 -157 115 -157q147 0 170 119q19 118 -112 118q-68 0 -140 -29zM22 55q66 31 138 31q57 0 79.5 -24t14.5 -69q-18 -98 -141 -98q-119 0 -95 130z" />
    <glyph glyph-name="uni2087" unicode="&#x2087;" horiz-adv-x="298" 
d="M247 255l-226 -374h26l231 382l2 15h-268l-4 -23h239z" />
    <glyph glyph-name="uni2088" unicode="&#x2088;" horiz-adv-x="367" 
d="M-21 -21q-9 -51 25.5 -79t104.5 -28q147 0 167 113q13 71 -76 94q34 11 62.5 35.5t35.5 66.5q8 48 -23 76t-94 28t-104 -27t-50 -78q-13 -73 59 -97q-93 -29 -107 -104zM113 -106q-58 0 -87 21t-21 63q14 75 118 94q39 -6 65 -12.5t41 -16.5t19.5 -24t1.5 -34
q-16 -91 -137 -91zM165 88q-72 10 -97 29.5t-17 59.5q7 42 40 64.5t87 22.5q52 0 77 -22.5t18 -59.5q-12 -70 -108 -94z" />
    <glyph glyph-name="uni2089" unicode="&#x2089;" horiz-adv-x="365" 
d="M10 170q-9 -57 18 -88.5t94 -31.5q61 0 139 29l-9 -53q-24 -130 -145 -130q-82 0 -100 64l-2 6l-23 -12l2 -5q21 -76 119 -76q148 0 173 150l18 106q27 157 -115 157q-148 0 -169 -116zM34 166q18 97 142 97q116 0 94 -130l-4 -29q-61 -31 -138 -31q-55 0 -78 24t-16 69z
" />
    <glyph glyph-name="Euro" unicode="&#x20ac;" horiz-adv-x="721" 
d="M180 287l22 126h356l14 24h-366l9 48q18 100 87.5 156.5t184.5 56.5q88 0 134 -27.5t62 -81.5l2 -8l28 9l-3 10q-20 63 -70.5 94t-146.5 31q-130 0 -209 -62.5t-100 -177.5l-8 -48h-76l-14 -24h86l-22 -126h-112l-12 -24h119l-6 -37q-20 -115 37.5 -178t185.5 -63
q189 0 270 133l6 10l-25 12l-5 -8q-73 -120 -241 -120q-114 0 -164.5 56.5t-33.5 156.5l6 38h314l12 24h-321z" />
    <glyph glyph-name="uni20BD" unicode="&#x20bd;" horiz-adv-x="632" 
d="M78 0l27 158h390l7 24h-393l21 121h249q102 0 168.5 51t84.5 148q16 97 -32.5 152.5t-148.5 55.5h-278l-93 -528h-62l-7 -24h64l-27 -158h30zM135 330l63 353h246q88 0 130.5 -46.5t27.5 -131.5q-15 -84 -73.5 -129.5t-146.5 -45.5h-247z" />
    <glyph glyph-name="uni2113" unicode="&#x2113;" horiz-adv-x="420" 
d="M319 55l-8 -5.5t-21.5 -12t-32 -12t-39.5 -5.5q-62 0 -80 33.5t-5 105.5l17 92q257 173 285 331q14 76 -14.5 113t-85.5 37t-99 -38t-56 -119l-55 -309q-28 -19 -56 -37t-57 -36l-6 -3l9 -26l7 4l13 8.5t29.5 19t32.5 21t23 14.5l-14 -77q-15 -82 8.5 -121t98.5 -39
q55 0 119 41l6 4l-14 21zM409 582q-24 -136 -254 -294l52 287q11 69 45 100.5t79 31.5t67 -30.5t11 -94.5z" />
    <glyph glyph-name="uni2116" unicode="&#x2116;" horiz-adv-x="1033" 
d="M899 725q-75 0 -120 -36.5t-57 -105.5l-13 -74q-12 -70 19 -110t106 -40t120.5 37t57.5 106l13 74q12 69 -20.5 109t-105.5 40zM745 578q11 58 49.5 90.5t99.5 32.5t89 -33t17 -90l-13 -73q-11 -58 -49.5 -90t-99.5 -32t-88.5 32.5t-16.5 89.5zM508 0h28l124 710h-29
l-116 -656l-345 656h-25l-125 -710h30l115 655zM668 282l-6 -26h308l3 26h-305z" />
    <glyph glyph-name="uni2117" unicode="&#x2117;" horiz-adv-x="815" 
d="M355 -8q77 0 147 28t126.5 77t95.5 114t52 140q27 149 -59 255q-86 104 -236 104q-76 0 -147 -28t-128 -76.5t-96 -114t-52 -140.5q-26 -149 61 -254q86 -105 236 -105zM358 13q-143 0 -223 98q-80 99 -55 240q12 71 48.5 133t89.5 107.5t119.5 71.5t139.5 26
q143 0 222 -97q80 -99 55 -241q-12 -71 -48.5 -132.5t-89.5 -107.5t-119.5 -72t-138.5 -26zM280 147l23 127h128q66 0 110.5 35t55.5 99q11 66 -20.5 101.5t-97.5 35.5h-152l-69 -398h22zM573 409q-9 -54 -45.5 -83.5t-93.5 -29.5h-127l40 228h127q55 0 82 -30t17 -85z" />
    <glyph glyph-name="trademark" unicode="&#x2122;" horiz-adv-x="620" 
d="M547 443h21l44 252h-17l-141 -169l-80 169h-17l-44 -252h20l37 212l73 -153h14l127 150zM184 443l41 232h101l3 20h-223l-3 -20h101l-41 -232h21z" />
    <glyph glyph-name="Omega" unicode="&#x2126;" horiz-adv-x="738" 
d="M650 627q-70 97 -206 97q-74 0 -136.5 -28t-110 -75t-78.5 -110t-43 -132q-20 -115 15.5 -204.5t120.5 -146.5h-211l-4 -28h259l5 22l-6 4q-193 118 -151 351q11 63 39.5 121t71.5 102t100 70t125 26q125 0 188 -89q62 -91 37 -230q-22 -121 -94.5 -210t-181.5 -141
l-4 -2l-6 -24h261l4 28h-209q102 54 170 143t89 207q27 151 -44 249z" />
    <glyph glyph-name="estimated" unicode="&#x212e;" horiz-adv-x="825" 
d="M57 355q-27 -152 62 -261q88 -109 242 -109q60 0 117 17.5t107 49t91.5 75t70.5 94.5l7 12h-53l-7 -11q-27 -42 -63.5 -76.5t-79 -59t-88.5 -38t-93 -13.5q-108 0 -187 70l39 222h569l6 28q27 152 -62 262q-90 108 -243 108q-78 0 -150.5 -29.5t-131.5 -79.5t-99 -117.5
t-54 -143.5zM272 610q100 70 212 70q110 0 187 -71l-41 -233h-399z" />
    <glyph glyph-name="onethird" unicode="&#x2153;" horiz-adv-x="905" 
d="M681 15q-55 0 -80 22.5t-31 73.5l-1 8l-24 -7l1 -9q6 -57 37 -84t95 -27q66 0 104.5 30t47.5 81q12 72 -46 100q56 23 67 89q8 51 -18 82t-83 31q-63 0 -103 -26.5t-66 -86.5l-3 -8l21 -8l4 9q44 98 144 98q45 0 66.5 -24.5t14.5 -66.5q-7 -33 -27.5 -55.5t-54.5 -22.5
h-85l-3 -23h86q34 0 51 -25t10 -61q-8 -40 -40 -65t-84 -25zM720 710h-33l-522 -710h33zM86 626l6 -20l164 81l-64 -365h24l69 397h-18z" />
    <glyph glyph-name="twothirds" unicode="&#x2154;" horiz-adv-x="911" 
d="M580 111l-1 8l-24 -7l1 -9q6 -57 37 -84t95 -27q66 0 104.5 30t47.5 81q12 72 -46 100q56 23 67 89q8 51 -18 82t-83 31q-63 0 -103 -26.5t-66 -86.5l-3 -8l21 -8l4 9q44 98 144 98q45 0 66.5 -24.5t14.5 -66.5q-7 -33 -27.5 -55.5t-54.5 -22.5h-85l-3 -23h86
q34 0 51 -25t10 -61q-8 -40 -40 -65t-84 -25q-55 0 -80 22.5t-31 73.5zM224 516l-67 -23q-80 -29 -96 -115l-10 -56h269l3 23h-244l7 38q10 67 77 90l67 23q23 6 50.5 17.5t47.5 23.5q17 12 28.5 29.5t16.5 43.5q9 52 -19.5 84.5t-91.5 32.5q-38 0 -65 -13t-45 -30t-29 -35
t-16 -28l-6 -15l21 -8q12 24 23.5 43.5t27 33.5t36.5 21.5t50 7.5q51 0 73.5 -25.5t15.5 -67.5q-3 -20 -13 -34t-23.5 -24t-30 -16.5t-33.5 -12.5q-10 -3 -16 -5t-8 -3zM207 0h33l523 710h-33z" />
    <glyph glyph-name="oneeighth" unicode="&#x215b;" horiz-adv-x="889" 
d="M517 98q-9 -51 25.5 -79t104.5 -28q147 0 167 113q13 71 -76 94q34 11 62.5 35.5t35.5 66.5q8 48 -23 76t-94 28t-104 -27t-50 -78q-13 -73 59 -97q-93 -29 -107 -104zM788 104q-16 -91 -137 -91q-58 0 -86.5 21t-21.5 63q14 75 118 94q39 -6 65 -12.5t41 -16.5t19.5 -24
t1.5 -34zM703 207q-72 10 -97 29.5t-17 59.5q7 42 40 64.5t87 22.5q52 0 77 -22.5t18 -59.5q-12 -70 -108 -94zM705 710h-33l-523 -710h33zM192 322h24l69 397h-18l-181 -93l6 -20l164 81z" />
    <glyph glyph-name="threeeighths" unicode="&#x215c;" horiz-adv-x="932" 
d="M672 203q-93 -29 -107 -104q-9 -51 25.5 -79t104.5 -28q147 0 167 113q13 71 -76 94q34 11 62.5 35.5t35.5 66.5q8 48 -23 76t-94 28t-104 -27t-50 -78q-13 -73 59 -97zM591 98q14 75 118 94q39 -6 65 -12.5t41 -16.5t19.5 -24t1.5 -34q-16 -91 -137 -91q-58 0 -86.5 21
t-21.5 63zM751 208q-72 10 -97 29.5t-17 59.5q7 42 40 64.5t87 22.5q52 0 77 -22.5t18 -59.5q-12 -70 -108 -94zM176 513h86q34 0 51 -25t10 -61q-8 -40 -40 -65t-84 -25q-55 0 -80 22.5t-31 73.5l-1 8l-24 -7l1 -9q6 -57 37 -84t95 -27q66 0 104.5 30t47.5 81
q12 72 -46 100q56 23 67 89q8 51 -18 82t-83 31q-63 0 -103 -26.5t-66 -86.5l-3 -8l21 -8l4 9q44 98 144 98q45 0 66.5 -24.5t14.5 -66.5q-7 -33 -27.5 -55.5t-54.5 -22.5h-85zM757 710h-33l-523 -710h33z" />
    <glyph glyph-name="fiveeighths" unicode="&#x215d;" horiz-adv-x="909" 
d="M647 202q-93 -29 -107 -104q-9 -51 25.5 -79t104.5 -28q147 0 167 113q13 71 -76 94q34 11 62.5 35.5t35.5 66.5q8 48 -23 76t-94 28t-104 -27t-50 -78q-13 -73 59 -97zM674 13q-58 0 -86.5 21t-21.5 63q14 75 118 94q39 -6 65 -12.5t41 -16.5t19.5 -24t1.5 -34
q-16 -91 -137 -91zM739 383q52 0 77 -22.5t18 -59.5q-12 -70 -108 -94q-72 10 -97 29.5t-17 59.5q7 42 40 64.5t87 22.5zM56 423q11 -110 127 -110q69 0 107.5 34t47.5 88q10 57 -19.5 89t-101.5 32h-93l38 139h208l4 23h-231l-50 -185h121q117 0 100 -96q-7 -43 -40 -71.5
t-88 -28.5q-102 0 -105 94v7l-26 -5zM734 710h-33l-523 -710h33z" />
    <glyph glyph-name="seveneighths" unicode="&#x215e;" horiz-adv-x="891" 
d="M516 98q-9 -51 25.5 -79t104.5 -28q147 0 167 113q13 71 -76 94q34 11 62.5 35.5t35.5 66.5q8 48 -23 76t-94 28t-104 -27t-50 -78q-13 -73 59 -97q-93 -29 -107 -104zM787 104q-16 -91 -137 -91q-58 0 -86.5 21t-21.5 63q14 75 118 94q39 -6 65 -12.5t41 -16.5t19.5 -24
t1.5 -34zM702 207q-72 10 -97 29.5t-17 59.5q7 42 40 64.5t87 22.5q52 0 77 -22.5t18 -59.5q-12 -70 -108 -94zM681 710h-33l-522 -710h32zM139 322l231 382l2 15h-268l-4 -23h239l-226 -374h26z" />
    <glyph glyph-name="arrowleft" unicode="&#x2190;" horiz-adv-x="745" 
d="M338 599l-311 -265l218 -265l21 18l-192 235h629l4 24h-630l276 236z" />
    <glyph glyph-name="arrowup" unicode="&#x2191;" horiz-adv-x="745" 
d="M126 409l15 -17l276 234l-111 -630h25l111 630l193 -234l22 16l-219 267z" />
    <glyph glyph-name="arrowright" unicode="&#x2192;" horiz-adv-x="745" 
d="M54 346l-4 -24h630l-275 -236l14 -17l313 265l-219 265l-22 -17l193 -236h-630z" />
    <glyph glyph-name="arrowdown" unicode="&#x2193;" horiz-adv-x="745" 
d="M99 257l219 -265l311 265l-14 18l-276 -234l111 630h-25l-111 -630l-194 235z" />
    <glyph glyph-name="uni2196" unicode="&#x2196;" horiz-adv-x="745" 
d="M604 550l-526 -447l14 -17l526 446l-58 -332h24l66 374h-373l-6 -24h333z" />
    <glyph glyph-name="uni2197" unicode="&#x2197;" horiz-adv-x="745" 
d="M128 200h24l59 332l367 -446l21 17l-367 447h331l6 24h-375z" />
    <glyph glyph-name="uni2198" unicode="&#x2198;" horiz-adv-x="745" 
d="M158 559l369 -447h-333l-3 -25h373l66 374h-24l-59 -332l-367 447z" />
    <glyph glyph-name="uni2199" unicode="&#x2199;" horiz-adv-x="745" 
d="M105 87h375l3 25h-332l527 447l-16 17l-525 -447l58 332h-24z" />
    <glyph glyph-name="partialdiff" unicode="&#x2202;" horiz-adv-x="547" 
d="M31 177q-15 -91 30.5 -141.5t150.5 -50.5q103 0 166.5 49t78.5 137l41 229q15 87 7.5 151t-41 106t-94 62.5t-151.5 20.5h-8l-5 -25h8q85 0 141 -18t86.5 -56.5t37 -97.5t-6.5 -141q-28 103 -172 103q-103 0 -165 -47.5t-78 -135.5zM299 480q91 0 131 -42t26 -120
l-26 -146q-14 -78 -68 -120t-145 -42t-131.5 42t-26.5 120l25 146q14 78 69 120t146 42z" />
    <glyph glyph-name="Delta" unicode="&#x2206;" horiz-adv-x="608" 
d="M527 0l3 25l-134 685h-32l-376 -684l-6 -26h545zM499 26h-480l357 656z" />
    <glyph glyph-name="product" unicode="&#x220f;" horiz-adv-x="669" 
d="M191 683l-138 -783h30l137 783h367l-138 -783h29l138 783h85l7 27h-600l-7 -27h90z" />
    <glyph glyph-name="summation" unicode="&#x2211;" horiz-adv-x="560" 
d="M-31 -77l-4 -23h475l5 27h-439l293 383l-160 373h434l6 27h-470l-3 -27l162 -371z" />
    <glyph glyph-name="minus" unicode="&#x2212;" horiz-adv-x="609" 
d="M74 339l-5 -27h472l5 27h-472z" />
    <glyph glyph-name="uni2215" unicode="&#x2215;" horiz-adv-x="568" 
d="M600 710l-647 -710h35l646 710h-34z" />
    <glyph glyph-name="uni2219" unicode="&#x2219;" horiz-adv-x="177" 
d="M52 211q-2 -9 3 -15.5t14 -6.5t17 6.5t10 15.5t-3.5 15.5t-14.5 6.5t-16.5 -6.5t-9.5 -15.5z" />
    <glyph glyph-name="radical" unicode="&#x221a;" horiz-adv-x="666" 
d="M50 413h156l88 -519h29l411 856h-30l-389 -817l-83 507h-179z" />
    <glyph glyph-name="infinity" unicode="&#x221e;" horiz-adv-x="720" 
d="M361 312q-6 22 -17 43.5t-28 38.5t-40 27.5t-53 10.5q-31 0 -59.5 -10.5t-51 -30t-38 -46.5t-21.5 -60q-5 -30 1.5 -57t22.5 -46.5t40 -31t54 -11.5q106 0 181 118q5 -15 14.5 -35.5t26 -39t41.5 -31t60 -12.5q30 0 58 10.5t50.5 29.5t38 45t20.5 57q6 33 -0.5 60.5
t-22.5 47.5t-41 31.5t-57 11.5q-30 0 -56 -10t-48.5 -26.5t-41 -38t-33.5 -45.5zM635 283q-4 -25 -17 -46.5t-31.5 -37.5t-41.5 -25t-47 -9q-34 0 -57 13t-37 31t-21 37t-11 30l-2 8l4 6q5 11 18.5 30t34.5 38.5t49 33.5t61 14q53 0 80.5 -34.5t17.5 -88.5zM339 278
q-6 -9 -19.5 -28t-34 -38t-48.5 -33t-63 -14q-24 0 -44 9t-32.5 25t-17.5 37.5t-1 46.5q10 54 48.5 88.5t92.5 34.5q28 0 48.5 -10t34.5 -26.5t23.5 -38.5t16.5 -46z" />
    <glyph glyph-name="integral" unicode="&#x222b;" horiz-adv-x="370" 
d="M-76 -220h6q96 0 144 41.5t63 129.5l109 616q13 75 53 111t121 36h8l5 26h-8q-95 0 -143.5 -42t-63.5 -130l-109 -615q-13 -75 -52.5 -111t-120.5 -36h-9z" />
    <glyph glyph-name="approxequal" unicode="&#x2248;" horiz-adv-x="563" 
d="M300 410q26 -12 48.5 -17.5t42.5 -5.5q37 0 67 13.5t58 36.5l7 5l-14 19l-7 -5q-55 -43 -106 -43q-34 0 -90 24q-51 22 -92 22q-36 0 -67 -14t-59 -35l-8 -6l19 -19l7 5q52 43 104 43q33 0 90 -23zM276 253q-55 23 -93 23q-35 0 -66 -14t-59 -35l-8 -6l19 -19l6 5
q53 43 105 43q35 0 89 -24q51 -22 92 -22q36 0 66.5 13t58.5 36l7 6l-14 19l-7 -5q-55 -43 -106 -43q-35 0 -90 23z" />
    <glyph glyph-name="notequal" unicode="&#x2260;" horiz-adv-x="624" 
d="M101 439l-5 -27h265l-117 -171h-179l-4 -26h164l-100 -146h24l100 146h284l4 26h-271l119 171h183l5 27h-171l99 144h-23l-98 -144h-279z" />
    <glyph glyph-name="lessequal" unicode="&#x2264;" horiz-adv-x="591" 
d="M110 409l373 -186l6 30l-343 167l401 168l6 30l-440 -185zM53 96h408l5 27h-407z" />
    <glyph glyph-name="greaterequal" unicode="&#x2265;" horiz-adv-x="583" 
d="M83 223l438 186l6 24l-375 185l-6 -29l342 -166l-402 -169zM65 124l-5 -27h406l6 27h-407z" />
    <glyph glyph-name="lozenge" unicode="&#x25ca;" horiz-adv-x="511" 
d="M191 0h22l273 354l-147 356h-24l-272 -355zM321 680l133 -325l-247 -324l-132 324z" />
    <glyph glyph-name="zero.denom" horiz-adv-x="367" 
d="M11 126q-11 -63 20.5 -99t98.5 -36q66 0 109 34t55 95l25 149q11 61 -20 98t-97 37q-69 0 -111.5 -34.5t-53.5 -94.5zM134 15q-57 0 -82.5 28.5t-16.5 79.5l26 149q9 51 44.5 80t92.5 29q55 0 80.5 -30t16.5 -79l-25 -149q-9 -51 -45 -79.5t-91 -28.5z" />
    <glyph glyph-name="one.denom" horiz-adv-x="258" 
d="M121 0h24l69 397h-18l-181 -93l6 -20l164 81z" />
    <glyph glyph-name="two.denom" horiz-adv-x="343" 
d="M193 382q51 0 73.5 -25.5t15.5 -67.5q-3 -20 -13 -34t-23.5 -24t-30 -16.5t-33.5 -12.5q-10 -3 -16 -5t-8 -3l-67 -23q-80 -29 -96 -115l-10 -56h269l3 23h-244l7 38q10 67 77 90l67 23q23 6 50.5 17.5t47.5 23.5q17 12 28.5 29.5t16.5 43.5q9 52 -19.5 84.5t-91.5 32.5
q-38 0 -65 -13t-45 -30t-29 -35t-16 -28l-6 -15l21 -8q12 24 23.5 43.5t27 33.5t36.5 21.5t50 7.5z" />
    <glyph glyph-name="three.denom" horiz-adv-x="356" 
d="M36 292l-3 -8l21 -8l4 9q44 98 144 98q45 0 66.5 -24.5t14.5 -66.5q-7 -33 -27.5 -55.5t-54.5 -22.5h-85l-3 -23h86q34 0 51 -25t10 -61q-8 -40 -40 -65t-84 -25q-55 0 -80 22.5t-31 73.5l-1 8l-24 -7l1 -9q6 -57 37 -84t95 -27q66 0 104.5 30t47.5 81q12 72 -46 100
q56 23 67 89q8 51 -18 82t-83 31q-63 0 -103 -26.5t-66 -86.5z" />
    <glyph glyph-name="four.denom" horiz-adv-x="344" 
d="M-9 138l-3 -20h215l-21 -118h24l21 118h65l3 22h-64l44 257h-26zM206 140h-184l224 225z" />
    <glyph glyph-name="five.denom" horiz-adv-x="344" 
d="M-6 112l1 -10q11 -110 127 -110q69 0 107.5 34t47.5 88q10 57 -19.5 89t-101.5 32h-93l38 139h208l4 23h-231l-50 -185h121q117 0 100 -96q-7 -43 -40 -71.5t-88 -28.5q-102 0 -105 94v7z" />
    <glyph glyph-name="six.denom" horiz-adv-x="365" 
d="M57 251q11 63 48 96.5t97 33.5q45 0 68.5 -18t31.5 -44l2 -6l23 9l-2 6q-21 76 -119 76q-147 0 -173 -150l-18 -106q-27 -157 115 -157q147 0 170 119q19 118 -112 118q-68 0 -140 -29zM43 174q66 31 138 31q57 0 79.5 -24t14.5 -69q-18 -98 -141 -98q-119 0 -95 130z
" />
    <glyph glyph-name="seven.denom" horiz-adv-x="297" 
d="M267 374l-226 -374h26l231 382l2 15h-268l-4 -23h239z" />
    <glyph glyph-name="eight.denom" horiz-adv-x="367" 
d="M0 99q-9 -51 25.5 -79t104.5 -28q147 0 167 113q13 71 -76 94q34 11 62.5 35.5t35.5 66.5q8 48 -23 76t-94 28t-104 -27t-50 -78q-13 -73 59 -97q-93 -29 -107 -104zM134 14q-58 0 -86.5 21t-21.5 63q14 75 118 94q39 -6 65 -12.5t41 -16.5t19.5 -24t1.5 -34
q-16 -91 -137 -91zM186 208q-72 10 -97 29.5t-17 59.5q7 42 40 64.5t87 22.5q52 0 77 -22.5t18 -59.5q-12 -70 -108 -94z" />
    <glyph glyph-name="nine.denom" horiz-adv-x="365" 
d="M31 288q-9 -57 18 -88.5t94 -31.5q61 0 139 29l-9 -53q-24 -130 -145 -130q-82 0 -100 64l-2 6l-22 -12l1 -5q21 -76 119 -76q148 0 173 150l18 106q27 157 -115 157q-148 0 -169 -116zM55 284q18 97 142 97q116 0 94 -130l-4 -29q-61 -31 -138 -31q-55 0 -78 24t-16 69z
" />
    <glyph glyph-name="zero.num" horiz-adv-x="368" 
d="M68 448q-11 -63 20.5 -99t98.5 -36q66 0 109 34t55 95l25 149q11 61 -20 98t-97 37q-69 0 -111.5 -34.5t-53.5 -94.5zM191 337q-57 0 -82.5 28.5t-16.5 79.5l26 149q9 51 44.5 80t92.5 29q55 0 80.5 -30t16.5 -79l-25 -149q-9 -51 -45 -79.5t-91 -28.5z" />
    <glyph glyph-name="one.num" horiz-adv-x="258" 
d="M178 322h24l69 397h-18l-181 -93l6 -20l164 81z" />
    <glyph glyph-name="two.num" horiz-adv-x="343" 
d="M250 704q51 0 73.5 -25.5t15.5 -67.5q-3 -20 -13 -34t-23.5 -24t-30 -16.5t-33.5 -12.5q-10 -3 -16 -5t-8 -3l-67 -23q-80 -29 -96 -115l-10 -56h269l3 23h-244l7 38q10 67 77 90l67 23q23 6 50.5 17.5t47.5 23.5q17 12 28.5 29.5t16.5 43.5q9 52 -19.5 84.5t-91.5 32.5
q-38 0 -65 -13t-45 -30t-29 -35t-16 -28l-6 -15l21 -8q12 24 23.5 43.5t27 33.5t36.5 21.5t50 7.5z" />
    <glyph glyph-name="three.num" horiz-adv-x="356" 
d="M93 613l-3 -8l21 -8l4 9q44 98 144 98q45 0 66.5 -24.5t14.5 -66.5q-7 -33 -27.5 -55.5t-54.5 -22.5h-85l-3 -23h86q34 0 51 -25t10 -61q-8 -40 -40 -65t-84 -25q-55 0 -80 22.5t-31 73.5l-1 8l-24 -7l1 -9q6 -57 37 -84t95 -27q66 0 104.5 30t47.5 81q12 72 -46 100
q56 23 67 89q8 51 -18 82t-83 31q-63 0 -103 -26.5t-66 -86.5z" />
    <glyph glyph-name="four.num" horiz-adv-x="344" 
d="M49 460l-3 -20h215l-21 -118h24l21 118h65l3 22h-64l44 257h-26zM264 462h-184l224 225z" />
    <glyph glyph-name="five.num" horiz-adv-x="344" 
d="M50 433l1 -10q11 -110 127 -110q69 0 107.5 34t47.5 88q10 57 -19.5 89t-101.5 32h-93l38 139h208l4 23h-231l-50 -185h121q117 0 100 -96q-7 -43 -40 -71.5t-88 -28.5q-102 0 -105 94v7z" />
    <glyph glyph-name="six.num" horiz-adv-x="365" 
d="M113 573q11 63 48 96.5t97 33.5q45 0 68.5 -18t31.5 -44l2 -6l23 9l-2 6q-21 76 -119 76q-147 0 -173 -150l-18 -106q-27 -157 115 -157q147 0 170 119q19 118 -112 118q-68 0 -140 -29zM99 496q66 31 138 31q57 0 79.5 -24t14.5 -69q-18 -98 -141 -98q-119 0 -95 130z
" />
    <glyph glyph-name="seven.num" horiz-adv-x="297" 
d="M324 696l-226 -374h26l231 382l2 15h-268l-4 -23h239z" />
    <glyph glyph-name="eight.num" horiz-adv-x="368" 
d="M57 420q-9 -51 25.5 -79t104.5 -28q147 0 167 113q13 71 -76 94q34 11 62.5 35.5t35.5 66.5q8 48 -23 76t-94 28t-104 -27t-50 -78q-13 -73 59 -97q-93 -29 -107 -104zM191 335q-58 0 -86.5 21t-21.5 63q14 75 118 94q39 -6 65 -12.5t41 -16.5t19.5 -24t1.5 -34
q-16 -91 -137 -91zM243 529q-72 10 -97 29.5t-17 59.5q7 42 40 64.5t87 22.5q52 0 77 -22.5t18 -59.5q-12 -70 -108 -94z" />
    <glyph glyph-name="nine.num" horiz-adv-x="366" 
d="M88 610q-9 -57 18 -88.5t94 -31.5q61 0 139 29l-9 -53q-24 -130 -145 -130q-82 0 -100 64l-2 6l-22 -12l1 -5q21 -76 119 -76q148 0 173 150l18 106q27 157 -115 157q-148 0 -169 -116zM112 606q18 97 142 97q116 0 94 -130l-4 -29q-61 -31 -138 -31q-55 0 -78 24t-16 69
z" />
    <glyph glyph-name="nonmarkingreturn" horiz-adv-x="322" 
 />
    <glyph glyph-name="acute.case" horiz-adv-x="257" 
d="M332 900l-211 -122l10 -16l213 116z" />
    <glyph glyph-name="breve.case" horiz-adv-x="287" 
d="M123 892l-25 -6l1 -7q11 -114 131 -114q116 0 167 114l3 6l-22 8l-3 -7q-44 -98 -143 -98q-51 0 -78 23.5t-31 74.5v6z" />
    <glyph glyph-name="caron.case" horiz-adv-x="332" 
d="M247 766h19l180 130h-34l-154 -108l-113 108h-33z" />
    <glyph glyph-name="cedilla.case" horiz-adv-x="251" 
d="M-50 -217l6 -5q31 -24 82 -24q49 0 82 23.5t41 68.5q6 34 -13 53t-61 19q-18 0 -36 -5l46 87h-20l-61 -112l16 6q17 6 41 6q73 0 64 -53q-6 -34 -32 -53.5t-65 -19.5q-50 0 -82 29l-5 5z" />
    <glyph glyph-name="circumflex.case" horiz-adv-x="364" 
d="M304 895h-18l-182 -130h36l153 108l114 -108h31z" />
    <glyph glyph-name="dieresis.case" horiz-adv-x="439" 
d="M391 826q-1 -8 4 -14t13 -6t14.5 6t7.5 14q2 8 -3 13.5t-13 5.5t-14.5 -5.5t-8.5 -13.5zM202 826q-1 -8 4 -14t13 -6t14.5 6t7.5 14q2 8 -3 13.5t-13 5.5t-14.5 -5.5t-8.5 -13.5z" />
    <glyph glyph-name="dotaccent.case" horiz-adv-x="216" 
d="M189 822q-2 -8 3 -14t13 -6t14.5 6t8.5 14t-3 13.5t-13 5.5t-14.5 -5.5t-8.5 -13.5z" />
    <glyph glyph-name="grave.case" horiz-adv-x="257" 
d="M149 890l-20 -20l176 -111l15 15z" />
    <glyph glyph-name="hungarumlaut.case" horiz-adv-x="395" 
d="M287 897l-144 -130l22 -5l148 129zM463 897l-143 -130l18 -7l151 131z" />
    <glyph glyph-name="macron.case" horiz-adv-x="352" 
d="M148 833l-3 -22h252l6 22h-255z" />
    <glyph glyph-name="ogonek.case" horiz-adv-x="252" 
d="M115 0q-37 -24 -65.5 -51t-47 -54t-26 -52t-3.5 -46q6 -45 59 -45q49 0 92 36l5 4l-4 21l-5 -5q-35 -32 -76 -32q-37 0 -44 34q-3 18 5.5 40.5t27 48t46 51.5t61.5 50h-25z" />
    <glyph glyph-name="ring.case" horiz-adv-x="240" 
d="M130 846q-7 -43 15 -67q21 -25 65 -25q43 0 72 24.5t37 67.5t-13 67.5t-64 24.5q-45 0 -75 -24.5t-37 -67.5zM213 772q-36 0 -53.5 20t-11.5 54t30.5 54t60.5 20q35 0 51.5 -19.5t10.5 -54.5q-5 -34 -29 -54t-59 -20z" />
    <glyph glyph-name="tilde.case" horiz-adv-x="305" 
d="M91 781l-1 -6h21l1 6q5 31 23 50t43 19q24 0 40 -11.5t31 -26t32.5 -26t44.5 -11.5q70 0 88 89l1 7h-21l-1 -6q-6 -31 -22.5 -50.5t-42.5 -19.5q-29 0 -70 38t-78 38q-35 0 -58 -24t-31 -66z" />
    <glyph glyph-name="uni0326.alt" horiz-adv-x="0" 
d="M220 744l-90 -161h29l86 161h-25z" />
    <glyph glyph-name="_375" horiz-adv-x="664" 
d="M556 0l3 25l-134 685h-32l-376 -684l-6 -26h545zM528 26h-480l357 656z" />
    <glyph glyph-name="_376" horiz-adv-x="744" 
d="M265 26q-194 119 -152 352q11 62 40 117.5t72.5 97.5t100 66.5t122.5 24.5t114 -25t77 -67.5t38 -98t-3 -115.5q-22 -123 -94.5 -211.5t-181.5 -140.5l-4 -2l-6 -24h261l4 27h-210q102 54 170.5 144t89.5 208q25 138 -43 235q-69 96 -208 96q-72 0 -133.5 -26t-109.5 -71
t-80 -105.5t-44 -128.5q-20 -115 15 -205t122 -147h-212l-4 -27h259l5 23z" />
    </font>
</defs>
</svg>
