<?xml version="1.0" standalone="no"?>
<!DOCTYPE svg PUBLIC "-//W3C//DTD SVG 1.1//EN" "http://www.w3.org/Graphics/SVG/1.1/DTD/svg11.dtd" >
<svg xmlns="http://www.w3.org/2000/svg" xmlns:xlink="http://www.w3.org/1999/xlink" version="1.1">
<metadata>
Created by FontForge 20170731 at Fri Sep 20 14:20:30 2019
 By Aleksey,,,
Moh'd M. Khatib.2019
</metadata>
<defs>
<font id="Sahar-HeavyItalic" horiz-adv-x="557" >
  <font-face 
    font-family="Sahar Heavy Italic"
    font-weight="900"
    font-style="italic"
    font-stretch="normal"
    units-per-em="1000"
    panose-1="0 0 0 0 0 0 0 0 0 0"
    ascent="800"
    descent="-200"
    x-height="520"
    cap-height="710"
    bbox="-594 -1149 1316.22 1013"
    underline-thickness="50"
    underline-position="-250"
    unicode-range="U+0020-FB02"
  />
<missing-glyph horiz-adv-x="686" 
d="M649 710h-607v-710h607v710zM417 510v-309h-143v309h143z" />
    <glyph glyph-name="fi" unicode="fi" horiz-adv-x="628" 
d="M542 0l91 520h-298l1 4q8 47 53 47h253l30 169h-275q-236 0 -279 -205l-3 -14l-62 -1l-30 -169h62l-62 -351h220l62 351h79l-62 -351h220z" />
    <glyph glyph-name="fl" unicode="fl" horiz-adv-x="638" 
d="M682 740h-285q-236 0 -279 -205l-3 -14l-62 -1l-30 -169h62l-62 -351h220l62 351h64l30 169h-64l1 4q8 47 53 47h44l-101 -571h220z" />
    <glyph glyph-name=".notdef" horiz-adv-x="686" 
d="M649 710h-607v-710h607v710zM417 510v-309h-143v309h143z" />
    <glyph glyph-name=".null" horiz-adv-x="600" 
 />
    <glyph glyph-name="glyph2" horiz-adv-x="333" 
 />
    <glyph glyph-name="space" unicode=" " horiz-adv-x="160" 
 />
    <glyph glyph-name="exclam" unicode="!" horiz-adv-x="303" 
d="M117 738l-68 -496h185l110 496h-227zM-4 99q-4 -22 2 -41.5t19.5 -34t33.5 -23t45 -8.5t48.5 8.5t42.5 23t31.5 34t16.5 41.5t-2 41t-19.5 33.5t-33.5 23t-45 8.5t-48.5 -8.5t-42.5 -23t-31.5 -33.5t-16.5 -41z" />
    <glyph glyph-name="quotedbl" unicode="&#x22;" horiz-adv-x="436" 
d="M260 446h151l81 264h-187zM103 710l-45 -264h151l81 264h-187z" />
    <glyph glyph-name="numbersign" unicode="#" horiz-adv-x="799" 
d="M528 673h-193l-55 -115h-91l-84 -176h92l-45 -93h-91l-85 -177h92l-53 -112h193l53 112h76l-53 -112h193l53 112h90l85 177h-91l45 93h90l84 176h-91l55 115h-193l-55 -115h-76zM390 382h76l-45 -93h-76z" />
    <glyph glyph-name="dollar" unicode="$" horiz-adv-x="644" 
d="M310 264q37 -6 55.5 -14.5t15.5 -25.5q-4 -19 -22.5 -25.5t-60.5 -6.5q-38 0 -56 9t-26 28l-4 9l-213 -71l3 -14q19 -108 167 -131l-10 -65h209l12 68q100 17 156.5 61t70.5 126q24 139 -67 189q-24 13 -43 21t-37 13t-38.5 9t-49.5 8q-45 7 -64.5 15.5t-16.5 27.5
q6 32 72 32q32 0 47.5 -8t23.5 -31l5 -16l203 82l-5 15q-17 51 -49 79.5t-92 39.5l12 67h-210l-12 -68q-97 -17 -151.5 -60t-68.5 -124q-24 -140 86 -196q46 -24 158 -43z" />
    <glyph glyph-name="percent" unicode="%" horiz-adv-x="958" 
d="M927 710h-231l-646 -710h232zM540 146q-14 -76 26.5 -118t130.5 -42t144 42t68 118l14 78q13 76 -26.5 119t-129.5 43t-145 -43t-68 -119zM54 485q-14 -75 26 -117.5t130 -42.5t144.5 42.5t68.5 117.5l13 78q14 76 -25.5 119t-129.5 43t-145 -43t-69 -119zM704 213
q5 29 39 29q33 0 28 -29l-10 -55q-5 -29 -38 -29q-34 0 -29 29zM236 468q-35 0 -29 29l9 55q6 29 40 29q33 0 27 -29l-9 -55q-6 -29 -38 -29z" />
    <glyph glyph-name="ampersand" unicode="&#x26;" horiz-adv-x="709" 
d="M437 361q104 62 122 170q15 82 -36 139q-51 55 -139 55q-54 0 -97.5 -14t-75.5 -39.5t-52 -61t-28 -77.5q-6 -33 -1.5 -71t17.5 -64q-129 -68 -150 -189q-9 -52 1 -94t37 -70.5t69.5 -44t97.5 -15.5q114 0 206 59l34 -44h249l-127 170l87 74l-113 132l-78 -67l-34 46z
M307 180q-31 -21 -62 -21q-25 0 -37 13.5t-8 36.5q6 37 44 55zM323 536q6 29 32 29q28 0 23 -29q-8 -30 -38 -49l-7 -4q-16 25 -10 53z" />
    <glyph glyph-name="quotesingle" unicode="'" horiz-adv-x="234" 
d="M58 446h151l81 264h-187z" />
    <glyph glyph-name="parenleft" unicode="(" horiz-adv-x="330" 
d="M3 126q-19 -108 9 -174t100 -102l31 -15l137 206l-35 20q-21 12 -26.5 31t0.5 50l75 427q6 32 17.5 50t37.5 31l42 20l-65 207l-36 -16q-85 -37 -136 -102.5t-70 -173.5z" />
    <glyph glyph-name="parenright" unicode=")" horiz-adv-x="330" 
d="M-6 57l-35 -18l64 -205l37 16q85 36 135.5 102t69.5 174l81 459q19 108 -8.5 174t-99.5 102l-31 16l-137 -207l35 -20q21 -12 26 -31t-1 -50l-75 -427q-5 -32 -16.5 -49.5t-35.5 -30.5l-2 -1q-5 -1 -7 -4z" />
    <glyph glyph-name="asterisk" unicode="*" horiz-adv-x="346" 
d="M107 634l-53 -102l94 -16l-80 -68l74 -64l60 85l28 -82l99 59l-57 70l101 16l-19 101l-93 -44l32 95h-107v-95z" />
    <glyph glyph-name="plus" unicode="+" horiz-adv-x="564" 
d="M44 422l-34 -189h165l-29 -166h189l30 166h165l34 189h-166l29 165h-189l-29 -165h-165z" />
    <glyph glyph-name="comma" unicode="," horiz-adv-x="276" 
d="M31 206l-101 -338h163l164 338h-226z" />
    <glyph glyph-name="hyphen" unicode="-" horiz-adv-x="397" 
d="M45 362l-34 -195h328l34 195h-328z" />
    <glyph glyph-name="period" unicode="." horiz-adv-x="274" 
d="M215 104q4 23 -1 43.5t-17.5 35.5t-31 24t-41.5 9t-45 -9t-40 -24t-30.5 -35.5t-16.5 -43.5t1 -43.5t17.5 -36t31 -24.5t41.5 -9t45 9t40 24.5t30.5 36t16.5 43.5z" />
    <glyph glyph-name="slash" unicode="/" horiz-adv-x="523" 
d="M588 710h-222l-423 -770h223z" />
    <glyph glyph-name="zero" unicode="0" horiz-adv-x="655" 
d="M26 268q-11 -63 1 -115.5t44 -89.5t84 -57.5t121 -20.5q141 0 228 67t109 193l35 199q11 63 -0.5 115t-43 88.5t-82.5 57t-120 20.5q-142 0 -230.5 -66.5t-110.5 -191.5zM308 186q-30 0 -44.5 14.5t-9.5 41.5l40 226q4 27 24 41.5t50 14.5q61 0 53 -56l-40 -226
q-11 -56 -73 -56z" />
    <glyph glyph-name="one" unicode="1" horiz-adv-x="454" 
d="M115 0h232l126 710h-139l-308 -160l71 -186l91 47z" />
    <glyph glyph-name="two" unicode="2" horiz-adv-x="621" 
d="M296 386q-4 -2 -12 -5t-22 -8t-22 -8.5t-11 -5.5q-2 -1 -5 -2t-7 -3q-40 -16 -76.5 -34t-65.5 -42.5t-49 -57.5t-29 -79l-25 -141h556l34 190h-316v3q2 9 21.5 16t63.5 17q59 14 108.5 31t87.5 46.5t64 74t38 111.5q9 51 -3 94.5t-43 75t-79.5 49t-112.5 17.5
q-213 0 -316 -181l-23 -40l198 -79q7 10 13 19q5 8 9.5 14t5.5 8q22 33 38.5 45.5t38.5 12.5q48 0 39 -45q-8 -38 -36.5 -58.5t-61.5 -34.5z" />
    <glyph glyph-name="three" unicode="3" horiz-adv-x="632" 
d="M311 263q24 0 34 -9t6 -32q-7 -42 -65 -42t-68 58l-4 20l-218 -73l4 -19q36 -181 278 -181q274 0 312 218q19 114 -70 169q87 51 103 139q9 46 -2 85.5t-39.5 68t-73.5 44.5t-105 16q-58 0 -109 -9t-94 -31t-78 -58t-62 -90l189 -72q1 2 2.5 4.5t3.5 4.5q2 3 4 7
q17 30 35 39.5t49 9.5q27 0 37 -8.5t6 -29.5q-8 -38 -56 -38h-57l-34 -191h72z" />
    <glyph glyph-name="four" unicode="4" horiz-adv-x="669" 
d="M294 0h221l24 133h88l31 170h-89l72 407h-210l-418 -402l-31 -175h336zM370 431l-22 -128h-109z" />
    <glyph glyph-name="five" unicode="5" horiz-adv-x="624" 
d="M-15 182l7 -32q18 -87 85.5 -126t194.5 -39q66 0 120 17.5t94.5 50t67 77.5t35.5 100q9 56 1 101t-36 76.5t-76 49t-118 17.5h-47l10 37h283l36 200h-489l-115 -414h258q36 0 48 -12.5t7 -39.5q-9 -55 -64 -55q-31 0 -45 10.5t-20 32.5l-8 30z" />
    <glyph glyph-name="six" unicode="6" horiz-adv-x="659" 
d="M484 456l193 70l-8 40q-17 84 -81 121.5t-182 37.5q-300 0 -345 -261l-34 -194q-24 -137 40 -211t211 -74q144 0 233 59.5t109 176.5q22 120 -38 175t-211 55q-26 0 -46 -1t-36 -3l1 6q7 39 29 55t65 16q33 0 49 -6t26 -22l6 -10q2 -3 4 -6.5t4 -5.5zM255 254q30 6 71 6
q40 0 53.5 -9.5t9.5 -31.5t-20 -32.5t-58 -10.5q-40 0 -52.5 11.5t-9.5 33.5z" />
    <glyph glyph-name="seven" unicode="7" horiz-adv-x="582" 
d="M50 510h288l-330 -510h246l361 547l30 163h-559z" />
    <glyph glyph-name="eight" unicode="8" horiz-adv-x="657" 
d="M602 669q-63 56 -199 56q-132 0 -215.5 -53t-101.5 -156q-17 -101 44 -149q-104 -61 -123 -163q-18 -101 46 -160t220 -59q303 0 343 221q19 108 -56 166q71 57 86 140q18 100 -44 157zM252 183q-17 11 -13 32q5 27 41 58q69 -24 85 -33t13 -28q-3 -17 -23 -28.5
t-52 -11.5q-35 0 -51 11zM371 535q26 0 36.5 -9.5t7.5 -25.5q-4 -27 -36 -52l-17 6q-49 16 -44 46q7 35 53 35z" />
    <glyph glyph-name="nine" unicode="9" horiz-adv-x="659" 
d="M8 144q17 -84 81 -121.5t182 -37.5q300 0 345 261l34 194q24 137 -40 211t-211 74q-144 0 -232.5 -59.5t-109.5 -176.5q-21 -120 38.5 -175t210.5 -55q26 0 46 1t36 3l-1 -6q-7 -39 -29 -55t-65 -16q-33 0 -49 6t-26 22q-1 2 -4 7t-7 11q-5 7 -10 16l-196 -71zM422 456
q-30 -6 -71 -6q-40 0 -53.5 9.5t-9.5 31.5t20 32.5t58 10.5q40 0 52.5 -11.5t9.5 -33.5z" />
    <glyph glyph-name="colon" unicode=":" horiz-adv-x="294" 
d="M174 535q-23 0 -44 -9t-37.5 -24t-27 -35.5t-12.5 -43.5t5 -43.5t20.5 -35.5t32.5 -24t42 -9t44 9t37.5 24t27 35.5t12.5 43.5t-4.5 43.5t-20 35.5t-33 24t-42.5 9zM4 104q-2 -23 4.5 -43.5t20 -35.5t33 -24t42.5 -9t44 9t37.5 24t27 35.5t12.5 43.5t-4.5 43.5t-20 35.5
t-33 24t-42.5 9t-44 -9t-37.5 -24t-27 -35.5t-12.5 -43.5z" />
    <glyph glyph-name="semicolon" unicode=";" horiz-adv-x="298" 
d="M-61 -132h163l164 338h-226zM67 453q-2 -23 5 -43.5t20.5 -35.5t32.5 -24t42 -9t44 9t37.5 24t27 35.5t12.5 43.5t-4.5 43.5t-20 35.5t-33 24t-42.5 9t-44 -9t-37.5 -24t-27 -35.5t-12.5 -43.5z" />
    <glyph glyph-name="less" unicode="&#x3c;" horiz-adv-x="504" 
d="M40 413l-30 -173l397 -239l43 240l-167 88l199 88l43 236z" />
    <glyph glyph-name="equal" unicode="=" horiz-adv-x="604" 
d="M50 349h520l34 195h-520zM42 304l-34 -195h520l34 195h-520z" />
    <glyph glyph-name="greater" unicode="&#x3e;" horiz-adv-x="505" 
d="M36 252l-44 -251l481 239l30 173l-398 239l-39 -226l166 -89z" />
    <glyph glyph-name="question" unicode="?" horiz-adv-x="605" 
d="M372 272q4 23 36 46q7 5 21 12.5t35 18.5q30 14 56.5 30t47 36.5t35 47.5t20.5 63q8 50 -5 89t-45.5 67t-82 42.5t-115.5 14.5q-58 0 -104 -10t-82.5 -30t-65 -51t-52.5 -73l-17 -30l185 -74l19 31q14 21 25 34.5t22.5 21t24.5 10t29 2.5q46 0 38 -39q-4 -21 -17 -37
t-26 -23l-17 -8.5t-22 -10.5t-22 -10.5l-17 -8.5q-89 -47 -108 -161l-7 -42h204zM122 99q-4 -22 2 -41.5t20 -34t34 -23t45 -8.5t48 8.5t42 23t32 34t17 41.5t-2 41t-20 33.5t-34 23t-45 8.5t-48 -8.5t-42 -23t-32 -33.5t-17 -41z" />
    <glyph glyph-name="at" unicode="@" horiz-adv-x="908" 
d="M639 -104l22 127l-42 -7q-60 -10 -114.5 -14.5t-105.5 -4.5q-140 0 -200 66t-38 191l14 78q22 126 106.5 195.5t222.5 69.5q283 0 237 -265l-14 -78q-15 -89 -64 -89q-25 0 -20 23l54 305l-30 12q-85 35 -201 35q-198 0 -231 -181l-23 -133q-31 -181 167 -181
q100 0 180 26q31 -37 85 -37q41 0 78.5 15t67.5 43.5t51.5 70t30.5 93.5l13 74q16 91 0 164t-62 124.5t-121.5 79t-179.5 27.5q-103 0 -187 -27.5t-146.5 -78.5t-103 -124t-56.5 -165l-13 -74q-16 -90 0 -162t63 -122.5t123 -77t180 -26.5q111 0 219 21zM458 403
q18 0 33.5 -1t28.5 -3q6 -1 6 -11l-36 -202l-71 -4q-33 0 -45 11t-7 36l22 127q5 25 20.5 36t48.5 11z" />
    <glyph glyph-name="A" unicode="A" horiz-adv-x="704" 
d="M178 0l44 97h188l9 -97h247l-127 710h-231l-376 -710h246zM393 279h-89l73 161z" />
    <glyph glyph-name="B" unicode="B" horiz-adv-x="661" 
d="M656 514q8 46 -1 82.5t-34.5 62t-66 39t-94.5 13.5h-348l-126 -711h358q115 0 190 48t92 142q11 64 -7.5 111t-64.5 69l1 5q46 27 69 58.5t32 80.5zM346 270q28 0 39 -10.5t7 -34.5q-8 -47 -62 -47h-80l16 92h80zM312 534h60q26 0 37.5 -10t6.5 -33q-7 -42 -59 -42h-60z
" />
    <glyph glyph-name="C" unicode="C" horiz-adv-x="654" 
d="M682 511q-2 8 -3 14q-1 5 -2 9.5t-1 5.5q-36 185 -258 185q-155 0 -249 -69.5t-117 -203.5l-29 -166q-12 -68 0.5 -123.5t47 -95t90.5 -61t131 -21.5q236 0 334 176l19 36l-208 80l-19 -34q-31 -57 -94 -57q-51 0 -65.5 20t-6.5 68l29 162q9 48 30.5 68t72.5 20
q35 0 50.5 -13t21.5 -44l6 -31z" />
    <glyph glyph-name="D" unicode="D" horiz-adv-x="680" 
d="M283 0q156 0 250 69t117 204l23 129q12 69 0.5 126t-45.5 97.5t-89.5 62.5t-130.5 22h-296l-126 -710h297zM361 510q54 0 72.5 -23.5t9.5 -72.5l-20 -117q-9 -51 -35.5 -73.5t-80.5 -22.5h-53l54 309h53z" />
    <glyph glyph-name="E" unicode="E" horiz-adv-x="592" 
d="M112 710l-126 -710h532l33 201h-297l10 57h235l36 200h-236l9 52h294l33 200h-523z" />
    <glyph glyph-name="F" unicode="F" horiz-adv-x="585" 
d="M-14 0h232l39 219h237l34 200h-236l16 91h292l36 200h-524z" />
    <glyph glyph-name="G" unicode="G" horiz-adv-x="683" 
d="M466 442l219 62l-7 35q-34 186 -262 186q-155 0 -248 -69t-116 -204l-28 -160q-24 -136 47 -222q70 -85 221 -85q75 0 137 17t107.5 48.5t74.5 76t39 100.5l33 187h-350l-31 -175h115v-4q-9 -49 -93 -49q-51 0 -65.5 20t-6.5 68l29 162q9 48 30.5 68t72.5 20
q35 0 52 -11.5t23 -38.5z" />
    <glyph glyph-name="H" unicode="H" horiz-adv-x="693" 
d="M113 711l-126 -711h232l46 260h148l-46 -260h232l126 711h-232l-45 -251h-148l45 251h-232z" />
    <glyph glyph-name="I" unicode="I" horiz-adv-x="312" 
d="M112 710l-125 -710h232l125 710h-232z" />
    <glyph glyph-name="J" unicode="J" horiz-adv-x="586" 
d="M183 275l-215 -73l8 -40q35 -177 243 -177q141 0 219 61t101 189l84 476h-232l-82 -460q-4 -25 -16.5 -45.5t-41.5 -20.5q-44 0 -58 51q0 1 -1.5 7t-3.5 13q-2 9 -5 19z" />
    <glyph glyph-name="K" unicode="K" horiz-adv-x="667" 
d="M112 710l-126 -710h232l45 257h9q21 0 34 -42l65 -215h266l-109 311q-11 31 -27 47l248 352h-255l-177 -252h-18l45 252h-232z" />
    <glyph glyph-name="L" unicode="L" horiz-adv-x="550" 
d="M255 201l90 509h-232l-126 -710h499l36 201h-267z" />
    <glyph glyph-name="M" unicode="M" horiz-adv-x="833" 
d="M112 711l-124 -711h221l47 288l45 -159h161l94 154l-46 -283h230l124 711h-216l-222 -349l-100 349h-214z" />
    <glyph glyph-name="N" unicode="N" horiz-adv-x="703" 
d="M-14 0h220l54 301l135 -301h213l126 710h-221l-51 -293l-127 293h-223z" />
    <glyph glyph-name="O" unicode="O" horiz-adv-x="689" 
d="M23 285q-12 -69 0.5 -124.5t47 -94.5t90.5 -60t131 -21q155 0 248 71t117 206l28 160q12 69 -0.5 124.5t-47 95.5t-90.5 61.5t-131 21.5q-154 0 -248 -72t-117 -208zM324 186q-86 0 -74 76l33 186q13 76 101 76q42 0 61 -19.5t12 -56.5l-33 -186q-12 -76 -100 -76z" />
    <glyph glyph-name="P" unicode="P" horiz-adv-x="655" 
d="M253 196h99q125 0 206 58.5t102 178.5q11 63 0.5 114t-39.5 87t-75 56t-106 20h-328l-126 -710h232zM308 510h69q30 0 41 -18t6.5 -39t-22 -39t-45.5 -18h-69z" />
    <glyph glyph-name="Q" unicode="Q" horiz-adv-x="701" 
d="M292 -15q54 0 100 9l73 -111l184 127l-62 93q53 64 70 159l28 160q12 69 -0.5 124.5t-47 95.5t-90.5 61.5t-131 21.5q-154 0 -248 -72t-117 -208l-28 -160q-12 -69 0.5 -124.5t47 -94.5t90.5 -60t131 -21zM283 448q13 76 101 76q42 0 61 -19.5t12 -56.5l-33 -186
q-12 -76 -100 -76q-86 0 -74 76z" />
    <glyph glyph-name="R" unicode="R" horiz-adv-x="666" 
d="M218 0l39 220h5q23 0 30 -13t13 -30l50 -177h268l-70 201q-10 29 -24 51q112 66 136 200q11 60 0.5 108t-39 81.5t-73.5 51t-105 17.5h-336l-126 -710h232zM308 510h77q24 0 35 -13.5t6 -35.5q-4 -23 -20 -38t-39 -15h-77z" />
    <glyph glyph-name="S" unicode="S" horiz-adv-x="649" 
d="M449 503l13 -37l202 79l-12 37q-24 73 -84.5 108t-171.5 35q-146 0 -232.5 -53.5t-104.5 -155.5q-24 -145 67 -200q22 -13 41.5 -22.5t39 -16t41.5 -11t49 -9.5q51 -8 73 -17t19 -29q-6 -35 -90 -35q-75 0 -90 36l-15 36l-214 -72l8 -42q7 -37 31.5 -65t62 -46.5t87 -28
t106.5 -9.5q311 0 348 211q40 220 -227 261q-60 8 -84 17.5t-21 31.5q6 35 79 35q65 0 79 -38z" />
    <glyph glyph-name="T" unicode="T" horiz-adv-x="622" 
d="M231 510l-90 -510h232l90 510h185l36 200h-602l-36 -200h185z" />
    <glyph glyph-name="U" unicode="U" horiz-adv-x="694" 
d="M30 289q-24 -135 45 -220t219 -85q154 0 243.5 68.5t112.5 200.5l81 456h-232l-81 -453q-12 -72 -93 -72t-69 72l81 453h-232z" />
    <glyph glyph-name="V" unicode="V" horiz-adv-x="704" 
d="M344 257l-29 453h-257l115 -710h253l364 710h-257z" />
    <glyph glyph-name="W" unicode="W" horiz-adv-x="955" 
d="M67 710l43 -710h249l121 332l1 -332h253l295 710h-230l-116 -374l-10 374h-239l-140 -368l15 368h-242z" />
    <glyph glyph-name="X" unicode="X" horiz-adv-x="674" 
d="M-79 0h269l122 170l61 -170h276l-170 362l281 348h-266l-115 -161l-60 161h-260l156 -348z" />
    <glyph glyph-name="Y" unicode="Y" horiz-adv-x="691" 
d="M52 710l173 -438l-48 -272h232l48 274l329 436h-256l-153 -215l-70 215h-255z" />
    <glyph glyph-name="Z" unicode="Z" horiz-adv-x="619" 
d="M-34 0h580l34 201h-268l332 379l21 130h-568l-37 -200h258l-328 -378z" />
    <glyph glyph-name="bracketleft" unicode="[" horiz-adv-x="380" 
d="M318 12h-114l121 686h114l27 158h-325l-177 -1003h325z" />
    <glyph glyph-name="backslash" unicode="\" horiz-adv-x="513" 
d="M291 711h-213l153 -771h213z" />
    <glyph glyph-name="bracketright" unicode="]" horiz-adv-x="380" 
d="M195 698l-121 -686h-112l-29 -159h325l177 1003h-325l-27 -158h112z" />
    <glyph glyph-name="asciicircum" unicode="^" horiz-adv-x="671" 
d="M510 810h-169l-309 -290h253l107 110l67 -110h259z" />
    <glyph glyph-name="underscore" unicode="_" horiz-adv-x="515" 
d="M-45 0l-33 -195h498l33 195h-498z" />
    <glyph glyph-name="grave" unicode="`" horiz-adv-x="257" 
d="M278 558l85 80l-179 123l-146 -125z" />
    <glyph glyph-name="a" unicode="a" horiz-adv-x="549" 
d="M7 224q-19 -110 28.5 -174.5t163.5 -64.5q126 0 228 26l42 11l82 460l-38 18q-73 35 -199 35q-129 0 -200 -52.5t-91 -166.5zM243 318q6 30 40 30q10 0 20 -2l4 -1l-30 -172l-29 -2q-30 0 -26 27z" />
    <glyph glyph-name="b" unicode="b" horiz-adv-x="551" 
d="M24 20q73 -35 199 -35q129 0 200.5 53.5t91.5 168.5l16 92q19 111 -28.5 173.5t-164.5 62.5q-8 0 -19 -0.5t-25 -1.5l36 206h-220l-124 -701zM261 345l28 4q31 0 26 -27l-21 -120q-6 -30 -40 -30q-15 0 -21 3l-2 1z" />
    <glyph glyph-name="c" unicode="c" horiz-adv-x="520" 
d="M7 223q-19 -111 30.5 -174.5t173.5 -63.5q185 0 271 143l23 39l-202 63l-19 -34q-11 -20 -19.5 -25t-22.5 -5q-26 0 -20 35l20 118q8 36 34 36q14 0 21.5 -5.5t12.5 -25.5l7 -34l205 66l-5 33q-11 66 -60.5 106t-142.5 40q-252 0 -291 -219z" />
    <glyph glyph-name="d" unicode="d" horiz-adv-x="550" 
d="M206 -15q122 0 220 37l46 17l124 701h-220l-37 -206q-7 0 -21 0.5t-22 0.5q-118 0 -185 -50t-87 -162l-16 -92q-10 -55 -2.5 -100.5t32 -78t66.5 -50t102 -17.5zM243 319q6 30 40 30q13 0 23 -3l-30 -172l-28 -2q-30 0 -26 27z" />
    <glyph glyph-name="e" unicode="e" horiz-adv-x="547" 
d="M338 189l-16 -17q-12 -13 -24 -20t-43 -10q-43 0 -34 50l3 17q22 -2 51 -3t65 -1q87 0 142 41t63 108q11 91 -49 136t-180 45q-123 0 -199 -56.5t-94 -159.5l-17 -97q-9 -54 -0.5 -98t36 -74.5t74 -47.5t112.5 -17q176 0 248 101l21 29zM248 347q9 44 48 44q38 0 34 -28
t-42 -28q-9 0 -19.5 0.5t-22.5 1.5z" />
    <glyph glyph-name="f" unicode="f" horiz-adv-x="395" 
d="M55 520l-30 -169h62l-62 -351h220l62 351h88l29 169h-86v4q8 47 54 47h41l29 169h-70q-112 0 -180.5 -46.5t-91.5 -156.5l-3 -16z" />
    <glyph glyph-name="g" unicode="g" horiz-adv-x="551" 
d="M314 535q-130 0 -200.5 -52t-90.5 -166l-12 -67q-19 -111 28.5 -173.5t164.5 -62.5q8 0 19 0.5t25 1.5l-6 -36q-8 -38 -40 -38q-17 0 -25.5 9.5t-13.5 19.5l-10 19l-197 -88l11 -25q51 -112 211 -112q247 0 287 232l86 485l-38 18q-73 35 -199 35zM281 204l-28 -4
q-30 0 -26 27l16 91q6 30 40 30h23z" />
    <glyph glyph-name="h" unicode="h" horiz-adv-x="559" 
d="M-20 0h218l62 337q5 1 22 1q20 0 26.5 -7t3.5 -27q-1 -1 -1 -3l-53 -301h220l55 311q19 109 -29 166.5t-166 57.5h-26t-18 -1l37 206h-220z" />
    <glyph glyph-name="i" unicode="i" horiz-adv-x="286" 
d="M-20 0h220l92 520h-220zM88 643q-4 -17 1.5 -32t18 -26.5t32 -18t43.5 -6.5t47 6.5t42 18t32 26.5t17 32q5 17 -0.5 32t-18.5 26t-32.5 17.5t-43.5 6.5t-47 -6.5t-41.5 -17.5t-31.5 -26t-18 -32z" />
    <glyph glyph-name="j" unicode="j" horiz-adv-x="287" 
d="M-148 -230h41q135 0 209 50t95 168l94 532h-220l-91 -515q-9 -46 -54 -46h-41zM88 643q-4 -17 1.5 -32t18 -26.5t32 -18t43.5 -6.5t47 6.5t42 18t32 26.5t17 32q5 17 -0.5 32t-18.5 26t-32.5 17.5t-43.5 6.5t-47 -6.5t-41.5 -17.5t-31.5 -26t-18 -32z" />
    <glyph glyph-name="k" unicode="k" horiz-adv-x="569" 
d="M-20 0h219l32 180h3q21 0 24 -21l23 -159h244l-80 263l162 257h-227l-103 -171h-16l69 391h-219z" />
    <glyph glyph-name="l" unicode="l" horiz-adv-x="287" 
d="M111 740l-131 -740h220l131 740h-220z" />
    <glyph glyph-name="m" unicode="m" horiz-adv-x="804" 
d="M534 338q16 0 20.5 -7t1.5 -26l-54 -305h220l55 311q19 109 -26.5 166.5t-160.5 57.5q-71 0 -143 -24q-45 24 -119 24q-114 0 -219 -39l-46 -17l-85 -479h220l60 338h14q16 0 20.5 -7t1.5 -26l-54 -305h220l59 337q4 1 15 1z" />
    <glyph glyph-name="n" unicode="n" 
d="M63 478l-85 -478h220l60 336l3 1q3 0 8 0.5t11 0.5q20 0 26.5 -7.5t3.5 -26.5q0 -2 -1 -3l-53 -301h220l56 311q19 109 -29 166.5t-167 57.5q-122 0 -227 -39z" />
    <glyph glyph-name="o" unicode="o" horiz-adv-x="554" 
d="M6 221q-18 -108 37 -172t178 -64q128 0 203 57t94 163l16 96q18 108 -37 171t-180 63q-127 0 -201.5 -56t-93.5 -162zM253 171q-38 0 -32 32l20 114q6 33 44 33q39 0 33 -33l-20 -114q-6 -32 -45 -32z" />
    <glyph glyph-name="p" unicode="p" horiz-adv-x="550" 
d="M159 -219l36 205q7 0 21 -0.5t22 -0.5q234 0 274 223l16 92q19 109 -30.5 172t-169.5 63q-122 0 -220 -37l-46 -17l-123 -700h220zM286 348q31 0 26 -27l-21 -120q-6 -30 -40 -30q-12 0 -23 3l30 171z" />
    <glyph glyph-name="q" unicode="q" horiz-adv-x="552" 
d="M7 220q-19 -109 28.5 -172t164.5 -63q8 0 19 0.5t25 1.5l-36 -206h220l124 701l-38 18q-73 35 -199 35q-129 0 -200.5 -54t-91.5 -169zM244 318q6 30 40 30q9 0 19 -2l4 -1l-30 -170l-28 -4q-30 0 -26 27z" />
    <glyph glyph-name="r" unicode="r" horiz-adv-x="366" 
d="M329 535q-140 -4 -218 -33q-28 -11 -38.5 -23.5t-15.5 -39.5l-78 -439h220l61 348h107l32 187h-70z" />
    <glyph glyph-name="s" unicode="s" horiz-adv-x="524" 
d="M352 324l168 73l-13 31q-11 26 -27.5 46t-42 33.5t-61.5 20.5t-84 7q-230 0 -259 -162q-28 -160 181 -167q28 -1 44.5 -2.5t25 -4.5t10.5 -7.5t1 -11.5q-2 -12 -15 -17t-48 -5q-41 0 -56 25l-8 14l-190 -65l6 -29q27 -118 228 -118q118 0 189 44t85 128q13 68 -20.5 107
t-131.5 52q-11 2 -23 3t-26 2q-22 2 -35.5 3.5t-20 4.5t-8 6.5t-0.5 7.5q2 11 12 15t43 4q35 0 55 -19z" />
    <glyph glyph-name="t" unicode="t" horiz-adv-x="400" 
d="M43 520l-30 -169h73l-26 -146q-20 -118 36 -168t192 -50h41l33 189h-41q-46 0 -38 47l23 128h87l30 169h-87l21 120h-220l-21 -120h-73z" />
    <glyph glyph-name="u" unicode="u" 
d="M13 220q-19 -109 28.5 -172t164.5 -63q124 0 227 39l46 17l85 479h-220l-59 -336l-7 -1q-4 -1 -8 -1h-8q-20 0 -26.5 7t-2.5 27v3l53 301h-220z" />
    <glyph glyph-name="v" unicode="v" horiz-adv-x="566" 
d="M275 256l-15 264h-226l71 -520h243l268 520h-237z" />
    <glyph glyph-name="w" unicode="w" horiz-adv-x="798" 
d="M34 520l40 -520h221l91 230v-230h236l218 520h-226l-74 -242l2 242h-208l-83 -242l10 242h-227z" />
    <glyph glyph-name="x" unicode="x" horiz-adv-x="576" 
d="M-74 0h249l85 132l40 -132h244l-123 268l207 252h-246l-76 -114l-37 114h-243l120 -253z" />
    <glyph glyph-name="y" unicode="y" horiz-adv-x="559" 
d="M344 520l-54 -307q-4 -1 -9.5 -1h-12.5q-20 0 -27 7t-3 27v3l48 271h-220l-47 -265q-10 -55 -3 -99.5t31 -75.5t65 -48t99 -17h26t18 1l-6 -36q-8 -38 -40 -38q-14 0 -21 5.5t-12 13.5l-18 29l-194 -88l11 -26q13 -28 30.5 -48t42.5 -33t57.5 -19t74.5 -6q250 0 292 229
l92 521h-220z" />
    <glyph glyph-name="z" unicode="z" horiz-adv-x="502" 
d="M-32 0h460l32 182h-196l221 175l29 163h-448l-32 -182h170l-208 -178z" />
    <glyph glyph-name="braceleft" unicode="{" horiz-adv-x="443" 
d="M526 856h-168q-86 0 -127.5 -35t-55.5 -114l-30 -167q-13 -87 -80 -87h-39l-36 -203h39q65 0 50 -87l-29 -162q-14 -79 16 -113.5t118 -34.5h165l33 185h-89q-10 0 -16.5 7t-4.5 18l26 147q19 109 -54 142q87 47 104 141l27 153q5 25 30 25h88z" />
    <glyph glyph-name="bar" unicode="|" horiz-adv-x="299" 
d="M141 856l-177 -1003h213l177 1003h-213z" />
    <glyph glyph-name="braceright" unicode="}" horiz-adv-x="443" 
d="M382 540l30 167q14 79 -15 114t-116 35h-168l-33 -185h88q11 0 17.5 -7.5t4.5 -17.5l-27 -153q-16 -91 54 -141q-85 -33 -104 -142l-26 -147q-1 -10 -9.5 -17.5t-19.5 -7.5h-90l-33 -185h166q44 0 76 8.5t54 26.5t35.5 46t20.5 67l29 162q15 87 80 87h39l36 203h-39
q-63 0 -50 87z" />
    <glyph glyph-name="asciitilde" unicode="~" horiz-adv-x="582" 
d="M52 378l-39 -31l119 -131l33 23q29 20 62 20q23 0 72 -17q47 -18 93 -18q78 0 146 53l39 31l-118 131l-24 -16q-6 -4 -10 -7q-31 -21 -62 -21q-24 0 -71 18q-48 18 -94 18q-78 0 -146 -53z" />
    <glyph glyph-name="exclamdown" unicode="&#xa1;" horiz-adv-x="296" 
d="M50 276l-110 -496h228l67 496h-185zM188 527q-25 0 -48 -8.5t-42 -23t-32 -34t-17 -41.5t2 -41.5t19.5 -33.5t34 -22.5t45.5 -8.5t48 8.5t42 22.5t32 33.5t17 41.5t-2 41.5t-20 34t-34 23t-45 8.5z" />
    <glyph glyph-name="cent" unicode="&#xa2;" horiz-adv-x="552" 
d="M327 290l203 64l-5 30q-20 113 -103 138l15 87h-191l-13 -85q-168 -41 -196 -204l-16 -93q-16 -91 13 -152.5t105 -80.5l-12 -77h189l14 80q105 31 166 130l27 45l-203 63l-22 -39q-11 -20 -19.5 -25t-22.5 -5q-26 0 -20 35l20 118q8 36 34 36q13 0 19.5 -6t11.5 -26z
" />
    <glyph glyph-name="sterling" unicode="&#xa3;" horiz-adv-x="688" 
d="M366 479q8 45 55 45q23 0 37 -12t23 -44l9 -33l218 76l-7 31q-42 183 -252 183q-64 0 -118 -16t-94.5 -45t-66.5 -70.5t-35 -92.5l-18 -104h-72l-28 -159h67l-2 -7q-11 -31 -41 -40l-34 -10l-32 -181h633l34 190h-225q-85 0 -150 -21l-2 6q40 23 50 60v3h199l26 159h-189
z" />
    <glyph glyph-name="currency" unicode="&#xa4;" horiz-adv-x="665" 
d="M558 249q24 43 32 88q9 46 -1 89l101 86l-120 146l-102 -86q-40 15 -84 15q-45 0 -92 -16l-72 87l-172 -146l73 -88q-23 -41 -31 -87q-7 -42 0 -87l-103 -88l120 -146l103 87q43 -16 85 -16q23 0 45.5 4t45.5 12l71 -87l172 146zM273 337q6 27 28.5 46t49.5 19t43 -19
t11 -46q-5 -28 -27.5 -47t-49.5 -19q-28 0 -43.5 19t-11.5 47z" />
    <glyph glyph-name="yen" unicode="&#xa5;" horiz-adv-x="736" 
d="M606 238h-142l5 29h142l24 136h-86l262 307h-260l-153 -215l-70 215h-261l151 -307h-86l-24 -136h143l-5 -29h-143l-24 -136h138l-21 -102h235l14 102h137z" />
    <glyph glyph-name="brokenbar" unicode="&#xa6;" horiz-adv-x="302" 
d="M142 856l-80 -454h213l80 454h-213zM45 308l-80 -454h213l80 454h-213z" />
    <glyph glyph-name="section" unicode="&#xa7;" horiz-adv-x="633" 
d="M368 551q31 0 50 -8t28 -36l10 -30l181 72l-9 29q-11 38 -29 65.5t-45.5 45.5t-65 27t-88.5 9q-139 0 -216 -50.5t-95 -144.5q-21 -107 39 -152q-93 -51 -109 -142q-8 -44 1.5 -75.5t29.5 -52.5t48 -34.5t58.5 -21.5t60 -13.5t52.5 -10.5q25 -6 37 -14t10 -22
q-6 -38 -69 -38q-74 0 -88 47l-10 34l-191 -71l6 -31q16 -78 86.5 -115.5t184.5 -37.5q140 0 218 50.5t96 146.5q10 52 -1 93t-38 62q69 50 84 132q17 96 -49 147q-14 11 -36 21t-46 18.5t-48 14.5t-42 10q-31 8 -46 17.5t-13 24.5q6 34 54 34zM359 251q-2 -32 -33 -62
q-2 0 -6 0.5t-9 1.5q-57 12 -54 59q3 35 39 65q3 -1 8 -2.5t8 -1.5q51 -17 47 -60z" />
    <glyph glyph-name="dieresis" unicode="&#xa8;" horiz-adv-x="439" 
d="M412 743q-18 0 -34.5 -7t-29.5 -18.5t-22 -27t-12 -33.5q-5 -36 16 -61.5t56 -25.5q18 0 34.5 7t29.5 18.5t22 27.5t12 34q5 35 -16 60.5t-56 25.5zM262 657q5 35 -16 60.5t-56 25.5q-18 0 -34.5 -7t-29.5 -18.5t-22 -27t-12 -33.5q-5 -36 16 -61.5t56 -25.5q18 0 34.5 7
t29.5 18.5t22 27.5t12 34z" />
    <glyph glyph-name="copyright" unicode="&#xa9;" horiz-adv-x="767" 
d="M693 606q-86 104 -237 104q-77 0 -148 -28t-128 -76.5t-96 -114.5t-52 -141q-25 -150 60 -255q86 -105 237 -105q77 0 147.5 28t127.5 77t96 114.5t52 140.5q27 151 -59 256zM438 608q108 0 170 -74t42 -184q-10 -54 -37.5 -101t-68 -82.5t-91 -55.5t-106.5 -20
q-109 0 -171 75q-61 75 -42 184q10 55 37.5 102t68 81.5t91.5 54.5t107 20zM424 299q-16 -28 -46 -28q-37 0 -32 29l17 98q6 28 42 28q31 0 37 -27l6 -26l119 38l-5 32q-8 49 -41.5 77t-93.5 28q-78 0 -126.5 -39t-60.5 -108l-17 -97q-12 -70 23 -112t111 -42q125 0 177 103
l19 38l-111 40z" />
    <glyph glyph-name="ordfeminine" unicode="&#xaa;" horiz-adv-x="350" 
d="M239 675q-97 0 -149 -55l-16 -17l102 -55l17 17q10 10 21 10q14 0 11 -14l-3 -18h-6q-86 0 -123.5 -22.5t-45.5 -69.5q-8 -48 20 -74.5t113 -26.5q63 0 112 15l45 14l29 174q20 122 -127 122zM185 453q3 14 15 14h8l-4 -28q-1 -1 -2 -1h-7q-13 0 -10 15z" />
    <glyph glyph-name="guillemotleft" unicode="&#xab;" horiz-adv-x="667" 
d="M276 262l205 -249l136 117l-111 135l163 139l-93 114zM296 518l-301 -256l206 -249l136 117l-111 135l163 139z" />
    <glyph glyph-name="logicalnot" unicode="&#xac;" horiz-adv-x="601" 
d="M332 237l-21 -119h218l54 309h-533l-33 -190h315z" />
    <glyph glyph-name="registered" unicode="&#xae;" horiz-adv-x="453" 
d="M431 660q-51 60 -134 60q-44 0 -84 -16t-71.5 -43.5t-53 -64.5t-28.5 -80q-14 -85 38 -144q51 -60 135 -60q44 0 83 16t70.5 43.5t53 65t28.5 79.5q14 83 -37 144zM292 660q30 0 54 -11t40 -30.5t22.5 -46t0.5 -56.5q-5 -30 -20.5 -56t-38 -46t-51 -31.5t-58.5 -11.5
t-55 11.5t-41 31t-23 46t-1 56.5t21.5 56.5t38.5 46t51.5 30.5t59.5 11zM318 483q30 16 38 56q6 31 -10.5 50t-49.5 19h-94l-32 -184h65l8 47h6l23 -47h79zM282 553q15 0 10 -15q-3 -13 -16 -13h-26l6 28h26z" />
    <glyph glyph-name="macron" unicode="&#xaf;" horiz-adv-x="352" 
d="M93 713l-22 -125h328l22 125h-328z" />
    <glyph glyph-name="degree" unicode="&#xb0;" horiz-adv-x="432" 
d="M56 555q-15 -87 35 -146t136 -59q44 0 83.5 16t71.5 44t54 65.5t29 79.5q16 87 -35 146q-51 58 -138 58q-45 0 -84.5 -15.5t-70.5 -43t-52 -64.5t-29 -81zM251 501q-18 0 -29 9.5t-14 23.5t2 30t20 29q18 15 40 15q21 0 35.5 -15t9.5 -39q-4 -22 -22.5 -37.5t-41.5 -15.5
z" />
    <glyph glyph-name="plusminus" unicode="&#xb1;" horiz-adv-x="592" 
d="M78 537l-32 -189h164l-17 -96h189l17 96h167l32 189h-165l17 95h-189l-17 -95h-166zM25 229l-34 -196h520l34 196h-520z" />
    <glyph glyph-name="twosuperior" unicode="&#xb2;" horiz-adv-x="379" 
d="M426 678q8 55 -30 90t-113 35q-71 0 -114 -23.5t-72 -71.5l-20 -35l123 -46l18 25q8 11 17.5 16.5t17.5 5.5q7 0 11 -4.5t2 -13.5q-4 -25 -36 -36l-56 -17q-29 -9 -50 -20t-35 -25.5t-23 -33.5t-14 -45l-14 -79h333l22 124h-132v1q2 5 17 8l39 11q94 24 109 134z" />
    <glyph glyph-name="threesuperior" unicode="&#xb3;" horiz-adv-x="387" 
d="M279 682q-4 -19 -33 -19h-36l-22 -115h43q18 0 23 -4.5t3 -15.5q-3 -15 -32 -15q-40 0 -49 25l-10 32l-121 -41l4 -34q12 -96 170 -96q168 0 189 121q12 63 -34 90q45 31 52 76q10 57 -29 90.5t-115 33.5q-138 0 -191 -92l-16 -29l96 -48l10 14q4 5 7 10t4 6q20 29 61 29
q31 0 26 -18z" />
    <glyph glyph-name="acute" unicode="&#xb4;" horiz-adv-x="257" 
d="M368 635l-100 125l-224 -124l58 -79z" />
    <glyph glyph-name="mu" unicode="&#xb5;" horiz-adv-x="575" 
d="M499 83l78 437h-220l-59 -336l-9 -1q-5 -1 -14 -1q-20 0 -26.5 7t-2.5 27v3l53 301h-220l-131 -740h220l39 220q44 -15 95 -15q22 0 53.5 5.5t61.5 17.5t53.5 30.5t28.5 44.5z" />
    <glyph glyph-name="paragraph" unicode="&#xb6;" horiz-adv-x="747" 
d="M47 461q-20 -115 38 -188q58 -75 170 -76l-50 -286h189l105 599h45l-105 -599h189l140 799h-420q-58 0 -108.5 -17.5t-90 -49.5t-66 -78.5t-36.5 -103.5z" />
    <glyph glyph-name="periodcentered" unicode="&#xb7;" horiz-adv-x="291" 
d="M259 322q4 23 -1 43.5t-17 35.5t-30.5 24t-41.5 9t-44.5 -9t-39.5 -24t-30.5 -35.5t-17.5 -43.5q-4 -23 1 -43.5t17 -35.5t30.5 -24t41.5 -9t44.5 9t39.5 24t31 35.5t17 43.5z" />
    <glyph glyph-name="cedilla" unicode="&#xb8;" horiz-adv-x="251" 
d="M-70 -116l-19 -108l30 -10q35 -11 76 -11q146 0 175 101q12 43 -4.5 71.5t-59.5 29.5h-10l23 43h-106l-71 -115h47q27 0 35.5 -4.5t6.5 -15.5q-3 -20 -32 -20t-54 16z" />
    <glyph glyph-name="onesuperior" unicode="&#xb9;" horiz-adv-x="302" 
d="M134 409h154l70 395h-117l-183 -95l50 -115l64 31z" />
    <glyph glyph-name="ordmasculine" unicode="&#xba;" horiz-adv-x="346" 
d="M54 491q-12 -64 21.5 -102.5t105.5 -38.5q75 0 120 32t55 95l10 56q12 66 -21.5 104.5t-106.5 38.5q-75 0 -119 -33t-55 -96zM223 485q-2 -8 -8 -11.5t-14 -3.5q-6 0 -11 3.5t-3 11.5l10 56q2 15 20 15t16 -15z" />
    <glyph glyph-name="guillemotright" unicode="&#xbb;" horiz-adv-x="668" 
d="M270 131l95 -118l294 249l-211 256l-133 -115l114 -138zM-10 131l95 -118l294 249l-211 256l-133 -115l114 -138z" />
    <glyph glyph-name="onequarter" unicode="&#xbc;" horiz-adv-x="948" 
d="M121 0h193l522 710h-192zM827 1l12 65h43l21 115h-44l38 215h-139l-240 -234l-15 -96h194l-13 -65h143zM244 716l-183 -95l50 -115l64 31l-38 -216h154l70 395h-117zM671 181l55 54l-9 -54h-46z" />
    <glyph glyph-name="onehalf" unicode="&#xbd;" horiz-adv-x="950" 
d="M836 710h-192l-523 -710h193zM774 403q-71 0 -114 -23.5t-72 -71.5l-20 -35l123 -46l18 25q8 11 17.5 16.5t17.5 5.5q7 0 11 -4.5t2 -13.5q-4 -25 -36 -36l-56 -17q-29 -9 -50 -20t-35 -25.5t-23 -33.5t-14 -45l-14 -79h333l22 124h-132v1q2 5 17 8l39 11q94 24 109 134
q8 55 -30 90t-113 35zM244 716l-183 -95l50 -115l64 31l-38 -216h154l70 395h-117z" />
    <glyph glyph-name="threequarters" unicode="&#xbe;" horiz-adv-x="960" 
d="M363 0l522 710h-192l-523 -710h193zM240 578h-36l-22 -115h43q18 0 23 -4.5t3 -15.5q-3 -15 -32 -15q-40 0 -49 25l-10 32l-121 -41l4 -34q12 -96 170 -96q168 0 189 121q12 63 -34 90q45 31 52 76q10 57 -29 90.5t-115 33.5q-138 0 -191 -92l-16 -29l96 -48l10 14
q4 5 7 10t4 6q20 29 61 29q31 0 26 -18q-4 -19 -33 -19zM699 0h143l12 65h43l21 115h-44l38 215h-139l-240 -234l-15 -96h194zM686 180l55 54l-9 -54h-46z" />
    <glyph glyph-name="questiondown" unicode="&#xbf;" horiz-adv-x="602" 
d="M421 245l7 42h-204l-7 -42q-4 -23 -36 -46q-13 -10 -56 -30q-21 -11 -38 -20t-30 -17t-27.5 -22t-27.5 -32.5t-22.5 -40.5t-13.5 -46q-8 -50 5 -89t45.5 -67t82 -42.5t115.5 -14.5q58 0 104 10t82.5 30t65 51t52.5 73l24 41l-185 74l-26 -42q-13 -21 -24.5 -34.5t-23 -21
t-24.5 -10t-29 -2.5q-45 0 -38 39q4 21 17 37t26 23l17 8.5t22 10.5t22 10.5l17 8.5q89 47 108 161zM325 312q25 0 49 8.5t43.5 23t33 34t17.5 41.5q5 22 -0.5 41t-19 33.5t-34 23t-45.5 8.5t-48.5 -8.5t-43 -23t-32.5 -33.5t-18 -41q-4 -22 1 -41.5t18.5 -34t33.5 -23
t45 -8.5z" />
    <glyph glyph-name="Agrave" unicode="&#xc0;" horiz-adv-x="704" 
d="M178 0l44 97h188l9 -97h247l-127 710h-231l-376 -710h246zM425 948l-140 -135l242 -68l83 81zM393 279h-89l73 161z" />
    <glyph glyph-name="Aacute" unicode="&#xc1;" horiz-adv-x="704" 
d="M178 0l44 97h188l9 -97h247l-127 710h-231l-376 -710h246zM507 944l-226 -117l53 -82l267 68zM393 279h-89l73 161z" />
    <glyph glyph-name="Acircumflex" unicode="&#xc2;" horiz-adv-x="704" 
d="M666 0l-127 710h-231l-376 -710h246l44 97h188l9 -97h247zM391 925l-206 -174h206l48 50l27 -50h215l-146 174h-144zM393 279h-89l73 161z" />
    <glyph glyph-name="Atilde" unicode="&#xc3;" horiz-adv-x="704" 
d="M308 710l-376 -710h246l44 97h188l9 -97h247l-127 710h-231zM426 780q40 -17 86 -17q52 0 83.5 29t43.5 99l4 24h-118l-3 -18q-3 -16 -16 -16q-7 0 -49 17t-88 17q-102 0 -125 -128l-4 -24h119l3 18q3 16 16 16q8 0 48 -17zM377 440l16 -161h-89z" />
    <glyph glyph-name="Adieresis" unicode="&#xc4;" horiz-adv-x="704" 
d="M222 97h188l9 -97h247l-127 710h-231l-376 -710h246zM540 750q18 0 35 7t31 19t24 28t13 34q8 37 -12.5 62.5t-56.5 25.5q-18 0 -35 -7t-31 -19t-24 -28t-13 -34q-8 -37 12.5 -62.5t56.5 -25.5zM353 926q-18 0 -35 -7t-31 -19t-24 -28t-13 -34q-8 -37 12.5 -62.5
t56.5 -25.5q18 0 35 7t31 19t24 28t13 34q8 37 -12.5 62.5t-56.5 25.5zM377 440l16 -161h-89z" />
    <glyph glyph-name="Aring" unicode="&#xc5;" horiz-adv-x="704" 
d="M543 640q39 36 49 93q13 69 -26.5 108.5t-114.5 39.5q-78 0 -132.5 -38t-66.5 -110q-10 -61 20 -99l-340 -634h246l44 97h188l10 -97h246zM393 279h-89l73 160zM384 733q6 36 46 36q35 0 29 -36q-6 -35 -41 -35q-19 0 -28 9.5t-6 25.5z" />
    <glyph glyph-name="AE" unicode="&#xc6;" horiz-adv-x="930" 
d="M667 201l10 57h161l36 200h-162l9 52h220l33 200h-469l-587 -710h249l69 82h206l-15 -82h430l33 201h-223zM472 254h-91l140 201z" />
    <glyph glyph-name="Ccedilla" unicode="&#xc7;" horiz-adv-x="654" 
d="M418 243q-31 -57 -94 -57q-51 0 -65.5 20t-6.5 68l29 162q9 48 30.5 68t72.5 20q35 0 50.5 -13t21.5 -44l6 -31l220 75q-2 8 -3 14q-1 5 -2 9.5t-1 5.5q-36 185 -258 185q-155 0 -249 -69.5t-117 -203.5l-29 -166q-11 -63 -1.5 -115.5t39 -91.5t77.5 -62.5t113 -29.5
l-65 -106h47q27 0 35.5 -4.5t6.5 -15.5q-3 -20 -32 -20t-54 16l-37 23l-19 -108l30 -10q35 -11 76 -11q146 0 175 101q12 43 -4.5 71.5t-59.5 29.5h-10l19 36q183 22 267 172l19 36l-208 80z" />
    <glyph glyph-name="Egrave" unicode="&#xc8;" horiz-adv-x="592" 
d="M112 710l-126 -710h532l33 201h-297l10 57h235l36 200h-236l9 52h294l33 200h-523zM375 948l-140 -135l242 -68l83 81z" />
    <glyph glyph-name="Eacute" unicode="&#xc9;" horiz-adv-x="592" 
d="M112 710l-126 -710h532l33 201h-297l10 57h235l36 200h-236l9 52h294l33 200h-523zM458 946l-226 -117l52 -82l268 68z" />
    <glyph glyph-name="Ecircumflex" unicode="&#xca;" horiz-adv-x="592" 
d="M518 0l33 201h-297l10 57h235l36 200h-236l9 52h294l33 200h-523l-126 -710h532zM341 925l-206 -174h206l48 50l27 -50h215l-146 174h-144z" />
    <glyph glyph-name="Edieresis" unicode="&#xcb;" horiz-adv-x="592" 
d="M518 0l33 201h-297l10 57h235l36 200h-236l9 52h294l33 200h-523l-126 -710h532zM593 838q8 37 -12.5 62.5t-56.5 25.5q-18 0 -35 -7t-31 -19t-24 -28t-13 -34q-8 -37 12.5 -62.5t56.5 -25.5q18 0 35 7t31 19t24 28t13 34zM200 838q-8 -37 12.5 -62.5t56.5 -25.5
q18 0 35 7t31 19t24 28t13 34q8 37 -12.5 62.5t-56.5 25.5q-18 0 -35 -7t-31 -19t-24 -28t-13 -34z" />
    <glyph glyph-name="Igrave" unicode="&#xcc;" horiz-adv-x="312" 
d="M112 710l-125 -710h232l125 710h-232zM232 950l-140 -135l242 -68l83 81z" />
    <glyph glyph-name="Iacute" unicode="&#xcd;" horiz-adv-x="312" 
d="M112 710l-125 -710h232l125 710h-232zM312 943l-226 -117l53 -82l268 68z" />
    <glyph glyph-name="Icircumflex" unicode="&#xce;" horiz-adv-x="312" 
d="M112 710l-125 -710h232l125 710h-232zM196 925l-206 -174h206l48 50l27 -50h215l-146 174h-144z" />
    <glyph glyph-name="Idieresis" unicode="&#xcf;" horiz-adv-x="312" 
d="M112 710l-125 -710h232l125 710h-232zM276 838q-8 -37 12.5 -62.5t56.5 -25.5q18 0 35 7t31 19t24 28t13 34q8 37 -12.5 62.5t-56.5 25.5q-18 0 -35 -7t-31 -19t-24 -28t-13 -34zM55 838q-8 -37 12.5 -62.5t56.5 -25.5q18 0 35 7t31 19t24 28t13 34q8 37 -12.5 62.5
t-56.5 25.5q-18 0 -35 -7t-31 -19t-24 -28t-13 -34z" />
    <glyph glyph-name="Eth" unicode="&#xd0;" horiz-adv-x="716" 
d="M148 710l-50 -281h-67l-27 -150h67l-49 -279h297q155 0 250 71.5t118 206.5l23 129q12 69 0 124.5t-46 95.5t-89.5 61.5t-130.5 21.5h-296zM459 297q-9 -51 -35.5 -73.5t-80.5 -22.5h-53l13 78h84l27 150h-84l14 81h53q54 0 72.5 -23.5t9.5 -72.5z" />
    <glyph glyph-name="Ntilde" unicode="&#xd1;" horiz-adv-x="703" 
d="M734 710h-221l-51 -293l-127 293h-223l-126 -710h220l54 301l135 -301h213zM522 897q-3 -16 -16 -16q-7 0 -49 17t-88 17q-102 0 -125 -128l-4 -24h119l3 18q3 16 16 16q8 0 48 -17t86 -17q52 0 83.5 29t43.5 99l4 24h-118z" />
    <glyph glyph-name="Ograve" unicode="&#xd2;" horiz-adv-x="689" 
d="M23 285q-12 -69 0.5 -124.5t47 -94.5t90.5 -60t131 -21q155 0 248 71t117 206l28 160q12 69 -0.5 124.5t-47 95.5t-90.5 61.5t-131 21.5q-154 0 -248 -72t-117 -208zM324 186q-86 0 -74 76l33 186q13 76 101 76q42 0 61 -19.5t12 -56.5l-33 -186q-12 -76 -100 -76z
M279 823l242 -68l83 81l-185 122z" />
    <glyph glyph-name="Oacute" unicode="&#xd3;" horiz-adv-x="689" 
d="M23 285q-12 -69 0.5 -124.5t47 -94.5t90.5 -60t131 -21q155 0 248 71t117 206l28 160q12 69 -0.5 124.5t-47 95.5t-90.5 61.5t-131 21.5q-154 0 -248 -72t-117 -208zM324 186q-86 0 -74 76l33 186q13 76 101 76q42 0 61 -19.5t12 -56.5l-33 -186q-12 -76 -100 -76z
M274 835l53 -82l267 68l-94 131z" />
    <glyph glyph-name="Ocircumflex" unicode="&#xd4;" horiz-adv-x="689" 
d="M51 445l-28 -160q-12 -69 0.5 -124.5t47 -94.5t90.5 -60t131 -21q155 0 248 71t117 206l28 160q12 69 -0.5 124.5t-47 95.5t-90.5 61.5t-131 21.5q-154 0 -248 -72t-117 -208zM324 186q-86 0 -74 76l33 186q13 76 101 76q42 0 61 -19.5t12 -56.5l-33 -186
q-12 -76 -100 -76zM676 761l-146 174h-144l-206 -174h206l48 50l27 -50h215z" />
    <glyph glyph-name="Otilde" unicode="&#xd5;" horiz-adv-x="689" 
d="M657 262l28 160q12 69 -0.5 124.5t-47 95.5t-90.5 61.5t-131 21.5q-154 0 -248 -72t-117 -208l-28 -160q-12 -69 0.5 -124.5t47 -94.5t90.5 -60t131 -21q155 0 248 71t117 206zM424 262q-12 -76 -100 -76q-86 0 -74 76l33 186q13 76 101 76q42 0 61 -19.5t12 -56.5z
M421 790q40 -17 86 -17q52 0 83.5 29t43.5 99l4 24h-118l-3 -18q-3 -16 -16 -16q-7 0 -49 17t-88 17q-102 0 -125 -128l-4 -24h119l3 18q3 16 16 16q8 0 48 -17z" />
    <glyph glyph-name="Odieresis" unicode="&#xd6;" horiz-adv-x="689" 
d="M657 262l28 160q12 69 -0.5 124.5t-47 95.5t-90.5 61.5t-131 21.5q-154 0 -248 -72t-117 -208l-28 -160q-12 -69 0.5 -124.5t47 -94.5t90.5 -60t131 -21q155 0 248 71t117 206zM324 186q-86 0 -74 76l33 186q13 76 101 76q42 0 61 -19.5t12 -56.5l-33 -186
q-12 -76 -100 -76zM245 848q-8 -37 12.5 -62.5t56.5 -25.5q18 0 35 7t31 19t24 28t13 34q8 37 -12.5 62.5t-56.5 25.5q-18 0 -35 -7t-31 -19t-24 -28t-13 -34zM535 760q18 0 35 7t31 19t24 28t13 34q8 37 -12.5 62.5t-56.5 25.5q-18 0 -35 -7t-31 -19t-24 -28t-13 -34
q-8 -37 12.5 -62.5t56.5 -25.5z" />
    <glyph glyph-name="multiply" unicode="&#xd7;" horiz-adv-x="549" 
d="M-10 194l111 -134l154 130l108 -131l159 134l-109 132l155 132l-111 135l-155 -132l-107 131l-159 -136l107 -130z" />
    <glyph glyph-name="Oslash" unicode="&#xd8;" horiz-adv-x="689" 
d="M564 696q-64 29 -149 29q-154 0 -248 -72t-117 -208l-28 -160q-20 -120 29 -195l-112 -135h159l48 57q60 -27 145 -27q155 0 248 71t117 206l28 160q20 117 -28 193l116 137h-161zM258 315l2 10t2 11l20 112q13 76 101 76q29 0 45 -9zM423 262q-12 -76 -100 -76
q-28 0 -43 7l165 194q-1 -5 -2.5 -13.5t-1.5 -9.5z" />
    <glyph glyph-name="Ugrave" unicode="&#xd9;" horiz-adv-x="694" 
d="M30 289q-24 -135 45 -220t219 -85q154 0 243.5 68.5t112.5 200.5l81 456h-232l-81 -453q-12 -72 -93 -72t-69 72l81 453h-232zM422 950l-140 -135l242 -68l83 81z" />
    <glyph glyph-name="Uacute" unicode="&#xda;" horiz-adv-x="694" 
d="M30 289q-24 -135 45 -220t219 -85q154 0 243.5 68.5t112.5 200.5l81 456h-232l-81 -453q-12 -72 -93 -72t-69 72l81 453h-232zM502 943l-226 -117l53 -82l268 68z" />
    <glyph glyph-name="Ucircumflex" unicode="&#xdb;" horiz-adv-x="694" 
d="M650 253l81 456h-232l-81 -453q-12 -72 -93 -72t-69 72l81 453h-232l-75 -420q-24 -135 45 -220t219 -85q154 0 243.5 68.5t112.5 200.5zM386 925l-206 -174h206l48 50l27 -50h215l-146 174h-144z" />
    <glyph glyph-name="Udieresis" unicode="&#xdc;" horiz-adv-x="694" 
d="M105 709l-75 -420q-24 -135 45 -220t219 -85q154 0 243.5 68.5t112.5 200.5l81 456h-232l-81 -453q-12 -72 -93 -72t-69 72l81 453h-232zM348 926q-18 0 -35 -7t-31 -19t-24 -28t-13 -34q-8 -37 12.5 -62.5t56.5 -25.5q18 0 35 7t31 19t24 28t13 34q8 37 -12.5 62.5
t-56.5 25.5zM638 838q8 37 -12.5 62.5t-56.5 25.5q-18 0 -35 -7t-31 -19t-24 -28t-13 -34q-8 -37 12.5 -62.5t56.5 -25.5q18 0 35 7t31 19t24 28t13 34z" />
    <glyph glyph-name="Yacute" unicode="&#xdd;" horiz-adv-x="691" 
d="M52 710l173 -438l-48 -272h232l48 274l329 436h-256l-153 -215l-70 215h-255zM502 943l-226 -117l53 -82l268 68z" />
    <glyph glyph-name="Thorn" unicode="&#xde;" horiz-adv-x="639" 
d="M217 0l16 90h81q64 0 118.5 17t96 50t69 81t37.5 109q23 129 -39 205q-61 78 -187 78h-81l14 80h-231l-125 -710h231zM341 429h7q31 0 42.5 -21.5t7 -47.5t-24 -47.5t-50.5 -21.5h-7h-49l25 138h49z" />
    <glyph glyph-name="germandbls" unicode="&#xdf;" horiz-adv-x="612" 
d="M507 390l1 5q23 14 40 28.5t29 31.5t20 37.5t12 47.5q8 48 -2.5 86.5t-40 66t-78 42.5t-116.5 15q-261 0 -298 -214l-95 -536h219l90 510q7 40 49 40q44 0 38 -35q-6 -37 -34 -37h-37l-35 -196h50q23 -1 29 -10t2 -31q-4 -21 -14 -30t-31 -10h-50l-36 -201h84
q240 0 276 208q7 41 5.5 70t-11 50.5t-26 36t-40.5 25.5z" />
    <glyph glyph-name="agrave" unicode="&#xe0;" horiz-adv-x="549" 
d="M469 22l82 460l-38 18q-73 35 -199 35q-129 0 -200 -52.5t-91 -166.5l-16 -92q-19 -110 28.5 -174.5t163.5 -64.5q126 0 228 26zM182 635l240 -78l85 80l-179 123zM243 318q6 30 40 30q10 0 20 -2l4 -1l-30 -172l-29 -2q-30 0 -26 27z" />
    <glyph glyph-name="aacute" unicode="&#xe1;" horiz-adv-x="549" 
d="M469 22l82 460l-38 18q-73 35 -199 35q-129 0 -200 -52.5t-91 -166.5l-16 -92q-19 -110 28.5 -174.5t163.5 -64.5q126 0 228 26zM178 636l58 -79l266 78l-100 125zM243 318q6 30 40 30q10 0 20 -2l4 -1l-30 -172l-29 -2q-30 0 -26 27z" />
    <glyph glyph-name="acircumflex" unicode="&#xe2;" horiz-adv-x="549" 
d="M469 22l82 460l-38 18q-73 35 -199 35q-129 0 -200 -52.5t-91 -166.5l-16 -92q-19 -110 28.5 -174.5t163.5 -64.5q126 0 228 26zM345 618l27 -50h208l-146 174h-135l-206 -174h204zM243 318q6 30 40 30q10 0 20 -2l4 -1l-30 -172l-29 -2q-30 0 -26 27z" />
    <glyph glyph-name="atilde" unicode="&#xe3;" horiz-adv-x="549" 
d="M314 535q-129 0 -200 -52.5t-91 -166.5l-16 -92q-19 -110 28.5 -174.5t163.5 -64.5q126 0 228 26l42 11l82 460l-38 18q-73 35 -199 35zM325 596q40 -17 86 -17q52 0 83.5 29t43.5 99l4 24h-118l-3 -18q-3 -16 -16 -16q-7 0 -49 17t-88 17q-102 0 -125 -128l-4 -24h119
l3 18q3 16 16 16q8 0 48 -17zM277 173l-29 -2q-30 0 -26 27l21 120q6 30 40 30q10 0 20 -2l4 -1z" />
    <glyph glyph-name="adieresis" unicode="&#xe4;" horiz-adv-x="549" 
d="M469 22l82 460l-38 18q-73 35 -199 35q-129 0 -200 -52.5t-91 -166.5l-16 -92q-19 -110 28.5 -174.5t163.5 -64.5q126 0 228 26zM370 655q-8 -37 12.5 -62.5t56.5 -25.5q18 0 35 7t31 19t24 28t13 34q8 37 -12.5 62.5t-56.5 25.5q-18 0 -35 -7t-31 -19t-24 -28t-13 -34z
M149 655q-8 -37 12.5 -62.5t56.5 -25.5q18 0 35 7t31 19t24 28t13 34q8 37 -12.5 62.5t-56.5 25.5q-18 0 -35 -7t-31 -19t-24 -28t-13 -34zM243 318q6 30 40 30q10 0 20 -2l4 -1l-30 -172l-29 -2q-30 0 -26 27z" />
    <glyph glyph-name="aring" unicode="&#xe5;" horiz-adv-x="549" 
d="M469 22l82 460l-38 18q-73 35 -199 35q-129 0 -200 -52.5t-91 -166.5l-16 -92q-19 -110 28.5 -174.5t163.5 -64.5q126 0 228 26zM323 560q63 0 106.5 32t53.5 89t-22 89.5t-95 32.5q-64 0 -109 -31t-55 -91q-10 -58 23.5 -89.5t97.5 -31.5zM243 318q6 30 40 30
q10 0 20 -2l4 -1l-30 -172l-29 -2q-30 0 -26 27zM373 681q-5 -29 -34 -29q-15 0 -22.5 8t-5.5 21q5 30 38 30q29 0 24 -30z" />
    <glyph glyph-name="ae" unicode="&#xe6;" horiz-adv-x="766" 
d="M262 321q-67 0 -115 -8t-80.5 -26t-50 -48.5t-24.5 -75.5q-14 -87 34.5 -132.5t171.5 -45.5q69 0 138 27q51 -27 118 -27q170 0 234 99l25 39l-146 76l-19 -25q-7 -7 -12 -12.5t-11.5 -9.5t-16 -6.5t-24.5 -4.5q-38 0 -29 51l3 17q20 -2 46.5 -3t58.5 -1q39 0 73.5 10.5
t61.5 30.5t44.5 48t23.5 62q15 88 -39.5 133.5t-171.5 45.5q-75 0 -146 -43q-46 43 -118 43q-42 0 -76 -6t-61 -18.5t-49 -32.5t-42 -47l-21 -30l164 -69l9 13q2 3 4.5 7t5.5 7q6 8 14 14t20 6q30 0 26 -28l-4 -30h-19zM482 347q8 44 42 44q16 0 23 -8t5 -20q-5 -26 -35 -26
q-7 0 -16 0.5t-20 1.5zM200 153q6 33 39 33h17l-2 -10q-4 -25 -1 -52q-8 -1 -15 -1.5t-12 -0.5q-14 0 -21.5 8.5t-4.5 22.5z" />
    <glyph glyph-name="ccedilla" unicode="&#xe7;" horiz-adv-x="520" 
d="M284 196q-11 -20 -19.5 -25t-22.5 -5q-26 0 -20 35l20 118q8 36 34 36q14 0 21.5 -5.5t12.5 -25.5l7 -34l205 66l-5 33q-11 66 -60.5 106t-142.5 40q-252 0 -291 -219l-16 -93q-17 -101 22 -163t139 -73l-63 -102h47q27 0 35.5 -4.5t6.5 -15.5q-3 -20 -32 -20t-54 16
l-37 23l-19 -108l30 -10q35 -11 76 -11q146 0 175 101q12 43 -4.5 71.5t-59.5 29.5h-10l18 33q134 22 205 138l23 39l-202 63z" />
    <glyph glyph-name="egrave" unicode="&#xe8;" horiz-adv-x="547" 
d="M322 172q-12 -13 -24 -20t-43 -10q-43 0 -34 50l3 17q22 -2 51 -3t65 -1q87 0 142 41t63 108q11 91 -49 136t-180 45q-123 0 -199 -56.5t-94 -159.5l-17 -97q-9 -54 -0.5 -98t36 -74.5t74 -47.5t112.5 -17q176 0 248 101l21 29l-159 74zM507 637l-179 123l-146 -125
l240 -78zM248 347q9 44 48 44q38 0 34 -28t-42 -28q-9 0 -19.5 0.5t-22.5 1.5z" />
    <glyph glyph-name="eacute" unicode="&#xe9;" horiz-adv-x="547" 
d="M322 172q-12 -13 -24 -20t-43 -10q-43 0 -34 50l3 17q22 -2 51 -3t65 -1q87 0 142 41t63 108q11 91 -49 136t-180 45q-123 0 -199 -56.5t-94 -159.5l-17 -97q-9 -54 -0.5 -98t36 -74.5t74 -47.5t112.5 -17q176 0 248 101l21 29l-159 74zM502 635l-100 125l-224 -124
l58 -79zM248 347q9 44 48 44q38 0 34 -28t-42 -28q-9 0 -19.5 0.5t-22.5 1.5z" />
    <glyph glyph-name="ecircumflex" unicode="&#xea;" horiz-adv-x="547" 
d="M316 535q-123 0 -199 -56.5t-94 -159.5l-17 -97q-9 -54 -0.5 -98t36 -74.5t74 -47.5t112.5 -17q176 0 248 101l21 29l-159 74l-16 -17q-12 -13 -24 -20t-43 -10q-43 0 -34 50l3 17q22 -2 51 -3t65 -1q87 0 142 41t63 108q11 91 -49 136t-180 45zM345 618l27 -50h208
l-146 174h-135l-206 -174h204zM248 347q9 44 48 44q38 0 34 -28t-42 -28q-9 0 -19.5 0.5t-22.5 1.5z" />
    <glyph glyph-name="edieresis" unicode="&#xeb;" horiz-adv-x="547" 
d="M316 535q-123 0 -199 -56.5t-94 -159.5l-17 -97q-9 -54 -0.5 -98t36 -74.5t74 -47.5t112.5 -17q176 0 248 101l21 29l-159 74l-16 -17q-12 -13 -24 -20t-43 -10q-43 0 -34 50l3 17q22 -2 51 -3t65 -1q87 0 142 41t63 108q11 91 -49 136t-180 45zM370 655
q-8 -37 12.5 -62.5t56.5 -25.5q18 0 35 7t31 19t24 28t13 34q8 37 -12.5 62.5t-56.5 25.5q-18 0 -35 -7t-31 -19t-24 -28t-13 -34zM149 655q-8 -37 12.5 -62.5t56.5 -25.5q18 0 35 7t31 19t24 28t13 34q8 37 -12.5 62.5t-56.5 25.5q-18 0 -35 -7t-31 -19t-24 -28t-13 -34z
M248 347q9 44 48 44q38 0 34 -28t-42 -28q-9 0 -19.5 0.5t-22.5 1.5z" />
    <glyph glyph-name="igrave" unicode="&#xec;" horiz-adv-x="286" 
d="M-20 0h220l92 520h-220zM48 650l227 -100l79 76l-175 132z" />
    <glyph glyph-name="iacute" unicode="&#xed;" horiz-adv-x="286" 
d="M-20 0h220l92 520h-220zM246 763l-216 -142l68 -71l261 100z" />
    <glyph glyph-name="icircumflex" unicode="&#xee;" horiz-adv-x="286" 
d="M-20 0h220l92 520h-220zM-51 567h201l48 49l27 -49h202l-144 170h-133z" />
    <glyph glyph-name="idieresis" unicode="&#xef;" horiz-adv-x="286" 
d="M-20 0h220l92 520h-220zM10 655q-8 -37 12.5 -62.5t56.5 -25.5q18 0 35 7t31 19t24 28t13 34q8 37 -12.5 62.5t-56.5 25.5q-18 0 -35 -7t-31 -19t-24 -28t-13 -34zM231 655q-8 -37 12.5 -62.5t56.5 -25.5q18 0 35 7t31 19t24 28t13 34q8 37 -12.5 62.5t-56.5 25.5
q-18 0 -35 -7t-31 -19t-24 -28t-13 -34z" />
    <glyph glyph-name="eth" unicode="&#xf0;" horiz-adv-x="562" 
d="M360 541q27 -29 23 -71q-40 15 -98 15q-109 0 -179 -47t-87 -143l-15 -81q-20 -108 35.5 -168.5t182.5 -60.5t201.5 56t93.5 162l29 166q40 226 -34 309l50 46l-58 53l-58 -56q-72 23 -241 23h-43l-31 -170h44q45 0 73.5 -0.5t40.5 -1.5l-42 -40l60 -39zM298 203
q-6 -32 -44 -32q-39 0 -33 32l15 84q5 33 45 33q37 0 32 -33z" />
    <glyph glyph-name="ntilde" unicode="&#xf1;" 
d="M310 304q0 -2 -1 -3l-53 -301h220l56 311q19 109 -29 166.5t-167 57.5q-122 0 -227 -39l-46 -18l-85 -478h220l60 336l3 1q3 0 8 0.5t11 0.5q20 0 26.5 -7.5t3.5 -26.5zM319 596q40 -17 86 -17q52 0 83.5 29t43.5 99l4 24h-118l-3 -18q-3 -16 -16 -16q-7 0 -49 17t-88 17
q-102 0 -125 -128l-4 -24h119l3 18q3 16 16 16q8 0 48 -17z" />
    <glyph glyph-name="ograve" unicode="&#xf2;" horiz-adv-x="554" 
d="M6 221q-18 -108 37 -172t178 -64q128 0 203 57t94 163l16 96q18 108 -37 171t-180 63q-127 0 -201.5 -56t-93.5 -162zM323 760l-146 -125l240 -78l85 80zM253 171q-38 0 -32 32l20 114q6 33 44 33q39 0 33 -33l-20 -114q-6 -32 -45 -32z" />
    <glyph glyph-name="oacute" unicode="&#xf3;" horiz-adv-x="554" 
d="M6 221q-18 -108 37 -172t178 -64q128 0 203 57t94 163l16 96q18 108 -37 171t-180 63q-127 0 -201.5 -56t-93.5 -162zM395 760l-224 -124l58 -79l266 78zM253 171q-38 0 -32 32l20 114q6 33 44 33q39 0 33 -33l-20 -114q-6 -32 -45 -32z" />
    <glyph glyph-name="ocircumflex" unicode="&#xf4;" horiz-adv-x="554" 
d="M22 317l-16 -96q-18 -108 37 -172t178 -64q128 0 203 57t94 163l16 96q18 108 -37 171t-180 63q-127 0 -201.5 -56t-93.5 -162zM574 568l-146 174h-135l-206 -174h204l48 50l27 -50h208zM253 171q-38 0 -32 32l20 114q6 33 44 33q39 0 33 -33l-20 -114q-6 -32 -45 -32z
" />
    <glyph glyph-name="otilde" unicode="&#xf5;" horiz-adv-x="554" 
d="M534 301q18 108 -37 171t-180 63q-127 0 -201.5 -56t-93.5 -162l-16 -96q-18 -108 37 -172t178 -64q128 0 203 57t94 163zM319 596q40 -17 86 -17q52 0 83.5 29t43.5 99l4 24h-118l-3 -18q-3 -16 -16 -16q-7 0 -49 17t-88 17q-102 0 -125 -128l-4 -24h119l3 18
q3 16 16 16q8 0 48 -17zM253 171q-38 0 -32 32l20 114q6 33 44 33q39 0 33 -33l-20 -114q-6 -32 -45 -32z" />
    <glyph glyph-name="odieresis" unicode="&#xf6;" horiz-adv-x="554" 
d="M518 205l16 96q18 108 -37 171t-180 63q-127 0 -201.5 -56t-93.5 -162l-16 -96q-18 -108 37 -172t178 -64q128 0 203 57t94 163zM433 567q18 0 35 7t31 19t24 28t13 34q8 37 -12.5 62.5t-56.5 25.5q-18 0 -35 -7t-31 -19t-24 -28t-13 -34q-8 -37 12.5 -62.5t56.5 -25.5z
M143 655q-8 -37 12.5 -62.5t56.5 -25.5q18 0 35 7t31 19t24 28t13 34q8 37 -12.5 62.5t-56.5 25.5q-18 0 -35 -7t-31 -19t-24 -28t-13 -34zM253 171q-38 0 -32 32l20 114q6 33 44 33q39 0 33 -33l-20 -114q-6 -32 -45 -32z" />
    <glyph glyph-name="divide" unicode="&#xf7;" horiz-adv-x="564" 
d="M10 228h520l34 196h-520zM193 454h232l30 165h-232zM117 33h232l30 165h-232z" />
    <glyph glyph-name="oslash" unicode="&#xf8;" horiz-adv-x="555" 
d="M318 535q-127 0 -201.5 -56t-93.5 -162l-16 -96q-20 -113 39 -175l-66 -81h113l28 35q44 -15 101 -15q128 0 203 57t94 163l16 96q18 107 -35 169l68 82h-113l-28 -34q-48 17 -109 17zM249 357q6 33 44 33q26 0 32 -15l-93 -115q0 5 2 15zM292 163q-6 -32 -45 -32
q-22 0 -30 12l91 112q0 -2 -2 -12z" />
    <glyph glyph-name="ugrave" unicode="&#xf9;" 
d="M433 24l46 17l85 479h-220l-59 -336l-7 -1q-4 -1 -8 -1h-8q-20 0 -26.5 7t-2.5 27v3l53 301h-220l-53 -300q-19 -109 28.5 -172t164.5 -63q124 0 227 39zM177 635l240 -78l85 80l-179 123z" />
    <glyph glyph-name="uacute" unicode="&#xfa;" 
d="M428 24l46 17l85 479h-220l-59 -336l-7 -1q-4 -1 -8 -1h-8q-20 0 -26.5 7t-2.5 27v3l53 301h-220l-53 -300q-19 -109 28.5 -172t164.5 -63q124 0 227 39zM171 636l58 -79l266 78l-100 125z" />
    <glyph glyph-name="ucircumflex" unicode="&#xfb;" 
d="M479 41l85 479h-220l-59 -336l-7 -1q-4 -1 -8 -1h-8q-20 0 -26.5 7t-2.5 27v3l53 301h-220l-53 -300q-19 -109 28.5 -172t164.5 -63q124 0 227 39zM574 568l-146 174h-135l-206 -174h204l48 50l27 -50h208z" />
    <glyph glyph-name="udieresis" unicode="&#xfc;" 
d="M479 41l85 479h-220l-59 -336l-7 -1q-4 -1 -8 -1h-8q-20 0 -26.5 7t-2.5 27v3l53 301h-220l-53 -300q-19 -109 28.5 -172t164.5 -63q124 0 227 39zM143 655q-8 -37 12.5 -62.5t56.5 -25.5q18 0 35 7t31 19t24 28t13 34q8 37 -12.5 62.5t-56.5 25.5q-18 0 -35 -7t-31 -19
t-24 -28t-13 -34zM433 567q18 0 35 7t31 19t24 28t13 34q8 37 -12.5 62.5t-56.5 25.5q-18 0 -35 -7t-31 -19t-24 -28t-13 -34q-8 -37 12.5 -62.5t56.5 -25.5z" />
    <glyph glyph-name="yacute" unicode="&#xfd;" horiz-adv-x="559" 
d="M238 249l48 271h-220l-47 -265q-10 -55 -3 -99.5t31 -75.5t65 -48t99 -17h26t18 1l-6 -36q-8 -38 -40 -38q-14 0 -21 5.5t-12 13.5l-18 29l-194 -88l11 -26q13 -28 30.5 -48t42.5 -33t57.5 -19t74.5 -6q250 0 292 229l92 521h-220l-54 -307q-4 -1 -9.5 -1h-12.5
q-20 0 -27 7t-3 27v3zM495 635l-100 125l-224 -124l58 -79z" />
    <glyph glyph-name="thorn" unicode="&#xfe;" horiz-adv-x="552" 
d="M161 -219l36 205q7 0 21 -0.5t22 -0.5q234 0 274 223l16 92q19 109 -30.5 172t-169.5 63h-21t-15 -1l37 206h-221l-169 -959h220zM260 344q9 4 28 4q31 0 26 -27l-21 -120q-6 -30 -40 -30q-12 0 -23 3z" />
    <glyph glyph-name="ydieresis" unicode="&#xff;" horiz-adv-x="559" 
d="M238 249l48 271h-220l-47 -265q-10 -55 -3 -99.5t31 -75.5t65 -48t99 -17h26t18 1l-6 -36q-8 -38 -40 -38q-14 0 -21 5.5t-12 13.5l-18 29l-194 -88l11 -26q13 -28 30.5 -48t42.5 -33t57.5 -19t74.5 -6q250 0 292 229l92 521h-220l-54 -307q-4 -1 -9.5 -1h-12.5
q-20 0 -27 7t-3 27v3zM315 655q8 37 -12.5 62.5t-56.5 25.5q-18 0 -35 -7t-31 -19t-24 -28t-13 -34q-8 -37 12.5 -62.5t56.5 -25.5q18 0 35 7t31 19t24 28t13 34zM364 655q-8 -37 12.5 -62.5t56.5 -25.5q18 0 35 7t31 19t24 28t13 34q8 37 -12.5 62.5t-56.5 25.5
q-18 0 -35 -7t-31 -19t-24 -28t-13 -34z" />
    <glyph glyph-name="Amacron" unicode="&#x100;" horiz-adv-x="704" 
d="M178 0l44 97h188l9 -97h247l-127 710h-231l-376 -710h246zM294 901l-22 -125h328l22 125h-328zM377 440l16 -161h-89z" />
    <glyph glyph-name="amacron" unicode="&#x101;" horiz-adv-x="549" 
d="M551 482l-38 18q-73 35 -199 35q-129 0 -200 -52.5t-91 -166.5l-16 -92q-19 -110 28.5 -174.5t163.5 -64.5q126 0 228 26l42 11zM497 588l22 125h-328l-22 -125h328zM243 318q6 30 40 30q10 0 20 -2l4 -1l-30 -172l-29 -2q-30 0 -26 27z" />
    <glyph glyph-name="Abreve" unicode="&#x102;" horiz-adv-x="704" 
d="M222 97h188l9 -97h247l-127 710h-231l-376 -710h246zM528 936l-18 -21q-24 -27 -56 -27q-34 0 -49 27q-1 2 -3 5t-4 7t-5 9l-140 -49l6 -26q23 -110 171 -110q142 0 205 102q1 1 3.5 6.5t6.5 11.5q4 7 9 16zM393 279h-89l73 161z" />
    <glyph glyph-name="abreve" unicode="&#x103;" horiz-adv-x="549" 
d="M314 535q-129 0 -200 -52.5t-91 -166.5l-16 -92q-19 -110 28.5 -174.5t163.5 -64.5q126 0 228 26l42 11l82 460l-38 18q-73 35 -199 35zM330 567q142 0 205 102q1 1 4 6.5t6 11.5q4 7 9 16l-125 49l-19 -21q-24 -27 -56 -27q-34 0 -49 27q-1 2 -3 5t-4 7t-5 9l-139 -49
l5 -26q23 -110 171 -110zM243 318q6 30 40 30q10 0 20 -2l4 -1l-30 -172l-29 -2q-30 0 -26 27z" />
    <glyph glyph-name="Aogonek" unicode="&#x104;" horiz-adv-x="704" 
d="M597 -120q-12 -6 -20 -6q-15 0 -14 18q5 49 77 108h26l-127 710h-231l-376 -710h246l44 97h188l9 -97h76q-107 -92 -104 -177q3 -69 103 -69q72 0 127 34l20 12l-24 90zM393 279h-89l73 161z" />
    <glyph glyph-name="aogonek" unicode="&#x105;" horiz-adv-x="550" 
d="M383 -126q-15 0 -14 18q6 56 88 132l15 13l79 445l-38 18q-73 35 -199 35q-129 0 -200 -52.5t-91 -166.5l-16 -92q-19 -110 28.5 -174.5t163.5 -64.5q46 0 88 3q-90 -81 -90 -165q0 -69 103 -69q72 0 127 34l20 12l-24 90l-20 -10q-12 -6 -20 -6zM243 318q6 30 40 30
q10 0 20 -2l4 -1l-30 -172l-29 -2q-30 0 -26 27z" />
    <glyph glyph-name="Cacute" unicode="&#x106;" horiz-adv-x="654" 
d="M456 467l6 -31l220 75q-2 8 -3 14q-1 5 -2 9.5t-1 5.5q-36 185 -258 185q-155 0 -249 -69.5t-117 -203.5l-29 -166q-12 -68 0.5 -123.5t47 -95t90.5 -61t131 -21.5q236 0 334 176l19 36l-208 80l-19 -34q-31 -57 -94 -57q-51 0 -65.5 20t-6.5 68l29 162q9 48 30.5 68
t72.5 20q35 0 50.5 -13t21.5 -44zM499 943l-226 -117l53 -82l268 68z" />
    <glyph glyph-name="cacute" unicode="&#x107;" horiz-adv-x="520" 
d="M482 128l23 39l-202 63l-19 -34q-11 -20 -19.5 -25t-22.5 -5q-26 0 -20 35l20 118q8 36 34 36q14 0 21.5 -5.5t12.5 -25.5l7 -34l205 66l-5 33q-11 66 -60.5 106t-142.5 40q-252 0 -291 -219l-16 -93q-19 -111 30.5 -174.5t173.5 -63.5q185 0 271 143zM480 635l-100 125
l-224 -124l58 -79z" />
    <glyph glyph-name="Ccircumflex" unicode="&#x108;" horiz-adv-x="654" 
d="M645 197l-208 80l-19 -34q-31 -57 -94 -57q-51 0 -65.5 20t-6.5 68l29 162q9 48 30.5 68t72.5 20q35 0 50.5 -13t21.5 -44l6 -31l220 75q-2 8 -3 14q-1 5 -2 9.5t-1 5.5q-36 185 -258 185q-155 0 -249 -69.5t-117 -203.5l-29 -166q-12 -68 0.5 -123.5t47 -95t90.5 -61
t131 -21.5q236 0 334 176zM458 751h215l-146 174h-144l-206 -174h206l48 50z" />
    <glyph glyph-name="ccircumflex" unicode="&#x109;" horiz-adv-x="520" 
d="M317 290l205 66l-5 33q-11 66 -60.5 106t-142.5 40q-252 0 -291 -219l-16 -93q-19 -111 30.5 -174.5t173.5 -63.5q185 0 271 143l23 39l-202 63l-19 -34q-11 -20 -19.5 -25t-22.5 -5q-26 0 -20 35l20 118q8 36 34 36q14 0 21.5 -5.5t12.5 -25.5zM324 618l27 -50h208
l-146 174h-135l-206 -174h204z" />
    <glyph glyph-name="Cdotaccent" unicode="&#x10a;" horiz-adv-x="654" 
d="M456 467l6 -31l220 75q-2 8 -3 14q-1 5 -2 9.5t-1 5.5q-36 185 -258 185q-155 0 -249 -69.5t-117 -203.5l-29 -166q-12 -68 0.5 -123.5t47 -95t90.5 -61t131 -21.5q236 0 334 176l19 36l-208 80l-19 -34q-31 -57 -94 -57q-51 0 -65.5 20t-6.5 68l29 162q9 48 30.5 68
t72.5 20q35 0 50.5 -13t21.5 -44zM524 839q8 37 -12 62.5t-56 25.5q-18 0 -35 -7t-31.5 -19t-24.5 -28t-14 -34q-8 -37 12.5 -62.5t56.5 -25.5q18 0 35 7t31 19t24 28t14 34z" />
    <glyph glyph-name="cdotaccent" unicode="&#x10b;" horiz-adv-x="520" 
d="M482 128l23 39l-202 63l-19 -34q-11 -20 -19.5 -25t-22.5 -5q-26 0 -20 35l20 118q8 36 34 36q14 0 21.5 -5.5t12.5 -25.5l7 -34l205 66l-5 33q-11 66 -60.5 106t-142.5 40q-252 0 -291 -219l-16 -93q-19 -111 30.5 -174.5t173.5 -63.5q185 0 271 143zM410 658
q8 37 -12 62.5t-56 25.5q-18 0 -35 -7t-31.5 -19t-24.5 -28t-14 -34q-8 -37 12.5 -62.5t56.5 -25.5q18 0 35 7t31 19t24 28t14 34z" />
    <glyph glyph-name="Ccaron" unicode="&#x10c;" horiz-adv-x="654" 
d="M456 467l6 -31l220 75q-2 8 -3 14q-1 5 -2 9.5t-1 5.5q-36 185 -258 185q-155 0 -249 -69.5t-117 -203.5l-29 -166q-12 -68 0.5 -123.5t47 -95t90.5 -61t131 -21.5q236 0 334 176l19 36l-208 80l-19 -34q-31 -57 -94 -57q-51 0 -65.5 20t-6.5 68l29 162q9 48 30.5 68
t72.5 20q35 0 50.5 -13t21.5 -44zM503 926l-48 -48l-29 48h-210l142 -174h136l202 174h-193z" />
    <glyph glyph-name="ccaron" unicode="&#x10d;" horiz-adv-x="520" 
d="M317 290l205 66l-5 33q-11 66 -60.5 106t-142.5 40q-252 0 -291 -219l-16 -93q-19 -111 30.5 -174.5t173.5 -63.5q185 0 271 143l23 39l-202 63l-19 -34q-11 -20 -19.5 -25t-22.5 -5q-26 0 -20 35l20 118q8 36 34 36q14 0 21.5 -5.5t12.5 -25.5zM385 741l-48 -48l-29 48
h-210l142 -174h136l202 174h-193z" />
    <glyph glyph-name="Dcaron" unicode="&#x10e;" horiz-adv-x="680" 
d="M112 710l-126 -710h297q156 0 250 69t117 204l23 129q12 69 0.5 126t-45.5 97.5t-89.5 62.5t-130.5 22h-296zM668 926h-193l-48 -48l-29 48h-210l142 -174h136zM254 201l54 309h53q54 0 72.5 -23.5t9.5 -72.5l-20 -117q-9 -51 -35.5 -73.5t-80.5 -22.5h-53z" />
    <glyph glyph-name="dcaron" unicode="&#x10f;" horiz-adv-x="670" 
d="M206 -15q122 0 220 37l46 17l124 701h-220l-37 -206q-7 0 -21 0.5t-22 0.5q-118 0 -185 -50t-87 -162l-16 -92q-10 -55 -2.5 -100.5t32 -78t66.5 -50t102 -17.5zM635 740l-53 -239h139l93 239h-179zM243 319q6 30 40 30q13 0 23 -3l-30 -172l-28 -2q-30 0 -26 27z" />
    <glyph glyph-name="Dcroat" unicode="&#x110;" horiz-adv-x="716" 
d="M148 710l-50 -281h-67l-27 -150h67l-49 -279h297q155 0 250 71.5t118 206.5l23 129q12 69 0 124.5t-46 95.5t-89.5 61.5t-130.5 21.5h-296zM459 297q-9 -51 -35.5 -73.5t-80.5 -22.5h-53l13 78h84l27 150h-84l14 81h53q54 0 72.5 -23.5t9.5 -72.5z" />
    <glyph glyph-name="dcroat" unicode="&#x111;" horiz-adv-x="550" 
d="M567 578h65l20 110h-65l9 52h-220l-10 -52h-96l-20 -110h97l-8 -44q-7 0 -21 0.5t-22 0.5q-234 0 -273 -219l-16 -92q-20 -110 29.5 -174.5t169.5 -64.5q122 0 220 37l46 17zM243 319q6 30 40 30q13 0 23 -3l-30 -172l-28 -2q-30 0 -26 27z" />
    <glyph glyph-name="Emacron" unicode="&#x112;" horiz-adv-x="592" 
d="M112 710l-126 -710h532l33 201h-297l10 57h235l36 200h-236l9 52h294l33 200h-523zM221 776h328l22 125h-328z" />
    <glyph glyph-name="emacron" unicode="&#x113;" horiz-adv-x="547" 
d="M322 172q-12 -13 -24 -20t-43 -10q-43 0 -34 50l3 17q22 -2 51 -3t65 -1q87 0 142 41t63 108q11 91 -49 136t-180 45q-123 0 -199 -56.5t-94 -159.5l-17 -97q-9 -54 -0.5 -98t36 -74.5t74 -47.5t112.5 -17q176 0 248 101l21 29l-159 74zM495 588l22 125h-328l-22 -125
h328zM248 347q9 44 48 44q38 0 34 -28t-42 -28q-9 0 -19.5 0.5t-22.5 1.5z" />
    <glyph glyph-name="Ebreve" unicode="&#x114;" horiz-adv-x="592" 
d="M602 510l33 200h-523l-126 -710h532l33 201h-297l10 57h235l36 200h-236l9 52h294zM480 936l-19 -21q-24 -27 -56 -27q-34 0 -49 27q-1 2 -3 5t-4 7t-5 9l-139 -49l5 -26q23 -110 171 -110q142 0 205 102q1 1 4 6.5t6 11.5q4 7 9 16z" />
    <glyph glyph-name="ebreve" unicode="&#x115;" horiz-adv-x="547" 
d="M316 535q-123 0 -199 -56.5t-94 -159.5l-17 -97q-9 -54 -0.5 -98t36 -74.5t74 -47.5t112.5 -17q176 0 248 101l21 29l-159 74l-16 -17q-12 -13 -24 -20t-43 -10q-43 0 -34 50l3 17q22 -2 51 -3t65 -1q87 0 142 41t63 108q11 91 -49 136t-180 45zM353 704q-35 0 -49 27
q-1 2 -3 5t-4 7t-5 9l-140 -49l6 -26q23 -110 171 -110q142 0 205 102q1 1 3.5 6.5t6.5 11.5q4 7 9 16l-126 49l-18 -21q-24 -27 -56 -27zM248 347q9 44 48 44q38 0 34 -28t-42 -28q-9 0 -19.5 0.5t-22.5 1.5z" />
    <glyph glyph-name="Edotaccent" unicode="&#x116;" horiz-adv-x="592" 
d="M112 710l-126 -710h532l33 201h-297l10 57h235l36 200h-236l9 52h294l33 200h-523zM310 839q-8 -37 12.5 -62.5t56.5 -25.5q18 0 35 7t31 19t24 28t14 34q8 37 -12 62.5t-56 25.5q-18 0 -35 -7t-31.5 -19t-24.5 -28t-14 -34z" />
    <glyph glyph-name="edotaccent" unicode="&#x117;" horiz-adv-x="547" 
d="M322 172q-12 -13 -24 -20t-43 -10q-43 0 -34 50l3 17q22 -2 51 -3t65 -1q87 0 142 41t63 108q11 91 -49 136t-180 45q-123 0 -199 -56.5t-94 -159.5l-17 -97q-9 -54 -0.5 -98t36 -74.5t74 -47.5t112.5 -17q176 0 248 101l21 29l-159 74zM326 570q18 0 35 7t31 19t24 28
t14 34q8 37 -12 62.5t-56 25.5q-18 0 -35 -7t-31.5 -19t-24.5 -28t-14 -34q-8 -37 12.5 -62.5t56.5 -25.5zM248 347q9 44 48 44q38 0 34 -28t-42 -28q-9 0 -19.5 0.5t-22.5 1.5z" />
    <glyph glyph-name="Eogonek" unicode="&#x118;" horiz-adv-x="592" 
d="M476 -212l20 12l-24 90l-20 -10q-12 -6 -20 -6q-15 0 -14 18q6 60 82 112l21 14l30 183h-297l10 57h235l36 200h-236l9 52h294l33 200h-523l-126 -710h364q-107 -92 -104 -177q3 -69 103 -69q72 0 127 34z" />
    <glyph glyph-name="eogonek" unicode="&#x119;" horiz-adv-x="549" 
d="M321 171q-11 -12 -23.5 -19t-42.5 -10q-43 0 -34 50l3 17q22 -2 51 -3t65 -1q87 0 142 41t63 108q11 91 -49 136t-180 45q-123 0 -199 -56.5t-94 -159.5l-17 -97q-9 -54 -0.5 -98t36 -74.5t74 -47.5t112.5 -17h12q-90 -84 -87 -162q3 -69 103 -69q72 0 127 34l20 12
l-24 90l-20 -10q-12 -6 -20 -6q-15 0 -14 18q6 58 114 153q12 11 21 21t15 19l20 29l-158 74zM248 347q9 44 48 44q38 0 34 -28t-42 -28q-9 0 -19.5 0.5t-22.5 1.5z" />
    <glyph glyph-name="Ecaron" unicode="&#x11a;" horiz-adv-x="592" 
d="M518 0l33 201h-297l10 57h235l36 200h-236l9 52h294l33 200h-523l-126 -710h532zM384 926h-210l142 -174h136l202 174h-193l-48 -48z" />
    <glyph glyph-name="ecaron" unicode="&#x11b;" horiz-adv-x="547" 
d="M322 172q-12 -13 -24 -20t-43 -10q-43 0 -34 50l3 17q22 -2 51 -3t65 -1q87 0 142 41t63 108q11 91 -49 136t-180 45q-123 0 -199 -56.5t-94 -159.5l-17 -97q-9 -54 -0.5 -98t36 -74.5t74 -47.5t112.5 -17q176 0 248 101l21 29l-159 74zM357 693l-29 48h-210l142 -174
h136l202 174h-193zM248 347q9 44 48 44q38 0 34 -28t-42 -28q-9 0 -19.5 0.5t-22.5 1.5z" />
    <glyph glyph-name="Gcircumflex" unicode="&#x11c;" horiz-adv-x="683" 
d="M678 539q-34 186 -262 186q-155 0 -248 -69t-116 -204l-28 -160q-24 -136 47 -222q70 -85 221 -85q75 0 137 17t107.5 48.5t74.5 76t39 100.5l33 187h-350l-31 -175h115v-4q-9 -49 -93 -49q-51 0 -65.5 20t-6.5 68l29 162q9 48 30.5 68t72.5 20q35 0 52 -11.5t23 -38.5
l7 -32l219 62zM434 811l27 -50h215l-146 174h-144l-206 -174h206z" />
    <glyph glyph-name="gcircumflex" unicode="&#x11d;" horiz-adv-x="551" 
d="M314 535q-130 0 -200.5 -52t-90.5 -166l-12 -67q-19 -111 28.5 -173.5t164.5 -62.5q8 0 19 0.5t25 1.5l-6 -36q-8 -38 -40 -38q-17 0 -25.5 9.5t-13.5 19.5l-10 19l-197 -88l11 -25q51 -112 211 -112q247 0 287 232l86 485l-38 18q-73 35 -199 35zM295 568l48 50l27 -50
h208l-146 174h-135l-206 -174h204zM253 200q-30 0 -26 27l16 91q6 30 40 30h23l-25 -144z" />
    <glyph glyph-name="Gbreve" unicode="&#x11e;" horiz-adv-x="683" 
d="M678 539q-34 186 -262 186q-155 0 -248 -69t-116 -204l-28 -160q-24 -136 47 -222q70 -85 221 -85q75 0 137 17t107.5 48.5t74.5 76t39 100.5l33 187h-350l-31 -175h115v-4q-9 -49 -93 -49q-51 0 -65.5 20t-6.5 68l29 162q9 48 30.5 68t72.5 20q35 0 52 -11.5t23 -38.5
l7 -32l219 62zM450 898q-34 0 -49 27q-1 2 -3 5t-4 7t-5 9l-139 -49l5 -26q23 -110 171 -110q142 0 205 102q1 1 4 6.5t6 11.5q4 7 9 16l-125 49l-19 -21q-24 -27 -56 -27z" />
    <glyph glyph-name="gbreve" unicode="&#x11f;" horiz-adv-x="551" 
d="M314 535q-130 0 -200.5 -52t-90.5 -166l-12 -67q-19 -111 28.5 -173.5t164.5 -62.5q8 0 19 0.5t25 1.5l-6 -36q-8 -38 -40 -38q-17 0 -25.5 9.5t-13.5 19.5l-10 19l-197 -88l11 -25q51 -112 211 -112q247 0 287 232l86 485l-38 18q-73 35 -199 35zM304 732q-1 2 -3 5
t-4 7t-5 9l-140 -50l6 -25q22 -110 171 -110q142 0 205 101q1 2 4 7t6 11q4 7 9 16l-125 50l-19 -21q-24 -27 -56 -27q-34 0 -49 27zM306 348l-25 -144l-28 -4q-30 0 -26 27l16 91q6 30 40 30h23z" />
    <glyph glyph-name="Gdotaccent" unicode="&#x120;" horiz-adv-x="683" 
d="M466 442l219 62l-7 35q-34 186 -262 186q-155 0 -248 -69t-116 -204l-28 -160q-24 -136 47 -222q70 -85 221 -85q75 0 137 17t107.5 48.5t74.5 76t39 100.5l33 187h-350l-31 -175h115v-4q-9 -49 -93 -49q-51 0 -65.5 20t-6.5 68l29 162q9 48 30.5 68t72.5 20
q35 0 52 -11.5t23 -38.5zM424 761q18 0 35 7t31 19t24 28t14 34q8 37 -12 62.5t-56 25.5q-18 0 -35 -7t-31.5 -19t-24.5 -28t-14 -34q-8 -37 12.5 -62.5t56.5 -25.5z" />
    <glyph glyph-name="gdotaccent" unicode="&#x121;" horiz-adv-x="551" 
d="M314 535q-130 0 -200.5 -52t-90.5 -166l-12 -67q-19 -111 28.5 -173.5t164.5 -62.5q8 0 19 0.5t25 1.5l-6 -36q-8 -38 -40 -38q-17 0 -25.5 9.5t-13.5 19.5l-10 19l-197 -88l11 -25q51 -112 211 -112q247 0 287 232l86 485l-38 18q-73 35 -199 35zM362 746q-18 0 -35 -7
t-31.5 -19t-24.5 -28t-14 -34q-8 -37 12.5 -62.5t56.5 -25.5q18 0 35 7t31 19t24 28t14 34q8 37 -12 62.5t-56 25.5zM253 200q-30 0 -26 27l16 91q6 30 40 30h23l-25 -144z" />
    <glyph glyph-name="uni0122" unicode="&#x122;" horiz-adv-x="683" 
d="M678 539q-34 186 -262 186q-155 0 -248 -69t-116 -204l-28 -160q-24 -136 47 -222q70 -85 221 -85q75 0 137 17t107.5 48.5t74.5 76t39 100.5l33 187h-350l-31 -175h115v-4q-9 -49 -93 -49q-51 0 -65.5 20t-6.5 68l29 162q9 48 30.5 68t72.5 20q35 0 52 -11.5t23 -38.5
l7 -32l219 62zM209 -43l-65 -218h146l117 218h-198z" />
    <glyph glyph-name="uni0123" unicode="&#x123;" horiz-adv-x="551" 
d="M314 535q-130 0 -200.5 -52t-90.5 -166l-12 -67q-19 -111 28.5 -173.5t164.5 -62.5q8 0 19 0.5t25 1.5l-6 -36q-8 -38 -40 -38q-17 0 -25.5 9.5t-13.5 19.5l-10 19l-197 -88l11 -25q51 -112 211 -112q247 0 287 232l86 485l-38 18q-73 35 -199 35zM474 772h-145
l-120 -205h206zM253 200q-30 0 -26 27l16 91q6 30 40 30h23l-25 -144z" />
    <glyph glyph-name="Hcircumflex" unicode="&#x124;" horiz-adv-x="693" 
d="M-13 0h232l46 260h148l-46 -260h232l126 711h-232l-45 -251h-148l45 251h-232zM676 751l-146 174h-144l-206 -174h206l48 50l27 -50h215z" />
    <glyph glyph-name="hcircumflex" unicode="&#x125;" horiz-adv-x="559" 
d="M533 311q19 109 -29 166.5t-166 57.5h-26t-18 -1l37 206h-220l-131 -740h218l62 337q5 1 22 1q20 0 26.5 -7t3.5 -27q-1 -1 -1 -3l-53 -301h220zM478 778l-146 174h-135l-206 -174h204l48 50l27 -50h208z" />
    <glyph glyph-name="Hbar" unicode="&#x126;" horiz-adv-x="732" 
d="M349 638l13 73h-232l-13 -73h-59l-22 -120h60l-91 -518h232l46 260h148l-46 -260h232l91 518h59l22 120h-60l13 73h-232l-13 -73h-148zM328 518h148l-10 -58h-148z" />
    <glyph glyph-name="hbar" unicode="&#x127;" horiz-adv-x="559" 
d="M312 304q0 -1 -0.5 -1.5t-0.5 -1.5l-53 -301h220l55 311q20 109 -28 166.5t-167 57.5h-25t-18 -1l7 41h93l20 110h-93l9 55h-220l-10 -55h-56l-20 -110h57l-102 -575h220l60 337q5 1 22 1q20 0 26.5 -7t3.5 -27z" />
    <glyph glyph-name="Itilde" unicode="&#x128;" horiz-adv-x="312" 
d="M112 710l-125 -710h232l125 710h-232zM444 891l4 24h-118l-3 -18q-3 -16 -16 -16q-11 0 -49 17q-42 17 -88 17q-102 0 -125 -128l-4 -24h119l3 18q3 16 16 16q8 0 48 -17q37 -17 86 -17q52 0 83.5 28.5t43.5 99.5z" />
    <glyph glyph-name="itilde" unicode="&#x129;" horiz-adv-x="286" 
d="M72 520l-92 -520h220l92 520h-220zM264 720q-3 -17 -14 -17q-7 0 -39 18q-32 17 -70 17q-87 0 -111 -132l-4 -25h101l3 18q3 17 13 17q6 0 38 -17q32 -18 70 -18q88 0 112 132l5 25h-101z" />
    <glyph glyph-name="Imacron" unicode="&#x12a;" horiz-adv-x="312" 
d="M112 710l-125 -710h232l125 710h-232zM98 901l-22 -125h328l22 125h-328z" />
    <glyph glyph-name="imacron" unicode="&#x12b;" horiz-adv-x="286" 
d="M-20 0h220l92 520h-220zM45 588h287l22 125h-287z" />
    <glyph glyph-name="Ibreve" unicode="&#x12c;" horiz-adv-x="312" 
d="M112 710l-125 -710h232l125 710h-232zM60 887l6 -26q23 -110 171 -110q142 0 205 102q1 1 3.5 6.5t6.5 11.5q4 7 9 16l-126 49l-18 -21q-24 -27 -56 -27q-35 0 -49 27q-1 2 -3 5t-4 7t-5 9z" />
    <glyph glyph-name="ibreve" unicode="&#x12d;" horiz-adv-x="286" 
d="M-20 0h220l92 520h-220zM154 752l-140 -49l5 -26q23 -110 171 -110q142 0 205 102q1 1 4 6.5t6 11.5q4 7 9 16l-125 49l-19 -21q-24 -27 -56 -27q-34 0 -49 27l-2.5 5l-3.5 7t-5 9z" />
    <glyph glyph-name="Iogonek" unicode="&#x12e;" horiz-adv-x="312" 
d="M52 0q-102 -88 -99 -170q2 -42 31.5 -59t71.5 -17q72 0 127 34l20 12l-24 90l-20 -10q-12 -6 -20 -6q-15 0 -14 18q5 52 78 110l19 15l122 693h-232l-125 -710h65z" />
    <glyph glyph-name="iogonek" unicode="&#x12f;" horiz-adv-x="286" 
d="M37 0q-104 -90 -101 -177q1 -69 103 -69q72 0 127 34l20 12l-24 90q-5 -3 -9 -5q-3 -2 -6 -3.5t-5 -1.5q-12 -6 -20 -6q-15 0 -14 18q4 52 79 112l16 13l89 503h-220l-92 -520h57zM319 643q8 34 -19.5 58t-75.5 24q-24 0 -46.5 -6.5t-41 -17.5t-31.5 -26t-17 -32t1.5 -32
t18.5 -26.5t32.5 -18t43.5 -6.5t46.5 6.5t41 18t31 26.5t16.5 32z" />
    <glyph glyph-name="Idotaccent" unicode="&#x130;" horiz-adv-x="312" 
d="M112 710l-125 -710h232l125 710h-232zM165 839q-8 -37 12.5 -62.5t56.5 -25.5q18 0 35 7t31 19t24 28t14 34q8 37 -12 62.5t-56 25.5q-18 0 -35 -7t-31.5 -19t-24.5 -28t-14 -34z" />
    <glyph glyph-name="dotlessi" unicode="&#x131;" horiz-adv-x="286" 
d="M-20 0h220l92 520h-220z" />
    <glyph glyph-name="IJ" unicode="&#x132;" horiz-adv-x="901" 
d="M283 202l8 -40q35 -177 243 -177q141 0 219 61t101 189l84 476h-232l-82 -460q-4 -25 -16.5 -45.5t-41.5 -20.5q-44 0 -58 51q0 1 -1.5 7t-3.5 13q-2 9 -5 19zM112 710l-125 -710h232l125 710h-232z" />
    <glyph glyph-name="ij" unicode="&#x133;" horiz-adv-x="576" 
d="M487 -12l94 532h-220l-91 -515q-9 -46 -54 -46h-41l-33 -189h41q135 0 209 50t95 168zM-20 0h220l92 520h-220zM516 725q-24 0 -47 -6.5t-41.5 -17.5t-31.5 -26t-18 -32q-4 -17 1 -32t18 -26.5t32.5 -18t43.5 -6.5t47 6.5t42 18t32 26.5t17 32q5 17 -0.5 32t-18.5 26
t-32.5 17.5t-43.5 6.5zM88 643q-4 -17 1.5 -32t18 -26.5t32 -18t43.5 -6.5t47 6.5t42 18t32 26.5t17 32q5 17 -0.5 32t-18.5 26t-32.5 17.5t-43.5 6.5t-47 -6.5t-41.5 -17.5t-31.5 -26t-18 -32z" />
    <glyph glyph-name="Jcircumflex" unicode="&#x134;" horiz-adv-x="586" 
d="M183 275l-215 -73l8 -40q35 -177 243 -177q141 0 219 61t101 189l84 476h-232l-82 -460q-4 -25 -16.5 -45.5t-41.5 -20.5q-44 0 -58 51q0 1 -1.5 7t-3.5 13q-2 9 -5 19zM549 751h215l-146 174h-144l-206 -174h206l48 50z" />
    <glyph glyph-name="jcircumflex" unicode="&#x135;" horiz-adv-x="287" 
d="M-113 -41l-33 -189h41q67 0 119.5 12t90 38t61 67.5t33.5 100.5l94 532h-220l-91 -516q-9 -45 -54 -45h-41zM430 567l-143 170h-134l-201 -170h201l48 49l27 -49h202z" />
    <glyph glyph-name="uni0136" unicode="&#x136;" horiz-adv-x="667" 
d="M528 311q-11 31 -27 47l248 352h-255l-177 -252h-18l45 252h-232l-126 -710h232l45 257h9q21 0 34 -42l65 -215h266zM196 -43l-65 -218h146l117 218h-198z" />
    <glyph glyph-name="uni0137" unicode="&#x137;" horiz-adv-x="569" 
d="M445 263l162 257h-227l-103 -171h-16l69 391h-219l-131 -740h219l32 180h3q21 0 24 -21l23 -159h244zM135 -39l-49 -197h146l110 197h-207z" />
    <glyph glyph-name="kgreenlandic" unicode="&#x138;" horiz-adv-x="571" 
d="M70 520l-91 -520h220l19 113l36 38l33 -151h235l-73 334l174 186h-254l-98 -109l19 109h-220z" />
    <glyph glyph-name="Lacute" unicode="&#x139;" horiz-adv-x="550" 
d="M-13 0h499l36 201h-267l90 509h-232zM313 946l-226 -117l52 -82l268 68z" />
    <glyph glyph-name="lacute" unicode="&#x13a;" horiz-adv-x="287" 
d="M110 740l-130 -740h220l130 740h-220zM54 858l51 -85l286 80l-83 134z" />
    <glyph glyph-name="uni013B" unicode="&#x13b;" horiz-adv-x="550" 
d="M-13 0h499l36 201h-267l90 509h-232zM69 -261h146l117 218h-198z" />
    <glyph glyph-name="uni013C" unicode="&#x13c;" horiz-adv-x="287" 
d="M110 740l-130 -740h220l130 740h-220zM-23 -41l-49 -203h154l107 203h-212z" />
    <glyph glyph-name="Lcaron" unicode="&#x13d;" horiz-adv-x="562" 
d="M-13 0h499l36 201h-267l90 509h-232zM361 479h141l131 231h-205z" />
    <glyph glyph-name="lcaron" unicode="&#x13e;" horiz-adv-x="400" 
d="M110 740l-130 -740h220l130 740h-220zM378 741l-50 -224h135l102 224h-187z" />
    <glyph glyph-name="Ldot" unicode="&#x13f;" horiz-adv-x="555" 
d="M-13 0h499l36 201h-267l90 509h-232zM344 418q-4 -21 0 -40t15 -32.5t28 -21.5t38 -8t41 8t36.5 21.5t28 32.5t15.5 40q8 42 -15.5 71.5t-65.5 29.5q-21 0 -41 -8t-36.5 -21.5t-28 -32t-15.5 -39.5z" />
    <glyph glyph-name="ldot" unicode="&#x140;" horiz-adv-x="530" 
d="M110 740l-130 -740h220l130 740h-220zM310 378q-4 -23 1 -43.5t17.5 -35.5t31.5 -24t42 -9t44.5 9t39 24t30 35.5t16.5 43.5t-1 43.5t-17.5 35.5t-31.5 24t-42 9t-44.5 -9t-39 -24t-30 -35.5t-16.5 -43.5z" />
    <glyph glyph-name="Lslash" unicode="&#x141;" horiz-adv-x="603" 
d="M108 380l-128 -53l33 -109l72 30l-44 -248h499l36 201h-267l27 151l196 81l-33 109l-140 -58l40 226h-232z" />
    <glyph glyph-name="lslash" unicode="&#x142;" horiz-adv-x="390" 
d="M96 367l-116 -56l40 -94l54 26l-43 -244h220l64 360l117 57l-39 94l-56 -27l45 257h-220z" />
    <glyph glyph-name="Nacute" unicode="&#x143;" horiz-adv-x="703" 
d="M-14 0h220l54 301l135 -301h213l126 710h-221l-51 -293l-127 293h-223zM510 943l-226 -117l52 -82l268 68z" />
    <glyph glyph-name="nacute" unicode="&#x144;" 
d="M-22 0h220l60 336l3 1q3 0 8 0.5t11 0.5q20 0 26.5 -7.5t3.5 -26.5q0 -2 -1 -3l-53 -301h220l56 311q19 109 -29 166.5t-167 57.5q-122 0 -227 -39l-46 -18zM395 760l-224 -124l58 -79l266 78z" />
    <glyph glyph-name="uni0145" unicode="&#x145;" horiz-adv-x="703" 
d="M-14 0h220l54 301l135 -301h213l126 710h-221l-51 -293l-127 293h-223zM219 -43l-65 -218h146l117 218h-198z" />
    <glyph glyph-name="uni0146" unicode="&#x146;" 
d="M-22 0h220l60 336l3 1q3 0 8 0.5t11 0.5q20 0 26.5 -7.5t3.5 -26.5q0 -2 -1 -3l-53 -301h220l56 311q19 109 -29 166.5t-167 57.5q-122 0 -227 -39l-46 -18zM132 -29l-56 -204h145l117 204h-206z" />
    <glyph glyph-name="Ncaron" unicode="&#x147;" horiz-adv-x="703" 
d="M112 710l-126 -710h220l54 301l135 -301h213l126 710h-221l-51 -293l-127 293h-223zM706 926h-193l-48 -48l-29 48h-210l142 -174h136z" />
    <glyph glyph-name="ncaron" unicode="&#x148;" 
d="M476 0l56 311q19 109 -29 166.5t-167 57.5q-122 0 -227 -39l-46 -18l-85 -478h220l60 336l3 1q3 0 8 0.5t11 0.5q20 0 26.5 -7.5t3.5 -26.5q0 -2 -1 -3l-53 -301h220zM391 567l202 174h-193l-48 -48l-29 48h-210l142 -174h136z" />
    <glyph glyph-name="napostrophe" unicode="&#x149;" 
d="M-22 0h220l60 336l3 1q3 0 8 0.5t11 0.5q20 0 26.5 -7.5t3.5 -26.5q0 -2 -1 -3l-53 -301h220l56 311q19 109 -29 166.5t-167 57.5q-122 0 -227 -39l-46 -18zM80 734l-94 -201h161l159 201h-226z" />
    <glyph glyph-name="Eng" unicode="&#x14a;" horiz-adv-x="703" 
d="M112 710l-126 -710h220l55 302l129 -293l-1 -4q-6 -46 -54 -46h-40l-34 -189h41q68 0 120 12t89.5 38t61 67.5t33.5 100.5l128 722h-223l-51 -293l-127 293h-221z" />
    <glyph glyph-name="eng" unicode="&#x14b;" horiz-adv-x="558" 
d="M-594 -58l6 3zM531 311q19 109 -29 166.5t-166 57.5q-123 0 -227 -39l-46 -17l-85 -479h220l59 336l4 1q4 1 19 1q20 0 26.5 -8t2.5 -29l-52 -295q-8 -47 -54 -47h-41l-33 -189h41q135 0 209 50t95 168z" />
    <glyph glyph-name="Omacron" unicode="&#x14c;" horiz-adv-x="689" 
d="M23 285q-12 -69 0.5 -124.5t47 -94.5t90.5 -60t131 -21q155 0 248 71t117 206l28 160q12 69 -0.5 124.5t-47 95.5t-90.5 61.5t-131 21.5q-154 0 -248 -72t-117 -208zM324 186q-86 0 -74 76l33 186q13 76 101 76q42 0 61 -19.5t12 -56.5l-33 -186q-12 -76 -100 -76z
M289 912l-22 -125h328l22 125h-328z" />
    <glyph glyph-name="omacron" unicode="&#x14d;" horiz-adv-x="554" 
d="M6 221q-18 -108 37 -172t178 -64q128 0 203 57t94 163l16 96q18 108 -37 171t-180 63q-127 0 -201.5 -56t-93.5 -162zM162 588h328l22 125h-328zM253 171q-38 0 -32 32l20 114q6 33 44 33q39 0 33 -33l-20 -114q-6 -32 -45 -32z" />
    <glyph glyph-name="Obreve" unicode="&#x14e;" horiz-adv-x="689" 
d="M657 262l28 160q12 69 -0.5 124.5t-47 95.5t-90.5 61.5t-131 21.5q-154 0 -248 -72t-117 -208l-28 -160q-12 -69 0.5 -124.5t47 -94.5t90.5 -60t131 -21q155 0 248 71t117 206zM324 186q-86 0 -74 76l33 186q13 76 101 76q42 0 61 -19.5t12 -56.5l-33 -186
q-12 -76 -100 -76zM506 925q-24 -27 -56 -27q-34 0 -49 27q-1 2 -3 5t-4 7t-5 9l-139 -49l5 -26q23 -110 171 -110q142 0 205 102q1 1 4 6.5t6 11.5q4 7 9 16l-125 49z" />
    <glyph glyph-name="obreve" unicode="&#x14f;" horiz-adv-x="554" 
d="M518 205l16 96q18 108 -37 171t-180 63q-127 0 -201.5 -56t-93.5 -162l-16 -96q-18 -108 37 -172t178 -64q128 0 203 57t94 163zM404 731q-24 -27 -56 -27q-34 0 -49 27q-1 2 -3 5t-4 7t-5 9l-140 -49l6 -26q23 -110 171 -110q142 0 205 102q1 1 3.5 6.5t6.5 11.5
q4 7 9 16l-126 49zM253 171q-38 0 -32 32l20 114q6 33 44 33q39 0 33 -33l-20 -114q-6 -32 -45 -32z" />
    <glyph glyph-name="Ohungarumlaut" unicode="&#x150;" horiz-adv-x="689" 
d="M657 262l28 160q12 69 -0.5 124.5t-47 95.5t-90.5 61.5t-131 21.5q-154 0 -248 -72t-117 -208l-28 -160q-12 -69 0.5 -124.5t47 -94.5t90.5 -60t131 -21q155 0 248 71t117 206zM324 186q-86 0 -74 76l33 186q13 76 101 76q42 0 61 -19.5t12 -56.5l-33 -186
q-12 -76 -100 -76zM526 758l225 142l-174 44l-165 -163zM357 945l-162 -168l122 -18l213 154z" />
    <glyph glyph-name="ohungarumlaut" unicode="&#x151;" horiz-adv-x="554" 
d="M518 205l16 96q18 108 -37 171t-180 63q-127 0 -201.5 -56t-93.5 -162l-16 -96q-18 -108 37 -172t178 -64q128 0 203 57t94 163zM426 561l225 143l-174 44l-165 -164zM257 748l-162 -167l121 -19l214 154zM253 171q-38 0 -32 32l20 114q6 33 44 33q39 0 33 -33l-20 -114
q-6 -32 -45 -32z" />
    <glyph glyph-name="OE" unicode="&#x152;" horiz-adv-x="897" 
d="M673 510h244l33 200h-406q-51 15 -116 15q-155 0 -250 -72.5t-118 -207.5l-28 -160q-12 -69 -0.5 -124.5t45.5 -94.5t89.5 -60t131.5 -21q82 0 133 15h401l34 201h-247l10 57h185l36 200h-186zM292 448q13 76 101 76q27 0 49 -11l-56 -316q-25 -11 -53 -11q-86 0 -74 76z
" />
    <glyph glyph-name="oe" unicode="&#x153;" horiz-adv-x="778" 
d="M497 141q-38 0 -29 51l3 17q20 -2 46.5 -3t58.5 -1q79 0 133.5 40t66.5 109q15 88 -33.5 134.5t-159.5 46.5q-84 0 -149 -49q-52 49 -136 49q-236 0 -274 -215l-16 -96q-19 -110 31 -174.5t169 -64.5q79 0 137 45q47 -45 122 -45q170 0 234 99l20 30l-145 75l-29 -29
q-8 -8 -18.5 -12.5t-31.5 -6.5zM244 321q5 29 28 29q27 0 22 -29l-22 -122q-4 -28 -32 -28q-22 0 -18 28zM500 347q8 44 42 44q16 0 23 -8t5 -20q-5 -26 -35 -26q-7 0 -16 0.5t-20 1.5z" />
    <glyph glyph-name="Racute" unicode="&#x154;" horiz-adv-x="666" 
d="M529 252q112 66 136 200q11 60 0.5 108t-39 81.5t-73.5 51t-105 17.5h-336l-126 -710h232l39 220h5q23 0 30 -13t13 -30l50 -177h268l-70 201q-10 29 -24 51zM562 812l-95 131l-226 -117l53 -82zM308 510h77q24 0 35 -13.5t6 -35.5q-4 -23 -20 -38t-39 -15h-77z" />
    <glyph glyph-name="racute" unicode="&#x155;" horiz-adv-x="365" 
d="M-21 0h220l61 348h107l32 187h-70q-140 -4 -218 -33q-28 -11 -38.5 -23.5t-15.5 -39.5zM312 760l-224 -124l58 -79l266 78z" />
    <glyph glyph-name="uni0156" unicode="&#x156;" horiz-adv-x="666" 
d="M112 710l-126 -710h232l39 220h5q23 0 30 -13t13 -30l50 -177h268l-70 201q-10 29 -24 51q112 66 136 200q11 60 0.5 108t-39 81.5t-73.5 51t-105 17.5h-336zM197 -43l-66 -218h146l117 218h-197zM385 510q24 0 35 -13.5t6 -35.5q-4 -23 -20 -38t-39 -15h-77l18 102h77z
" />
    <glyph glyph-name="uni0157" unicode="&#x157;" horiz-adv-x="365" 
d="M-21 0h220l61 348h107l32 187h-70q-140 -4 -218 -33q-28 -11 -38.5 -23.5t-15.5 -39.5zM-12 -39l-54 -194h145l115 194h-206z" />
    <glyph glyph-name="Rcaron" unicode="&#x158;" horiz-adv-x="666" 
d="M112 710l-126 -710h232l39 220h5q23 0 30 -13t13 -30l50 -177h268l-70 201q-10 29 -24 51q112 66 136 200q11 60 0.5 108t-39 81.5t-73.5 51t-105 17.5h-336zM471 926l-48 -48l-29 48h-210l142 -174h136l202 174h-193zM385 510q24 0 35 -13.5t6 -35.5q-4 -23 -20 -38
t-39 -15h-77l18 102h77z" />
    <glyph glyph-name="rcaron" unicode="&#x159;" horiz-adv-x="365" 
d="M-21 0h220l61 348h107l32 187h-70q-140 -4 -218 -33q-28 -11 -38.5 -23.5t-15.5 -39.5zM30 741l142 -174h136l202 174h-193l-48 -48l-29 48h-210z" />
    <glyph glyph-name="Sacute" unicode="&#x15a;" horiz-adv-x="649" 
d="M623 196q40 220 -227 261q-60 8 -84 17.5t-21 31.5q6 35 79 35q65 0 79 -38l13 -37l202 79l-12 37q-24 73 -84.5 108t-171.5 35q-146 0 -232.5 -53.5t-104.5 -155.5q-24 -145 67 -200q22 -13 41.5 -22.5t39 -16t41.5 -11t49 -9.5q51 -8 73 -17t19 -29q-6 -35 -90 -35
q-75 0 -90 36l-15 36l-214 -72l8 -42q7 -37 31.5 -65t62 -46.5t87 -28t106.5 -9.5q311 0 348 211zM578 822l-95 131l-226 -117l53 -82z" />
    <glyph glyph-name="sacute" unicode="&#x15b;" horiz-adv-x="524" 
d="M507 428q-11 26 -27.5 46t-42 33.5t-61.5 20.5t-84 7q-230 0 -259 -162q-28 -160 181 -167q28 -1 44.5 -2.5t25 -4.5t10.5 -7.5t1 -11.5q-2 -12 -15 -17t-48 -5q-41 0 -56 25l-8 14l-190 -65l6 -29q27 -118 228 -118q118 0 189 44t85 128q13 68 -20.5 107t-131.5 52
q-11 2 -23 3t-26 2q-22 2 -35.5 3.5t-20 4.5t-8 6.5t-0.5 7.5q2 11 12 15t43 4q35 0 55 -19l21 -19l168 73zM471 635l-100 125l-224 -124l58 -79z" />
    <glyph glyph-name="Scircumflex" unicode="&#x15c;" horiz-adv-x="649" 
d="M370 541q65 0 79 -38l13 -37l202 79l-12 37q-24 73 -84.5 108t-171.5 35q-146 0 -232.5 -53.5t-104.5 -155.5q-24 -145 67 -200q22 -13 41.5 -22.5t39 -16t41.5 -11t49 -9.5q51 -8 73 -17t19 -29q-6 -35 -90 -35q-75 0 -90 36l-15 36l-214 -72l8 -42q7 -37 31.5 -65
t62 -46.5t87 -28t106.5 -9.5q311 0 348 211q40 220 -227 261q-60 8 -84 17.5t-21 31.5q6 35 79 35zM415 811l27 -50h215l-146 174h-144l-206 -174h206z" />
    <glyph glyph-name="scircumflex" unicode="&#x15d;" horiz-adv-x="524" 
d="M334 316q-11 2 -23 3t-26 2q-22 2 -35.5 3.5t-20 4.5t-8 6.5t-0.5 7.5q2 11 12 15t43 4q35 0 55 -19l21 -19l168 73l-13 31q-11 26 -27.5 46t-42 33.5t-61.5 20.5t-84 7q-230 0 -259 -162q-28 -160 181 -167q28 -1 44.5 -2.5t25 -4.5t10.5 -7.5t1 -11.5q-2 -12 -15 -17
t-48 -5q-41 0 -56 25l-8 14l-190 -65l6 -29q27 -118 228 -118q118 0 189 44t85 128q13 68 -20.5 107t-131.5 52zM315 618l27 -50h208l-146 174h-135l-206 -174h204z" />
    <glyph glyph-name="Scedilla" unicode="&#x15e;" horiz-adv-x="649" 
d="M239 -248q146 0 175 101q12 43 -4.5 71.5t-59.5 29.5h-10l19 35q231 27 264 207q40 220 -227 261q-60 8 -84 17.5t-21 31.5q6 35 79 35q65 0 79 -38l13 -37l202 79l-12 37q-24 73 -84.5 108t-171.5 35q-146 0 -232.5 -53.5t-104.5 -155.5q-24 -145 67 -200
q22 -13 41.5 -22.5t39 -16t41.5 -11t49 -9.5q51 -8 73 -17t19 -29q-6 -35 -90 -35q-75 0 -90 36l-15 36l-214 -72l8 -42q7 -35 29 -61.5t56.5 -45.5t79.5 -29.5t97 -12.5l-64 -103h47q27 0 35.5 -4.5t6.5 -15.5q-3 -20 -32 -20t-54 16l-37 23l-19 -108l30 -10q35 -11 76 -11
z" />
    <glyph glyph-name="scedilla" unicode="&#x15f;" horiz-adv-x="524" 
d="M232 158q-41 0 -56 25l-8 14l-190 -65l6 -29q24 -108 194 -117l-62 -101h47q27 0 35.5 -4.5t6.5 -15.5q-3 -20 -32 -20t-54 16l-37 23l-19 -108l30 -10q35 -11 76 -11q146 0 175 101q12 43 -4.5 71.5t-59.5 29.5h-10l18 33q85 14 136 56t62 111q13 68 -20.5 107
t-131.5 52q-11 2 -23 3t-26 2q-22 2 -35.5 3.5t-20 4.5t-8 6.5t-0.5 7.5q2 11 12 15t43 4q35 0 55 -19l21 -19l168 73l-13 31q-11 26 -27.5 46t-42 33.5t-61.5 20.5t-84 7q-230 0 -259 -162q-28 -160 181 -167q28 -1 44.5 -2.5t25 -4.5t10.5 -7.5t1 -11.5q-2 -12 -15 -17
t-48 -5z" />
    <glyph glyph-name="Scaron" unicode="&#x160;" horiz-adv-x="649" 
d="M623 196q40 220 -227 261q-60 8 -84 17.5t-21 31.5q6 35 79 35q65 0 79 -38l13 -37l202 79l-12 37q-24 73 -84.5 108t-171.5 35q-146 0 -232.5 -53.5t-104.5 -155.5q-24 -145 67 -200q22 -13 41.5 -22.5t39 -16t41.5 -11t49 -9.5q51 -8 73 -17t19 -29q-6 -35 -90 -35
q-75 0 -90 36l-15 36l-214 -72l8 -42q7 -37 31.5 -65t62 -46.5t87 -28t106.5 -9.5q311 0 348 211zM439 888l-29 48h-210l142 -174h136l202 174h-193z" />
    <glyph glyph-name="scaron" unicode="&#x161;" horiz-adv-x="524" 
d="M507 428q-11 26 -27.5 46t-42 33.5t-61.5 20.5t-84 7q-230 0 -259 -162q-28 -160 181 -167q28 -1 44.5 -2.5t25 -4.5t10.5 -7.5t1 -11.5q-2 -12 -15 -17t-48 -5q-41 0 -56 25l-8 14l-190 -65l6 -29q27 -118 228 -118q118 0 189 44t85 128q13 68 -20.5 107t-131.5 52
q-11 2 -23 3t-26 2q-22 2 -35.5 3.5t-20 4.5t-8 6.5t-0.5 7.5q2 11 12 15t43 4q35 0 55 -19l21 -19l168 73zM328 693l-29 48h-210l142 -174h136l202 174h-193z" />
    <glyph glyph-name="Tcaron" unicode="&#x164;" horiz-adv-x="622" 
d="M82 710l-36 -200h185l-90 -510h232l90 510h185l36 200h-602zM393 926h-210l142 -174h136l202 174h-193l-48 -48z" />
    <glyph glyph-name="tcaron" unicode="&#x165;" horiz-adv-x="400" 
d="M393 351l30 169h-87l21 120h-220l-21 -120h-73l-30 -169h73l-26 -146q-20 -118 36 -168t192 -50h41l33 189h-41q-46 0 -38 47l23 128h87zM413 742l-50 -187h144l115 187h-209z" />
    <glyph glyph-name="Tbar" unicode="&#x166;" horiz-adv-x="633" 
d="M51 510h185l-25 -142h-111l-23 -130h111l-42 -238h232l42 238h112l23 130h-112l25 142h185l36 200h-602z" />
    <glyph glyph-name="tbar" unicode="&#x167;" horiz-adv-x="400" 
d="M306 351h87l30 169h-87l21 120h-220l-21 -120h-73l-30 -169h73l-6 -34h-63l-18 -102h63l-2 -10q-20 -118 36 -168t192 -50h41l33 189h-41q-22 0 -32.5 6.5t-7.5 27.5l1 5h87l18 102h-87z" />
    <glyph glyph-name="Utilde" unicode="&#x168;" horiz-adv-x="694" 
d="M731 709h-232l-81 -453q-12 -72 -93 -72t-69 72l81 453h-232l-75 -420q-24 -135 45 -220t219 -85q154 0 243.5 68.5t112.5 200.5zM501 881q-7 0 -49 17t-88 17q-102 0 -125 -128l-4 -24h119l3 18q3 16 16 16q8 0 48 -17t86 -17q52 0 83.5 29t43.5 99l4 24h-118l-3 -18
q-3 -16 -16 -16z" />
    <glyph glyph-name="utilde" unicode="&#x169;" 
d="M564 520h-220l-59 -336l-7 -1q-4 -1 -8 -1h-8q-20 0 -26.5 7t-2.5 27v3l53 301h-220l-53 -300q-19 -109 28.5 -172t164.5 -63q124 0 227 39l46 17zM319 596q40 -17 86 -17q52 0 83.5 29t43.5 99l4 24h-118l-3 -18q-3 -16 -16 -16q-7 0 -49 17t-88 17q-102 0 -125 -128
l-4 -24h119l3 18q3 16 16 16q8 0 48 -17z" />
    <glyph glyph-name="Umacron" unicode="&#x16a;" horiz-adv-x="694" 
d="M30 289q-24 -135 45 -220t219 -85q154 0 243.5 68.5t112.5 200.5l81 456h-232l-81 -453q-12 -72 -93 -72t-69 72l81 453h-232zM288 901l-22 -125h328l22 125h-328z" />
    <glyph glyph-name="umacron" unicode="&#x16b;" 
d="M479 41l85 479h-220l-59 -336l-7 -1q-4 -1 -8 -1h-8q-20 0 -26.5 7t-2.5 27v3l53 301h-220l-53 -300q-19 -109 28.5 -172t164.5 -63q124 0 227 39zM162 588h328l22 125h-328z" />
    <glyph glyph-name="Ubreve" unicode="&#x16c;" horiz-adv-x="694" 
d="M731 709h-232l-81 -453q-12 -72 -93 -72t-69 72l81 453h-232l-75 -420q-24 -135 45 -220t219 -85q154 0 243.5 68.5t112.5 200.5zM525 936l-19 -21q-24 -27 -56 -27q-34 0 -49 27q-1 2 -3 5t-4 7t-5 9l-139 -49l5 -26q23 -110 171 -110q142 0 205 102q1 1 4 6.5t6 11.5
q4 7 9 16z" />
    <glyph glyph-name="ubreve" unicode="&#x16d;" 
d="M479 41l85 479h-220l-59 -336l-7 -1q-4 -1 -8 -1h-8q-20 0 -26.5 7t-2.5 27v3l53 301h-220l-53 -300q-19 -109 28.5 -172t164.5 -63q124 0 227 39zM401 731q-24 -27 -56 -27q-34 0 -49 27q-1 2 -3 5t-4 7t-5 9l-139 -49l5 -26q23 -110 171 -110q142 0 205 102q1 1 4 6.5
t6 11.5q4 7 9 16l-125 49z" />
    <glyph glyph-name="Uring" unicode="&#x16e;" horiz-adv-x="694" 
d="M731 709h-232l-81 -453q-12 -72 -93 -72t-69 72l81 453h-232l-75 -420q-24 -135 45 -220t219 -85q154 0 243.5 68.5t112.5 200.5zM302 858q-10 -58 23.5 -89.5t97.5 -31.5q63 0 106.5 32t53.5 89t-22.5 89.5t-95.5 32.5q-64 0 -108.5 -31t-54.5 -91zM411 858q5 30 38 30
q29 0 24 -30q-5 -29 -34 -29q-15 0 -22.5 8t-5.5 21z" />
    <glyph glyph-name="uring" unicode="&#x16f;" 
d="M564 520h-220l-59 -336l-7 -1q-4 -1 -8 -1h-8q-20 0 -26.5 7t-2.5 27v3l53 301h-220l-53 -300q-19 -109 28.5 -172t164.5 -63q124 0 227 39l46 17zM475 652q10 57 -22 89.5t-95 32.5q-64 0 -109 -31t-55 -91q-10 -58 23.5 -89.5t97.5 -31.5q63 0 106.5 32t53.5 89z
M331 623q-15 0 -22.5 8t-5.5 21q5 30 38 30q29 0 24 -30q-5 -29 -34 -29z" />
    <glyph glyph-name="Uhungarumlaut" unicode="&#x170;" horiz-adv-x="694" 
d="M105 709l-75 -420q-24 -135 45 -220t219 -85q154 0 243.5 68.5t112.5 200.5l81 456h-232l-81 -453q-12 -72 -93 -72t-69 72l81 453h-232zM753 890l-174 44l-165 -163l114 -23zM359 935l-162 -168l121 -18l214 154z" />
    <glyph glyph-name="uhungarumlaut" unicode="&#x171;" 
d="M479 41l85 479h-220l-59 -336l-7 -1q-4 -1 -8 -1h-8q-20 0 -26.5 7t-2.5 27v3l53 301h-220l-53 -300q-19 -109 28.5 -172t164.5 -63q124 0 227 39zM422 563l225 142l-174 44l-165 -163zM253 750l-162 -168l122 -18l213 154z" />
    <glyph glyph-name="Uogonek" unicode="&#x172;" horiz-adv-x="694" 
d="M477 -212l20 12l-24 90q-5 -3 -9 -5q-3 -2 -6 -3.5t-5 -1.5q-12 -6 -20 -6q-15 0 -14 18q2 24 30 65.5t92 98.5q89 79 110 198l81 456h-232l-81 -453q-13 -72 -93 -72q-82 0 -69 72l81 453h-232l-75 -420q-24 -135 45 -220t219 -85h24t17 1q-92 -84 -89 -163
q3 -69 103 -69q72 0 127 34z" />
    <glyph glyph-name="uogonek" unicode="&#x173;" 
d="M424 -105l-20 -10q-12 -6 -20 -6q-15 0 -14 18q5 51 95 143l17 17l82 463h-220l-59 -336l-7 -1q-4 -1 -8 -1h-8q-20 0 -26.5 7t-3.5 27q1 1 1 3l53 301h-220l-53 -299q-19 -111 28.5 -173.5t164.5 -62.5q20 0 41 1.5t42 3.5q-95 -87 -92 -167q3 -69 103 -69q72 0 127 34
l19 12z" />
    <glyph glyph-name="Wcircumflex" unicode="&#x174;" horiz-adv-x="955" 
d="M799 710l-116 -374l-10 374h-239l-140 -368l15 368h-242l43 -710h249l121 332l1 -332h253l295 710h-230zM520 925l-206 -174h206l48 50l27 -50h215l-146 174h-144z" />
    <glyph glyph-name="wcircumflex" unicode="&#x175;" horiz-adv-x="798" 
d="M840 520h-226l-74 -242l2 242h-208l-83 -242l10 242h-227l40 -520h221l91 230v-230h236zM698 568l-147 174h-135l-205 -174h203l49 50l28 -50h207z" />
    <glyph glyph-name="Ycircumflex" unicode="&#x176;" horiz-adv-x="691" 
d="M52 710l173 -438l-48 -272h232l48 274l329 436h-256l-153 -215l-70 215h-255zM389 925l-206 -174h206l48 50l27 -50h215l-146 174h-144z" />
    <glyph glyph-name="ycircumflex" unicode="&#x177;" horiz-adv-x="559" 
d="M255 16l-6 -36q-8 -38 -40 -38q-14 0 -21 5.5t-12 13.5l-18 29l-194 -88l11 -26q13 -28 30.5 -48t42.5 -33t57.5 -19t74.5 -6q250 0 292 229l92 521h-220l-54 -307q-4 -1 -9.5 -1h-12.5q-20 0 -27 7t-3 27v3l48 271h-220l-47 -265q-10 -55 -3 -99.5t31 -75.5t65 -48
t99 -17h26t18 1zM291 568l48 50l27 -50h207l-146 174h-136l-206 -174h206z" />
    <glyph glyph-name="Ydieresis" unicode="&#x178;" horiz-adv-x="691" 
d="M307 710h-255l173 -438l-48 -272h232l48 274l329 436h-256l-153 -215zM350 926q-18 0 -34.5 -7t-30.5 -18.5t-23.5 -27t-13.5 -33.5q-7 -36 13.5 -61.5t55.5 -25.5q18 0 34.5 7t30 18.5t23.5 27.5t13 34q4 18 0.5 33.5t-13 27t-23.5 18.5t-32 7zM640 840q3 18 -0.5 33.5
t-13 27t-23.5 18.5t-32 7t-34.5 -7t-30 -18.5t-23.5 -27t-13 -33.5q-7 -36 13 -61.5t55 -25.5q18 0 34.5 7t30.5 18.5t24 27.5t13 34z" />
    <glyph glyph-name="Zacute" unicode="&#x179;" horiz-adv-x="619" 
d="M-34 0h580l34 201h-268l332 379l21 130h-568l-37 -200h258l-328 -378zM470 943l-226 -117l53 -82l268 68z" />
    <glyph glyph-name="zacute" unicode="&#x17a;" horiz-adv-x="502" 
d="M-32 0h460l32 182h-196l221 175l29 163h-448l-32 -182h170l-208 -178zM146 636l58 -79l266 78l-100 125z" />
    <glyph glyph-name="Zdotaccent" unicode="&#x17b;" horiz-adv-x="619" 
d="M-34 0h580l34 201h-268l332 379l21 130h-568l-37 -200h258l-328 -378zM323 839q-8 -37 12.5 -62.5t56.5 -25.5q18 0 35 7t31 19t24 28t14 34q8 37 -12 62.5t-56 25.5q-18 0 -35 -7t-31.5 -19t-24.5 -28t-14 -34z" />
    <glyph glyph-name="zdotaccent" unicode="&#x17c;" horiz-adv-x="502" 
d="M-32 0h460l32 182h-196l221 175l29 163h-448l-32 -182h170l-208 -178zM228 658q-8 -37 12.5 -62.5t56.5 -25.5q18 0 35 7t31 19t24 28t14 34q8 37 -12 62.5t-56 25.5q-18 0 -35 -7t-31.5 -19t-24.5 -28t-14 -34z" />
    <glyph glyph-name="Zcaron" unicode="&#x17d;" horiz-adv-x="619" 
d="M-10 132l-24 -132h580l34 201h-268l332 379l21 130h-568l-37 -200h258zM667 926h-193l-48 -48l-29 48h-210l142 -174h136z" />
    <glyph glyph-name="zcaron" unicode="&#x17e;" horiz-adv-x="502" 
d="M-4 160l-28 -160h460l32 182h-196l221 175l29 163h-448l-32 -182h170zM571 741h-196l-48 -48l-29 48h-207l142 -174h136z" />
    <glyph glyph-name="longs" unicode="&#x17f;" horiz-adv-x="350" 
d="M23 351h62l-62 -351h220l93 524q8 47 54 47h41l29 169h-40q-135 0 -209.5 -50t-95.5 -168v-2h-62z" />
    <glyph glyph-name="florin" unicode="&#x192;" horiz-adv-x="472" 
d="M453 551h41l16 189h-40q-135 0 -215 -58.5t-101 -173.5l-15 -82h-111l-18 -189h93l-39 -207q-7 -33 -25 -47t-57 -14h-41l-16 -189h40q133 0 214 64t103 181l41 212h123l18 189h-105l12 64q7 36 24.5 48.5t57.5 12.5z" />
    <glyph glyph-name="Aringacute" unicode="&#x1fa;" horiz-adv-x="703" 
d="M586 712q12 66 -26 105.5t-110 39.5q-75 0 -126 -33.5t-63 -100.5q-8 -53 22 -83l-353 -640h245l44 97h188l10 -97h249l-127 640q39 28 47 72zM610 916l-81 97l-215 -76l50 -71zM389 279h-88l72 160zM433 754q16 0 25 -10.5t5 -27.5q-3 -18 -15.5 -29t-28.5 -11
q-19 0 -28.5 11.5t-6.5 28.5q6 38 49 38z" />
    <glyph glyph-name="aringacute" unicode="&#x1fb;" horiz-adv-x="549" 
d="M513 500q-73 35 -199 35q-129 0 -200 -52.5t-91 -166.5l-16 -92q-19 -110 28.5 -174.5t163.5 -64.5q126 0 228 26l42 11l82 460zM316 557q60 0 101 30t51 85q10 54 -20.5 85t-90.5 31q-61 0 -104 -29.5t-52 -86.5q-10 -55 22 -85t93 -30zM500 851l-91 93l-210 -93l53 -59
zM307 345l-30 -172l-29 -2q-30 0 -26 27l21 120q6 30 40 30q10 0 20 -2zM304 672q4 28 37 28q26 0 22 -28q-3 -28 -32 -28q-15 0 -22 8t-5 20z" />
    <glyph glyph-name="AEacute" unicode="&#x1fc;" horiz-adv-x="930" 
d="M874 458h-162l9 52h220l33 200h-469l-587 -710h249l69 82h206l-15 -82h430l33 201h-223l10 57h161zM908 813l-96 131l-226 -117l53 -82zM381 254l140 201l-49 -201h-91z" />
    <glyph glyph-name="aeacute" unicode="&#x1fd;" horiz-adv-x="766" 
d="M281 321h-19q-67 0 -115 -8t-80.5 -26t-50 -48.5t-24.5 -75.5q-14 -87 34.5 -132.5t171.5 -45.5q69 0 138 27q51 -27 118 -27q170 0 234 99l25 39l-146 76l-19 -25q-7 -7 -12 -12.5t-11.5 -9.5t-16 -6.5t-24.5 -4.5q-38 0 -29 51l3 17q20 -2 46.5 -3t58.5 -1
q39 0 73.5 10.5t61.5 30.5t44.5 48t23.5 62q15 88 -39.5 133.5t-171.5 45.5q-75 0 -146 -43q-46 43 -118 43q-42 0 -76 -6t-61 -18.5t-49 -32.5t-42 -47l-21 -30l164 -69l9 13q2 3 4.5 7t5.5 7q6 8 14 14t20 6q30 0 26 -28zM594 635l-100 125l-224 -124l58 -79zM482 347
q8 44 42 44q16 0 23 -8t5 -20q-5 -26 -35 -26q-7 0 -16 0.5t-20 1.5zM254 176q-4 -25 -1 -52q-8 -1 -15 -1.5t-12 -0.5q-14 0 -21.5 8.5t-4.5 22.5q6 33 39 33h17z" />
    <glyph glyph-name="Oslashacute" unicode="&#x1fe;" horiz-adv-x="689" 
d="M564 696q-64 29 -149 29q-154 0 -248 -72t-117 -208l-28 -160q-20 -120 29 -195l-112 -135h159l48 57q60 -27 145 -27q155 0 248 71t117 206l28 160q20 117 -28 193l116 137h-161zM329 754l267 68l-94 131l-226 -117zM383 524q29 0 45 -9l-170 -200l2 10t2 11l20 112
q13 76 101 76zM423 262q-12 -76 -100 -76q-28 0 -43 7l165 194q-1 -5 -2.5 -13.5t-1.5 -9.5z" />
    <glyph glyph-name="oslashacute" unicode="&#x1ff;" horiz-adv-x="555" 
d="M318 535q-127 0 -201.5 -56t-93.5 -162l-16 -96q-20 -113 39 -175l-66 -81h113l28 35q44 -15 101 -15q128 0 203 57t94 163l16 96q18 107 -35 169l68 82h-113l-28 -34q-48 17 -109 17zM495 635l-100 125l-224 -124l58 -79zM293 390q26 0 32 -15l-93 -115q0 5 2 15l15 82
q6 33 44 33zM292 163q-6 -32 -45 -32q-22 0 -30 12l91 112q0 -2 -2 -12z" />
    <glyph glyph-name="uni0218" unicode="&#x218;" horiz-adv-x="649" 
d="M370 541q65 0 79 -38l13 -37l202 79l-12 37q-24 73 -84.5 108t-171.5 35q-146 0 -232.5 -53.5t-104.5 -155.5q-24 -145 67 -200q22 -13 41.5 -22.5t39 -16t41.5 -11t49 -9.5q51 -8 73 -17t19 -29q-6 -35 -90 -35q-75 0 -90 36l-15 36l-214 -72l8 -42q7 -37 31.5 -65
t62 -46.5t87 -28t106.5 -9.5q311 0 348 211q40 220 -227 261q-60 8 -84 17.5t-21 31.5q6 35 79 35zM127 -260h146l117 218h-197z" />
    <glyph glyph-name="uni0219" unicode="&#x219;" horiz-adv-x="524" 
d="M334 316q-11 2 -23 3t-26 2q-22 2 -35.5 3.5t-20 4.5t-8 6.5t-0.5 7.5q2 11 12 15t43 4q35 0 55 -19l21 -19l168 73l-13 31q-11 26 -27.5 46t-42 33.5t-61.5 20.5t-84 7q-230 0 -259 -162q-28 -160 181 -167q28 -1 44.5 -2.5t25 -4.5t10.5 -7.5t1 -11.5q-2 -12 -15 -17
t-48 -5q-41 0 -56 25l-8 14l-190 -65l6 -29q27 -118 228 -118q118 0 189 44t85 128q13 68 -20.5 107t-131.5 52zM84 -230h143l110 181h-209z" />
    <glyph glyph-name="uni021A" unicode="&#x21a;" horiz-adv-x="622" 
d="M82 710l-36 -200h185l-90 -510h232l90 510h185l36 200h-602zM167 -43l-66 -218h146l117 218h-197z" />
    <glyph glyph-name="uni021B" unicode="&#x21b;" horiz-adv-x="400" 
d="M329 -13l33 189h-41q-46 0 -38 47l23 128h87l30 169h-87l21 120h-220l-21 -120h-73l-30 -169h73l-26 -146q-20 -118 36 -168t192 -50h41zM17 -260h146l118 218l-198 -1z" />
    <glyph glyph-name="uni0237" unicode="&#x237;" horiz-adv-x="287" 
d="M-115 -41l-33 -189h41q135 0 209 50t95 168l94 532h-220l-91 -515q-9 -46 -54 -46h-41z" />
    <glyph glyph-name="circumflex" unicode="&#x2c6;" horiz-adv-x="401" 
d="M349 741h-135l-206 -174h205l48 50l27 -50h208z" />
    <glyph glyph-name="caron" unicode="&#x2c7;" horiz-adv-x="477" 
d="M319 693l-29 48h-207l142 -174h136l202 174h-196z" />
    <glyph glyph-name="breve" unicode="&#x2d8;" horiz-adv-x="287" 
d="M17 703l5 -26q23 -110 171 -110q142 0 205 102q1 1 4 6.5t6 11.5q4 7 9 16l-125 49l-19 -21q-24 -27 -56 -27q-34 0 -49 27q-1 2 -3 5t-4 7t-5 9z" />
    <glyph glyph-name="dotaccent" unicode="&#x2d9;" horiz-adv-x="223" 
d="M269 658q8 37 -12 62.5t-56 25.5q-18 0 -35 -7t-31.5 -19t-24.5 -28t-14 -34q-8 -37 12.5 -62.5t56.5 -25.5q18 0 35 7t31 19t24 28t14 34z" />
    <glyph glyph-name="ring" unicode="&#x2da;" horiz-adv-x="240" 
d="M48 652q-10 -58 23.5 -89.5t97.5 -31.5q63 0 106.5 32t53.5 89t-22 89.5t-95 32.5q-64 0 -109 -31t-55 -91zM185 623q-15 0 -22.5 8t-5.5 21q5 30 38 30q29 0 24 -30q-5 -29 -34 -29z" />
    <glyph glyph-name="ogonek" unicode="&#x2db;" horiz-adv-x="252" 
d="M32 1q-108 -92 -105 -178q1 -69 103 -69q72 0 127 34l20 12l-24 90l-20 -10q-12 -6 -20 -6q-15 0 -14 18q5 53 82 114z" />
    <glyph glyph-name="tilde" unicode="&#x2dc;" horiz-adv-x="305" 
d="M23 603l-4 -24h119l3 18q3 16 16 16q8 0 48 -17t86 -17q52 0 83.5 29t43.5 99l4 24h-118l-3 -18q-3 -16 -16 -16q-7 0 -49 17t-88 17q-102 0 -125 -128z" />
    <glyph glyph-name="hungarumlaut" unicode="&#x2dd;" horiz-adv-x="395" 
d="M401 749l-165 -164l114 -23l225 143zM181 749l-162 -167l121 -19l214 154z" />
    <glyph glyph-name="uni0326" unicode="&#x326;" horiz-adv-x="0" 
d="M9 -44l-65 -217h146l117 217h-198z" />
    <glyph glyph-name="pi" unicode="&#x3c0;" horiz-adv-x="695" 
d="M623 333h61l33 187h-503q-87 0 -169 -32l-38 -15l46 -164l42 15q27 9 38 9l-59 -333h220l59 333h50l-29 -162q-14 -83 4 -152l9 -37l227 88q-4 11 -7 20q-1 7 -5 14l-2 6q-11 32 -2 84z" />
    <glyph glyph-name="uni0401" unicode="&#x401;" horiz-adv-x="592" 
d="M518 0l33 201h-297l10 57h235l36 200h-236l9 52h294l33 200h-523l-126 -710h532zM209 830q-7 -36 13.5 -61.5t55.5 -25.5q18 0 34.5 7t30 18.5t23.5 27.5t13 34q4 18 0.5 33.5t-13 27t-23.5 18.5t-32 7t-34.5 -7t-30.5 -18.5t-23.5 -27t-13.5 -33.5zM601 830
q3 18 -0.5 33.5t-13 27t-23.5 18.5t-32 7t-34.5 -7t-30 -18.5t-23.5 -27t-13 -33.5q-7 -36 13 -61.5t55 -25.5q18 0 34.5 7t30.5 18.5t24 27.5t13 34z" />
    <glyph glyph-name="uni0410" unicode="&#x410;" horiz-adv-x="704" 
d="M178 0l44 97h188l9 -97h247l-127 710h-231l-376 -710h246zM393 279h-89l73 161z" />
    <glyph glyph-name="uni0411" unicode="&#x411;" horiz-adv-x="643" 
d="M342 0q111 0 185 57.5t92 163.5q19 108 -40 179q-60 69 -169 69h-108l11 62h314l32 180h-546l-125 -711h354zM334 288q32 0 45.5 -12t8.5 -41q-7 -54 -73 -54h-64l19 107h64z" />
    <glyph glyph-name="uni0412" unicode="&#x412;" horiz-adv-x="661" 
d="M656 514q8 46 -1 82.5t-34.5 62t-66 39t-94.5 13.5h-348l-126 -711h358q115 0 190 48t92 142q11 64 -7.5 111t-64.5 69l1 5q46 27 69 58.5t32 80.5zM346 270q28 0 39 -10.5t7 -34.5q-8 -47 -62 -47h-80l16 92h80zM312 534h60q26 0 37.5 -10t6.5 -33q-7 -42 -59 -42h-60z
" />
    <glyph glyph-name="uni0413" unicode="&#x413;" horiz-adv-x="539" 
d="M218 0l90 510h255l36 200h-487l-126 -710h232z" />
    <glyph glyph-name="uni0414" unicode="&#x414;" horiz-adv-x="817" 
d="M692 201l90 509h-549q-15 -83 -27 -149q-5 -28 -9.5 -54.5t-8.5 -48t-6.5 -35t-2.5 -14.5q-7 -38 -16.5 -68t-23 -55t-31.5 -45.5t-41 -39.5h-68l-63 -354h229l27 153h327l-27 -153h229l63 354h-92zM421 509h93l-54 -308h-131q53 90 77 225z" />
    <glyph glyph-name="uni0415" unicode="&#x415;" horiz-adv-x="592" 
d="M112 710l-126 -710h532l33 201h-297l10 57h235l36 200h-236l9 52h294l33 200h-523z" />
    <glyph glyph-name="uni0416" unicode="&#x416;" horiz-adv-x="999" 
d="M615 259q17 0 22 -13q1 -1 3.5 -12t7 -28.5t9.5 -39.5t11 -45q12 -53 28 -120h267l-113 354l223 356h-255l-153 -252h-22l45 252h-232l-46 -252h-21l-66 252h-254l99 -356l-240 -354h267l134 227q19 31 41 31h6l-46 -258h232l46 258h7z" />
    <glyph glyph-name="uni0417" unicode="&#x417;" horiz-adv-x="656" 
d="M340 263q27 0 37.5 -9t5.5 -32q-5 -24 -23.5 -33t-64.5 -9q-35 0 -59.5 15t-29.5 43l-6 33l-217 -73l6 -32q36 -181 298 -181q151 0 231.5 51.5t101.5 160.5q25 127 -74 175q45 22 69 51.5t34 80.5q20 105 -42.5 163t-196.5 58q-253 0 -354 -182l-17 -30l187 -73l19 32
q34 58 112 58q31 0 44 -8.5t9 -29.5q-5 -23 -15.5 -30.5t-35.5 -7.5h-95l-33 -191h109z" />
    <glyph glyph-name="uni0418" unicode="&#x418;" horiz-adv-x="708" 
d="M113 710l-126 -710h233l219 313l-56 -313h231l125 710h-232l-219 -311l57 311h-232z" />
    <glyph glyph-name="uni0419" unicode="&#x419;" horiz-adv-x="708" 
d="M113 710l-126 -710h233l219 313l-56 -313h231l125 710h-232l-219 -311l57 311h-232zM534 936l-19 -21q-24 -27 -56 -27q-34 0 -49 27q-1 2 -3 5t-4 7t-5 9l-139 -49l5 -26q23 -110 171 -110q142 0 205 102q1 1 4 6.5t6 11.5q4 7 9 16z" />
    <glyph glyph-name="uni041A" unicode="&#x41a;" horiz-adv-x="667" 
d="M112 710l-126 -710h232l45 257h9q21 0 34 -42l65 -215h266l-109 311q-11 31 -27 47l248 352h-255l-177 -252h-18l45 252h-232z" />
    <glyph glyph-name="uni041B" unicode="&#x41b;" horiz-adv-x="709" 
d="M8 196l-46 -26l86 -195l38 18q70 33 119.5 77t84 99t55.5 119.5t34 137.5l15 83h79l-90 -509h232l126 710h-539l-51 -285q-9 -48 -21 -83t-29 -62t-40 -47t-53 -37z" />
    <glyph glyph-name="uni041C" unicode="&#x41c;" horiz-adv-x="833" 
d="M112 711l-124 -711h221l47 288l45 -159h161l94 154l-46 -283h230l124 711h-216l-222 -349l-100 349h-214z" />
    <glyph glyph-name="uni041D" unicode="&#x41d;" horiz-adv-x="693" 
d="M113 711l-126 -711h232l46 260h148l-46 -260h232l126 711h-232l-45 -251h-148l45 251h-232z" />
    <glyph glyph-name="uni041E" unicode="&#x41e;" horiz-adv-x="689" 
d="M23 285q-12 -69 0.5 -124.5t47 -94.5t90.5 -60t131 -21q155 0 248 71t117 206l28 160q12 69 -0.5 124.5t-47 95.5t-90.5 61.5t-131 21.5q-154 0 -248 -72t-117 -208zM324 186q-86 0 -74 76l33 186q13 76 101 76q42 0 61 -19.5t12 -56.5l-33 -186q-12 -76 -100 -76z" />
    <glyph glyph-name="uni041F" unicode="&#x41f;" horiz-adv-x="688" 
d="M218 0l90 510h143l-90 -510h232l126 710h-607l-126 -710h232z" />
    <glyph glyph-name="uni0420" unicode="&#x420;" horiz-adv-x="655" 
d="M253 196h99q125 0 206 58.5t102 178.5q11 63 0.5 114t-39.5 87t-75 56t-106 20h-328l-126 -710h232zM308 510h69q30 0 41 -18t6.5 -39t-22 -39t-45.5 -18h-69z" />
    <glyph glyph-name="uni0421" unicode="&#x421;" horiz-adv-x="654" 
d="M682 511q-2 8 -3 14q-1 5 -2 9.5t-1 5.5q-36 185 -258 185q-155 0 -249 -69.5t-117 -203.5l-29 -166q-12 -68 0.5 -123.5t47 -95t90.5 -61t131 -21.5q236 0 334 176l19 36l-208 80l-19 -34q-31 -57 -94 -57q-51 0 -65.5 20t-6.5 68l29 162q9 48 30.5 68t72.5 20
q35 0 50.5 -13t21.5 -44l6 -31z" />
    <glyph glyph-name="uni0422" unicode="&#x422;" horiz-adv-x="622" 
d="M231 510l-90 -510h232l90 510h185l36 200h-602l-36 -200h185z" />
    <glyph glyph-name="uni0423" unicode="&#x423;" horiz-adv-x="634" 
d="M178 216l-128 -216h257l410 710h-246l-123 -207l-43 207h-258z" />
    <glyph glyph-name="uni0424" unicode="&#x424;" horiz-adv-x="874" 
d="M530 65q297 0 343 261l6 38q11 66 -0.5 119t-43 90t-83.5 57t-124 20h-13l15 85h-231l-15 -85h-18q-297 0 -344 -260l-6 -38q-21 -135 41 -211t206 -76h17l-15 -86h231l16 86h18zM260 385q12 70 86 70h3l-34 -195h-3q-74 0 -62 70zM580 455h3q74 0 62 -70l-10 -55
q-12 -70 -86 -70h-3z" />
    <glyph glyph-name="uni0425" unicode="&#x425;" horiz-adv-x="674" 
d="M-79 0h269l122 170l61 -170h276l-170 362l281 348h-266l-115 -161l-60 161h-260l156 -348z" />
    <glyph glyph-name="uni0426" unicode="&#x426;" horiz-adv-x="743" 
d="M-14 0h469l-27 -154h219l63 355h-82l90 509h-232l-90 -509h-142l90 509h-232z" />
    <glyph glyph-name="uni0427" unicode="&#x427;" horiz-adv-x="665" 
d="M63 530q-13 -78 -7 -137t34 -99t79 -60t128 -20q47 0 80 3l-38 -217h232l126 710h-232l-49 -276q-12 -1 -21 -1.5t-16 -0.5q-57 0 -76 16t-12 58q0 2 5.5 33.5t12.5 69.5q8 45 18 101h-232z" />
    <glyph glyph-name="uni0428" unicode="&#x428;" horiz-adv-x="963" 
d="M112 710l-126 -710h882l126 710h-232l-90 -509h-93l90 509h-232l-90 -509h-93l90 509h-232z" />
    <glyph glyph-name="uni0429" unicode="&#x429;" horiz-adv-x="1019" 
d="M112 710l-126 -710h745l-26 -155h218l63 356h-82l90 509h-232l-90 -509h-93l90 509h-232l-90 -509h-93l90 509h-232z" />
    <glyph glyph-name="uni042A" unicode="&#x42a;" horiz-adv-x="804" 
d="M224 509l-90 -509h337q125 0 204.5 61t101.5 184q21 123 -43 196t-187 73h-90l35 196h-410l-36 -201h178zM491 314q27 0 39.5 -16t7.5 -41q-4 -25 -22.5 -41t-45.5 -16h-69l21 114h69z" />
    <glyph glyph-name="uni042B" unicode="&#x42b;" horiz-adv-x="949" 
d="M-13 0h337q125 0 203 61t100 185q22 121 -41 195q-64 73 -186 73h-90l35 196h-232zM856 0l125 710h-232l-125 -710h232zM254 200l21 114h69q27 0 39.5 -16t7.5 -41q-4 -25 -22.5 -41t-45.5 -16h-69z" />
    <glyph glyph-name="uni042C" unicode="&#x42c;" horiz-adv-x="653" 
d="M-13 0h337q125 0 203 61t100 185q22 121 -41 195q-64 73 -186 73h-90l35 196h-232zM254 200l21 114h69q27 0 39.5 -16t7.5 -41q-4 -25 -22.5 -41t-45.5 -16h-69z" />
    <glyph glyph-name="uni042D" unicode="&#x42d;" horiz-adv-x="661" 
d="M396 263l-1 -7q-12 -76 -100 -76q-35 0 -58.5 14.5t-28.5 41.5l-7 35l-218 -73l6 -32q17 -88 88 -134.5t191 -46.5q153 0 245 70.5t116 206.5l28 160q12 69 0 124.5t-46 95.5t-89.5 61.5t-130.5 21.5q-234 0 -335 -182l-17 -30l188 -72l18 33q33 56 112 56q86 0 74 -69
l-1 -7h-166l-33 -191h165z" />
    <glyph glyph-name="uni042E" unicode="&#x42e;" horiz-adv-x="984" 
d="M719 725q-70 0 -130 -17.5t-105.5 -50t-75 -79.5t-40.5 -107l-2 -11h-66l44 250h-232l-125 -710h232l46 260h65l-2 -10q-10 -60 3.5 -109t48 -83.5t89 -53.5t125.5 -19q151 0 242 71.5t115 207.5l28 160q12 69 0.5 124.5t-44.5 94.5t-87.5 60.5t-128.5 21.5zM718 259
q-13 -73 -92 -73q-38 0 -55 18.5t-10 54.5l34 192q12 73 91 73q78 0 66 -73z" />
    <glyph glyph-name="uni042F" unicode="&#x42f;" horiz-adv-x="667" 
d="M305 177q14 24 27.5 34t37.5 10h9l-39 -221h232l126 710h-338q-123 0 -202 -58.5t-100 -176.5q-24 -134 58 -202q1 0 3 -2q-10 -10 -24 -30l-157 -241h266zM336 412q-24 0 -35.5 13t-6.5 36q9 49 59 49h77l-17 -98h-77z" />
    <glyph glyph-name="uni0430" unicode="&#x430;" horiz-adv-x="549" 
d="M7 224q-19 -110 28.5 -174.5t163.5 -64.5q126 0 228 26l42 11l82 460l-38 18q-73 35 -199 35q-129 0 -200 -52.5t-91 -166.5zM243 318q6 30 40 30q10 0 20 -2l4 -1l-30 -172l-29 -2q-30 0 -26 27z" />
    <glyph glyph-name="uni0431" unicode="&#x431;" horiz-adv-x="561" 
d="M591 585l-33 177l-42 -20q-27 -13 -77 -13h-33q-91 0 -153.5 -21.5t-104.5 -64.5t-67 -107.5t-40 -149.5l-29 -166q-9 -54 1 -97.5t38 -74t73.5 -47t107.5 -16.5q127 0 200.5 55.5t92.5 163.5l11 66q18 115 -33 175t-159 60q-34 0 -65 -10l1 5q4 24 32 36.5t66 12.5h47
q83 0 123 17zM243 287q5 33 44 33q38 0 33 -33l-15 -84q-6 -32 -45 -32q-38 0 -32 32z" />
    <glyph glyph-name="uni0432" unicode="&#x432;" horiz-adv-x="539" 
d="M325 535q-124 0 -204 -30l-61 -23l-78 -445l43 -20q70 -32 191 -32q133 1 201 44t83 129q7 40 -12.5 69t-56.5 42q71 35 83 100q6 35 -3.5 65t-33.5 52.5t-62.5 35.5t-89.5 13zM224 201h27q38 0 32 -34q-6 -36 -43 -36q-21 0 -26 3l-2 2zM281 388q29 0 23 -30
q-6 -32 -37 -32h-21l10 58z" />
    <glyph glyph-name="uni0433" unicode="&#x433;" horiz-adv-x="522" 
d="M513 360q14 81 -39.5 128t-162.5 47q-49 0 -88 -6.5t-69.5 -19.5t-54.5 -33t-44 -48l-23 -32l149 -67l23 15q17 12 35 15.5t38 3.5q26 0 34.5 -4.5t6.5 -15.5t-16 -15t-56 -7q-71 -7 -117.5 -19.5t-75 -31.5t-42.5 -45t-21 -60q-8 -39 3 -72t38.5 -57t71 -37.5
t100.5 -13.5q198 0 266 119l16 29l-158 62l-18 -13q-33 -24 -74 -24q-23 0 -37 2.5t-12 17.5q2 16 22 24t68 10q43 2 82 7t71 20.5t54 44t30 76.5z" />
    <glyph glyph-name="uni0434" unicode="&#x434;" horiz-adv-x="562" 
d="M456 714q-55 30 -251 30h-43l-31 -170h44q60 0 99 -5t59 -13q28 -13 41 -32.5t9 -60.5q-41 22 -98 22q-109 0 -179 -46.5t-87 -142.5l-15 -86q-19 -108 36.5 -166.5t182.5 -58.5q126 0 201 57t94 163l29 166q28 131 10 214.5t-101 128.5zM236 287q5 33 45 33q37 0 32 -33
l-15 -84q-6 -32 -44 -32q-39 0 -33 32z" />
    <glyph glyph-name="uni0435" unicode="&#x435;" horiz-adv-x="547" 
d="M338 189l-16 -17q-12 -13 -24 -20t-43 -10q-43 0 -34 50l3 17q22 -2 51 -3t65 -1q87 0 142 41t63 108q11 91 -49 136t-180 45q-123 0 -199 -56.5t-94 -159.5l-17 -97q-9 -54 -0.5 -98t36 -74.5t74 -47.5t112.5 -17q176 0 248 101l21 29zM248 347q9 44 48 44q38 0 34 -28
t-42 -28q-9 0 -19.5 0.5t-22.5 1.5z" />
    <glyph glyph-name="uni0436" unicode="&#x436;" horiz-adv-x="815" 
d="M464 0l32 179q15 0 17 -19l9 -160h245l-64 255l144 265h-226l-85 -171h-10l30 171h-219l-30 -171h-10l-26 171h-227l52 -259l-153 -261h243l66 159q5 16 19 19q1 1 6 1l-31 -179h218z" />
    <glyph glyph-name="uni0437" unicode="&#x437;" horiz-adv-x="527" 
d="M316 354q-4 -22 -36 -22h-75l-24 -141h72q34 0 30 -21q-2 -13 -13 -18.5t-40 -5.5q-24 0 -46 8t-28 35l-6 27l-181 -51l9 -38q17 -68 80.5 -105t169.5 -37q63 0 108.5 10.5t76 31t47.5 50t23 66.5q15 88 -49 124l1 4q65 30 76 101q14 76 -41.5 119.5t-164.5 43.5
q-197 0 -270 -139l-19 -37l155 -51l16 28q5 9 10.5 15.5t15 11.5t25.5 8t42 4q39 0 36 -21z" />
    <glyph glyph-name="uni0438" unicode="&#x438;" 
d="M13 220q-19 -109 28.5 -172t164.5 -63q124 0 227 39l46 17l85 479h-220l-59 -336l-7 -1q-4 -1 -8 -1h-8q-20 0 -26.5 7t-2.5 27v3l53 301h-220z" />
    <glyph glyph-name="uni0439" unicode="&#x439;" 
d="M564 520h-220l-59 -336l-7 -1q-4 -1 -8 -1h-8q-20 0 -26.5 7t-2.5 27v3l53 301h-220l-53 -300q-19 -109 28.5 -172t164.5 -63q124 0 227 39l46 17zM538 696l-125 49l-19 -21q-24 -27 -56 -27q-34 0 -49 27q-1 2 -3 5t-4 7t-5 9l-139 -49l5 -26q23 -110 171 -110
q142 0 205 102q1 1 4 6.5t6 11.5q4 7 9 16z" />
    <glyph glyph-name="uni043A" unicode="&#x43a;" horiz-adv-x="569" 
d="M-20 0h219l32 180h7q16 0 20 -21l32 -159h236l-75 241l-7 19l163 260h-227l-103 -171h-16l30 171h-219z" />
    <glyph glyph-name="uni043B" unicode="&#x43b;" horiz-adv-x="576" 
d="M-3 169l-38 -21l78 -175l32 13q57 24 93.5 55.5t60.5 71.5t38 89.5t26 108.5l4 20h38l-59 -331h220l89 520h-449l-32 -159q-14 -69 -31.5 -109.5t-31.5 -54.5q-15 -15 -38 -28z" />
    <glyph glyph-name="uni043C" unicode="&#x43c;" horiz-adv-x="676" 
d="M-20 0h194l34 192l29 -98h127l69 107l-39 -201h196l92 520h-199l-146 -216l-68 216h-197z" />
    <glyph glyph-name="uni043D" unicode="&#x43d;" horiz-adv-x="559" 
d="M-21 0h219l31 170h55l-31 -170h219l93 520h-219l-29 -161h-55l29 161h-219z" />
    <glyph glyph-name="uni043E" unicode="&#x43e;" horiz-adv-x="554" 
d="M6 221q-18 -108 37 -172t178 -64q127 0 202.5 57t94.5 163l16 96q18 108 -37 171t-180 63q-126 0 -201 -56t-94 -162zM253 171q-38 0 -32 32l20 114q6 33 44 33q39 0 33 -33l-20 -114q-6 -32 -45 -32z" />
    <glyph glyph-name="uni043F" unicode="&#x43f;" 
d="M63 478l-85 -478h220l60 336l3 1q3 0 8 0.5t11 0.5q20 0 26.5 -7.5t3.5 -26.5q0 -2 -1 -3l-53 -301h220l56 311q19 109 -29 166.5t-167 57.5q-122 0 -227 -39z" />
    <glyph glyph-name="uni0440" unicode="&#x440;" horiz-adv-x="550" 
d="M159 -219l36 205q7 0 21 -0.5t22 -0.5q234 0 274 223l16 92q19 109 -30.5 172t-169.5 63q-122 0 -220 -37l-46 -17l-123 -700h220zM286 348q31 0 26 -27l-21 -120q-6 -30 -40 -30q-12 0 -23 3l30 171z" />
    <glyph glyph-name="uni0441" unicode="&#x441;" horiz-adv-x="520" 
d="M7 223q-19 -111 30.5 -174.5t173.5 -63.5q185 0 271 143l23 39l-202 63l-19 -34q-11 -20 -19.5 -25t-22.5 -5q-26 0 -20 35l20 118q8 36 34 36q14 0 21.5 -5.5t12.5 -25.5l7 -34l205 66l-5 33q-11 66 -60.5 106t-142.5 40q-252 0 -291 -219z" />
    <glyph glyph-name="uni0442" unicode="&#x442;" horiz-adv-x="804" 
d="M534 338q16 0 20.5 -7t1.5 -26l-54 -305h220l55 311q19 109 -26.5 166.5t-160.5 57.5q-71 0 -143 -24q-45 24 -119 24q-114 0 -219 -39l-46 -17l-85 -479h220l60 338h14q16 0 20.5 -7t1.5 -26l-54 -305h220l59 337q4 1 15 1z" />
    <glyph glyph-name="uni0443" unicode="&#x443;" horiz-adv-x="559" 
d="M344 520l-54 -307q-4 -1 -9.5 -1h-12.5q-20 0 -27 7t-3 27v3l48 271h-220l-47 -265q-10 -55 -3 -99.5t31 -75.5t65 -48t99 -17h26t18 1l-6 -36q-8 -38 -40 -38q-14 0 -21 5.5t-12 13.5l-18 29l-194 -88l11 -26q13 -28 30.5 -48t42.5 -33t57.5 -19t74.5 -6q250 0 292 229
l92 521h-220z" />
    <glyph glyph-name="uni0444" unicode="&#x444;" horiz-adv-x="773" 
d="M749 274q22 122 -27.5 191.5t-171.5 69.5h-13l37 205h-220l-37 -205h-13q-125 0 -194.5 -57.5t-90.5 -177.5l-10 -55q-22 -123 27 -191.5t172 -68.5h13l-37 -205h220l37 205h13q125 0 194.5 57t90.5 177zM511 348q32 0 25 -40l-16 -96q-6 -41 -41 -41h-11l31 177h12z
M238 308q7 40 41 40h10l-31 -177h-11q-33 0 -25 41z" />
    <glyph glyph-name="uni0445" unicode="&#x445;" horiz-adv-x="576" 
d="M-74 0h249l85 132l40 -132h244l-123 268l207 252h-246l-76 -114l-37 114h-243l120 -253z" />
    <glyph glyph-name="uni0446" unicode="&#x446;" horiz-adv-x="610" 
d="M14 227q-10 -57 -5 -101.5t27.5 -76t62.5 -48t100 -16.5q30 0 56.5 2t49.5 6l25 4l-23 -136h213l44 257q7 35 -8 53t-45 18h-6l59 331h-220l-60 -337q-5 -1 -22 -1q-20 0 -26.5 8t-2.5 29l53 301h-220z" />
    <glyph glyph-name="uni0447" unicode="&#x447;" horiz-adv-x="535" 
d="M25 336q-16 -96 22.5 -151t134.5 -55q17 0 34.5 1t36.5 3l-24 -134h220l92 520h-220l-34 -194l-2 -2q-2 -1 -7 -2.5t-12 -1.5q-24 0 -20 25l31 175h-220z" />
    <glyph glyph-name="uni0448" unicode="&#x448;" horiz-adv-x="803" 
d="M590 520l-59 -332q0 -6 -5 -6h-10q-16 0 -20.5 7t-1.5 26l54 305h-220l-54 -306q-2 -10 -3 -17.5t-2 -13.5q-4 -1 -15 -1q-16 0 -20.5 7t-1.5 26l54 305h-220l-52 -291q-20 -112 24 -178t160 -66q71 0 143 24q45 -24 119 -24q116 0 219 39l46 17l85 479h-220z" />
    <glyph glyph-name="uni0449" unicode="&#x449;" horiz-adv-x="856" 
d="M553 -139h213l45 261q5 33 -10 50t-44 17h-6l59 331h-220l-60 -337q-4 -1 -14 -1q-16 0 -20.5 7t-1.5 26l54 305h-220l-54 -306q-2 -10 -3 -17.5t-2 -13.5q-4 -1 -15 -1q-16 0 -20.5 7t-1.5 26l54 305h-220l-52 -291q-20 -112 24 -178t160 -66q71 0 143 24
q45 -24 119 -24q14 0 36 1.5t52 5.5l28 3z" />
    <glyph glyph-name="uni044A" unicode="&#x44a;" horiz-adv-x="621" 
d="M139 341l-53 -302l40 -17q84 -37 196 -37q118 0 186 54.5t84 151.5q11 60 -1.5 103t-41.5 64q-30 20 -61 29t-67 9q-16 0 -58 -3l23 127h-340l-32 -179h125zM330 228l22 3q39 0 33 -33q-6 -35 -42 -35q-15 0 -20 3l-4 2z" />
    <glyph glyph-name="uni044B" unicode="&#x44b;" horiz-adv-x="787" 
d="M24 22q84 -37 196 -37q118 0 186 52.5t84 148.5q11 60 -1.5 103t-42.5 64t-61 30t-67 9q-16 0 -58 -3l25 131h-216l-85 -481zM792 520h-220l-92 -520h220zM228 228l22 3q39 0 33 -33q-6 -35 -42 -35q-15 0 -20 3l-4 2z" />
    <glyph glyph-name="uni044C" unicode="&#x44c;" horiz-adv-x="521" 
d="M24 22q84 -37 196 -37q118 0 186 52.5t84 148.5q11 60 -1.5 103t-42.5 64t-61 30t-67 9q-16 0 -58 -3l25 131h-216l-85 -481zM228 228l22 3q39 0 33 -33q-6 -35 -42 -35q-15 0 -20 3l-4 2z" />
    <glyph glyph-name="uni044D" unicode="&#x44d;" horiz-adv-x="528" 
d="M214 -15q126 0 192 55t85 166l16 93q19 109 -36.5 172.5t-184.5 63.5q-183 0 -257 -138l-18 -35l159 -52l15 20q4 5 7.5 10t7.5 10q9 11 22.5 18t36.5 7q27 0 37 -9t6 -30v-4h-100l-25 -141h100l-1 -5q-4 -21 -16 -30.5t-40 -9.5q-23 0 -34 7.5t-16 18.5q-4 8 -9 25
q-3 9 -6 19l-182 -51l9 -37q36 -143 232 -143z" />
    <glyph glyph-name="uni044E" unicode="&#x44e;" horiz-adv-x="807" 
d="M570 535q-111 0 -183 -42t-96 -127l-2 -7h-27l29 161h-219l-93 -520h219l31 170h26v-6q-3 -179 222 -179q254 0 293 217l16 96q19 109 -36.5 173t-179.5 64zM551 203q-6 -32 -45 -32q-38 0 -32 32l20 114q6 33 44 33q39 0 33 -33z" />
    <glyph glyph-name="uni044F" unicode="&#x44f;" horiz-adv-x="559" 
d="M181 0l81 150h18l-27 -150h220l92 520h-302q-194 0 -226 -176q-16 -93 34 -146l-135 -198h245zM254 335q5 27 29 27h34l-9 -53h-34q-25 0 -20 26z" />
    <glyph glyph-name="uni0451" unicode="&#x451;" horiz-adv-x="547" 
d="M308 159q-5 -5 -20 -11t-33 -6q-43 0 -34 50l3 17q44 -4 116 -4q86 0 141.5 41t63.5 108q10 91 -50 136t-179 45q-122 0 -198.5 -57t-94.5 -159l-17 -97q-19 -108 35 -172.5t187 -64.5q176 0 248 101q14 23 11 35.5t-23 21.5l-84 39q-35 17 -56 -8q-11 -11 -16 -15z
M148 657q-7 -36 13.5 -61.5t55.5 -25.5q18 0 34.5 7t30 18.5t23.5 27.5t13 34q4 18 0.5 33.5t-13 27t-23.5 18.5t-32 7t-34.5 -7t-30.5 -18.5t-23.5 -27t-13.5 -33.5zM370 657q-7 -36 13 -61.5t55 -25.5q18 0 34.5 7t30.5 18.5t24 27.5t13 34t-0.5 33.5t-13 27t-23.5 18.5
t-32 7t-34.5 -7t-30 -18.5t-23.5 -27t-13 -33.5zM330 363q-5 -28 -42 -28q-18 0 -42 2l2 10q9 44 48 44q19 0 27.5 -7t6.5 -21z" />
    <glyph glyph-name="Wgrave" unicode="&#x1e80;" horiz-adv-x="955" 
d="M309 710h-242l43 -710h249l121 332l1 -332h253l295 710h-230l-116 -374l-10 374h-239l-140 -368zM555 948l-141 -135l242 -68l83 81z" />
    <glyph glyph-name="wgrave" unicode="&#x1e81;" horiz-adv-x="798" 
d="M261 520h-227l40 -520h221l91 230v-230h236l218 520h-226l-74 -242l2 242h-208l-83 -242zM541 557l85 79l-178 124l-147 -125z" />
    <glyph glyph-name="Wacute" unicode="&#x1e82;" horiz-adv-x="955" 
d="M309 710h-242l43 -710h249l121 332l1 -332h253l295 710h-230l-116 -374l-10 374h-239l-140 -368zM637 946l-226 -117l52 -82l268 68z" />
    <glyph glyph-name="wacute" unicode="&#x1e83;" horiz-adv-x="798" 
d="M261 520h-227l40 -520h221l91 230v-230h236l218 520h-226l-74 -242l2 242h-208l-83 -242zM519 760l-224 -124l58 -79l266 78z" />
    <glyph glyph-name="Wdieresis" unicode="&#x1e84;" horiz-adv-x="955" 
d="M799 710l-116 -374l-10 374h-239l-140 -368l15 368h-242l43 -710h249l121 332l1 -332h253l295 710h-230zM482 926q-18 0 -34.5 -7t-30.5 -18.5t-23.5 -27t-13.5 -33.5q-7 -36 13.5 -61.5t55.5 -25.5q18 0 34.5 7t30 18.5t23.5 27.5t13 34q4 18 0.5 33.5t-13 27
t-23.5 18.5t-32 7zM772 840q3 18 -0.5 33.5t-13 27t-23.5 18.5t-32 7t-34.5 -7t-30 -18.5t-23.5 -27t-13 -33.5q-7 -36 13 -61.5t55 -25.5q18 0 34.5 7t30.5 18.5t24 27.5t13 34z" />
    <glyph glyph-name="wdieresis" unicode="&#x1e85;" horiz-adv-x="798" 
d="M840 520h-226l-74 -242l2 242h-208l-83 -242l10 242h-227l40 -520h221l91 230v-230h236zM268 657q-7 -36 13.5 -61.5t55.5 -25.5q18 0 34.5 7t30 18.5t23.5 27.5t13 34q4 18 0.5 33.5t-13 27t-23.5 18.5t-32 7t-34.5 -7t-30.5 -18.5t-23.5 -27t-13.5 -33.5zM558 570
q18 0 34.5 7t30.5 18.5t24 27.5t13 34t-0.5 33.5t-13 27t-23.5 18.5t-32 7t-34.5 -7t-30 -18.5t-23.5 -27t-13 -33.5q-7 -36 13 -61.5t55 -25.5z" />
    <glyph glyph-name="Ygrave" unicode="&#x1ef2;" horiz-adv-x="691" 
d="M52 710l173 -438l-48 -272h232l48 274l329 436h-256l-153 -215l-70 215h-255zM423 949l-141 -135l242 -68l83 81z" />
    <glyph glyph-name="ygrave" unicode="&#x1ef3;" horiz-adv-x="559" 
d="M255 16l-6 -36q-8 -38 -40 -38q-14 0 -21 5.5t-12 13.5l-18 29l-194 -88l11 -26q13 -28 30.5 -48t42.5 -33t57.5 -19t74.5 -6q250 0 292 229l92 521h-220l-54 -307q-4 -1 -9.5 -1h-12.5q-20 0 -27 7t-3 27v3l48 271h-220l-47 -265q-10 -55 -3 -99.5t31 -75.5t65 -48
t99 -17h26t18 1zM501 637l-179 123l-146 -125l240 -78z" />
    <glyph glyph-name="endash" unicode="&#x2013;" horiz-adv-x="568" 
d="M11 169h498l35 195h-498z" />
    <glyph glyph-name="emdash" unicode="&#x2014;" horiz-adv-x="789" 
d="M47 365l-34 -197h718l34 197h-718z" />
    <glyph glyph-name="quoteleft" unicode="&#x2018;" horiz-adv-x="281" 
d="M175 713l-164 -338h225l101 338h-162z" />
    <glyph glyph-name="quoteright" unicode="&#x2019;" horiz-adv-x="280" 
d="M135 713l-101 -338h162l164 338h-225z" />
    <glyph glyph-name="quotesinglbase" unicode="&#x201a;" horiz-adv-x="235" 
d="M-7 110l-47 -264h162l78 264h-193z" />
    <glyph glyph-name="quotedblleft" unicode="&#x201c;" horiz-adv-x="517" 
d="M249 382h226l100 338h-162zM177 720l-164 -338h226l100 338h-162z" />
    <glyph glyph-name="quotedblright" unicode="&#x201d;" horiz-adv-x="518" 
d="M268 362h162l164 338h-225zM133 700l-101 -338h162l164 338h-225z" />
    <glyph glyph-name="quotedblbase" unicode="&#x201e;" horiz-adv-x="512" 
d="M164 -132h162l164 338h-226zM28 206l-100 -338h162l164 338h-226z" />
    <glyph glyph-name="dagger" unicode="&#x2020;" horiz-adv-x="555" 
d="M63 543l-36 -201h147l-78 -442h221l78 442h147l36 201h-147l30 168h-221l-30 -168h-147z" />
    <glyph glyph-name="daggerdbl" unicode="&#x2021;" horiz-adv-x="575" 
d="M585 543h-147l30 168h-221l-30 -168h-147l-36 -201h147l-13 -74h-146l-36 -201h147l-30 -167h221l30 167h147l36 201h-148l13 74h147z" />
    <glyph glyph-name="bullet" unicode="&#x2022;" horiz-adv-x="400" 
d="M35 264q-12 -68 25 -114.5t105 -46.5t122 47q53 46 65 114t-25 114t-105 46q-69 0 -122 -45.5t-65 -114.5z" />
    <glyph glyph-name="ellipsis" unicode="&#x2026;" horiz-adv-x="834" 
d="M273 104q-4 -23 0.5 -43.5t16.5 -35.5t30.5 -24t41.5 -9t45 9t40 24t31 35.5t17 43.5t-1 43.5t-17 35.5t-30.5 24t-41.5 9t-45 -9t-40 -24t-30.5 -35.5t-16.5 -43.5zM553 104q-4 -23 0.5 -43.5t17 -35.5t31 -24t41.5 -9t44.5 9t39.5 24t31 35.5t17 43.5q5 23 0 43.5
t-17 35.5t-31 24t-42 9t-44.5 -9t-39.5 -24t-30.5 -35.5t-17.5 -43.5zM-8 104q-5 -23 0 -43.5t17.5 -35.5t31 -24t41.5 -9t44.5 9t39.5 24t31 35.5t17 43.5q5 23 0 43.5t-17 35.5t-31 24t-42 9t-44.5 -9t-39.5 -24t-31 -35.5t-17 -43.5z" />
    <glyph glyph-name="perthousand" unicode="&#x2030;" horiz-adv-x="1348" 
d="M283 0l645 710h-232l-646 -710h233zM930 146q-14 -76 26.5 -118t130.5 -42t144 42t68 118l14 78q13 76 -26.5 119t-129.5 43t-145 -43t-68 -119zM540 146q-14 -76 26.5 -118t130.5 -42t144 42t68 118l14 78q13 76 -26.5 119t-129.5 43t-145 -43t-68 -119zM436 563
q14 76 -25.5 119t-129.5 43t-145 -43t-69 -119l-13 -78q-14 -75 26 -117.5t130 -42.5t144.5 42.5t68.5 117.5zM723 129q-34 0 -29 29l10 55q5 29 39 29q33 0 28 -29l-10 -55q-5 -29 -38 -29zM1113 129q-34 0 -29 29l10 55q5 29 39 29q33 0 28 -29l-10 -55q-5 -29 -38 -29z
M236 468q-35 0 -29 29l9 55q6 29 40 29q33 0 27 -29l-9 -55q-6 -29 -38 -29z" />
    <glyph glyph-name="guilsinglleft" unicode="&#x2039;" horiz-adv-x="388" 
d="M337 130l-111 135l163 139l-93 114l-301 -256l206 -249z" />
    <glyph glyph-name="guilsinglright" unicode="&#x203a;" horiz-adv-x="388" 
d="M168 518l-133 -115l114 -138l-159 -134l95 -118l294 249z" />
    <glyph glyph-name="fraction" unicode="&#x2044;" horiz-adv-x="300" 
d="M536 710h-232l-523 -710h234z" />
    <glyph glyph-name="uni2070" unicode="&#x2070;" horiz-adv-x="391" 
d="M67 561q-12 -72 27 -116.5t121 -44.5q84 0 135 38t64 108l18 105q12 72 -27 116t-121 44q-85 0 -135.5 -37.5t-63.5 -107.5zM236 528q-21 0 -17 22l20 111q5 21 24 21q22 0 17 -21l-20 -111q-4 -22 -24 -22z" />
    <glyph glyph-name="uni2074" unicode="&#x2074;" horiz-adv-x="403" 
d="M219 408h143l12 65h43l21 115h-44l38 215h-139l-240 -234l-15 -96h194zM261 642l-9 -54h-46z" />
    <glyph glyph-name="uni2075" unicode="&#x2075;" horiz-adv-x="383" 
d="M45 519l9 -29q15 -48 52 -69t110 -21q81 0 131.5 38.5t61.5 104.5q11 63 -24 98t-117 35h-22l5 19h170l18 108h-300l-65 -223h163q37 0 31 -31q-6 -30 -36 -30q-32 0 -40 24l-7 24z" />
    <glyph glyph-name="uni2076" unicode="&#x2076;" horiz-adv-x="391" 
d="M436 743q-32 68 -143 68q-180 0 -206 -138l-20 -115q-14 -78 23.5 -118t125.5 -40q85 0 136.5 33t63.5 99q23 125 -137 125q-26 0 -43 -4l3 14q5 30 37 30q20 0 41 -23l9 -10l120 57zM218 547q16 4 24 4q25 0 20 -19q-3 -20 -27 -20q-23 0 -19 27z" />
    <glyph glyph-name="uni2077" unicode="&#x2077;" horiz-adv-x="350" 
d="M97 803l-23 -125h158l-178 -270h163l199 308l15 87h-334z" />
    <glyph glyph-name="uni2078" unicode="&#x2078;" horiz-adv-x="395" 
d="M53 512q-9 -54 30 -83.5t132 -29.5q183 0 202 120q10 58 -35 95q46 31 55 85q9 51 -30 82t-120 31q-79 0 -129.5 -29.5t-60.5 -86.5q-9 -54 27 -90q-62 -39 -71 -94zM235 502q-31 0 -28 18q3 15 28 28q34 -13 31 -29q-2 -7 -11 -12t-20 -5zM269 666q-28 10 -27 25
q4 16 27 16q14 0 19 -5t3 -12q-3 -14 -22 -24z" />
    <glyph glyph-name="uni2079" unicode="&#x2079;" horiz-adv-x="392" 
d="M432 658q27 153 -150 153q-176 0 -198 -124q-11 -63 21.5 -98t113.5 -35q26 0 43 4l-3 -14q-4 -30 -37 -30q-24 0 -43 25q0 1 -4 5q-1 2 -3 4l-124 -61l9 -20q14 -31 54 -49t103 -18q91 0 138 34t60 109zM236 679q3 20 26 20q25 0 20 -27l-2 -8q-16 -4 -24 -4
q-23 0 -20 19z" />
    <glyph glyph-name="uni2080" unicode="&#x2080;" horiz-adv-x="391" 
d="M-26 33q-12 -72 27 -116.5t121 -44.5q84 0 135 38t64 108l18 105q12 72 -27 116t-121 44q-85 0 -135.5 -37.5t-63.5 -107.5zM143 0q-21 0 -17 22l20 111q5 21 24 21q22 0 17 -21l-20 -111q-4 -22 -24 -22z" />
    <glyph glyph-name="uni2081" unicode="&#x2081;" horiz-adv-x="302" 
d="M41 -120h154l70 395h-117l-183 -95l50 -115l64 31z" />
    <glyph glyph-name="uni2082" unicode="&#x2082;" horiz-adv-x="379" 
d="M334 157q8 55 -30 90t-113 35q-71 0 -114 -23.5t-72 -71.5l-20 -35l123 -46l18 25q8 11 17.5 16.5t17.5 5.5q7 0 11 -4.5t2 -13.5q-4 -25 -36 -36l-56 -17q-58 -18 -85 -45t-37 -79l-14 -79h333l22 124h-132v1q2 5 17 8l39 11q94 24 109 134z" />
    <glyph glyph-name="uni2083" unicode="&#x2083;" horiz-adv-x="387" 
d="M126 -128q168 0 189 121q12 63 -34 90q45 31 52 76q10 57 -29 90.5t-115 33.5q-138 0 -191 -92l-17 -29l97 -48l10 14q4 5 7 10t4 6q20 29 61 29q31 0 26 -18q-4 -19 -33 -19h-36l-22 -115h43q18 0 23 -4.5t3 -15.5q-3 -15 -32 -15q-40 0 -49 25l-10 32l-121 -41l4 -34
q12 -96 170 -96zM129 -1018l4 -35q12 -96 170 -96q168 0 189 121q12 63 -34 90q44 31 52 76q10 57 -29 90.5t-115 33.5q-139 0 -191 -92l-16 -29l96 -48l10 14q4 5 7 9.5t4 6.5q19 29 61 29q31 0 26 -18q-5 -19 -33 -19h-36l-22 -115h43q18 0 23 -4.5t3 -15.5
q-3 -15 -32 -15q-40 0 -49 25l-10 33z" />
    <glyph glyph-name="uni2084" unicode="&#x2084;" horiz-adv-x="403" 
d="M126 -120h143l12 65h43l21 115h-44l38 215h-139l-241 -234l-15 -96h195zM168 114l-9 -54h-46z" />
    <glyph glyph-name="uni2085" unicode="&#x2085;" horiz-adv-x="382" 
d="M-49 -9l9 -29q15 -48 52 -69t110 -21q81 0 131.5 38.5t61.5 104.5q11 63 -24 98t-117 35h-22l5 19h170l18 108h-300l-65 -223h163q37 0 31 -31q-6 -30 -36 -30q-32 0 -40 24l-7 24z" />
    <glyph glyph-name="uni2086" unicode="&#x2086;" horiz-adv-x="391" 
d="M343 215q-32 68 -143 68q-180 0 -206 -138l-20 -115q-14 -78 23.5 -118t125.5 -40q85 0 136.5 33t63.5 99q23 125 -137 125q-26 0 -43 -4l3 14q5 30 37 30q20 0 41 -23l9 -10l120 57zM125 19q16 4 24 4q25 0 20 -19q-3 -20 -27 -20q-23 0 -19 27z" />
    <glyph glyph-name="uni2087" unicode="&#x2087;" horiz-adv-x="350" 
d="M4 275l-23 -125h158l-178 -270h163l199 308l15 87h-334z" />
    <glyph glyph-name="uni2088" unicode="&#x2088;" horiz-adv-x="395" 
d="M-40 -15q-9 -54 30 -83.5t132 -29.5q183 0 202 120q10 58 -35 95q46 31 55 85q9 51 -30 82t-120 31q-79 0 -129.5 -29.5t-60.5 -86.5q-9 -54 27 -90q-62 -39 -71 -94zM142 -25q-31 0 -28 18q3 15 28 28q34 -13 31 -29q-2 -7 -11 -12t-20 -5zM176 139q-28 10 -27 25
q4 16 27 16q14 0 19 -5t3 -12q-3 -14 -22 -24z" />
    <glyph glyph-name="uni2089" unicode="&#x2089;" horiz-adv-x="392" 
d="M339 130q27 153 -150 153q-176 0 -198 -124q-11 -63 21.5 -98t113.5 -35q26 0 43 4l-3 -14q-4 -30 -37 -30q-24 0 -43 25q0 1 -4 5q-1 2 -3 4l-124 -61l9 -20q14 -31 54 -49t103 -18q91 0 138 34t60 109zM143 151q3 20 26 20q25 0 20 -27l-2 -8q-16 -4 -24 -4
q-23 0 -20 19z" />
    <glyph glyph-name="Euro" unicode="&#x20ac;" horiz-adv-x="779" 
d="M410 -15q102 0 182 35.5t125 105.5l25 41l-199 75l-23 -22q-43 -42 -105 -42q-24 0 -35.5 6.5t-7.5 24.5l2 8h64l54 117h-108l6 33h117l54 117h-145l1 3q6 37 82 37q20 -1 32.5 -3.5t21 -6.5t14 -8.5t11.5 -10.5l15 -15l201 66l-12 33q-53 146 -253 146
q-70 0 -129.5 -15.5t-104.5 -45.5t-74 -73.5t-38 -100.5l-1 -6h-61l-55 -117h92l-6 -33h-101l-54 -117h139l-3 -17q-11 -62 6 -103.5t55.5 -66t94 -35t121.5 -10.5z" />
    <glyph glyph-name="uni20BD" unicode="&#x20bd;" horiz-adv-x="719" 
d="M724 458q11 59 1 105.5t-37 79t-71 50t-103 17.5h-345l-90 -512h-76l-27 -136h78l-11 -62h232l11 62h275l27 136h-277l5 31h114q120 0 197 57.5t97 171.5zM485 471q-5 -29 -20 -40t-48 -11h-68l18 100h65q34 0 46 -11t7 -38z" />
    <glyph glyph-name="uni2113" unicode="&#x2113;" horiz-adv-x="534" 
d="M364 189q-24 -21 -46 -21q-15 0 -24.5 9.5t-6.5 29.5v4q233 146 266 327q16 92 -22.5 143t-133.5 51q-43 0 -82 -12.5t-70.5 -38.5t-53.5 -66.5t-32 -96.5l-37 -208l-127 -69l58 -151l49 22l1 -5q5 -39 20 -61.5t38 -34t52.5 -14.5t62.5 -3q106 0 182 59l24 20l-93 139z
M366 563q14 0 11 -25q-8 -46 -48 -88l12 67q7 46 25 46z" />
    <glyph glyph-name="uni2116" unicode="&#x2116;" horiz-adv-x="1095" 
d="M118 710l-126 -710h220l54 301l135 -301h213l126 710h-221l-51 -293l-127 293h-223zM885 325q90 0 144 39.5t68 114.5l13 78q13 77 -26.5 122.5t-127.5 45.5q-184 0 -212 -153l-13 -78q-13 -76 26.5 -122.5t127.5 -46.5zM1036 133l30 166h-370l-29 -166h369zM911 468
q-35 0 -29 29l9 55q6 29 40 29q33 0 27 -29l-9 -55q-6 -29 -38 -29z" />
    <glyph glyph-name="uni2117" unicode="&#x2117;" horiz-adv-x="767" 
d="M693 606q-86 104 -237 104t-274.5 -104.5t-149.5 -255.5q-26 -150 60 -255t237 -105t273.5 104.5t149.5 255.5q26 151 -59 256zM438 608q109 0 170 -74t42 -184q-20 -109 -107 -184t-196 -75q-110 0 -171.5 75t-41.5 184q19 110 106.5 184t197.5 74zM579 392
q11 66 -21 104t-98 38h-168l-67 -382h119l19 110h49q69 0 112 32t55 98zM426 424q31 0 26 -27q-4 -28 -36 -28h-34l10 55h34z" />
    <glyph glyph-name="trademark" unicode="&#x2122;" horiz-adv-x="636" 
d="M526 443h94l45 252h-96l-73 -101l-40 101h-95l-45 -252h94l16 84l17 -34h70l29 39zM75 598h73l-28 -155h115l28 155h70l20 97h-261z" />
    <glyph glyph-name="Omega" unicode="&#x2126;" horiz-adv-x="832" 
d="M669 208q13 7 33.5 23t41.5 41t39 59t25 76q14 81 -8 138.5t-68 94t-110.5 53.5t-134.5 17t-140.5 -17t-129 -53.5t-100.5 -94t-57 -138.5q-9 -53 1.5 -91.5t27.5 -64t33 -38t17 -12.5h-128l-36 -201h373l29 165l-19 13q-100 69 -81 182q13 75 59 118t118 43t103 -43
t18 -118q-11 -62 -47 -103t-98 -79l-25 -16l-29 -162h373l36 201h-129z" />
    <glyph glyph-name="estimated" unicode="&#x212e;" horiz-adv-x="787" 
d="M619 208q-111 -133 -264 -133q-101 0 -166 62l30 169h548q3 15 5 28q2 11 3.5 20t1.5 10q15 100 -19 179q-38 89 -115 135.5t-173 46.5q-78 0 -150.5 -29.5t-131.5 -79.5t-99 -117.5t-54 -143.5q-27 -153 63 -261q88 -109 242 -109q57 0 111.5 16t103 45t89.5 69t71 88
l15 24h-95q-4 -5 -7 -8q-3 -4 -5.5 -6.5t-3.5 -4.5zM266 571q88 64 188 64q101 0 166 -64l-31 -175h-354z" />
    <glyph glyph-name="onethird" unicode="&#x2153;" horiz-adv-x="951" 
d="M832 710h-192l-523 -710h193zM766 403q-138 0 -191 -92l-16 -29l96 -48l10 14q4 5 7 10t4 6q20 29 61 29q31 0 26 -18q-4 -19 -33 -19h-36l-22 -115h43q18 0 23 -4.5t3 -15.5q-3 -15 -32 -15q-40 0 -49 25l-10 32l-121 -41l4 -34q12 -96 170 -96q168 0 189 121
q12 63 -34 90q45 31 52 76q10 57 -29 90.5t-115 33.5zM892 -880q18 0 23 -4.5t3 -15.5q-3 -15 -32 -15q-40 0 -49 25l-10 33l-121 -41l4 -35q12 -96 170 -96q168 0 189 121q12 63 -34 90q44 31 52 76q10 57 -29 90.5t-115 33.5q-139 0 -191 -92l-16 -29l96 -48l10 14
q4 5 7 9.5t4 6.5q19 29 61 29q31 0 26 -18q-5 -19 -33 -19h-36l-22 -115h43zM244 716l-183 -95l50 -115l64 31l-38 -216h154l70 395h-117z" />
    <glyph glyph-name="twothirds" unicode="&#x2154;" horiz-adv-x="1003" 
d="M369 0l522 710h-192l-523 -710h193zM258 578q-4 -25 -36 -36l-56 -17q-29 -9 -50 -20t-35 -25.5t-23 -33.5t-14 -45l-14 -79h333l22 124h-132v1q2 5 17 8l39 11q94 24 109 134q8 55 -30 90t-113 35q-71 0 -114 -23.5t-72 -71.5l-20 -35l123 -46l18 25q8 11 17.5 16.5
t17.5 5.5q7 0 11 -4.5t2 -13.5zM1001 -618q-139 0 -191 -92l-16 -29l96 -48l10 14q4 5 7 9.5t4 6.5q19 29 61 29q31 0 26 -18q-5 -19 -33 -19h-36l-22 -115h43q18 0 23 -4.5t3 -15.5q-3 -15 -32 -15q-40 0 -49 25l-10 33l-121 -41l4 -35q12 -96 170 -96q168 0 189 121
q12 63 -34 90q44 31 52 76q10 57 -29 90.5t-115 33.5zM968 279q10 57 -29 90.5t-115 33.5q-138 0 -191 -92l-16 -29l96 -48l10 14q4 5 7 10t4 6q20 29 61 29q31 0 26 -18q-4 -19 -33 -19h-36l-22 -115h43q18 0 23 -4.5t3 -15.5q-3 -15 -32 -15q-40 0 -49 25l-10 32l-121 -41
l4 -34q12 -96 170 -96q168 0 189 121q12 63 -34 90q45 31 52 76z" />
    <glyph glyph-name="oneeighth" unicode="&#x215b;" horiz-adv-x="960" 
d="M119 0h193l522 710h-192zM699 -9q183 0 202 120q10 58 -35 95q46 31 55 85q9 51 -30 82t-120 31q-79 0 -129.5 -29.5t-60.5 -86.5q-9 -54 27 -90q-62 -39 -71 -94q-9 -54 30 -83.5t132 -29.5zM244 716l-183 -95l50 -115l64 31l-38 -216h154l70 395h-117zM750 111
q-2 -7 -11 -12t-20 -5q-31 0 -28 18q3 15 28 28q34 -13 31 -29zM753 258q-28 10 -27 25q4 16 27 16q14 0 19 -5t3 -12q-3 -14 -22 -24z" />
    <glyph glyph-name="threeeighths" unicode="&#x215c;" horiz-adv-x="1003" 
d="M883 710h-192l-523 -710h193zM629 288q-9 -54 27 -90q-62 -39 -71 -94q-9 -54 30 -83.5t132 -29.5q183 0 202 120q10 58 -35 95q46 31 55 85q9 51 -30 82t-120 31q-79 0 -129.5 -29.5t-60.5 -86.5zM239 578h-36l-22 -115h43q18 0 23 -4.5t3 -15.5q-3 -15 -32 -15
q-40 0 -49 25l-10 32l-121 -41l4 -34q12 -96 170 -96q168 0 189 121q12 63 -34 90q45 31 52 76q10 57 -29 90.5t-115 33.5q-138 0 -191 -92l-16 -29l96 -48l10 14q4 5 7 10t4 6q20 29 61 29q31 0 26 -18q-4 -19 -33 -19zM336 -535l-121 -41l4 -35q12 -96 170 -96
q168 0 189 121q12 63 -34 90q44 31 52 76q10 57 -29 90.5t-115 33.5q-139 0 -191 -92l-16 -29l96 -48l10 14q4 5 7 9.5t4 6.5q19 29 61 29q31 0 26 -18q-5 -19 -33 -19h-36l-22 -115h43q18 0 23 -4.5t3 -15.5q-3 -15 -32 -15q-40 0 -49 25zM739 112q3 15 28 28
q34 -13 31 -29q-2 -7 -11 -12t-20 -5q-31 0 -28 18zM801 258q-28 10 -27 25q4 16 27 16q14 0 19 -5t3 -12q-3 -14 -22 -24z" />
    <glyph glyph-name="fiveeighths" unicode="&#x215d;" horiz-adv-x="990" 
d="M349 0l522 710h-192l-523 -710h193zM571 104q-9 -54 30 -83.5t132 -29.5q183 0 202 120q10 58 -35 95q46 31 55 85q9 51 -30 82t-120 31q-79 0 -129.5 -29.5t-60.5 -86.5q-9 -54 27 -90q-62 -39 -71 -94zM411 608l18 108h-300l-65 -223h163q37 0 31 -31q-6 -30 -36 -30
q-32 0 -40 24l-7 24l-140 -48l9 -29q15 -48 52 -69t110 -21q81 0 131.5 38.5t61.5 104.5q11 63 -24 98t-117 35h-22l5 19h170zM753 94q-31 0 -28 18q3 15 28 28q34 -13 31 -29q-2 -7 -11 -12t-20 -5zM787 258q-28 10 -27 25q4 16 27 16q14 0 19 -5t3 -12q-3 -14 -22 -24z
" />
    <glyph glyph-name="seveneighths" unicode="&#x215e;" horiz-adv-x="924" 
d="M77 0h193l522 710h-192zM667 -9q183 0 202 120q10 58 -35 95q46 31 55 85q9 51 -30 82t-120 31q-79 0 -129.5 -29.5t-60.5 -86.5q-9 -54 27 -90q-62 -39 -71 -94q-9 -54 30 -83.5t132 -29.5zM49 318h163l199 308l15 87h-334l-23 -125h158zM718 111q-2 -7 -11 -12t-20 -5
q-31 0 -28 18q3 15 28 28q34 -13 31 -29zM721 258q-28 10 -27 25q4 16 27 16q14 0 19 -5t3 -12q-3 -14 -22 -24z" />
    <glyph glyph-name="arrowleft" unicode="&#x2190;" horiz-adv-x="745" 
d="M363 626l-343 -292l240 -290l134 113l-77 96h379l28 160h-381l115 98z" />
    <glyph glyph-name="arrowup" unicode="&#x2191;" horiz-adv-x="745" 
d="M236 -11h160l67 381l81 -98l135 116l-240 291l-342 -292l93 -113l113 93z" />
    <glyph glyph-name="arrowright" unicode="&#x2192;" horiz-adv-x="745" 
d="M32 253h378l-110 -96l93 -113l343 291l-240 291l-135 -116l80 -97h-381z" />
    <glyph glyph-name="arrowdown" unicode="&#x2193;" horiz-adv-x="745" 
d="M356 669l-67 -378l-79 93l-133 -113l239 -292l343 291l-96 116l-114 -98l67 381h-160z" />
    <glyph glyph-name="uni2196" unicode="&#x2196;" horiz-adv-x="745" 
d="M379 458l-317 -270l94 -113l315 268l-24 -134h162l72 411h-411l-30 -162h139z" />
    <glyph glyph-name="uni2197" unicode="&#x2197;" horiz-adv-x="745" 
d="M175 620l-72 -411h162l24 134l221 -268l133 114l-223 269h138l30 162h-413z" />
    <glyph glyph-name="uni2198" unicode="&#x2198;" horiz-adv-x="745" 
d="M253 627l-134 -114l223 -269h-138l-30 -162h413l72 411h-162l-24 -134z" />
    <glyph glyph-name="uni2199" unicode="&#x2199;" horiz-adv-x="745" 
d="M81 82h411l30 162h-139l317 270l-93 113l-316 -268l24 134h-162z" />
    <glyph glyph-name="partialdiff" unicode="&#x2202;" horiz-adv-x="562" 
d="M547 369q16 92 9 162t-45.5 117.5t-112.5 71.5t-193 24h-43l-34 -190h44q117 0 153 -14q35 -15 38 -64q-31 9 -78 9q-108 0 -179.5 -49.5t-88.5 -145.5l-11 -66q-19 -109 36.5 -174t179.5 -65q127 0 202 56t94 162zM236 287q5 33 45 33q37 0 32 -33l-15 -84
q-6 -32 -44 -32q-39 0 -33 32z" />
    <glyph glyph-name="Delta" unicode="&#x2206;" horiz-adv-x="697" 
d="M624 0l23 129l-150 581h-153l-355 -585l-22 -125h657zM422 182h-195l141 253z" />
    <glyph glyph-name="product" unicode="&#x220f;" horiz-adv-x="752" 
d="M145 510l-108 -610h231l108 610h70l-108 -610h231l108 610h89l36 200h-710l-36 -200h89z" />
    <glyph glyph-name="summation" unicode="&#x2211;" horiz-adv-x="629" 
d="M-49 -100h580l34 201h-252l181 208l-105 201h245l35 200h-569l-24 -131l152 -271l-253 -275z" />
    <glyph glyph-name="minus" unicode="&#x2212;" horiz-adv-x="597" 
d="M25 228h520l34 196h-520z" />
    <glyph glyph-name="uni2215" unicode="&#x2215;" horiz-adv-x="695" 
d="M796 710h-231l-649 -710h233z" />
    <glyph glyph-name="uni2219" unicode="&#x2219;" horiz-adv-x="282" 
d="M252 297q5 23 0 43.5t-17.5 35.5t-31 24t-41.5 9t-44.5 -9t-39.5 -24t-30.5 -35.5t-17.5 -43.5q-4 -23 1 -43.5t17 -35.5t30.5 -24t41.5 -9t45 9t40 24t30.5 35.5t16.5 43.5z" />
    <glyph glyph-name="radical" unicode="&#x221a;" horiz-adv-x="785" 
d="M-1 257h151l68 -363h237l423 856h-235l-252 -551l-43 253h-314z" />
    <glyph glyph-name="infinity" unicode="&#x221e;" horiz-adv-x="804" 
d="M261 493q-45 0 -85 -14t-71.5 -39.5t-52.5 -62t-29 -81.5q-15 -89 31 -153q47 -65 129 -65q60 0 111 28t84 70q18 -49 62.5 -73.5t98.5 -24.5q43 0 82.5 14.5t71.5 40t54 62t28 79.5q8 51 0 91.5t-29 69t-54.5 43.5t-77.5 15q-107 0 -198 -106q-46 106 -155 106zM208 244
q-19 0 -27 12t-6 31q2 17 15 28.5t34 11.5q18 0 30 -12.5t22 -27.5q-40 -43 -68 -43zM587 327q20 0 28.5 -11.5t6.5 -28.5q-3 -17 -17 -30t-32 -13q-17 0 -28 10t-24 33q37 40 66 40z" />
    <glyph glyph-name="integral" unicode="&#x222b;" horiz-adv-x="426" 
d="M-83 -220h40q138 0 215.5 50.5t97.5 164.5l87 495q6 32 21 46.5t43 14.5h42l32 189h-40q-275 0 -314 -220l-87 -497q-9 -54 -63 -54h-42z" />
    <glyph glyph-name="approxequal" unicode="&#x2248;" horiz-adv-x="589" 
d="M305 355q54 -19 99 -19t84.5 15t74.5 43l27 22l-61 171l-49 -35q-14 -10 -29 -16t-32 -6q-29 0 -86 19q-58 18 -98 18q-44 0 -83 -15.5t-73 -41.5l-14 -11l62 -168l34 22q33 21 66 21q22 0 78 -19zM517 149l-64 173l-15 -12q-27 -21 -62 -23q-24 0 -82 19q-57 19 -101 19
q-43 0 -82 -14.5t-73 -40.5l-29 -23l61 -172l49 35q28 20 62 22q27 0 87 -20q53 -18 95 -18q43 0 82 14.5t72 40.5z" />
    <glyph glyph-name="notequal" unicode="&#x2260;" horiz-adv-x="598" 
d="M601 544h-86l40 59h-126l-41 -59h-307l-34 -195h207l-31 -45h-184l-34 -195h84l-42 -60h127l42 60h309l34 195h-209l31 45h186z" />
    <glyph glyph-name="lessequal" unicode="&#x2264;" horiz-adv-x="520" 
d="M43 364l417 -168l33 184l-187 59l208 61l32 178l-477 -167zM-19 18h447l30 166h-447z" />
    <glyph glyph-name="greaterequal" unicode="&#x2265;" horiz-adv-x="518" 
d="M56 382l-33 -185l477 169l26 143l-417 168l-32 -178l183 -60zM-9 16h447l29 166h-447z" />
    <glyph glyph-name="lozenge" unicode="&#x25ca;" horiz-adv-x="632" 
d="M336 0l301 355l-176 355h-144l-303 -355l179 -355h143zM349 465l52 -110l-90 -109h-4l-52 109l90 110h4z" />
    <glyph glyph-name="zero.denom" horiz-adv-x="391" 
d="M-5 153q-12 -72 27 -116.5t121 -44.5q84 0 135 38t64 108l18 105q12 72 -27 116t-121 44q-85 0 -135.5 -37.5t-63.5 -107.5zM164 120q-21 0 -17 22l20 111q5 21 24 21q22 0 17 -21l-20 -111q-4 -22 -24 -22z" />
    <glyph glyph-name="one.denom" horiz-adv-x="302" 
d="M62 1h154l70 395h-117l-183 -95l50 -115l64 31z" />
    <glyph glyph-name="two.denom" horiz-adv-x="380" 
d="M356 278q8 55 -30 90t-113 35q-71 0 -114 -23.5t-72 -71.5l-20 -35l123 -46l18 25q8 11 17.5 16.5t17.5 5.5q7 0 11 -4.5t2 -13.5q-4 -25 -36 -36l-56 -17q-58 -18 -85 -45t-37 -79l-14 -79h333l22 124h-132v1q2 5 17 8l39 11q94 24 109 134z" />
    <glyph glyph-name="three.denom" horiz-adv-x="387" 
d="M150 -898l4 -35q12 -96 170 -96q168 0 189 121q12 63 -34 90q44 31 52 76q10 57 -29 90.5t-115 33.5q-139 0 -191 -92l-16 -29l96 -48l10 14q4 5 7 9.5t4 6.5q19 29 61 29q31 0 26 -18q-5 -19 -33 -19h-36l-22 -115h43q18 0 23 -4.5t3 -15.5q-1 -15 -32 -15q-40 0 -49 25
l-10 33zM147 -8q168 0 189 121q12 63 -34 90q45 31 52 76q10 57 -29 90.5t-115 33.5q-138 0 -191 -92l-16 -29l96 -48l10 14q4 5 7 10t4 6q20 29 61 29q31 0 26 -18q-4 -19 -33 -19h-36l-22 -115h43q18 0 23 -4.5t3 -15.5q-3 -15 -32 -15q-40 0 -49 25l-10 32l-121 -41
l4 -34q12 -96 170 -96z" />
    <glyph glyph-name="four.denom" horiz-adv-x="403" 
d="M147 0h143l12 65h43l21 115h-44l38 215h-139l-241 -234l-15 -96h195zM189 234l-9 -54h-46z" />
    <glyph glyph-name="five.denom" horiz-adv-x="383" 
d="M-27 111l9 -29q15 -48 52 -69t110 -21q81 0 131.5 38.5t61.5 104.5q11 63 -24 98t-117 35h-22l5 19h170l18 108h-300l-65 -223h163q37 0 31 -31q-6 -30 -36 -30q-32 0 -40 24l-7 24z" />
    <glyph glyph-name="six.denom" horiz-adv-x="391" 
d="M364 335q-32 68 -143 68q-180 0 -206 -138l-20 -115q-14 -78 23.5 -118t125.5 -40q85 0 136.5 33t63.5 99q23 125 -137 125q-26 0 -43 -4l3 14q5 30 37 30q20 0 41 -23l9 -10l120 57zM146 139q16 4 24 4q25 0 20 -19q-3 -20 -27 -20q-23 0 -19 27z" />
    <glyph glyph-name="seven.denom" horiz-adv-x="350" 
d="M25 395l-23 -125h158l-178 -270h163l199 308l15 87h-334z" />
    <glyph glyph-name="eight.denom" horiz-adv-x="395" 
d="M-19 104q-9 -54 30 -83.5t132 -29.5q183 0 202 120q10 58 -35 95q46 31 55 85q9 51 -30 82t-120 31q-79 0 -129.5 -29.5t-60.5 -86.5q-9 -54 27 -90q-62 -39 -71 -94zM163 94q-31 0 -28 18q3 15 28 28q34 -13 31 -29q-2 -7 -11 -12t-20 -5zM197 258q-28 10 -27 25
q4 16 27 16q14 0 19 -5t3 -12q-3 -14 -22 -24z" />
    <glyph glyph-name="nine.denom" horiz-adv-x="392" 
d="M360 250q27 153 -150 153q-176 0 -198 -124q-11 -63 21.5 -98t113.5 -35q26 0 43 4l-3 -14q-4 -30 -37 -30q-24 0 -43 25q0 1 -4 5q-1 2 -3 4l-124 -61l9 -20q14 -31 54 -49t103 -18q91 0 138 34t60 109zM164 271q3 20 26 20q25 0 20 -27l-2 -8q-16 -4 -24 -4
q-23 0 -20 19z" />
    <glyph glyph-name="zero.num" horiz-adv-x="392" 
d="M52 473q-12 -72 27 -116.5t121 -44.5q84 0 135 38t64 108l18 105q12 72 -27 116t-121 44q-85 0 -135.5 -37.5t-63.5 -107.5zM221 440q-21 0 -17 22l20 111q5 21 24 21q22 0 17 -21l-20 -111q-4 -22 -24 -22z" />
    <glyph glyph-name="one.num" horiz-adv-x="301" 
d="M117 321h154l70 395h-117l-183 -95l50 -115l64 31z" />
    <glyph glyph-name="two.num" horiz-adv-x="380" 
d="M412 598q8 55 -30 90t-113 35q-71 0 -114 -23.5t-72 -71.5l-20 -35l123 -46l18 25q8 11 17.5 16.5t17.5 5.5q7 0 11 -4.5t2 -13.5q-4 -25 -36 -36l-56 -17q-29 -9 -50 -20t-35 -25.5t-23 -33.5t-14 -45l-14 -79h333l22 124h-132v1q2 5 17 8l39 11q94 24 109 134z" />
    <glyph glyph-name="three.num" horiz-adv-x="387" 
d="M264 595q-4 -19 -33 -19h-36l-22 -115h43q18 0 23 -4.5t3 -15.5q-3 -15 -32 -15q-40 0 -49 25l-10 32l-121 -41l4 -34q12 -96 170 -96q168 0 189 121q12 63 -34 90q45 31 52 76q10 57 -29 90.5t-115 33.5q-138 0 -191 -92l-16 -29l96 -48l10 14q4 5 7 10t4 6q20 29 61 29
q31 0 26 -18z" />
    <glyph glyph-name="four.num" horiz-adv-x="404" 
d="M204 320h143l12 65h43l21 115h-44l38 215h-139l-240 -234l-15 -96h194zM246 554l-9 -54h-46z" />
    <glyph glyph-name="five.num" horiz-adv-x="382" 
d="M29 431l9 -29q15 -48 52 -69t110 -21q81 0 131.5 38.5t61.5 104.5q11 63 -24 98t-117 35h-22l5 19h170l18 108h-300l-65 -223h163q37 0 31 -31q-6 -30 -36 -30q-32 0 -40 24l-7 24z" />
    <glyph glyph-name="six.num" horiz-adv-x="392" 
d="M421 655q-32 68 -143 68q-180 0 -206 -138l-20 -115q-14 -78 23.5 -118t125.5 -40q85 0 136.5 33t63.5 99q23 125 -137 125q-26 0 -43 -4l3 14q5 30 37 30q20 0 41 -23l9 -10l120 57zM203 459q16 4 24 4q25 0 20 -19q-3 -20 -27 -20q-23 0 -19 27z" />
    <glyph glyph-name="seven.num" horiz-adv-x="349" 
d="M81 714l-23 -125h158l-178 -270h163l199 308l15 87h-334z" />
    <glyph glyph-name="eight.num" horiz-adv-x="395" 
d="M38 424q-9 -54 30 -83.5t132 -29.5q183 0 202 120q10 58 -35 95q46 31 55 85q9 51 -30 82t-120 31q-79 0 -129.5 -29.5t-60.5 -86.5q-9 -54 27 -90q-62 -39 -71 -94zM220 414q-31 0 -28 18q3 15 28 28q34 -13 31 -29q-2 -7 -11 -12t-20 -5zM254 578q-28 10 -27 25
q4 16 27 16q14 0 19 -5t3 -12q-3 -14 -22 -24z" />
    <glyph glyph-name="nine.num" horiz-adv-x="392" 
d="M417 570q27 153 -150 153q-176 0 -198 -124q-11 -63 21.5 -98t113.5 -35q26 0 43 4l-3 -14q-4 -30 -37 -30q-24 0 -43 25q0 1 -4 5q-1 2 -3 4l-124 -61l9 -20q14 -31 54 -49t103 -18q91 0 138 34t60 109zM221 591q3 20 26 20q25 0 20 -27l-2 -8q-16 -4 -24 -4
q-23 0 -20 19z" />
    <glyph glyph-name="nonmarkingreturn" horiz-adv-x="322" 
 />
    <glyph glyph-name="acute.case" horiz-adv-x="257" 
d="M304 944l-226 -117l53 -82l267 68z" />
    <glyph glyph-name="breve.case" horiz-adv-x="287" 
d="M188 936l-139 -49l5 -26q24 -110 171 -110t210 110l14 26l-125 49l-19 -21q-24 -27 -56 -27q-34 0 -49 27z" />
    <glyph glyph-name="caron.case" horiz-adv-x="477" 
d="M355 878l-29 48h-210l142 -174h136l202 174h-193z" />
    <glyph glyph-name="cedilla.case" horiz-adv-x="251" 
d="M-70 -116l-19 -108l30 -10q35 -11 76 -11q146 0 175 101q12 43 -4.5 71.5t-59.5 29.5h-10l23 43h-106l-71 -115h47q27 0 35.5 -4.5t6.5 -15.5q-3 -20 -32 -20t-54 16z" />
    <glyph glyph-name="circumflex.case" horiz-adv-x="401" 
d="M382 925h-144l-206 -174h206l48 50l27 -50h215z" />
    <glyph glyph-name="dieresis.case" horiz-adv-x="439" 
d="M292 839q8 37 -12.5 62.5t-56.5 25.5q-18 0 -35 -7t-31 -19t-24 -28t-13 -34q-8 -37 12.5 -62.5t56.5 -25.5q18 0 35 7t31 19t24 28t13 34zM444 927q-18 0 -35 -7t-31 -19t-24 -28t-13 -34q-8 -37 12.5 -62.5t56.5 -25.5q18 0 35 7t31 19t24 28t13 34q8 37 -12.5 62.5
t-56.5 25.5z" />
    <glyph glyph-name="dotaccent.case" horiz-adv-x="223" 
d="M299 839q8 37 -12.5 62.5t-56.5 25.5q-18 0 -35 -7t-31 -19t-24 -28t-13 -34q-8 -37 12.5 -62.5t56.5 -25.5q18 0 35 7t31 19t24 28t13 34z" />
    <glyph glyph-name="grave.case" horiz-adv-x="257" 
d="M211 949l-140 -135l242 -68l83 81z" />
    <glyph glyph-name="hungarumlaut.case" horiz-adv-x="395" 
d="M271 771l114 -23l225 142l-174 44zM216 935l-162 -168l122 -18l213 154z" />
    <glyph glyph-name="macron.case" horiz-adv-x="352" 
d="M105 776h328l22 125h-328z" />
    <glyph glyph-name="ogonek.case" horiz-adv-x="252" 
d="M35 0q-22 -19 -41 -42t-33 -47t-21.5 -48t-7.5 -45q3 -64 94 -64q71 0 127 34l20 12l-24 90q-5 -3 -9 -5q-3 -2 -6 -3.5t-5 -1.5q-12 -6 -20 -6q-15 0 -14 18q3 34 65 108h-125z" />
    <glyph glyph-name="ring.case" horiz-adv-x="240" 
d="M86 866q-10 -58 23.5 -89.5t97.5 -31.5q63 0 106.5 32t53.5 89t-22.5 89.5t-95.5 32.5q-64 0 -108.5 -31t-54.5 -91zM223 837q-15 0 -22.5 8t-5.5 21q5 30 38 30q29 0 24 -30q-5 -29 -34 -29z" />
    <glyph glyph-name="tilde.case" horiz-adv-x="305" 
d="M55 787l-4 -24h119l3 18q3 16 16 16q8 0 48 -17t86 -17q52 0 83.5 29t43.5 99l4 24h-118l-3 -18q-3 -16 -16 -16q-7 0 -49 17t-88 17q-102 0 -125 -128z" />
    <glyph glyph-name="uni0326.alt" horiz-adv-x="0" 
d="M197 785l-117 -217h198l65 217h-146z" />
    <glyph glyph-name="_375" horiz-adv-x="677" 
d="M620 0l23 129l-150 581h-153l-355 -585l-22 -125h657zM418 182h-195l141 253z" />
    <glyph glyph-name="_376" horiz-adv-x="794" 
d="M657 208q13 7 33.5 23t41.5 41t39 59t25 76q14 81 -8 138.5t-68 94t-110.5 53.5t-134.5 17t-140.5 -17t-129 -53.5t-100.5 -94t-57 -138.5q-9 -53 1.5 -91.5t27.5 -64t33 -38t17 -12.5h-128l-36 -201h373l29 165l-19 13q-100 69 -81 182q13 75 59 118t118 43t103 -43
t18 -118q-11 -62 -47 -103t-98 -79l-25 -16l-29 -162h373l36 201h-129z" />
    <glyph glyph-name="period.1" horiz-adv-x="274" 
 />
    </font>
</defs>
</svg>
