<?xml version="1.0" standalone="no"?>
<!DOCTYPE svg PUBLIC "-//W3C//DTD SVG 1.1//EN" "http://www.w3.org/Graphics/SVG/1.1/DTD/svg11.dtd" >
<svg xmlns="http://www.w3.org/2000/svg" xmlns:xlink="http://www.w3.org/1999/xlink" version="1.1">
<metadata>
Created by FontForge 20170731 at Sat Sep  7 17:11:16 2019
 By Aleksey,,,
Moh'd M. Khatib.2019
</metadata>
<defs>
<font id="Sahar-SemiBoldItalic" horiz-adv-x="647" >
  <font-face 
    font-family="Sahar SemiBold Italic"
    font-weight="600"
    font-style="italic"
    font-stretch="normal"
    units-per-em="1000"
    panose-1="0 0 0 0 0 0 0 0 0 0"
    ascent="800"
    descent="-200"
    x-height="516"
    cap-height="710"
    bbox="-213 -257 1139.06 973"
    underline-thickness="50"
    underline-position="-250"
    unicode-range="U+0020-FB02"
  />
<missing-glyph horiz-adv-x="686" 
d="M610 710h-529v-710h529v710zM514 620v-530h-337v530h337z" />
    <glyph glyph-name="fi" unicode="fi" horiz-adv-x="570" 
d="M145 516h-100l-14 -83h100l-76 -433h89l77 433h221l-76 -433h90l89 516h-310l3 19q12 67 46 94.5t105 27.5h182l14 83h-181q-115 0 -175.5 -48.5t-79.5 -156.5z" />
    <glyph glyph-name="fl" unicode="fl" horiz-adv-x="563" 
d="M145 516h-100l-14 -83h100l-76 -433h89l77 433h123l11 83h-120l3 19q6 34 17 57.5t28.5 37.5t43.5 20.5t62 6.5h82l-115 -657h89l130 740h-171q-115 0 -175.5 -49t-79.5 -155z" />
    <glyph glyph-name=".notdef" horiz-adv-x="686" 
d="M610 710h-529v-710h529v710zM514 620v-530h-337v530h337z" />
    <glyph glyph-name=".null" horiz-adv-x="371" 
 />
    <glyph glyph-name="glyph2" horiz-adv-x="333" 
 />
    <glyph glyph-name="space" unicode=" " horiz-adv-x="231" 
 />
    <glyph glyph-name="exclam" unicode="!" horiz-adv-x="222" 
d="M55 184h71l109 556h-94zM12 49q-3 -23 10.5 -39t36.5 -16t41 16t21 39t-10.5 38.5t-36.5 15.5t-41 -15.5t-21 -38.5z" />
    <glyph glyph-name="quotedbl" unicode="&#x22;" horiz-adv-x="318" 
d="M87 465h69l56 245h-82zM210 465h69l56 245h-81z" />
    <glyph glyph-name="numbersign" unicode="#" horiz-adv-x="697" 
d="M270 490h-118l-38 -82h117l-69 -145h-116l-39 -82h116l-85 -181h87l85 181h141l-85 -181h86l85 181h120l39 82h-120l69 145h120l38 82h-119l80 170h-86l-80 -170h-141l80 170h-87zM249 263l69 145h141l-69 -145h-141z" />
    <glyph glyph-name="dollar" unicode="$" horiz-adv-x="590" 
d="M492 492l93 37l-8 26q-20 61 -58 98t-109 45l14 81h-90l-14 -81q-204 -18 -234 -188q-12 -70 11.5 -109t67.5 -59q32 -14 60.5 -20t67.5 -10q12 -1 29.5 -3.5t35.5 -6t34.5 -9.5t25.5 -14q11 -10 18 -27.5t2 -41.5q-20 -110 -180 -110q-64 0 -97 26.5t-45 80.5l-6 27
l-97 -34l5 -26q32 -146 181 -161l-14 -82h90l14 83q109 11 169 56.5t75 133.5q12 72 -11 112.5t-67 59.5q-33 14 -61 19t-67 9q-41 4 -71.5 10.5t-53.5 22.5q-11 9 -17.5 25.5t-2.5 39.5q20 107 163 107q62 0 92 -23t47 -71z" />
    <glyph glyph-name="percent" unicode="%" horiz-adv-x="814" 
d="M439 205l-13 -72q-12 -69 23 -109t113 -40q79 0 127.5 38t60.5 107l13 73q12 69 -23.5 109t-113.5 40t-126.5 -38.5t-60.5 -107.5zM69 506q-12 -69 23 -108t113 -39q79 0 127 38t60 107l13 73q12 69 -23 109t-113 40t-126.5 -39t-60.5 -108zM789 710h-97l-650 -710h100z
M575 56q-42 0 -61 21t-12 59l12 63q14 80 100 80q42 0 61 -21t12 -59l-11 -63q-14 -80 -101 -80zM217 430q-42 0 -60.5 21t-11.5 59l11 64q14 80 101 80q42 0 60.5 -21t11.5 -59l-11 -64q-7 -38 -33 -59t-68 -21z" />
    <glyph glyph-name="ampersand" unicode="&#x26;" horiz-adv-x="664" 
d="M367 725q-43 0 -80 -13.5t-65.5 -37t-47 -55t-24.5 -67.5q-15 -84 50 -164q-73 -33 -119.5 -79.5t-58.5 -118.5q-8 -45 1 -82.5t31.5 -64.5t57 -42.5t79.5 -15.5q38 0 70 8.5t61.5 23t57 34.5t55.5 42l78 -93h111l-122 149l98 82l-49 60l-97 -80l-125 152l10 5
q42 18 73 36.5t53 40.5t35 47.5t19 58.5q13 71 -31 123q-43 51 -121 51zM113 187q8 48 40.5 80.5t93.5 58.5l139 -170q-30 -24 -53.5 -40t-43.5 -26.5t-39 -15t-40 -4.5q-25 0 -45.5 9t-33 24.5t-17.5 37t-1 46.5zM435 553q-4 -21 -13 -36.5t-23.5 -28.5t-35.5 -24.5
t-50 -23.5l-32 -15q-30 36 -41.5 62.5t-5.5 59.5q8 41 40.5 70t78.5 29q42 0 65 -27.5t17 -65.5z" />
    <glyph glyph-name="quotesingle" unicode="'" horiz-adv-x="195" 
d="M131 710l-43 -245h69l56 245h-82z" />
    <glyph glyph-name="parenleft" unicode="(" horiz-adv-x="271" 
d="M22 100q-17 -94 8 -149.5t91 -88.5l17 -8l56 71l-25 13q-40 22 -55.5 56t-5.5 93l93 525q10 60 38 94t77 56l25 11l-24 85l-22 -10q-77 -33 -121.5 -89t-61.5 -149z" />
    <glyph glyph-name="parenright" unicode=")" horiz-adv-x="270" 
d="M-27 -51l-25 -11l24 -86l22 10q77 33 121.5 89t60.5 149l91 510q17 93 -8.5 149t-91.5 89l-15 8l-57 -69l24 -13q42 -22 57.5 -56t5.5 -95l-93 -524q-11 -60 -39 -94.5t-77 -55.5z" />
    <glyph glyph-name="asterisk" unicode="*" horiz-adv-x="369" 
d="M104 443l39 -35l76 98l40 -97l51 34l-59 85l115 23l-8 55l-112 -45l30 112h-56l-9 -112l-95 45l-29 -54l107 -24z" />
    <glyph glyph-name="plus" unicode="+" horiz-adv-x="554" 
d="M53 369l-14 -84h193l-34 -194h84l34 194h195l14 84h-194l34 194h-84l-34 -194h-194z" />
    <glyph glyph-name="comma" unicode="," horiz-adv-x="195" 
d="M-28 -122h58l89 222h-96z" />
    <glyph glyph-name="hyphen" unicode="-" horiz-adv-x="417" 
d="M45 222h298l15 86h-298z" />
    <glyph glyph-name="period" unicode="." horiz-adv-x="203" 
d="M6 49q-3 -23 10.5 -39t36.5 -16t41 16t21 39t-10.5 38.5t-36.5 15.5t-41 -15.5t-21 -38.5z" />
    <glyph glyph-name="slash" unicode="/" horiz-adv-x="428" 
d="M384 711l-423 -771h91l423 771h-91z" />
    <glyph glyph-name="zero" unicode="0" horiz-adv-x="629" 
d="M44 229q-10 -55 0 -100.5t38 -77t73.5 -49t106.5 -17.5q124 0 200.5 59.5t96.5 170.5l47 266q9 55 -1 100t-38 77t-73.5 49.5t-105.5 17.5q-124 0 -201 -60.5t-96 -169.5zM276 75q-78 0 -114 39t-23 108l47 266q12 70 61 108.5t127 38.5t113.5 -38.5t23.5 -108.5
l-47 -266q-12 -69 -61 -108t-127 -39z" />
    <glyph glyph-name="one" unicode="1" horiz-adv-x="425" 
d="M193 0h97l126 710h-82l-279 -143l32 -80l212 106z" />
    <glyph glyph-name="two" unicode="2" horiz-adv-x="591" 
d="M14 100l-18 -100h492l14 90h-389l5 29q7 22 17.5 37.5t24 26.5t30.5 19t37 16q32 11 73.5 26t82 33t76.5 39t58 45q23 24 40.5 58.5t25.5 79.5q8 50 -2 91.5t-35.5 71.5t-66.5 46.5t-95 16.5q-187 0 -285 -164l-14 -23l84 -34l16 26q35 54 78 79.5t105 25.5q64 0 95 -35
t20 -98q-12 -72 -79 -117q-19 -13 -56 -29t-92 -36q-43 -16 -82.5 -33.5t-72 -42.5t-55.5 -59.5t-32 -84.5z" />
    <glyph glyph-name="three" unicode="3" horiz-adv-x="604" 
d="M460 369q99 -48 76 -176q-17 -100 -87 -154t-195 -54q-112 0 -168.5 43.5t-69.5 128.5l-4 25l97 32l4 -25q5 -30 14.5 -51.5t27 -35.5t45 -20.5t66.5 -6.5q150 0 171 125q10 57 -14.5 87.5t-84.5 30.5h-152l15 87h139q54 0 90.5 30.5t44.5 79.5q11 58 -18.5 89t-93.5 31
q-37 0 -65 -6t-49.5 -19.5t-38 -34t-31.5 -50.5l-12 -25l-87 31l15 29q43 83 110.5 124t175.5 41q106 0 156.5 -55.5t33.5 -151.5q-20 -109 -111 -149z" />
    <glyph glyph-name="four" unicode="4" horiz-adv-x="620" 
d="M465 180h109l13 86h-106l79 449h-91l-452 -461l-13 -74h371l-32 -180h91zM132 266l314 318l-56 -318h-258z" />
    <glyph glyph-name="five" unicode="5" horiz-adv-x="591" 
d="M70 347h243q66 0 98.5 -35t21.5 -98q-11 -64 -56 -101.5t-114 -37.5q-136 0 -155 103q0 2 -2 12q-2 6 -3 12l-97 -32l5 -25q30 -160 238 -160q60 0 109 16.5t85 46t59.5 70.5t32.5 90q9 51 -0.5 93t-35.5 72t-68.5 47t-100.5 17h-141l51 183h339l14 90h-422z" />
    <glyph glyph-name="six" unicode="6" horiz-adv-x="627" 
d="M45 249q-10 -61 -1.5 -110t36.5 -83t74 -52.5t109 -18.5q127 0 204 54.5t96 160.5q39 230 -213 230q-94 0 -181 -26l12 65q28 166 196 166q123 0 145 -98l6 -24l95 32l-5 24q-33 156 -226 156q-129 0 -207 -63.5t-100 -186.5zM153 310q65 30 175 30q87 0 119.5 -32.5
t20.5 -99.5q-11 -64 -60 -98.5t-130 -34.5t-116 42.5t-21 123.5z" />
    <glyph glyph-name="seven" unicode="7" horiz-adv-x="527" 
d="M93 710l-17 -90h378l-387 -620h105l396 636l14 74h-489z" />
    <glyph glyph-name="eight" unicode="8" horiz-adv-x="620" 
d="M384 725q-114 0 -186 -48.5t-88 -139.5q-23 -120 90 -180q-156 -58 -178 -184q-16 -90 39 -139t193 -49q266 0 299 195q13 76 -17 119t-92 70q25 11 42.5 21t42.5 29t41.5 48t23.5 66q16 91 -37.5 141.5t-172.5 50.5zM288 322q4 -1 7 -2t8 -2q32 -8 53 -14.5t44 -16.5
t35 -23t18 -33t1 -46q-20 -116 -185 -116q-88 0 -122 29t-25 84q18 103 157 142q4 -1 9 -2zM370 641q72 0 106 -28t24 -82q-6 -33 -22.5 -58t-42.5 -40.5t-39.5 -21.5t-35.5 -13l-30 8q-34 9 -54.5 17.5t-41 22.5t-27.5 35t-2 50q20 110 165 110z" />
    <glyph glyph-name="nine" unicode="9" horiz-adv-x="628" 
d="M254 -15q129 0 207 63.5t100 186.5l40 226q11 61 2 110t-37 83t-74 52.5t-109 18.5q-127 0 -204 -54.5t-96 -160.5q-39 -230 213 -230q94 0 181 26l-12 -65q-28 -166 -196 -166q-122 0 -145 98q0 4 -3 13q-1 5 -3 12l-95 -34l5 -23q33 -156 226 -156zM178 502
q12 66 60.5 99.5t129.5 33.5t116.5 -42.5t20.5 -123.5l-11 -69q-67 -30 -176 -30q-87 0 -119 32.5t-21 99.5z" />
    <glyph glyph-name="colon" unicode=":" horiz-adv-x="236" 
d="M80 354q-4 -23 9.5 -39t36.5 -16t41 16t22 39q3 23 -10.5 38.5t-36.5 15.5t-41 -15.5t-21 -38.5zM44 135q-3 -23 10.5 -39t36.5 -16t41 16t21 39t-10.5 38.5t-36.5 15.5t-41 -15.5t-21 -38.5z" />
    <glyph glyph-name="semicolon" unicode=";" horiz-adv-x="235" 
d="M50 100l-77 -222h58l115 222h-96zM79 436q-3 -23 10.5 -38.5t36.5 -15.5t41 15.5t21 38.5t-10.5 39t-36.5 16t-41 -16t-21 -39z" />
    <glyph glyph-name="less" unicode="&#x3c;" horiz-adv-x="491" 
d="M145 328l318 150l18 100l-438 -217l-13 -67l363 -219l17 103z" />
    <glyph glyph-name="equal" unicode="=" horiz-adv-x="596" 
d="M89 469l-15 -87h472l15 87h-472zM55 271l-15 -86h472l15 86h-472z" />
    <glyph glyph-name="greater" unicode="&#x3e;" horiz-adv-x="491" 
d="M107 577l-18 -96l266 -150l-319 -150l-16 -104l436 216l13 67z" />
    <glyph glyph-name="question" unicode="?" horiz-adv-x="564" 
d="M69 555l74 -37l16 27q64 109 190 109q70 0 102.5 -35t22.5 -90q-5 -31 -17 -53.5t-29 -40.5t-38.5 -32t-47.5 -29q-30 -16 -54 -33t-42.5 -38t-31 -47.5t-18.5 -61.5l-4 -25h81l4 25q7 39 30.5 63t66.5 48q39 21 71 41t56.5 44.5t42 58t26.5 81.5q16 87 -41 149
q-58 60 -170 60q-186 0 -278 -162zM157 49q-3 -23 10.5 -39t36.5 -16t41 16t21 39t-10.5 38.5t-36.5 15.5t-41 -15.5t-21 -38.5z" />
    <glyph glyph-name="at" unicode="@" horiz-adv-x="901" 
d="M462 533q-174 0 -203 -167l-27 -149q-14 -81 21.5 -123.5t123.5 -42.5q89 0 187 32q11 -22 25 -31t45 -9q36 0 70 14.5t62 41.5t48.5 66.5t29.5 90.5l13 73q15 91 1.5 164.5t-56 125t-112.5 79t-167 27.5q-94 0 -173.5 -27t-140 -78t-101 -124.5t-57.5 -166.5l-12 -73
q-16 -92 -2.5 -164t56 -122t113 -76t166.5 -26q113 0 219 26l16 4l11 61l-20 -3q-71 -13 -124.5 -19t-90.5 -6q-161 0 -231.5 83t-42.5 240l13 76q14 78 47 139.5t83 104t115.5 65t144.5 22.5q164 0 233.5 -85t40.5 -246l-13 -76q-13 -75 -48.5 -110t-77.5 -35q-43 0 -37 38
l2.5 15t7 39t9.5 55t11 63q12 75 29 171l-31 13q-72 30 -176 30zM533 144q-64 -24 -133 -24q-109 0 -91 99l25 145q18 99 126 99q74 0 113 -16l12 -5z" />
    <glyph glyph-name="A" unicode="A" 
d="M490 0h103l-152 712h-90l-404 -712h106l102 186h298zM199 265l176 319l63 -319h-239z" />
    <glyph glyph-name="B" unicode="B" 
d="M337 0q98 0 165 48t84 139q12 69 -9 116.5t-72 63.5l1 3q91 40 113 152q15 87 -29 137.5t-138 50.5h-305l-126 -710h316zM174 317h216q57 0 81.5 -29.5t14.5 -84.5q-20 -113 -136 -113h-216zM426 620q112 0 92 -108q-20 -107 -130 -107h-199l39 215h198z" />
    <glyph glyph-name="C" unicode="C" horiz-adv-x="635" 
d="M294 76q-88 0 -128 42t-26 123l41 229q13 79 67 122t145 43q75 0 111.5 -27.5t45.5 -84.5l4 -25l90 29l-4 26q-12 85 -68.5 128.5t-165.5 43.5q-136 0 -218.5 -65t-103.5 -186l-40 -228q-10 -60 0.5 -108.5t41 -82t80 -52t115.5 -18.5q112 0 184.5 43t115.5 128l13 25
l-89 34l-13 -26q-29 -58 -76 -85.5t-122 -27.5z" />
    <glyph glyph-name="D" unicode="D" horiz-adv-x="659" 
d="M270 0q140 0 224.5 66t106.5 190l32 182q11 62 0 112t-42 85.5t-81.5 55t-119.5 19.5h-243l-126 -710h249zM228 620h147q94 0 135.5 -44.5t27.5 -128.5l-32 -184q-15 -84 -72.5 -128.5t-151.5 -44.5h-148z" />
    <glyph glyph-name="E" unicode="E" horiz-adv-x="576" 
d="M21 0h468l14 90h-369l40 225h311l17 90h-312l38 215h357l17 90h-455z" />
    <glyph glyph-name="F" unicode="F" horiz-adv-x="564" 
d="M118 0l54 305h310l14 90h-308l40 225h357l17 90h-455l-126 -710h97z" />
    <glyph glyph-name="G" unicode="G" horiz-adv-x="656" 
d="M294 75q-90 0 -129 43.5t-25 122.5l40 229q14 79 68 122t144 43q75 0 111.5 -27.5t45.5 -84.5l4 -25l92 30l-4 26q-25 171 -234 171q-137 0 -219.5 -64t-103.5 -185l-40 -228q-10 -60 0.5 -109t40.5 -83t79 -52.5t115 -18.5q134 0 217 61.5t102 170.5l28 161h-296
l-14 -90h199l-11 -65q-12 -67 -67 -107.5t-143 -40.5z" />
    <glyph glyph-name="H" unicode="H" horiz-adv-x="685" 
d="M21 0h97l55 315h342l-55 -315h97l125 710h-97l-54 -305h-342l54 305h-97z" />
    <glyph glyph-name="I" unicode="I" horiz-adv-x="247" 
d="M21 0h97l125 710h-97z" />
    <glyph glyph-name="J" unicode="J" horiz-adv-x="571" 
d="M-8 163q16 -178 212 -178q240 0 282 231l87 494h-96l-86 -483q-13 -73 -58 -112.5t-120 -39.5q-119 0 -128 119l-2 27l-94 -32z" />
    <glyph glyph-name="K" unicode="K" horiz-adv-x="617" 
d="M117 0l57 316h80q27 0 46 -4t32.5 -13t22.5 -24t16 -38l78 -237h110l-93 275q-29 84 -97 107l310 328h-118l-283 -306h-89l55 306h-97l-126 -710h96z" />
    <glyph glyph-name="L" unicode="L" horiz-adv-x="519" 
d="M476 90h-342l110 620h-97l-126 -710h438z" />
    <glyph glyph-name="M" unicode="M" horiz-adv-x="807" 
d="M147 710l-126 -710h96l91 524l141 -362h62l269 366l-94 -528h92l126 710h-91l-315 -429l-166 429h-85z" />
    <glyph glyph-name="N" unicode="N" horiz-adv-x="694" 
d="M117 0l93 530l268 -530h88l125 710h-96l-93 -529l-270 529h-86l-125 -710h96z" />
    <glyph glyph-name="O" unicode="O" horiz-adv-x="667" 
d="M45 247q-10 -60 0.5 -108.5t40.5 -82.5t79.5 -52.5t116.5 -18.5q136 0 217.5 64t102.5 184l40 228q11 60 0.5 109t-40.5 83.5t-79.5 53t-116.5 18.5q-136 0 -218 -64.5t-103 -185.5zM295 75q-88 0 -128 42.5t-26 123.5l40 228q14 81 68.5 123.5t144.5 42.5
q88 0 128 -42.5t26 -123.5l-41 -228q-14 -81 -69 -123.5t-143 -42.5z" />
    <glyph glyph-name="P" unicode="P" horiz-adv-x="627" 
d="M164 258h196q109 0 178.5 55.5t89.5 160.5q10 53 1.5 96.5t-33 74.5t-64 48t-92.5 17h-293l-126 -710h97zM415 620q66 0 96 -36.5t19 -100.5q-12 -64 -54.5 -99.5t-108.5 -35.5h-188l49 272h187z" />
    <glyph glyph-name="Q" unicode="Q" horiz-adv-x="682" 
d="M504 -81l81 57l-64 94q63 60 81 163l40 228q11 60 0.5 109t-40.5 83.5t-79.5 53t-116.5 18.5q-136 0 -218 -64.5t-103 -185.5l-40 -228q-10 -60 0.5 -108.5t40.5 -82.5t79.5 -52.5t116.5 -18.5q90 0 156 32zM181 469q14 81 68.5 123.5t144.5 42.5q88 0 128 -42.5
t26 -123.5l-41 -228q-14 -81 -69 -123.5t-143 -42.5t-128 42.5t-26 123.5z" />
    <glyph glyph-name="R" unicode="R" horiz-adv-x="646" 
d="M169 285h112q26 0 44 -3.5t30.5 -11.5t21 -21.5t15.5 -34.5l3 -9.5t7.5 -25t11 -34.5t12.5 -39q14 -47 33 -106h113l-83 245q-14 38 -39 53q154 34 181 192q19 102 -28.5 161t-149.5 59h-306l-126 -710h97zM228 620h201q60 0 86.5 -31.5t15.5 -91.5q-11 -58 -48 -90
t-97 -32h-202z" />
    <glyph glyph-name="S" unicode="S" horiz-adv-x="623" 
d="M12 156q36 -171 249 -171q273 0 307 201q20 117 -53 166q-35 23 -72.5 34.5t-88.5 17.5q-43 5 -71 11t-55 19q-55 24 -45 88q18 110 186 110q66 0 100.5 -25.5t50.5 -74.5l7 -23l93 40l-7 21q-24 75 -77.5 115t-152.5 40q-129 0 -204 -50.5t-92 -144.5q-7 -37 -3 -66.5
t16 -52t31.5 -38.5t43.5 -27q35 -16 66 -23t73 -11q45 -5 78 -13t58 -26q13 -12 20 -31t2 -44q-21 -122 -202 -122q-132 0 -161 113l-6 24l-96 -32z" />
    <glyph glyph-name="T" unicode="T" horiz-adv-x="551" 
d="M84 710l-17 -90h216l-110 -620h96l110 620h214l17 90h-526z" />
    <glyph glyph-name="U" unicode="U" horiz-adv-x="685" 
d="M303 75q-88 0 -125 44t-23 123l83 468h-96l-82 -458q-11 -60 -1.5 -109t39 -84.5t77.5 -54.5t114 -19q136 0 215 64t100 184l85 477h-97l-83 -468q-14 -79 -66 -123t-140 -44z" />
    <glyph glyph-name="V" unicode="V" horiz-adv-x="628" 
d="M215 0h91l393 710h-104l-312 -578l-107 578h-103z" />
    <glyph glyph-name="W" unicode="W" horiz-adv-x="887" 
d="M191 710h-105l59 -710h98l244 543l51 -543h100l307 710h-103l-225 -544l-52 536h-96l-242 -532z" />
    <glyph glyph-name="X" unicode="X" horiz-adv-x="626" 
d="M-54 0h121l244 277l146 -277h119l-192 360l307 350h-118l-234 -265l-141 265h-117l185 -348z" />
    <glyph glyph-name="Y" unicode="Y" horiz-adv-x="631" 
d="M331 384l-143 326h-119l195 -424l-49 -286h95l51 284l345 426h-118z" />
    <glyph glyph-name="Z" unicode="Z" horiz-adv-x="571" 
d="M470 620l-478 -541l-13 -79h511l14 90h-391l480 542l12 78h-497l-17 -90h379z" />
    <glyph glyph-name="bracketleft" unicode="[" horiz-adv-x="284" 
d="M163 856l-176 -1002h202l14 81h-117l149 841h116l14 80h-202z" />
    <glyph glyph-name="backslash" unicode="\" horiz-adv-x="419" 
d="M182 710h-88l150 -770h89z" />
    <glyph glyph-name="bracketright" unicode="]" horiz-adv-x="284" 
d="M-61 -146h202l176 1002h-202l-14 -80h117l-148 -841h-117z" />
    <glyph glyph-name="asciicircum" unicode="^" horiz-adv-x="587" 
d="M413 810h-57l-287 -290h103l197 203l125 -203h107z" />
    <glyph glyph-name="underscore" unicode="_" horiz-adv-x="501" 
d="M-29 0l-15 -86h452l15 86h-452z" />
    <glyph glyph-name="grave" unicode="`" horiz-adv-x="257" 
d="M144 744l-62 -60l197 -103l42 41z" />
    <glyph glyph-name="a" unicode="a" horiz-adv-x="535" 
d="M26 198q-17 -96 26 -154.5t144 -58.5q108 0 204 28l27 7l82 463l-35 17q-63 31 -170 31q-114 0 -174.5 -45.5t-78.5 -147.5zM217 67q-61 0 -87 32t-16 92l24 135q12 66 49.5 94.5t109.5 28.5q52 0 98 -15l15 -5l-61 -343q-61 -19 -132 -19z" />
    <glyph glyph-name="b" unicode="b" horiz-adv-x="538" 
d="M13 32l35 -16q66 -31 169 -31q221 0 255 201l25 140q17 97 -23.5 151t-142.5 54q-64 0 -145 -25l41 234h-89zM172 425q73 26 132 26q125 0 104 -119l-24 -136q-21 -129 -159 -129q-58 0 -100 16l-12 5z" />
    <glyph glyph-name="c" unicode="c" horiz-adv-x="511" 
d="M222 64q-64 0 -92 31t-17 88l26 150q23 119 152 119q102 0 118 -84l5 -25l81 29l-4 25q-21 134 -187 134q-220 0 -253 -195l-26 -144q-17 -97 29.5 -152t155.5 -55q165 0 239 137l14 26l-81 27l-13 -24q-45 -87 -147 -87z" />
    <glyph glyph-name="d" unicode="d" horiz-adv-x="537" 
d="M429 31l125 709h-89l-41 -231q-78 22 -136 22q-203 0 -237 -196l-25 -140q-18 -100 25.5 -155t151.5 -55q100 0 184 31zM138 324q23 125 153 125q52 0 119 -22l-59 -339l-16 -5q-48 -16 -110 -16q-132 0 -111 122z" />
    <glyph glyph-name="e" unicode="e" horiz-adv-x="526" 
d="M26 202q-9 -48 -2.5 -88t29.5 -68.5t62 -44.5t95 -16q156 0 232 99l19 25l-67 45l-19 -25q-52 -66 -151 -66q-66 0 -94.5 31t-18.5 89l8 43q40 -7 75 -10.5t67 -3.5q211 0 240 137q17 84 -35 133t-155 49q-109 0 -177 -52.5t-86 -151.5zM137 327q11 60 54 94t107 34
q66 0 96.5 -24.5t19.5 -70.5q-18 -79 -141 -79q-70 0 -142 15z" />
    <glyph glyph-name="f" unicode="f" horiz-adv-x="357" 
d="M55 0h89l77 433h154l14 83h-154l3 18q6 36 16.5 60t27.5 38.5t43.5 21t63.5 6.5h24l16 80h-39q-110 -1 -166 -50t-76 -156l-3 -18h-100l-14 -83h100z" />
    <glyph glyph-name="g" unicode="g" horiz-adv-x="538" 
d="M169 -241q211 0 249 209l92 515l-35 17q-63 31 -170 31q-112 0 -174.5 -47t-79.5 -149l-22 -122q-17 -97 25.5 -153.5t144.5 -56.5q60 0 141 25l-10 -57q-24 -132 -151 -132q-86 0 -111 67l-9 22l-85 -39l11 -27q42 -103 184 -103zM298 449q54 0 99 -15l14 -5l-57 -322
q-81 -22 -133 -22q-123 0 -104 120l21 117q12 66 51 96.5t109 30.5z" />
    <glyph glyph-name="h" unicode="h" horiz-adv-x="552" 
d="M139 740l-129 -740h89l75 426q49 23 131 23q126 0 106 -116l-59 -333h90l57 327q17 97 -23.5 150.5t-143.5 53.5q-94 0 -144 -22l41 231h-90z" />
    <glyph glyph-name="i" unicode="i" horiz-adv-x="213" 
d="M101 516l-91 -516h89l91 516h-89zM117 653q-2 -21 11 -36.5t35 -15.5q21 0 38.5 15.5t19.5 36.5q3 22 -10 37t-35 15t-39 -15t-20 -37z" />
    <glyph glyph-name="j" unicode="j" horiz-adv-x="214" 
d="M-169 -147l-14 -83h24q217 0 256 222l92 524h-89l-92 -522q-12 -70 -47 -105.5t-105 -35.5h-25zM117 653q-2 -21 11 -36.5t35 -15.5q21 0 38.5 15.5t19.5 36.5q3 22 -10 37t-35 15t-39 -15t-20 -37z" />
    <glyph glyph-name="k" unicode="k" horiz-adv-x="513" 
d="M99 0l39 226h86q32 0 50 -11t26 -37q1 -1 9 -28.5t18 -61.5q11 -39 26 -88h98l-67 206q-21 64 -65 81l222 229h-108l-200 -211h-80l76 435h-90l-129 -740h89z" />
    <glyph glyph-name="l" unicode="l" horiz-adv-x="220" 
d="M143 740l-131 -740h90l129 740h-88z" />
    <glyph glyph-name="m" unicode="m" horiz-adv-x="820" 
d="M7 0h90l75 428l13 5q45 16 97 16q57 0 80 -26.5t14 -83.5l-2.5 -15l-6.5 -39t-9.5 -54t-10.5 -62q-13 -75 -30 -169h89l60 340q8 49 -1 82q66 27 123 27q110 0 92 -112l-59 -337h89l58 330q17 97 -20.5 149t-133.5 52q-89 0 -185 -40q-40 40 -121 40q-90 0 -176 -33
l-41 -16z" />
    <glyph glyph-name="n" unicode="n" horiz-adv-x="549" 
d="M91 482l-84 -482h90l75 427l12 4q60 18 119 18q126 0 105 -119l-58 -330h89l58 326q16 97 -24.5 151t-143.5 54q-107 0 -197 -34z" />
    <glyph glyph-name="o" unicode="o" horiz-adv-x="541" 
d="M24 179q-15 -91 36 -142.5t157 -51.5q109 0 174.5 48t81.5 139l28 163q16 91 -34 143.5t-158 52.5q-106 0 -173 -49.5t-83 -139.5zM229 66q-63 0 -94 29t-21 81l28 164q10 52 51 81t104 29q64 0 94.5 -29t21.5 -81l-29 -164q-10 -52 -50.5 -81t-104.5 -29z" />
    <glyph glyph-name="p" unicode="p" horiz-adv-x="538" 
d="M-31 -220h89l41 232q72 -27 125 -27q214 0 248 199l25 140q17 100 -25 153.5t-148 53.5q-107 0 -189 -29l-42 -15zM188 434q53 15 110 15q131 0 110 -122l-24 -135q-23 -125 -152 -125q-46 0 -119 26l60 337z" />
    <glyph glyph-name="q" unicode="q" horiz-adv-x="539" 
d="M297 -220h89l124 703l-35 17q-61 31 -169 31q-221 0 -255 -202l-25 -140q-17 -97 23.5 -150.5t142.5 -53.5q63 0 146 28zM139 321q23 128 159 128q52 0 98 -15l15 -5l-59 -336q-86 -26 -133 -26q-127 0 -104 119z" />
    <glyph glyph-name="r" unicode="r" horiz-adv-x="347" 
d="M134 500q-25 -10 -34.5 -21t-14.5 -35l-77 -444h89l72 412q3 14 17 20q60 17 120 17h58l14 82h-56q-110 -2 -188 -31z" />
    <glyph glyph-name="s" unicode="s" horiz-adv-x="497" 
d="M56 381q-8 -48 4 -77.5t37 -47t60 -25t72 -11.5q35 -3 59.5 -8t39 -14t20 -22.5t1.5 -34.5q-13 -76 -139 -76q-51 0 -81 16t-41 56l-6 22l-86 -27l5 -24q27 -123 199 -123q103 0 162.5 40t73.5 113q8 44 -2.5 73t-34.5 47t-59 27.5t-75 13.5q-38 5 -64 8.5t-43 16.5
q-20 18 -14 54q14 72 127 72q97 0 118 -64l7 -21l83 33l-8 25q-31 108 -188 108q-100 0 -157 -39t-70 -111z" />
    <glyph glyph-name="t" unicode="t" horiz-adv-x="367" 
d="M93 198q-10 -57 -7 -97t20.5 -65t51 -37t84.5 -13h57l14 84h-24q-37 0 -61 5.5t-36.5 19.5t-14 39.5t5.5 65.5l41 233h154l14 83h-154l21 120h-89l-21 -120h-107l-14 -83h107z" />
    <glyph glyph-name="u" unicode="u" horiz-adv-x="550" 
d="M38 190q-16 -97 24.5 -151t143.5 -54q101 0 196 34l42 14l84 483h-90l-74 -427l-16 -5q-59 -17 -116 -17q-126 0 -105 119l58 330h-89z" />
    <glyph glyph-name="v" unicode="v" horiz-adv-x="506" 
d="M163 -3h73l305 519h-97l-222 -388l-89 388h-93z" />
    <glyph glyph-name="w" unicode="w" horiz-adv-x="730" 
d="M51 516l64 -518h79l185 387l49 -387h83l244 518h-94l-169 -374l-51 367h-79l-181 -364l-38 371h-92z" />
    <glyph glyph-name="x" unicode="x" horiz-adv-x="494" 
d="M190 267l-242 -267h109l176 195l113 -195h98l-151 261l230 255h-107l-166 -182l-106 182h-98z" />
    <glyph glyph-name="y" unicode="y" horiz-adv-x="552" 
d="M42 209q-17 -97 23.5 -151t142.5 -54q62 0 144 21l-10 -54q-24 -132 -151 -132q-87 0 -112 67l-9 22l-85 -39l11 -27q40 -103 183 -103q216 0 253 216l95 541h-89l-72 -409q-70 -21 -131 -21q-66 0 -91 29.5t-14 89.5l54 311h-89z" />
    <glyph glyph-name="z" unicode="z" horiz-adv-x="458" 
d="M334 435l-347 -366l-11 -69h402l13 81h-288l349 363l11 72h-393l-13 -81h277z" />
    <glyph glyph-name="braceleft" unicode="{" horiz-adv-x="333" 
d="M54 398h-29l-16 -91h29q42 0 54 -22.5t5 -67.5l-41 -234q-13 -69 12 -99.5t98 -30.5h72l14 81h-69q-49 0 -42 54l42 241q18 96 -46 124q75 34 91 124l42 244q11 54 61 54h70l14 81h-73q-72 0 -108 -31t-48 -100l-41 -236q-16 -91 -91 -91z" />
    <glyph glyph-name="bar" unicode="|" horiz-adv-x="215" 
d="M163 856l-176 -1003h85l176 1003h-85z" />
    <glyph glyph-name="braceright" unicode="}" horiz-adv-x="332" 
d="M21 -66h-70l-14 -81h71q73 0 109 30.5t48 99.5l41 234q15 90 91 90h28l16 91h-28q-75 0 -59 91l41 236q13 69 -12 100t-97 31h-73l-14 -81h69q53 0 42 -54l-43 -244q-15 -88 47 -123q-75 -29 -91 -125l-42 -241q-10 -54 -60 -54z" />
    <glyph glyph-name="asciitilde" unicode="~" horiz-adv-x="556" 
d="M290 365q-47 19 -89 19q-65 0 -129 -49l-23 -18l51 -58q5 4 10 7l10 8q40 29 78 29q28 0 75 -19q45 -19 89 -19q68 0 129 49l23 18l-50 58l-21 -15q-40 -29 -78 -29q-30 0 -75 19z" />
    <glyph glyph-name="exclamdown" unicode="&#xa1;" horiz-adv-x="212" 
d="M-34 -225h94l86 555h-71zM81 467q-3 -23 10.5 -39t36.5 -16t41 16t21 39t-10.5 38.5t-36.5 15.5t-41 -15.5t-21 -38.5z" />
    <glyph glyph-name="cent" unicode="&#xa2;" horiz-adv-x="531" 
d="M267 527q-179 -21 -209 -190l-26 -144q-15 -88 19.5 -141.5t121.5 -63.5l-13 -72h90l13 74q132 17 193 133l14 27l-82 25l-12 -24q-43 -87 -146 -87q-64 0 -92 31t-18 88l27 151q21 118 152 118q102 0 115 -84l4 -24l85 25l-4 27q-15 116 -142 131l16 83h-90z" />
    <glyph glyph-name="sterling" unicode="&#xa3;" horiz-adv-x="637" 
d="M552 514l89 32l-5 24q-15 78 -63.5 116.5t-142.5 38.5q-54 0 -97.5 -14t-76 -39.5t-53 -61t-27.5 -77.5l-27 -153h-87l-13 -84h85l-19 -106q-17 -92 -82 -104h-27l-16 -86h549l14 90h-264q-49 0 -142 -9l1 4q58 36 68 106l19 105h266l13 84h-264l24 141q9 51 47 82.5
t98 31.5q54 0 83.5 -22t42.5 -73z" />
    <glyph glyph-name="currency" unicode="&#xa4;" horiz-adv-x="606" 
d="M155 149q24 -20 54.5 -29.5t63.5 -9.5t66.5 9.5t64.5 29.5l56 -68l73 64l-55 67q48 60 59 125q12 69 -20 125l80 68l-53 63l-80 -68q-52 39 -117 39q-70 0 -131 -40l-57 68l-73 -63l57 -69q-48 -54 -60 -123q-12 -71 20 -124l-81 -70l52 -63zM335 482q31 0 55.5 -11.5
t41 -31t23 -46t1.5 -56.5q-4 -32 -21 -59t-42 -46.5t-55 -30t-59 -10.5q-27 0 -51 10t-40 33q-19 20 -24.5 46.5t0 54t20 54t36.5 47.5t49 33.5t57 12.5h9z" />
    <glyph glyph-name="yen" unicode="&#xa5;" horiz-adv-x="652" 
d="M87 710l164 -351h-128l-12 -69h162l-14 -77h-162l-12 -70h162l-26 -143h98l24 143h161l13 70h-161l13 77h162l12 69h-126l287 351h-114l-251 -318l-140 318h-112z" />
    <glyph glyph-name="brokenbar" unicode="&#xa6;" horiz-adv-x="225" 
d="M169 856l-76 -425h85l76 425h-85zM-9 -146h85l75 425h-85z" />
    <glyph glyph-name="section" unicode="&#xa7;" horiz-adv-x="600" 
d="M379 34q11 -9 16.5 -25.5t1.5 -38.5q-17 -101 -171 -101q-124 0 -142 103l-4 26l-99 -31l5 -27q14 -78 73.5 -119.5t156.5 -41.5q124 0 193.5 48.5t84.5 136.5q20 113 -58 153q88 55 103 141q9 52 -3.5 87.5t-50.5 53.5q-19 9 -35 15t-32.5 10t-36 7.5t-45.5 6.5
q-38 5 -66 11.5t-50 21.5q-11 9 -17.5 25.5t-2.5 38.5q18 101 160 101q110 0 132 -99l6 -25l91 37l-7 26q-42 153 -206 153q-121 0 -189 -49t-84 -137q-19 -109 58 -151q-103 -52 -120 -148q-18 -104 61 -144q42 -22 157 -34q12 -1 28.5 -3t34 -5.5t33 -9t24.5 -13.5z
M300 347q74 -8 111.5 -28t29.5 -69q-11 -62 -89 -103q-5 1 -13.5 2.5t-18.5 2.5t-18.5 2t-13.5 1q-11 1 -29 3t-36.5 6t-35.5 9.5t-25 13.5q-12 9 -18.5 26.5t-2.5 40.5q12 67 97 103q10 -2 25.5 -4.5t36.5 -5.5z" />
    <glyph glyph-name="dieresis" unicode="&#xa8;" horiz-adv-x="439" 
d="M338 652q-3 -19 8 -32t30 -13t34.5 13t18.5 32q4 19 -7 32.5t-30 13.5t-34.5 -13.5t-19.5 -32.5zM142 652q-3 -19 7.5 -32t30.5 -13q19 0 34.5 13t18.5 32t-7.5 32.5t-29.5 13.5q-20 0 -35.5 -13.5t-18.5 -32.5z" />
    <glyph glyph-name="copyright" unicode="&#xa9;" horiz-adv-x="802" 
d="M709 606q-86 104 -236 104q-151 0 -273 -103.5t-148 -255.5q-26 -150 61 -254.5t238 -104.5q150 0 271.5 104t146.5 255q26 151 -60 255zM465 655q128 0 200 -87t50 -217q-22 -128 -125.5 -216.5t-231.5 -88.5q-129 0 -201.5 88t-49.5 217q22 129 125.5 216.5t232.5 87.5
zM485 269q-30 -58 -101 -58q-89 0 -76 82l19 111q16 82 106 82q40 0 57.5 -12.5t22.5 -43.5l3 -20l61 22l-3 18q-14 95 -131 95q-75 0 -120.5 -37t-56.5 -103l-20 -111q-11 -66 22 -104t106 -38q114 0 166 97l10 18l-54 22z" />
    <glyph glyph-name="ordfeminine" unicode="&#xaa;" horiz-adv-x="362" 
d="M162 579q35 32 71 32q33 0 43 -14t5 -45l-3 -17q-20 4 -58 4q-72 0 -104.5 -22t-41.5 -68q-7 -45 17.5 -69.5t94.5 -24.5q63 0 100 15l35 14l28 161q23 125 -104 125q-82 0 -132 -56l-15 -17l52 -29zM207 488q44 0 62 -3l-11 -66l-12 -4q-16 -6 -54 -6q-31 0 -43 9t-8 29
q8 41 66 41z" />
    <glyph glyph-name="guillemotleft" unicode="&#xab;" horiz-adv-x="573" 
d="M513 487l-262 -224l184 -223l64 56l-137 165l197 168zM19 263l184 -223l64 56l-137 165l197 168l-46 58z" />
    <glyph glyph-name="logicalnot" unicode="&#xac;" horiz-adv-x="582" 
d="M536 399h-463l-14 -84h373l-31 -176h89z" />
    <glyph glyph-name="registered" unicode="&#xae;" horiz-adv-x="474" 
d="M435 653q-47 57 -126 57q-83 0 -149 -56.5t-80 -137.5q-14 -80 34 -137t128 -57q82 0 147 56.5t79 137.5q14 80 -33 137zM369 403q-53 -46 -121 -46q-66 0 -104.5 46.5t-26.5 112.5q12 67 65 112.5t122 45.5q65 0 103 -46t26 -112q-11 -67 -64 -113zM345 417l-31 72
q44 13 53 60q6 31 -11 48.5t-49 17.5h-91l-35 -198h38l11 68h46l26 -68h43zM301 580q15 0 22.5 -8t5.5 -22q-4 -31 -38 -31h-55l11 61h54z" />
    <glyph glyph-name="macron" unicode="&#xaf;" horiz-adv-x="352" 
d="M112 686l-13 -65h279l13 65h-279z" />
    <glyph glyph-name="degree" unicode="&#xb0;" horiz-adv-x="389" 
d="M262 712q-66 0 -118.5 -44.5t-62.5 -110.5t29.5 -113t104.5 -47q64 0 117 46.5t63 110.5q10 66 -29 112t-104 46zM168 494q-21 25 -15 60t36 61q29 25 65 25q35 0 55.5 -25.5t14.5 -60.5t-36 -60t-65 -25t-55 25z" />
    <glyph glyph-name="plusminus" unicode="&#xb1;" horiz-adv-x="615" 
d="M96 434l-12 -77h194l-22 -123h82l22 123h196l12 77h-195l22 127h-81l-22 -127h-196zM513 113l12 77h-472l-12 -77h472z" />
    <glyph glyph-name="twosuperior" unicode="&#xb2;" horiz-adv-x="355" 
d="M98 690l64 -21l22 30q4 6 10 14.5t15.5 16t22 12.5t29.5 5q31 0 44.5 -15.5t8.5 -40.5q-4 -21 -17.5 -34.5t-24.5 -18.5q-5 -2 -15.5 -6t-25.5 -9l-61 -23q-46 -17 -68.5 -42t-32.5 -70l-15 -73h284l12 69h-210l4 17q6 34 51 47l61 17q63 20 95 48t41 80q9 54 -21 90
t-96 36q-106 0 -163 -102z" />
    <glyph glyph-name="threesuperior" unicode="&#xb3;" horiz-adv-x="363" 
d="M70 507q15 -100 137 -100q72 0 113 28t50 82q12 71 -39 104q51 26 60 82q8 52 -21.5 84t-92.5 32q-119 0 -170 -102l-8 -16l63 -27l10 21q27 56 96 56q28 0 42 -14t9 -39q-10 -49 -57 -49h-67l-14 -68h74q24 0 35 -14.5t6 -38.5q-8 -53 -78 -53q-38 0 -54 13.5t-21 43.5
l-2 19l-74 -22z" />
    <glyph glyph-name="acute" unicode="&#xb4;" horiz-adv-x="257" 
d="M295 745l-220 -121l26 -43l233 102z" />
    <glyph glyph-name="mu" unicode="&#xb5;" horiz-adv-x="552" 
d="M130 186l58 330h-90l-129 -736h90l47 268q35 -63 128 -63q90 0 171 34l41 17l84 480h-89l-75 -428l-15 -4q-59 -17 -116 -17q-126 0 -105 119z" />
    <glyph glyph-name="paragraph" unicode="&#xb6;" horiz-adv-x="496" 
d="M215 372l-82 -461h84l124 709h56l-125 -709h84l140 799h-217q-76 0 -129.5 -44t-66.5 -119q-6 -37 0 -69t23.5 -55t45 -36.5t63.5 -14.5z" />
    <glyph glyph-name="periodcentered" unicode="&#xb7;" horiz-adv-x="231" 
d="M56 278q-3 -23 10.5 -39t36.5 -16t41 16t21 39t-10.5 38.5t-36.5 15.5t-41 -15.5t-21 -38.5z" />
    <glyph glyph-name="cedilla" unicode="&#xb8;" horiz-adv-x="251" 
d="M-41 -172l-11 8l-9 -56l12 -9q26 -19 74 -19q52 0 91.5 23t50.5 69q9 38 -9.5 62t-63.5 24q-4 0 -8.5 -0.5t-10.5 -1.5l39 72h-54l-67 -117l23 5q14 3 30 3q54 0 48 -37q-8 -47 -71 -47q-36 0 -64 21z" />
    <glyph glyph-name="onesuperior" unicode="&#xb9;" horiz-adv-x="273" 
d="M164 415h77l69 396h-57l-176 -90l26 -63l115 57z" />
    <glyph glyph-name="ordmasculine" unicode="&#xba;" horiz-adv-x="367" 
d="M79 481q-11 -57 18.5 -91t93.5 -34q137 0 155 115l14 73q11 58 -18.5 92t-95.5 34t-105 -29t-49 -86zM203 419q-30 0 -44 14.5t-9 40.5l14 78q10 55 72 55q31 0 44.5 -15t8.5 -40l-14 -78q-10 -55 -72 -55z" />
    <glyph glyph-name="guillemotright" unicode="&#xbb;" horiz-adv-x="576" 
d="M199 266l-195 -166l52 -57l258 221l-183 223l-70 -52zM431 265l-195 -167l52 -56l258 221l-183 223l-70 -52z" />
    <glyph glyph-name="onequarter" unicode="&#xbc;" horiz-adv-x="843" 
d="M754 710h-99l-522 -710h99zM697 396l-243 -248l-6 -55h201l-17 -93h71l17 93h54l11 64h-54l44 239h-78zM76 627l26 -63l115 57l-54 -300h77l69 396h-57zM542 157l144 145l-26 -145h-118z" />
    <glyph glyph-name="onehalf" unicode="&#xbd;" horiz-adv-x="888" 
d="M614 254l22 30q4 6 10 14.5t15.5 16t22 12.5t29.5 5q31 0 44.5 -15.5t8.5 -40.5q-4 -21 -17.5 -34.5t-24.5 -18.5q-5 -2 -15.5 -6t-25.5 -9l-61 -23q-46 -17 -68.5 -42t-32.5 -70l-15 -73h284l12 69h-210l4 17q6 34 51 47l61 17q63 20 95 48t41 80q9 54 -21 90t-96 36
q-106 0 -163 -102l-14 -27zM748 710h-99l-522 -710h99zM76 627l26 -63l115 57l-54 -300h77l69 396h-57z" />
    <glyph glyph-name="threequarters" unicode="&#xbe;" horiz-adv-x="885" 
d="M131 458l-74 -22l3 -22q15 -100 137 -100q72 0 113 28t50 82q12 71 -39 104q51 26 60 82q8 52 -21.5 84t-92.5 32q-119 0 -170 -102l-8 -16l63 -27l10 21q27 56 96 56q28 0 42 -14t9 -39q-10 -49 -57 -49h-67l-14 -68h74q24 0 35 -14.5t6 -38.5q-8 -53 -78 -53
q-38 0 -54 13.5t-21 43.5zM798 710h-99l-522 -710h99zM681 21q-3 -13 0 -17.5t16 -4.5h30q13 0 18 4.5t7 17.5l13 72h30q15 0 19.5 3.5t7.5 17.5l3 22q2 12 -1 16t-18 4h-30l38 216q3 15 -0.5 19t-18.5 4h-32q-21 0 -35 -14l-219 -221q-8 -9 -12 -26l-3 -18
q-2 -14 1.5 -18.5t16.5 -4.5h181zM730 301l-26 -145h-118z" />
    <glyph glyph-name="questiondown" unicode="&#xbf;" horiz-adv-x="559" 
d="M18 -165q57 -60 168 -60q102 0 168 42t111 120l12 21l-74 38l-16 -27q-64 -109 -190 -109q-70 0 -102.5 35.5t-22.5 90.5q6 32 19 55.5t32 42t42.5 33.5t50.5 30q27 17 49.5 33.5t39 37t28 45.5t17.5 58l5 25h-81l-5 -25q-7 -39 -31 -63t-66 -48q-1 -1 -10.5 -6
t-21 -11.5t-22 -12.5t-13.5 -8q-5 -3 -13.5 -9t-18 -13t-18.5 -15t-15 -15q-19 -24 -37.5 -56.5t-26.5 -79.5q-15 -89 42 -149zM280 467q-3 -23 10.5 -39t36.5 -16t41 16t21 39t-10.5 38.5t-36.5 15.5t-41 -15.5t-21 -38.5z" />
    <glyph glyph-name="Agrave" unicode="&#xc0;" 
d="M453 186l37 -186h103l-152 712h-90l-404 -712h106l102 186h298zM438 265h-239l176 319zM297 853l199 -100l42 42l-180 119z" />
    <glyph glyph-name="Aacute" unicode="&#xc1;" 
d="M453 186l37 -186h103l-152 712h-90l-404 -712h106l102 186h298zM438 265h-239l176 319zM508 918l-219 -121l24 -44l234 103z" />
    <glyph glyph-name="Acircumflex" unicode="&#xc2;" 
d="M453 186l37 -186h103l-152 712h-90l-404 -712h106l102 186h298zM199 265l176 319l63 -319h-239zM404 905l-183 -144h91l111 85l79 -85h89l-133 144h-54z" />
    <glyph glyph-name="Atilde" unicode="&#xc3;" 
d="M490 0h103l-152 712h-90l-404 -712h106l102 186h298zM438 265h-239l176 319zM252 783l-2 -15h55l2 15q8 48 41 48q15 0 29 -10t29 -21.5t32 -21.5t38 -10q42 0 65.5 25t33.5 79l3 16h-55l-3 -15q-7 -48 -40 -48q-15 0 -28.5 10t-28.5 21.5t-32.5 21.5t-40.5 10
q-81 0 -98 -105z" />
    <glyph glyph-name="Adieresis" unicode="&#xc4;" 
d="M155 186h298l37 -186h103l-152 712h-90l-404 -712h106zM438 265h-239l176 319zM327 875q-19 0 -34.5 -13t-19.5 -32q-3 -20 8 -33t30 -13t34.5 13t18.5 33q4 19 -7 32t-30 13zM523 875q-19 0 -34.5 -13t-18.5 -32q-4 -20 7 -33t30 -13t34.5 13t19.5 33q3 19 -8 32t-30 13
z" />
    <glyph glyph-name="Aring" unicode="&#xc5;" 
d="M454 186l37 -186h103l-145 678q64 25 76 96q9 52 -18 84.5t-79 32.5q-54 0 -93 -32t-48 -84q-12 -73 45 -98l-385 -677h106l103 186h298zM199 265l176 319l65 -319h-241zM396 712q-30 0 -44.5 17.5t-9.5 45.5q5 29 26 46t51 17q28 0 42 -17t9 -46q-5 -28 -25.5 -45.5
t-48.5 -17.5z" />
    <glyph glyph-name="AE" unicode="&#xc6;" horiz-adv-x="843" 
d="M372 0h386l14 90h-292l39 224h235l17 90h-236l38 216h281l17 90h-380l-560 -710h112l127 163h232zM415 243h-183l239 312z" />
    <glyph glyph-name="Ccedilla" unicode="&#xc7;" horiz-adv-x="635" 
d="M492 189q-29 -58 -76 -85.5t-122 -27.5q-88 0 -128 42t-26 123l41 229q13 79 67 122t145 43q75 0 111.5 -27.5t45.5 -84.5l4 -25l90 29l-4 26q-12 85 -68.5 128.5t-165.5 43.5q-136 0 -218.5 -65t-103.5 -186l-40 -228q-20 -117 38 -186.5t183 -74.5l-59 -103l23 5
q14 3 30 3q54 0 48 -37q-8 -47 -71 -47q-35 0 -64 21l-11 8l-9 -56l12 -9q26 -19 74 -19q52 0 91.5 23t50.5 69q9 38 -9.5 62t-63.5 24q-4 0 -8.5 -0.5t-10.5 -1.5l32 59q96 8 159 50t102 120l13 25l-89 34z" />
    <glyph glyph-name="Egrave" unicode="&#xc8;" horiz-adv-x="576" 
d="M503 90h-369l40 225h311l17 90h-312l38 215h357l17 90h-455l-126 -710h468zM276 853l199 -100l42 42l-180 119z" />
    <glyph glyph-name="Eacute" unicode="&#xc9;" horiz-adv-x="576" 
d="M503 90h-369l40 225h311l17 90h-312l38 215h357l17 90h-455l-126 -710h468zM488 917l-219 -121l24 -44l234 103z" />
    <glyph glyph-name="Ecircumflex" unicode="&#xca;" horiz-adv-x="576" 
d="M134 90l40 225h311l17 90h-312l38 215h357l17 90h-455l-126 -710h468l14 90h-369zM291 761l111 85l79 -85h89l-133 144h-54l-183 -144h91z" />
    <glyph glyph-name="Edieresis" unicode="&#xcb;" horiz-adv-x="576" 
d="M21 0h468l14 90h-369l40 225h311l17 90h-312l38 215h357l17 90h-455zM448 830q-4 -20 7 -33t30 -13t34.5 13t19.5 33q3 19 -8 32t-30 13t-34.5 -13t-18.5 -32zM252 830q-4 -20 7 -33t30 -13t34.5 13t19.5 33q3 19 -8 32t-30 13t-34.5 -13t-18.5 -32z" />
    <glyph glyph-name="Igrave" unicode="&#xcc;" horiz-adv-x="247" 
d="M21 0h97l125 710h-97zM96 853l199 -100l42 42l-180 119z" />
    <glyph glyph-name="Iacute" unicode="&#xcd;" horiz-adv-x="247" 
d="M21 0h97l125 710h-97zM309 917l-219 -121l24 -44l234 103z" />
    <glyph glyph-name="Icircumflex" unicode="&#xce;" horiz-adv-x="247" 
d="M146 710l-125 -710h97l125 710h-97zM204 905l-183 -144h91l111 85l79 -85h89l-133 144h-54z" />
    <glyph glyph-name="Idieresis" unicode="&#xcf;" horiz-adv-x="247" 
d="M21 0h97l125 710h-97zM73 830q-3 -20 8 -33t30 -13t34.5 13t18.5 33q4 19 -7 32t-30 13t-34.5 -13t-19.5 -32zM270 830q-4 -20 7 -33t30 -13t34.5 13t19.5 33q3 19 -8 32t-30 13t-34.5 -13t-18.5 -32z" />
    <glyph glyph-name="Eth" unicode="&#xd0;" horiz-adv-x="672" 
d="M33 0h244q143 0 228.5 65.5t107.5 189.5l32 182q11 62 0 112.5t-42 86t-81.5 55t-119.5 19.5h-243l-56 -315h-83l-11 -63h83zM189 332h170l11 63h-170l40 225h147q97 0 137 -44t26 -129l-32 -184q-15 -84 -72.5 -128.5t-151.5 -44.5h-148z" />
    <glyph glyph-name="Ntilde" unicode="&#xd1;" horiz-adv-x="694" 
d="M117 0l93 530l268 -530h88l125 710h-96l-93 -529l-270 529h-86l-125 -710h96zM275 783l-2 -15h55l2 15q8 48 41 48q15 0 29 -10t29 -21.5t32 -21.5t38 -10q42 0 65.5 25t33.5 79l3 16h-55l-3 -15q-7 -48 -40 -48q-15 0 -28.5 10t-28.5 21.5t-32.5 21.5t-40.5 10
q-81 0 -98 -105z" />
    <glyph glyph-name="Ograve" unicode="&#xd2;" horiz-adv-x="667" 
d="M282 -15q136 0 217.5 64t102.5 184l40 228q11 60 0.5 109t-40.5 83.5t-79.5 53t-116.5 18.5q-136 0 -218 -64.5t-103 -185.5l-40 -228q-10 -60 0.5 -108.5t40.5 -82.5t79.5 -52.5t116.5 -18.5zM295 75q-88 0 -128 42.5t-26 123.5l40 228q14 81 68.5 123.5t144.5 42.5
q88 0 128 -42.5t26 -123.5l-41 -228q-14 -81 -69 -123.5t-143 -42.5zM309 863l199 -100l42 42l-180 119z" />
    <glyph glyph-name="Oacute" unicode="&#xd3;" horiz-adv-x="667" 
d="M282 -15q136 0 217.5 64t102.5 184l40 228q11 60 0.5 109t-40.5 83.5t-79.5 53t-116.5 18.5q-136 0 -218 -64.5t-103 -185.5l-40 -228q-10 -60 0.5 -108.5t40.5 -82.5t79.5 -52.5t116.5 -18.5zM295 75q-88 0 -128 42.5t-26 123.5l40 228q14 81 68.5 123.5t144.5 42.5
q88 0 128 -42.5t26 -123.5l-41 -228q-14 -81 -69 -123.5t-143 -42.5zM303 806l26 -43l233 102l-39 62z" />
    <glyph glyph-name="Ocircumflex" unicode="&#xd4;" horiz-adv-x="667" 
d="M45 247q-10 -60 0.5 -108.5t40.5 -82.5t79.5 -52.5t116.5 -18.5q136 0 217.5 64t102.5 184l40 228q11 60 0.5 109t-40.5 83.5t-79.5 53t-116.5 18.5q-136 0 -218 -64.5t-103 -185.5zM295 75q-88 0 -128 42.5t-26 123.5l40 228q14 81 68.5 123.5t144.5 42.5
q88 0 128 -42.5t26 -123.5l-41 -228q-14 -81 -69 -123.5t-143 -42.5zM234 771h91l111 85l79 -85h89l-133 144h-54z" />
    <glyph glyph-name="Otilde" unicode="&#xd5;" horiz-adv-x="667" 
d="M45 247q-10 -60 0.5 -108.5t40.5 -82.5t79.5 -52.5t116.5 -18.5q136 0 217.5 64t102.5 184l40 228q11 60 0.5 109t-40.5 83.5t-79.5 53t-116.5 18.5q-136 0 -218 -64.5t-103 -185.5zM295 75q-88 0 -128 42.5t-26 123.5l40 228q14 81 68.5 123.5t144.5 42.5
q88 0 128 -42.5t26 -123.5l-41 -228q-14 -81 -69 -123.5t-143 -42.5zM263 778h55l2 15q8 48 41 48q15 0 29 -10t29 -21.5t32 -21.5t38 -10q42 0 65.5 25t33.5 79l3 16h-55l-3 -15q-7 -48 -40 -48q-15 0 -28.5 10t-28.5 21.5t-32.5 21.5t-40.5 10q-81 0 -98 -105z" />
    <glyph glyph-name="Odieresis" unicode="&#xd6;" horiz-adv-x="667" 
d="M45 247q-10 -60 0.5 -108.5t40.5 -82.5t79.5 -52.5t116.5 -18.5q136 0 217.5 64t102.5 184l40 228q11 60 0.5 109t-40.5 83.5t-79.5 53t-116.5 18.5q-136 0 -218 -64.5t-103 -185.5zM295 75q-88 0 -128 42.5t-26 123.5l40 228q14 81 68.5 123.5t144.5 42.5
q88 0 128 -42.5t26 -123.5l-41 -228q-14 -81 -69 -123.5t-143 -42.5zM287 840q-3 -20 8 -33t30 -13t34.5 13t18.5 33q4 19 -7 32t-30 13t-34.5 -13t-19.5 -32zM484 840q-4 -20 7 -33t30 -13t34.5 13t19.5 33q3 19 -8 32t-30 13t-34.5 -13t-18.5 -32z" />
    <glyph glyph-name="multiply" unicode="&#xd7;" horiz-adv-x="507" 
d="M22 174l47 -58l178 152l125 -151l66 55l-125 152l179 153l-47 57l-179 -153l-125 153l-66 -58l125 -151z" />
    <glyph glyph-name="Oslash" unicode="&#xd8;" horiz-adv-x="668" 
d="M406 725q-136 0 -218 -64.5t-103 -185.5l-40 -228q-20 -112 32 -179l-88 -109h73l58 69q58 -43 162 -43q136 0 217.5 64t102.5 184l40 228q19 106 -27 176l93 115h-74l-60 -76q-61 49 -168 49zM181 469q14 81 68.5 123.5t144.5 42.5q78 0 117 -36l-360 -441
q-19 31 -10 83zM507 241q-14 -81 -69 -123.5t-143 -42.5q-73 0 -113 31l358 439q16 -30 8 -76z" />
    <glyph glyph-name="Ugrave" unicode="&#xd9;" horiz-adv-x="685" 
d="M509 242q-14 -79 -66 -123t-140 -44t-125 44t-23 123l83 468h-96l-82 -458q-11 -60 -1.5 -109t39 -84.5t77.5 -54.5t114 -19q136 0 215 64t100 184l85 477h-97zM315 853l199 -100l42 42l-180 119z" />
    <glyph glyph-name="Uacute" unicode="&#xda;" horiz-adv-x="685" 
d="M509 242q-14 -79 -66 -123t-140 -44t-125 44t-23 123l83 468h-96l-82 -458q-11 -60 -1.5 -109t39 -84.5t77.5 -54.5t114 -19q136 0 215 64t100 184l85 477h-97zM529 917l-219 -121l24 -44l234 103z" />
    <glyph glyph-name="Ucircumflex" unicode="&#xdb;" horiz-adv-x="685" 
d="M60 252q-11 -60 -1.5 -109t39 -84.5t77.5 -54.5t114 -19q136 0 215 64t100 184l85 477h-97l-83 -468q-14 -79 -66 -123t-140 -44t-125 44t-23 123l83 468h-96zM423 905l-183 -144h91l111 85l79 -85h89l-133 144h-54z" />
    <glyph glyph-name="Udieresis" unicode="&#xdc;" horiz-adv-x="685" 
d="M303 75q-88 0 -125 44t-23 123l83 468h-96l-82 -458q-11 -60 -1.5 -109t39 -84.5t77.5 -54.5t114 -19q136 0 215 64t100 184l85 477h-97l-83 -468q-14 -79 -66 -123t-140 -44zM346 875q-19 0 -34.5 -13t-19.5 -32q-3 -20 8 -33t30 -13t34.5 13t18.5 33q4 19 -7 32t-30 13
zM489 830q-4 -20 7 -33t30 -13t34.5 13t19.5 33q3 19 -8 32t-30 13t-34.5 -13t-18.5 -32z" />
    <glyph glyph-name="Yacute" unicode="&#xdd;" horiz-adv-x="631" 
d="M69 710l195 -424l-49 -286h95l51 284l345 426h-118l-257 -326l-143 326h-119zM285 799l23 -44l235 103l-39 62z" />
    <glyph glyph-name="Thorn" unicode="&#xde;" horiz-adv-x="624" 
d="M140 124h186q112 0 186 59t94 168q10 56 1 101t-34.5 77t-67 49.5t-95.5 17.5h-187l21 114h-97l-126 -710h98zM208 506h177q69 0 101.5 -40.5t20.5 -106.5q-10 -66 -57.5 -105.5t-116.5 -39.5h-177z" />
    <glyph glyph-name="germandbls" unicode="&#xdf;" horiz-adv-x="549" 
d="M103 532l-94 -532h89l93 529q11 60 48.5 95.5t94.5 35.5q120 0 99 -122q-8 -48 -40.5 -80.5t-81.5 -32.5h-79l-15 -87h86q55 0 81 -32.5t15 -89.5q-22 -126 -144 -126h-84l-17 -90h94q102 0 166 52.5t81 152.5q26 146 -77 182v3q88 40 109 149q17 97 -27 154t-150 57
q-100 0 -164.5 -59t-82.5 -159z" />
    <glyph glyph-name="agrave" unicode="&#xe0;" horiz-adv-x="535" 
d="M196 -15q108 0 204 28l27 7l82 463l-35 17q-63 31 -170 31q-114 0 -174.5 -45.5t-78.5 -147.5l-25 -140q-17 -96 26 -154.5t144 -58.5zM138 326q12 66 49.5 94.5t109.5 28.5q52 0 98 -15l15 -5l-61 -343q-61 -19 -132 -19q-61 0 -87 32t-16 92zM219 679l199 -100l42 42
l-180 119z" />
    <glyph glyph-name="aacute" unicode="&#xe1;" horiz-adv-x="535" 
d="M196 -15q108 0 204 28l27 7l82 463l-35 17q-63 31 -170 31q-114 0 -174.5 -45.5t-78.5 -147.5l-25 -140q-17 -96 26 -154.5t144 -58.5zM138 326q12 66 49.5 94.5t109.5 28.5q52 0 98 -15l15 -5l-61 -343q-61 -19 -132 -19q-61 0 -87 32t-16 92zM431 741l-219 -121l24 -44
l234 103z" />
    <glyph glyph-name="acircumflex" unicode="&#xe2;" horiz-adv-x="535" 
d="M26 198q-17 -96 26 -154.5t144 -58.5q108 0 204 28l27 7l82 463l-35 17q-63 31 -170 31q-114 0 -174.5 -45.5t-78.5 -147.5zM138 326q12 66 49.5 94.5t109.5 28.5q52 0 98 -15l15 -5l-61 -343q-61 -19 -132 -19q-61 0 -87 32t-16 92zM325 726l-183 -144h91l111 85l79 -85
h89l-133 144h-54z" />
    <glyph glyph-name="atilde" unicode="&#xe3;" horiz-adv-x="535" 
d="M304 531q-114 0 -174.5 -45.5t-78.5 -147.5l-25 -140q-17 -96 26 -154.5t144 -58.5q108 0 204 28l27 7l82 463l-35 17q-63 31 -170 31zM349 86q-61 -19 -132 -19q-61 0 -87 32t-16 92l24 135q12 66 49.5 94.5t109.5 28.5q52 0 98 -15l15 -5zM397 594q42 0 65.5 25
t33.5 79l3 16h-55l-3 -15q-7 -48 -40 -48q-15 0 -28.5 10t-28.5 21.5t-32.5 21.5t-40.5 10q-81 0 -98 -105l-2 -15h55l2 15q8 48 41 48q15 0 29 -10t29 -21.5t32 -21.5t38 -10z" />
    <glyph glyph-name="adieresis" unicode="&#xe4;" horiz-adv-x="535" 
d="M196 -15q54 0 104.5 7t99.5 21l27 8l82 463l-35 16q-63 31 -170 31q-114 0 -174.5 -45.5t-78.5 -147.5l-25 -140q-17 -96 26 -154.5t144 -58.5zM138 326q12 66 49.5 94.5t109.5 28.5q52 0 98 -15l15 -5l-61 -343q-61 -19 -132 -19q-61 0 -87 32t-16 92zM247 697
q-19 0 -34.5 -13t-19.5 -32q-3 -20 8 -33t30 -13t34.5 13t18.5 33q4 19 -7 32t-30 13zM390 652q-4 -20 7 -33t30 -13t34.5 13t19.5 33q3 19 -8 32t-30 13t-34.5 -13t-18.5 -32z" />
    <glyph glyph-name="aring" unicode="&#xe5;" horiz-adv-x="535" 
d="M474 500q-63 31 -170 31q-114 0 -174.5 -45.5t-78.5 -147.5l-25 -140q-17 -96 26 -154.5t144 -58.5q108 0 204 28l27 7l82 463zM410 429l-61 -343q-61 -19 -132 -19q-61 0 -87 32t-16 92l24 135q12 66 49.5 94.5t109.5 28.5q52 0 98 -15zM325 573q46 0 79.5 28t40.5 73
q8 46 -15.5 74.5t-69.5 28.5q-47 0 -81.5 -28t-41.5 -74q-8 -45 16.5 -73.5t71.5 -28.5zM399 674q-4 -25 -22.5 -40.5t-44.5 -15.5q-27 0 -40.5 15.5t-8.5 40.5q4 27 23.5 42t46.5 15q26 0 38.5 -15.5t7.5 -41.5z" />
    <glyph glyph-name="ae" unicode="&#xe6;" horiz-adv-x="779" 
d="M406 227q68 -15 125 -15q94 0 152 36.5t72 106.5q8 42 0.5 74.5t-30 55t-58.5 34.5t-84 12q-110 0 -172 -84q-13 40 -42.5 62t-90.5 22q-133 0 -205 -102l-16 -23l71 -32l15 19q46 58 119 58q37 0 56 -11t26 -28.5t5 -39.5t-6 -43l-6 -36q-29 4 -53.5 5.5t-44.5 1.5
q-106 0 -162 -36t-70 -114q-14 -81 27 -123t147 -42q107 0 171 52q39 -52 130 -52q141 0 210 99l19 27l-65 42l-16 -23q-46 -67 -134 -67q-117 0 -98 120zM424 329q10 60 49 93t97 33t83 -24.5t14 -70.5q-16 -79 -123 -79q-59 0 -126 14zM317 179q-8 -48 -2 -78
q-8 -5 -19 -12t-27 -13.5t-36.5 -11t-47.5 -4.5q-55 0 -76 19.5t-13 64.5q15 85 121 85q19 0 45.5 -1.5t61.5 -5.5z" />
    <glyph glyph-name="ccedilla" unicode="&#xe7;" horiz-adv-x="511" 
d="M370 151q-45 -87 -147 -87q-64 0 -92 31t-17 88l26 150q23 119 152 119q102 0 118 -84l5 -25l81 29l-4 25q-21 134 -187 134q-220 0 -253 -195l-26 -144q-16 -91 24.5 -145t135.5 -61l-59 -103l23 5q14 3 30 3q54 0 48 -37q-8 -47 -71 -47q-35 0 -64 21l-11 8l-9 -56
l12 -9q26 -19 74 -19q52 0 91.5 23t50.5 69q9 38 -9.5 62t-63.5 24q-4 0 -8.5 -0.5t-10.5 -1.5l32 58q143 12 209 136l14 26l-81 27z" />
    <glyph glyph-name="egrave" unicode="&#xe8;" horiz-adv-x="526" 
d="M26 202q-9 -48 -2.5 -88t29.5 -68.5t62 -44.5t95 -16q156 0 232 99l19 25l-67 45l-19 -25q-52 -66 -151 -66q-66 0 -94.5 31t-18.5 89l8 43q40 -7 75 -10.5t67 -3.5q211 0 240 137q17 84 -35 133t-155 49q-109 0 -177 -52.5t-86 -151.5zM137 327q11 60 54 94t107 34
q66 0 96.5 -24.5t19.5 -70.5q-18 -79 -141 -79q-70 0 -142 15zM212 679l199 -100l42 42l-180 119z" />
    <glyph glyph-name="eacute" unicode="&#xe9;" horiz-adv-x="526" 
d="M26 202q-9 -48 -2.5 -88t29.5 -68.5t62 -44.5t95 -16q156 0 232 99l19 25l-67 45l-19 -25q-52 -66 -151 -66q-66 0 -94.5 31t-18.5 89l8 43q40 -7 75 -10.5t67 -3.5q211 0 240 137q17 84 -35 133t-155 49q-109 0 -177 -52.5t-86 -151.5zM137 327q11 60 54 94t107 34
q66 0 96.5 -24.5t19.5 -70.5q-18 -79 -141 -79q-70 0 -142 15zM423 742l-219 -121l24 -44l234 103z" />
    <glyph glyph-name="ecircumflex" unicode="&#xea;" horiz-adv-x="526" 
d="M311 531q-109 0 -177 -52.5t-86 -151.5l-22 -125q-9 -48 -2.5 -88t29.5 -68.5t62 -44.5t95 -16q156 0 232 99l19 25l-67 45l-19 -25q-52 -66 -151 -66q-66 0 -94.5 31t-18.5 89l8 43q40 -7 75 -10.5t67 -3.5q211 0 240 137q17 84 -35 133t-155 49zM414 360
q-18 -79 -141 -79q-70 0 -142 15l6 31q11 60 54 94t107 34q66 0 96.5 -24.5t19.5 -70.5zM373 726h-54l-183 -144h91l111 85l79 -85h89z" />
    <glyph glyph-name="edieresis" unicode="&#xeb;" horiz-adv-x="526" 
d="M501 349q17 84 -35 133t-155 49q-109 0 -177 -52.5t-86 -151.5l-22 -125q-9 -48 -2.5 -88t29.5 -68.5t62 -44.5t95 -16q156 0 232 99l19 25l-67 45l-19 -25q-52 -66 -151 -66q-66 0 -94.5 31t-18.5 89l8 43q40 -7 75 -10.5t67 -3.5q211 0 240 137zM414 360
q-18 -79 -141 -79q-70 0 -142 15l6 31q11 60 54 94t107 34q66 0 96.5 -24.5t19.5 -70.5zM187 652q-3 -20 7.5 -33t30.5 -13q19 0 34.5 13t18.5 33q3 19 -7.5 32t-29.5 13q-20 0 -35.5 -13t-18.5 -32zM421 606q19 0 34.5 13t19.5 33q3 19 -8 32t-30 13t-34.5 -13t-18.5 -32
q-4 -20 7 -33t30 -13z" />
    <glyph glyph-name="igrave" unicode="&#xec;" horiz-adv-x="213" 
d="M101 516l-91 -516h89l91 516h-89zM51 680l165 -106l37 40l-143 126z" />
    <glyph glyph-name="iacute" unicode="&#xed;" horiz-adv-x="213" 
d="M101 516l-91 -516h89l91 516h-89zM244 744l-191 -125l24 -44l206 106z" />
    <glyph glyph-name="icircumflex" unicode="&#xee;" horiz-adv-x="213" 
d="M10 0h89l91 516h-89zM147 722l-148 -138h88l82 76l54 -76h81l-99 138h-58z" />
    <glyph glyph-name="idieresis" unicode="&#xef;" horiz-adv-x="213" 
d="M101 516l-91 -516h89l91 516h-89zM42 660q-3 -20 8 -33t30 -13t34.5 13t18.5 33q4 19 -7 32t-30 13t-34.5 -13t-19.5 -32zM203 660q-4 -20 7 -33t30 -13t34.5 13t19.5 33q3 19 -8 32t-30 13t-34.5 -13t-18.5 -32z" />
    <glyph glyph-name="eth" unicode="&#xf0;" horiz-adv-x="552" 
d="M431 699q-70 43 -208 43h-25l-11 -82h24q99 0 151 -29l-70 -63l39 -31l73 66q47 -52 30 -168q-31 70 -146 70q-97 0 -161 -50t-80 -141l-22 -123q-17 -96 32 -151t158 -55t176 52t84 146l38 215q32 189 -40 270l60 53l-40 34zM136 306q10 57 50 87.5t107 30.5
q66 0 95 -30t19 -87l-22 -123q-22 -118 -156 -118q-67 0 -96 30.5t-19 87.5z" />
    <glyph glyph-name="ntilde" unicode="&#xf1;" horiz-adv-x="549" 
d="M91 482l-84 -482h90l75 427l12 4q60 18 119 18q126 0 105 -119l-58 -330h89l58 326q16 97 -24.5 151t-143.5 54q-107 0 -197 -34zM166 609l-2 -15h55l2 15q8 48 41 48q15 0 29 -10t29 -21.5t32 -21.5t38 -10q42 0 65.5 25t33.5 79l3 16h-55l-3 -15q-7 -48 -40 -48
q-15 0 -28.5 10t-28.5 21.5t-32.5 21.5t-40.5 10q-81 0 -98 -105z" />
    <glyph glyph-name="ograve" unicode="&#xf2;" horiz-adv-x="541" 
d="M217 -15q109 0 174.5 48t81.5 139l28 163q16 91 -34 143.5t-158 52.5q-106 0 -173 -49.5t-83 -139.5l-29 -163q-15 -91 36 -142.5t157 -51.5zM229 66q-63 0 -94 29t-21 81l28 164q10 52 51 81t104 29q64 0 94.5 -29t21.5 -81l-29 -164q-10 -52 -50.5 -81t-104.5 -29z
M212 679l199 -100l42 42l-180 119z" />
    <glyph glyph-name="oacute" unicode="&#xf3;" horiz-adv-x="541" 
d="M217 -15q109 0 174.5 48t81.5 139l28 163q16 91 -34 143.5t-158 52.5q-106 0 -173 -49.5t-83 -139.5l-29 -163q-15 -91 36 -142.5t157 -51.5zM229 66q-63 0 -94 29t-21 81l28 164q10 52 51 81t104 29q64 0 94.5 -29t21.5 -81l-29 -164q-10 -52 -50.5 -81t-104.5 -29z
M204 621l24 -44l234 103l-39 62z" />
    <glyph glyph-name="ocircumflex" unicode="&#xf4;" horiz-adv-x="541" 
d="M24 179q-15 -91 36 -142.5t157 -51.5q109 0 174.5 48t81.5 139l28 163q16 91 -34 143.5t-158 52.5q-106 0 -173 -49.5t-83 -139.5zM229 66q-63 0 -94 29t-21 81l28 164q10 52 51 81t104 29q64 0 94.5 -29t21.5 -81l-29 -164q-10 -52 -50.5 -81t-104.5 -29zM137 582h91
l111 85l79 -85h89l-133 144h-54z" />
    <glyph glyph-name="otilde" unicode="&#xf5;" horiz-adv-x="541" 
d="M24 179q-15 -91 36 -142.5t157 -51.5q109 0 174.5 48t81.5 139l28 163q16 91 -34 143.5t-158 52.5q-106 0 -173 -49.5t-83 -139.5zM229 66q-63 0 -94 29t-21 81l28 164q10 52 51 81t104 29q64 0 94.5 -29t21.5 -81l-29 -164q-10 -52 -50.5 -81t-104.5 -29zM165 593h55
l2 15q8 48 41 48q15 0 29 -10t29 -21.5t32 -21.5t38 -10q42 0 65.5 25t33.5 79l3 16h-55l-3 -15q-7 -48 -40 -48q-15 0 -28.5 10t-28.5 21.5t-32.5 21.5t-40.5 10q-81 0 -98 -105z" />
    <glyph glyph-name="odieresis" unicode="&#xf6;" horiz-adv-x="541" 
d="M24 179q-15 -91 36 -142.5t157 -51.5q109 0 174.5 48t81.5 139l28 163q16 91 -34 143.5t-158 52.5q-106 0 -173 -49.5t-83 -139.5zM229 66q-63 0 -94 29t-21 81l28 164q10 52 51 81t104 29q64 0 94.5 -29t21.5 -81l-29 -164q-10 -52 -50.5 -81t-104.5 -29zM188 652
q-3 -20 8 -33t30 -13t34.5 13t18.5 33q4 19 -7 32t-30 13t-34.5 -13t-19.5 -32zM385 652q-4 -20 7 -33t30 -13t34.5 13t19.5 33q3 19 -8 32t-30 13t-34.5 -13t-18.5 -32z" />
    <glyph glyph-name="divide" unicode="&#xf7;" horiz-adv-x="567" 
d="M45 282h470l16 86h-473zM199 136q-3 -23 10.5 -39t36.5 -16t41 16t21 39t-10.5 38.5t-36.5 15.5t-41 -15.5t-21 -38.5zM266 516q-3 -23 10.5 -39t36.5 -16t41 16t21 39t-10.5 38.5t-36.5 15.5t-41 -15.5t-21 -38.5z" />
    <glyph glyph-name="oslash" unicode="&#xf8;" horiz-adv-x="541" 
d="M309 531q-106 0 -173 -49.5t-83 -139.5l-29 -163q-15 -89 35 -142l-59 -72h57l39 46q50 -26 120 -26q109 0 174.5 48t81.5 139l29 163q15 86 -32 139l63 78h-56l-42 -50q-50 29 -125 29zM142 340q10 52 50.5 81t103.5 29q50 0 81 -19l-253 -313q-17 24 -11 58zM384 176
q-9 -52 -50.5 -81t-105.5 -29q-46 0 -75 17l248 306q16 -21 11 -52z" />
    <glyph glyph-name="ugrave" unicode="&#xf9;" horiz-adv-x="550" 
d="M232 67q-126 0 -105 119l58 330h-89l-58 -326q-16 -97 24.5 -151t143.5 -54q101 0 196 34l42 14l84 483h-90l-74 -427l-16 -5q-59 -17 -116 -17zM279 740l-61 -61l199 -100l42 42z" />
    <glyph glyph-name="uacute" unicode="&#xfa;" horiz-adv-x="550" 
d="M232 67q-126 0 -105 119l58 330h-89l-58 -326q-16 -97 24.5 -151t143.5 -54q101 0 196 34l42 14l84 483h-90l-74 -427l-16 -5q-59 -17 -116 -17zM209 620l23 -44l235 103l-39 62z" />
    <glyph glyph-name="ucircumflex" unicode="&#xfb;" horiz-adv-x="550" 
d="M232 67q-126 0 -105 119l58 330h-89l-58 -326q-16 -97 24.5 -151t143.5 -54q101 0 196 34l42 14l84 483h-90l-74 -427l-16 -5q-59 -17 -116 -17zM141 582h91l111 85l79 -85h89l-133 144h-54z" />
    <glyph glyph-name="udieresis" unicode="&#xfc;" horiz-adv-x="550" 
d="M38 190q-16 -97 24.5 -151t143.5 -54q101 0 196 34l42 14l84 483h-90l-74 -427l-16 -5q-59 -17 -116 -17q-126 0 -105 119l58 330h-89zM193 652q-3 -20 7.5 -33t30.5 -13q19 0 34.5 13t18.5 33q3 19 -7.5 32t-29.5 13q-20 0 -35.5 -13t-18.5 -32zM390 652q-4 -20 7 -33
t30 -13t34.5 13t19.5 33q3 19 -8 32t-30 13t-34.5 -13t-18.5 -32z" />
    <glyph glyph-name="yacute" unicode="&#xfd;" horiz-adv-x="552" 
d="M42 209q-17 -97 23.5 -151t142.5 -54q62 0 144 21l-10 -54q-24 -132 -151 -132q-87 0 -112 67l-9 22l-85 -39l11 -27q40 -103 183 -103q216 0 253 216l95 541h-89l-72 -409q-70 -21 -131 -21q-66 0 -91 29.5t-14 89.5l54 311h-89zM232 576l235 103l-39 62l-219 -121z" />
    <glyph glyph-name="thorn" unicode="&#xfe;" horiz-adv-x="541" 
d="M226 -15q214 0 249 200l24 138q18 99 -24.5 151.5t-148.5 52.5q-64 0 -138 -21l41 233h-89l-169 -959h90l41 232q72 -27 124 -27zM173 422q78 24 127 24q131 0 110 -122l-24 -133q-22 -124 -152 -124q-53 0 -118 25z" />
    <glyph glyph-name="ydieresis" unicode="&#xff;" horiz-adv-x="552" 
d="M-4 -138q40 -103 183 -103q216 0 253 216l95 541h-89l-72 -409q-70 -21 -131 -21q-66 0 -91 29.5t-14 89.5l54 311h-89l-53 -307q-17 -97 23.5 -151t142.5 -54q62 0 144 21l-10 -54q-24 -132 -151 -132q-87 0 -112 67l-9 22l-85 -39zM192 652q-3 -20 7.5 -33t30.5 -13
q19 0 34.5 13t18.5 33q3 19 -7.5 32t-29.5 13q-20 0 -35.5 -13t-18.5 -32zM480 652q3 19 -8 32t-30 13t-34.5 -13t-18.5 -32q-4 -20 7 -33t30 -13t34.5 13t19.5 33z" />
    <glyph glyph-name="Amacron" unicode="&#x100;" 
d="M453 186l37 -186h103l-152 712h-90l-404 -712h106l102 186h298zM438 265h-239l176 319zM283 859l-13 -65h280l12 65h-279z" />
    <glyph glyph-name="amacron" unicode="&#x101;" horiz-adv-x="535" 
d="M196 -15q108 0 204 28l27 7l82 463l-35 17q-63 31 -170 31q-114 0 -174.5 -45.5t-78.5 -147.5l-25 -140q-17 -96 26 -154.5t144 -58.5zM138 326q12 66 49.5 94.5t109.5 28.5q52 0 98 -15l15 -5l-61 -343q-61 -19 -132 -19q-61 0 -87 32t-16 92zM204 682l-13 -65h279
l13 65h-279z" />
    <glyph glyph-name="Abreve" unicode="&#x102;" 
d="M453 186l37 -186h103l-152 712h-90l-404 -712h106l102 186h298zM438 265h-239l176 319zM339 908l-70 -24l2 -17q7 -51 42 -78t93 -27q119 0 171 105l9 17l-64 24l-7 -15q-31 -66 -98 -66q-68 0 -76 66z" />
    <glyph glyph-name="abreve" unicode="&#x103;" horiz-adv-x="535" 
d="M196 -15q108 0 204 28l27 7l82 463l-35 17q-63 31 -170 31q-114 0 -174.5 -45.5t-78.5 -147.5l-25 -140q-17 -96 26 -154.5t144 -58.5zM138 326q12 66 49.5 94.5t109.5 28.5q52 0 98 -15l15 -5l-61 -343q-61 -19 -132 -19q-61 0 -87 32t-16 92zM497 689l9 17l-64 24
l-7 -15q-31 -66 -98 -66q-68 0 -76 66l-2 15l-70 -24l2 -17q7 -51 42 -78t93 -27q119 0 171 105z" />
    <glyph glyph-name="Aogonek" unicode="&#x104;" 
d="M454 186l37 -186h24q-132 -97 -124 -183q2 -31 22 -47t51 -16q63 0 98 31l8 7l-14 55l-11 -9q-21 -18 -43 -18q-23 0 -28 26q-3 25 24.5 67.5t84.5 90.5l8 7l-149 701h-90l-405 -712h106l103 186h298zM375 583l65 -318h-241z" />
    <glyph glyph-name="aogonek" unicode="&#x105;" horiz-adv-x="536" 
d="M196 -15q37 0 72.5 3t70.5 10q-122 -97 -116 -181q2 -31 22 -47t51 -16q63 0 98 31l7 6l-12 57l-12 -10q-21 -18 -43 -18q-23 0 -28 26q-3 26 24.5 72.5t83.5 98.5l15 13l80 453l-35 17q-63 31 -170 31q-114 0 -174.5 -45.5t-78.5 -147.5l-25 -140q-17 -96 26 -154.5
t144 -58.5zM138 326q12 66 49.5 94.5t109.5 28.5q52 0 98 -15l15 -5l-61 -343q-61 -19 -132 -19q-61 0 -87 32t-16 92z" />
    <glyph glyph-name="Cacute" unicode="&#x106;" horiz-adv-x="635" 
d="M44 246q-10 -60 0.5 -108.5t41 -82t80 -52t115.5 -18.5q112 0 184.5 43t115.5 128l13 25l-89 34l-13 -26q-29 -58 -76 -85.5t-122 -27.5q-88 0 -128 42t-26 123l41 229q13 79 67 122t145 43q75 0 111.5 -27.5t45.5 -84.5l4 -25l90 29l-4 26q-12 85 -68.5 128.5
t-165.5 43.5q-136 0 -218.5 -65t-103.5 -186zM303 797l23 -44l235 103l-39 62z" />
    <glyph glyph-name="cacute" unicode="&#x107;" horiz-adv-x="511" 
d="M25 192q-17 -97 29.5 -152t155.5 -55q165 0 239 137l14 26l-81 27l-13 -24q-45 -87 -147 -87q-64 0 -92 31t-17 88l26 150q23 119 152 119q102 0 118 -84l5 -25l81 29l-4 25q-21 134 -187 134q-220 0 -253 -195zM408 741l-219 -121l24 -44l234 103z" />
    <glyph glyph-name="Ccircumflex" unicode="&#x108;" horiz-adv-x="635" 
d="M294 76q-88 0 -128 42t-26 123l41 229q13 79 67 122t145 43q75 0 111.5 -27.5t45.5 -84.5l4 -25l90 29l-4 26q-12 85 -68.5 128.5t-165.5 43.5q-136 0 -218.5 -65t-103.5 -186l-40 -228q-10 -60 0.5 -108.5t41 -82t80 -52t115.5 -18.5q112 0 184.5 43t115.5 128l13 25
l-89 34l-13 -26q-29 -58 -76 -85.5t-122 -27.5zM235 761h91l111 85l79 -85h89l-133 144h-54z" />
    <glyph glyph-name="ccircumflex" unicode="&#x109;" horiz-adv-x="511" 
d="M222 64q-64 0 -92 31t-17 88l26 150q23 119 152 119q102 0 118 -84l5 -25l81 29l-4 25q-21 134 -187 134q-220 0 -253 -195l-26 -144q-17 -97 29.5 -152t155.5 -55q165 0 239 137l14 26l-81 27l-13 -24q-45 -87 -147 -87zM122 582h91l111 85l79 -85h89l-133 144h-54z" />
    <glyph glyph-name="Cdotaccent" unicode="&#x10a;" horiz-adv-x="635" 
d="M44 246q-10 -60 0.5 -108.5t41 -82t80 -52t115.5 -18.5q112 0 184.5 43t115.5 128l13 25l-89 34l-13 -26q-29 -58 -76 -85.5t-122 -27.5q-88 0 -128 42t-26 123l41 229q13 79 67 122t145 43q75 0 111.5 -27.5t45.5 -84.5l4 -25l90 29l-4 26q-12 85 -68.5 128.5
t-165.5 43.5q-136 0 -218.5 -65t-103.5 -186zM384 828q-4 -20 7.5 -33.5t30.5 -13.5q20 0 35.5 13.5t19.5 33.5q4 19 -7.5 32.5t-30.5 13.5q-20 0 -35.5 -13.5t-19.5 -32.5z" />
    <glyph glyph-name="cdotaccent" unicode="&#x10b;" horiz-adv-x="511" 
d="M25 192q-17 -97 29.5 -152t155.5 -55q165 0 239 137l14 26l-81 27l-13 -24q-45 -87 -147 -87q-64 0 -92 31t-17 88l26 150q23 119 152 119q102 0 118 -84l5 -25l81 29l-4 25q-21 134 -187 134q-220 0 -253 -195zM270 650q-3 -20 8 -33.5t31 -13.5q19 0 35 13.5t19 33.5
q4 19 -7 32.5t-31 13.5t-35.5 -13.5t-19.5 -32.5z" />
    <glyph glyph-name="Ccaron" unicode="&#x10c;" horiz-adv-x="635" 
d="M294 76q-88 0 -128 42t-26 123l41 229q13 79 67 122t145 43q75 0 111.5 -27.5t45.5 -84.5l4 -25l90 29l-4 26q-12 85 -68.5 128.5t-165.5 43.5q-136 0 -218.5 -65t-103.5 -186l-40 -228q-10 -60 0.5 -108.5t41 -82t80 -52t115.5 -18.5q112 0 184.5 43t115.5 128l13 25
l-89 34l-13 -26q-29 -58 -76 -85.5t-122 -27.5zM345 904h-87l132 -144h55l181 144h-91l-110 -85z" />
    <glyph glyph-name="ccaron" unicode="&#x10d;" horiz-adv-x="511" 
d="M222 64q-64 0 -92 31t-17 88l26 150q23 119 152 119q102 0 118 -84l5 -25l81 29l-4 25q-21 134 -187 134q-220 0 -253 -195l-26 -144q-17 -97 29.5 -152t155.5 -55q165 0 239 137l14 26l-81 27l-13 -24q-45 -87 -147 -87zM231 724h-87l132 -144h55l181 144h-91l-110 -85z
" />
    <glyph glyph-name="Dcaron" unicode="&#x10e;" horiz-adv-x="659" 
d="M270 0q140 0 224.5 66t106.5 190l32 182q11 62 0 112t-42 85.5t-81.5 55t-119.5 19.5h-243l-126 -710h249zM228 620h147q94 0 135.5 -44.5t27.5 -128.5l-32 -184q-15 -84 -72.5 -128.5t-151.5 -44.5h-148zM234 904l132 -144h55l181 144h-91l-110 -85l-80 85h-87z" />
    <glyph glyph-name="dcaron" unicode="&#x10f;" horiz-adv-x="597" 
d="M203 -15q100 0 184 31l42 15l125 709h-89l-41 -231q-78 22 -136 22q-203 0 -237 -196l-25 -140q-18 -100 25.5 -155t151.5 -55zM138 324q23 125 153 125q52 0 119 -22l-59 -339l-16 -5q-48 -16 -110 -16q-132 0 -111 122zM580 509h58l95 231h-86z" />
    <glyph glyph-name="Dcroat" unicode="&#x110;" horiz-adv-x="672" 
d="M33 0h244q143 0 228.5 65.5t107.5 189.5l32 182q11 62 0 112.5t-42 86t-81.5 55t-119.5 19.5h-243l-56 -315h-83l-11 -63h83zM189 332h170l11 63h-170l40 225h147q97 0 137 -44t26 -129l-32 -184q-15 -84 -72.5 -128.5t-151.5 -44.5h-148z" />
    <glyph glyph-name="dcroat" unicode="&#x111;" horiz-adv-x="539" 
d="M204 -15q100 0 184 31l42 15l101 573h77l10 56h-77l14 80h-89l-14 -80h-155l-10 -56h155l-17 -95q-78 22 -136 22q-203 0 -237 -196l-25 -140q-18 -100 25.5 -155t151.5 -55zM139 324q23 125 153 125q52 0 119 -22l-59 -339l-16 -5q-48 -16 -110 -16q-132 0 -111 122z
" />
    <glyph glyph-name="Emacron" unicode="&#x112;" horiz-adv-x="576" 
d="M503 90h-369l40 225h311l17 90h-312l38 215h357l17 90h-455l-126 -710h468zM250 794h279l10 65h-279z" />
    <glyph glyph-name="emacron" unicode="&#x113;" horiz-adv-x="526" 
d="M26 202q-9 -48 -2.5 -88t29.5 -68.5t62 -44.5t95 -16q156 0 232 99l19 25l-67 45l-19 -25q-52 -66 -151 -66q-66 0 -94.5 31t-18.5 89l8 43q40 -7 75 -10.5t67 -3.5q211 0 240 137q17 84 -35 133t-155 49q-109 0 -177 -52.5t-86 -151.5zM137 327q11 60 54 94t107 34
q66 0 96.5 -24.5t19.5 -70.5q-18 -79 -141 -79q-70 0 -142 15zM186 617h279l10 65h-279z" />
    <glyph glyph-name="Ebreve" unicode="&#x114;" horiz-adv-x="576" 
d="M503 90h-369l40 225h311l17 90h-312l38 215h357l17 90h-455l-126 -710h468zM247 884l2 -17q7 -51 42 -78t93 -27q119 0 171 105l9 17l-64 24l-7 -15q-31 -66 -98 -66q-68 0 -76 66l-2 15z" />
    <glyph glyph-name="ebreve" unicode="&#x115;" horiz-adv-x="526" 
d="M501 349q17 84 -35 133t-155 49q-109 0 -177 -52.5t-86 -151.5l-22 -125q-9 -48 -2.5 -88t29.5 -68.5t62 -44.5t95 -16q156 0 232 99l19 25l-67 45l-19 -25q-52 -66 -151 -66q-66 0 -94.5 31t-18.5 89l8 43q40 -7 75 -10.5t67 -3.5q211 0 240 137zM273 281q-70 0 -142 15
l6 31q11 60 54 94t107 34q66 0 96.5 -24.5t19.5 -70.5q-18 -79 -141 -79zM319 584q119 0 171 105l9 17l-64 24l-7 -15q-31 -66 -98 -66q-68 0 -76 66l-2 15l-70 -24l2 -17q7 -51 42 -78t93 -27z" />
    <glyph glyph-name="Edotaccent" unicode="&#x116;" horiz-adv-x="576" 
d="M503 90h-369l40 225h311l17 90h-312l38 215h357l17 90h-455l-126 -710h468zM349 828q-3 -20 8 -33.5t31 -13.5q19 0 35 13.5t19 33.5q4 19 -7 32.5t-31 13.5t-35.5 -13.5t-19.5 -32.5z" />
    <glyph glyph-name="edotaccent" unicode="&#x117;" horiz-adv-x="526" 
d="M26 202q-9 -48 -2.5 -88t29.5 -68.5t62 -44.5t95 -16q156 0 232 99l19 25l-67 45l-19 -25q-52 -66 -151 -66q-66 0 -94.5 31t-18.5 89l8 43q40 -7 75 -10.5t67 -3.5q211 0 240 137q17 84 -35 133t-155 49q-109 0 -177 -52.5t-86 -151.5zM137 327q11 60 54 94t107 34
q66 0 96.5 -24.5t19.5 -70.5q-18 -79 -141 -79q-70 0 -142 15zM339 696q-20 0 -35.5 -13.5t-19.5 -32.5q-3 -20 8 -33.5t31 -13.5q19 0 35 13.5t19 33.5q4 19 -7 32.5t-31 13.5z" />
    <glyph glyph-name="Eogonek" unicode="&#x118;" horiz-adv-x="576" 
d="M503 90h-369l39 225h312l17 90h-312l38 215h357l17 90h-455l-126 -710h395q-136 -98 -129 -183q2 -31 22 -47t51 -16q63 0 98 31l7 6l-12 57l-12 -10q-21 -18 -43 -18q-23 0 -28 26q-7 55 112 159l9 8z" />
    <glyph glyph-name="eogonek" unicode="&#x119;" horiz-adv-x="526" 
d="M272 -153q-4 24 29.5 78t100.5 119q22 15 40 40l18 26l-66 44l-19 -25q-52 -66 -151 -66q-66 0 -94.5 31t-18.5 89l8 43q40 -7 75 -10.5t67 -3.5q211 0 240 137q17 84 -35 133t-155 49q-109 0 -177 -52.5t-86 -151.5l-22 -125q-9 -48 -2.5 -88t29.5 -68.5t62 -44.5
t95 -16q46 0 86 10q-112 -94 -107 -178q1 -30 21.5 -46.5t50.5 -16.5q62 0 99 31l8 6l-14 56l-11 -9q-20 -17 -43 -17q-25 0 -28 26zM273 281q-70 0 -142 15l6 31q11 60 54 94t107 34q66 0 96.5 -24.5t19.5 -70.5q-18 -79 -141 -79z" />
    <glyph glyph-name="Ecaron" unicode="&#x11a;" horiz-adv-x="576" 
d="M134 90l40 225h311l17 90h-312l38 215h357l17 90h-455l-126 -710h468l14 90h-369zM391 819l-80 85h-87l132 -144h55l181 144h-91z" />
    <glyph glyph-name="ecaron" unicode="&#x11b;" horiz-adv-x="526" 
d="M311 531q-109 0 -177 -52.5t-86 -151.5l-22 -125q-9 -48 -2.5 -88t29.5 -68.5t62 -44.5t95 -16q156 0 232 99l19 25l-67 45l-19 -25q-52 -66 -151 -66q-66 0 -94.5 31t-18.5 89l8 43q40 -7 75 -10.5t67 -3.5q211 0 240 137q17 84 -35 133t-155 49zM414 360
q-18 -79 -141 -79q-70 0 -142 15l6 31q11 60 54 94t107 34q66 0 96.5 -24.5t19.5 -70.5zM435 725l-110 -85l-80 85h-87l132 -144h55l181 144h-91z" />
    <glyph glyph-name="Gcircumflex" unicode="&#x11c;" horiz-adv-x="656" 
d="M626 378h-296l-14 -90h199l-11 -65q-12 -67 -67 -107.5t-143 -40.5q-90 0 -129 43.5t-25 122.5l40 229q14 79 68 122t144 43q75 0 111.5 -27.5t45.5 -84.5l4 -25l92 30l-4 26q-25 171 -234 171q-137 0 -219.5 -64t-103.5 -185l-40 -228q-10 -60 0.5 -109t40.5 -83
t79 -52.5t115 -18.5q134 0 217 61.5t102 170.5zM416 915l-183 -144h91l111 85l79 -85h89l-133 144h-54z" />
    <glyph glyph-name="gcircumflex" unicode="&#x11d;" horiz-adv-x="538" 
d="M305 531q-112 0 -174.5 -47t-79.5 -149l-22 -122q-17 -97 25.5 -153.5t144.5 -56.5q60 0 141 25l-10 -57q-24 -132 -151 -132q-86 0 -111 67l-9 22l-85 -39l11 -27q42 -103 184 -103q211 0 249 209l92 515l-35 17q-63 31 -170 31zM411 429l-57 -322q-81 -22 -133 -22
q-123 0 -104 120l21 117q12 66 51 96.5t109 30.5q54 0 99 -15zM233 582l111 85l79 -85h89l-133 144h-54l-183 -144h91z" />
    <glyph glyph-name="Gbreve" unicode="&#x11e;" horiz-adv-x="656" 
d="M641 554q-25 171 -234 171q-137 0 -219.5 -64t-103.5 -185l-40 -228q-10 -60 0.5 -109t40.5 -83t79 -52.5t115 -18.5q134 0 217 61.5t102 170.5l28 161h-296l-14 -90h199l-11 -65q-12 -67 -67 -107.5t-143 -40.5q-90 0 -129 43.5t-25 122.5l40 229q14 79 68 122t144 43
q75 0 111.5 -27.5t45.5 -84.5l4 -25l92 30zM417 772q119 0 171 105l9 17l-64 24l-7 -15q-31 -66 -98 -66q-68 0 -76 66l-2 15l-70 -24l2 -17q7 -51 42 -78t93 -27z" />
    <glyph glyph-name="gbreve" unicode="&#x11f;" horiz-adv-x="538" 
d="M305 531q-112 0 -174.5 -47t-79.5 -149l-22 -122q-17 -97 25.5 -153.5t144.5 -56.5q60 0 141 25l-10 -57q-24 -132 -151 -132q-86 0 -111 67l-9 22l-85 -39l11 -27q42 -103 184 -103q211 0 249 209l92 515l-35 17q-63 31 -170 31zM221 85q-123 0 -104 120l21 117
q12 66 51 96.5t109 30.5q54 0 99 -15l14 -5l-57 -322q-81 -22 -133 -22zM260 715l-2 15l-70 -24l2 -17q7 -51 42 -78t93 -27q119 0 171 105l9 17l-64 24l-7 -15q-31 -66 -98 -66q-68 0 -76 66z" />
    <glyph glyph-name="Gdotaccent" unicode="&#x120;" horiz-adv-x="656" 
d="M294 75q-90 0 -129 43.5t-25 122.5l40 229q14 79 68 122t144 43q75 0 111.5 -27.5t45.5 -84.5l4 -25l92 30l-4 26q-25 171 -234 171q-137 0 -219.5 -64t-103.5 -185l-40 -228q-10 -60 0.5 -109t40.5 -83t79 -52.5t115 -18.5q134 0 217 61.5t102 170.5l28 161h-296
l-14 -90h199l-11 -65q-12 -67 -67 -107.5t-143 -40.5zM382 838q-3 -20 8 -33.5t31 -13.5q19 0 35 13.5t19 33.5q4 19 -7 32.5t-31 13.5t-35.5 -13.5t-19.5 -32.5z" />
    <glyph glyph-name="gdotaccent" unicode="&#x121;" horiz-adv-x="538" 
d="M475 500q-63 31 -170 31q-112 0 -174.5 -47t-79.5 -149l-22 -122q-17 -97 25.5 -153.5t144.5 -56.5q60 0 141 25l-10 -57q-24 -132 -151 -132q-86 0 -111 67l-9 22l-85 -39l11 -27q42 -103 184 -103q211 0 249 209l92 515zM138 322q12 66 51 96.5t109 30.5q54 0 99 -15
l14 -5l-57 -322q-81 -22 -133 -22q-123 0 -104 120zM290 650q-3 -20 8 -33.5t31 -13.5q19 0 35 13.5t19 33.5q4 19 -7 32.5t-31 13.5t-35.5 -13.5t-19.5 -32.5z" />
    <glyph glyph-name="uni0122" unicode="&#x122;" horiz-adv-x="656" 
d="M294 75q-90 0 -129 43.5t-25 122.5l40 229q14 79 68 122t144 43q75 0 111.5 -27.5t45.5 -84.5l4 -25l92 30l-4 26q-25 171 -234 171q-137 0 -219.5 -64t-103.5 -185l-40 -228q-10 -60 0.5 -109t40.5 -83t79 -52.5t115 -18.5q134 0 217 61.5t102 170.5l28 161h-296
l-14 -90h199l-11 -65q-12 -67 -67 -107.5t-143 -40.5zM245 -67l-69 -186h68l96 186h-95z" />
    <glyph glyph-name="uni0123" unicode="&#x123;" horiz-adv-x="538" 
d="M475 500q-63 31 -170 31q-112 0 -174.5 -47t-79.5 -149l-22 -122q-17 -97 25.5 -153.5t144.5 -56.5q60 0 141 25l-10 -57q-24 -132 -151 -132q-86 0 -111 67l-9 22l-85 -39l11 -27q42 -103 184 -103q211 0 249 209l92 515zM138 322q12 66 51 96.5t109 30.5q54 0 99 -15
l14 -5l-57 -322q-81 -22 -133 -22q-123 0 -104 120zM256 583h89l74 164h-68z" />
    <glyph glyph-name="Hcircumflex" unicode="&#x124;" horiz-adv-x="685" 
d="M243 710h-97l-125 -710h97l55 315h342l-55 -315h97l125 710h-97l-54 -305h-342zM423 905l-183 -144h91l111 85l79 -85h89l-133 144h-54z" />
    <glyph glyph-name="hcircumflex" unicode="&#x125;" horiz-adv-x="552" 
d="M10 0h89l75 426q49 23 131 23q126 0 106 -116l-59 -333h90l57 327q17 97 -23.5 150.5t-143.5 53.5q-94 0 -144 -22l41 231h-90zM193 935l-183 -144h91l111 85l79 -85h89l-133 144h-54z" />
    <glyph glyph-name="Hbar" unicode="&#x126;" horiz-adv-x="694" 
d="M178 315h342l-55 -315h97l95 542h72l8 57h-70l20 111h-97l-20 -111h-342l20 111h-96l-20 -111h-70l-10 -57h70l-95 -542h96zM560 542l-24 -137h-342l24 137h342z" />
    <glyph glyph-name="hbar" unicode="&#x127;" horiz-adv-x="552" 
d="M116 607l-106 -607h89l75 426q49 23 131 23q128 0 105 -119l-58 -330h90l57 327q17 97 -23.5 150.5t-143.5 53.5q-94 0 -144 -22l18 98h163l9 54h-163l14 79h-90l-14 -79h-68l-9 -54h68z" />
    <glyph glyph-name="Itilde" unicode="&#x128;" horiz-adv-x="247" 
d="M118 0l125 710h-97l-125 -710h97zM51 783l-2 -15h55l2 15q8 48 41 48q15 0 29 -10t29 -21.5t32 -21.5t38 -10q42 0 65.5 25t33.5 79l3 16h-55l-3 -15q-7 -48 -40 -48q-15 0 -28.5 10t-28.5 21.5t-32.5 21.5t-40.5 10q-81 0 -98 -105z" />
    <glyph glyph-name="itilde" unicode="&#x129;" horiz-adv-x="213" 
d="M101 516l-91 -516h89l91 516h-89zM84 600l3 16q7 43 39 43q17 0 39 -28q21 -29 47 -29q71 0 89 103l3 15h-54l-2 -16q-8 -44 -33 -44q-15 0 -23.5 9.5t-17 20.5t-20.5 20.5t-33 9.5q-72 0 -90 -104l-3 -16h56z" />
    <glyph glyph-name="Imacron" unicode="&#x12a;" horiz-adv-x="247" 
d="M21 0h97l125 710h-97zM72 794h279l9 65h-279z" />
    <glyph glyph-name="imacron" unicode="&#x12b;" horiz-adv-x="213" 
d="M101 516l-91 -516h89l91 516h-89zM71 678l-13 -63h197l10 63h-194z" />
    <glyph glyph-name="Ibreve" unicode="&#x12c;" horiz-adv-x="247" 
d="M21 0h97l125 710h-97zM140 893l-2 15l-70 -24l2 -17q7 -51 42 -78t93 -27q119 0 171 105l9 17l-64 24l-7 -15q-31 -66 -98 -66q-68 0 -76 66z" />
    <glyph glyph-name="ibreve" unicode="&#x12d;" horiz-adv-x="213" 
d="M190 516h-89l-91 -516h89zM110 714l-1 15l-70 -24l2 -16q5 -51 35.5 -77.5t82.5 -26.5q103 0 151 103l8 18l-64 23l-6 -15q-25 -63 -80 -63q-53 0 -58 63z" />
    <glyph glyph-name="Iogonek" unicode="&#x12e;" horiz-adv-x="247" 
d="M55 -179q-24 0 -27 24q-3 25 18 67.5t67 90.5l7 8l124 699h-96l-125 -708h24q-108 -107 -102 -193q3 -55 72 -55q56 0 99 36l8 6l-13 50l-11 -9q-19 -16 -45 -16z" />
    <glyph glyph-name="iogonek" unicode="&#x12f;" horiz-adv-x="213" 
d="M9 -245q51 0 87 36l6 6l-10 51l-12 -12q-15 -16 -33 -16q-30 0 -29 33q5 59 74 149l9 13l88 501h-89l-90 -515h20q-95 -107 -95 -182q1 -64 74 -64zM117 653q-3 -22 10 -37t35 -15q21 0 38.5 15t20.5 37t-10 37t-35 15t-39 -15t-20 -37z" />
    <glyph glyph-name="Idotaccent" unicode="&#x130;" horiz-adv-x="247" 
d="M21 0h97l125 710h-97zM169 828q-3 -20 8 -33.5t31 -13.5q19 0 35 13.5t19 33.5q4 19 -7 32.5t-31 13.5t-35.5 -13.5t-19.5 -32.5z" />
    <glyph glyph-name="dotlessi" unicode="&#x131;" horiz-adv-x="213" 
d="M101 516l-91 -516h89l91 516h-89z" />
    <glyph glyph-name="IJ" unicode="&#x132;" horiz-adv-x="822" 
d="M244 163q16 -178 212 -178q240 0 282 231l87 494h-96l-86 -483q-13 -73 -58 -112.5t-120 -39.5q-119 0 -128 119l-2 27l-93 -32zM21 0h97l125 710h-97z" />
    <glyph glyph-name="ij" unicode="&#x133;" horiz-adv-x="456" 
d="M74 -147l-14 -83h24q217 0 256 222l92 524h-89l-92 -522q-12 -70 -47 -105.5t-105 -35.5h-25zM101 516l-91 -516h89l91 516h-89zM117 653q-2 -21 11 -36.5t35 -15.5q21 0 38.5 15.5t19.5 36.5q3 22 -10 37t-35 15t-39 -15t-20 -37zM360 653q-2 -21 11 -36.5t35 -15.5
q21 0 38.5 15.5t19.5 36.5q3 22 -10 37t-35 15t-39 -15t-20 -37z" />
    <glyph glyph-name="Jcircumflex" unicode="&#x134;" horiz-adv-x="571" 
d="M83 221l-94 -32l3 -26q16 -178 212 -178q240 0 282 231l87 494h-96l-86 -483q-13 -73 -58 -112.5t-120 -39.5q-119 0 -128 119zM442 761l111 85l79 -85h89l-133 144h-54l-183 -144h91z" />
    <glyph glyph-name="jcircumflex" unicode="&#x135;" horiz-adv-x="213" 
d="M-144 -147h-25l-14 -83h24q217 0 256 222l92 524h-89l-92 -522q-12 -70 -47 -105.5t-105 -35.5zM-13 580h90l95 83l62 -83h85l-112 140h-58z" />
    <glyph glyph-name="uni0136" unicode="&#x136;" horiz-adv-x="617" 
d="M244 710h-97l-126 -710h96l57 316h80q27 0 46 -4t32.5 -13t22.5 -24t16 -38l78 -237h110l-93 275q-29 84 -97 107l310 328h-118l-283 -306h-89zM223 -67l-69 -186h68l97 186h-96z" />
    <glyph glyph-name="uni0137" unicode="&#x137;" horiz-adv-x="513" 
d="M139 740l-129 -740h89l39 226h86q32 0 50 -11t26 -37q1 -1 9 -28.5t18 -61.5q11 -39 26 -88h98l-67 206q-21 64 -65 81l222 229h-108l-200 -211h-80l76 435h-90zM115 -229h69l84 177h-89z" />
    <glyph glyph-name="kgreenlandic" unicode="&#x138;" horiz-adv-x="505" 
d="M133 516l-144 -516h90l41 146l89 76l99 -222h106l-129 287l269 229h-109l-292 -250l70 250h-90z" />
    <glyph glyph-name="Lacute" unicode="&#x139;" horiz-adv-x="519" 
d="M29 6q4 -6 19 -6h385q27 0 31 26l7 38q2 14 -2.5 20t-19.5 6h-315l105 594q3 14 -2 20t-20 6h-44q-26 0 -31 -26l-116 -658q-2 -14 3 -20zM113 753l235 103l-39 62l-219 -121z" />
    <glyph glyph-name="lacute" unicode="&#x13a;" horiz-adv-x="220" 
d="M106 24l121 692q3 13 -1 18.5t-18 5.5h-41q-25 0 -29 -24l-122 -692q-2 -14 2 -19t18 -5h41q24 0 29 24zM87 816l26 -47l207 85l-40 66z" />
    <glyph glyph-name="uni013B" unicode="&#x13b;" horiz-adv-x="519" 
d="M29 6q4 -6 19 -6h385q27 0 31 26l7 38q2 14 -2.5 20t-19.5 6h-315l105 594q3 14 -2 20t-20 6h-44q-26 0 -31 -26l-116 -658q-2 -14 3 -20zM186 -253l97 186h-96l-69 -186h68z" />
    <glyph glyph-name="uni013C" unicode="&#x13c;" horiz-adv-x="220" 
d="M17 6q4 -6 18 -6h42q24 0 28 24l122 692q2 14 -2 19t-17 5h-42q-24 0 -29 -24l-121 -692q-3 -13 1 -18zM-54 -233h66l89 188h-88z" />
    <glyph glyph-name="Lcaron" unicode="&#x13d;" horiz-adv-x="520" 
d="M29 6q4 -6 19 -6h385q27 0 31 26l7 38q2 14 -2.5 20t-19.5 6h-315l105 594q3 14 -2 20t-20 6h-44q-26 0 -31 -26l-116 -658q-2 -14 3 -20zM349 484h61l105 226h-89z" />
    <glyph glyph-name="lcaron" unicode="&#x13e;" horiz-adv-x="227" 
d="M167 740q-25 0 -29 -24l-122 -692q-2 -14 2 -19t18 -5h41q24 0 29 24l121 692q3 13 -1 18.5t-18 5.5h-41zM255 537h59l91 203h-84z" />
    <glyph glyph-name="Ldot" unicode="&#x13f;" horiz-adv-x="520" 
d="M29 6q4 -6 19 -6h385q27 0 31 26l7 38q2 14 -2.5 20t-19.5 6h-315l105 594q3 14 -2 20t-20 6h-44q-26 0 -31 -26l-116 -658q-2 -14 3 -20zM295 372q-4 -23 9.5 -39t36.5 -16t41.5 16t21.5 39t-10 38.5t-36 15.5t-41 -15.5t-22 -38.5z" />
    <glyph glyph-name="ldot" unicode="&#x140;" horiz-adv-x="342" 
d="M167 740q-25 0 -29 -24l-122 -692q-2 -14 2 -19t18 -5h41q24 0 29 24l121 692q3 13 -1 18.5t-18 5.5h-41zM239 376q-4 -23 9.5 -39t36.5 -16t41.5 16t21.5 39t-10 38.5t-36 15.5t-41 -15.5t-22 -38.5z" />
    <glyph glyph-name="Lslash" unicode="&#x141;" horiz-adv-x="543" 
d="M498 90h-341l40 228l240 103l-20 64l-206 -91l55 316h-96l-64 -362l-125 -55l21 -59l91 39l-48 -273h438z" />
    <glyph glyph-name="lslash" unicode="&#x142;" horiz-adv-x="305" 
d="M2 328l25 -57l79 41l-54 -311h89l63 361l121 62l-24 57l-83 -43l53 303h-90l-62 -353z" />
    <glyph glyph-name="Nacute" unicode="&#x143;" horiz-adv-x="694" 
d="M21 0h96l93 530l268 -530h88l125 710h-96l-93 -529l-270 529h-86zM532 918l-219 -121l24 -44l234 103z" />
    <glyph glyph-name="nacute" unicode="&#x144;" horiz-adv-x="549" 
d="M97 0l75 427l12 4q60 18 119 18q126 0 105 -119l-58 -330h89l58 326q16 97 -24.5 151t-143.5 54q-107 0 -197 -34l-41 -15l-84 -482h90zM204 621l24 -44l234 103l-39 62z" />
    <glyph glyph-name="uni0145" unicode="&#x145;" horiz-adv-x="694" 
d="M210 530l268 -530h88l125 710h-96l-93 -529l-270 529h-86l-125 -710h96zM253 -67l-69 -186h68l97 186h-96z" />
    <glyph glyph-name="uni0146" unicode="&#x146;" horiz-adv-x="549" 
d="M97 0l75 427l12 4q60 18 119 18q126 0 105 -119l-58 -330h89l58 326q16 97 -24.5 151t-143.5 54q-107 0 -197 -34l-41 -15l-84 -482h90zM132 -218h68l86 179h-88z" />
    <glyph glyph-name="Ncaron" unicode="&#x147;" horiz-adv-x="694" 
d="M510 129h-5q-2 3 -20 61.5t-38 98.5l-208 408q-8 13 -26 13h-40q-26 0 -31 -26l-116 -658q-2 -14 2.5 -20t19.5 -6h43q26 0 31 26l65 370q8 49 12 115.5t5 70.5h4q2 -4 19.5 -61t34.5 -93l210 -415q6 -13 24 -13h44q26 0 31 26l116 658q2 14 -3 20t-19 6h-43
q-26 0 -31 -26l-64 -362q-9 -53 -12.5 -121t-4.5 -72zM268 904l132 -144h55l181 144h-91l-110 -85l-80 85h-87z" />
    <glyph glyph-name="ncaron" unicode="&#x148;" horiz-adv-x="549" 
d="M97 0l75 427l12 4q60 18 119 18q126 0 105 -119l-58 -330h89l58 326q16 97 -24.5 151t-143.5 54q-107 0 -197 -34l-41 -15l-84 -482h90zM157 725l132 -144h55l181 144h-91l-110 -85l-80 85h-87z" />
    <glyph glyph-name="napostrophe" unicode="&#x149;" horiz-adv-x="549" 
d="M132 497l-41 -15l-84 -482h90l75 427l12 4q60 18 119 18q126 0 105 -119l-58 -330h89l58 326q16 97 -24.5 151t-143.5 54q-107 0 -197 -34zM126 740l-104 -201h64l133 201h-93z" />
    <glyph glyph-name="Eng" unicode="&#x14a;" horiz-adv-x="695" 
d="M147 710l-126 -710h96l94 530l263 -521l-2 -16q-24 -140 -160 -140h-25l-14 -83h24q114 0 182 57t86 163l127 720h-95l-94 -531l-271 531h-85z" />
    <glyph glyph-name="eng" unicode="&#x14b;" horiz-adv-x="549" 
d="M97 0l75 427l12 4q60 18 119 18q126 0 105 -119l-61 -343q-24 -137 -157 -137h-24l-12 -80h22q109 0 176 55.5t84 158.5l61 342q16 97 -24.5 151t-143.5 54q-107 0 -197 -34l-41 -15l-84 -482h90z" />
    <glyph glyph-name="Omacron" unicode="&#x14c;" horiz-adv-x="667" 
d="M45 247q-21 -120 41 -191t196 -71q135 0 217 64.5t103 183.5l40 228q21 121 -40.5 192.5t-195.5 71.5q-135 0 -217.5 -65t-103.5 -185zM167 118q-40 43 -26 123l40 228q14 80 69 123t144 43q88 0 128 -43t26 -123l-41 -228q-14 -80 -69 -123t-143 -43t-128 43zM283 804
h279l13 65h-279z" />
    <glyph glyph-name="omacron" unicode="&#x14d;" horiz-adv-x="541" 
d="M24 179q-15 -90 36.5 -142t156.5 -52q108 0 174 48.5t82 138.5l28 163q16 90 -34.5 143t-157.5 53q-105 0 -172.5 -50t-83.5 -139zM135 95q-31 29 -21 81l28 164q10 52 51 81t104 29q64 0 94.5 -29t21.5 -81l-29 -164q-10 -52 -50.5 -81t-104.5 -29q-63 0 -94 29z
M186 617h279l13 65h-279z" />
    <glyph glyph-name="Obreve" unicode="&#x14e;" horiz-adv-x="667" 
d="M499 50q82 64 103 183l40 228q21 121 -40.5 192.5t-195.5 71.5q-135 0 -217.5 -65t-103.5 -185l-40 -228q-21 -120 41 -191t196 -71q135 0 217 65zM548 469l-41 -228q-14 -80 -69 -123t-143 -43t-128 43t-26 123l40 228q14 80 69 123t144 43q88 0 128 -43t26 -123z
M420 772q119 0 171 105l9 17l-64 24l-7 -15q-31 -66 -98 -66q-68 0 -76 66l-1 15l-71 -24l2 -17q8 -51 42.5 -78t92.5 -27z" />
    <glyph glyph-name="obreve" unicode="&#x14f;" horiz-adv-x="541" 
d="M391 34q66 48 82 138l28 163q16 90 -34.5 143t-157.5 53q-105 0 -172.5 -50t-83.5 -139l-29 -163q-15 -90 36.5 -142t156.5 -52q108 0 174 49zM413 340l-29 -164q-10 -52 -50.5 -81t-104.5 -29q-63 0 -94 29t-21 81l28 164q10 52 51 81t104 29q64 0 94.5 -29t21.5 -81z
M320 584q119 0 171 105l9 17l-64 24l-7 -15q-31 -66 -98 -66q-68 0 -76 66l-2 15l-70 -24l2 -17q7 -51 42 -78t93 -27z" />
    <glyph glyph-name="Ohungarumlaut" unicode="&#x150;" horiz-adv-x="667" 
d="M602 654q-62 71 -196 71q-135 0 -217.5 -65t-103.5 -185l-40 -228q-21 -120 41 -191t196 -71q135 0 217 64.5t103 183.5l40 228q21 121 -40 193zM507 241q-14 -80 -69 -123t-143 -43t-128 43t-26 123l40 228q14 80 69 123t144 43q88 0 128 -43t26 -123zM431 783l45 -18
l173 136l-75 24zM474 901l-71 25l-137 -140l45 -18z" />
    <glyph glyph-name="ohungarumlaut" unicode="&#x151;" horiz-adv-x="541" 
d="M467 478q-51 53 -158 53q-105 0 -172.5 -50t-83.5 -139l-29 -163q-15 -90 36.5 -142t156.5 -52q108 0 174 48.5t82 138.5l28 163q16 90 -34 143zM384 176q-10 -52 -50.5 -81t-104.5 -29q-63 0 -94 29t-21 81l28 164q10 52 51 81t104 29q64 0 94.5 -29t21.5 -81zM331 589
l45 -17l173 136l-75 24zM374 708l-71 24l-138 -140l45 -17z" />
    <glyph glyph-name="OE" unicode="&#x152;" horiz-adv-x="850" 
d="M45 251q-10 -60 0 -109.5t40 -84t79 -53.5t115 -19q63 0 114 15h370l17 90h-301l39 224h244l14 90h-242l38 216h288l17 90h-359q-46 15 -109 15q-137 0 -220 -63t-104 -183zM181 469q14 81 69 123.5t143 42.5q51 0 83 -13l-94 -534q-33 -13 -87 -13q-90 0 -129.5 42.5
t-25.5 123.5z" />
    <glyph glyph-name="oe" unicode="&#x153;" horiz-adv-x="807" 
d="M739 108l-63 44l-17 -24q-47 -65 -133 -65q-58 0 -81.5 31.5t-13.5 88.5l7 43q35 -7 66 -10.5t58 -3.5q93 0 149.5 37t70.5 109q17 84 -27.5 128.5t-141.5 44.5q-111 0 -173 -89q-26 89 -147 89q-99 0 -160.5 -48t-77.5 -138l-29 -164q-15 -91 30 -143.5t142 -52.5
q109 0 174 77q33 -77 140 -77q140 0 209 98zM144 340q9 52 45 81t91 29t80 -31.5t15 -91.5l-24 -137q-10 -58 -47 -91t-92 -33t-81 29t-16 81zM456 329q11 60 49 93t95 33q115 0 94 -95q-16 -79 -120 -79q-55 0 -123 15z" />
    <glyph glyph-name="Racute" unicode="&#x154;" horiz-adv-x="646" 
d="M281 285q26 0 44 -3.5t30.5 -11.5t21 -21.5t15.5 -34.5l3 -9.5t7.5 -25t11 -34.5t12.5 -39q14 -47 33 -106h113l-83 245q-14 38 -39 53q154 34 181 192q19 102 -28.5 161t-149.5 59h-306l-126 -710h97l51 285h112zM429 620q60 0 86.5 -31.5t15.5 -91.5q-11 -58 -48 -90
t-97 -32h-202l44 245h201zM506 918l-219 -121l24 -44l234 103z" />
    <glyph glyph-name="racute" unicode="&#x155;" horiz-adv-x="346" 
d="M8 0h89l72 412q3 14 17 20q60 17 120 17h58l14 82h-56q-110 -2 -188 -31q-25 -10 -34.5 -21t-14.5 -35zM359 741l-219 -121l23 -44l235 103z" />
    <glyph glyph-name="uni0156" unicode="&#x156;" horiz-adv-x="646" 
d="M281 285q26 0 44 -3.5t30.5 -11.5t21 -21.5t15.5 -34.5l3 -9.5t7.5 -25t11 -34.5t12.5 -39q14 -47 33 -106h113l-83 245q-14 38 -39 53q154 34 181 192q19 102 -28.5 161t-149.5 59h-306l-126 -710h97l51 285h112zM429 620q60 0 86.5 -31.5t15.5 -91.5q-11 -58 -48 -90
t-97 -32h-202l44 245h201zM168 -253h68l97 186h-96z" />
    <glyph glyph-name="uni0157" unicode="&#x157;" horiz-adv-x="346" 
d="M134 500q-25 -10 -34.5 -21t-14.5 -35l-77 -444h89l72 412q3 14 17 20q60 17 120 17h58l14 82h-56q-110 -2 -188 -31zM-48 -220h67l86 179h-88z" />
    <glyph glyph-name="Rcaron" unicode="&#x158;" horiz-adv-x="646" 
d="M169 285h112q26 0 44 -3.5t30.5 -11.5t21 -21.5t15.5 -34.5l3 -9.5t7.5 -25t11 -34.5t12.5 -39q14 -47 33 -106h113l-83 245q-14 38 -39 53q154 34 181 192q19 102 -28.5 161t-149.5 59h-306l-126 -710h97zM228 620h201q60 0 86.5 -31.5t15.5 -91.5q-11 -58 -48 -90
t-97 -32h-202zM329 904h-87l132 -144h55l181 144h-91l-110 -85z" />
    <glyph glyph-name="rcaron" unicode="&#x159;" horiz-adv-x="346" 
d="M378 531h-56q-110 -2 -188 -31q-25 -10 -34.5 -21t-14.5 -35l-77 -444h89l72 412q3 14 17 20q60 17 120 17h58zM281 584q8 3 25 17l131 103q20 20 -8 20h-37q-26 0 -41 -14l-91 -71l-68 71q-6 9 -12.5 11.5t-21.5 2.5h-32q-14 0 -17.5 -6t3.5 -14l94 -103q12 -15 19 -18
t25 -3h9q14 0 22 4z" />
    <glyph glyph-name="Sacute" unicode="&#x15a;" horiz-adv-x="623" 
d="M527 509l93 40l-7 21q-24 75 -77.5 115t-152.5 40q-129 0 -204 -50.5t-92 -144.5q-7 -37 -3 -66.5t16 -52t31.5 -38.5t43.5 -27q35 -16 66 -23t73 -11q45 -5 78 -13t58 -26q13 -12 20 -31t2 -44q-21 -122 -202 -122q-132 0 -161 113l-6 24l-96 -32l5 -25
q36 -171 249 -171q273 0 307 201q20 117 -53 166q-35 23 -72.5 34.5t-88.5 17.5q-43 5 -71 11t-55 19q-55 24 -45 88q18 110 186 110q66 0 100.5 -25.5t50.5 -74.5zM502 926l-219 -121l24 -44l234 103z" />
    <glyph glyph-name="sacute" unicode="&#x15b;" horiz-adv-x="497" 
d="M56 381q-8 -48 4 -77.5t37 -47t60 -25t72 -11.5q35 -3 59.5 -8t39 -14t20 -22.5t1.5 -34.5q-13 -76 -139 -76q-51 0 -81 16t-41 56l-6 22l-86 -27l5 -24q27 -123 199 -123q103 0 162.5 40t73.5 113q8 44 -2.5 73t-34.5 47t-59 27.5t-75 13.5q-38 5 -64 8.5t-43 16.5
q-20 18 -14 54q14 72 127 72q97 0 118 -64l7 -21l83 33l-8 25q-31 108 -188 108q-100 0 -157 -39t-70 -111zM184 620l23 -44l235 103l-39 62z" />
    <glyph glyph-name="Scircumflex" unicode="&#x15c;" horiz-adv-x="623" 
d="M369 632q66 0 100.5 -25.5t50.5 -74.5l7 -23l93 40l-7 21q-24 75 -77.5 115t-152.5 40q-129 0 -204 -50.5t-92 -144.5q-7 -37 -3 -66.5t16 -52t31.5 -38.5t43.5 -27q35 -16 66 -23t73 -11q45 -5 78 -13t58 -26q13 -12 20 -31t2 -44q-21 -122 -202 -122q-132 0 -161 113
l-6 24l-96 -32l5 -25q36 -171 249 -171q273 0 307 201q20 117 -53 166q-35 23 -72.5 34.5t-88.5 17.5q-43 5 -71 11t-55 19q-55 24 -45 88q18 110 186 110zM416 855l79 -85h89l-133 144h-54l-183 -144h91z" />
    <glyph glyph-name="scircumflex" unicode="&#x15d;" horiz-adv-x="497" 
d="M479 398l-8 25q-31 108 -188 108q-100 0 -157 -39t-70 -111q-8 -48 4 -77.5t37 -47t60 -25t72 -11.5q35 -3 59.5 -8t39 -14t20 -22.5t1.5 -34.5q-13 -76 -139 -76q-51 0 -81 16t-41 56l-6 22l-86 -27l5 -24q27 -123 199 -123q103 0 162.5 40t73.5 113q8 44 -2.5 73
t-34.5 47t-59 27.5t-75 13.5q-38 5 -64 8.5t-43 16.5q-20 18 -14 54q14 72 127 72q97 0 118 -64l7 -21zM397 582h89l-133 144h-54l-183 -144h91l111 85z" />
    <glyph glyph-name="Scedilla" unicode="&#x15e;" horiz-adv-x="623" 
d="M243 -111q54 0 48 -37q-8 -47 -71 -47q-35 0 -64 21l-11 8l-9 -56l12 -9q26 -19 74 -19q52 0 91.5 23t50.5 69q9 38 -9.5 62t-63.5 24q-4 0 -8.5 -0.5t-10.5 -1.5l33 60q232 17 263 200q20 117 -53 166q-35 23 -72.5 34.5t-88.5 17.5q-43 5 -71 11t-55 19q-55 24 -45 88
q18 110 186 110q66 0 100.5 -25.5t50.5 -74.5l7 -23l93 40l-7 21q-24 75 -77.5 115t-152.5 40q-129 0 -204 -50.5t-92 -144.5q-7 -37 -3 -66.5t16 -52t31.5 -38.5t43.5 -27q35 -16 66 -23t73 -11q45 -5 78 -13t58 -26q13 -12 20 -31t2 -44q-21 -122 -202 -122
q-132 0 -161 113l-6 24l-96 -32l5 -25q34 -166 238 -171l-60 -104l23 5q14 3 30 3z" />
    <glyph glyph-name="scedilla" unicode="&#x15f;" horiz-adv-x="497" 
d="M226 -71q-4 0 -8.5 -0.5t-10.5 -1.5l32 60q86 7 135.5 46t61.5 105q8 44 -2.5 73t-34.5 47t-59 27.5t-75 13.5q-38 5 -64 8.5t-43 16.5q-20 18 -14 54q14 72 127 72q97 0 118 -64l7 -21l83 33l-8 25q-31 108 -188 108q-100 0 -157 -39t-70 -111q-8 -48 4 -77.5t37 -47
t60 -25t72 -11.5q35 -3 59.5 -8t39 -14t20 -22.5t1.5 -34.5q-13 -76 -139 -76q-51 0 -81 16t-41 56l-6 22l-86 -27l5 -24q26 -117 183 -123l-59 -103l23 5q14 3 30 3q54 0 48 -37q-8 -47 -71 -47q-35 0 -64 21l-11 8l-9 -56l12 -9q26 -19 74 -19q52 0 91.5 23t50.5 69
q9 38 -9.5 62t-63.5 24z" />
    <glyph glyph-name="Scaron" unicode="&#x160;" horiz-adv-x="623" 
d="M369 632q66 0 100.5 -25.5t50.5 -74.5l7 -23l93 40l-7 21q-24 75 -77.5 115t-152.5 40q-129 0 -204 -50.5t-92 -144.5q-7 -37 -3 -66.5t16 -52t31.5 -38.5t43.5 -27q35 -16 66 -23t73 -11q45 -5 78 -13t58 -26q13 -12 20 -31t2 -44q-21 -122 -202 -122q-132 0 -161 113
l-6 24l-96 -32l5 -25q36 -171 249 -171q273 0 307 201q20 117 -53 166q-35 23 -72.5 34.5t-88.5 17.5q-43 5 -71 11t-55 19q-55 24 -45 88q18 110 186 110zM425 770l181 144h-91l-110 -85l-80 85h-87l132 -144h55z" />
    <glyph glyph-name="scaron" unicode="&#x161;" horiz-adv-x="497" 
d="M479 398l-8 25q-31 108 -188 108q-100 0 -157 -39t-70 -111q-8 -48 4 -77.5t37 -47t60 -25t72 -11.5q35 -3 59.5 -8t39 -14t20 -22.5t1.5 -34.5q-13 -76 -139 -76q-51 0 -81 16t-41 56l-6 22l-86 -27l5 -24q27 -123 199 -123q103 0 162.5 40t73.5 113q8 44 -2.5 73
t-34.5 47t-59 27.5t-75 13.5q-38 5 -64 8.5t-43 16.5q-20 18 -14 54q14 72 127 72q97 0 118 -64l7 -21zM506 725h-91l-110 -85l-80 85h-87l132 -144h55z" />
    <glyph glyph-name="Tcaron" unicode="&#x164;" horiz-adv-x="551" 
d="M610 710h-526l-17 -90h216l-110 -620h96l110 620h214zM196 904l132 -144h55l181 144h-91l-110 -85l-80 85h-87z" />
    <glyph glyph-name="tcaron" unicode="&#x165;" horiz-adv-x="367" 
d="M28 433h107l-42 -235q-10 -57 -7 -97t20.5 -65t51 -37t84.5 -13h57l14 84h-24q-37 0 -61 5.5t-36.5 19.5t-14 39.5t5.5 65.5l41 233h154l14 83h-154l21 120h-89l-21 -120h-107zM318 560h60l88 180h-90z" />
    <glyph glyph-name="Tbar" unicode="&#x166;" horiz-adv-x="572" 
d="M101 363l-12 -70h146l-52 -293h98l51 293h147l12 70h-147l45 257h215l17 90h-527l-17 -90h216l-45 -257h-147z" />
    <glyph glyph-name="tbar" unicode="&#x167;" horiz-adv-x="370" 
d="M16 234h86l-6 -36q-10 -59 -7 -99.5t22.5 -65t56 -35.5t92.5 -11h17l24 1l16 83h-26q-37 0 -61 5t-36.5 19.5t-14 39.5t5.5 64l6 35h122l8 63h-119l25 137h154l14 83h-154l21 120h-90l-20 -120h-106l-17 -83h108l-24 -137h-89z" />
    <glyph glyph-name="Utilde" unicode="&#x168;" horiz-adv-x="685" 
d="M303 75q-88 0 -125 44t-23 123l83 468h-96l-82 -458q-11 -60 -1.5 -109t39 -84.5t77.5 -54.5t114 -19q136 0 215 64t100 184l85 477h-97l-83 -468q-14 -79 -66 -123t-140 -44zM271 783l-2 -15h55l2 15q8 48 41 48q15 0 29 -10t29 -21.5t32 -21.5t38 -10q42 0 65.5 25
t33.5 79l3 16h-55l-3 -15q-7 -48 -40 -48q-15 0 -28.5 10t-28.5 21.5t-32.5 21.5t-40.5 10q-81 0 -98 -105z" />
    <glyph glyph-name="utilde" unicode="&#x169;" horiz-adv-x="550" 
d="M38 190q-16 -97 24.5 -151t143.5 -54q101 0 196 34l42 14l84 483h-90l-74 -427l-16 -5q-59 -17 -116 -17q-126 0 -105 119l58 330h-89zM169 593h55l2 15q8 48 41 48q15 0 29 -10t29 -21.5t32 -21.5t38 -10q42 0 65.5 25t33.5 79l3 16h-55l-3 -15q-7 -48 -40 -48
q-15 0 -28.5 10t-28.5 21.5t-32.5 21.5t-40.5 10q-81 0 -98 -105z" />
    <glyph glyph-name="Umacron" unicode="&#x16a;" horiz-adv-x="685" 
d="M60 252q-11 -60 -1.5 -109t39 -84.5t77.5 -54.5t114 -19q136 0 215 64t100 184l85 477h-97l-83 -468q-14 -79 -66 -123t-140 -44t-125 44t-23 123l83 468h-96zM303 859l-13 -65h279l13 65h-279z" />
    <glyph glyph-name="umacron" unicode="&#x16b;" horiz-adv-x="550" 
d="M232 67q-126 0 -105 119l58 330h-89l-58 -326q-16 -97 24.5 -151t143.5 -54q101 0 196 34l42 14l84 483h-90l-74 -427l-16 -5q-59 -17 -116 -17zM190 617h279l13 65h-279z" />
    <glyph glyph-name="Ubreve" unicode="&#x16c;" horiz-adv-x="685" 
d="M60 252q-11 -60 -1.5 -109t39 -84.5t77.5 -54.5t114 -19q136 0 215 64t100 184l85 477h-97l-83 -468q-14 -79 -66 -123t-140 -44t-125 44t-23 123l83 468h-96zM288 884l2 -17q7 -51 42 -78t93 -27q119 0 171 105l9 17l-64 24l-7 -15q-31 -66 -98 -66q-68 0 -76 66l-2 15z
" />
    <glyph glyph-name="ubreve" unicode="&#x16d;" horiz-adv-x="550" 
d="M185 516h-89l-58 -326q-16 -97 24.5 -151t143.5 -54q101 0 196 34l42 14l84 483h-90l-74 -427l-16 -5q-59 -17 -116 -17q-126 0 -105 119zM187 706l2 -17q7 -51 42 -78t93 -27q119 0 171 105l9 17l-64 24l-7 -15q-31 -66 -98 -66q-68 0 -76 66l-2 15z" />
    <glyph glyph-name="Uring" unicode="&#x16e;" horiz-adv-x="685" 
d="M689 710h-97l-83 -468q-14 -79 -66 -123t-140 -44t-125 44t-23 123l83 468h-96l-82 -458q-11 -60 -1.5 -109t39 -84.5t77.5 -54.5t114 -19q136 0 215 64t100 184zM339 844q-8 -45 16 -73t71 -28q46 0 79.5 28t41.5 73q8 46 -15.5 74t-69.5 28q-47 0 -81.5 -28t-41.5 -74z
M394 803q-14 15 -9 41t23.5 41.5t46.5 15.5q26 0 38 -15.5t8 -41.5q-4 -25 -22 -40.5t-44 -15.5q-28 0 -41 15z" />
    <glyph glyph-name="uring" unicode="&#x16f;" horiz-adv-x="550" 
d="M364 89l-16 -5q-59 -17 -116 -17q-126 0 -105 119l58 330h-89l-58 -326q-16 -97 24.5 -151t143.5 -54q101 0 196 34l42 14l84 483h-90zM427 722q-24 28 -70 28q-47 0 -81.5 -28t-41.5 -74q-8 -45 16.5 -73.5t71.5 -28.5q46 0 79.5 28t40.5 73q8 46 -15 75zM374 607
q-19 -16 -45 -16q-27 0 -40.5 15.5t-8.5 40.5q4 27 23.5 42t46.5 15q26 0 38.5 -15.5t7.5 -41.5q-4 -25 -22 -40z" />
    <glyph glyph-name="Uhungarumlaut" unicode="&#x170;" horiz-adv-x="685" 
d="M303 75q-88 0 -125 44t-23 123l83 468h-96l-82 -458q-11 -60 -1.5 -109t39 -84.5t77.5 -54.5t114 -19q136 0 215 64t100 184l85 477h-97l-83 -468q-14 -79 -66 -123t-140 -44zM436 772l45 -17l173 136l-75 24zM408 915l-137 -140l45 -17l163 133z" />
    <glyph glyph-name="uhungarumlaut" unicode="&#x171;" horiz-adv-x="550" 
d="M38 190q-16 -97 24.5 -151t143.5 -54q101 0 196 34l42 14l84 483h-90l-74 -427l-16 -5q-59 -17 -116 -17q-126 0 -105 119l58 330h-89zM336 588l45 -17l173 136l-75 24zM170 591l45 -17l164 133l-71 24z" />
    <glyph glyph-name="Uogonek" unicode="&#x172;" horiz-adv-x="685" 
d="M60 252q-11 -60 -1.5 -109t39 -84.5t77.5 -54.5t114 -19q45 0 82 9q-57 -45 -84.5 -92.5t-24.5 -84.5q2 -31 22 -47t51 -16q33 0 57 8.5t49 28.5l-14 56l-11 -9q-21 -18 -43 -18q-23 0 -28 26q-2 14 6 35.5t25.5 47t44 53t61.5 52.5q100 71 122 199l85 477h-97l-83 -468
q-14 -79 -66 -123t-140 -44t-125 44t-23 123l83 468h-96z" />
    <glyph glyph-name="uogonek" unicode="&#x173;" horiz-adv-x="550" 
d="M185 516h-89l-58 -325q-17 -97 24 -151.5t144 -54.5q72 0 134 17q-27 -24 -49 -50t-36.5 -51.5t-22 -49t-6.5 -42.5q4 -55 73 -55q56 0 98 36l8 7l-13 49l-11 -9q-19 -16 -43 -16q-25 0 -28 24q-3 25 30 81q33 55 90 108l17 15l81 467h-90l-74 -427l-16 -5
q-59 -17 -116 -17q-126 0 -105 119z" />
    <glyph glyph-name="Wcircumflex" unicode="&#x174;" horiz-adv-x="887" 
d="M86 710l59 -710h98l244 543l51 -543h100l307 710h-103l-225 -544l-52 536h-96l-242 -532l-36 540h-105zM528 905l-183 -144h91l111 85l79 -85h89l-133 144h-54z" />
    <glyph glyph-name="wcircumflex" unicode="&#x175;" horiz-adv-x="730" 
d="M143 516h-92l64 -518h79l185 387l49 -387h83l244 518h-94l-169 -374l-51 367h-79l-181 -364zM416 726l-183 -144h91l111 85l79 -85h89l-133 144h-54z" />
    <glyph glyph-name="Ycircumflex" unicode="&#x176;" horiz-adv-x="631" 
d="M264 286l-49 -286h95l51 284l345 426h-118l-257 -326l-143 326h-119zM399 905l-183 -144h91l111 85l79 -85h89l-133 144h-54z" />
    <glyph glyph-name="ycircumflex" unicode="&#x177;" horiz-adv-x="552" 
d="M527 516h-89l-72 -409q-70 -21 -131 -21q-66 0 -91 29.5t-14 89.5l54 311h-89l-53 -307q-17 -97 23.5 -151t142.5 -54q62 0 144 21l-10 -54q-24 -132 -151 -132q-87 0 -112 67l-9 22l-85 -39l11 -27q40 -103 183 -103q216 0 253 216zM323 726l-183 -144h91l111 85l79 -85
h89l-133 144h-54z" />
    <glyph glyph-name="Ydieresis" unicode="&#x178;" horiz-adv-x="631" 
d="M188 710h-119l195 -424l-49 -286h95l51 284l345 426h-118l-257 -326zM268 830q-3 -20 7.5 -33t30.5 -13q19 0 34.5 13t18.5 33q3 19 -7.5 32t-29.5 13q-20 0 -35.5 -13t-18.5 -32zM502 784q19 0 34.5 13t19.5 33q3 19 -8 32t-30 13t-34.5 -13t-18.5 -32q-4 -20 7 -33
t30 -13z" />
    <glyph glyph-name="Zacute" unicode="&#x179;" horiz-adv-x="571" 
d="M113 90l480 542l12 78h-497l-17 -90h379l-478 -541l-13 -79h511l14 90h-391zM280 753l235 103l-39 62l-219 -121z" />
    <glyph glyph-name="zacute" unicode="&#x17a;" horiz-adv-x="458" 
d="M103 81l349 363l11 72h-393l-13 -81h277l-347 -366l-11 -69h402l13 81h-288zM187 576l235 103l-39 62l-219 -121z" />
    <glyph glyph-name="Zdotaccent" unicode="&#x17b;" horiz-adv-x="571" 
d="M504 90h-391l480 542l12 78h-497l-17 -90h379l-478 -541l-13 -79h511zM376 781q19 0 35 13.5t19 33.5q4 19 -7 32.5t-31 13.5t-35.5 -13.5t-19.5 -32.5q-3 -20 8 -33.5t31 -13.5z" />
    <glyph glyph-name="zdotaccent" unicode="&#x17c;" horiz-adv-x="458" 
d="M391 81h-288l349 363l11 72h-393l-13 -81h277l-347 -366l-11 -69h402zM284 603q19 0 35 13.5t19 33.5q4 19 -7 32.5t-31 13.5t-35.5 -13.5t-19.5 -32.5q-3 -20 8 -33.5t31 -13.5z" />
    <glyph glyph-name="Zcaron" unicode="&#x17d;" horiz-adv-x="571" 
d="M-8 79l-13 -79h511l14 90h-391l480 542l12 78h-497l-17 -90h379zM379 819l-80 85h-87l132 -144h55l181 144h-91z" />
    <glyph glyph-name="zcaron" unicode="&#x17e;" horiz-adv-x="458" 
d="M-24 0h402l13 81h-288l349 363l11 72h-393l-13 -81h277l-347 -366zM285 639l-80 85h-87l132 -144h55l181 144h-91z" />
    <glyph glyph-name="longs" unicode="&#x17f;" horiz-adv-x="273" 
d="M46 516l-14 -83h93l-76 -433h89l93 528q12 70 45.5 99.5t105.5 29.5h27l11 83h-22q-115 0 -175.5 -49.5t-79.5 -155.5l-4 -19h-93z" />
    <glyph glyph-name="florin" unicode="&#x192;" horiz-adv-x="432" 
d="M-71 -220h24q108 0 165 54t77 157l63 325h154l7 83h-145l25 127q12 66 44.5 98.5t99.5 32.5h24l7 83h-24q-108 0 -164.5 -53.5t-76.5 -156.5l-25 -131h-148l-7 -83h139l-63 -322q-12 -64 -45 -97.5t-99 -33.5h-25z" />
    <glyph glyph-name="Aringacute" unicode="&#x1fa;" 
d="M53 0l107 189h292l39 -189h103l-147 670q56 23 65 75q8 48 -17.5 75.5t-73.5 27.5t-83 -26.5t-43 -71.5q-5 -25 5.5 -47t31.5 -33l-385 -670h106zM439 269h-238l175 317zM394 697q-25 0 -38.5 14.5t-9.5 36.5q2 26 23.5 39.5t43.5 13.5q11 0 21 -3.5t17 -10t9.5 -16.5
t-1.5 -23q-4 -22 -22.5 -36.5t-42.5 -14.5zM316 885l27 -32l214 73l-36 47z" />
    <glyph glyph-name="aringacute" unicode="&#x1fb;" horiz-adv-x="535" 
d="M474 500q-63 31 -170 31q-114 0 -174.5 -45.5t-78.5 -147.5l-25 -140q-17 -96 26 -154.5t144 -58.5q108 0 204 28l27 7l82 463zM297 449q52 0 98 -15l15 -5l-61 -343q-61 -19 -132 -19q-61 0 -87 32t-16 92l24 135q12 66 49.5 94.5t109.5 28.5zM323 570q46 0 79.5 27.5
t41.5 72.5q8 46 -15.5 74.5t-69.5 28.5q-47 0 -81.5 -27.5t-42.5 -73.5t17 -74q24 -28 71 -28zM305 713q19 15 46 15q26 0 38.5 -16t8.5 -41q-5 -26 -23.5 -41.5t-43.5 -15.5q-27 0 -40.5 15.5t-9.5 41.5q5 26 24 42zM458 862l-36 46l-206 -90l23 -32z" />
    <glyph glyph-name="AEacute" unicode="&#x1fc;" horiz-adv-x="843" 
d="M535 404l38 216h281l17 90h-380l-560 -710h112l127 163h232l-30 -163h386l14 90h-292l39 224h235l17 90h-236zM415 243h-183l239 312zM578 795q-1 -5 5 -15l9 -15q6 -10 30 -1l190 83q21 8 8 28l-15 24q-12 18 -44 1l-172 -95q-10 -5 -11 -10z" />
    <glyph glyph-name="aeacute" unicode="&#x1fd;" horiz-adv-x="779" 
d="M406 227q68 -15 125 -15q94 0 152 36.5t72 106.5q8 42 0.5 74.5t-30 55t-58.5 34.5t-84 12q-110 0 -172 -84q-13 40 -42.5 62t-90.5 22q-133 0 -205 -102l-16 -23l71 -32l15 19q46 58 119 58q37 0 56 -11t26 -28.5t5 -39.5t-6 -43l-6 -36q-29 4 -53.5 5.5t-44.5 1.5
q-106 0 -162 -36t-70 -114q-14 -81 27 -123t147 -42q107 0 171 52q39 -52 130 -52q141 0 210 99l19 27l-65 42l-16 -23q-46 -67 -134 -67q-117 0 -98 120zM544 281q-59 0 -126 14l6 34q10 60 49 93t97 33t83 -24.5t14 -70.5q-16 -79 -123 -79zM315 101q-8 -5 -19 -12
t-27 -13.5t-36.5 -11t-47.5 -4.5q-55 0 -76 19.5t-13 64.5q15 85 121 85q19 0 45.5 -1.5t61.5 -5.5l-7 -43q-8 -48 -2 -78zM556 722q-12 17 -45 2l-171 -95q-18 -9 -6 -26l8 -15q7 -9 31 -1l189 84q12 4 14 10.5t-5 16.5z" />
    <glyph glyph-name="Oslashacute" unicode="&#x1fe;" horiz-adv-x="668" 
d="M406 725q-136 0 -218 -64.5t-103 -185.5l-40 -228q-20 -112 32 -179l-88 -109h73l58 69q58 -43 162 -43q136 0 217.5 64t102.5 184l40 228q19 106 -27 176l93 115h-74l-60 -76q-61 49 -168 49zM151 158q-19 31 -10 83l40 228q14 81 68.5 123.5t144.5 42.5q78 0 117 -36z
M507 241q-14 -81 -69 -123.5t-143 -42.5q-73 0 -113 31l358 439q16 -30 8 -76zM522 928l-219 -121l24 -44l234 103z" />
    <glyph glyph-name="oslashacute" unicode="&#x1ff;" horiz-adv-x="541" 
d="M309 531q-106 0 -173 -49.5t-83 -139.5l-29 -163q-15 -89 35 -142l-59 -72h57l39 46q50 -26 120 -26q109 0 174.5 48t81.5 139l29 163q15 86 -32 139l63 78h-56l-42 -50q-50 29 -125 29zM124 118q-17 24 -11 58l29 164q10 52 50.5 81t103.5 29q50 0 81 -19zM228 66
q-46 0 -75 17l248 306q16 -21 11 -52l-28 -161q-9 -52 -50.5 -81t-105.5 -29zM230 577l235 103l-39 62l-219 -121z" />
    <glyph glyph-name="uni0218" unicode="&#x218;" horiz-adv-x="623" 
d="M527 509l93 40l-7 21q-24 75 -77.5 115t-152.5 40q-129 0 -204 -50.5t-92 -144.5q-7 -37 -3 -66.5t16 -52t31.5 -38.5t43.5 -27q35 -16 66 -23t73 -11q45 -5 78 -13t58 -26q13 -12 20 -31t2 -44q-21 -122 -202 -122q-132 0 -161 113l-6 24l-96 -32l5 -25
q36 -171 249 -171q273 0 307 201q20 117 -53 166q-35 23 -72.5 34.5t-88.5 17.5q-43 5 -71 11t-55 19q-55 24 -45 88q18 110 186 110q66 0 100.5 -25.5t50.5 -74.5zM151 -257h68l97 186h-96z" />
    <glyph glyph-name="uni0219" unicode="&#x219;" horiz-adv-x="497" 
d="M56 381q-8 -48 4 -77.5t37 -47t60 -25t72 -11.5q35 -3 59.5 -8t39 -14t20 -22.5t1.5 -34.5q-13 -76 -139 -76q-51 0 -81 16t-41 56l-6 22l-86 -27l5 -24q27 -123 199 -123q103 0 162.5 40t73.5 113q8 44 -2.5 73t-34.5 47t-59 27.5t-75 13.5q-38 5 -64 8.5t-43 16.5
q-20 18 -14 54q14 72 127 72q97 0 118 -64l7 -21l83 33l-8 25q-31 108 -188 108q-100 0 -157 -39t-70 -111zM174 -57l-63 -175h67l84 175h-88z" />
    <glyph glyph-name="uni021A" unicode="&#x21a;" horiz-adv-x="551" 
d="M84 710l-17 -90h216l-110 -620h96l110 620h214l17 90h-526zM178 -67l-69 -186h68l97 186h-96z" />
    <glyph glyph-name="uni021B" unicode="&#x21b;" horiz-adv-x="367" 
d="M28 433h107l-42 -235q-10 -57 -7 -97t20.5 -65t51 -37t84.5 -13h57l14 84h-24q-37 0 -61 5.5t-36.5 19.5t-14 39.5t5.5 65.5l41 233h154l14 83h-154l21 120h-89l-21 -120h-107zM59 -253h68l97 186h-96z" />
    <glyph glyph-name="uni0237" unicode="&#x237;" horiz-adv-x="215" 
d="M-169 -147l-14 -83h24q217 0 256 222l92 524h-89l-92 -522q-12 -70 -47 -105.5t-105 -35.5h-25z" />
    <glyph glyph-name="circumflex" unicode="&#x2c6;" horiz-adv-x="385" 
d="M302 729h-54l-183 -144h91l111 85l79 -85h89z" />
    <glyph glyph-name="caron" unicode="&#x2c7;" horiz-adv-x="332" 
d="M195 584h55l181 144h-91l-110 -85l-80 85h-87z" />
    <glyph glyph-name="breve" unicode="&#x2d8;" horiz-adv-x="287" 
d="M61 693q7 -51 42 -78t93 -27q119 0 171 105l9 17l-64 24l-7 -15q-31 -66 -98 -66q-68 0 -76 66l-2 15l-70 -24z" />
    <glyph glyph-name="dotaccent" unicode="&#x2d9;" horiz-adv-x="216" 
d="M132 653q-3 -19 8.5 -32.5t30.5 -13.5q20 0 35 13.5t18 32.5t-8 32.5t-30 13.5q-20 0 -35.5 -13.5t-18.5 -32.5z" />
    <glyph glyph-name="ring" unicode="&#x2da;" horiz-adv-x="240" 
d="M210 756q-47 0 -81.5 -28t-42.5 -74q-8 -45 16.5 -73.5t71.5 -28.5q46 0 79.5 28t40.5 73q8 46 -15 74.5t-69 28.5zM141 613q-14 15 -9 40q4 27 23.5 42t46.5 15q26 0 38.5 -15.5t7.5 -41.5q-4 -25 -22.5 -40.5t-44.5 -15.5q-27 0 -40 16z" />
    <glyph glyph-name="ogonek" unicode="&#x2db;" horiz-adv-x="252" 
d="M32 -246q63 0 98 31l7 6l-12 57l-12 -10q-21 -18 -43 -18q-23 0 -28 26q-3 24 23.5 65t80.5 89h-60q-135 -96 -127 -183q2 -31 22 -47t51 -16z" />
    <glyph glyph-name="tilde" unicode="&#x2dc;" horiz-adv-x="305" 
d="M61 612l-2 -15h55l2 15q8 48 41 48q15 0 29 -10t29 -21.5t32 -21.5t38 -10q42 0 65.5 25t33.5 79l3 16h-55l-3 -15q-7 -48 -40 -48q-15 0 -28.5 10t-28.5 21.5t-32.5 21.5t-40.5 10q-81 0 -98 -105z" />
    <glyph glyph-name="hungarumlaut" unicode="&#x2dd;" horiz-adv-x="395" 
d="M267 591l45 -17l173 136l-75 24zM101 594l45 -17l164 133l-71 24z" />
    <glyph glyph-name="uni0326" unicode="&#x326;" horiz-adv-x="0" 
d="M37 -67l-68 -186h67l97 186h-96z" />
    <glyph glyph-name="pi" unicode="&#x3c0;" horiz-adv-x="625" 
d="M201 516q-88 0 -151 -31l-22 -11l18 -74l28 12q45 20 81 22l-76 -434h90l76 434h224l-50 -282q-15 -81 5 -139l8 -22l89 34l-9 25q-14 42 -5 98l51 286h68l14 82h-439z" />
    <glyph glyph-name="uni0401" unicode="&#x401;" horiz-adv-x="576" 
d="M21 0h468l14 90h-369l40 225h311l17 90h-312l38 215h357l17 90h-455zM259 822q-3 -20 7.5 -33t30.5 -13q19 0 34.5 13t18.5 33q3 19 -7.5 32t-29.5 13q-20 0 -35.5 -13t-18.5 -32zM456 822q-4 -20 7 -33t30 -13t34.5 13t19.5 33q3 19 -8 32t-30 13t-34.5 -13t-18.5 -32z
" />
    <glyph glyph-name="uni0410" unicode="&#x410;" 
d="M490 0h103l-152 712h-90l-404 -712h106l102 186h298zM199 265l176 319l63 -319h-239z" />
    <glyph glyph-name="uni0411" unicode="&#x411;" horiz-adv-x="631" 
d="M606 620l17 90h-476l-125 -710h315q100 0 164.5 53t81.5 152q9 50 0.5 89.5t-32.5 68t-61.5 43.5t-87.5 15h-210l36 199h378zM134 90l42 241h206q58 0 85 -31.5t16 -88.5q-9 -57 -47.5 -89t-96.5 -32h-205z" />
    <glyph glyph-name="uni0412" unicode="&#x412;" 
d="M337 0q98 0 165 48t84 139q12 69 -9 116.5t-72 63.5l1 3q91 40 113 152q15 87 -29 137.5t-138 50.5h-305l-126 -710h316zM174 317h216q57 0 81.5 -29.5t14.5 -84.5q-20 -113 -136 -113h-216zM426 620q112 0 92 -108q-20 -107 -130 -107h-199l39 215h198z" />
    <glyph glyph-name="uni0413" unicode="&#x413;" horiz-adv-x="520" 
d="M118 0l110 620h329l17 90h-427l-126 -710h97z" />
    <glyph glyph-name="uni0414" unicode="&#x414;" horiz-adv-x="727" 
d="M33 -153l26 153h499l-26 -153h95l42 243h-85l110 620h-449l-41 -231q-8 -43 -19.5 -99.5t-31 -112t-47.5 -103.5t-69 -74h-56l-44 -243h96zM151 90q95 101 146 389l24 141h260l-93 -530h-337z" />
    <glyph glyph-name="uni0415" unicode="&#x415;" horiz-adv-x="576" 
d="M21 0h468l14 90h-369l40 225h311l17 90h-312l38 215h357l17 90h-455z" />
    <glyph glyph-name="uni0416" unicode="&#x416;" horiz-adv-x="927" 
d="M515 316h47q54 0 80.5 -16t39.5 -57l3.5 -11t9 -28t12.5 -39t14 -45q17 -53 39 -120h109l-95 277q-24 71 -71 97l282 336h-116l-255 -308q-5 1 -14.5 1.5t-22.5 0.5h-47l55 306h-97l-54 -306h-47q-14 0 -24.5 -0.5t-17.5 -1.5l-147 308h-111l166 -336q-59 -26 -108 -97
l-193 -277h113l161 237q15 23 29.5 38t31 24t37 13t47.5 4h47l-56 -316h97z" />
    <glyph glyph-name="uni0417" unicode="&#x417;" horiz-adv-x="624" 
d="M9 157q27 -172 262 -172q254 0 292 206q22 126 -78 178q91 39 112 146q17 97 -36.5 153.5t-168.5 56.5q-117 0 -189.5 -41t-116.5 -126l-13 -27l85 -34l13 26q29 58 76.5 85t129.5 27q144 0 123 -120q-9 -51 -41.5 -80.5t-86.5 -29.5h-174l-13 -87h183q55 0 79.5 -31.5
t14.5 -86.5q-23 -125 -178 -125q-89 0 -129 27.5t-49 85.5l-4 26l-97 -32z" />
    <glyph glyph-name="uni0418" unicode="&#x418;" horiz-adv-x="698" 
d="M110 0l459 540l-96 -540h97l125 710h-90l-459 -539l97 539h-97l-125 -710h89z" />
    <glyph glyph-name="uni0419" unicode="&#x419;" horiz-adv-x="698" 
d="M21 0h89l459 540l-96 -540h97l125 710h-90l-459 -539l97 539h-97zM294 884l2 -17q7 -51 42 -78t93 -27q119 0 171 105l9 17l-64 24l-7 -15q-31 -66 -98 -66q-68 0 -76 66l-2 15z" />
    <glyph glyph-name="uni041A" unicode="&#x41a;" horiz-adv-x="617" 
d="M117 0l57 316h80q27 0 46 -4t32.5 -13t22.5 -24t16 -38l78 -237h110l-93 275q-29 84 -97 107l310 328h-118l-283 -306h-89l55 306h-97l-126 -710h96z" />
    <glyph glyph-name="uni041B" unicode="&#x41b;" horiz-adv-x="666" 
d="M-18 -21l30 13q57 26 98 63.5t69 94.5q23 47 47.5 126t43.5 188l27 156h253l-110 -620h97l126 710h-445l-43 -246q-13 -72 -26.5 -125.5t-27.5 -93t-28.5 -66.5t-31.5 -45q-22 -24 -36 -33.5t-34 -19.5q-1 0 -6.5 -2.5t-12.5 -5.5q-9 -4 -19 -9z" />
    <glyph glyph-name="uni041C" unicode="&#x41c;" horiz-adv-x="807" 
d="M147 710l-126 -710h96l91 524l141 -362h62l269 366l-94 -528h92l126 710h-91l-315 -429l-166 429h-85z" />
    <glyph glyph-name="uni041D" unicode="&#x41d;" horiz-adv-x="685" 
d="M21 0h97l55 315h342l-55 -315h97l125 710h-97l-54 -305h-342l54 305h-97z" />
    <glyph glyph-name="uni041E" unicode="&#x41e;" horiz-adv-x="667" 
d="M45 247q-10 -60 0.5 -108.5t40.5 -82.5t79.5 -52.5t116.5 -18.5q136 0 217.5 64t102.5 184l40 228q11 60 0.5 109t-40.5 83.5t-79.5 53t-116.5 18.5q-136 0 -218 -64.5t-103 -185.5zM295 75q-88 0 -128 42.5t-26 123.5l40 228q14 81 68.5 123.5t144.5 42.5
q88 0 128 -42.5t26 -123.5l-41 -228q-14 -81 -69 -123.5t-143 -42.5z" />
    <glyph glyph-name="uni041F" unicode="&#x41f;" horiz-adv-x="680" 
d="M21 0h97l110 620h336l-110 -620h97l126 710h-530z" />
    <glyph glyph-name="uni0420" unicode="&#x420;" horiz-adv-x="627" 
d="M164 258h196q109 0 178.5 55.5t89.5 160.5q10 53 1.5 96.5t-33 74.5t-64 48t-92.5 17h-293l-126 -710h97zM415 620q66 0 96 -36.5t19 -100.5q-12 -64 -54.5 -99.5t-108.5 -35.5h-188l49 272h187z" />
    <glyph glyph-name="uni0421" unicode="&#x421;" horiz-adv-x="635" 
d="M294 76q-88 0 -128 42t-26 123l41 229q13 79 67 122t145 43q75 0 111.5 -27.5t45.5 -84.5l4 -25l90 29l-4 26q-12 85 -68.5 128.5t-165.5 43.5q-136 0 -218.5 -65t-103.5 -186l-40 -228q-10 -60 0.5 -108.5t41 -82t80 -52t115.5 -18.5q112 0 184.5 43t115.5 128l13 25
l-89 34l-13 -26q-29 -58 -76 -85.5t-122 -27.5z" />
    <glyph glyph-name="uni0422" unicode="&#x422;" horiz-adv-x="551" 
d="M84 710l-17 -90h216l-110 -620h96l110 620h214l17 90h-526z" />
    <glyph glyph-name="uni0423" unicode="&#x423;" horiz-adv-x="601" 
d="M61 710l173 -500l-138 -210h112l464 710h-108l-261 -396l-132 396h-110z" />
    <glyph glyph-name="uni0424" unicode="&#x424;" horiz-adv-x="834" 
d="M433 650h-58q-132 0 -212 -64.5t-101 -184.5l-14 -77q-22 -120 36 -189.5t188 -69.5h58l-14 -85h95l16 85h58q132 0 212.5 65t100.5 185l14 77q22 120 -36 189t-188 69h-58l14 85h-95zM514 563h58q87 0 123 -42t22 -121l-16 -85q-14 -79 -65 -121t-136 -42h-58zM158 400
q14 79 65 121t136 42h58l-72 -411h-58q-85 0 -121.5 42t-22.5 121z" />
    <glyph glyph-name="uni0425" unicode="&#x425;" horiz-adv-x="626" 
d="M-54 0h121l244 277l146 -277h119l-192 360l307 350h-118l-234 -265l-141 265h-117l185 -348z" />
    <glyph glyph-name="uni0426" unicode="&#x426;" horiz-adv-x="705" 
d="M21 0h516l-26 -153h91l44 243h-83l110 620h-97l-110 -620h-332l110 620h-97z" />
    <glyph glyph-name="uni0427" unicode="&#x427;" horiz-adv-x="633" 
d="M73 514q-21 -122 28.5 -186.5t183.5 -64.5q98 0 172 17l-49 -280h96l126 710h-96l-60 -338q-63 -19 -169 -19q-90 0 -120.5 36.5t-16.5 118.5l36 202h-96z" />
    <glyph glyph-name="uni0428" unicode="&#x428;" horiz-adv-x="920" 
d="M21 0h771l126 710h-97l-110 -620h-240l110 620h-97l-109 -620h-241l110 620h-97z" />
    <glyph glyph-name="uni0429" unicode="&#x429;" horiz-adv-x="950" 
d="M134 90l110 620h-97l-126 -710h762l-28 -153h93l44 243h-84l110 620h-97l-110 -620h-240l110 620h-97l-109 -620h-241z" />
    <glyph glyph-name="uni042A" unicode="&#x42a;" horiz-adv-x="728" 
d="M233 620l-109 -620h296q108 0 177.5 56t88.5 162q9 53 0 96t-34.5 74t-66 47.5t-94.5 16.5h-191l46 258h-267l-14 -90h168zM285 362h187q66 0 96 -35.5t19 -99.5q-12 -64 -54.5 -100.5t-108.5 -36.5h-187z" />
    <glyph glyph-name="uni042B" unicode="&#x42b;" horiz-adv-x="884" 
d="M391 452h-193l46 258h-97l-126 -710h295q108 0 178 57.5t89 163.5t-33 169q-53 62 -159 62zM134 90l48 272h187q66 0 96 -35.5t19 -99.5q-11 -65 -54 -101t-109 -36h-187zM785 710l-126 -710h96l126 710h-96z" />
    <glyph glyph-name="uni042C" unicode="&#x42c;" horiz-adv-x="625" 
d="M198 452l46 258h-97l-126 -710h295q108 0 178 57.5t89 163.5t-33 169q-53 62 -159 62h-193zM369 362q66 0 96 -35.5t19 -99.5q-11 -65 -54 -101t-109 -36h-187l48 272h187z" />
    <glyph glyph-name="uni042D" unicode="&#x42d;" horiz-adv-x="639" 
d="M7 182l4 -25q27 -172 245 -172q135 0 216 63.5t102 183.5l40 230q11 60 0.5 108.5t-40 83t-78.5 53t-116 18.5q-211 0 -297 -170l-12 -24l85 -33l13 25q29 57 75 84.5t121 27.5q90 0 129 -42.5t25 -121.5l-11 -67h-300l-17 -90h300l-13 -74q-14 -79 -68.5 -122
t-142.5 -43q-75 0 -112.5 28t-46.5 86l-4 26z" />
    <glyph glyph-name="uni042E" unicode="&#x42e;" horiz-adv-x="931" 
d="M174 315h157l-12 -70q-21 -120 38.5 -190t191.5 -70q133 0 214.5 64t101.5 184l40 230q11 60 1 108.5t-39 82.5t-76.5 52.5t-113.5 18.5q-134 0 -216 -65.5t-102 -185.5l-12 -69h-157l54 305h-97l-126 -710h97zM455 470q14 79 67 122t140 43t124.5 -43t23.5 -122
l-41 -230q-14 -81 -67 -123t-138 -42q-88 0 -125.5 43t-23.5 122z" />
    <glyph glyph-name="uni042F" unicode="&#x42f;" horiz-adv-x="648" 
d="M86 0q37 59 67 105q12 20 24 39t22 34t16 24.5l6 9.5q27 41 57.5 57t83.5 16h111l-51 -285h97l126 710h-308q-103 0 -169.5 -52t-84.5 -152q-13 -79 16.5 -132.5t93.5 -70.5q-31 -16 -60 -61l-160 -242h113zM287 375q-60 0 -86.5 31.5t-16.5 91.5t48.5 91t98.5 31h201
l-44 -245h-201z" />
    <glyph glyph-name="uni0430" unicode="&#x430;" horiz-adv-x="535" 
d="M26 198q-17 -96 26 -154.5t144 -58.5q108 0 204 28l27 7l82 463l-35 17q-63 31 -170 31q-114 0 -174.5 -45.5t-78.5 -147.5zM217 67q-61 0 -87 32t-16 92l24 135q12 66 49.5 94.5t109.5 28.5q52 0 98 -15l15 -5l-61 -343q-61 -19 -132 -19z" />
    <glyph glyph-name="uni0431" unicode="&#x431;" horiz-adv-x="553" 
d="M231 -15q220 0 256 195l22 121q17 97 -28.5 150.5t-145.5 53.5q-106 0 -171 -72l3 19q10 54 25.5 91.5t41 60.5t64 33.5t94.5 10.5h34q74 0 106 16l25 12l-15 79l-26 -12q-27 -12 -77 -12h-33q-80 0 -136 -18.5t-93.5 -55.5t-60 -93t-36.5 -131l-43 -244
q-16 -94 34.5 -149t159.5 -55zM152 329q5 18 17.5 35t32.5 30.5t46.5 21.5t57.5 8q134 0 114 -119l-22 -120q-23 -119 -158 -119q-66 0 -95 31t-18 88z" />
    <glyph glyph-name="uni0432" unicode="&#x432;" horiz-adv-x="535" 
d="M225 -15q223 0 247 158q15 96 -75 129q80 29 92 103q13 72 -34 114t-150 42q-97 0 -167 -26l-48 -18l-82 -464l41 -15q66 -23 176 -23zM108 80l26 151h149q54 0 79 -21.5t18 -59.5q-15 -87 -154 -87q-49 0 -105 14zM187 438q42 14 107 14q57 0 83.5 -21.5t20.5 -60.5
q-13 -70 -106 -70h-146l24 132z" />
    <glyph glyph-name="uni0433" unicode="&#x433;" horiz-adv-x="500" 
d="M69 419l-16 -25l73 -32l14 20q50 71 143 71q63 0 86.5 -18.5t17.5 -55.5q-8 -47 -53 -63q-24 -8 -45 -11.5t-56 -7.5q-41 -4 -78.5 -12t-67.5 -24.5t-51.5 -45.5t-29.5 -75q-14 -72 34.5 -113.5t151.5 -41.5q90 0 146.5 29t91.5 92l14 25l-75 28l-13 -23
q-41 -74 -152 -74q-66 0 -94 19t-21 57q8 44 47 62t107 24q42 4 80 10.5t68 23t51 45t30 75.5q12 67 -32 110t-143 43q-155 0 -228 -112z" />
    <glyph glyph-name="uni0434" unicode="&#x434;" horiz-adv-x="551" 
d="M216 -15q109 0 174.5 50t82.5 144l38 216q40 231 -75 301q-70 46 -227 46h-24l-14 -81h25q128 0 183 -39q38 -27 52 -71t2 -121q-12 33 -51 54t-96 21q-97 0 -160.5 -50.5t-79.5 -143.5l-22 -123q-17 -94 32 -148.5t160 -54.5zM135 306q19 118 156 118q66 0 95.5 -30
t19.5 -87l-22 -123q-11 -57 -50.5 -87.5t-105.5 -30.5q-67 0 -96 30.5t-19 87.5z" />
    <glyph glyph-name="uni0435" unicode="&#x435;" horiz-adv-x="526" 
d="M26 202q-9 -48 -2.5 -88t29.5 -68.5t62 -44.5t95 -16q156 0 232 99l19 25l-67 45l-19 -25q-52 -66 -151 -66q-66 0 -94.5 31t-18.5 89l8 43q40 -7 75 -10.5t67 -3.5q211 0 240 137q17 84 -35 133t-155 49q-109 0 -177 -52.5t-86 -151.5zM137 327q11 60 54 94t107 34
q66 0 96.5 -24.5t19.5 -70.5q-18 -79 -141 -79q-70 0 -142 15z" />
    <glyph glyph-name="uni0436" unicode="&#x436;" horiz-adv-x="745" 
d="M683 0l-67 206q-17 53 -55 73l210 237h-109l-178 -211h-66l37 211h-90l-36 -211h-67l-106 211h-106l126 -234q-38 -16 -80 -76l-139 -206h100q31 47 55 85q11 16 20.5 31t17.5 27q9 14 17 26q35 53 97 53h50l-39 -222h90l38 222h51q35 0 53 -12.5t27 -42.5l50 -167h99z
" />
    <glyph glyph-name="uni0437" unicode="&#x437;" horiz-adv-x="504" 
d="M-3 119q5 -19 17 -42t35.5 -43.5t60.5 -34.5t92 -14q209 0 236 154q15 93 -59 125v2q77 29 89 111q5 36 -5 64.5t-33.5 48.5t-60 30.5t-84.5 10.5t-85.5 -10t-65 -27t-47 -38.5t-31.5 -45.5l-13 -25l78 -30l15 26q41 71 140 71q51 0 79.5 -23t21.5 -60q-6 -33 -31 -51.5
t-63 -18.5h-120l-15 -74h127q85 0 72 -76q-15 -85 -135 -85q-37 0 -60.5 10t-37 24t-19 28t-7.5 22l-4 26l-94 -30z" />
    <glyph glyph-name="uni0438" unicode="&#x438;" horiz-adv-x="550" 
d="M38 190q-16 -97 24.5 -151t143.5 -54q101 0 196 34l42 14l84 483h-90l-74 -427l-16 -5q-59 -17 -116 -17q-126 0 -105 119l58 330h-89z" />
    <glyph glyph-name="uni0439" unicode="&#x439;" horiz-adv-x="550" 
d="M185 516h-89l-58 -326q-16 -97 24.5 -151t143.5 -54q101 0 196 34l42 14l84 483h-90l-74 -427l-16 -5q-59 -17 -116 -17q-126 0 -105 119zM185 694l2 -17q7 -51 42 -78t93 -27q119 0 171 105l9 17l-64 24l-7 -15q-31 -66 -98 -66q-68 0 -76 66l-2 15z" />
    <glyph glyph-name="uni043A" unicode="&#x43a;" horiz-adv-x="518" 
d="M99 0l39 224h92q34 0 51.5 -13t26.5 -42l52 -169h96l-67 206q-11 33 -26 51t-41 26l226 233h-107l-201 -211h-87l36 211h-89l-90 -516h89z" />
    <glyph glyph-name="uni043B" unicode="&#x43b;" horiz-adv-x="542" 
d="M-46 59l28 -79q8 3 14 6q6 2 11.5 4t7.5 3q27 11 51.5 25t47 43.5t43.5 82t43 141.5l35 148h179l-75 -433h89l90 516h-350l-54 -229q-8 -32 -17.5 -66.5t-25.5 -65t-39 -54t-58 -35.5z" />
    <glyph glyph-name="uni043C" unicode="&#x43c;" horiz-adv-x="639" 
d="M100 516l-91 -516h83l62 351l100 -250h61l188 252l-61 -353h82l92 516h-85l-230 -316l-122 316h-79z" />
    <glyph glyph-name="uni043D" unicode="&#x43d;" horiz-adv-x="556" 
d="M101 516l-91 -516h89l39 222h254l-39 -222h89l91 516h-90l-37 -211h-253l37 211h-89z" />
    <glyph glyph-name="uni043E" unicode="&#x43e;" horiz-adv-x="541" 
d="M24 179q-15 -91 36 -142.5t157 -51.5q109 0 174.5 48t81.5 139l28 163q16 91 -34 143.5t-158 52.5q-106 0 -173 -49.5t-83 -139.5zM229 66q-63 0 -94 29t-21 81l28 164q10 52 51 81t104 29q64 0 94.5 -29t21.5 -81l-29 -164q-10 -52 -50.5 -81t-104.5 -29z" />
    <glyph glyph-name="uni043F" unicode="&#x43f;" horiz-adv-x="549" 
d="M91 482l-84 -482h90l75 427l12 4q60 18 119 18q126 0 105 -119l-58 -330h89l58 326q16 97 -24.5 151t-143.5 54q-107 0 -197 -34z" />
    <glyph glyph-name="uni0440" unicode="&#x440;" horiz-adv-x="538" 
d="M-31 -220h89l41 232q72 -27 125 -27q214 0 248 199l25 140q17 100 -25 153.5t-148 53.5q-107 0 -189 -29l-42 -15zM188 434q53 15 110 15q131 0 110 -122l-24 -135q-23 -125 -152 -125q-46 0 -119 26l60 337z" />
    <glyph glyph-name="uni0441" unicode="&#x441;" horiz-adv-x="511" 
d="M222 64q-64 0 -92 31t-17 88l26 150q23 119 152 119q102 0 118 -84l5 -25l81 29l-4 25q-21 134 -187 134q-220 0 -253 -195l-26 -144q-17 -97 29.5 -152t155.5 -55q165 0 239 137l14 26l-81 27l-13 -24q-45 -87 -147 -87z" />
    <glyph glyph-name="uni0442" unicode="&#x442;" horiz-adv-x="820" 
d="M7 0h90l75 428l13 5q45 16 97 16q57 0 80 -26.5t14 -83.5l-2.5 -15l-6.5 -39t-9.5 -54t-10.5 -62q-13 -75 -30 -169h89l60 340q8 49 -1 82q66 27 123 27q110 0 92 -112l-59 -337h89l58 330q17 97 -20.5 149t-133.5 52q-89 0 -185 -40q-40 40 -121 40q-90 0 -176 -33
l-41 -16z" />
    <glyph glyph-name="uni0443" unicode="&#x443;" horiz-adv-x="552" 
d="M42 209q-17 -97 23.5 -151t142.5 -54q62 0 144 21l-10 -54q-24 -132 -151 -132q-87 0 -112 67l-9 22l-85 -39l11 -27q40 -103 183 -103q216 0 253 216l95 541h-89l-72 -409q-70 -21 -131 -21q-66 0 -91 29.5t-14 89.5l54 311h-89z" />
    <glyph glyph-name="uni0444" unicode="&#x444;" horiz-adv-x="738" 
d="M364 526q-17 2 -32.5 3.5t-31.5 1.5q-215 0 -253 -210l-20 -116q-20 -112 29 -166t149 -54q21 1 37.5 2t27.5 3l-37 -210h89l37 210q10 -2 25.5 -3t37.5 -2q215 0 253 206l21 119q19 112 -30 166.5t-149 54.5q-20 -1 -36.5 -2t-27.5 -3l38 213h-90zM134 312
q13 72 56.5 104.5t101.5 32.5q11 0 26 -1t34 -3l-66 -374q-20 -2 -35.5 -3t-26.5 -1q-132 0 -109 134zM437 445q20 2 35 3t26 1q133 0 109 -134l-20 -114q-24 -134 -157 -134q-11 0 -25.5 1t-33.5 3z" />
    <glyph glyph-name="uni0445" unicode="&#x445;" horiz-adv-x="494" 
d="M190 267l-242 -267h109l176 195l113 -195h98l-151 261l230 255h-107l-166 -182l-106 182h-98z" />
    <glyph glyph-name="uni0446" unicode="&#x446;" horiz-adv-x="585" 
d="M185 516h-89l-58 -326q-17 -97 24.5 -151t143.5 -54q32 0 63.5 3.5t48.5 6.5q8 2 20.5 5l25 6t23 5.5t14.5 3.5t7 1.5t6 0.5q15 0 20.5 -9.5t3.5 -24.5l-22 -122h86l23 133q8 51 -5 75t-53 24q-4 0 -7 -0.5t-7 -0.5l75 424h-90l-75 -429q-3 0 -10 -2t-16 -4l-18 -4
t-15 -3q-11 -2 -31.5 -4.5t-40.5 -2.5q-126 0 -105 119z" />
    <glyph glyph-name="uni0447" unicode="&#x447;" horiz-adv-x="509" 
d="M42 379q-33 -198 171 -198q89 0 126 15l-34 -196h90l89 516h-89l-41 -236q-54 -18 -117 -18q-68 0 -92.5 25t-14.5 85l25 144h-89z" />
    <glyph glyph-name="uni0448" unicode="&#x448;" horiz-adv-x="818" 
d="M185 516h-89l-58 -327q-17 -97 20 -150.5t134 -53.5q87 0 183 38q41 -38 121 -38q91 0 176 33l40 15l84 483h-89l-75 -428l-15 -5q-42 -16 -95 -16q-115 0 -94 114l59 335h-90l-59 -336q-9 -54 1 -87q-66 -26 -121 -26q-110 0 -92 111q1 1 1 4z" />
    <glyph glyph-name="uni0449" unicode="&#x449;" horiz-adv-x="853" 
d="M794 -6q8 51 -5 75t-54 24q-4 0 -7 -0.5t-7 -0.5l75 424h-89l-75 -428q-26 -9 -54 -15t-56 -6q-115 0 -94 114l59 335h-90l-59 -336q-9 -54 1 -87q-66 -26 -121 -26q-110 0 -92 111q1 1 1 4l58 334h-89l-58 -327q-17 -97 20 -150.5t134 -53.5q87 0 183 38
q26 -25 60.5 -31.5t69.5 -6.5q22 0 47.5 4t49 9t42 10t26.5 7q4 1 7 1.5t6 0.5q14 0 20 -8t4 -22l-23 -126h87z" />
    <glyph glyph-name="uni044A" unicode="&#x44a;" horiz-adv-x="600" 
d="M140 15q68 -30 177 -30q202 0 235 187q17 93 -28.5 144.5t-144.5 51.5q-56 0 -131 -23l29 171h-231l-14 -81h143l-72 -404zM235 269q68 21 125 21q123 0 104 -112t-145 -112q-56 0 -103 15l-12 4z" />
    <glyph glyph-name="uni044B" unicode="&#x44b;" horiz-adv-x="702" 
d="M225 -15q202 0 235 187q17 93 -28.5 144.5t-144.5 51.5q-56 0 -131 -23l29 171h-87l-87 -485l37 -16q68 -30 177 -30zM112 85l31 184q68 21 125 21q123 0 104 -112t-145 -112q-56 0 -103 15zM498 0h89l90 516h-90z" />
    <glyph glyph-name="uni044C" unicode="&#x44c;" horiz-adv-x="509" 
d="M48 15q68 -30 177 -30q202 0 235 187q17 93 -28.5 144.5t-144.5 51.5q-56 0 -131 -23l29 171h-87l-87 -485zM112 85l31 184q68 21 125 21q123 0 104 -112t-145 -112q-56 0 -103 15z" />
    <glyph glyph-name="uni044D" unicode="&#x44d;" horiz-adv-x="508" 
d="M87 176l-91 -27l5 -26q24 -138 193 -138q214 0 248 195l26 143q17 97 -29.5 152.5t-157.5 55.5q-164 0 -229 -131l-13 -27l79 -27l13 24q22 42 54.5 62t86.5 20q129 0 108 -118l-6 -32h-201l-16 -79l203 -1l-7 -39q-10 -57 -48 -87.5t-101 -30.5q-54 0 -80 21t-33 66z
" />
    <glyph glyph-name="uni044E" unicode="&#x44e;" horiz-adv-x="749" 
d="M99 0l38 220h114l-8 -43q-15 -90 34.5 -141t154.5 -51q106 0 169 46.5t79 136.5l30 166q15 91 -34 144t-154 53t-169 -48t-80 -136l-8 -44h-113l37 213h-89l-90 -516h89zM362 340q9 52 48 81t100 29q63 0 91.5 -28.5t19.5 -80.5l-30 -166q-9 -51 -48.5 -80t-100.5 -29
q-60 0 -89.5 28.5t-20.5 79.5z" />
    <glyph glyph-name="uni044F" unicode="&#x44f;" horiz-adv-x="521" 
d="M-30 0h104l144 179h130l-31 -179h90l89 516h-245q-81 0 -134 -42t-67 -121q-10 -61 10 -104t68 -58zM214 258q-42 0 -61.5 24t-11.5 64q8 42 36 66t70 24h146l-31 -178h-148z" />
    <glyph glyph-name="uni0451" unicode="&#x451;" horiz-adv-x="526" 
d="M311 531q-109 0 -177 -52.5t-86 -151.5l-22 -125q-9 -48 -2.5 -88t29.5 -68.5t62 -44.5t95 -16q156 0 232 99l19 25l-67 45l-19 -25q-52 -66 -151 -66q-66 0 -94.5 31t-18.5 89l8 43q40 -7 75 -10.5t67 -3.5q211 0 240 137q17 84 -35 133t-155 49zM273 281q-70 0 -142 15
l6 31q11 60 54 94t107 34q66 0 96.5 -24.5t19.5 -70.5q-18 -79 -141 -79zM187 652q-3 -20 7.5 -33t30.5 -13q19 0 34.5 13t18.5 33q3 19 -7.5 32t-29.5 13q-20 0 -35.5 -13t-18.5 -32zM421 606q19 0 34.5 13t19.5 33q3 19 -8 32t-30 13t-34.5 -13t-18.5 -32q-4 -20 7 -33
t30 -13z" />
    <glyph glyph-name="Wgrave" unicode="&#x1e80;" horiz-adv-x="887" 
d="M86 710l59 -710h98l244 543l51 -543h100l307 710h-103l-225 -544l-52 536h-96l-242 -532l-36 540h-105zM481 914l-61 -61l199 -100l42 42z" />
    <glyph glyph-name="wgrave" unicode="&#x1e81;" horiz-adv-x="730" 
d="M143 516h-92l64 -518h79l185 387l49 -387h83l244 518h-94l-169 -374l-51 367h-79l-181 -364zM372 741l-61 -61l199 -100l42 42z" />
    <glyph glyph-name="Wacute" unicode="&#x1e82;" horiz-adv-x="887" 
d="M191 710h-105l59 -710h98l244 543l51 -543h100l307 710h-103l-225 -544l-52 536h-96l-242 -532zM632 917l-219 -121l23 -44l235 103z" />
    <glyph glyph-name="wacute" unicode="&#x1e83;" horiz-adv-x="730" 
d="M143 516h-92l64 -518h79l185 387l49 -387h83l244 518h-94l-169 -374l-51 367h-79l-181 -364zM521 741l-219 -121l23 -44l235 103z" />
    <glyph glyph-name="Wdieresis" unicode="&#x1e84;" horiz-adv-x="887" 
d="M145 0h98l244 543l51 -543h100l307 710h-103l-225 -544l-52 536h-96l-242 -532l-36 540h-105zM397 830q-3 -20 7.5 -33t30.5 -13q19 0 34.5 13t18.5 33q3 19 -7.5 32t-29.5 13q-20 0 -35.5 -13t-18.5 -32zM594 830q-4 -20 7 -33t30 -13t34.5 13t19.5 33q3 19 -8 32
t-30 13t-34.5 -13t-18.5 -32z" />
    <glyph glyph-name="wdieresis" unicode="&#x1e85;" horiz-adv-x="730" 
d="M115 -2h79l185 387l49 -387h83l244 518h-94l-169 -374l-51 367h-79l-181 -364l-38 371h-92zM285 652q-3 -20 7.5 -33t30.5 -13q19 0 34.5 13t18.5 33q3 19 -7.5 32t-29.5 13q-20 0 -35.5 -13t-18.5 -32zM482 652q-4 -20 7 -33t30 -13t34.5 13t19.5 33q3 19 -8 32t-30 13
t-34.5 -13t-18.5 -32z" />
    <glyph glyph-name="Ygrave" unicode="&#x1ef2;" horiz-adv-x="631" 
d="M69 710l195 -424l-49 -286h95l51 284l345 426h-118l-257 -326l-143 326h-119zM290 852l199 -100l42 42l-180 119z" />
    <glyph glyph-name="ygrave" unicode="&#x1ef3;" horiz-adv-x="552" 
d="M42 209q-17 -97 23.5 -151t142.5 -54q62 0 144 21l-10 -54q-24 -132 -151 -132q-87 0 -112 67l-9 22l-85 -39l11 -27q40 -103 183 -103q216 0 253 216l95 541h-89l-72 -409q-70 -21 -131 -21q-66 0 -91 29.5t-14 89.5l54 311h-89zM278 740l-61 -61l199 -100l42 42z" />
    <glyph glyph-name="endash" unicode="&#x2013;" horiz-adv-x="571" 
d="M60 310l-15 -86h452l15 86h-452z" />
    <glyph glyph-name="emdash" unicode="&#x2014;" horiz-adv-x="771" 
d="M60 310l-15 -87h652l15 87h-652z" />
    <glyph glyph-name="quoteleft" unicode="&#x2018;" horiz-adv-x="206" 
d="M164 710l-90 -222h97l51 222h-58z" />
    <glyph glyph-name="quoteright" unicode="&#x2019;" horiz-adv-x="201" 
d="M140 710l-51 -222h59l89 222h-97z" />
    <glyph glyph-name="quotesinglbase" unicode="&#x201a;" horiz-adv-x="186" 
d="M23 110l-44 -245h68l62 245h-86z" />
    <glyph glyph-name="quotedblleft" unicode="&#x201c;" horiz-adv-x="341" 
d="M164 710l-90 -222h97l51 222h-58zM210 488h96l51 222h-58z" />
    <glyph glyph-name="quotedblright" unicode="&#x201d;" horiz-adv-x="336" 
d="M90 489h59l89 222h-97zM226 489h58l90 222h-97z" />
    <glyph glyph-name="quotedblbase" unicode="&#x201e;" horiz-adv-x="331" 
d="M23 100l-51 -222h59l89 222h-97zM108 -122h58l90 222h-97z" />
    <glyph glyph-name="dagger" unicode="&#x2020;" horiz-adv-x="530" 
d="M62 489l-17 -90h190l-87 -499h90l88 499h188l17 90h-189l39 221h-91l-39 -221h-189z" />
    <glyph glyph-name="daggerdbl" unicode="&#x2021;" horiz-adv-x="567" 
d="M17 120h189l-38 -220h90l38 220h185l17 90h-186l33 189h189l17 90h-190l39 221h-90l-39 -221h-189l-16 -90h189l-33 -189h-189z" />
    <glyph glyph-name="bullet" unicode="&#x2022;" horiz-adv-x="331" 
d="M69 264q-8 -39 13.5 -65.5t60.5 -26.5t69 27q30 26 38 65q7 38 -14.5 64t-59.5 26q-40 0 -70 -26t-37 -64z" />
    <glyph glyph-name="ellipsis" unicode="&#x2026;" horiz-adv-x="649" 
d="M453 49q-4 -23 9 -39t36 -16t41.5 16t22.5 39t-9 38.5t-36 15.5t-41.5 -15.5t-22.5 -38.5zM230 49q-4 -23 9 -39t36 -16t41.5 16t22.5 39t-9 38.5t-36 15.5t-41.5 -15.5t-22.5 -38.5zM7 49q-4 -23 9 -39t36 -16t41.5 16t22.5 39q5 23 -8 38.5t-36 15.5t-41.5 -15.5
t-23.5 -38.5z" />
    <glyph glyph-name="perthousand" unicode="&#x2030;" horiz-adv-x="1184" 
d="M799 131q-12 -69 23 -108t113 -39t127 39t61 108l13 72q12 69 -23 108.5t-113 39.5t-127 -39.5t-61 -108.5zM440 203l-13 -72q-12 -69 23 -108t113 -39t127 39t61 108l13 72q12 69 -23 108.5t-113 39.5t-127 -39.5t-61 -108.5zM271 726q-78 0 -127 -39.5t-61 -108.5
l-13 -73q-12 -69 23 -107.5t113 -38.5t126.5 39t60.5 107l13 73q12 69 -22.5 108.5t-112.5 39.5zM790 710h-97l-650 -710h100zM887 77q-19 21 -12 59l12 63q13 80 100 80q42 0 61 -21t12 -59l-11 -63q-14 -80 -101 -80q-42 0 -61 21zM515 77q-19 21 -12 59l12 63
q13 80 100 80q42 0 61 -21t12 -59l-11 -63q-14 -80 -101 -80q-42 0 -61 21zM218 430q-42 0 -60.5 21t-11.5 59l11 64q14 80 101 80q42 0 60.5 -21t11.5 -59l-11 -64q-7 -38 -33 -59t-68 -21z" />
    <glyph glyph-name="guilsinglleft" unicode="&#x2039;" horiz-adv-x="342" 
d="M130 263l198 170l-49 52l-260 -222l184 -224l63 61z" />
    <glyph glyph-name="guilsinglright" unicode="&#x203a;" horiz-adv-x="347" 
d="M54 40l261 222l-184 228l-68 -51l139 -169l-199 -165z" />
    <glyph glyph-name="fraction" unicode="&#x2044;" horiz-adv-x="176" 
d="M309 710l-522 -710h98l522 710h-98z" />
    <glyph glyph-name="uni2070" unicode="&#x2070;" horiz-adv-x="373" 
d="M161 784q-45 -35 -56 -98l-23 -136q-11 -65 22 -104t104 -39q70 0 114.5 35t55.5 99l24 135q11 64 -22.5 103.5t-102.5 39.5q-71 0 -116 -35zM219 479q-36 0 -52 17.5t-10 48.5l23 135q13 66 86 66q34 0 50 -17.5t11 -48.5l-24 -135q-5 -31 -27.5 -48.5t-56.5 -17.5z" />
    <glyph glyph-name="uni2074" unicode="&#x2074;" horiz-adv-x="370" 
d="M328 508h54l12 64h-54l43 239h-77l-244 -248l-5 -55h201l-17 -93h70zM151 572l144 145l-26 -145h-118z" />
    <glyph glyph-name="uni2075" unicode="&#x2075;" horiz-adv-x="356" 
d="M95 604h137q72 0 62 -64q-5 -30 -27 -48.5t-58 -18.5q-64 0 -72 63l-3 22l-70 -24l3 -25q15 -102 137 -102q70 0 111 36.5t51 94.5t-19 93t-101 35h-66l23 80h186l10 65h-247z" />
    <glyph glyph-name="uni2076" unicode="&#x2076;" horiz-adv-x="372" 
d="M207 407q154 0 175 125q11 60 -17 93.5t-97 33.5q-36 0 -96 -17l5 29q15 78 95 78q48 0 64 -37l6 -14l70 33l-4 13q-11 32 -41.5 53.5t-82.5 21.5q-156 0 -181 -145l-20 -112q-13 -75 18 -115t106 -40zM307 534q-10 -58 -88 -58q-76 0 -62 77l3 19q51 18 88 18
q34 0 50.5 -14.5t8.5 -41.5z" />
    <glyph glyph-name="uni2077" unicode="&#x2077;" horiz-adv-x="316" 
d="M94 741h196l-202 -326h81l211 344l11 52h-283z" />
    <glyph glyph-name="uni2078" unicode="&#x2078;" horiz-adv-x="379" 
d="M208 407q159 0 179 118q12 69 -56 96q67 29 77 89q8 49 -26.5 79t-101.5 30q-68 0 -112 -29t-53 -82q-12 -66 46 -95q-80 -32 -91 -96q-9 -50 25.5 -80t112.5 -30zM214 581q11 4 12 4q49 -9 67 -22t14 -38q-11 -58 -87 -58q-41 0 -58 14.5t-12 40.5q2 10 7.5 19
t10.5 14.5t15.5 11t15 7.5t15.5 7zM331 706q-7 -39 -66 -60q-45 9 -62 21.5t-13 37.5q8 54 80 54q36 0 50.5 -14t10.5 -39z" />
    <glyph glyph-name="uni2079" unicode="&#x2079;" horiz-adv-x="372" 
d="M198 407q155 0 181 146l20 112q13 73 -18 113.5t-106 40.5q-151 0 -174 -123q-11 -60 16.5 -95t96.5 -35q35 0 95 18l-5 -29q-13 -79 -94 -79q-52 0 -65 37l-6 15l-71 -33l5 -16q10 -31 41.5 -51.5t83.5 -20.5zM175 692q11 57 88 57q76 0 62 -77l-3 -18q-39 -18 -85 -18
q-73 0 -62 56z" />
    <glyph glyph-name="uni2080" unicode="&#x2080;" horiz-adv-x="373" 
d="M-13 17q-11 -66 21.5 -105t104.5 -39q70 0 114.5 35t56.5 99l23 135q11 64 -22 103.5t-103 39.5q-72 0 -116 -35t-55 -98zM124 -55q-35 0 -51 17.5t-11 48.5l24 135q5 31 27.5 48.5t57.5 17.5q34 0 50.5 -17.5t10.5 -48.5l-23 -135q-6 -31 -28.5 -48.5t-56.5 -17.5z" />
    <glyph glyph-name="uni2081" unicode="&#x2081;" horiz-adv-x="273" 
d="M70 -119h77l69 396h-57l-176 -90l26 -63l115 57z" />
    <glyph glyph-name="uni2082" unicode="&#x2082;" horiz-adv-x="355" 
d="M18 183l-14 -27l64 -21l22 30q4 6 10 14.5t15.5 16t22 12.5t29.5 5q31 0 44.5 -15.5t8.5 -40.5q-4 -21 -17.5 -34.5t-24.5 -18.5q-5 -2 -15.5 -6t-25.5 -9l-61 -23q-46 -17 -68.5 -42t-32.5 -70l-15 -73h284l12 69h-210l4 17q6 34 51 47l61 17q63 20 95 48t41 80
q9 54 -21 90t-96 36q-106 0 -163 -102z" />
    <glyph glyph-name="uni2083" unicode="&#x2083;" horiz-adv-x="364" 
d="M-24 -27q15 -100 137 -100q72 0 113 28t50 82q12 71 -39 104q51 26 60 82q8 52 -21.5 84t-92.5 32q-119 0 -170 -102l-8 -16l63 -27l10 21q27 56 96 56q28 0 42 -14t9 -39q-10 -49 -57 -49h-67l-14 -68h74q24 0 35 -14.5t6 -38.5q-8 -53 -78 -53q-38 0 -54 13.5t-21 42.5
l-2 20l-74 -22z" />
    <glyph glyph-name="uni2084" unicode="&#x2084;" horiz-adv-x="370" 
d="M234 -26h54l12 64h-54l43 239h-77l-244 -248l-6 -55h202l-17 -93h70zM57 38l144 145l-26 -145h-118z" />
    <glyph glyph-name="uni2085" unicode="&#x2085;" horiz-adv-x="356" 
d="M59 277l-57 -207h137q72 0 62 -64q-5 -30 -27 -48.5t-58 -18.5q-64 0 -72 63l-3 22l-71 -24l4 -25q13 -102 137 -102q70 0 111 36.5t51 94.5t-19 93t-101 35h-66l23 80h186l10 65h-247z" />
    <glyph glyph-name="uni2086" unicode="&#x2086;" horiz-adv-x="372" 
d="M113 -127q154 0 175 125q11 60 -17 93.5t-97 33.5q-36 0 -96 -17l5 29q15 78 95 78q48 0 64 -37l6 -14l70 33l-4 13q-11 32 -41.5 53.5t-82.5 21.5q-156 0 -181 -145l-20 -112q-13 -75 18 -115t106 -40zM213 0q-10 -58 -88 -58q-76 0 -62 77l3 19q51 18 88 18
q34 0 50.5 -14.5t8.5 -41.5z" />
    <glyph glyph-name="uni2087" unicode="&#x2087;" horiz-adv-x="316" 
d="M0 207h196l-202 -326h81l211 344l11 52h-283z" />
    <glyph glyph-name="uni2088" unicode="&#x2088;" horiz-adv-x="379" 
d="M114 -127q159 0 179 118q12 69 -56 96q67 29 77 89q8 49 -26.5 79t-101.5 30q-68 0 -112 -29t-53 -81q-12 -67 46 -96q-80 -32 -91 -96q-9 -50 25.5 -80t112.5 -30zM120 47q11 4 12 4q48 -9 66.5 -22t14.5 -38q-11 -57 -87 -57q-41 0 -58 14t-12 40q2 10 7.5 19
t10.5 14.5t15.5 11t15 7.5t15.5 7zM237 173q-7 -40 -66 -61q-45 9 -62 21.5t-13 38.5q8 53 80 53q36 0 50.5 -14t10.5 -38z" />
    <glyph glyph-name="uni2089" unicode="&#x2089;" horiz-adv-x="372" 
d="M104 -127q155 0 181 146l20 112q13 73 -18 113.5t-106 40.5q-151 0 -174 -123q-11 -60 16.5 -95t96.5 -35q35 0 95 18l-5 -29q-13 -79 -94 -79q-52 0 -65 37l-6 15l-71 -33l5 -16q10 -31 41.5 -51.5t83.5 -20.5zM81 158q11 57 88 57q76 0 62 -77l-3 -18q-39 -18 -85 -18
q-73 0 -62 56z" />
    <glyph glyph-name="Euro" unicode="&#x20ac;" horiz-adv-x="728" 
d="M581 460h-309l5 27q13 70 68 109t140 39q70 0 104.5 -23t43.5 -52l8 -26l91 40l-12 31q-23 59 -73.5 89.5t-145.5 30.5q-134 0 -216.5 -59.5t-104.5 -173.5l-6 -32h-59l-32 -70h80l-14 -80h-103l-31 -70h121l-3 -20q-20 -114 43 -174.5t195 -60.5q183 0 270 119l23 32
l-84 45l-17 -27q-19 -31 -62 -55t-115 -24q-85 0 -126.5 36.5t-29.5 108.5l3 20h244l33 70h-267l14 80h291z" />
    <glyph glyph-name="uni20BD" unicode="&#x20bd;" horiz-adv-x="658" 
d="M72 124l-22 -124h98l21 124h348l12 70h-348l15 84h202q106 0 174.5 52t85.5 152q9 52 1 94t-32 72t-63 46t-90 16h-298l-91 -516h-67l-12 -70h66zM450 620q63 0 92 -33.5t18 -93.5q-11 -58 -51.5 -91.5t-103.5 -33.5h-193l45 252h193z" />
    <glyph glyph-name="uni2113" unicode="&#x2113;" horiz-adv-x="430" 
d="M99 183l-6 -36q-14 -75 18 -114t108 -39q61 0 123 43l16 11l-38 56l-17 -9q-42 -21 -65 -21q-42 0 -56 24t-5 75l12 71q228 166 260 337q13 72 -15.5 111.5t-92.5 39.5q-63 0 -112 -44.5t-67 -144.5l-46 -258l-115 -74l32 -71zM242 542q20 116 86 116q24 0 35.5 -19
t5.5 -56q-18 -113 -160 -226z" />
    <glyph glyph-name="uni2116" unicode="&#x2116;" horiz-adv-x="1049" 
d="M13 0h96l93 530l268 -530h88l125 710h-96l-93 -529l-270 529h-86zM911 725q-79 0 -126.5 -36.5t-59.5 -104.5l-13 -73q-12 -70 22.5 -111.5t111.5 -41.5q79 0 127.5 37t60.5 106l13 72q12 70 -23 111t-113 41zM799 451q-19 21 -12 59l11 63q14 80 101 80q42 0 60.5 -21
t11.5 -59l-11 -63q-14 -80 -101 -80q-42 0 -60 21zM987 228l14 81h-327l-14 -81h327z" />
    <glyph glyph-name="uni2117" unicode="&#x2117;" horiz-adv-x="803" 
d="M711 606q-86 104 -236 104q-151 0 -274 -104.5t-149 -254.5q-26 -149 60.5 -254t236.5 -105t272 104t149 255q26 150 -59 255zM589 134q-103 -88 -231 -88q-129 0 -201.5 88t-49.5 217q22 129 125.5 216.5t232.5 87.5q128 0 200 -87.5t49 -216.5q-22 -129 -125 -217z
M585 401q11 63 -19 100t-93 37h-153l-66 -380h59l20 116h93q63 0 105.5 33t53.5 94zM459 481q37 0 54 -20t11 -55t-30.5 -55t-60.5 -20h-89l26 150h89z" />
    <glyph glyph-name="trademark" unicode="&#x2122;" horiz-adv-x="619" 
d="M401 695h-41l-45 -252h50l27 151l47 -93h32l80 94l-27 -152h51l45 252h-41l-113 -135zM337 695h-235l-6 -50h90l-36 -202h52l36 202h90z" />
    <glyph glyph-name="Omega" unicode="&#x2126;" horiz-adv-x="767" 
d="M159 94h-147l-16 -94h290l12 70l-14 7q-78 42 -109.5 117t-14.5 169q10 54 33 103t58.5 86t83 59t106.5 22q57 0 98 -20t65 -55.5t31 -85.5t-4 -110q-8 -45 -28 -88t-49.5 -80t-67 -66.5t-80.5 -49.5l-17 -8l-14 -70h293l16 94h-149q160 100 190 276q27 157 -47 257
q-75 98 -221 98q-76 0 -141 -27t-115.5 -74.5t-84 -111t-46.5 -135.5q-32 -179 89 -283z" />
    <glyph glyph-name="estimated" unicode="&#x212e;" horiz-adv-x="816" 
d="M357 -15q59 0 114.5 17t104.5 47t90 71.5t71 90.5l11 19h-77l-12 -16q-30 -39 -65 -68.5t-72.5 -49t-76 -29t-76.5 -9.5q-103 0 -174 65l33 192h558l9 62q18 139 -65 240q-90 108 -243 108q-78 0 -150.5 -29.5t-131.5 -79.5t-99 -117.5t-54 -143.5q-27 -153 63 -261
q88 -109 242 -109zM277 588q93 66 198 66q107 0 175 -67l-36 -199h-373z" />
    <glyph glyph-name="onethird" unicode="&#x2153;" horiz-adv-x="907" 
d="M683 60q-38 0 -54 13.5t-21 43.5l-2 19l-74 -22l3 -22q15 -100 137 -100q72 0 113 28t50 82q12 71 -39 104q51 26 60 82q8 52 -21.5 84t-92.5 32q-119 0 -170 -102l-8 -16l63 -27l10 21q27 56 96 56q28 0 42 -14t9 -39q-10 -49 -57 -49h-67l-14 -68h74q24 0 35 -14.5
t6 -38.5q-8 -53 -78 -53zM755 710h-98l-522 -710h98zM76 627l26 -63l115 57l-54 -300h77l69 396h-57z" />
    <glyph glyph-name="twothirds" unicode="&#x2154;" horiz-adv-x="944" 
d="M577 92q15 -100 137 -100q72 0 113 28t50 82q12 71 -39 104q51 26 60 82q8 52 -21.5 84t-92.5 32q-119 0 -170 -102l-8 -16l63 -27l10 21q27 56 96 56q28 0 42 -14t9 -39q-10 -49 -57 -49h-67l-14 -68h74q24 0 35 -14.5t6 -38.5q-8 -53 -78 -53q-38 0 -54 13.5t-21 43.5
l-2 19l-74 -22zM184 454l61 17q63 20 95 48t41 80q9 54 -21 90t-96 36q-106 0 -163 -102l-14 -27l64 -21l22 30q4 6 10 14.5t15.5 16t22 12.5t29.5 5q31 0 44.5 -15.5t8.5 -40.5q-4 -21 -17.5 -34.5t-24.5 -18.5q-5 -2 -15.5 -6t-25.5 -9l-61 -23q-46 -17 -68.5 -42
t-32.5 -70l-15 -73h284l12 69h-210l4 17q6 34 51 47zM716 710l-522 -710h98l522 710h-98z" />
    <glyph glyph-name="oneeighth" unicode="&#x215b;" horiz-adv-x="915" 
d="M736 404q-68 0 -111.5 -29t-52.5 -81q-13 -66 45 -96q-80 -32 -91 -96q-9 -50 26 -80t113 -30q158 0 178 118q12 69 -55 96q65 28 77 89q8 49 -26.5 79t-102.5 30zM758 710h-98l-522 -710h98zM240 321l69 396h-57l-176 -90l26 -63l115 57l-54 -300h77zM614 126
q5 9 10.5 14.5t15.5 11t15.5 8t16 6.5t11.5 4q48 -9 66.5 -22t13.5 -38q-9 -57 -86 -57q-41 0 -58.5 14t-12.5 40q2 10 8 19zM646 291q10 53 80 53q36 0 51 -14t11 -38q-7 -39 -66 -61q-45 8 -62.5 21t-13.5 39z" />
    <glyph glyph-name="threeeighths" unicode="&#x215c;" horiz-adv-x="942" 
d="M769 404q-68 0 -111.5 -29t-52.5 -81q-13 -66 45 -96q-80 -32 -91 -96q-9 -50 26 -80t113 -30q158 0 179 118q12 69 -56 96q65 28 77 89q8 49 -26.5 79t-102.5 30zM54 435l3 -22q15 -100 137 -100q72 0 113 28t50 82q12 71 -39 104q51 26 60 82q8 52 -21.5 84t-92.5 32
q-119 0 -170 -102l-8 -16l63 -27l10 21q27 56 96 56q28 0 42 -14t9 -39q-10 -49 -57 -49h-67l-14 -68h74q24 0 35 -14.5t6 -38.5q-8 -53 -78 -53q-38 0 -54 13.5t-21 43.5l-2 19zM799 710h-98l-522 -710h98zM710 53q-41 0 -58.5 14t-12.5 40q2 10 7.5 19t11 14.5t16 11
t15 7.5t15.5 6.5t12 4.5q48 -9 66.5 -22t13.5 -38q-10 -57 -86 -57zM693 253q-17 12 -13 38q8 53 79 53q36 0 51 -14t11 -38q-7 -39 -66 -61q-45 9 -62 22z" />
    <glyph glyph-name="fiveeighths" unicode="&#x215d;" horiz-adv-x="942" 
d="M768 404q-68 0 -111.5 -29t-52.5 -81q-13 -66 45 -96q-80 -32 -91 -96q-9 -50 26 -80t113 -30q158 0 178 118q12 69 -56 96q66 28 78 89q8 49 -26.5 79t-102.5 30zM788 710h-98l-522 -710h98zM50 439l3 -25q15 -102 137 -102q70 0 111 36.5t51 94.5t-19 93t-101 35h-66
l23 80h186l10 65h-247l-57 -207h137q72 0 62 -64q-5 -30 -27 -48.5t-58 -18.5q-64 0 -72 63l-3 22zM656 141q6 5 15.5 10.5t15.5 8t15.5 6t11.5 4.5q48 -9 67 -22t14 -38q-9 -57 -87 -57q-40 0 -57.5 14t-12.5 40q2 10 7 19t11 15zM692 252q-18 13 -14 39q8 53 80 53
q36 0 51 -14t10 -38q-6 -39 -65 -61q-45 8 -62 21z" />
    <glyph glyph-name="seveneighths" unicode="&#x215e;" horiz-adv-x="903" 
d="M607 198q-79 -33 -90 -96q-9 -50 25.5 -80t112.5 -30q159 0 179 118q12 69 -56 96q67 29 77 89q8 49 -26.5 79t-101.5 30q-69 0 -112.5 -29t-52.5 -81q-12 -67 45 -96zM205 0l522 710h-98l-522 -710h98zM375 665l11 52h-283l-14 -70h196l-202 -326h81zM615 141
q5 5 15.5 10.5t15 7.5t15.5 6.5t12 4.5q48 -9 66.5 -22t14.5 -38q-11 -57 -87 -57q-41 0 -58 14t-12 40q2 10 7.5 19t10.5 15zM650 253q-17 12 -13 38q8 53 79 53q36 0 51 -14t11 -38q-7 -40 -66 -61q-45 9 -62 22z" />
    <glyph glyph-name="arrowleft" unicode="&#x2190;" horiz-adv-x="745" 
d="M165 297h537l13 73h-538l207 177l-42 53l-311 -266l217 -264l60 51z" />
    <glyph glyph-name="arrowup" unicode="&#x2191;" horiz-adv-x="745" 
d="M170 360l206 175l-95 -537h76l94 537l144 -174l62 51l-218 265l-313 -266z" />
    <glyph glyph-name="arrowright" unicode="&#x2192;" horiz-adv-x="745" 
d="M593 370h-538l-13 -73h538l-206 -177l42 -50l312 264l-220 265l-60 -53z" />
    <glyph glyph-name="arrowdown" unicode="&#x2193;" horiz-adv-x="745" 
d="M305 126l-145 175l-62 -51l219 -266l311 266l-43 50l-205 -174l95 537h-76z" />
    <glyph glyph-name="uni2196" unicode="&#x2196;" horiz-adv-x="745" 
d="M115 70l446 379l-44 -247h74l66 374h-373l-14 -73h248l-448 -381z" />
    <glyph glyph-name="uni2197" unicode="&#x2197;" horiz-adv-x="745" 
d="M561 576h-374l-67 -374h73l44 247l312 -379l64 52l-314 381h248z" />
    <glyph glyph-name="uni2198" unicode="&#x2198;" horiz-adv-x="745" 
d="M207 147l-14 -74h374l67 375h-73l-44 -247l-312 379l-64 -52l313 -381h-247z" />
    <glyph glyph-name="uni2199" unicode="&#x2199;" horiz-adv-x="745" 
d="M236 448h-72l-67 -375h374l14 74h-249l448 381l-46 51l-446 -378z" />
    <glyph glyph-name="partialdiff" unicode="&#x2202;" horiz-adv-x="551" 
d="M214 -15q111 0 176.5 48.5t82.5 142.5l37 215q17 91 9.5 157.5t-42 109.5t-97.5 63.5t-158 20.5h-25l-11 -82h24q69 0 115 -13t72.5 -41t35 -70t0.5 -101q-28 70 -146 70q-97 0 -161.5 -50t-80.5 -143l-21 -123q-17 -94 31 -149t159 -55zM292 424q66 0 95 -30t19 -87
l-22 -123q-22 -118 -156 -118q-67 0 -96 30.5t-19 87.5l22 122q10 57 50 87.5t107 30.5z" />
    <glyph glyph-name="Delta" unicode="&#x2206;" horiz-adv-x="634" 
d="M-20 0h574l12 74l-126 636h-95l-354 -639zM97 80l275 519l92 -519h-367z" />
    <glyph glyph-name="product" unicode="&#x220f;" horiz-adv-x="690" 
d="M50 -100h97l127 720h255l-127 -720h97l127 720h89l14 90h-625l-17 -90h90z" />
    <glyph glyph-name="summation" unicode="&#x2211;" horiz-adv-x="583" 
d="M-20 -23l-15 -77h506l14 90h-386l248 320l-138 310h384l14 90h-495l-14 -79l145 -321z" />
    <glyph glyph-name="minus" unicode="&#x2212;" horiz-adv-x="596" 
d="M57 282h472l15 87h-472z" />
    <glyph glyph-name="uni2215" unicode="&#x2215;" horiz-adv-x="606" 
d="M587 710l-648 -710h99l647 710h-98z" />
    <glyph glyph-name="uni2219" unicode="&#x2219;" horiz-adv-x="224" 
d="M48 242q-3 -23 10.5 -39t36.5 -16t41 16t21 39t-10.5 38.5t-36.5 15.5t-41 -15.5t-21 -38.5z" />
    <glyph glyph-name="radical" unicode="&#x221a;" horiz-adv-x="701" 
d="M271 440h-225l-16 -87h157l82 -459h89l418 857h-99l-339 -725z" />
    <glyph glyph-name="infinity" unicode="&#x221e;" horiz-adv-x="709" 
d="M340 222q15 -40 48 -68.5t85 -28.5q65 0 119 43t67 112q12 71 -24 118.5t-104 47.5q-91 0 -169 -101q-41 101 -132 101q-70 0 -121.5 -43t-64.5 -114q-12 -67 24.5 -115.5t101.5 -48.5q55 0 98.5 29.5t71.5 67.5zM411 302q11 14 19.5 22t22.5 19.5t30 17.5t33 6
q37 0 55 -23.5t12 -58.5t-32 -58q-27 -23 -62 -23q-15 0 -27.5 5t-20.5 10t-16.5 16.5t-11.5 17t-9.5 19t-6.5 14.5q2 2 14 16zM254 357q17 -11 24.5 -22t16.5 -28.5t11 -20.5q-1 -2 -13.5 -16.5t-21 -22.5t-22.5 -20t-30.5 -17.5t-33.5 -5.5q-35 0 -53 23.5t-12 57.5
q7 36 33 59t63 23q21 0 38 -10z" />
    <glyph glyph-name="integral" unicode="&#x222b;" horiz-adv-x="387" 
d="M-77 -220h24q54 0 94 11t68 33.5t45 58t26 85.5l101 574q5 30 13.5 52t23.5 36t37.5 20.5t55.5 6.5h25l14 83h-24q-54 0 -94 -11t-68 -34t-45 -58.5t-26 -85.5l-101 -573q-6 -31 -14.5 -53t-23.5 -35.5t-37 -20t-55 -6.5h-25z" />
    <glyph glyph-name="approxequal" unicode="&#x2248;" horiz-adv-x="560" 
d="M479 227l25 21l-53 59l-20 -15q-17 -13 -36.5 -21t-40.5 -8q-28 0 -78 19q-48 19 -86 19t-69.5 -12.5t-60.5 -35.5l-24 -18l55 -62l19 16q35 27 76 29q28 0 80 -20q47 -18 85 -18q35 0 67.5 12.5t60.5 34.5zM508 411l25 20l-52 59l-20 -15q-17 -12 -36.5 -20.5
t-40.5 -8.5q-28 0 -78 19t-86 19q-38 0 -69.5 -12.5t-61.5 -35.5l-23 -18l55 -61l19 15q33 27 76 29q26 0 80 -20q47 -18 85 -18q35 0 67.5 13t59.5 35z" />
    <glyph glyph-name="notequal" unicode="&#x2260;" horiz-adv-x="594" 
d="M39 185h134l-80 -116h55l80 116h283l15 86h-239l76 111h183l15 87h-138l79 114h-55l-78 -114h-280l-15 -87h235l-77 -111h-178z" />
    <glyph glyph-name="lessequal" unicode="&#x2264;" horiz-adv-x="548" 
d="M82 384l374 -186l18 101l-275 122l317 124l18 98l-440 -187zM24 61h409l14 84h-407z" />
    <glyph glyph-name="greaterequal" unicode="&#x2265;" horiz-adv-x="543" 
d="M74 299l-16 -100l438 185l15 72l-376 187l-18 -98l275 -123zM33 68h407l16 84h-407z" />
    <glyph glyph-name="lozenge" unicode="&#x25ca;" horiz-adv-x="542" 
d="M376 710h-66l-275 -356l150 -355h66l274 356zM325 606l99 -251l-188 -251l-96 251z" />
    <glyph glyph-name="zero.denom" horiz-adv-x="373" 
d="M8 136q-11 -66 21.5 -105t104.5 -39q70 0 114.5 35t56.5 99l23 135q11 64 -22 103.5t-103 39.5q-72 0 -116 -35t-55 -98zM145 64q-35 0 -51 17.5t-11 48.5l24 135q5 31 27.5 48.5t57.5 17.5q34 0 50.5 -17.5t10.5 -48.5l-23 -135q-6 -31 -28.5 -48.5t-56.5 -17.5z" />
    <glyph glyph-name="one.denom" horiz-adv-x="272" 
d="M91 0h77l69 396h-57l-176 -90l26 -63l115 57z" />
    <glyph glyph-name="two.denom" horiz-adv-x="355" 
d="M25 275l64 -21l22 30q4 6 10 14.5t15.5 16t22 12.5t29.5 5q31 0 44.5 -15.5t8.5 -40.5q-4 -21 -17.5 -34.5t-24.5 -18.5q-5 -2 -15.5 -6t-25.5 -9l-61 -23q-46 -17 -68.5 -42t-32.5 -70l-15 -73h284l12 69h-210l4 17q6 34 51 47l61 17q63 20 95 48t41 80q9 54 -21 90
t-96 36q-106 0 -163 -102z" />
    <glyph glyph-name="three.denom" horiz-adv-x="364" 
d="M-3 92q15 -100 137 -100q72 0 113 28t50 82q12 71 -39 104q51 26 60 82q8 52 -21.5 84t-92.5 32q-119 0 -170 -102l-8 -16l63 -27l10 21q27 56 96 56q28 0 42 -14t9 -39q-10 -49 -57 -49h-67l-14 -68h74q24 0 35 -14.5t6 -38.5q-8 -53 -78 -53q-38 0 -54 13.5t-21 43.5
l-2 19l-74 -22z" />
    <glyph glyph-name="four.denom" horiz-adv-x="370" 
d="M255 93h54l12 64h-54l43 239h-77l-244 -248l-6 -55h202l-17 -93h70zM78 157l144 145l-26 -145h-118z" />
    <glyph glyph-name="five.denom" horiz-adv-x="356" 
d="M79 396l-57 -207h137q72 0 62 -64q-5 -30 -27 -48.5t-58 -18.5q-64 0 -72 63l-3 22l-71 -24l4 -25q15 -102 137 -102q70 0 111 36.5t51 94.5t-19 93t-101 35h-66l23 80h186l10 65h-247z" />
    <glyph glyph-name="six.denom" horiz-adv-x="372" 
d="M134 -8q154 0 175 125q11 60 -17 93.5t-97 33.5q-36 0 -96 -17l5 29q15 78 95 78q48 0 64 -37l6 -14l70 33l-4 13q-11 32 -41.5 53.5t-82.5 21.5q-156 0 -181 -145l-20 -112q-13 -75 18 -115t106 -40zM234 119q-10 -58 -88 -58q-76 0 -62 77l3 19q51 18 88 18
q34 0 50.5 -14.5t8.5 -41.5z" />
    <glyph glyph-name="seven.denom" horiz-adv-x="315" 
d="M21 326h196l-202 -326h81l211 344l11 52h-283z" />
    <glyph glyph-name="eight.denom" horiz-adv-x="379" 
d="M135 -8q159 0 179 118q12 69 -56 96q67 29 77 89q8 49 -26.5 79t-101.5 30q-68 0 -112 -29t-53 -81q-12 -67 46 -96q-80 -32 -91 -96q-9 -50 25.5 -80t112.5 -30zM141 166q11 4 12 4q48 -9 66.5 -22t14.5 -38q-11 -57 -87 -57q-41 0 -58 14t-12 40q2 10 7.5 19t10.5 14.5
t15.5 11t15 7.5t15.5 7zM258 292q-7 -40 -66 -61q-45 9 -62 21.5t-13 38.5q8 53 80 53q36 0 50.5 -14t10.5 -38z" />
    <glyph glyph-name="nine.denom" horiz-adv-x="372" 
d="M125 -8q155 0 181 146l20 112q13 73 -18 113.5t-106 40.5q-151 0 -174 -123q-11 -60 16.5 -95t96.5 -35q35 0 95 18l-5 -29q-13 -79 -94 -79q-52 0 -65 37l-6 15l-71 -33l5 -16q10 -31 41.5 -51.5t83.5 -20.5zM102 277q11 57 88 57q76 0 62 -77l-3 -18q-39 -18 -85 -18
q-73 0 -62 56z" />
    <glyph glyph-name="zero.num" horiz-adv-x="373" 
d="M65 457q-11 -66 21.5 -105t104.5 -39q70 0 114.5 35t56.5 99l23 135q11 64 -22 103.5t-103 39.5q-72 0 -116 -35t-55 -98zM202 385q-35 0 -51 17.5t-11 48.5l24 135q5 31 27.5 48.5t57.5 17.5q34 0 50.5 -17.5t10.5 -48.5l-23 -135q-6 -31 -28.5 -48.5t-56.5 -17.5z" />
    <glyph glyph-name="one.num" horiz-adv-x="273" 
d="M148 321h77l69 396h-57l-176 -90l26 -63l115 57z" />
    <glyph glyph-name="two.num" horiz-adv-x="355" 
d="M82 596l64 -21l22 30q4 6 10 14.5t15.5 16t22 12.5t29.5 5q31 0 44.5 -15.5t8.5 -40.5q-4 -21 -17.5 -34.5t-24.5 -18.5q-5 -2 -15.5 -6t-25.5 -9l-61 -23q-46 -17 -68.5 -42t-32.5 -70l-15 -73h284l12 69h-210l4 17q6 34 51 47l61 17q63 20 95 48t41 80q9 54 -21 90
t-96 36q-106 0 -163 -102z" />
    <glyph glyph-name="three.num" horiz-adv-x="363" 
d="M53 412q15 -100 137 -100q72 0 113 28t50 82q12 71 -39 104q51 26 60 82q8 52 -21.5 84t-92.5 32q-119 0 -170 -102l-8 -16l63 -27l10 21q27 56 96 56q28 0 42 -14t9 -39q-10 -49 -57 -49h-67l-14 -68h74q24 0 35 -14.5t6 -38.5q-8 -53 -78 -53q-38 0 -54 13.5t-21 43.5
l-2 19l-74 -22z" />
    <glyph glyph-name="four.num" horiz-adv-x="370" 
d="M312 414h54l12 64h-54l43 239h-77l-244 -248l-5 -55h201l-17 -93h70zM135 478l144 145l-26 -145h-118z" />
    <glyph glyph-name="five.num" horiz-adv-x="356" 
d="M79 510h137q72 0 62 -64q-5 -30 -27 -48.5t-58 -18.5q-64 0 -72 63l-3 22l-70 -24l3 -25q15 -102 137 -102q70 0 111 36.5t51 94.5t-19 93t-101 35h-66l23 80h186l10 65h-247z" />
    <glyph glyph-name="six.num" horiz-adv-x="371" 
d="M190 313q154 0 175 125q11 60 -17 93.5t-97 33.5q-36 0 -96 -17l5 29q15 78 95 78q48 0 64 -37l6 -14l70 33l-4 13q-11 32 -41.5 53.5t-82.5 21.5q-156 0 -181 -145l-20 -112q-13 -75 18 -115t106 -40zM290 440q-10 -58 -88 -58q-76 0 -62 77l3 19q51 18 88 18
q34 0 50.5 -14.5t8.5 -41.5z" />
    <glyph glyph-name="seven.num" horiz-adv-x="316" 
d="M78 647h196l-202 -326h81l211 344l11 52h-283z" />
    <glyph glyph-name="eight.num" horiz-adv-x="380" 
d="M192 313q159 0 179 118q12 69 -56 96q67 29 77 89q8 48 -26.5 78.5t-101.5 30.5q-68 0 -112 -29t-53 -82q-12 -67 46 -95q-80 -32 -91 -96q-9 -50 25.5 -80t112.5 -30zM198 487q11 4 12 4q49 -9 67 -22t14 -38q-11 -58 -87 -58q-41 0 -58 14.5t-12 40.5q2 10 7.5 19
t10.5 14.5t15.5 11t15 7.5t15.5 7zM315 612q-8 -43 -66 -60q-45 9 -62 21.5t-13 37.5q8 54 80 54q36 0 50.5 -14t10.5 -39z" />
    <glyph glyph-name="nine.num" horiz-adv-x="373" 
d="M182 313q155 0 181 146l20 112q13 73 -18 113.5t-106 40.5q-151 0 -174 -123q-11 -60 16.5 -95t96.5 -35q35 0 95 18l-5 -29q-13 -79 -94 -79q-52 0 -65 37l-6 15l-71 -33l5 -16q10 -31 41.5 -51.5t83.5 -20.5zM159 598q11 57 88 57q76 0 62 -77l-3 -18q-39 -18 -85 -18
q-73 0 -62 56z" />
    <glyph glyph-name="nonmarkingreturn" horiz-adv-x="322" 
 />
    <glyph glyph-name="acute.case" horiz-adv-x="257" 
d="M326 918l-219 -121l24 -44l234 103z" />
    <glyph glyph-name="breve.case" horiz-adv-x="287" 
d="M92 867q7 -51 42 -78t93 -27q119 0 171 105l9 17l-64 24l-7 -15q-31 -66 -98 -66q-68 0 -76 66l-2 15l-70 -24z" />
    <glyph glyph-name="caron.case" horiz-adv-x="332" 
d="M227 760h55l181 144h-91l-110 -85l-80 85h-87z" />
    <glyph glyph-name="cedilla.case" horiz-adv-x="251" 
d="M-41 -172l-11 8l-10 -57l13 -8q25 -16 74 -16q118 0 142 96q10 37 -9.5 61t-59.5 24q-4 0 -9 -0.5t-11 -1.5l36 66h-54l-67 -117l23 5q14 3 30 3q51 -1 45 -36q-8 -47 -68 -47q-36 0 -64 20z" />
    <glyph glyph-name="circumflex.case" horiz-adv-x="385" 
d="M332 905h-54l-183 -144h91l111 85l79 -85h89z" />
    <glyph glyph-name="dieresis.case" horiz-adv-x="439" 
d="M174 830q-3 -20 8 -33t30 -13t34.5 13t18.5 33q3 19 -8 32t-30 13q-20 0 -35 -13t-18 -32zM370 830q-3 -20 8 -33t30 -13q20 0 35 13t18 33q3 19 -8 32t-30 13t-34.5 -13t-18.5 -32z" />
    <glyph glyph-name="dotaccent.case" horiz-adv-x="216" 
d="M162 828q-3 -20 8.5 -33.5t30.5 -13.5q20 0 35.5 13.5t18.5 33.5q3 19 -8 32.5t-31 13.5t-35.5 -13.5t-18.5 -32.5z" />
    <glyph glyph-name="grave.case" horiz-adv-x="257" 
d="M112 852l199 -100l40 43l-180 119z" />
    <glyph glyph-name="hungarumlaut.case" horiz-adv-x="395" 
d="M297 772l45 -17l173 136l-75 24zM132 775l44 -17l164 133l-71 24z" />
    <glyph glyph-name="macron.case" horiz-adv-x="352" 
d="M141 859l-10 -65h279l10 65h-279z" />
    <glyph glyph-name="ogonek.case" horiz-adv-x="252" 
d="M31 -246q56 0 99 36l8 6l-13 50l-11 -9q-19 -16 -43 -16q-26 0 -29 24t23.5 65.5t80.5 89.5h-60q-63 -48 -97 -99.5t-30 -91.5q3 -55 72 -55z" />
    <glyph glyph-name="ring.case" horiz-adv-x="240" 
d="M244 954q-47 0 -81.5 -28.5t-41.5 -73.5q-8 -46 16.5 -73.5t71.5 -27.5q46 0 79.5 28t40.5 73q8 46 -15.5 74t-69.5 28zM176 811q-14 15 -9 41t24 41.5t46 15.5q26 0 38.5 -16t7.5 -41q-4 -25 -22 -41t-44 -16q-27 0 -41 16z" />
    <glyph glyph-name="tilde.case" horiz-adv-x="305" 
d="M92 783l-2 -15h55l2 15q8 48 41 48q15 0 29 -10t29 -21.5t32 -21.5t38 -10q42 0 65.5 25t33.5 79l3 16h-55l-3 -15q-7 -48 -40 -48q-15 0 -28.5 10t-28.5 21.5t-32.5 21.5t-40.5 10q-81 0 -98 -105z" />
    <glyph glyph-name="uni0326.alt" horiz-adv-x="0" 
d="M221 769l-101 -185h96l73 185h-68z" />
    <glyph glyph-name="_375" horiz-adv-x="664" 
d="M-4 0h574l12 74l-126 636h-95l-354 -639zM113 80l275 519l92 -519h-367z" />
    <glyph glyph-name="_376" horiz-adv-x="744" 
d="M161 90h-157l-17 -90h295l13 69l-13 7q-78 42 -109.5 119t-14.5 173q9 53 33 100t60 82t83 55.5t103 20.5q109 0 158 -75q50 -76 30 -183q-18 -100 -77.5 -176.5t-150.5 -115.5l-14 -6l-13 -70h295l17 90h-158q78 46 128 119.5t67 167.5q27 150 -51 242q-79 91 -217 91
q-73 0 -137.5 -25.5t-115.5 -70t-85.5 -105.5t-46.5 -132q-17 -93 7.5 -167t87.5 -120z" />
    </font>
</defs>
</svg>
